<svg version="1.1" id="Calque_1" xmlns="http://www.w3.org/2000/svg" xmlns:xlink="http://www.w3.org/1999/xlink" x="0" y="0" viewBox="0 0 1366 331.45" style="enable-background:new 0 0 1366 331.45" xml:space="preserve"><style>.st0{clip-path:url(#SVGID_2_)}.st0,.st1{fill:#282828}</style><defs><path id="SVGID_1_" d="M.75 0h1364.88v331.45H.75z"/></defs><clipPath id="SVGID_2_"><use xlink:href="#SVGID_1_" style="overflow:visible"/></clipPath><path class="st0" d="M383.12 288.45c0-3.7.61-7.05 1.84-10.04 1.24-2.98 2.85-5.52 4.86-7.59 2-2.06 4.29-3.65 6.89-4.76a20.22 20.22 0 0 1 8.05-1.66c3.26 0 6.12.55 8.55 1.66 2.44 1.11 4.47 2.66 6.11 4.63 1.63 1.97 2.85 4.3 3.65 6.99.8 2.68 1.2 5.58 1.2 8.73 0 1.24-.06 2.36-.19 3.37-.12 1.02-.24 1.81-.37 2.36h-27.47c.61 3.52 1.98 6.07 4.11 7.64 2.14 1.57 4.73 2.36 7.83 2.36 3.26 0 6.56-1.02 9.89-3.05l4.53 8.23c-2.34 1.6-4.95 2.87-7.81 3.79-2.87.93-5.69 1.39-8.47 1.39-3.27 0-6.32-.54-9.16-1.61-2.84-1.08-5.3-2.65-7.39-4.72-2.1-2.07-3.74-4.58-4.91-7.54-1.15-2.97-1.74-6.36-1.74-10.18m29.6-4.72c0-2.65-.59-4.81-1.77-6.47-1.17-1.66-3.14-2.5-5.92-2.5-2.15 0-4.06.72-5.69 2.18-1.63 1.45-2.69 3.71-3.19 6.79h16.57zM431.96 281.61c0-5 .77-9.45 2.31-13.37s3.62-7.23 6.25-9.95c2.62-2.7 5.66-4.77 9.16-6.19 3.48-1.42 7.16-2.13 11.05-2.13 3.76 0 7.17.79 10.22 2.36 3.06 1.58 5.6 3.41 7.63 5.5l-7.49 8.42c-1.54-1.42-3.1-2.53-4.67-3.33-1.58-.8-3.42-1.2-5.5-1.2-2.1 0-4.06.45-5.88 1.34-1.82.89-3.41 2.18-4.76 3.84-1.36 1.66-2.42 3.7-3.19 6.1-.77 2.4-1.16 5.12-1.16 8.13 0 6.23 1.33 11.06 3.98 14.48s6.2 5.14 10.64 5.14c2.46 0 4.63-.49 6.48-1.48a18.6 18.6 0 0 0 4.99-3.89l7.49 8.23c-2.53 2.97-5.41 5.19-8.65 6.67-3.24 1.48-6.74 2.22-10.5 2.22-3.88 0-7.55-.67-11-1.99a25.708 25.708 0 0 1-9.07-5.87c-2.59-2.59-4.63-5.81-6.1-9.66-1.49-3.87-2.23-8.32-2.23-13.37M484.86 288.45c0-3.83.61-7.23 1.84-10.22 1.24-3 2.88-5.5 4.96-7.54 2.05-2.04 4.45-3.59 7.16-4.67s5.52-1.62 8.42-1.62 5.69.54 8.37 1.62c2.68 1.08 5.05 2.63 7.12 4.67 2.07 2.04 3.72 4.55 4.95 7.54s1.84 6.39 1.84 10.22c0 3.82-.61 7.23-1.84 10.22-1.23 3-2.88 5.51-4.95 7.54-2.07 2.04-4.44 3.6-7.12 4.68-2.68 1.07-5.48 1.61-8.37 1.61s-5.71-.54-8.42-1.61a21.16 21.16 0 0 1-7.16-4.68c-2.08-2.03-3.72-4.54-4.96-7.54-1.23-2.99-1.84-6.4-1.84-10.22m13.97 0c0 4.01.69 7.18 2.08 9.53 1.38 2.34 3.49 3.52 6.33 3.52 2.77 0 4.87-1.17 6.29-3.52s2.13-5.52 2.13-9.53-.71-7.18-2.13-9.53c-1.42-2.34-3.52-3.52-6.29-3.52-2.84 0-4.95 1.17-6.33 3.52-1.39 2.35-2.08 5.52-2.08 9.53M538.87 265.51h11.1l.93 5.92h.37c1.91-1.92 3.95-3.57 6.1-4.96 2.15-1.38 4.75-2.08 7.77-2.08 3.26 0 5.9.66 7.9 1.99s3.6 3.22 4.76 5.69c2.04-2.1 4.19-3.9 6.43-5.4 2.25-1.51 4.91-2.27 8.01-2.27 4.93 0 8.55 1.65 10.87 4.95 2.31 3.3 3.47 7.81 3.47 13.55v28.48h-13.6v-26.73c0-3.33-.45-5.61-1.34-6.85-.9-1.23-2.33-1.85-4.3-1.85-2.28 0-4.9 1.48-7.86 4.45v30.98h-13.6v-26.73c0-3.33-.45-5.61-1.34-6.85-.89-1.23-2.33-1.85-4.3-1.85-2.34 0-4.94 1.48-7.77 4.45v30.98h-13.6v-45.87zM618.14 265.51h11.1l.92 5.92h.37c1.92-1.92 3.95-3.57 6.1-4.96 2.16-1.38 4.75-2.08 7.77-2.08 3.26 0 5.9.66 7.9 1.99s3.6 3.22 4.76 5.69c2.03-2.1 4.18-3.9 6.43-5.4 2.26-1.51 4.91-2.27 8.01-2.27 4.93 0 8.55 1.65 10.87 4.95 2.31 3.3 3.47 7.81 3.47 13.55v28.48h-13.6v-26.73c0-3.33-.44-5.61-1.33-6.85-.9-1.23-2.33-1.85-4.31-1.85-2.28 0-4.9 1.48-7.86 4.45v30.98h-13.6v-26.73c0-3.33-.45-5.61-1.34-6.85-.89-1.23-2.33-1.85-4.3-1.85-2.33 0-4.93 1.48-7.77 4.45v30.98h-13.6v-45.87zM694.72 288.45c0-3.7.62-7.05 1.85-10.04 1.23-2.98 2.85-5.52 4.86-7.59 2-2.06 4.3-3.65 6.89-4.76a20.22 20.22 0 0 1 8.05-1.66c3.27 0 6.12.55 8.56 1.66 2.44 1.11 4.47 2.66 6.1 4.63 1.64 1.97 2.85 4.3 3.65 6.99.79 2.68 1.2 5.58 1.2 8.73 0 1.24-.07 2.36-.19 3.37-.12 1.02-.24 1.81-.37 2.36h-27.47c.61 3.52 1.99 6.07 4.11 7.64 2.13 1.57 4.73 2.36 7.82 2.36 3.27 0 6.56-1.02 9.89-3.05l4.53 8.23c-2.34 1.6-4.94 2.87-7.81 3.79-2.87.93-5.69 1.39-8.47 1.39-3.26 0-6.32-.54-9.15-1.61-2.85-1.08-5.31-2.65-7.4-4.72-2.1-2.07-3.73-4.58-4.91-7.54-1.16-2.97-1.74-6.36-1.74-10.18m29.6-4.72c0-2.65-.58-4.81-1.76-6.47s-3.15-2.5-5.92-2.5c-2.17 0-4.06.72-5.69 2.18-1.63 1.45-2.69 3.71-3.19 6.79h16.56zM745.31 265.51h11.1l.92 8.05h.37c1.66-3.14 3.67-5.45 6.02-6.94 2.34-1.48 4.68-2.22 7.03-2.22 1.29 0 2.36.08 3.18.23.83.15 1.59.39 2.26.69l-2.21 11.75c-.87-.25-1.67-.43-2.41-.56-.74-.12-1.6-.18-2.59-.18-1.72 0-3.53.61-5.41 1.85-1.88 1.22-3.44 3.42-4.67 6.56v26.64h-13.6v-45.87zM778.52 288.45c0-3.83.64-7.23 1.94-10.22 1.3-3 3.04-5.5 5.22-7.54 2.19-2.04 4.73-3.59 7.64-4.67 2.9-1.08 5.92-1.62 9.06-1.62 2.84 0 5.4.48 7.68 1.44 2.28.95 4.19 2.23 5.74 3.83l-6.2 8.42c-2.16-1.79-4.29-2.68-6.38-2.68-3.33 0-5.95 1.17-7.86 3.52-1.91 2.34-2.87 5.52-2.87 9.53s.97 7.18 2.92 9.53c1.94 2.34 4.39 3.52 7.35 3.52 1.66 0 3.18-.35 4.53-1.02 1.35-.68 2.59-1.46 3.7-2.31l5.46 8.6c-2.23 1.97-4.69 3.42-7.4 4.35-2.72.93-5.34 1.38-7.87 1.38-3.2 0-6.18-.54-8.92-1.61-2.75-1.08-5.14-2.64-7.17-4.68-2.03-2.03-3.64-4.54-4.81-7.54-1.18-3-1.76-6.41-1.76-10.23M819.12 288.45c0-3.7.61-7.05 1.84-10.04 1.24-2.98 2.85-5.52 4.86-7.59 2-2.06 4.29-3.65 6.89-4.76a20.22 20.22 0 0 1 8.05-1.66c3.26 0 6.12.55 8.55 1.66 2.44 1.11 4.47 2.66 6.11 4.63 1.63 1.97 2.85 4.3 3.65 6.99.8 2.68 1.2 5.58 1.2 8.73 0 1.24-.06 2.36-.19 3.37-.12 1.02-.24 1.81-.37 2.36h-27.47c.61 3.52 1.98 6.07 4.11 7.64 2.14 1.57 4.73 2.36 7.83 2.36 3.26 0 6.56-1.02 9.89-3.05l4.53 8.23c-2.34 1.6-4.94 2.87-7.81 3.79-2.87.93-5.69 1.39-8.47 1.39-3.26 0-6.31-.54-9.15-1.61-2.84-1.08-5.3-2.65-7.39-4.72-2.1-2.07-3.74-4.58-4.91-7.54-1.17-2.97-1.75-6.36-1.75-10.18m29.6-4.72c0-2.65-.59-4.81-1.76-6.47-1.17-1.66-3.15-2.5-5.92-2.5-2.16 0-4.06.72-5.69 2.18-1.64 1.45-2.7 3.71-3.19 6.79h16.56zM891.91 250.43h6.01l12.76 35.8 4.81 13.5h.37l4.61-13.5 12.77-35.8h6.02v60.96h-4.16v-40.06c0-2.53.06-5.26.18-8.19.13-2.93.25-5.69.38-8.28h-.38l-4.8 13.41-13.05 36.45h-3.79l-13.14-36.45-4.81-13.41h-.37c.12 2.59.24 5.35.37 8.28.13 2.93.18 5.66.18 8.19v40.06h-3.97v-60.96zM954.25 300.29c0-4.87 2.31-8.6 6.93-11.19 4.63-2.59 11.87-4.45 21.74-5.56.06-1.66-.05-3.34-.32-5.04-.27-1.69-.8-3.2-1.57-4.53-.78-1.33-1.85-2.4-3.24-3.24-1.39-.83-3.16-1.25-5.32-1.25-3.02 0-5.76.59-8.23 1.77-2.47 1.16-4.44 2.31-5.92 3.42l-1.84-3.05c.81-.56 1.77-1.18 2.91-1.85 1.14-.68 2.41-1.3 3.79-1.85 1.39-.55 2.92-1.03 4.58-1.43 1.67-.4 3.4-.6 5.19-.6 2.65 0 4.87.44 6.66 1.33 1.79.9 3.24 2.12 4.34 3.65 1.12 1.54 1.9 3.35 2.36 5.42.46 2.06.69 4.3.69 6.7v28.4h-3.42l-.46-5.74h-.19a49.197 49.197 0 0 1-7.35 4.76 17.653 17.653 0 0 1-8.37 2.08c-1.79 0-3.46-.25-4.99-.74-1.54-.49-2.91-1.23-4.11-2.21-1.2-.99-2.15-2.26-2.82-3.8-.71-1.54-1.04-3.35-1.04-5.45m4.25-.19c0 3.21.92 5.49 2.77 6.85 1.86 1.35 4.04 2.03 6.57 2.03 2.59 0 5.05-.61 7.4-1.84 2.34-1.23 4.9-3.02 7.67-5.36V286.7c-4.56.55-8.39 1.23-11.51 2.03-3.11.8-5.63 1.76-7.54 2.87-1.92 1.11-3.29 2.38-4.11 3.79-.83 1.41-1.25 2.99-1.25 4.71M999.19 289.28c0-3.58.53-6.82 1.58-9.72 1.04-2.9 2.48-5.36 4.29-7.39 1.82-2.04 3.92-3.59 6.3-4.67 2.37-1.08 4.89-1.61 7.54-1.61 2.71 0 5.07.48 7.08 1.43 2 .96 4.11 2.3 6.33 4.03l-.19-8.14v-18.32h4.07v66.51h-3.52l-.37-5.74h-.28c-1.79 1.8-3.9 3.39-6.33 4.77-2.44 1.39-5.14 2.08-8.1 2.08-5.61 0-10.09-1.98-13.41-5.96-3.32-4-4.99-9.75-4.99-17.27m4.35 0c0 2.95.32 5.64.97 8.05.64 2.4 1.58 4.45 2.82 6.15 1.23 1.7 2.75 3.03 4.58 3.98 1.82.96 3.91 1.43 6.25 1.43 2.46 0 4.83-.63 7.08-1.9 2.25-1.26 4.55-3.06 6.89-5.41v-26.36c-2.34-2.1-4.55-3.58-6.61-4.44-2.06-.87-4.18-1.3-6.33-1.3-2.23 0-4.29.52-6.2 1.53a15.73 15.73 0 0 0-4.94 4.16c-1.39 1.76-2.49 3.85-3.29 6.3-.81 2.44-1.22 5.04-1.22 7.81M1049.51 289.28c0-3.64.54-6.9 1.62-9.8 1.07-2.9 2.52-5.35 4.34-7.36 1.82-2 3.88-3.55 6.2-4.63 2.31-1.08 4.71-1.61 7.17-1.61 5.3 0 9.46 1.78 12.49 5.36 3.02 3.57 4.53 8.63 4.53 15.16v1.67c0 .55-.06 1.11-.18 1.66h-32c.06 2.77.49 5.35 1.3 7.72.79 2.37 1.92 4.41 3.37 6.1 1.45 1.7 3.19 3.02 5.22 3.98 2.03.95 4.31 1.42 6.85 1.42 2.41 0 4.58-.35 6.52-1.06 1.95-.71 3.75-1.68 5.4-2.91l1.67 3.15a56.334 56.334 0 0 1-5.87 2.95c-2.13.93-4.83 1.38-8.09 1.38-2.84 0-5.51-.52-8.01-1.56a18.693 18.693 0 0 1-6.52-4.58c-1.84-2-3.31-4.44-4.39-7.31-1.08-2.84-1.62-6.09-1.62-9.73m32.47-2.69c0-5.73-1.18-10.03-3.52-12.9-2.35-2.87-5.52-4.29-9.53-4.29-1.9 0-3.73.4-5.45 1.2-1.73.8-3.28 1.94-4.67 3.42-1.39 1.48-2.53 3.29-3.43 5.41-.89 2.13-1.46 4.51-1.7 7.16h28.3zM1114.81 300.38c2.22 2.53 4.87 4.53 7.95 6.01 3.08 1.48 6.38 2.23 9.89 2.23 4.69 0 8.39-1.13 11.1-3.38 2.71-2.26 4.06-5.2 4.06-8.83 0-1.92-.29-3.52-.88-4.82-.58-1.29-1.37-2.41-2.36-3.37a14.92 14.92 0 0 0-3.47-2.49 71.84 71.84 0 0 0-4.21-2.08l-9.25-4.16c-1.36-.55-2.76-1.23-4.21-2.03-1.45-.81-2.77-1.8-3.97-3.01a15.58 15.58 0 0 1-3-4.25c-.81-1.64-1.21-3.59-1.21-5.87 0-2.22.45-4.24 1.34-6.06.9-1.82 2.13-3.39 3.7-4.71 1.58-1.33 3.46-2.36 5.65-3.1 2.19-.74 4.55-1.12 7.07-1.12 3.71 0 6.99.73 9.86 2.18 2.87 1.46 5.22 3.16 7.07 5.13l-2.4 2.87a20.744 20.744 0 0 0-6.29-4.58c-2.41-1.15-5.14-1.71-8.24-1.71-4.06 0-7.34.98-9.8 2.95-2.47 1.97-3.7 4.63-3.7 7.95 0 1.79.34 3.3 1.02 4.53.68 1.23 1.54 2.3 2.59 3.19a18.4 18.4 0 0 0 3.43 2.31c1.22.65 2.4 1.22 3.5 1.71l9.26 4.07c1.72.74 3.36 1.57 4.9 2.5 1.54.92 2.9 2 4.06 3.24 1.17 1.24 2.11 2.69 2.82 4.39.71 1.7 1.07 3.72 1.07 6.07 0 2.34-.47 4.52-1.39 6.52s-2.23 3.73-3.93 5.17c-1.7 1.46-3.75 2.59-6.15 3.42-2.41.84-5.09 1.25-8.05 1.25-4.44 0-8.39-.84-11.84-2.54-3.45-1.7-6.38-3.91-8.78-6.62l2.79-2.96zM1166.6 256.26c-1.05 0-1.93-.34-2.63-1.02-.71-.68-1.07-1.54-1.07-2.59 0-1.16.35-2.08 1.07-2.72.7-.65 1.58-.97 2.63-.97s1.93.32 2.64.97c.71.65 1.06 1.56 1.06 2.72 0 1.05-.35 1.92-1.06 2.59-.71.68-1.59 1.02-2.64 1.02m-2.13 10.73h4.07v44.39h-4.07v-44.39zM1185.65 266.99h3.52l.37 6.85h.27c1.97-2.28 4.18-4.18 6.61-5.69 2.44-1.51 4.89-2.27 7.36-2.27 3.57 0 6.32.81 8.23 2.45 1.91 1.64 3.26 3.84 4.07 6.61 2.59-2.77 5.1-4.98 7.54-6.61 2.44-1.64 4.95-2.45 7.54-2.45 8.88 0 13.32 5.67 13.32 17.02v28.48h-4.17v-27.93c0-4.75-.8-8.25-2.4-10.51-1.6-2.25-4.1-3.37-7.49-3.37-4.01 0-8.45 2.77-13.32 8.33v33.48h-4.07v-27.93c0-4.75-.8-8.25-2.4-10.51-1.61-2.25-4.13-3.37-7.59-3.37-4.01 0-8.44 2.77-13.32 8.33v33.48h-4.07v-44.39zM1264.83 315.27v16.18h-4.08v-64.46h3.52l.37 5.55h.28c2.15-1.73 4.51-3.27 7.07-4.63 2.57-1.35 5.23-2.04 8-2.04 5.92 0 10.36 2.05 13.32 6.15 2.96 4.1 4.44 9.6 4.44 16.51 0 3.75-.52 7.12-1.57 10.08-1.04 2.95-2.49 5.47-4.3 7.53-1.82 2.07-3.91 3.65-6.29 4.72a17.932 17.932 0 0 1-7.44 1.62c-2.1 0-4.25-.48-6.47-1.43-2.23-.96-4.51-2.3-6.85-4.03v8.25zm0-12.11c2.59 2.09 4.99 3.57 7.21 4.44 2.23.86 4.2 1.29 5.92 1.29 2.23 0 4.29-.49 6.2-1.48s3.55-2.37 4.91-4.17c1.35-1.78 2.42-3.92 3.18-6.42.77-2.5 1.15-5.25 1.15-8.27 0-2.72-.25-5.25-.78-7.59-.53-2.33-1.35-4.35-2.46-6.05-1.1-1.69-2.56-3.02-4.34-3.98-1.79-.95-3.95-1.43-6.48-1.43-2.22 0-4.52.63-6.89 1.9-2.38 1.27-4.92 3.07-7.63 5.41v26.35zM1311.07 244.88h4.08v61.14c0 .99.17 1.71.55 2.18.37.46.83.69 1.38.69h.6c.22 0 .58-.06 1.07-.19l.74 3.33c-.43.12-.86.23-1.29.32-.43.09-.99.14-1.67.14-3.63 0-5.45-2.33-5.45-7.03v-60.58zM1329.29 289.28c0-3.64.54-6.9 1.62-9.8 1.07-2.9 2.52-5.35 4.34-7.36 1.82-2 3.88-3.55 6.2-4.63 2.31-1.08 4.71-1.61 7.17-1.61 5.3 0 9.46 1.78 12.49 5.36 3.02 3.57 4.52 8.63 4.52 15.16v1.67c0 .55-.06 1.11-.18 1.66h-32.01c.06 2.77.5 5.35 1.3 7.72s1.92 4.41 3.37 6.1c1.46 1.7 3.19 3.02 5.23 3.98 2.03.95 4.31 1.42 6.84 1.42 2.41 0 4.58-.35 6.53-1.06a21.18 21.18 0 0 0 5.4-2.91l1.66 3.15a54.417 54.417 0 0 1-5.87 2.95c-2.13.93-4.83 1.38-8.09 1.38-2.84 0-5.51-.52-8.01-1.56-2.5-1.05-4.67-2.58-6.52-4.58-1.85-2-3.31-4.44-4.39-7.31-1.06-2.84-1.6-6.09-1.6-9.73m32.46-2.69c0-5.73-1.17-10.03-3.52-12.9-2.34-2.87-5.51-4.29-9.53-4.29-1.91 0-3.73.4-5.45 1.2-1.73.8-3.28 1.94-4.67 3.42-1.39 1.48-2.54 3.29-3.43 5.41-.89 2.13-1.46 4.51-1.71 7.16h28.31zM379.93 131.04c0-11.67 1.76-22.24 5.28-31.7 3.52-9.46 8.16-17.46 13.89-24 5.74-6.54 12.33-11.57 19.78-15.1 7.44-3.52 15.2-5.28 23.25-5.28 16.7 0 29.93 5.69 39.7 17.06 9.76 11.38 14.64 27.83 14.64 49.37v4.68c0 1.51-.2 3.17-.61 4.98H389.6c0 9.66 1.36 18.57 4.08 26.73 2.72 8.15 6.54 15.25 11.47 21.28 4.93 6.04 10.87 10.71 17.82 14.04 6.95 3.33 14.74 4.99 23.4 4.99 8.25 0 15.6-1.21 22.04-3.62 6.44-2.41 12.38-5.63 17.82-9.66l4.22 7.85c-5.43 3.42-11.53 6.59-18.27 9.5-6.75 2.92-15.56 4.38-26.42 4.38-9.06 0-17.56-1.71-25.51-5.13-7.95-3.42-14.94-8.41-20.98-14.94-6.05-6.54-10.77-14.45-14.19-23.71-3.44-9.27-5.15-19.84-5.15-31.72m107.5-7.85c0-20.13-4.13-35.13-12.38-45-8.25-9.86-19.22-14.79-32.91-14.79-6.46 0-12.69 1.41-18.73 4.23-6.04 2.82-11.42 6.79-16.15 11.93-4.73 5.14-8.65 11.38-11.77 18.72-3.13 7.36-5.08 15.66-5.89 24.92h97.83z"/><path class="st1" d="M526.08 123.19h65.22v9.06h-65.22zM613.64 102.66c0-15.69 2.01-29.89 6.05-42.57 4.01-12.69 9.66-23.45 16.9-32.3 7.25-8.86 16.05-15.72 26.42-20.54C673.37 2.42 684.89 0 697.58 0c11.47 0 21.49 2.41 30.05 7.24 8.55 4.83 15.44 10.27 20.68 16.31l-6.05 6.64c-5.43-6.44-11.87-11.56-19.32-15.4-7.46-3.82-15.91-5.74-25.36-5.74-11.48 0-21.79 2.17-30.95 6.5-9.17 4.33-16.91 10.57-23.25 18.72s-11.18 18.01-14.49 29.59c-3.33 11.58-4.99 24.51-4.99 38.8 0 14.3 1.66 27.28 4.99 38.95 3.31 11.68 8.15 21.64 14.49 29.9s13.94 14.63 22.79 19.17c8.86 4.53 18.92 6.79 30.2 6.79 10.66 0 20.08-2.13 28.23-6.35 8.16-4.22 16.05-10.57 23.71-19.02l6.04 6.03c-7.65 8.86-16.05 15.81-25.21 20.84-9.17 5.03-20.28 7.54-33.37 7.54-12.28 0-23.45-2.46-33.51-7.4-10.07-4.93-18.72-11.92-25.97-20.98s-12.83-19.97-16.76-32.76c-3.93-12.76-5.89-27.01-5.89-42.71M770.64 131.04c0-12.08 1.71-22.84 5.14-32.3 3.42-9.46 8.05-17.42 13.89-23.86 5.83-6.44 12.63-11.37 20.38-14.79 7.75-3.43 15.95-5.13 24.61-5.13s16.85 1.7 24.61 5.13c7.75 3.42 14.54 8.35 20.38 14.79s10.46 14.4 13.88 23.86c3.42 9.46 5.14 20.23 5.14 32.3 0 11.88-1.71 22.5-5.14 31.86-3.42 9.36-8.05 17.26-13.88 23.71s-12.63 11.37-20.38 14.79c-7.76 3.42-15.96 5.13-24.61 5.13s-16.86-1.71-24.61-5.13-14.55-8.35-20.38-14.79c-5.84-6.44-10.48-14.35-13.89-23.71-3.43-9.36-5.14-19.98-5.14-31.86m9.66 0c0 10.07 1.41 19.17 4.23 27.32 2.82 8.16 6.64 15.21 11.47 21.14 4.83 5.94 10.57 10.52 17.21 13.74 6.64 3.22 13.78 4.83 21.44 4.83 7.65 0 14.79-1.61 21.44-4.83 6.64-3.22 12.38-7.8 17.21-13.74 4.83-5.93 8.65-12.98 11.47-21.14 2.82-8.15 4.23-17.25 4.23-27.32 0-9.86-1.41-18.97-4.23-27.32-2.82-8.35-6.64-15.5-11.47-21.44s-10.57-10.57-17.21-13.89c-6.65-3.32-13.8-4.99-21.44-4.99-7.65 0-14.79 1.66-21.44 4.99-6.64 3.32-12.38 7.95-17.21 13.89s-8.65 13.09-11.47 21.44-4.23 17.46-4.23 27.32M919.8 58.58h7.85l1.21 22.95h.6c6.64-7.65 13.99-13.99 22.04-19.03 8.05-5.03 16-7.54 23.85-7.54 11.87 0 20.88 2.77 27.03 8.31 6.14 5.53 10.42 12.83 12.83 21.89 8.45-9.46 16.76-16.85 24.91-22.19 8.16-5.33 16.35-8.01 24.61-8.01 14.3 0 25.01 4.43 32.16 13.29 7.15 8.86 10.72 22.74 10.72 41.66v92.99h-9.06v-91.79c0-16.1-2.77-28.07-8.31-35.93-5.54-7.85-14.24-11.78-26.12-11.78-7.24 0-14.6 2.42-22.03 7.26-7.46 4.82-15.41 12.07-23.86 21.74v110.5h-9.06v-91.79c0-16.1-2.77-28.07-8.31-35.93-5.53-7.85-14.24-11.78-26.12-11.78-13.68 0-28.98 9.66-45.88 28.99v110.5h-9.06V58.58zM1136.6 167.58c0-16.1 7.65-28.33 22.95-36.69 15.29-8.35 39.25-14.34 71.86-17.96a95.9 95.9 0 0 0-1.06-17.67c-.9-5.93-2.67-11.27-5.28-16-2.62-4.72-6.29-8.55-11.02-11.47-4.73-2.91-10.83-4.37-18.27-4.37-5.24 0-10.16.55-14.79 1.66-4.63 1.11-8.96 2.57-12.98 4.38s-7.7 3.72-11.02 5.74c-3.32 2.02-6.09 3.92-8.29 5.74l-4.83-7.25c2.21-1.6 5.07-3.52 8.6-5.73 3.52-2.22 7.54-4.28 12.08-6.2 4.53-1.91 9.51-3.52 14.95-4.83 5.43-1.3 11.06-1.95 16.9-1.95 8.46 0 15.5 1.46 21.13 4.37 5.64 2.92 10.16 6.9 13.59 11.93 3.42 5.04 5.84 10.83 7.24 17.37 1.41 6.54 2.13 13.43 2.13 20.68v93.61h-7.85l-1.21-19.33h-.61c-7.65 6.04-15.9 11.37-24.76 16-8.86 4.63-18.11 6.95-27.78 6.95-5.63 0-10.97-.76-16-2.27-5.04-1.51-9.47-3.82-13.29-6.94-3.83-3.12-6.85-7.15-9.06-12.08-2.23-4.96-3.33-10.84-3.33-17.69m9.66-.3c0 5.63.85 10.42 2.57 14.34 1.71 3.93 4.08 7.1 7.1 9.52 3.02 2.41 6.49 4.17 10.42 5.27 3.93 1.12 8.1 1.66 12.53 1.66 8.85 0 17.41-2.06 25.66-6.19 8.26-4.12 17.21-10.31 26.88-18.57v-52.54c-15.9 1.81-29.28 4.07-40.16 6.79-10.87 2.72-19.63 5.99-26.27 9.81s-11.43 8.2-14.35 13.13c-2.92 4.95-4.38 10.54-4.38 16.78M1269.45 179.35a95.37 95.37 0 0 0 19.93 13.29c7.24 3.62 16.31 5.43 27.17 5.43 6.04 0 11.37-.85 16-2.57 4.63-1.71 8.46-3.97 11.48-6.79 3.02-2.82 5.33-6.09 6.95-9.81a28.99 28.99 0 0 0 2.41-11.63c0-4.82-1.11-9-3.32-12.52-2.22-3.52-5.04-6.65-8.45-9.36-3.44-2.72-7.31-4.99-11.63-6.79-4.33-1.81-8.61-3.52-12.83-5.13a444.04 444.04 0 0 1-16.76-6.35c-5.54-2.2-10.57-4.83-15.09-7.84-4.53-3.03-8.21-6.69-11.02-11.02-2.82-4.32-4.23-9.61-4.23-15.85 0-5.03.96-9.82 2.87-14.35 1.91-4.53 4.78-8.5 8.61-11.93 3.82-3.42 8.55-6.13 14.19-8.15 5.63-2 12.18-3.02 19.63-3.02 7.24 0 14.39 1.36 21.43 4.08 7.05 2.72 13.19 6.19 18.42 10.42l-5.44 7.25a93.37 93.37 0 0 0-15.4-9.37c-5.43-2.61-11.97-3.92-19.62-3.92-6.04 0-11.28.8-15.7 2.41s-8.06 3.78-10.87 6.49c-2.82 2.72-4.94 5.74-6.34 9.06a26.359 26.359 0 0 0-2.11 10.41c0 4.43 1 8.21 3.02 11.33 2.01 3.12 4.68 5.84 8 8.16 3.33 2.31 7.05 4.37 11.18 6.19 4.12 1.82 8.4 3.52 12.83 5.13 5.63 2.22 11.37 4.43 17.21 6.64 5.84 2.22 11.02 4.89 15.55 8a39.17 39.17 0 0 1 11.18 11.78c2.91 4.73 4.38 10.61 4.38 17.66 0 5.24-1.06 10.27-3.18 15.1-2.1 4.83-5.13 9.06-9.05 12.68-3.93 3.62-8.86 6.55-14.8 8.76-5.94 2.21-12.64 3.31-20.08 3.31-10.87 0-20.73-1.95-29.59-5.89-8.86-3.92-16.51-8.6-22.95-14.04l6.02-7.25zM324.67 56.59c-1.35-1.35-2.72-2.71-5.42-2.71H61.74l-6.77-35.23c0-2.72-4.07-5.43-6.77-5.43H7.53C3.47 13.22.75 15.93.75 20c0 4.06 2.72 6.77 6.78 6.77h35.23l32.53 165.34c4.07 21.69 24.4 37.95 46.08 37.95h155.86c4.06 0 6.77-2.72 6.77-6.78s-2.71-6.78-6.77-6.78H122.72c-10.84 0-21.68-5.42-27.11-14.91l197.88-27.1c2.71 0 5.42-2.71 5.42-5.42l27.11-108.43c0 .02 0-2.69-1.35-4.05M115.95 243.62c-18.97 0-33.89 14.91-33.89 33.89 0 18.97 14.92 33.88 33.89 33.88 18.98 0 33.89-14.91 33.89-33.88 0-18.98-14.91-33.89-33.89-33.89m0 54.21c-10.84 0-20.33-9.49-20.33-20.33 0-10.84 9.48-20.33 20.33-20.33 10.84 0 20.33 9.49 20.33 20.33 0 10.84-9.48 20.33-20.33 20.33M251.48 243.62c-18.97 0-33.89 14.91-33.89 33.89 0 18.97 14.92 33.88 33.89 33.88 18.98 0 33.89-14.91 33.89-33.88 0-18.98-14.91-33.89-33.89-33.89m0 54.21c-10.84 0-20.33-9.49-20.33-20.33 0-10.84 9.48-20.33 20.33-20.33 10.84 0 20.33 9.49 20.33 20.33 0 10.84-9.49 20.33-20.33 20.33"/></svg>