<svg width="218" height="218" xmlns="http://www.w3.org/2000/svg" xmlns:xlink="http://www.w3.org/1999/xlink"><defs><path id="c" d="M0 0h17.895v25.947H0z"/><path id="e" d="M0 0h7.158v15.21H0z"/><path id="g" d="M0 0h49.21v39.368H0z"/><path id="i" d="M0 0h7.158v6.263H0z"/><filter x="-29.1%" y="-27.8%" width="158.2%" height="158.2%" filterUnits="objectBoundingBox" id="a"><feOffset dy="2" in="SourceAlpha" result="shadowOffsetOuter1"/><feGaussianBlur stdDeviation="15" in="shadowOffsetOuter1" result="shadowBlurOuter1"/><feColorMatrix values="0 0 0 0 0.874509804 0 0 0 0 0.823529412 0 0 0 0 0.321568627 0 0 0 0.5 0" in="shadowBlurOuter1"/></filter><circle id="b" cx="79" cy="79" r="79"/></defs><g fill="none" fill-rule="evenodd"><g transform="translate(30 28)"><use fill="#000" filter="url(#a)" xlink:href="#b"/><use fill="#DFD252" xlink:href="#b"/></g><g transform="translate(96.579 115.053)"><mask id="d" fill="#fff"><use xlink:href="#c"/></mask><path d="M14.31 25.947c-1.885.002-2.906-1.096-3.668-2.716C7.22 15.951 3.745 8.696.29 1.431.2 1.241.12 1.045 0 .771 1.353.623 2.624.482 3.895.348c1.06-.113 2.122-.2 3.178-.337.439-.057.657.082.847.483 3.162 6.678 6.347 13.345 9.51 20.022 1.062 2.24.268 4.195-2.017 5.098-.117.046-.222.123-.333.186l-.77.146" fill="#3E4152" mask="url(#d)"/></g><g transform="translate(134.158 83.737)"><mask id="f" fill="#fff"><use xlink:href="#e"/></mask><path d="M7.158 7.615c-.026.35-.053.7-.076 1.051-.182 2.74-1.933 5.482-4.212 6.545L0 0c1.816.258 3.311 1.029 4.602 2.234 1.02.95 1.639 2.153 2.183 3.405l.373 1.976Z" fill="#3E4152" mask="url(#f)"/></g><g transform="translate(84.947 73)"><mask id="h" fill="#fff"><use xlink:href="#g"/></mask><path d="M0 16.42 38.414 5.772c-.182-.975-.376-1.905-.528-2.842-.267-1.64.954-3.011 2.582-2.926 1.033.053 1.938.788 2.226 1.815.042.146.066.297.094.447 2.121 11.306 4.243 22.613 6.361 33.92.275 1.467-.392 2.7-1.646 3.073-1.434.425-2.848-.42-3.163-1.912-.193-.914-.348-1.835-.535-2.828-1.58.159-3.127.312-4.674.47-4.97.508-9.94 1.016-14.91 1.527-3.847.395-7.693.795-11.54 1.193-2.678.278-5.359.547-8.036.846-.479.053-.535-.199-.6-.549-.322-1.757-.655-3.512-.985-5.268L.157 17.256 0 16.42" fill="#3E4152" mask="url(#h)"/></g><g transform="translate(76 98.947)"><mask id="j" fill="#fff"><use xlink:href="#i"/></mask><path d="M6.111.035 7.158 5.48c-.128.049-.258.121-.398.148-1.064.202-2.128.414-3.197.587-1.761.284-3.245-.706-3.52-2.319C-.228 2.318.821.94 2.556.612c1.128-.214 2.26-.41 3.39-.61.039-.008.082.015.164.033" fill="#3E4152" mask="url(#j)"/></g></g></svg>