<svg version="1.1" id="Calque_1" xmlns="http://www.w3.org/2000/svg" x="0" y="0" viewBox="0 0 995 516" style="enable-background:new 0 0 995 516" xml:space="preserve"><style></style><path d="M791.21 102.91v413.04H611.39V180.1c-8.04 3.21-16.03 6.38-23.98 9.5v326.3H407.59V255.36c-8.08 2.74-16.07 5.42-23.98 8.05v252.43H203.8V318.62c-8.2 2.3-16.19 4.52-23.98 6.65V516h635.36V91.79c-8.01 3.75-16 7.46-23.97 11.12z" style="fill:none"/><path d="M0 368.83V516h179.82V325.27C67.99 355.9 0 368.83 0 368.83z" style="fill:#fff"/><path d="M383.61 515.84V263.42c-66.85 22.24-127.49 40.5-179.82 55.2v197.22h179.82z" style="fill:#b1ebdf"/><path d="M587.41 515.9V189.6a4079.146 4079.146 0 0 1-179.82 65.76V515.9h179.82z" style="fill:#64d7be"/><path d="M791.21 515.96V102.91c-61.59 28.31-121.82 53.99-179.82 77.19v335.86h179.82z" style="fill:#939393"/><path d="M815.18 91.79V516H995V1.35c-60.55 32.68-120.75 62.77-179.82 90.44z" style="fill:#282828"/></svg>