<svg xmlns="http://www.w3.org/2000/svg" viewBox="0 0 19.905 10.354" height="39.134" width="75.23"><path class="st1" d="M19.905 5.4v.82c-.027.159-.053.344-.08.503-.45 1.825-1.56 3.042-3.413 3.492-1.773.424-3.307-.132-4.498-1.508-.238-.264-.423-.608-.635-.9-1.005.768-1.481.794-2.725.08-.026.053-.08.106-.106.185-.952 1.693-2.937 2.593-4.842 2.17A4.508 4.508 0 0 1 .061 6.538C-.336 4.183 1.25 1.88 3.58 1.405c.106-.027.238-.08.344-.133A3.655 3.655 0 0 1 6.199.664c.08 0 .212-.027.265-.106.9-.688 2.064-.74 2.99-.132.158.106.317.238.476.37.026 0 .026 0 .026-.026a2.57 2.57 0 0 1 3.466-.186c.053.053.133.053.212.053.847-.053 1.587.16 2.302.609.106.053.212.106.344.132 1.64.397 2.751 1.376 3.334 2.937.158.37.211.74.29 1.085zM15.38 8.998c1.773 0 3.202-1.455 3.175-3.201-.026-1.773-1.429-3.149-3.175-3.149a3.167 3.167 0 0 0-3.175 3.175 3.184 3.184 0 0 0 3.175 3.175zm-10.848 0c1.747 0 3.175-1.429 3.175-3.201 0-1.747-1.428-3.149-3.175-3.149a3.167 3.167 0 0 0-3.175 3.175c0 1.72 1.429 3.175 3.175 3.175zm6.139-2.566a.768.768 0 0 0-1.535 0c0 .423.37.793.794.793a.806.806 0 0 0 .74-.793z"/><path class="st1" d="M15.274 3.045c.291 0 .477.132.53.344.052.212-.027.397-.212.476a.951.951 0 0 1-.291.053c-.953.053-1.72.82-1.773 1.773v.08c-.026.29-.212.476-.45.449-.264-.026-.423-.212-.423-.503 0-1.164.847-2.222 1.958-2.54.212-.053.423-.079.661-.132zM1.754 5.717c.053-1.428 1.27-2.645 2.672-2.645.265 0 .424.105.477.343.053.186-.027.397-.212.477a.94.94 0 0 1-.265.053c-.978.026-1.799.846-1.825 1.825 0 .37-.291.556-.609.45-.132-.08-.238-.265-.238-.503z"/></svg>