<svg width="53" height="53" xmlns="http://www.w3.org/2000/svg" xmlns:xlink="http://www.w3.org/1999/xlink"><defs><path id="a" d="M0 0h53v53H0z"/></defs><g fill="none" fill-rule="evenodd"><g><mask id="b" fill="#fff"><use xlink:href="#a"/></mask><path d="M37.759 47.696c2.09.084 3.254-.61 3.899-2.424.64-1.798 1.835-2.979 3.629-3.617 1.692-.602 2.501-1.772 2.404-3.55-.109-1.97.566-3.549 2.028-4.86 1.276-1.146 1.555-2.542.816-4.074-.87-1.806-.863-3.557.011-5.36.726-1.5.444-2.911-.808-4.032-1.479-1.323-2.16-2.915-2.047-4.905.098-1.73-.708-2.92-2.333-3.493-1.852-.652-3.078-1.866-3.734-3.719-.587-1.658-1.764-2.453-3.527-2.357-1.946.105-3.52-.543-4.823-1.992-1.189-1.323-2.559-1.593-4.157-.832-1.753.836-3.461.848-5.218.01-1.624-.777-2.987-.504-4.2.84-1.276 1.414-2.817 2.071-4.726 1.973-1.856-.095-3.018.686-3.64 2.428-.633 1.775-1.802 2.961-3.581 3.594-1.767.63-2.547 1.792-2.452 3.677.093 1.867-.538 3.39-1.916 4.648-1.426 1.3-1.678 2.624-.852 4.374.787 1.669.779 3.309-.01 4.976-.82 1.737-.554 3.066.877 4.37 1.364 1.245 1.99 2.756 1.9 4.603-.094 1.933.697 3.083 2.522 3.734 1.702.606 2.842 1.749 3.47 3.44.177.478.404.964.718 1.358.812 1.02 1.937 1.279 3.196 1.202 1.705-.105 3.131.516 4.293 1.763.223.24.437.496.694.693 1.055.81 2.213 1.008 3.448.468.871-.382 1.736-.74 2.713-.757 1.01-.017 1.934.252 2.83.69 1.047.513 2.114.51 3.119-.076.45-.264.838-.658 1.204-1.041 1.163-1.22 2.572-1.809 4.253-1.752M0 21.741c.21-.982.48-1.942 1.145-2.729.289-.341.601-.665.929-.97.822-.762 1.226-1.695 1.155-2.813-.1-1.582.278-3.006 1.33-4.22A5.258 5.258 0 0 1 6.94 9.425c1.256-.41 2.032-1.251 2.492-2.487.934-2.508 2.856-3.792 5.542-3.696 1.322.048 2.354-.389 3.255-1.353C20.06-.072 22.272-.512 24.712.598c1.218.555 2.358.552 3.576-.004 2.415-1.101 4.644-.667 6.444 1.267.927.995 1.987 1.433 3.347 1.383 2.615-.095 4.556 1.205 5.465 3.656.473 1.276 1.287 2.083 2.561 2.556 2.447.908 3.741 2.85 3.647 5.471-.05 1.36.394 2.418 1.39 3.345 1.915 1.783 2.365 4.03 1.277 6.4-.576 1.254-.571 2.416.005 3.67 1.085 2.363.628 4.623-1.289 6.398-.998.925-1.432 1.988-1.383 3.346.094 2.617-1.204 4.556-3.655 5.466-1.275.473-2.089 1.283-2.554 2.562-.895 2.459-2.942 3.785-5.576 3.654-1.282-.065-2.323.341-3.157 1.318a5.259 5.259 0 0 1-3.263 1.834c-.065.01-.125.053-.187.08h-1.346c-.802-.288-1.6-.584-2.407-.862a3.335 3.335 0 0 0-2.221 0c-.807.277-1.607.574-2.41.862h-1.241c-1.371-.257-2.597-.791-3.519-1.883-.853-1.01-1.928-1.402-3.248-1.356-2.682.095-4.603-1.19-5.537-3.7-.46-1.235-1.238-2.074-2.494-2.484a5.253 5.253 0 0 1-2.38-1.583c-1.05-1.215-1.427-2.638-1.328-4.22.071-1.118-.334-2.05-1.156-2.813-.327-.304-.64-.628-.928-.97C.48 33.206.21 32.246 0 31.264v-1.242c.288-.802.585-1.602.862-2.408a3.336 3.336 0 0 0 0-2.222C.585 24.585.288 23.785 0 22.983V21.74" fill="#69D5BD" mask="url(#b)"/></g><path d="M20.068 29.406c0-1.97-.009-3.94.008-5.911.004-.424-.117-.591-.559-.584-1.28.023-2.56.023-3.84 0-.453-.007-.604.149-.603.606.013 3.923.013 7.846 0 11.77 0 .446.128.623.592.614a93.952 93.952 0 0 1 3.79.001c.483.01.626-.161.621-.637-.02-1.953-.009-3.906-.009-5.859m8.053-13.916c-.38 1.056-.75 2.064-1.103 3.078-.463 1.33-1.185 2.494-2.308 3.34-.702.527-1.505.917-2.246 1.394-.144.093-.305.302-.305.458a1204.26 1204.26 0 0 0 0 11.035c0 .15.167.4.3.434.964.245 1.936.604 2.914.632 2.904.083 5.812.034 8.718.03.647 0 1.037-.34 1.02-.857-.014-.498-.39-.805-1.012-.813-.519-.007-1.038.008-1.557-.005-.678-.017-1.14-.439-1.151-1.026-.011-.607.463-1.046 1.17-1.06.57-.013 1.142-.003 1.713-.004.484 0 .97.016 1.452-.008.497-.025.838-.38.84-.825.001-.444-.34-.79-.833-.835-.137-.013-.276-.005-.415-.005-.916 0-1.833.008-2.75-.004-.71-.009-1.185-.447-1.177-1.052.008-.607.481-1.02 1.196-1.035.363-.008.727-.002 1.09-.002 1.125 0 2.25.01 3.373-.008.527-.01.88-.386.865-.851-.014-.449-.353-.772-.857-.81-.138-.011-.277-.005-.415-.005-1.35 0-2.699.006-4.048-.003-.718-.004-1.193-.421-1.204-1.026-.012-.623.475-1.05 1.221-1.062.415-.007.83-.001 1.246-.002.57 0 1.142.016 1.712-.008.507-.021.83-.362.834-.82.004-.461-.315-.793-.818-.84-.137-.013-.276-.005-.415-.006-1.799 0-3.598.006-5.397-.003-.902-.004-1.354-.634-1.083-1.502.213-.68.464-1.349.677-2.029.488-1.564.07-2.91-1.247-3.895m2.973 5.337c1.462 0 2.875.004 4.288-.002.732-.004 1.407.162 1.985.632.954.776 1.284 1.79 1.034 2.98-.063.305-.04.442.235.622 1.79 1.17 1.818 3.6.087 4.89-.119.088-.244.303-.22.43.324 1.685-.058 2.63-1.496 3.568.023.103.046.217.075.33.475 1.828-.766 3.647-2.643 3.682-3.216.06-6.436.058-9.652-.026-.944-.025-1.88-.403-2.814-.645-.246-.064-.42-.127-.64.096-.434.44-1.001.6-1.61.6-1.436.003-2.872.014-4.308-.002-1.405-.017-2.4-.999-2.404-2.407-.014-4.115-.015-8.23 0-12.344.005-1.385.991-2.378 2.358-2.398 1.47-.022 2.943-.039 4.411.014.46.017.908.28 1.367.406.187.051.423.114.58.044 1.795-.79 3-2.098 3.557-4.028.332-1.15.795-2.263 1.21-3.389.305-.828.804-1.052 1.628-.754 2.626.949 4.085 3.818 3.329 6.554-.101.366-.225.726-.357 1.147" fill="#69D5BD"/><path d="M5 24.827c.156-5.645 2.732-11.093 7.997-15.26 3.96-3.133 8.548-4.61 13.637-4.566 3.395.029 6.612.84 9.632 2.36.652.33.893.888.628 1.433-.26.535-.884.73-1.538.41-1.852-.902-3.782-1.559-5.83-1.888C19.326 5.68 9.67 12.074 7.545 21.893c-.816 3.77-.465 7.445 1.047 11.011.1.237.216.47.29.715.177.583-.08 1.12-.606 1.31-.543.195-1.115-.015-1.348-.584-.41-.998-.82-2.002-1.133-3.031-.552-1.813-.8-3.676-.796-6.487M27.958 47.996c-3.51.057-6.37-.507-9.11-1.686-.71-.306-.998-.848-.773-1.44.228-.598.836-.812 1.573-.503 1.864.782 3.788 1.302 5.802 1.469 4.784.398 9.108-.86 12.936-3.783 3.614-2.758 5.952-6.407 6.997-10.866 1.026-4.38.587-8.631-1.31-12.714-.146-.317-.313-.626-.443-.95-.24-.593-.06-1.146.434-1.402.516-.268 1.103-.085 1.41.489a21.134 21.134 0 0 1 2.202 6.423c.55 3.208.405 6.387-.478 9.527-1.193 4.242-3.483 7.754-6.81 10.572-2.777 2.35-5.962 3.846-9.512 4.509-1.135.212-2.295.282-2.918.355M13 41.005a.99.99 0 0 1-.954.995c-.547.011-1.053-.489-1.046-1.032a1 1 0 0 1 .986-.968c.535.002 1.004.466 1.014 1.005M40.971 11c.525-.007 1.026.488 1.029 1.015a.994.994 0 0 1-.982.985A1.011 1.011 0 0 1 40 11.998c-.002-.535.442-.991.971-.998" fill="#69D5BD"/></g></svg>