<svg xmlns="http://www.w3.org/2000/svg" width="38.8" height="64.5" viewBox="0 0 10.266 17.066"><path d="M5.318 0c.318.132.53.344.582.714 0 .053.106.08.159.106.317.159.661.265.979.45.423.238.53.714.291 1.085-.238.37-.688.476-1.085.211a2.277 2.277 0 0 0-1.296-.343c-.212.026-.424.052-.53.29-.079.16-.052.292.106.345.291.105.582.185.873.264.318.106.609.159.927.291.82.344 1.164.926 1.137 1.746-.026.82-.502 1.456-1.296 1.72-.159.053-.238.106-.291.291-.08.344-.397.556-.741.556a.763.763 0 0 1-.74-.582c-.027-.185-.133-.212-.266-.265a5.74 5.74 0 0 1-.926-.397c-.396-.238-.502-.688-.264-1.058.212-.37.688-.476 1.085-.238s.82.37 1.27.344a.793.793 0 0 0 .476-.159c.212-.159.185-.397-.053-.503-.265-.105-.556-.158-.847-.264-.344-.106-.688-.185-1.005-.344-1.482-.662-1.19-2.487-.265-3.122.106-.08.186-.159.318-.185.29-.106.503-.212.608-.556.053-.159.291-.265.45-.397h.344zM.847 17.066A.853.853 0 0 1 0 16.219V7.646c0-.45.37-.846.847-.846.45 0 .846.37.846.846v8.573c-.026.476-.397.847-.846.847zM5.133 17.066a.853.853 0 0 1-.847-.847V9.922c0-.45.37-.847.847-.847.45 0 .847.37.847.847v6.297a.853.853 0 0 1-.847.847zM9.42 17.066a.853.853 0 0 1-.848-.847V5.9c0-.45.37-.846.847-.846.45 0 .847.37.847.846V16.22c0 .476-.37.847-.847.847z" class="st1"/></svg>