<svg xmlns="http://www.w3.org/2000/svg" width="69" height="52"><g fill="#69D5BD" fill-rule="evenodd"><path d="M67.843 20.264c-.89-3.846-2.549-7.336-4.93-10.374a25.695 25.695 0 0 0-8.41-6.981c-6.748-3.514-14.719-3.86-21.868-.951-.194.079-.417.123-.627.123-4.538.006-9.151.006-13.614.006h-3.123l-.138-.001a4.768 4.768 0 0 0-.45.01c-.647.053-1.132.529-1.18 1.156-.044.603.409 1.174 1.033 1.3.189.038.376.038.558.037h.052c3.611.002 7.222.002 10.833.002h1.673l-.626.565a458.071 458.071 0 0 0-3.468 3.151c-.24.222-.427.53-.498.823-.136.566.102 1.07.636 1.352.367.193.947.274 1.627-.43 5.96-6.166 13.102-8.589 21.231-7.201 6.249 1.066 11.668 4.52 15.26 9.726 3.618 5.244 4.942 11.603 3.727 17.906a23.426 23.426 0 0 1-12.017 16.293c-6.209 3.317-13.451 3.652-19.871.919-8.643-3.68-13.502-10.376-14.442-19.904-.493-4.994.7-9.834 3.543-14.386.462-.738.363-1.455-.258-1.87-.285-.19-.6-.255-.91-.188-.367.08-.692.333-.942.734-3.47 5.58-4.707 11.647-3.674 18.035 1.154 7.14 4.807 12.952 10.858 17.274l-12.651.001c-1.427 0-1.663.769-1.676 1.227-.01.337.09.617.299.833.284.294.75.444 1.384.444h3.371c4.343-.001 8.835-.001 13.252.008.322.001.662.067.958.185C35.947 51.361 39.213 52 42.524 52c1.727 0 3.467-.174 5.213-.522a25.188 25.188 0 0 0 9.57-4.094 26.111 26.111 0 0 0 7.014-7.31 26.164 26.164 0 0 0 3.743-9.401 25.319 25.319 0 0 0-.22-10.409"/><path d="M60.028 25.113c.039.555.22.989.527 1.253.231.2.521.291.84.26.762-.072 1.172-.692 1.096-1.656a23.506 23.506 0 0 0-.226-1.904 20.432 20.432 0 0 0-6.833-12.176C51.795 7.754 47.206 6.017 42.508 6h-.014l-.014.002c-.392.048-.795.09-1.183.131-.846.088-1.722.18-2.573.345C28.122 8.532 20.97 19.04 22.78 29.901c.884 5.299 3.697 9.969 7.923 13.15C34.143 45.64 38.202 47 42.37 47c.97 0 1.946-.074 2.921-.222 7.525-1.149 12.858-5.43 15.851-12.725.432-1.052.689-2.19.936-3.291.079-.348.16-.707.245-1.056a1.251 1.251 0 0 0-.987-1.534c-.683-.118-1.287.332-1.437 1.07a18.96 18.96 0 0 0-.098.515 17.807 17.807 0 0 1-7.065 11.37c-3.759 2.751-8.297 3.872-12.778 3.156a17.548 17.548 0 0 1-11.55-7.116c-2.765-3.84-3.904-8.587-3.205-13.366a17.789 17.789 0 0 1 6.977-11.737c3.776-2.83 8.364-3.983 12.917-3.248 6.203 1.001 10.735 4.515 13.472 10.443.819 1.774 1.31 3.744 1.458 5.854"/><path d="m44.842 25.78 1.016-1.713c.797-1.34 1.62-2.728 2.423-4.095.408-.694.233-1.433-.426-1.796a1.362 1.362 0 0 0-.996-.135 1.374 1.374 0 0 0-.838.638 946.762 946.762 0 0 0-4.321 7.298c-.385.656-.204 1.337.45 1.695a141.2 141.2 0 0 0 4.17 2.19c.187.093.387.138.584.138.455 0 .897-.237 1.143-.655.328-.559.163-1.219-.4-1.604-.153-.105-.316-.188-.474-.267a9.88 9.88 0 0 1-.175-.09l-1.786-.945-.576-.304.002-.005.204-.35M4.785 14.993c.058.005.115.007.17.007l.1-.001.092-.001h1.948c2.921 0 5.844 0 8.766-.005.228 0 .526-.015.803-.13.574-.236.877-.775.831-1.478-.045-.705-.418-1.184-1.048-1.348-.167-.043-.33-.038-.489-.035-.043.001-.092.004-.13.003-1.372-.002-2.743-.001-4.115-.001H8.207l-.978-.002c-.788-.003-1.603-.005-2.405.01-.76.012-1.316.629-1.324 1.464-.007.82.52 1.444 1.285 1.517M15.173 39.996c.805-.004 1.313-.565 1.327-1.464.006-.427-.104-.795-.32-1.064-.24-.301-.594-.46-1.024-.461C12.074 37 8.949 36.999 5.867 37c-.431 0-.79.164-1.04.472-.217.27-.33.63-.327 1.041.007.898.55 1.48 1.383 1.482 1.064.004 2.128.003 3.192.002H10.5L11.79 40l1.436.001c.648 0 1.301-.001 1.948-.004M3.836 24.995a2140.59 2140.59 0 0 0 9.318 0c.415 0 .763-.154 1.005-.444.225-.27.343-.636.341-1.06-.004-.9-.535-1.483-1.354-1.484-1.088-.003-2.175-.002-3.263-.002l-1.338-.003L7.19 22c-1.102-.001-2.242-.003-3.363.004-.764.004-1.31.603-1.328 1.455-.008.412.113.792.34 1.07.245.299.6.464.996.465M6.554 29.998 7.96 30c1.066.001 2.133.002 3.2-.003.421-.002.77-.153 1.006-.437.22-.264.335-.634.333-1.07-.005-.915-.524-1.485-1.355-1.486-3.024-.004-6.143-.004-9.271 0-.833 0-1.36.563-1.374 1.468-.006.432.106.802.326 1.07.245.297.613.455 1.063.457L3.78 30h1.508l1.267-.002ZM13.95 17.004c-.566-.006-1.142-.004-1.697-.003l-.7.002-.789-.001c-.567-.002-1.152-.003-1.73.004a1.598 1.598 0 0 0-1.092.419c-.29.275-.446.66-.442 1.082.009.854.663 1.478 1.557 1.484a378.172 378.172 0 0 0 4.913 0c.47-.004.885-.181 1.166-.5.238-.268.367-.628.364-1.012-.007-.858-.645-1.464-1.55-1.475M13.832 8.982c.708.012 1.43.018 2.174.018.69 0 1.401-.005 2.142-.015.785-.011 1.354-.645 1.352-1.506-.002-.852-.562-1.457-1.361-1.472a62.29 62.29 0 0 0-1.463-.005c-.428.002-.857.002-1.286 0-.494-.002-1.005-.004-1.508.004-.814.014-1.369.595-1.382 1.447-.006.413.122.795.36 1.075.244.286.59.448.972.454M10.7 32.014c-.706.01-1.2.624-1.2 1.49 0 .87.48 1.468 1.194 1.487.238.007.478.009.716.009l.526-.002.562-.002h.9l.274.002c.207.002.421.004.633-.005.725-.03 1.194-.611 1.195-1.482 0-.87-.49-1.485-1.196-1.497a114.9 114.9 0 0 0-3.604 0M14.564 45.993c.186.005.373.007.56.007l.468-.002c.14-.002.281-.003.421-.003.15 0 .299 0 .448.002.31.001.63.003.947-.005.647-.018 1.076-.585 1.092-1.446.008-.438-.108-.838-.325-1.126-.191-.253-.449-.396-.725-.403a63.666 63.666 0 0 0-2.896-.001c-.632.013-1.055.617-1.054 1.503.001.876.419 1.454 1.064 1.474M29.727 24.005h-.017l-.227-.001-.228-.002c-.17-.002-.343-.004-.518.003-.717.032-1.226.633-1.237 1.462-.01.836.494 1.471 1.2 1.51a14.409 14.409 0 0 0 1.608 0c.666-.037 1.178-.663 1.192-1.455.014-.806-.506-1.455-1.21-1.51-.19-.014-.38-.01-.563-.007M44.495 11.78c.006-.21.01-.428-.01-.645-.061-.619-.652-1.106-1.375-1.133-.832-.031-1.441.333-1.529.907a7.423 7.423 0 0 0 0 2.187c.083.556.637.904 1.425.904.035 0 .07 0 .105-.002.731-.028 1.309-.502 1.374-1.127.02-.193.015-.385.01-.57a10.413 10.413 0 0 1 0-.52M32.949 17.823a.889.889 0 0 0 .94.08c.37-.183.604-.569.61-1.008l.001-.02-.005-.022-.004-.035c-.007-.089-.019-.238-.12-.345l-.22-.236c-.344-.37-.7-.751-1.105-1.07-.347-.271-.844-.208-1.208.155-.386.385-.447.87-.155 1.237.431.54.845.954 1.266 1.264M54.099 15.266c-.41-.34-.912-.355-1.311-.041-.349.274-.79.646-1.114 1.095-.184.255-.23.726-.1 1.03.096.221.326.364.51.478.065.04.126.078.17.112l.077.06.096-.025c.083-.022.154-.035.216-.047.126-.024.235-.045.32-.123l.307-.276c.367-.326.747-.664 1.062-1.05.292-.358.196-.857-.233-1.213M32.518 37c.23 0 .457-.082.634-.247.335-.313.67-.67 1.022-1.09.1-.117.145-.26.199-.427.025-.079.051-.16.086-.248l.041-.107-.067-.09a2.615 2.615 0 0 1-.133-.205c-.117-.194-.25-.413-.458-.503-.276-.118-.745-.124-1.018.074-.414.3-.752.71-1.079 1.105l-.01.012c-.34.412-.308 1.023.074 1.422a.982.982 0 0 0 .71.304M53.078 34.265c-.105-.092-.239-.125-.393-.164-.073-.018-.156-.038-.247-.067L52.334 34l-.084.068c-.05.042-.117.086-.186.132-.193.127-.41.271-.5.492-.12.302-.066.76.123 1.02.281.39.661.71 1.028 1.019l.05.041c.18.152.413.228.649.228.257 0 .519-.09.723-.268.417-.365.483-.925.154-1.303-.368-.421-.796-.797-1.213-1.164M44.486 39.14c-.06-.61-.614-1.075-1.348-1.134-.688-.056-1.482.293-1.57.951a8.073 8.073 0 0 0-.004 2.065c.075.6.792.978 1.437.978.04 0 .08-.001.118-.004.728-.055 1.301-.529 1.364-1.126a4.58 4.58 0 0 0 .012-.6c-.003-.089-.005-.177-.005-.265 0-.084.003-.168.005-.252.005-.2.01-.406-.01-.614M55.628 24.03c-.63.044-1.115.665-1.128 1.444-.012.79.475 1.44 1.135 1.51.107.012.213.016.318.016.086 0 .17-.002.254-.005.08-.002.162-.004.243-.004l.11-.001c.056 0 .111.002.167.004.212.006.432.012.652-.012.637-.07 1.109-.679 1.12-1.446.014-.814-.477-1.462-1.142-1.507a12.623 12.623 0 0 0-1.729.001"/></g></svg>