<svg width="218" height="218" xmlns="http://www.w3.org/2000/svg" xmlns:xlink="http://www.w3.org/1999/xlink"><defs><filter x="-29.1%" y="-27.8%" width="158.2%" height="158.2%" filterUnits="objectBoundingBox" id="a"><feOffset dy="2" in="SourceAlpha" result="shadowOffsetOuter1"/><feGaussianBlur stdDeviation="15" in="shadowOffsetOuter1" result="shadowBlurOuter1"/><feColorMatrix values="0 0 0 0 0.415686275 0 0 0 0 0.839215686 0 0 0 0 0.745098039 0 0 0 1 0" in="shadowBlurOuter1"/></filter><circle id="b" cx="79" cy="79" r="79"/></defs><g fill="none" fill-rule="evenodd"><g transform="translate(30 28)"><use fill="#000" filter="url(#a)" xlink:href="#b"/><use fill="#6AD6BE" xlink:href="#b"/></g><g fill="#3E4152"><path d="M111.306 121.14c0-1.962.006-3.91-.001-5.858-.005-1.247-.777-2.102-1.884-2.114-1.132-.011-1.917.856-1.921 2.14-.006 1.78-.013 3.56.007 5.34.004.373-.118.548-.455.706-3.1 1.448-4.24 4.973-2.597 7.976 1.387 2.537 4.728 3.632 7.298 2.392 2.782-1.343 4.07-4.497 2.967-7.252-.643-1.607-1.81-2.678-3.414-3.33m-19.005 3.472c-.23-3.668.375-7.07 2.289-10.275.694.709 1.325 1.363 1.968 2.006.512.512 1.122.756 1.847.578 1.468-.36 1.96-2.073.895-3.205-.807-.858-1.676-1.656-2.541-2.504 2.966-3.15 6.486-4.946 10.74-5.47 0 .58-.009 1.086.001 1.591.024 1.179.836 2.023 1.924 2.01 1.063-.012 1.854-.844 1.88-1.989.011-.521.002-1.043.002-1.618 4.272.546 7.802 2.332 10.755 5.503-.9.873-1.798 1.683-2.623 2.56-.739.784-.673 1.909.065 2.63.722.706 1.787.736 2.585.053.305-.26.579-.558.865-.84.426-.422.85-.846 1.29-1.283 1.883 3.232 2.506 6.624 2.253 10.253-.629 0-1.219-.013-1.808.003-1.132.03-1.958.85-1.95 1.916.006 1.065.836 1.874 1.976 1.89 1.205.017 2.411.016 3.617.001 1.234-.014 2.003-.797 2.015-2.045.012-1.25.063-2.504-.015-3.75-.09-1.433-.187-2.883-.48-4.283-.97-4.632-3.31-8.489-6.883-11.571-3.262-2.814-7.058-4.484-11.34-4.917-5.76-.584-10.939.96-15.434 4.62-3.389 2.758-5.674 6.284-6.92 10.488-.944 3.184-.856 6.45-.795 9.71.019 1.008.86 1.727 1.91 1.745 1.248.021 2.497.022 3.745 0 1.125-.02 1.95-.866 1.934-1.931-.017-1.04-.832-1.84-1.931-1.873-.59-.017-1.183-.003-1.836-.003M136.824 140H81.98c-.074-.033-.146-.085-.223-.097-1.433-.226-2.575-.938-3.507-2.04-.757-.898-1.093-1.967-1.348-3.078V93.958h64.999v17.552c0 7.438-.002 14.877 0 22.315 0 2.028-.673 3.78-2.342 4.96-.8.566-1.817.82-2.736 1.215M110.542 86.508c.66 0 1.32.019 1.978-.005 1.093-.039 1.906-.875 1.9-1.923-.008-1.046-.824-1.877-1.923-1.898a93.445 93.445 0 0 0-3.828 0c-1.094.025-1.906.875-1.9 1.922.007 1.047.823 1.865 1.923 1.9.616.02 1.233.004 1.85.004Zm-11.485 0c.639 0 1.277.015 1.915-.002 1.136-.03 1.967-.858 1.958-1.93-.009-1.047-.826-1.873-1.926-1.895a106.55 106.55 0 0 0-3.765-.001c-1.137.018-1.968.856-1.958 1.928.009 1.071.843 1.874 1.99 1.9.595.013 1.191.002 1.786 0Zm-11.476 0c.638 0 1.276.015 1.914-.003 1.132-.032 1.963-.87 1.946-1.941-.016-1.046-.834-1.864-1.939-1.883-1.254-.023-2.51-.022-3.764 0-1.132.02-1.962.868-1.946 1.94.016 1.045.835 1.851 1.939 1.884.616.018 1.233.003 1.85.004ZM76 90.349V80.115c.19-.606.303-1.25.581-1.81 1.127-2.27 3.024-3.305 5.52-3.305H122.04v15.346H76ZM125.653 90.347V75.04c.142-.013.262-.032.383-.032 3.024-.002 6.049-.016 9.073.003 2.802.018 4.916 1.629 5.67 4.313.138.486.206 1.008.21 1.514.018 3.074.009 6.147.008 9.221 0 .083-.014.166-.026.29h-15.318Z"/><path d="M109.376 128.264a1.823 1.823 0 0 1-1.779-1.833 1.823 1.823 0 0 1 1.833-1.778c.984.015 1.793.85 1.778 1.833a1.823 1.823 0 0 1-1.832 1.778"/></g></g></svg>