<svg width="51" height="56" xmlns="http://www.w3.org/2000/svg" xmlns:xlink="http://www.w3.org/1999/xlink"><defs><path id="a" d="M0 0h50v55H0z"/></defs><g fill="none" fill-rule="evenodd"><g transform="translate(.56 .686)"><mask id="b" fill="#fff"><use xlink:href="#a"/></mask><path d="M3.802 14.817v.213a58.445 58.445 0 0 0 1.32 11.232c1.035 4.757 2.74 9.245 5.376 13.347 3.49 5.434 8.216 9.29 14.316 11.38.15.05.35.048.5-.005 1.657-.584 3.221-1.377 4.73-2.27 3.367-1.993 6.129-4.666 8.422-7.835 3.887-5.374 6.066-11.451 7.115-17.967.314-1.953.458-3.934.659-5.905.076-.742.094-1.49.139-2.257-.506-.131-.997-.257-1.487-.387-3.35-.887-6.67-1.862-9.853-3.257-3.399-1.49-6.574-3.348-9.367-5.835-.671-.597-.488-.568-1.086.005a32.295 32.295 0 0 1-6.236 4.66c-3.908 2.26-8.126 3.626-12.524 4.482-.67.13-1.34.264-2.024.399M0 11.893c.52-.075 1.04-.159 1.563-.224 3.992-.5 7.897-1.354 11.635-2.893 4.284-1.764 7.977-4.366 11.015-7.9.248-.29.508-.57.782-.876.077.072.149.138.219.205.977.945 1.94 1.903 2.933 2.83 1.667 1.558 3.603 2.714 5.62 3.733 3.134 1.58 6.442 2.691 9.815 3.604 2.073.56 4.162 1.058 6.243 1.585.061.016.12.044.166.061 0 1.156.022 2.297-.003 3.437-.168 7.504-1.675 14.701-4.905 21.492-2.179 4.582-5.103 8.603-8.946 11.915a30.639 30.639 0 0 1-10.724 6.026c-.096.03-.187.074-.28.112h-.167c-.092-.038-.181-.085-.275-.114-3.777-1.167-7.23-2.956-10.3-5.475-4.236-3.477-7.332-7.83-9.62-12.8-1.614-3.505-2.744-7.17-3.506-10.955-.47-2.337-.846-4.69-.983-7.072-.12-2.063-.162-4.13-.24-6.194-.006-.129-.028-.257-.042-.385v-.112" fill="#69D5BD" mask="url(#b)"/></g><path d="m22.509 37.686-7.95-8.23 2.363-2.4 5.735 5.83 12.613-11.2 2.29 2.606-15.051 13.394" fill="#69D5BD"/></g></svg>