<svg width="218px" height="218px" viewBox="0 0 218 218" version="1.1" xmlns="http://www.w3.org/2000/svg" xmlns:xlink="http://www.w3.org/1999/xlink"><defs><circle id="b" cx="79" cy="79" r="79"/><filter x="-29.1%" y="-27.8%" width="158.2%" height="158.2%" filterUnits="objectBoundingBox" id="a"><feOffset dx="0" dy="2" in="SourceAlpha" result="shadowOffsetOuter1"/><feGaussianBlur stdDeviation="15" in="shadowOffsetOuter1" result="shadowBlurOuter1"/><feColorMatrix values="0 0 0 0 0.874509804   0 0 0 0 0.823529412   0 0 0 0 0.321568627  0 0 0 0.5 0" type="matrix" in="shadowBlurOuter1"/></filter><polygon id="c" points="0 0 17.8947368 0 17.8947368 25.9473684 0 25.9473684"/><polygon id="e" points="0 0 7.15789474 0 7.15789474 15.2105263 0 15.2105263"/><polygon id="g" points="0 0 49.2105263 0 49.2105263 39.3684211 0 39.3684211"/><polygon id="i" points="0 0 7.15789474 0 7.15789474 6.26315789 0 6.26315789"/></defs><g stroke="none" stroke-width="1" fill="none" fill-rule="evenodd"><g transform="translate(-772.000000, -2925.000000)"><g transform="translate(470.000000, 2953.000000)"><g transform="translate(332.000000, 0.000000)"><g><use fill="black" fill-opacity="1" filter="url(#a)" xlink:href="#b"/><use fill="#DFD252" fill-rule="evenodd" xlink:href="#b"/></g><g transform="translate(46.000000, 45.000000)"><g transform="translate(20.578947, 42.052632)"><mask id="d" fill="white"><use xlink:href="#c"/></mask><g/><path d="M14.3099709,25.9473715 C12.4251179,25.9494789 11.4035564,24.8511124 10.6421595,23.2311967 C7.22012469,15.9507431 3.74459192,8.69574711 0.289333427,1.43099018 C0.198818629,1.24065238 0.119814385,1.04464271 0,0.770413833 C1.3534055,0.623604434 2.6238827,0.483390245 3.89488311,0.34858413 C4.95437712,0.236201733 6.01687958,0.149408755 7.07297274,0.012228364 C7.51168175,-0.0447542599 7.72959743,0.0942727902 7.91952154,0.49539353 C11.0824382,7.17304477 14.2673295,13.8400118 17.4307693,20.5173992 C18.4915714,22.7566053 17.6978665,24.7119535 15.4127602,25.6148379 C15.2955619,25.6611363 15.1905281,25.7384321 15.079739,25.8013504 C14.823106,25.8500231 14.5666039,25.8986958 14.3099709,25.9473715" fill="#3E4152" mask="url(#d)"/></g><g transform="translate(58.157895, 10.736842)"><mask id="f" fill="white"><use xlink:href="#e"/></mask><g/><path d="M7.15793518,7.61513777 C7.13245347,7.96551848 7.10481457,8.31576484 7.08162486,8.66627989 C6.90042155,11.4061818 5.14919404,14.1476959 2.87040063,15.2105263 C1.91679125,10.1568757 0.965204234,5.11437607 0,0 C1.81621263,0.257814639 3.31100511,1.02897463 4.60234833,2.23354267 C5.62202142,3.18486391 6.24059343,4.38714802 6.7850123,5.63860365 L7.15793518,7.61513777 Z" fill="#3E4152" mask="url(#f)"/></g><g transform="translate(8.947368, 0.000000)"><mask id="h" fill="white"><use xlink:href="#g"/></mask><g/><path d="M0,16.4198883 C12.8395126,12.8609211 25.5853232,9.32802933 38.4143809,5.77207587 C38.2315511,4.79693379 38.0378744,3.86699784 37.8856252,2.93024822 C37.6190256,1.28998639 38.8396333,-0.0811351752 40.4679816,0.00364269682 C41.5014469,0.0574969556 42.405533,0.7924569 42.6943491,1.81857053 C42.7355152,1.96493356 42.7602149,2.11627582 42.7883124,2.26604569 C44.9092164,13.5724263 47.0305124,24.8786759 49.1491946,36.1853185 C49.4241581,37.6527488 48.7568751,38.8868106 47.5028117,39.2585491 C46.0691858,39.6837488 44.6545092,38.8387218 44.3398172,37.3474436 C44.1469246,36.4334936 43.9915389,35.5116817 43.8053113,34.5188502 C42.2255783,34.6776613 40.6781247,34.8311001 39.1311939,34.989256 C34.1606806,35.4970061 29.190298,36.0048871 24.2203074,36.5159129 C20.3739555,36.9112372 16.5279957,37.3107546 12.6819052,37.7093547 C10.0025797,37.9870121 7.32220882,38.2557592 4.64523573,38.5549059 C4.16614066,38.6084981 4.1095536,38.3559989 4.04538675,38.0064049 C3.72298426,36.2491312 3.38973482,34.4939541 3.06040597,32.7381218 C2.09254507,27.5774163 1.12468417,22.4167107 0.156823263,17.2560052 C0.109384226,17.0028508 0.0618145027,16.7495655 0,16.4198883" fill="#3E4152" mask="url(#h)"/></g><g transform="translate(0.000000, 25.947368)"><mask id="j" fill="white"><use xlink:href="#i"/></mask><g/><path d="M6.11128468,0.0351538251 C6.45541675,1.82568393 6.80267847,3.6317772 7.15789474,5.48009514 C7.03010034,5.52869816 6.89969789,5.60128377 6.76029767,5.6278177 C5.69556168,5.83001136 4.63239051,6.04228281 3.56256882,6.21475337 C1.80161415,6.49858989 0.318025492,5.50943555 0.0420939105,3.89609598 C-0.227708756,2.3183476 0.821509347,0.940241533 2.55664433,0.611628998 C3.68501672,0.39795431 4.81677957,0.202266566 5.94762961,0.00122100902 C5.98557672,-0.00554004081 6.02900074,0.0171668813 6.11128468,0.0351538251" fill="#3E4152" mask="url(#j)"/></g></g></g></g></g></g></svg>