<svg xmlns="http://www.w3.org/2000/svg" viewBox="0 0 241.76 33.18"><defs><style>.cls-1{fill:#333;}.cls-2{fill:#f04b24;}.cls-3{fill:#f89521;}.cls-4{fill:#e83e25;opacity:0.3;}.cls-5{fill:#5fc4ba;}.cls-6{fill:#1e8175;}.cls-7{fill:#36a99b;}.cls-8{fill:#02584f;}.cls-9{fill:#fdba13;}</style></defs><title>Wordmark Dark</title><g id="Layer_2" data-name="Layer 2"><g id="Layer_1-2" data-name="Layer 1"><path class="cls-1" d="M23.82,32.46H1.44A1.55,1.55,0,0,1,0,31a1.59,1.59,0,0,1,.34-.93L20.69,3.6H1.44A1.55,1.55,0,0,1,0,2.16,1.55,1.55,0,0,1,1.44.72H23.82a1.55,1.55,0,0,1,1.44,1.44,1.5,1.5,0,0,1-.34.93L4.57,29.58H23.82a1.44,1.44,0,0,1,0,2.88Z"/><path class="cls-1" d="M103.14,2V31.23a1.6,1.6,0,0,1-1.61,1.57,1.84,1.84,0,0,1-1.31-.68L76.48,6.65V31.23a1.57,1.57,0,0,1-3.14,0V2A1.59,1.59,0,0,1,74.91.38a1.43,1.43,0,0,1,1.27.6L100,26.54V2a1.57,1.57,0,1,1,3.13,0Z"/><path class="cls-1" d="M137.58,15.2A1.55,1.55,0,0,1,139,16.63v10.2a1.48,1.48,0,0,1-.38,1,16.38,16.38,0,0,1-12.23,5.37,16.76,16.76,0,0,1-16.75-16.59C109.52,7.71,117.39-.16,126.4,0a17.36,17.36,0,0,1,11.81,4.91,1.54,1.54,0,0,1,0,2,1.46,1.46,0,0,1-2,0,14.43,14.43,0,0,0-9.73-4.1,13.67,13.67,0,0,0-12,7.24,14.46,14.46,0,0,0-1.61,6.51,14.22,14.22,0,0,0,4.19,10,13.58,13.58,0,0,0,9.4,3.8,13.83,13.83,0,0,0,9.43-3.85V18.07H126.4a1.44,1.44,0,1,1,0-2.87Z"/><path class="cls-1" d="M197.15,20.74h-12V31.06a1.57,1.57,0,1,1-3.13,0V2.12A1.6,1.6,0,0,1,183.59.55h13.18a10.16,10.16,0,0,1,10.07,10.12,9.74,9.74,0,0,1-1.86,5.8,10.35,10.35,0,0,1-4.7,3.63l5,10.29a1.59,1.59,0,0,1-.72,2.07,1.62,1.62,0,0,1-2.08-.72Zm-.38-17.31H185.11V17.86h11.66c3.55.21,7.06-3.51,6.85-7.19C203.83,6.94,200.32,3.22,196.77,3.43Z"/><path class="cls-1" d="M238.63,17.8A12,12,0,0,1,227.3,29.86a11.8,11.8,0,0,1-12.23-11.78l0-16.33A1.57,1.57,0,0,0,213.49.19h0a1.55,1.55,0,0,0-1.55,1.56V18.08a14.91,14.91,0,0,0,29.82,0V1.75A1.56,1.56,0,0,0,240.19.19h0a1.56,1.56,0,0,0-1.56,1.56Z"/><path class="cls-1" d="M172.3,17.8A12,12,0,0,1,161,29.86a11.8,11.8,0,0,1-12.23-11.78l0-16.33A1.56,1.56,0,0,0,147.16.19h0a1.56,1.56,0,0,0-1.55,1.56V18.08a14.91,14.91,0,0,0,29.82,0V1.75A1.56,1.56,0,0,0,173.86.19h0a1.56,1.56,0,0,0-1.56,1.56Z"/><path class="cls-2" d="M44.08,19.64A14.55,14.55,0,0,0,33.71,31.36c-.5-.46-1-.94-1.42-1.44A16.25,16.25,0,0,1,28.1,19.11c0-9.54,8.55-17.28,19.09-17.28A20.66,20.66,0,0,1,55.38,3.5a11.94,11.94,0,0,1,.23,2.41C55.61,12.34,50.77,17.79,44.08,19.64Z"/><path class="cls-3" d="M55.61,5.91A12.76,12.76,0,0,1,54,12.18,22.5,22.5,0,0,1,41.31,16,22.56,22.56,0,0,1,29.46,12.7C32.27,6.33,39.15,1.83,47.19,1.83A20.49,20.49,0,0,1,55.38,3.5,11.94,11.94,0,0,1,55.61,5.91Z"/><path class="cls-4" d="M55.38,3.5h0A23.13,23.13,0,0,1,43.62,11,20.25,20.25,0,0,0,29.5,25.63a15.9,15.9,0,0,1-1.4-6.52c0-9.54,8.55-17.28,19.09-17.28A20.66,20.66,0,0,1,55.38,3.5Z"/><path class="cls-5" d="M56.93,8.75a13.35,13.35,0,0,0,.3-2.84,13.17,13.17,0,0,0-.09-1.55,17.56,17.56,0,0,1,8.52,10.35A27,27,0,0,0,56.93,8.75Z"/><path class="cls-6" d="M66,21.87A15.83,15.83,0,0,1,64,27.34,18.68,18.68,0,0,0,52.92,16.12a15.69,15.69,0,0,0,2.59-3.51A22.86,22.86,0,0,1,66,21.87Z"/><path class="cls-7" d="M66.29,19.11A15.74,15.74,0,0,1,66,21.87a22.86,22.86,0,0,0-10.53-9.26,14,14,0,0,0,1.42-3.86,27,27,0,0,1,8.73,6A15.65,15.65,0,0,1,66.29,19.11Z"/><path class="cls-8" d="M64,27.34a16.37,16.37,0,0,1-1.88,2.58c-.45.5-.93,1-1.43,1.44A14.53,14.53,0,0,0,48.73,19.28a17.81,17.81,0,0,0,4.19-3.16A18.68,18.68,0,0,1,64,27.34Z"/><path class="cls-9" d="M45.76,7a14.82,14.82,0,0,1-8.5-2.67A20.87,20.87,0,0,1,55.38,3.5,14.86,14.86,0,0,1,45.76,7Z"/></g></g></svg>