<svg version="1.1" id="Calque_1" xmlns="http://www.w3.org/2000/svg" x="0" y="0" viewBox="0 0 796 394" style="enable-background:new 0 0 796 394" xml:space="preserve"><style>.st0{fill:#64d7be}.st1{fill:#282828}.st3{fill:#fff}.st6{font-family:&apos;Gilroy-ExtraBold&apos;}.st7{font-size:22px}</style><path class="st0" d="M179.46.42c-3.31 0-6 2.69-6 6v48c0 3.31 2.69 6 6 6h438c3.31 0 6-2.69 6-6v-48c0-3.31-2.69-6-6-6h-438z"/><path class="st3" d="M208.99 36.3v4.62h-13.2v-21h13.05v4.62h-8.25v3.48h7.5v4.56h-7.5v3.72h8.4zM213.31 29.79h11.4v4.32h-11.4v-4.32zM229.06 30.42c0-6.18 4.59-10.92 10.92-10.92 3.81 0 7.17 1.89 9 4.86l-4.14 2.4c-.93-1.62-2.73-2.58-4.86-2.58-3.72 0-6.12 2.49-6.12 6.24s2.4 6.24 6.12 6.24c2.13 0 3.96-.96 4.86-2.58l4.14 2.4c-1.8 2.97-5.16 4.86-9 4.86-6.33 0-10.92-4.74-10.92-10.92zM251.8 30.42c0-6.18 4.89-10.92 10.92-10.92s10.92 4.74 10.92 10.92-4.89 10.92-10.92 10.92-10.92-4.74-10.92-10.92zm17.04 0c0-3.75-2.7-6.24-6.12-6.24s-6.12 2.49-6.12 6.24 2.7 6.24 6.12 6.24 6.12-2.49 6.12-6.24zM299.11 40.92h-4.8V28.71l-5.43 8.91h-.54l-5.43-8.91v12.21h-4.8v-21h4.8l5.7 9.33 5.7-9.33h4.8v21zM316.81 37.62h-7.8l-1.05 3.3h-5.25l7.14-21h6.12l7.14 21h-5.25l-1.05-3.3zm-1.44-4.5-2.46-7.71-2.46 7.71h4.92zM325.21 36.15l4.14-2.4c.75 1.74 2.04 2.91 4.41 2.91 2.28 0 2.85-.9 2.85-1.71 0-1.29-1.2-1.8-4.35-2.67-3.12-.87-6.18-2.37-6.18-6.39 0-4.05 3.42-6.39 7.05-6.39 3.45 0 6.15 1.65 7.68 4.74l-4.05 2.37c-.72-1.5-1.71-2.43-3.63-2.43-1.5 0-2.25.75-2.25 1.59 0 .96.51 1.62 3.78 2.61 3.18.96 6.75 2.07 6.75 6.51 0 4.05-3.24 6.45-7.8 6.45-4.41 0-7.23-2.1-8.4-5.19zM353.68 30.42c0-6.18 4.89-10.92 10.92-10.92s10.92 4.74 10.92 10.92-4.89 10.92-10.92 10.92-10.92-4.74-10.92-10.92zm17.04 0c0-3.75-2.7-6.24-6.12-6.24s-6.12 2.49-6.12 6.24 2.7 6.24 6.12 6.24 6.12-2.49 6.12-6.24zM387.1 34.02h-2.28v6.9h-4.8v-21h8.4c3.99 0 7.2 3.21 7.2 7.2 0 2.58-1.56 4.92-3.87 6.09l4.47 7.71h-5.16l-3.96-6.9zm-2.28-4.2h3.6c1.32 0 2.4-1.17 2.4-2.7 0-1.53-1.08-2.7-2.4-2.7h-3.6v5.4zM418.87 30.42c0 5.94-4.41 10.5-10.2 10.5h-8.4v-21h8.4c5.79 0 10.2 4.56 10.2 10.5zm-4.62 0c0-3.6-2.28-5.88-5.58-5.88h-3.6V36.3h3.6c3.3 0 5.58-2.28 5.58-5.88zM436.57 36.3v4.62h-13.2v-21h13.05v4.62h-8.25v3.48h7.5v4.56h-7.5v3.72h8.4zM448.12 34.02h-2.28v6.9h-4.8v-21h8.4c3.99 0 7.2 3.21 7.2 7.2 0 2.58-1.56 4.92-3.87 6.09l4.47 7.71h-5.16l-3.96-6.9zm-2.28-4.2h3.6c1.32 0 2.4-1.17 2.4-2.7 0-1.53-1.08-2.7-2.4-2.7h-3.6v5.4zM459.94 36.15l4.14-2.4c.75 1.74 2.04 2.91 4.41 2.91 2.28 0 2.85-.9 2.85-1.71 0-1.29-1.2-1.8-4.35-2.67-3.12-.87-6.18-2.37-6.18-6.39 0-4.05 3.42-6.39 7.05-6.39 3.45 0 6.15 1.65 7.68 4.74l-4.05 2.37c-.72-1.5-1.71-2.43-3.63-2.43-1.5 0-2.25.75-2.25 1.59 0 .96.51 1.62 3.78 2.61 3.18.96 6.75 2.07 6.75 6.51 0 4.05-3.24 6.45-7.8 6.45-4.41 0-7.23-2.1-8.4-5.19zM503.44 24.54h-5.4v16.38h-4.8V24.54h-5.4v-4.62h15.6v4.62zM505.24 30.42c0-6.18 4.89-10.92 10.92-10.92s10.92 4.74 10.92 10.92-4.89 10.92-10.92 10.92-10.92-4.74-10.92-10.92zm17.04 0c0-3.75-2.7-6.24-6.12-6.24s-6.12 2.49-6.12 6.24 2.7 6.24 6.12 6.24 6.12-2.49 6.12-6.24zM550.6 32.85v8.07h-4.8v-8.07l-7.05-12.93h5.46l3.99 8.1 3.99-8.1h5.46l-7.05 12.93zM558.85 30.42c0-6.18 4.89-10.92 10.92-10.92s10.92 4.74 10.92 10.92-4.89 10.92-10.92 10.92-10.92-4.74-10.92-10.92zm17.04 0c0-3.75-2.7-6.24-6.12-6.24s-6.12 2.49-6.12 6.24 2.7 6.24 6.12 6.24 6.12-2.49 6.12-6.24zM584.86 34.14V19.92h4.8v13.8c0 1.59.75 2.94 3.3 2.94s3.3-1.35 3.3-2.94v-13.8h4.8v14.22c0 4.5-3.48 7.2-8.1 7.2-4.62 0-8.1-2.7-8.1-7.2z"/><path class="st0" d="M6.4 128.92c-3.31 0-6 2.69-6 6v58c0 3.31 2.69 6 6 6h248c3.31 0 6-2.69 6-6v-58c0-3.31-2.69-6-6-6H6.4z"/><g><path class="st3" d="M44.26 154.7v5.92h-3.52v-5.92l-5.17-9.48h4l2.93 5.94 2.93-5.94h4l-5.17 9.48zM49.78 152.92c0-4.53 3.59-8.01 8.01-8.01s8.01 3.48 8.01 8.01-3.59 8.01-8.01 8.01-8.01-3.48-8.01-8.01zm12.5 0c0-2.75-1.98-4.58-4.49-4.58s-4.49 1.83-4.49 4.58 1.98 4.58 4.49 4.58 4.49-1.83 4.49-4.58zM68.33 155.65v-10.43h3.52v10.12c0 1.17.55 2.16 2.42 2.16 1.87 0 2.42-.99 2.42-2.16v-10.12h3.52v10.43c0 3.3-2.55 5.28-5.94 5.28s-5.94-1.98-5.94-5.28zM88.74 157.12l3.04-1.76c.55 1.28 1.5 2.13 3.23 2.13 1.67 0 2.09-.66 2.09-1.25 0-.95-.88-1.32-3.19-1.96-2.29-.64-4.53-1.74-4.53-4.69 0-2.97 2.51-4.69 5.17-4.69 2.53 0 4.51 1.21 5.63 3.48l-2.97 1.74c-.53-1.1-1.25-1.78-2.66-1.78-1.1 0-1.65.55-1.65 1.17 0 .7.38 1.19 2.77 1.91 2.33.7 4.95 1.52 4.95 4.77 0 2.97-2.38 4.73-5.72 4.73-3.23.01-5.3-1.53-6.16-3.8zM112.72 157.23v3.39h-9.68v-15.4h9.57v3.39h-6.05v2.55h5.5v3.34h-5.5v2.73h6.16zM127.55 145.22v15.4h-2.64l-5.94-8.36v8.36h-3.52v-15.4h2.64l5.94 8.36v-8.36h3.52zM144.58 152.92c0 4.36-3.23 7.7-7.48 7.7h-6.16v-15.4h6.16c4.25 0 7.48 3.34 7.48 7.7zm-3.39 0c0-2.64-1.67-4.31-4.09-4.31h-2.64v8.62h2.64c2.42 0 4.09-1.67 4.09-4.31zM152.61 157.12l3.04-1.76c.55 1.28 1.5 2.13 3.23 2.13 1.67 0 2.09-.66 2.09-1.25 0-.95-.88-1.32-3.19-1.96-2.29-.64-4.53-1.74-4.53-4.69 0-2.97 2.51-4.69 5.17-4.69 2.53 0 4.51 1.21 5.63 3.48l-2.97 1.74c-.53-1.1-1.25-1.78-2.66-1.78-1.1 0-1.65.55-1.65 1.17 0 .7.37 1.19 2.77 1.91 2.33.7 4.95 1.52 4.95 4.77 0 2.97-2.38 4.73-5.72 4.73-3.23.01-5.3-1.53-6.16-3.8zM176.81 148.61h-3.96v12.01h-3.52v-12.01h-3.96v-3.39h11.44v3.39zM177.58 152.92c0-4.53 3.59-8.01 8.01-8.01s8.01 3.48 8.01 8.01-3.59 8.01-8.01 8.01-8.01-3.48-8.01-8.01zm12.5 0c0-2.75-1.98-4.58-4.49-4.58s-4.49 1.83-4.49 4.58 1.98 4.58 4.49 4.58 4.49-1.83 4.49-4.58zM195.66 152.92c0-4.53 3.37-8.01 8.01-8.01 2.79 0 5.26 1.39 6.6 3.56l-3.04 1.76c-.68-1.19-2-1.89-3.56-1.89-2.73 0-4.49 1.83-4.49 4.58s1.76 4.58 4.49 4.58c1.56 0 2.9-.7 3.56-1.89l3.04 1.76c-1.32 2.18-3.78 3.56-6.6 3.56-4.64 0-8.01-3.48-8.01-8.01zM221.14 160.62l-4.93-7.13v7.13h-3.52v-15.4h3.52v6.69l4.71-6.69h4.01l-5.19 7.5 5.41 7.9h-4.01z"/></g><text transform="translate(231.943 160.62)" class="st3 st6 st7"> </text><text transform="translate(64.83 182.62)"><tspan x="0" y="0" class="st3 st6 st7">T</tspan><tspan x="11.77" y="0" class="st3 st6 st7">O </tspan><tspan x="35.93" y="0" class="st3 st6 st7">A</tspan><tspan x="51.63" y="0" class="st3 st6 st7">M</tspan><tspan x="70.44" y="0" class="st3 st6 st7">A</tspan><tspan x="86.15" y="0" class="st3 st6 st7">Z</tspan><tspan x="98.25" y="0" class="st3 st6 st7">O</tspan><tspan x="116.36" y="0" class="st3 st6 st7">N</tspan></text><g><path class="st0" d="M542.59 128.92c-3.31 0-6 2.69-6 6v58c0 3.31 2.69 6 6 6h248c3.31 0 6-2.69 6-6v-58c0-3.31-2.69-6-6-6h-248z"/></g><g><path class="st3" d="M603.89 154.7v5.92h-3.52v-5.92l-5.17-9.48h4l2.93 5.94 2.93-5.94h4l-5.17 9.48zM609.41 152.92c0-4.53 3.59-8.01 8.01-8.01s8.01 3.48 8.01 8.01-3.59 8.01-8.01 8.01-8.01-3.48-8.01-8.01zm12.5 0c0-2.75-1.98-4.58-4.49-4.58s-4.49 1.83-4.49 4.58 1.98 4.58 4.49 4.58 4.49-1.83 4.49-4.58zM627.96 155.65v-10.43h3.52v10.12c0 1.17.55 2.16 2.42 2.16 1.87 0 2.42-.99 2.42-2.16v-10.12h3.52v10.43c0 3.3-2.55 5.28-5.94 5.28-3.39 0-5.94-1.98-5.94-5.28zM652.68 145.22v15.4h-3.52v-15.4h3.52zM668.17 145.22v15.4h-2.64l-5.94-8.36v8.36h-3.52v-15.4h2.64l5.94 8.36v-8.36h3.52zM670.26 145.22h3.85l3.41 11.33 3.41-11.33h3.85l-5.02 15.4h-4.49l-5.01-15.4zM685.53 152.92c0-4.53 3.59-8.01 8.01-8.01s8.01 3.48 8.01 8.01-3.59 8.01-8.01 8.01-8.01-3.48-8.01-8.01zm12.5 0c0-2.75-1.98-4.58-4.49-4.58s-4.49 1.83-4.49 4.58 1.98 4.58 4.49 4.58 4.49-1.83 4.49-4.58zM707.82 145.22v15.4h-3.52v-15.4h3.52zM710.54 152.92c0-4.53 3.37-8.01 8.01-8.01 2.79 0 5.26 1.39 6.6 3.56l-3.04 1.76c-.68-1.19-2-1.89-3.56-1.89-2.73 0-4.49 1.83-4.49 4.58s1.76 4.58 4.49 4.58c1.56 0 2.9-.7 3.56-1.89l3.04 1.76c-1.32 2.18-3.79 3.56-6.6 3.56-4.64 0-8.01-3.48-8.01-8.01zM737.23 157.23v3.39h-9.68v-15.4h9.57v3.39h-6.05v2.55h5.5v3.34h-5.5v2.73h6.16z"/></g><g><path class="st3" d="M624.92 179.23v3.39h-9.68v-15.4h9.57v3.39h-6.05v2.55h5.5v3.34h-5.5v2.73h6.16zM627.54 174.46h8.36v3.17h-8.36v-3.17zM638.54 174.92c0-4.53 3.37-8.01 8.01-8.01 2.79 0 5.26 1.39 6.6 3.56l-3.04 1.76c-.68-1.19-2-1.89-3.56-1.89-2.73 0-4.49 1.83-4.49 4.58s1.76 4.58 4.49 4.58c1.56 0 2.9-.7 3.56-1.89l3.04 1.76c-1.32 2.18-3.79 3.56-6.6 3.56-4.65 0-8.01-3.48-8.01-8.01zM654.69 174.92c0-4.53 3.59-8.01 8.01-8.01s8.01 3.48 8.01 8.01-3.59 8.01-8.01 8.01c-4.43 0-8.01-3.48-8.01-8.01zm12.49 0c0-2.75-1.98-4.58-4.49-4.58-2.51 0-4.49 1.83-4.49 4.58s1.98 4.58 4.49 4.58c2.51 0 4.49-1.83 4.49-4.58zM688.83 182.62h-3.52v-8.96l-3.98 6.54h-.4l-3.98-6.54v8.96h-3.52v-15.4h3.52l4.18 6.84 4.18-6.84h3.52v15.4zM701.26 180.2h-5.72l-.77 2.42h-3.85l5.24-15.4h4.49l5.24 15.4h-3.85l-.78-2.42zm-1.06-3.3-1.8-5.66-1.8 5.66h3.6zM706.87 179.12l3.04-1.76c.55 1.28 1.5 2.13 3.23 2.13 1.67 0 2.09-.66 2.09-1.25 0-.95-.88-1.32-3.19-1.96-2.29-.64-4.53-1.74-4.53-4.69 0-2.97 2.51-4.69 5.17-4.69 2.53 0 4.51 1.21 5.63 3.48l-2.97 1.74c-.53-1.1-1.25-1.78-2.66-1.78-1.1 0-1.65.55-1.65 1.17 0 .7.37 1.19 2.77 1.91 2.33.7 4.95 1.52 4.95 4.77 0 2.97-2.38 4.73-5.72 4.73-3.23.01-5.3-1.53-6.16-3.8z"/></g><g><path class="st0" d="M542.59 323.58c-3.31 0-6 2.69-6 6v58c0 3.31 2.69 6 6 6h248c3.31 0 6-2.69 6-6v-58c0-3.31-2.69-6-6-6h-248z"/></g><g><path class="st3" d="M568.91 351.89v3.39h-9.68v-15.4h9.57v3.39h-6.05v2.55h5.5v3.34h-5.5v2.73h6.16zM571.53 347.12h8.36v3.17h-8.36v-3.17zM582.53 347.58c0-4.53 3.37-8.01 8.01-8.01 2.79 0 5.26 1.39 6.6 3.56l-3.04 1.76c-.68-1.19-2-1.89-3.56-1.89-2.73 0-4.49 1.83-4.49 4.58s1.76 4.58 4.49 4.58c1.56 0 2.9-.7 3.56-1.89l3.04 1.76c-1.32 2.18-3.78 3.56-6.6 3.56-4.65 0-8.01-3.48-8.01-8.01zM598.67 347.58c0-4.53 3.59-8.01 8.01-8.01s8.01 3.48 8.01 8.01-3.59 8.01-8.01 8.01-8.01-3.48-8.01-8.01zm12.5 0c0-2.75-1.98-4.58-4.49-4.58s-4.49 1.83-4.49 4.58 1.98 4.58 4.49 4.58 4.49-1.83 4.49-4.58zM632.82 355.28h-3.52v-8.96l-3.98 6.54h-.4l-3.98-6.54v8.96h-3.52v-15.4h3.52l4.18 6.84 4.18-6.84h3.52v15.4zM645.25 352.86h-5.72l-.77 2.42h-3.85l5.24-15.4h4.49l5.24 15.4h-3.85l-.78-2.42zm-1.06-3.3-1.8-5.66-1.8 5.66h3.6zM650.86 351.78l3.04-1.76c.55 1.28 1.5 2.13 3.23 2.13 1.67 0 2.09-.66 2.09-1.25 0-.95-.88-1.32-3.19-1.96-2.29-.64-4.53-1.74-4.53-4.69 0-2.97 2.51-4.69 5.17-4.69 2.53 0 4.51 1.21 5.63 3.48l-2.97 1.74c-.53-1.1-1.25-1.78-2.66-1.78-1.1 0-1.65.55-1.65 1.17 0 .7.37 1.19 2.77 1.91 2.33.7 4.95 1.52 4.95 4.77 0 2.97-2.38 4.73-5.72 4.73-3.24.01-5.3-1.53-6.16-3.8zM682.52 345.16c0 2.93-2.35 5.28-5.39 5.28h-2.31v4.84h-3.52v-15.4h5.83c3.03 0 5.39 2.35 5.39 5.28zm-3.52 0c0-1.12-.79-1.98-1.87-1.98h-2.31v3.96h2.31c1.07 0 1.87-.86 1.87-1.98zM692.53 352.86h-5.72l-.77 2.42h-3.85l5.24-15.4h4.49l5.24 15.4h-3.85l-.78-2.42zm-1.06-3.3-1.8-5.66-1.8 5.66h3.6zM704.65 349.36v5.92h-3.52v-5.92l-5.17-9.48h4l2.93 5.94 2.93-5.94h4l-5.17 9.48zM710.28 351.78l3.04-1.76c.55 1.28 1.5 2.13 3.23 2.13 1.67 0 2.09-.66 2.09-1.25 0-.95-.88-1.32-3.19-1.96-2.29-.64-4.53-1.74-4.53-4.69 0-2.97 2.51-4.69 5.17-4.69 2.53 0 4.51 1.21 5.63 3.48l-2.97 1.74c-.53-1.1-1.25-1.78-2.66-1.78-1.1 0-1.65.55-1.65 1.17 0 .7.37 1.19 2.77 1.91 2.33.7 4.95 1.52 4.95 4.77 0 2.97-2.38 4.73-5.72 4.73-3.23.01-5.3-1.53-6.16-3.8zM738.09 349.36v5.92h-3.52v-5.92l-5.17-9.48h4l2.93 5.94 2.93-5.94h4l-5.17 9.48zM743.61 347.58c0-4.53 3.59-8.01 8.01-8.01s8.01 3.48 8.01 8.01-3.59 8.01-8.01 8.01-8.01-3.48-8.01-8.01zm12.5 0c0-2.75-1.98-4.58-4.49-4.58s-4.49 1.83-4.49 4.58 1.98 4.58 4.49 4.58 4.49-1.83 4.49-4.58zM762.16 350.31v-10.43h3.52V350c0 1.17.55 2.16 2.42 2.16 1.87 0 2.42-.99 2.42-2.16v-10.12h3.52v10.43c0 3.3-2.55 5.28-5.94 5.28-3.39 0-5.94-1.98-5.94-5.28z"/></g><g><path class="st3" d="M574.69 361.88h3.7l2.66 10.78 2.97-10.78h2.86l2.97 10.78 2.66-10.78h3.7l-4.25 15.4h-4l-2.51-9.09-2.51 9.09h-4l-4.25-15.4zM602.04 361.88v15.4h-3.52v-15.4h3.52zM615.79 365.27h-3.96v12.01h-3.52v-12.01h-3.96v-3.39h11.44v3.39zM629.96 361.88v15.4h-3.52v-6.12h-4.84v6.12h-3.52v-15.4h3.52v5.9h4.84v-5.9h3.52zM636.89 361.88v15.4h-3.52v-15.4h3.52zM652.4 361.88v15.4h-2.64l-5.94-8.36v8.36h-3.52v-15.4h2.64l5.94 8.36v-8.36h3.52zM667.73 361.88v15.4h-3.52V365.6l-2.73.75-.86-3.01 4.03-1.45h3.08zM670.28 374.73l5.17-5.37c.9-.92 1.56-1.83 1.56-2.73 0-.97-.62-1.63-1.65-1.63-1.08 0-1.85.7-2.27 1.67l-2.97-1.74c.99-2.29 3.06-3.37 5.19-3.37 2.75 0 5.21 1.8 5.21 4.91 0 1.85-.99 3.43-2.4 4.84l-2.55 2.57h5.17v3.39h-10.47v-2.54zM682.51 369.58c0-4.75 2.29-8.01 6.27-8.01s6.27 3.26 6.27 8.01-2.29 8.01-6.27 8.01-6.27-3.26-6.27-8.01zm9.03 0c0-2.97-.9-4.58-2.75-4.58s-2.75 1.61-2.75 4.58.9 4.58 2.75 4.58 2.75-1.61 2.75-4.58zM717.36 369.58c0 4.36-3.23 7.7-7.48 7.7h-6.16v-15.4h6.16c4.25 0 7.48 3.34 7.48 7.7zm-3.38 0c0-2.64-1.67-4.31-4.09-4.31h-2.64v8.62h2.64c2.41 0 4.09-1.67 4.09-4.31zM728.59 374.86h-5.72l-.77 2.42h-3.85l5.24-15.4h4.49l5.24 15.4h-3.85l-.78-2.42zm-1.06-3.3-1.8-5.66-1.8 5.66h3.6zM740.68 371.36v5.92h-3.52v-5.92l-5.17-9.48h4l2.93 5.94 2.93-5.94h4l-5.17 9.48zM746.31 373.78l3.04-1.76c.55 1.28 1.5 2.13 3.23 2.13 1.67 0 2.09-.66 2.09-1.25 0-.95-.88-1.32-3.19-1.96-2.29-.64-4.53-1.74-4.53-4.69 0-2.97 2.51-4.69 5.17-4.69 2.53 0 4.51 1.21 5.63 3.48l-2.97 1.74c-.53-1.1-1.25-1.78-2.66-1.78-1.1 0-1.65.55-1.65 1.17 0 .7.37 1.19 2.77 1.91 2.33.7 4.95 1.52 4.95 4.77 0 2.97-2.38 4.73-5.72 4.73-3.23.01-5.3-1.53-6.16-3.8z"/></g><path class="st0" d="M666.06 118.45c-.55 0-1-.45-1-1V90.92h-533.2v26.53c0 .55-.45 1-1 1s-1-.45-1-1V89.92c0-.55.45-1 1-1h535.2c.55 0 1 .45 1 1v27.53c0 .55-.45 1-1 1z"/><path class="st0" d="M666.06 118.45c-.28 0-.54-.12-.73-.32l-4.72-5.08a.996.996 0 1 1 1.46-1.36l3.99 4.29 3.99-4.29a.988.988 0 0 1 1.41-.05c.4.38.43 1.01.05 1.41l-4.72 5.08c-.19.21-.46.32-.73.32zM130.86 118.45c-.28 0-.54-.12-.73-.32l-4.72-5.08a.996.996 0 1 1 1.46-1.36l3.99 4.29 3.99-4.29a.988.988 0 0 1 1.41-.05c.4.38.43 1.01.05 1.41l-4.72 5.08c-.19.21-.46.32-.73.32zM398.46 89.92c-.55 0-1-.45-1-1v-28.5c0-.55.45-1 1-1s1 .45 1 1v28.5c0 .55-.45 1-1 1z"/><g><path class="st1" d="M666.12 312.98c-.09-.05-.18-.1-.26-.18.08.08.17.13.26.18zM666.59 313.11zM666.98 313.03zM665.59 309.57l1 1.07 1-1.07v-25.8h-2zM667.31 312.8c-.07.08-.16.13-.26.18.09-.05.18-.1.26-.18zM667.59 210.58c0-.55-.45-1-1-1s-1 .45-1 1v18.34h2v-18.34zM666.19 313.03c-.03-.01-.04-.03-.07-.05.03.02.05.04.07.05zM667.05 312.98c-.02.01-.04.03-.07.04.03 0 .04-.02.07-.04z"/><path class="st1" d="m667.31 312.8.01-.01 4.72-5.08a.996.996 0 1 0-1.46-1.36l-2.99 3.22v2.54c0 .27-.11.51-.28.69zM665.59 309.57l-2.99-3.22a.988.988 0 0 0-1.41-.05.997.997 0 0 0-.05 1.41l4.72 5.08.01.01c-.17-.18-.28-.42-.28-.69v-2.54z"/><path class="st1" d="M665.59 309.57v2.54c0 .27.11.51.28.69.07.08.16.13.26.18.02.01.04.03.07.05.12.05.26.08.39.08s.27-.03.39-.08c.03-.01.04-.03.07-.04.09-.05.18-.11.26-.18.17-.18.28-.42.28-.69v-2.54l-1 1.08-1-1.09z"/></g><path class="st1" d="M588.36 244.68c-.07.13-.18.2-.33.2-.09 0-.19-.03-.31-.1-.11-.07-.25-.14-.42-.22-.17-.08-.36-.16-.59-.22-.23-.07-.5-.1-.81-.1-.27 0-.51.03-.73.1-.22.07-.4.16-.55.28-.15.12-.27.26-.35.42-.08.16-.12.33-.12.52 0 .23.07.43.2.58.14.16.31.29.54.4.22.11.47.21.76.3.28.09.57.18.87.28s.59.21.87.33c.28.12.53.27.76.45.22.18.4.4.54.66s.2.57.2.94c0 .42-.08.81-.22 1.17-.15.36-.37.67-.67.93-.29.26-.65.47-1.08.62-.43.15-.92.22-1.48.22-.64 0-1.21-.1-1.73-.31s-.95-.47-1.31-.8l.38-.61c.05-.08.1-.14.17-.18a.5.5 0 0 1 .26-.06c.11 0 .22.04.34.13.12.08.27.18.44.28.17.1.38.2.62.28.24.08.55.13.91.13.31 0 .58-.04.82-.12.23-.08.43-.19.59-.33.16-.14.27-.3.35-.48.07-.18.11-.37.11-.58 0-.25-.07-.46-.2-.63-.14-.16-.31-.31-.54-.42-.22-.12-.48-.22-.76-.31l-.87-.27c-.3-.1-.59-.21-.87-.33-.29-.12-.54-.28-.76-.46a2.3 2.3 0 0 1-.54-.69c-.13-.27-.2-.6-.2-.99 0-.35.07-.68.22-1 .14-.32.35-.6.63-.85.28-.24.61-.44 1.02-.58.4-.14.86-.22 1.38-.22.6 0 1.14.09 1.62.28.48.19.89.45 1.24.78l-.4.58zm5.36 7.76c-.72 0-1.27-.2-1.66-.6-.39-.4-.58-.98-.58-1.74v-5.58h-1.1c-.1 0-.18-.03-.24-.09-.07-.06-.1-.15-.1-.27v-.64l1.49-.19.37-2.82c.01-.09.05-.16.12-.22.07-.06.15-.09.25-.09h.81v3.14h2.61v1.16h-2.61v5.47c0 .38.09.67.28.85.19.19.43.28.72.28.17 0 .31-.02.44-.07.12-.04.23-.09.32-.15.09-.05.17-.1.23-.15s.12-.07.17-.07c.08 0 .16.05.23.15l.47.76c-.28.26-.61.46-1 .61-.41.18-.81.26-1.22.26zm7.64-9.41c.67 0 1.27.11 1.8.33.54.22.99.54 1.37.94.37.41.66.9.86 1.48.2.58.3 1.23.3 1.94 0 .72-.1 1.37-.3 1.94-.2.58-.49 1.07-.86 1.48-.38.41-.83.72-1.37.94-.54.22-1.14.33-1.8.33-.67 0-1.27-.11-1.8-.33-.54-.22-.99-.53-1.37-.94-.38-.41-.67-.9-.87-1.48a5.89 5.89 0 0 1-.31-1.94c0-.71.1-1.36.31-1.94.2-.58.49-1.07.87-1.48.38-.41.84-.72 1.37-.94.53-.22 1.13-.33 1.8-.33zm0 8.14c.9 0 1.57-.3 2.02-.9.44-.6.67-1.44.67-2.52 0-1.09-.22-1.93-.67-2.54-.44-.61-1.12-.91-2.02-.91-.46 0-.85.08-1.19.23-.34.16-.62.38-.84.68-.22.29-.39.66-.5 1.08-.11.43-.17.91-.17 1.45s.06 1.02.17 1.45c.11.43.28.78.5 1.08.23.29.51.51.84.67.33.15.73.23 1.19.23zm12.53-6.37c-.05.07-.1.12-.14.15-.05.04-.12.05-.21.05s-.19-.04-.29-.11c-.11-.07-.24-.16-.4-.25-.16-.09-.36-.17-.59-.25-.23-.07-.51-.11-.85-.11-.44 0-.84.08-1.18.24-.34.16-.63.39-.86.69-.23.3-.4.66-.52 1.09-.12.43-.18.9-.18 1.43 0 .55.06 1.04.19 1.47.13.43.3.79.53 1.08.23.29.51.51.83.67.33.15.69.23 1.1.23.39 0 .71-.05.96-.14.25-.09.46-.2.63-.31.17-.11.31-.22.41-.31.11-.09.22-.14.32-.14.14 0 .24.05.31.15l.45.59c-.4.49-.89.84-1.48 1.07-.59.23-1.22.34-1.88.34-.57 0-1.1-.11-1.59-.32-.49-.21-.91-.51-1.27-.91s-.64-.89-.85-1.47c-.21-.58-.31-1.24-.31-1.99 0-.68.09-1.3.28-1.88.19-.58.46-1.07.83-1.49.36-.42.81-.74 1.35-.98.53-.23 1.15-.35 1.84-.35.64 0 1.2.1 1.69.31s.93.5 1.3.88l-.42.57zm3.86-5.76v7.8h.41c.12 0 .22-.02.3-.05.08-.03.16-.1.26-.2l2.88-3.09c.09-.1.18-.17.27-.23a.64.64 0 0 1 .36-.09h1.46l-3.36 3.57c-.08.1-.17.19-.25.27-.08.08-.17.15-.27.21.11.07.21.15.29.25.09.09.17.2.25.32l3.56 4.5h-1.44c-.13 0-.24-.03-.34-.08a.972.972 0 0 1-.27-.24l-3-3.74a.686.686 0 0 0-.27-.25c-.09-.04-.22-.06-.4-.06h-.45v4.36h-1.61v-13.26h1.62zm6.45 13.24zm8.48-9.25c.67 0 1.27.11 1.8.33.54.22.99.54 1.37.94.37.41.66.9.86 1.48.2.58.3 1.23.3 1.94 0 .72-.1 1.37-.3 1.94-.2.58-.49 1.07-.86 1.48-.38.41-.83.72-1.37.94-.54.22-1.14.33-1.8.33-.67 0-1.27-.11-1.8-.33-.54-.22-.99-.53-1.37-.94-.38-.41-.67-.9-.87-1.48a5.89 5.89 0 0 1-.31-1.94c0-.71.1-1.36.31-1.94.2-.58.49-1.07.87-1.48.38-.41.84-.72 1.37-.94.53-.22 1.13-.33 1.8-.33zm0 8.14c.9 0 1.57-.3 2.02-.9.44-.6.67-1.44.67-2.52 0-1.09-.22-1.93-.67-2.54-.44-.61-1.12-.91-2.02-.91-.46 0-.85.08-1.19.23-.34.16-.62.38-.84.68-.22.29-.39.66-.5 1.08-.11.43-.17.91-.17 1.45s.06 1.02.17 1.45c.11.43.28.78.5 1.08.23.29.51.51.84.67.33.15.73.23 1.19.23zm6.67 1.12v-7.75l-1.01-.12a.81.81 0 0 1-.31-.14c-.08-.06-.12-.15-.12-.27v-.66h1.44v-.88c0-.52.07-.99.22-1.39.15-.4.36-.75.63-1.03s.6-.49.99-.63c.38-.14.82-.22 1.3-.22.41 0 .79.06 1.13.18l-.04.8c-.01.12-.06.19-.15.22-.1.02-.23.04-.4.04h-.28c-.28 0-.53.04-.75.11-.22.07-.42.19-.58.35s-.29.38-.37.64c-.09.26-.13.59-.13.98v.84h2.64v1.16h-2.58v7.78h-1.63zm6.07 0v-7.75l-1.01-.12a.81.81 0 0 1-.31-.14c-.08-.06-.12-.15-.12-.27v-.66h1.44v-.5c0-.56.09-1.07.26-1.53.17-.46.43-.87.78-1.2.35-.34.78-.6 1.3-.78.52-.19 1.12-.28 1.81-.28.23 0 .46.02.7.05.24.03.44.08.62.14l-.05.84c-.01.08-.05.12-.11.14a.88.88 0 0 1-.26.03H650.02c-1.06 0-1.83.22-2.32.66-.48.44-.72 1.1-.72 1.99v.46h5.51v8.94h-1.6v-7.78h-3.85v7.78h-1.62zm16.12-7.49c-.05.07-.1.12-.14.15-.05.04-.12.05-.21.05s-.19-.04-.29-.11c-.11-.07-.24-.16-.4-.25-.16-.09-.36-.17-.59-.25-.23-.07-.51-.11-.85-.11-.44 0-.84.08-1.18.24-.34.16-.63.39-.86.69-.23.3-.4.66-.52 1.09-.12.43-.18.9-.18 1.43 0 .55.06 1.04.19 1.47.13.43.3.79.53 1.08.23.29.51.51.83.67.33.15.69.23 1.1.23.39 0 .71-.05.96-.14.25-.09.46-.2.63-.31.17-.11.31-.22.41-.31.11-.09.22-.14.32-.14.14 0 .24.05.31.15l.45.59c-.4.49-.89.84-1.48 1.07-.59.23-1.22.34-1.88.34-.57 0-1.1-.11-1.59-.32-.49-.21-.91-.51-1.27-.91s-.64-.89-.85-1.47c-.21-.58-.31-1.24-.31-1.99 0-.68.09-1.3.28-1.88.19-.58.46-1.07.83-1.49.36-.42.81-.74 1.35-.98.53-.23 1.15-.35 1.84-.35.64 0 1.2.1 1.69.31s.93.5 1.3.88l-.42.57zm4.33-4.49c0 .16-.03.3-.09.44a1.23 1.23 0 0 1-.61.61 1.117 1.117 0 0 1-1.24-.25 1.111 1.111 0 0 1-.34-.8 1.152 1.152 0 0 1 .34-.82c.1-.1.22-.19.36-.25.14-.06.28-.09.44-.09.16 0 .3.03.44.09s.26.14.36.25c.1.11.19.23.25.37.06.15.09.3.09.45zm-.36 2.87v9.12h-1.6v-9.12h1.6zm9.52 9.11h-.71c-.16 0-.28-.02-.38-.07-.1-.05-.16-.15-.19-.31l-.18-.85c-.24.22-.47.41-.7.58-.23.17-.47.31-.72.43s-.52.21-.81.27c-.29.06-.6.09-.95.09s-.69-.05-.99-.15c-.31-.1-.58-.25-.81-.45-.23-.2-.41-.45-.54-.75s-.2-.66-.2-1.08c0-.36.1-.71.3-1.04.2-.33.52-.63.96-.89.44-.26 1.02-.47 1.73-.64.71-.17 1.59-.25 2.62-.25v-.72c0-.71-.15-1.25-.45-1.62-.3-.37-.75-.55-1.35-.55-.39 0-.72.05-.99.15-.27.1-.5.21-.69.33-.2.12-.36.23-.5.33a.72.72 0 0 1-.42.15c-.11 0-.2-.03-.28-.09a.628.628 0 0 1-.19-.21l-.29-.51c.5-.49 1.05-.85 1.63-1.09.58-.24 1.23-.36 1.93-.36.51 0 .96.08 1.36.25.4.17.73.4 1 .7.27.3.47.66.61 1.09.14.43.21.89.21 1.4v5.86zm-4.16-.98c.28 0 .54-.03.77-.09.23-.06.45-.14.66-.24.21-.1.41-.23.59-.38.19-.15.37-.32.55-.51v-1.88c-.74 0-1.37.05-1.88.14-.52.09-.94.22-1.26.37-.32.15-.56.33-.71.53-.15.21-.22.43-.22.69 0 .24.04.45.12.62.08.18.18.32.32.43.13.11.29.19.47.24.19.06.38.08.59.08zm8.37-12.27v13.26h-1.6v-13.26h1.6zm4.61 0v13.26h-1.6v-13.26h1.6zm5.5 15.94c-.05.12-.12.22-.2.29-.08.07-.21.11-.37.11h-1.19l1.66-3.62-3.76-8.59h1.39c.14 0 .25.03.32.1.08.07.14.15.17.23l2.44 5.74c.05.13.1.26.14.4.04.13.07.27.1.4.04-.14.08-.27.13-.4.04-.13.09-.27.14-.4l2.37-5.73c.04-.1.1-.18.18-.24a.49.49 0 0 1 .28-.09h1.28l-5.08 11.8zm5.23-2.7zm8.48-9.25c.67 0 1.27.11 1.8.33.54.22.99.54 1.37.94.37.41.66.9.86 1.48.2.58.3 1.23.3 1.94 0 .72-.1 1.37-.3 1.94-.2.58-.49 1.07-.86 1.48-.38.41-.83.72-1.37.94-.54.22-1.14.33-1.8.33-.67 0-1.27-.11-1.8-.33-.54-.22-.99-.53-1.37-.94-.38-.41-.67-.9-.87-1.48a5.89 5.89 0 0 1-.31-1.94c0-.71.1-1.36.31-1.94.2-.58.49-1.07.87-1.48.38-.41.84-.72 1.37-.94.53-.22 1.13-.33 1.8-.33zm0 8.14c.9 0 1.57-.3 2.02-.9.44-.6.67-1.44.67-2.52 0-1.09-.22-1.93-.67-2.54-.44-.61-1.12-.91-2.02-.91-.46 0-.85.08-1.19.23-.34.16-.62.38-.84.68-.22.29-.39.66-.5 1.08-.11.43-.17.91-.17 1.45s.06 1.02.17 1.45c.11.43.28.78.5 1.08.23.29.51.51.84.67.33.15.73.23 1.19.23zm5.13-7.99h1.26c.13 0 .24.03.32.1.08.07.14.14.17.23l1.75 5.87c.05.22.09.42.14.63.04.2.08.4.11.61.05-.2.1-.41.16-.61s.12-.41.19-.63l1.93-5.9c.03-.09.08-.16.16-.22.07-.06.17-.09.28-.09h.69c.12 0 .22.03.3.09.08.06.13.13.16.22l1.88 5.9c.07.21.12.42.18.62l.15.6c.03-.2.07-.4.12-.62.05-.22.1-.42.15-.6l1.78-5.87a.463.463 0 0 1 .47-.33h1.21l-2.95 9.12h-1.27c-.16 0-.26-.1-.32-.31l-2.02-6.18a3.31 3.31 0 0 1-.12-.42l-.09-.42-.09.42c-.03.14-.07.29-.12.42l-2.04 6.17c-.07.2-.19.31-.37.31h-1.21l-2.96-9.11zm14.97 9.11v-9.12h.95c.23 0 .37.11.43.33l.13.99c.4-.44.84-.79 1.33-1.06.49-.27 1.05-.4 1.7-.4.5 0 .94.08 1.32.25.38.17.7.4.95.7.25.3.45.67.58 1.09.13.43.2.9.2 1.41v5.8h-1.6v-5.8c0-.69-.16-1.23-.47-1.61-.32-.38-.8-.57-1.44-.57-.47 0-.92.11-1.33.34-.41.23-.79.54-1.14.93v6.71h-1.61zm13.62-9.26c.55 0 1.05.09 1.51.27.46.18.86.45 1.2.79.34.35.6.77.79 1.28.19.51.28 1.08.28 1.73 0 .25-.03.42-.08.5-.05.08-.16.13-.31.13h-6.07c.01.58.09 1.08.23 1.5.14.43.34.78.59 1.07.25.29.55.5.9.64s.74.21 1.17.21c.4 0 .75-.05 1.04-.14.29-.09.54-.19.75-.3.21-.11.39-.21.53-.3s.26-.14.36-.14c.13 0 .23.05.31.15l.45.59c-.2.24-.44.45-.71.63-.28.18-.57.32-.89.44-.32.11-.64.2-.98.26-.34.06-.67.09-1 .09-.63 0-1.21-.11-1.74-.32s-.99-.52-1.38-.94c-.39-.41-.69-.92-.9-1.53-.22-.61-.32-1.3-.32-2.09 0-.64.1-1.23.29-1.78.19-.55.48-1.03.84-1.44.37-.4.81-.72 1.34-.95.55-.23 1.14-.35 1.8-.35zm.04 1.18c-.77 0-1.38.22-1.83.67-.44.45-.72 1.07-.83 1.86h4.96c0-.37-.05-.71-.15-1.02-.1-.31-.25-.58-.45-.8-.2-.22-.44-.4-.72-.52a2.38 2.38 0 0 0-.98-.19zm12.2 8.08c-.23 0-.37-.11-.43-.33l-.14-1.11c-.39.47-.84.85-1.34 1.14-.5.29-1.08.43-1.72.43-.52 0-1-.1-1.42-.3-.43-.2-.79-.5-1.09-.89-.3-.39-.53-.88-.69-1.46-.16-.58-.24-1.25-.24-2.01 0-.67.09-1.3.27-1.88a4.6 4.6 0 0 1 .78-1.51c.34-.43.75-.76 1.24-1s1.04-.36 1.66-.36c.56 0 1.03.09 1.43.28s.75.45 1.06.8v-5.06h1.6v13.26h-.97zm-3.11-1.17c.52 0 .98-.12 1.37-.36.39-.24.75-.58 1.08-1.02v-4.41c-.29-.4-.62-.67-.97-.83-.35-.16-.74-.24-1.17-.24-.85 0-1.51.3-1.96.91-.46.61-.68 1.47-.68 2.59 0 .59.05 1.1.15 1.53.1.42.25.77.45 1.04s.44.47.73.6c.3.13.63.19 1 .19z"/><text transform="translate(754.826 252.293)" class="st1" style="font-size:18px;font-family:'Lato-Regular'"> </text><g><path class="st1" d="M623.78 273.3v-13.26h1.61v5.45c.38-.44.81-.79 1.3-1.06s1.05-.4 1.68-.4c.53 0 1.01.1 1.43.3s.79.49 1.09.89c.3.39.53.88.69 1.46s.24 1.25.24 2c0 .67-.09 1.3-.27 1.88-.18.58-.44 1.08-.78 1.5-.34.42-.75.76-1.24 1s-1.04.36-1.65.36c-.59 0-1.09-.11-1.5-.34-.41-.23-.77-.55-1.07-.95l-.08.83c-.05.23-.19.34-.41.34h-1.04zm4.07-7.98c-.52 0-.98.12-1.37.36s-.75.58-1.08 1.02v4.41c.29.4.61.67.96.84.35.16.74.24 1.17.24.85 0 1.51-.3 1.96-.91.46-.61.68-1.47.68-2.59 0-.59-.05-1.1-.16-1.53-.11-.43-.26-.78-.45-1.05-.2-.27-.44-.47-.73-.6-.28-.13-.61-.19-.98-.19zM636.25 275.99c-.05.12-.12.22-.2.29-.08.07-.21.11-.37.11h-1.19l1.66-3.62-3.76-8.59h1.39c.14 0 .25.04.32.1.08.07.13.15.17.23l2.44 5.74c.05.13.1.26.14.4.04.13.07.27.1.41l.12-.41c.04-.13.09-.27.14-.4l2.37-5.73c.04-.1.1-.18.18-.24a.49.49 0 0 1 .28-.09h1.28l-5.07 11.8zM649.87 264.04c.55 0 1.05.09 1.51.27.46.18.86.45 1.2.79s.6.77.79 1.28c.19.51.28 1.08.28 1.73 0 .25-.03.42-.08.5-.05.08-.16.13-.3.13h-6.07c.01.58.09 1.08.23 1.5.14.43.34.78.59 1.07s.55.5.9.64.74.21 1.17.21c.4 0 .75-.05 1.04-.14s.54-.19.75-.3c.21-.11.38-.21.53-.3.14-.09.26-.14.37-.14.13 0 .23.05.3.15l.45.58c-.2.24-.44.45-.71.63-.28.18-.57.32-.89.44s-.64.2-.98.26c-.34.06-.67.09-1 .09-.63 0-1.21-.11-1.74-.32s-.99-.53-1.38-.94c-.39-.41-.69-.92-.9-1.53-.22-.61-.32-1.3-.32-2.09 0-.64.1-1.23.29-1.78.19-.55.47-1.03.84-1.44.37-.4.81-.72 1.34-.95.54-.23 1.13-.34 1.79-.34zm.04 1.18c-.78 0-1.38.22-1.83.67-.44.45-.72 1.07-.83 1.86h4.96c0-.37-.05-.71-.15-1.02-.1-.31-.25-.58-.45-.8-.2-.22-.44-.4-.72-.52s-.61-.19-.98-.19zM655.28 267.22h4.45v1.36h-4.45v-1.36zM668.16 265.8c-.05.07-.1.12-.14.15-.05.04-.12.05-.21.05s-.19-.04-.29-.11-.24-.16-.4-.25c-.16-.09-.36-.17-.59-.25-.23-.08-.51-.11-.85-.11-.45 0-.84.08-1.18.24s-.63.39-.86.69-.4.66-.52 1.09-.18.9-.18 1.43c0 .55.06 1.04.19 1.47.12.43.3.79.53 1.08.23.29.5.51.83.67.33.15.69.23 1.1.23.39 0 .71-.05.96-.14.25-.09.46-.2.63-.31.17-.11.31-.22.41-.31.11-.09.22-.14.32-.14.14 0 .24.05.31.15l.45.58c-.4.49-.89.84-1.48 1.07-.6.23-1.22.34-1.88.34-.57 0-1.1-.11-1.59-.32-.49-.21-.91-.51-1.27-.91s-.64-.89-.85-1.47-.31-1.25-.31-1.99c0-.68.09-1.3.28-1.88.19-.58.46-1.07.83-1.49s.81-.74 1.35-.98c.53-.23 1.14-.35 1.84-.35.63 0 1.2.1 1.69.31s.93.5 1.3.88l-.42.58zM674.04 264.04c.67 0 1.27.11 1.8.33.54.22.99.54 1.37.94.38.41.66.9.86 1.48.2.58.3 1.23.3 1.94 0 .72-.1 1.37-.3 1.94-.2.58-.49 1.07-.86 1.48-.38.41-.83.72-1.37.94-.54.22-1.14.33-1.8.33s-1.27-.11-1.8-.33c-.54-.22-.99-.53-1.37-.94-.38-.41-.67-.9-.87-1.48-.2-.58-.3-1.22-.3-1.94 0-.71.1-1.36.3-1.94.21-.58.5-1.07.87-1.48.38-.41.84-.72 1.37-.94.53-.22 1.13-.33 1.8-.33zm0 8.13c.9 0 1.57-.3 2.02-.9.44-.6.67-1.44.67-2.52 0-1.09-.22-1.93-.67-2.54-.44-.61-1.12-.91-2.02-.91-.46 0-.85.08-1.19.23-.34.16-.62.38-.84.67-.23.29-.39.66-.5 1.08-.11.43-.17.91-.17 1.45s.06 1.02.17 1.45c.11.43.28.79.5 1.08.22.29.5.51.84.67.34.17.73.24 1.19.24zM680.36 273.3v-9.12h.95c.23 0 .37.11.43.33l.12.94c.34-.41.71-.75 1.13-1.02.42-.26.9-.4 1.46-.4.62 0 1.12.17 1.5.51s.65.8.82 1.39c.13-.33.29-.61.5-.85s.44-.44.7-.59c.26-.16.53-.27.82-.34.29-.07.59-.11.89-.11.48 0 .91.08 1.28.23.38.15.69.38.96.67s.46.66.6 1.08c.14.43.21.92.21 1.47v5.8h-1.6v-5.8c0-.71-.16-1.26-.47-1.62-.31-.37-.76-.55-1.36-.55-.27 0-.52.05-.75.14-.24.09-.45.23-.62.41-.18.18-.32.41-.43.68-.11.27-.16.59-.16.95v5.8h-1.6v-5.8c0-.73-.15-1.28-.44-1.64-.29-.36-.72-.54-1.29-.54-.4 0-.76.11-1.1.32-.34.21-.65.5-.93.87v6.79h-1.62zM701.83 273.3h-.71c-.16 0-.28-.02-.38-.07-.1-.05-.16-.15-.19-.31l-.18-.85c-.24.22-.47.41-.7.58-.23.17-.47.32-.72.43-.25.12-.52.21-.81.27-.29.06-.6.09-.95.09s-.69-.05-.99-.15c-.31-.1-.58-.25-.8-.45-.23-.2-.41-.45-.54-.75s-.2-.66-.2-1.08c0-.36.1-.71.3-1.04.2-.33.52-.63.96-.89s1.02-.47 1.73-.64c.71-.17 1.59-.25 2.62-.25v-.72c0-.71-.15-1.25-.46-1.62-.3-.37-.75-.55-1.35-.55-.39 0-.72.05-.98.15-.27.1-.5.21-.69.33-.2.12-.36.23-.5.33a.72.72 0 0 1-.42.15c-.11 0-.2-.03-.28-.09a.796.796 0 0 1-.2-.21l-.29-.51c.5-.49 1.05-.85 1.63-1.09s1.23-.36 1.94-.36c.51 0 .96.08 1.36.25.39.17.73.4 1 .7s.47.66.61 1.09c.14.43.21.89.21 1.4v5.86zm-4.16-.98c.28 0 .54-.03.78-.08s.45-.14.66-.24c.21-.1.41-.23.6-.38s.37-.32.55-.51v-1.88c-.74 0-1.37.05-1.88.14s-.94.22-1.26.37c-.32.15-.56.33-.71.53s-.22.43-.22.69c0 .24.04.45.12.62s.18.32.31.43c.13.11.29.19.47.25.18.03.37.06.58.06zM709.48 265.69c-.07.13-.18.2-.33.2-.09 0-.19-.03-.31-.1-.11-.07-.25-.14-.42-.22-.16-.08-.36-.16-.59-.23-.23-.07-.5-.1-.81-.1-.27 0-.51.04-.73.1-.21.07-.4.16-.55.28s-.27.26-.35.42c-.08.16-.12.33-.12.52 0 .23.07.43.2.58.13.16.31.29.54.41s.47.21.76.3.57.18.87.28c.3.1.59.21.87.33.28.12.54.27.76.45.22.18.4.4.54.66s.2.57.2.94c0 .42-.07.81-.22 1.17-.15.36-.37.67-.67.93-.29.26-.65.47-1.08.62-.43.15-.92.22-1.48.22-.63 0-1.21-.1-1.73-.31s-.96-.47-1.31-.8l.38-.61c.05-.08.11-.14.17-.18s.15-.06.26-.06c.11 0 .22.04.34.13.12.08.27.18.44.28.17.1.38.2.62.28.24.08.55.13.91.13.31 0 .58-.04.82-.12s.43-.19.59-.33a1.35 1.35 0 0 0 .46-1.06c0-.25-.07-.46-.2-.63s-.31-.31-.54-.42-.48-.22-.76-.31l-.87-.27c-.3-.1-.59-.21-.87-.33-.29-.12-.54-.28-.76-.46a2.3 2.3 0 0 1-.54-.69c-.13-.27-.2-.6-.2-1 0-.35.07-.68.22-1 .14-.32.35-.6.63-.85.28-.24.61-.44 1.02-.58.4-.14.86-.22 1.38-.22.6 0 1.14.09 1.62.28.48.19.89.45 1.24.78l-.4.59z"/></g></svg>