<svg xmlns="http://www.w3.org/2000/svg" xmlns:xlink="http://www.w3.org/1999/xlink" version="1.1" x="0px" y="0px" viewBox="0 0 367.43 331.45" xml:space="preserve"><path xmlns="http://www.w3.org/2000/svg" fill="#64d7be" d="M324.67,56.59c-1.35-1.35-2.72-2.71-5.42-2.71H61.74l-6.77-35.23c0-2.72-4.07-5.43-6.77-5.43H7.53   c-4.06,0-6.78,2.71-6.78,6.78c0,4.06,2.72,6.77,6.78,6.77h35.23l32.53,165.34c4.07,21.69,24.4,37.95,46.08,37.95h155.86   c4.06,0,6.77-2.72,6.77-6.78s-2.71-6.78-6.77-6.78H122.72c-10.84,0-21.68-5.42-27.11-14.91l197.88-27.1c2.71,0,5.42-2.71,5.42-5.42   l27.11-108.43C326.02,60.66,326.02,57.95,324.67,56.59"/><path xmlns="http://www.w3.org/2000/svg" fill="#64d7be" d="M115.95,243.62c-18.97,0-33.89,14.91-33.89,33.89c0,18.97,14.92,33.88,33.89,33.88   c18.98,0,33.89-14.91,33.89-33.88C149.84,258.53,134.93,243.62,115.95,243.62 M115.95,297.83c-10.84,0-20.33-9.49-20.33-20.33   c0-10.84,9.48-20.33,20.33-20.33c10.84,0,20.33,9.49,20.33,20.33C136.28,288.34,126.8,297.83,115.95,297.83"/><path xmlns="http://www.w3.org/2000/svg" fill="#64d7be" d="M251.48,243.62c-18.97,0-33.89,14.91-33.89,33.89c0,18.97,14.92,33.88,33.89,33.88   c18.98,0,33.89-14.91,33.89-33.88C285.37,258.53,270.46,243.62,251.48,243.62 M251.48,297.83c-10.84,0-20.33-9.49-20.33-20.33   c0-10.84,9.48-20.33,20.33-20.33c10.84,0,20.33,9.49,20.33,20.33C271.81,288.34,262.32,297.83,251.48,297.83"/></svg>