<svg xmlns="http://www.w3.org/2000/svg" height="253.4" width="1534.027" xml:space="preserve"><path style="fill:#959595;fill-opacity:1;fill-rule:nonzero;stroke:none" d="m-1.117 1900.5 443.047-443.05 125.461 125.44-140.223 140.22H1692.56V457.672l-144.84 144.84-125.43-125.403 447.67-447.66V1900.5H-1.117" transform="matrix(.13333 0 0 -.13333 0 253.4)"/><path style="fill:#ed1d24;fill-opacity:1;fill-rule:nonzero;stroke:none" d="M241.039 822.91 115.605 948.352l651 650.968 125.43-125.44-650.996-650.97" transform="matrix(.13333 0 0 -.13333 0 253.4)"/><path style="fill:#2758a2;fill-opacity:1;fill-rule:nonzero;stroke:none" d="M238.32 369.02 112.887 494.449 1159.02 1540.55l125.4-125.43-1046.1-1046.1" transform="matrix(.13333 0 0 -.13333 0 253.4)"/><path style="fill:#80d0f4;fill-opacity:1;fill-rule:nonzero;stroke:none" d="M860.488 540.012 735.055 665.449l422.125 422.121 125.43-125.433-422.122-422.125" transform="matrix(.13333 0 0 -.13333 0 253.4)"/><path style="fill:#f68d11;fill-opacity:1;fill-rule:nonzero;stroke:none" d="m927.031 155.379-125.429 125.43 673.428 673.437 125.44-125.426-673.439-673.441" transform="matrix(.13333 0 0 -.13333 0 253.4)"/><path style="fill:#211d1d;fill-opacity:1;fill-rule:nonzero;stroke:none" d="M2535.09 36.36h-271.48v1863.98h649.29c321.88 0 548.61-229.51 548.61-556.95 0-156.72-47.6-277.07-145.57-386.23-128.72-137.121-263.07-187.5-512.16-187.5h-268.69V36.36zm282.69 985.18c229.5 0 372.22 123.12 372.22 321.85 0 201.53-128.75 307.84-377.82 307.84h-277.09v-629.69h282.69m792.07-985.18v1399.37h243.51v-125.91c78.34 106.35 190.31 156.72 358.22 162.29v-268.66c-237.87-19.6-341.43-142.75-341.43-403.009V36.359h-260.3M4966.42-.012c-417.01 0-755.67 330.262-755.67 741.684 0 402.998 338.66 730.438 755.67 730.438 414.22 0 752.85-327.44 752.85-730.438 0-411.422-338.63-741.684-752.85-741.684m0 1234.242c-274.28 0-495.39-223.91-495.39-498.191 0-274.258 223.92-500.949 495.39-498.16 271.47 0 492.57 223.902 492.57 500.973 0 271.468-221.1 495.378-492.57 495.378M5922.45 36.36v1164.27h-123.16v240.7h123.16v55.99c0 125.94 44.75 226.7 137.15 305.04 92.36 75.6 167.91 97.98 338.65 97.98h30.76v-226.7l-28-2.78c-145.53-5.63-218.28-64.38-218.28-173.54v-55.99h246.28v-237.88h-246.28V36.36h-260.28m957.18 1556.11h-260.29v307.88h260.29v-307.88zm0-1556.13h-260.29v1399.38h260.29V36.34m657.7.02h-260.28v1164.27h-190.32v235.1h190.32v464.61h260.28v-464.61h229.51v-235.1h-229.51V36.36m962.8-36.372c-391.82 0-713.67 330.262-713.67 736.043 0 414.229 319.03 744.519 719.26 744.519 389.03 0 708.1-327.48 708.1-724.89 0-30.82-2.78-75.59-5.58-134.351h-1155.9c53.15-235.118 235.1-386.219 459-386.219 165.1 0 305.04 83.941 394.63 237.879h265.85C9062.7 181.898 8802.41-.011 8500.13-.011m453.4 822.831c-11.17 229.5-215.49 419.82-450.62 419.82-128.69 0-260.26-58.78-344.23-153.94-67.19-72.75-89.57-128.723-109.12-265.88h903.97m442.22-786.46v1399.37h243.51v-125.91c78.27 106.35 190.28 156.72 358.22 162.29v-268.66c-237.91-19.6-341.5-142.75-341.5-403.009V36.359h-260.23M10752.3-.012c-417 0-755.66 330.262-755.66 741.684 0 402.998 338.66 730.438 755.66 730.438 414.2 0 752.9-327.44 752.9-730.438 0-411.422-338.7-741.684-752.9-741.684m0 1234.242c-274.3 0-495.3-223.91-495.3-498.191 0-274.258 223.9-500.949 495.3-498.16 271.5 0 492.6 223.902 492.6 500.973 0 271.468-221.1 495.378-492.6 495.378" transform="matrix(.13333 0 0 -.13333 0 253.4)"/></svg>