<svg xmlns="http://www.w3.org/2000/svg" xmlns:xlink="http://www.w3.org/1999/xlink" width="66" height="66"><defs><path id="a" d="M0 0h66v66H0z"/></defs><g fill="none" fill-rule="evenodd"><g><mask id="b" fill="#fff"><use xlink:href="#a"/></mask><path fill="#7ADCC7" d="M63.406 32.982c-.007-16.797-13.596-30.4-30.39-30.423-16.8-.021-30.445 13.624-30.438 30.439.007 16.797 13.596 30.401 30.39 30.423 16.8.021 30.445-13.624 30.438-30.439M0 31.056c.167-1.25.29-2.506.507-3.746C1.841 19.665 5.47 13.29 11.267 8.165 16.19 3.815 21.932 1.139 28.45.311c10.23-1.3 19.26 1.475 26.9 8.437 5.356 4.879 8.681 10.951 10.058 18.074 3.314 17.136-7.595 34.157-24.526 38.214-1.765.423-3.595.574-5.394.853-.188.029-.375.074-.562.111h-3.866c-.87-.104-1.743-.192-2.611-.315-6.506-.92-12.257-3.52-17.18-7.87-5.8-5.123-9.427-11.5-10.76-19.145C.29 37.43.166 36.173 0 34.924v-3.868" mask="url(#b)"/></g><path fill="#7ADCC7" d="M32.764 9.565c-8.001.305-14.917 3.94-19.575 11.361-5.785 9.216-4.442 21.015 3.17 28.848 3.225 3.318 7.135 5.505 11.661 6.588.249.06.5.124.734.222.633.263.934.874.76 1.5-.164.59-.73 1.002-1.38.889a16.217 16.217 0 0 1-2.302-.56c-9.181-3.034-15.292-9.118-17.84-18.39-2.215-8.056-.694-15.592 4.302-22.334 4.282-5.78 10.089-9.23 17.21-10.353 6.197-.978 12.045.19 17.458 3.37 4.966 2.919 8.584 7.037 10.876 12.277 1.99 4.55 2.634 9.314 1.816 14.21-1.484 8.876-6.315 15.392-14.32 19.58-1.975 1.033-4.088 1.725-6.273 2.189-.748.159-1.384-.187-1.573-.844-.2-.702.147-1.358.902-1.593.978-.305 1.996-.497 2.951-.856 8.747-3.283 14.21-9.47 15.692-18.626 1.49-9.213-1.752-16.845-9.14-22.633-4.189-3.283-9.059-4.764-15.129-4.845"/><path fill="#7ADCC7" d="M37.934 40.443c-.763-.806-1.46-1.534-2.146-2.273a2.68 2.68 0 0 1-.367-.528c-.483-.875-.26-1.522.677-1.808.461-.14.96-.21 1.443-.21 2.807-.005 5.614 0 8.42.043 1.583.025 2.015.451 2.03 2.072.026 3.057-.01 6.114-.023 9.172 0 .13-.02.26-.042.387-.097.56-.162 1.175-.796 1.368-.632.193-1.167-.11-1.607-.56a29.259 29.259 0 0 1-1.447-1.56c-.387-.458-.735-.456-1.197-.101-1.799 1.381-3.777 2.4-5.962 2.996-6.014 1.642-13.898-.34-17.904-5.879-1.559-2.155-2.639-4.544-2.974-7.23-.066-.53-.039-1.081.014-1.616.106-1.092.64-1.59 1.692-1.624 1.254-.04 2.508-.08 3.762-.092 1.722-.016 2.264.502 2.336 2.238.062 1.49.613 2.777 1.52 3.916 1.293 1.625 3.02 2.513 4.998 2.882 2.35.44 4.613.126 6.732-1.05.292-.161.563-.362.841-.543M27.023 26.039c.646.638 1.25 1.21 1.821 1.809.271.284.51.606.713.94.5.825.25 1.5-.712 1.758-.561.15-1.17.188-1.757.18-2.652-.036-5.304-.107-7.955-.165-1.58-.035-2.067-.46-2.089-1.991-.042-2.856-.033-5.712-.044-8.567 0-.123.003-.248.027-.369.107-.551.224-1.105.847-1.35.606-.237 1.084.048 1.495.423.508.465.989.96 1.455 1.464.688.745.702.78 1.511.123 1.987-1.615 4.294-2.581 6.815-2.992 5.872-.958 11.113.328 15.518 4.343 1.56 1.422 2.402 3.271 3.153 5.147.465 1.16.759 2.386 1.102 3.59.083.291.078.611.076.917-.009 1.221-.484 1.687-1.728 1.694-1.317.008-2.633.011-3.949-.001-1.361-.013-1.878-.424-2.127-1.717-.23-1.19-.406-2.385-1.141-3.424-1.297-1.835-3.122-2.862-5.33-3.284-2.744-.525-5.306-.08-7.701 1.472M32.538 60c-.793.02-1.514-.664-1.537-1.46-.024-.787.669-1.515 1.464-1.54.785-.023 1.511.67 1.534 1.467.024.791-.663 1.511-1.461 1.533"/></g></svg>