<svg version="1.1" id="Calque_1" xmlns="http://www.w3.org/2000/svg" xmlns:xlink="http://www.w3.org/1999/xlink" x="0" y="0" viewBox="0 0 50.58 53" style="enable-background:new 0 0 50.58 53" xml:space="preserve"><style>.st0{clip-path:url(#SVGID_2_);fill:#0c195a}.st3{clip-path:url(#SVGID_6_)}.st4{opacity:.45;clip-path:url(#SVGID_10_)}.st5{clip-path:url(#SVGID_12_);fill:#1d1d1b}.st7{clip-path:url(#SVGID_14_)}.st8{clip-path:url(#SVGID_16_)}.st9{opacity:.45;clip-path:url(#SVGID_20_)}.st10{clip-path:url(#SVGID_22_);fill:#1d1d1b}.st11{clip-path:url(#SVGID_24_)}.st12{clip-path:url(#SVGID_26_)}.st13{opacity:.45;clip-path:url(#SVGID_30_)}.st14{clip-path:url(#SVGID_32_);fill:#1d1d1b}.st15{clip-path:url(#SVGID_34_)}.st16{clip-path:url(#SVGID_36_)}.st17{opacity:.45;clip-path:url(#SVGID_40_)}.st18{clip-path:url(#SVGID_42_);fill:#1d1d1b}.st19{clip-path:url(#SVGID_44_)}.st20{clip-path:url(#SVGID_46_)}.st21{opacity:.45;clip-path:url(#SVGID_50_)}.st22{clip-path:url(#SVGID_52_);fill:#1d1d1b}.st23{clip-path:url(#SVGID_54_)}.st24{clip-path:url(#SVGID_56_)}.st25{opacity:.45;clip-path:url(#SVGID_60_)}.st26{clip-path:url(#SVGID_62_);fill:#1d1d1b}.st27{clip-path:url(#SVGID_64_)}.st28{clip-path:url(#SVGID_66_)}.st29{opacity:.45;clip-path:url(#SVGID_70_)}.st30{clip-path:url(#SVGID_72_);fill:#1d1d1b}</style><defs><path id="SVGID_1_" d="M-123.67-677.49h1600.13v596.92H-123.67z"/></defs><clipPath id="SVGID_2_"><use xlink:href="#SVGID_1_" style="overflow:visible"/></clipPath><g style="clip-path:url(#SVGID_2_)"><defs><path id="SVGID_3_" d="M-123.67-677.49h1600v596.92h-1600z"/></defs><clipPath id="SVGID_4_"><use xlink:href="#SVGID_3_" style="overflow:visible"/></clipPath><g style="opacity:.8;clip-path:url(#SVGID_4_)"><defs><path id="SVGID_5_" d="M-125.33-829.15h1603.3V374.16h-1603.3z"/></defs><clipPath id="SVGID_6_"><use xlink:href="#SVGID_5_" style="overflow:visible"/></clipPath></g></g><path d="M18.86 26.66h7.41m-7.41 2.09h7.41m2.89 2.73c-.65 1.55-1.96 2.44-3.72 2.44-2.56 0-4.2-1.86-4.61-4.75v-.05c-.07-1.03-.07-2.06.02-3.08v0c.45-2.8 2.08-4.61 4.59-4.61 1.74 0 3.03.88 3.7 2.39m-15.1-6.39-1.22-1.45 2.61-2.2 1.22 1.45m19.9 2.2 1.22-1.45-2.61-2.2-1.22 1.45M30.74 1h-10.9c-1.01 0-1.82.82-1.82 1.82v2.59c0 1.25 1.02 2.27 2.27 2.27H30.3c1.25 0 2.27-1.02 2.27-2.27V2.82c0-1-.82-1.82-1.83-1.82zm-8.48 11.68V7.72h6.07v4.96m8.39 15c0 6.31-5.12 11.43-11.43 11.43s-11.43-5.12-11.43-11.43 5.12-11.43 11.43-11.43c6.31.01 11.43 5.12 11.43 11.43zm3.75 0c0 8.39-6.8 15.18-15.18 15.18-8.39 0-15.18-6.8-15.18-15.18s6.8-15.18 15.18-15.18c8.39 0 15.18 6.8 15.18 15.18zM19.06 7.32c-1.39.46-2.88 1.12-4.1 1.81l-3.43-2.01-6.84 6.84 2.04 3.43a20.94 20.94 0 0 0-1.87 4.51L1 22.87v9.67l3.87.98c.45 1.58 1.07 3.09 1.87 4.51L4.7 41.46l6.84 6.84 3.43-2.04c1.42.79 2.94 1.42 4.51 1.87l.98 3.87h9.67l.98-3.87a20.94 20.94 0 0 0 4.51-1.87l3.43 2.04 6.84-6.84-2.04-3.43c.79-1.42 1.42-2.94 1.87-4.51l3.87-.98v-9.67l-3.87-.98c-.45-1.58-1.07-3.09-1.87-4.51l2.04-3.43-6.84-6.84-3.43 2.01a24.01 24.01 0 0 0-4.1-1.8" style="fill:none;stroke:#64d7be;stroke-width:2;stroke-linecap:round;stroke-linejoin:round;stroke-miterlimit:10"/></svg>