<svg xmlns="http://www.w3.org/2000/svg" width="61.172" height="83.896" viewBox="0 0 16.185 22.197"><path d="M1.904.72c.211-.158.37-.343.608-.476.344-.211.715-.264 1.112-.238h.105c.265.106.53.238.82.344.318.265.662.503.953.794.741.688 1.27 1.482 1.402 2.514.027.158.08.238.239.264 1.11.344 2.196.688 3.307 1.032 1.005.291 1.693.926 2.09 1.879 1.138 2.83 2.275 5.688 3.413 8.52.291.74.318 1.48.027 2.222-.318.873-.953 1.481-1.826 1.825-2.143.847-4.26 1.694-6.403 2.54-.106.053-.212.08-.317.106-1.482.503-3.175-.291-3.757-1.72a.778.778 0 0 1 .37-1.005c.37-.185.794-.027 1.005.344.08.132.133.264.212.37.45.609 1.164.768 1.931.45 2.117-.847 4.234-1.693 6.377-2.54a1.47 1.47 0 0 0 .45-.238c.608-.45.793-1.138.476-1.879-1.138-2.804-2.249-5.635-3.387-8.44-.211-.529-.582-.847-1.11-1.005-.9-.265-1.8-.556-2.7-.847-.873-.265-1.746-.556-2.619-.82-.053-.027-.159 0-.159.053l-.317.555c.529.503 1.111.9 1.72 1.244.396.212.555.661.343 1.058-.185.37-.635.503-1.031.291-.212-.106-.424-.238-.635-.37-.397-.265-.768-.556-1.165-.82-.026.026-.053.08-.079.132a81.816 81.816 0 0 1-1.455 2.593c-.397.635-.424 1.27-.132 1.958.635 1.481 1.217 2.963 1.825 4.471.185.45 0 .9-.397 1.059-.423.158-.82-.027-1.032-.477-.661-1.587-1.296-3.175-1.931-4.762-.344-.873-.318-1.746.106-2.567A138.992 138.992 0 0 1 2.22 5.748c.08-.133.08-.238-.026-.37-.556-.82-.873-1.72-.82-2.7.026-.317.079-.608.132-.925.106-.37.238-.715.397-1.032zm1.56 2.726c.239-.397.583-.53 1.033-.37.238.079.45.158.714.238-.159-.424-.423-.741-.714-1.006a12.613 12.613 0 0 0-.926-.74.279.279 0 0 0-.45.105c-.344.767-.37 1.535.026 2.328a5.19 5.19 0 0 1 .318-.555z" class="st1"/><path d="M10 16.596c.053.158.106.29.159.45.132.396-.053.82-.45.952a.74.74 0 0 1-.979-.423c-.053-.133-.106-.239-.132-.344-.291.026-.582.079-.873.053-.741-.053-1.244-.477-1.535-1.138a.77.77 0 0 1 .344-.98.765.765 0 0 1 1.005.292c.186.317.291.37.662.212.291-.106.582-.239.9-.344.396-.16.529-.477.396-.82-.158-.371-.476-.503-.873-.345-.238.08-.476.186-.714.265-1.032.344-2.17-.159-2.646-1.164-.317-.714-.397-1.402 0-2.09.132-.212.291-.424.476-.582.106-.106.133-.186.08-.318-.053-.08-.08-.185-.106-.29a.786.786 0 0 1 .423-.98c.37-.159.794 0 .98.37.078.16.131.292.184.397.344.053.688.053 1.006.133.582.158.952.529 1.164 1.084a.73.73 0 0 1-.397.953c-.37.159-.794.026-.979-.344-.159-.291-.291-.344-.608-.212-.186.08-.37.133-.556.212-.344.159-.476.476-.318.847.16.397.477.582.847.45.265-.08.53-.212.794-.292.846-.264 1.614-.105 2.222.53.609.635.794 1.428.503 2.275-.185.556-.503.926-.979 1.19z" class="st1"/></svg>