<svg viewBox="0 0 367.43 331.45" xmlns="http://www.w3.org/2000/svg"><path d="M7.53 13.22C3.47 13.22.75 15.93.75 20c0 4.06 2.72 6.77 6.78 6.77h35.23l32.53 165.34c4.07 21.69 24.4 37.95 46.08 37.95h155.86c4.06 0 6.77-2.72 6.77-6.78 0-4.06-2.71-6.78-6.77-6.78H122.72c-10.84 0-21.68-5.42-27.11-14.91l197.88-27.1c2.71 0 5.42-2.71 5.42-5.42l27.11-108.43c0 .02 0-2.69-1.35-4.05-1.35-1.35-2.72-2.71-5.42-2.71H61.74l-6.77-35.23c0-2.72-4.07-5.43-6.77-5.43H7.53zm108.42 230.4c-18.97 0-33.89 14.91-33.89 33.89 0 18.97 14.92 33.88 33.89 33.88 18.98 0 33.89-14.91 33.89-33.88 0-18.98-14.91-33.89-33.89-33.89zm135.53 0c-18.97 0-33.89 14.91-33.89 33.89 0 18.97 14.92 33.88 33.89 33.88 18.98 0 33.89-14.91 33.89-33.88 0-18.98-14.91-33.89-33.89-33.89zm-135.53 13.55c10.84 0 20.33 9.49 20.33 20.33 0 10.84-9.48 20.33-20.33 20.33-10.84 0-20.33-9.49-20.33-20.33 0-10.84 9.48-20.33 20.33-20.33zm135.53 0c10.84 0 20.33 9.49 20.33 20.33 0 10.84-9.49 20.33-20.33 20.33-10.84 0-20.33-9.49-20.33-20.33 0-10.84 9.48-20.33 20.33-20.33z" fill="#64d7be"/></svg>