<svg viewBox="0 0 359 140" xmlns="http://www.w3.org/2000/svg"><path d="M333.771 33.273h23.015v67.239a8.297 8.297 0 0 1-8.298 8.296h-14.717V33.273Zm-16.957 0v22.671c-12.49-4.117-25.062 1.958-25.062 18.191v26.367a8.307 8.307 0 0 1-8.308 8.306h-14.706V33.273h23.014v8.892c5.585-11.36 18.088-13.132 25.062-8.892Zm-152.794 0v42.475c0 19.837-15.71 35.147-35.281 35.147-19.572 0-35.282-15.31-35.282-35.147V33.273h22.913l.039 44.404c0 6.81 5.52 12.33 12.33 12.33 6.809 0 12.33-5.52 12.33-12.33l-.042-44.404h22.993Zm192.293-13.924-5.157 5.157a8.315 8.315 0 0 1-11.757 0l-5.157-5.157a8.316 8.316 0 0 1 0-11.757l5.157-5.157a8.313 8.313 0 0 1 11.757 0l5.157 5.157a8.313 8.313 0 0 1 0 11.757ZM216.36 90.01c10.272 0 18.602-8.37 18.602-18.694 0-10.325-8.33-18.694-18.602-18.694-10.271 0-18.6 8.37-18.6 18.694s8.329 18.693 18.6 18.693Zm0-58.824c22.08 0 39.808 17.36 39.808 39.855 0 22.493-17.727 39.855-39.808 39.855s-39.806-17.362-39.806-39.855c0-22.495 17.725-39.855 39.806-39.855ZM42.687 89.941c9.028-.716 16.343-8.066 17.055-17.14.906-11.534-8.6-21.088-20.076-20.178-9.029.715-16.343 8.067-17.055 17.14-.904 11.533 8.6 21.086 20.076 20.178Zm2.287-58.864c19.704 0 35.949 17.384 35.949 39.91 0 22.522-16.245 39.908-35.949 39.908-10.077 0-17.447-3.477-22.411-9.222v29.176c0 4.508-3.637 8.163-8.122 8.163H0V33.285h22.563v7.012c4.964-5.744 12.334-9.22 22.411-9.22Z"/></svg>