<svg xmlns="http://www.w3.org/2000/svg" xml:space="preserve" version="1.0" viewBox="0 0 585.828 158.427"><path fill="#222e3e" clip-rule="evenodd" fill-rule="evenodd" d="M242.514 131.122c-22.5 16.1-55.1 24.7-83.2 24.7-39.4 0-74.8-14.1-101.7-37.6-2.1-1.8-.2-4.4 2.3-2.9 29 16.3 64.8 26.2 101.7 26.2 24.9 0 52.4-5 77.6-15.4 3.9-1.7 7.1 2.3 3.3 5"/><path fill="#222e3e" clip-rule="evenodd" fill-rule="evenodd" d="M246.914 120.122c-2.6-3.4-17.5-1.6-24.1-.8-2 .2-2.3-1.5-.5-2.8 11.8-8.4 31.2-6 33.4-3.2 2.3 2.9-.6 22.6-11.7 32-1.7 1.4-3.3.7-2.6-1.2 2.6-6.4 8.2-20.6 5.5-24m-23.6-72.7v-9.1c0-1.4 1-2.3 2.2-2.3h39.2c1.3 0 2.3 1 2.3 2.3v7.8c0 1.3-1.1 3-3 5.7l-20.3 30.2c7.5-.2 15.5 1 22.4 5 1.5.9 2 2.2 2.1 3.6v9.7c0 1.3-1.4 2.9-2.9 2.1-12.1-6.6-28.1-7.3-41.5.1-1.4.8-2.8-.8-2.8-2.1v-9.3c0-1.5 0-4 1.5-6.3l23.6-35.2h-20.5c-1.2.1-2.2-.8-2.3-2.2m-141.7 59.3h-11.6c-1.1-.1-2-1-2.1-2.1v-64.9c0-1.3 1-2.3 2.3-2.3h10.9c1.1.1 2 1 2.1 2.2v8.5h.2c2.8-8.2 8.2-12 15.4-12 7.3 0 11.9 3.8 15.1 12 2.8-8.2 9.3-12 16.1-12 4.9 0 10.2 2.2 13.5 7.1 3.7 5.5 2.9 13.4 2.9 20.3v40.9c0 1.3-1 2.3-2.2 2.3h-11.7c-1.2-.1-2.1-1.1-2.1-2.3v-34.4c0-2.7.2-9.6-.3-12.2-.9-4.4-3.5-5.6-6.9-5.6-2.8 0-5.8 2-7 5.3-1.2 3.3-1.1 8.7-1.1 12.4v34.4c0 1.3-1 2.3-2.2 2.3h-11.7c-1.2-.1-2.1-1.1-2.1-2.3v-34.4c0-7.2 1.1-17.9-7.2-17.9-8.4 0-8.1 10.4-8.1 17.9v34.4c.1 1.4-.9 2.4-2.2 2.4m221.9-57.7c-8.9 0-9.5 12.5-9.5 20.2 0 7.8-.1 24.4 9.4 24.4 9.4 0 9.8-13.4 9.8-21.6 0-5.4-.2-11.8-1.8-16.9-1.3-4.4-4.1-6.1-7.9-6.1m-.1-13c18 0 27.7 15.8 27.7 35.9 0 19.4-10.8 34.8-27.7 34.8-17.7 0-27.3-15.8-27.3-35.5 0-19.8 9.7-35.2 27.3-35.2m53 70.7h-11.4c-1.2-.1-2.1-1.1-2.1-2.3v-64.9c.1-1.2 1-2.1 2.2-2.1h10.6c1 .1 1.8.8 2 1.8v9.9h.2c3.2-8.9 7.7-13.1 15.6-13.1 5.1 0 10.2 2.1 13.4 7.6 3 5.2 3 13.9 3 20.2v40.8c-.1 1.2-1.1 2-2.2 2h-11.5c-1.1-.1-1.9-.9-2-2v-35.2c0-7.1.8-17.5-7.2-17.5-2.8 0-5.4 2-6.6 5.2-1.6 4-1.8 7.9-1.8 12.3v34.9c0 1.4-1 2.4-2.2 2.4m-149.4-1c-.8.7-2 .8-2.9.3-4.1-3.4-4.8-5-7.1-8.2-6.8 6.9-11.6 9-20.3 9-10.4 0-18.5-6.4-18.5-19.3 0-10 5.4-16.9 13.1-20.2 6.7-2.9 16-3.5 23.2-4.3v-1.6c0-2.9.2-6.4-1.5-9-1.5-2.3-4.4-3.2-6.9-3.2-4.7 0-8.9 2.4-9.9 7.4-.2 1.1-1 2.2-2.1 2.3l-11.9-1.3c-1-.2-2.1-1-1.8-2.6 2.7-14.6 15.8-18.9 27.6-18.9 6 0 13.8 1.6 18.6 6.2 6 5.6 5.4 13.1 5.4 21.3v19.3c0 5.8 2.4 8.3 4.7 11.5.8 1.1 1 2.5 0 3.3-2.7 1.9-7.2 5.8-9.7 8zm-12.4-30.2c0 4.8.1 8.8-2.3 13.1-2 3.5-5.1 5.6-8.5 5.6-4.7 0-7.5-3.6-7.5-9 0-10.5 9.4-12.5 18.3-12.5zm-144.8 30.2c-.8.7-2 .8-2.9.3-4.1-3.4-4.8-5-7.1-8.2-6.8 6.9-11.6 9-20.3 9-10.4 0-18.5-6.4-18.5-19.3 0-10 5.4-16.9 13.1-20.2 6.7-2.9 16-3.5 23.2-4.3v-1.6c0-2.9.2-6.4-1.5-9-1.5-2.3-4.4-3.2-6.9-3.2-4.7 0-8.9 2.4-9.9 7.4-.2 1.1-1 2.2-2.1 2.3l-11.9-1.3c-1-.2-2.1-1-1.8-2.6 2.7-14.6 15.8-19 27.5-19 6 0 13.8 1.6 18.6 6.2 6 5.6 5.4 13.1 5.4 21.3v19.3c0 5.8 2.4 8.3 4.7 11.5.8 1.1 1 2.5 0 3.3-2.6 2-7.1 5.9-9.6 8.1zm-12.4-30.2c0 4.8.1 8.8-2.3 13.1-2 3.5-5.1 5.6-8.5 5.6-4.7 0-7.5-3.6-7.5-9 0-10.5 9.4-12.5 18.3-12.5zm450.8-21.5c-3.4 4.1-5 9.7-5 16.9 0 7.2 1.6 12.9 4.8 17.1 3.7 4.7 9.1 7.1 16.4 7.1 6.8 0 12-2.3 15.8-7 3.3-4.2 5-9.7 5-16.4v-1.2c0-7-2-12.7-5.6-17-3.8-4.4-8.7-6.5-14.7-6.5-7.4 0-13 2.3-16.7 7m47.2-35.2v80.2c0 1.2-1.1 2.1-2.4 2.1h-4.9c-1.4 0-2.5-1-2.5-2.2v-7.7c-4.7 7.7-12.3 11.5-22.4 11.5-9.9 0-17.6-3.3-23.1-9.6-5.1-5.8-7.6-13.3-7.6-22.4 0-8.9 2.5-16.1 7.6-21.9 5.5-6.5 12.9-9.7 22.6-9.7 9.7 0 17.1 4.2 22.3 12.7v-33.4c0-1.2 1.1-2.2 2.5-2.2h5.2c1.5.1 2.7 1.2 2.7 2.6m-80.4 57.3c0 4.9-2.3 9.3-6.8 13.1-4.6 3.9-9.8 5.9-15.7 5.9-3.9 0-7-1-9.4-2.8-2.4-2-3.5-4.3-3.5-7.2 0-9.2 7-13.8 21-14.1l14.4-.2zm4.1-33c-4.4-4.8-10.9-7.1-19.8-7.1-2.7 0-5.1.2-7.4.6-6.4.8-12.3 3.7-16.7 6.4-.8.5-1.1 1.5-.7 2.3l1.8 3.7c.4.9 1.6 1.3 2.5.8 4.2-2.3 9.9-4.3 14.9-5.4 1.5-.3 3.2-.4 5-.4 10.9 0 16.3 5.3 16.3 15.9v3.3l-15 .2c-9.4.1-16.7 1.4-21.8 4.9-5.8 3.7-8.6 9.6-8.6 16.8 0 5.1 1.9 9.4 5.8 12.7 3.7 3.2 8.7 4.8 15 4.8 5.8 0 11-1.3 15.6-3.9 3.9-2.2 7.1-5 9.5-8.5v8.3c0 1.3 1.1 2.4 2.4 2.4h4.3c1.3 0 2.4-1.1 2.4-2.4v-38.3c.1-7.2-1.8-12.9-5.5-17.1zm84.2 47.9c0-1.4 1.6-2.3 2.8-1.5 4.9 2.9 10.1 4.3 15.7 4.3 8.8 0 14.8-2.9 14.8-8.6 0-2.4-1-4.5-2.9-6-1.9-1.6-7.4-3.5-13.3-5.6-7.1-2.8-11.7-5.6-13.8-8.4-2.1-2.8-3.2-6.1-3.2-10 0-5.6 2.4-10.6 7.2-14 4.8-3.4 10.7-5.1 17.7-5.1 5 0 9.7 1.3 14 2.9.7.3 1.2.9 1.2 1.7v6.5c0 1.4-1.4 2.2-2.7 1.6-4.1-2-8.6-3.6-13.6-3.6-3.6 0-7.6.8-9.9 2.3-2.3 1.5-3.9 4.2-3.9 6.7s.8 4.5 2.5 5.9c1.6 1.4 6.8 3.2 12.4 5.4 7.1 2.6 12 5.4 14.5 8.2 2.5 2.8 3.8 6.3 3.8 10.5 0 5.8-2.4 10.4-7.2 13.7-4.8 3.3-11 5-18.7 5-6.2 0-11.6-1.1-16.3-3.2-.7-.3-1.1-.9-1.1-1.7z"/></svg>