<svg width="218px" height="218px" viewBox="0 0 218 218" version="1.1" xmlns="http://www.w3.org/2000/svg" xmlns:xlink="http://www.w3.org/1999/xlink"><defs><circle id="b" cx="79" cy="79" r="79"/><filter x="-29.1%" y="-27.8%" width="158.2%" height="158.2%" filterUnits="objectBoundingBox" id="a"><feOffset dx="0" dy="2" in="SourceAlpha" result="shadowOffsetOuter1"/><feGaussianBlur stdDeviation="15" in="shadowOffsetOuter1" result="shadowBlurOuter1"/><feColorMatrix values="0 0 0 0 0.415686275   0 0 0 0 0.839215686   0 0 0 0 0.745098039  0 0 0 1 0" type="matrix" in="shadowBlurOuter1"/></filter></defs><g stroke="none" stroke-width="1" fill="none" fill-rule="evenodd"><g transform="translate(-442.000000, -3339.000000)"><g transform="translate(472.000000, 2953.000000)"><g transform="translate(0.000000, 414.000000)"><g><use fill="black" fill-opacity="1" filter="url(#a)" xlink:href="#b"/><use fill="#6AD6BE" fill-rule="evenodd" xlink:href="#b"/></g><g transform="translate(46.000000, 47.000000)" fill="#3E4152"><path d="M35.3064389,46.139807 C35.3064389,44.1783204 35.3117813,42.2299596 35.3045309,40.2815989 C35.2999518,39.0350253 34.5283622,38.1796785 33.4208398,38.1682242 C32.289404,38.1568675 31.504077,39.0236835 31.499625,40.3078506 C31.4935194,42.0879965 31.4871595,43.8683973 31.5068753,45.6484158 C31.5109457,46.0206548 31.389089,46.1961334 31.0518842,46.3536437 C27.9519156,47.8020751 26.8123391,51.3271947 28.4546063,54.3304662 C29.8418394,56.8673239 33.1833591,57.9622494 35.7526533,56.72192 C38.5346243,55.3788777 39.8232781,52.2247227 38.7200805,49.4696955 C38.0768348,47.8633715 36.9104193,46.7921491 35.3064389,46.139807 M16.3013707,49.6122958 C16.0713947,45.9444484 16.6762263,42.5416668 18.5895548,39.3373022 C19.2836802,40.0457159 19.9150964,40.700097 20.5579605,41.3431363 C21.0695552,41.8547897 21.680238,42.0985737 22.4045095,41.9208012 C23.872514,41.5604137 24.3655376,39.8484458 23.299991,38.7159269 C22.4930401,37.8582862 21.6237616,37.0596482 20.7585535,36.2116927 C23.7254719,33.062635 27.2454519,31.2657951 31.4984802,30.7417805 C31.4984802,31.3227587 31.4899579,31.8282952 31.5001338,32.3333219 C31.52392,33.5117176 32.3362133,34.3558501 33.4236382,34.3431065 C34.4865137,34.3306179 35.2779463,33.4991015 35.3037677,32.3540939 C35.3154701,31.832628 35.3058029,31.3107798 35.3058029,30.735791 C39.5784199,31.2818519 43.1084486,33.067605 46.0609935,36.2392187 C45.1602969,37.1118968 44.263289,37.9216217 43.437767,38.7987599 C42.6993764,39.5832526 42.7651383,40.7077431 43.5031473,41.4294101 C44.2250021,42.1352751 45.2899128,42.1649676 46.0883413,41.4824232 C46.3933647,41.2216903 46.6669699,40.9241285 46.9529135,40.6413492 C47.3790304,40.2196653 47.8033665,39.7961973 48.2427121,39.3594759 C50.1261488,42.5911117 50.7491699,45.9833162 50.4962981,49.6119135 C49.8670443,49.6119135 49.2773494,49.5989151 48.6882905,49.6145896 C47.5564731,49.6447918 46.7295519,50.464839 46.7370566,51.5308366 C46.7444342,52.596197 47.5735178,53.4049025 48.7136031,53.4212142 C49.9190687,53.438418 51.1252975,53.4367613 52.3308904,53.4223611 C53.5648486,53.4077061 54.3342758,52.6253798 54.3461053,51.3771494 C54.358062,50.1268802 54.4089417,48.8725329 54.331223,47.6268513 C54.2418021,46.1937122 54.1438588,44.7442613 53.8506649,43.3436181 C52.8811536,38.7117215 50.540309,34.8553971 46.9675414,31.7727333 C43.7061571,28.9587035 39.9099007,27.2894265 35.6286342,26.8557636 C29.8681696,26.2722366 24.6892593,27.8157349 20.194044,31.4751715 C16.805079,34.2340218 14.520202,37.7600335 13.2737783,41.9636195 C12.3295795,45.1478494 12.4184917,48.4132555 12.4789112,51.6738192 C12.4976095,52.6824709 13.3389042,53.4013343 14.3895685,53.4190478 C15.6372643,53.4402021 16.8859776,53.4410941 18.1336733,53.4190478 C19.2588764,53.3992953 20.0849072,52.5531239 20.0676081,51.4880183 C20.0506906,50.4477626 19.2357261,49.6479777 18.1369805,49.6153542 C17.5461408,49.5978956 16.9544107,49.6122958 16.3013707,49.6122958 M60.8237182,65 L5.98081927,65 C5.90666221,64.9667393 5.83530353,64.9152554 5.75771209,64.9030216 C4.3249417,64.6765688 3.18256681,63.9652241 2.25146957,62.8621427 C1.49387188,61.9646148 1.15781192,60.8963234 0.902777778,59.785341 L0.902777778,18.9583333 L65.9017597,18.9583333 L65.9017597,19.7897223 L65.9017597,36.5100191 C65.9017597,43.9484268 65.9002333,51.3867071 65.9027778,58.8249874 C65.9027778,60.8529953 65.2288766,62.6052329 63.5598976,63.7856675 C62.760833,64.3507163 61.7426044,64.6049501 60.8237182,65"/><path d="M34.5420898,11.5077113 C35.2014341,11.5077113 35.8614178,11.5269326 36.5198666,11.5033545 C37.6131885,11.4642713 38.4257615,10.6276338 38.419151,9.58045956 C38.4124595,8.53366969 37.5964331,7.70279866 36.496844,7.68178342 C35.2212591,7.65730834 33.9442674,7.65512993 32.6686826,7.68293669 C31.5753607,7.7068992 30.7629156,8.55660707 30.7695261,9.60365321 C30.7762176,10.6505712 31.5923719,11.4687562 32.6918332,11.5045078 C33.3079459,11.524626 33.9253376,11.5082239 34.5420898,11.5077113 L34.5420898,11.5077113 Z M23.0574778,11.5088646 C23.6955899,11.5088646 24.3339579,11.5227039 24.9715585,11.5059173 C26.1083676,11.4759322 26.9394867,10.6478802 26.9301497,9.57623088 C26.9210685,8.52944102 26.1044026,7.70254238 25.0036623,7.68139899 C23.7491816,7.65743649 22.4938056,7.6596149 21.239197,7.67998943 C20.10226,7.69844184 19.2713967,8.53623253 19.28053,9.60801003 C19.2899428,10.6790187 20.1238757,11.4815704 21.2709172,11.5071987 C21.8661816,11.5205255 22.4619576,11.5095053 23.0574778,11.5088646 L23.0574778,11.5088646 Z M11.5809236,11.5086083 C12.2190358,11.5086083 12.8574038,11.5234727 13.4950043,11.5054048 C14.6268253,11.4734975 15.4575606,10.6348098 15.4413168,9.56380113 C15.4254567,8.51790826 14.6066165,7.70049211 13.5024228,7.68088642 C12.2479421,7.65846162 10.9924382,7.6587179 9.73795748,7.680502 C8.60626446,7.70023583 7.77552914,8.54943113 7.79177293,9.62031164 C7.807633,10.6663327 8.62660117,11.4724723 9.73066696,11.5052766 C10.3469076,11.5234727 10.9641714,11.5084802 11.5809236,11.5086083 L11.5809236,11.5086083 Z M0,15.3472222 C0,11.9367298 0,8.52636562 0,5.11587324 C0.189297656,4.51027538 0.302620443,3.86687571 0.581194967,3.3056149 C1.70764393,1.03571214 3.60535293,0.000839459145 6.1007565,0.000711317406 C19.2041193,-0.000313816503 32.3073543,7.06087131e-05 45.4105892,7.06087131e-05 L46.0416667,7.06087131e-05 L46.0416667,15.3472222 L0,15.3472222 Z"/><path d="M49.6527778,15.3472222 L49.6527778,0.0385612935 C49.794699,0.026358142 49.9151093,0.00696155373 50.0355196,0.00696155373 C53.06016,0.00516319456 56.0849276,-0.00935213307 59.1093134,0.00978754672 C61.9105711,0.02751423 64.0250063,1.63884405 64.7799254,4.32289512 C64.9167553,4.80909437 64.9852339,5.33087544 64.9882887,5.83685664 C65.0069994,8.91050937 64.9979622,11.9842906 64.9968167,15.0580718 C64.9968167,15.1407963 64.9826882,15.2235208 64.97136,15.3472222 L49.6527778,15.3472222 Z"/><path d="M33.3755164,53.2636739 C32.3912679,53.2483196 31.5820829,52.4144717 31.5974372,51.4310704 C31.6126706,50.4468227 32.4466402,49.6376384 33.4300424,49.6529927 C34.414291,49.6682262 35.2233551,50.502195 35.2081217,51.4855963 C35.1928883,52.4698439 34.3587978,53.2790282 33.3755164,53.2636739"/></g></g></g></g></g></svg>