<svg width="218px" height="218px" viewBox="0 0 218 218" version="1.1" xmlns="http://www.w3.org/2000/svg" xmlns:xlink="http://www.w3.org/1999/xlink"><defs><circle id="b" cx="79" cy="79" r="79"/><filter x="-29.1%" y="-27.8%" width="158.2%" height="158.2%" filterUnits="objectBoundingBox" id="a"><feOffset dx="0" dy="2" in="SourceAlpha" result="shadowOffsetOuter1"/><feGaussianBlur stdDeviation="15" in="shadowOffsetOuter1" result="shadowBlurOuter1"/><feColorMatrix values="0 0 0 0 0.756862745   0 0 0 0 0.82745098   0 0 0 0 0.419607843  0 0 0 0.5 0" type="matrix" in="shadowBlurOuter1"/></filter><polygon id="c" points="0 0 26.9433962 0 26.9433962 27.5849057 0 27.5849057"/><polygon id="e" points="0 0 47.4716981 0 47.4716981 59.6603774 0 59.6603774"/></defs><g stroke="none" stroke-width="1" fill="none" fill-rule="evenodd"><g transform="translate(-954.000000, -3181.000000)"><g transform="translate(470.000000, 2953.000000)"><g transform="translate(514.000000, 256.000000)"><g><use fill="black" fill-opacity="1" filter="url(#a)" xlink:href="#b"/><use fill="#C1D36B" fill-rule="evenodd" xlink:href="#b"/></g><g transform="translate(46.000000, 45.000000)"><g transform="translate(39.132075, 0.000000)"><mask id="d" fill="white"><use xlink:href="#c"/></mask><g/><path d="M2.33461826,0 C3.71515061,0.25433172 5.11238616,0.438910015 6.47343146,0.773994738 C17.1180067,3.39444313 25.1450851,12.3680872 26.689733,23.349825 C26.8197793,24.2747286 26.9002463,25.2100952 26.941474,26.1435838 C26.9804482,27.0266353 26.4432946,27.5767484 25.5671722,27.5784922 C20.675257,27.5881504 15.7832093,27.5888211 10.8914266,27.5669561 C10.6704407,27.565883 10.3611665,27.3715124 10.2435813,27.1749955 C7.8714624,23.2105864 4.63263327,20.2244691 0.479768185,18.2665441 C0.130724428,18.1019529 0,17.9091919 0.000810686051,17.5150851 C0.0135369301,12.23019 0.0177790115,6.94516076 0,1.6603998 C-0.00250344001,0.912830883 0.306107979,0.401484619 0.879319223,0 L2.33461826,0 Z" fill="#3E4152" mask="url(#d)"/></g><path d="M32.1618528,48.5577864 C32.5506863,48.5083115 32.8348134,48.4722333 33.1189405,48.436155 C36.1002181,48.057997 38.3258584,45.6569389 38.3975205,42.7416335 C38.472633,39.6885147 36.4468506,37.0542746 33.4590702,36.6408342 C31.7245811,36.4008876 29.938734,36.5255696 28.1758454,36.4994394 C26.8385503,36.479676 25.937598,35.699352 25.9172937,34.5171273 C25.8963259,33.2948452 26.7855999,32.461465 28.153816,32.4452829 C29.2571475,32.4321515 30.3619388,32.4739332 31.4639432,32.4336105 C32.6471647,32.3903697 33.6541505,32.6803218 34.5302865,33.5387711 C35.2982657,34.2913732 36.564695,34.1856587 37.2762734,33.4296079 C38.0027152,32.6580382 38.0369538,31.4297873 37.2498646,30.6843477 C36.6647565,30.1301758 36.0155506,29.578524 35.2928247,29.2506367 C34.3289689,28.8134536 33.2659806,28.5943315 32.1610566,28.2555677 C32.1610566,27.7877447 32.1755217,27.1947091 32.1580043,26.6024693 C32.1233676,25.4280704 31.2689956,24.575192 30.1515971,24.5783665 C29.0287576,24.5815588 28.202387,25.4308558 28.178765,26.6203758 C28.166954,27.2115544 28.1766417,27.803131 28.1766417,28.4116856 C27.8285495,28.4582424 27.5466784,28.4984324 27.2642765,28.5334495 C24.0243516,28.934687 21.7643401,31.5772835 21.9340732,34.7668894 C22.1052661,37.9836865 24.66878,40.4385967 27.9106955,40.4749402 C29.3229705,40.4907244 30.7356435,40.4738791 32.1480512,40.47945 C33.4956975,40.4847556 34.4318174,41.33392 34.4186793,42.5278171 C34.4058067,43.7004916 33.4935742,44.5200772 32.1670284,44.5308211 C30.9532841,44.5407691 29.7388763,44.5123841 28.5256628,44.5398406 C27.5765376,44.561461 26.707037,44.4005681 25.8748272,43.8926877 C24.9395036,43.3220683 23.7594671,43.6511494 23.2042182,44.5399733 C22.6387509,45.4449794 22.8392722,46.6429883 23.7719416,47.2199744 C24.4924115,47.6657791 25.2918425,48.0167458 26.0987051,48.2795066 C26.7347729,48.4866911 27.4356021,48.4953127 28.1759781,48.6019557 C28.1759781,49.1658104 28.1688119,49.7347054 28.1774379,50.3033352 C28.1961497,51.5417995 29.0150887,52.4015751 30.1642043,52.3990605 C31.3058884,52.3966674 32.1375673,51.52575 32.1601276,50.2969685 C32.1704788,49.7270123 32.1618528,49.1567908 32.1618528,48.5577864 M30.1778732,56.4528302 C20.289029,56.4662103 12.1801926,48.362009 12.1886792,38.4740584 C12.1973119,28.6071976 20.2614258,20.5458392 30.1408478,20.5283019 C40.0440245,20.5106895 48.1300351,28.5976475 48.1132075,38.5028414 C48.0961947,48.3996789 40.0630017,56.4394169 30.1778732,56.4528302" fill="#3E4152"/><g transform="translate(0.000000, 8.339623)"><mask id="f" fill="white"><use xlink:href="#e"/></mask><g/><path d="M29.8884817,7.69087122 C18.9916193,8.57872385 11.5459008,13.8531907 8.56316257,24.4339 C6.13238349,33.0568928 9.43600961,42.2030513 16.8198959,47.4402917 C25.5109205,53.6048714 34.3961037,53.1747721 43.2696933,47.4359043 C44.063651,48.4559111 44.9041161,49.5342838 45.7433818,50.6135871 C46.1913989,51.1899335 46.6467452,51.7609618 47.0821026,52.3466148 C47.6993587,53.1767663 47.5848892,53.9173083 46.7263009,54.4980421 C42.773703,57.1713055 38.4373189,58.8563376 33.6896972,59.4200535 C25.3124977,60.4146665 17.7645696,58.327455 11.1919647,53.0628266 C4.98142472,48.0884321 1.25643334,41.6050338 0.253258903,33.7007788 C-1.34784908,21.085507 4.7319637,9.4248296 15.949714,3.40955486 C19.8098301,1.33962709 23.9601845,0.254606816 28.3314824,0.00346071975 C29.1997987,-0.0465291861 29.8604973,0.448184749 29.8755555,1.28458501 C29.9142007,3.42550909 29.8884817,5.56762974 29.8884817,7.69087122" fill="#3E4152" mask="url(#f)"/></g><path d="M52.2238144,35.9248705 C52.5126788,35.9248705 52.7513466,35.9248705 52.9900145,35.9248705 C56.748866,35.9248705 60.5075836,35.9238225 64.2664351,35.9253946 C65.7459616,35.9259186 66.2021479,36.465798 66.0466055,37.9053019 C65.3817355,44.0596131 62.6997673,49.2024201 58.0067246,53.3425002 C57.1157693,54.1285416 56.3725926,54.0647412 55.6377152,53.1411426 C54.0393232,51.1324138 52.4442776,49.1209338 50.8706493,47.093602 C50.7263509,46.9075722 50.6278318,46.5538535 50.7078786,46.354985 C51.9843434,43.1819979 52.4879151,39.901454 52.2254207,36.504183 C52.2125703,36.3367562 52.2238144,36.1676263 52.2238144,35.9248705" fill="#3E4152"/></g></g></g></g></g></svg>