<svg width="218" height="218" xmlns="http://www.w3.org/2000/svg" xmlns:xlink="http://www.w3.org/1999/xlink"><defs><path id="c" d="M0 0h26.943v27.585H0z"/><path id="e" d="M0 0h47.472v59.66H0z"/><filter x="-29.1%" y="-27.8%" width="158.2%" height="158.2%" filterUnits="objectBoundingBox" id="a"><feOffset dy="2" in="SourceAlpha" result="shadowOffsetOuter1"/><feGaussianBlur stdDeviation="15" in="shadowOffsetOuter1" result="shadowBlurOuter1"/><feColorMatrix values="0 0 0 0 0.756862745 0 0 0 0 0.82745098 0 0 0 0 0.419607843 0 0 0 0.5 0" in="shadowBlurOuter1"/></filter><circle id="b" cx="79" cy="79" r="79"/></defs><g fill="none" fill-rule="evenodd"><g transform="translate(30 28)"><use fill="#000" filter="url(#a)" xlink:href="#b"/><use fill="#C1D36B" xlink:href="#b"/></g><g transform="translate(115.132 73)"><mask id="d" fill="#fff"><use xlink:href="#c"/></mask><path d="M2.335 0c1.38.254 2.777.439 4.138.774C17.118 3.394 25.145 12.368 26.69 23.35c.13.925.21 1.86.251 2.794.04.883-.498 1.433-1.374 1.434-4.892.01-9.784.01-14.676-.011-.22-.001-.53-.195-.647-.392-2.373-3.964-5.611-6.95-9.764-8.908-.35-.165-.48-.358-.48-.752C.015 12.23.019 6.945 0 1.66-.003.913.306.401.88 0h1.455Z" fill="#3E4152" mask="url(#d)"/></g><path d="m108.162 121.558.957-.122c2.981-.378 5.207-2.78 5.279-5.694.075-3.053-1.951-5.688-4.939-6.101-1.734-.24-3.52-.115-5.283-.142-1.337-.02-2.238-.8-2.259-1.982-.02-1.222.869-2.056 2.237-2.072 1.103-.013 2.208.029 3.31-.011 1.183-.044 2.19.246 3.066 1.105.768.752 2.035.647 2.746-.11.727-.771.761-2-.026-2.745-.585-.554-1.234-1.105-1.957-1.433-.964-.438-2.027-.657-3.132-.995 0-.468.015-1.061-.003-1.654-.035-1.174-.889-2.027-2.006-2.024-1.123.004-1.95.853-1.973 2.042-.012.592-.002 1.183-.002 1.792-.348.046-.63.086-.913.121-3.24.402-5.5 3.044-5.33 6.234.171 3.217 2.735 5.672 5.977 5.708 1.412.016 2.825-.001 4.237.004 1.348.006 2.284.855 2.27 2.049-.012 1.172-.924 1.992-2.251 2.003-1.214.01-2.428-.019-3.641.009-.95.021-1.819-.14-2.651-.647-.935-.57-2.116-.242-2.67.647-.566.905-.366 2.103.567 2.68.72.446 1.52.797 2.327 1.06.636.207 1.337.215 2.077.322 0 .564-.007 1.133.001 1.701.02 1.239.838 2.099 1.987 2.096 1.142-.002 1.974-.873 1.996-2.102.01-.57.002-1.14.002-1.74m-1.984 7.896c-9.889.013-17.998-8.091-17.99-17.979.01-9.867 8.073-17.928 17.953-17.946 9.903-.017 17.989 8.07 17.972 17.975-.017 9.897-8.05 17.936-17.935 17.95" fill="#3E4152"/><g transform="translate(76 81.34)"><mask id="f" fill="#fff"><use xlink:href="#e"/></mask><path d="M29.888 7.69c-10.896.889-18.342 6.163-21.325 16.744-2.43 8.623.873 17.77 8.257 23.006 8.69 6.165 17.576 5.735 26.45-.004.794 1.02 1.634 2.098 2.473 3.178.448.576.904 1.147 1.34 1.733.616.83.502 1.57-.357 2.151-3.952 2.673-8.289 4.358-13.036 4.922-8.378.995-15.925-1.093-22.498-6.357C4.982 48.088 1.256 41.605.253 33.7-1.347 21.086 4.732 9.425 15.95 3.41 19.81 1.34 23.96.255 28.33.003c.869-.05 1.53.445 1.545 1.282.038 2.14.012 4.283.012 6.406" fill="#3E4152" mask="url(#f)"/></g><path d="M128.224 108.925h12.042c1.48 0 1.936.54 1.78 1.98-.664 6.155-3.346 11.297-8.04 15.438-.89.786-1.633.722-2.368-.202a638.348 638.348 0 0 1-4.767-6.047c-.145-.186-.243-.54-.163-.739a21.584 21.584 0 0 0 1.517-9.85c-.012-.168-.001-.337-.001-.58" fill="#3E4152"/></g></svg>