<svg xmlns="http://www.w3.org/2000/svg" width="71.8" height="71.757" viewBox="0 0 18.997 18.986"><path d="M18.997 8.202c-.053.185-.08.37-.159.556-.37.793-.979 1.217-1.852 1.243-.582.027-1.164 0-1.772 0v5.715c0 1.085-.688 1.8-1.8 1.8H3.15a.862.862 0 0 0-.344.105c-.635.397-1.244.82-1.852 1.217-.212.133-.424.212-.662.08C.079 18.785 0 18.6 0 18.336V7.752C0 6.72.714 6.006 1.746 6.006H8.202V3.598c0-.423.212-.635.635-.635h1.984c.477 0 .609.106.741.556l.556-.159c.53-.185.873-.661.9-1.243 0-.212 0-.45.026-.662.106-.74.609-1.27 1.323-1.429.026 0 .08-.026.106-.026h.45c.026 0 .052.026.079.026.714.16 1.243.662 1.323 1.376.053.397.026.82.026 1.244v.317h.609c.794.053 1.402.424 1.746 1.138.106.212.159.423.212.635.08 1.138.08 2.302.08 3.466zM1.111 17.357c.397-.265.794-.503 1.164-.768.239-.158.477-.238.768-.238H13.44c.45 0 .661-.211.661-.661V9.975c-.9.026-1.746.026-2.513-.476-.106.396-.37.502-.741.502-.662-.026-1.323 0-1.984 0-.397 0-.609-.211-.635-.608V7.117h-6.43c-.476 0-.661.212-.661.688v9.366c-.027.027-.027.08-.027.186zm10.478-12.7v3.228c0 .052.026.132.08.185.396.502.925.794 1.56.794 1.244.026 2.487 0 3.757 0 .53 0 .926-.397.926-.927V5.001c0-.53-.397-.926-.952-.953h-1.032c-.423 0-.635-.212-.635-.635V1.667c0-.344-.238-.582-.556-.582-.317 0-.555.238-.555.582v.45c-.027 1.032-.688 1.958-1.667 2.275-.318.08-.609.159-.926.265zm-2.223 4.18h1.085V4.048H9.366v4.79z" class="st1"/><path d="M7.62 12.647H2.91c-.079 0-.185 0-.264-.026a.544.544 0 0 1-.397-.582.563.563 0 0 1 .503-.503h9.551c.08 0 .159 0 .238.026a.555.555 0 0 1 .45.609c-.026.29-.265.503-.582.503H9.393c-.609-.027-1.19-.027-1.773-.027zM7.62 13.758h4.789c.423 0 .714.37.556.741a.544.544 0 0 1-.477.37H2.937c-.08 0-.159 0-.238-.026a.555.555 0 0 1-.45-.608c.026-.291.265-.503.582-.503h3.175c.503.026 1.058.026 1.614.026zM4.63 10.425H2.858c-.37 0-.635-.212-.635-.556 0-.318.264-.556.635-.556h3.571c.37 0 .635.238.635.556 0 .317-.264.556-.608.556H4.63z" class="st1"/></svg>