<svg xmlns="http://www.w3.org/2000/svg" xmlns:xlink="http://www.w3.org/1999/xlink" width="99" height="79"><defs><path id="a" d="M0 79h99V0H0z"/></defs><g fill="none" fill-rule="evenodd"><path fill="#1A171B" d="m20.79 55 3.204 7.645L27.211 55 29 64.626h-1.006l-1.134-6.16h-.024L23.994 65l-2.83-6.534h-.024l-1.134 6.16H19zM36.03 57.233l-1.503 3.44h2.97l-1.468-3.44Zm-1.899 4.329L33.071 64H32l4.052-9L40 64h-1.083l-1.037-2.438h-3.749Z"/><g><path fill="#1A171B" d="M44.355 63.363c1.093 0 2.009-.154 2.829-.923.737-.686 1.117-1.62 1.117-2.614 0-1.017-.392-1.999-1.165-2.673-.82-.722-1.723-.863-2.781-.863h-.725v7.073h.725Zm-1.724-7.996h1.688c1.343 0 2.437.177 3.495 1.076 1.022.876 1.486 2.07 1.486 3.395 0 1.301-.476 2.449-1.463 3.324-1.07.946-2.14 1.124-3.542 1.124h-1.664v-8.919ZM52.535 55.367h4.648v.923h-3.65v2.65h3.543v.922h-3.543v3.501h3.65v.923h-4.648z"/><mask id="b" fill="#fff"><use xlink:href="#a"/></mask><path fill="#1A171B" d="M66.102 64.238h.998v-8.919h-.998zM70.778 54.94l6.99 7.287V55.32h.998v9.32l-6.99-7.273v6.872h-.998zM4.243 77.71h2.472v.923h-3.47v-8.918h.998zM10.466 75.026c0 .662-.024 1.419.392 1.987.392.544 1.153.852 1.807.852.642 0 1.343-.296 1.76-.793.475-.568.439-1.348.439-2.046v-5.311h.998v5.583c0 .97-.07 1.739-.784 2.472-.618.662-1.51 1.017-2.413 1.017-.844 0-1.712-.32-2.318-.91-.785-.746-.88-1.562-.88-2.58v-5.582h.999v5.31ZM18.9 69.715h1.141l1.83 3.359 1.831-3.36h1.142l-2.426 4.306 2.651 4.613h-1.141l-2.056-3.667-2.057 3.667h-1.141l2.65-4.613zM27.917 69.715h4.648v.923h-3.65v2.649h3.542v.922h-3.542v3.502h3.65v.922h-4.648zM37.462 69.206l3.257 7.488 3.269-7.488 1.818 9.427h-1.022l-1.153-6.032h-.023L40.718 79l-2.876-6.399h-.024l-1.153 6.032h-1.022zM49.736 77.71h.998c1.118 0 2.295-.271 2.295-1.632 0-1.383-1.332-1.585-2.426-1.585h-.867v3.218Zm0-4.068h.38c1.13 0 2.092-.13 2.092-1.514 0-1.349-.856-1.49-2.08-1.49h-.392v3.004Zm-.999-3.927h1.474c1.629 0 2.996.591 2.996 2.413 0 .721-.274 1.336-.88 1.738 1.07.26 1.7 1.219 1.7 2.283 0 1.775-1.438 2.484-3.21 2.484h-2.08v-8.918ZM57.825 74.174c0 2.011 1.64 3.69 3.673 3.69 2.033 0 3.673-1.679 3.673-3.69 0-2.023-1.616-3.69-3.673-3.69-2.056 0-3.673 1.667-3.673 3.69m8.345.012c0 2.567-2.116 4.601-4.672 4.601-2.555 0-4.671-2.034-4.671-4.601 0-2.555 2.116-4.625 4.671-4.625 2.556 0 4.672 2.07 4.672 4.625M70.29 75.026c0 .662-.024 1.419.392 1.987.392.544 1.153.852 1.807.852.641 0 1.343-.296 1.759-.793.476-.568.44-1.348.44-2.046v-5.311h.998v5.583c0 .97-.071 1.739-.784 2.472-.619.662-1.51 1.017-2.413 1.017-.844 0-1.712-.32-2.318-.91-.785-.746-.88-1.562-.88-2.58v-5.582h.999v5.31ZM80.245 73.843h.31c1.129 0 2.27-.213 2.27-1.597 0-1.467-1.082-1.609-2.282-1.609h-.298v3.206Zm0 4.79h-.998v-8.918h1.296c1.7 0 3.28.45 3.28 2.46 0 1.372-.867 2.342-2.246 2.46l2.853 3.998h-1.225l-2.71-3.915h-.25v3.915ZM95.812 74.15c.023 1.207-.107 2.2-.928 3.147-.82.946-2.068 1.49-3.316 1.49-2.52 0-4.612-2.082-4.612-4.59 0-2.554 2.092-4.636 4.671-4.636 1.57 0 2.841.698 3.792 1.928l-.725.674c-.749-1.053-1.759-1.68-3.078-1.68-2.045 0-3.661 1.716-3.661 3.726 0 .947.38 1.846 1.045 2.52.654.65 1.605 1.136 2.544 1.136 1.557 0 3.198-1.136 3.198-2.792h-2.663v-.923h3.733Z" mask="url(#b)"/><path fill="#1A171B" d="M49.454 1.739c2.583.006 4.687 2.1 4.69 4.667-.003 2.57-2.108 4.664-4.688 4.67-2.584-.006-4.689-2.1-4.694-4.667.005-2.57 2.11-4.664 4.692-4.67m0 11.076c3.55-.001 6.438-2.875 6.438-6.408C55.892 2.874 53.004 0 49.454 0s-6.44 2.874-6.44 6.407 2.89 6.407 6.44 6.408m27.04 19.22c0 1.906-.323 3.823-.933 5.541-.98 2.755-3.008 4.864-4.537 6.15a20.668 20.668 0 0 1-2.378 1.722c-1.451-2.721-2.186-5.503-2.186-8.28 0-4.134 1.649-8.034 4.643-10.984a15.867 15.867 0 0 1 3.162-2.419c1.459 2.412 2.227 5.256 2.228 8.27m-22.405.996c0 .638-.032 1.29-.096 1.936-.284 2.802-1.623 5.202-2.695 6.722-.635.9-1.253 1.604-1.686 2.06l-.09-.096c-1.15-1.23-3.87-4.539-4.29-8.686a19.13 19.13 0 0 1-.097-1.936c0-4.707 1.623-9.046 4.477-12.03 2.854 2.984 4.478 7.323 4.477 12.03M28.12 26.184c2.994 2.95 4.643 6.85 4.643 10.984 0 2.777-.735 5.559-2.186 8.28a20.386 20.386 0 0 1-2.377-1.723c-1.529-1.285-3.557-3.395-4.537-6.149-.61-1.716-.934-3.631-.934-5.54.003-3.015.77-5.859 2.229-8.27 1.148.667 2.21 1.48 3.162 2.418M99 37.444c.006-4.698-1.363-13.087-12.093-16.662a16.153 16.153 0 0 0-5.12-.836c-2.359 0-4.746.533-6.943 1.543-2.192-2.913-5.271-4.985-9.156-6.162-.218-.068-2.212-.67-4.996-.67-2.963 0-7.234.698-11.078 3.94-3.76-3.277-7.998-3.982-10.95-3.982-2.875 0-4.918.644-5.127.712-3.889 1.178-6.967 3.25-9.158 6.163a16.707 16.707 0 0 0-6.944-1.543c-1.734 0-3.456.28-5.118.835C1.587 24.356-.006 32.77 0 37.467c0 3.043.62 5.269.695 5.523L5.75 62.832l.185.732.735-.184.236-.06.737-.184-.186-.732-5.063-19.87-.004-.018-.005-.015c-.001-.005-.152-.515-.307-1.398a21.314 21.314 0 0 1-.318-3.635c.007-5.163 1.94-11.96 11.117-15.025a14.37 14.37 0 0 1 4.558-.744c2.015 0 4.057.436 5.953 1.267-1.587 2.668-2.421 5.784-2.42 9.07 0 2.106.359 4.224 1.036 6.125 2.042 5.722 7.832 8.915 8.506 9.271l.102.053.639.326.363-.616.059-.101c1.891-3.235 2.851-6.575 2.851-9.926-.001-6.107-3.262-11.72-8.566-14.85 1.952-2.491 4.672-4.278 8.115-5.322.005-.002.468-.155 1.257-.309.75-.146 1.935-.32 3.335-.32 2.61 0 6.34.613 9.661 3.438-3.157 3.308-4.953 8.078-4.953 13.226 0 .705.036 1.415.107 2.112.567 5.553 4.603 9.61 5.44 10.397l.131.136.51.528.545-.49.104-.087c.503-.46 4.938-4.658 5.533-10.485.07-.694.106-1.405.106-2.111 0-5.146-1.795-9.913-4.948-13.221 3.403-2.793 7.167-3.4 9.791-3.4 2.297 0 3.991.448 4.455.585l.03.009c3.42 1.039 6.137 2.825 8.088 5.313-5.305 3.13-8.565 8.743-8.567 14.85 0 3.353.96 6.692 2.854 9.928l.058.1.363.616.638-.326.124-.063c.653-.346 6.443-3.54 8.485-9.262.676-1.902 1.034-4.02 1.034-6.124.002-3.286-.832-6.402-2.42-9.07a14.881 14.881 0 0 1 5.954-1.267c1.545 0 3.079.25 4.56.744 9.174 3.065 10.885 9.838 10.891 15 0 2.56-.476 4.493-.622 5.024l-.012.048-5.133 19.542-.185.729.732.186.236.06.737.189.186-.735 5.135-19.547-.028.086c.05-.164.715-2.41.715-5.582" mask="url(#b)"/></g></g></svg>