<svg width="181" height="40" viewBox="0 0 181 40" fill="none" xmlns="http://www.w3.org/2000/svg"><rect width="40" height="40" rx="5" fill="#2B90FF"/><path d="M18.1898 17.8998C18.1898 16.428 18.1898 15.0075 18.1898 13.5869C18.1898 13.139 18.1643 12.6911 18.177 12.2431C18.2153 10.2979 19.7567 8.90291 21.7949 9.00529C21.7949 10.4898 21.7949 11.9744 21.7949 13.4589C21.7949 14.9179 21.7949 16.3896 21.7949 17.9382C23.1198 17.2599 24.4574 17.0295 25.8587 17.1447C29.1072 17.4135 31.9225 20.3314 31.9735 23.6076C32.0245 25.988 31.9862 28.3812 31.9862 30.7488C30.1391 31.056 28.4702 29.6738 28.4575 27.8693C28.4448 26.5511 28.4702 25.2201 28.4448 23.902C28.432 22.3918 27.4256 21.112 25.9861 20.7025C24.5593 20.293 23.0816 20.8561 22.2408 22.0719C21.8586 22.635 21.7822 23.2237 21.7822 23.8892C21.7822 27.4214 19.5146 30.1857 16.0751 30.8768C11.8839 31.7214 7.75644 28.0997 8.01122 23.7996C8.31696 18.77 13.1706 15.7625 17.7694 17.7462C17.8968 17.7846 18.0242 17.8358 18.1898 17.8998ZM11.5782 24.0299C11.5782 25.8984 13.0177 27.383 14.8521 27.3958C16.712 27.4086 18.228 25.9112 18.2407 24.0555C18.2407 22.1871 16.7503 20.6897 14.8776 20.7025C13.0177 20.7025 11.5782 22.1487 11.5782 24.0299Z" fill="#EFF5FA"/><path d="M58.8 11.152C60.576 11.152 62.128 11.504 63.456 12.208C64.784 12.912 65.808 13.904 66.528 15.184C67.264 16.448 67.632 17.912 67.632 19.576C67.632 21.224 67.264 22.688 66.528 23.968C65.808 25.248 64.776 26.24 63.432 26.944C62.104 27.648 60.56 28 58.8 28H52.488V11.152H58.8ZM58.536 24.448C60.088 24.448 61.296 24.024 62.16 23.176C63.024 22.328 63.456 21.128 63.456 19.576C63.456 18.024 63.024 16.816 62.16 15.952C61.296 15.088 60.088 14.656 58.536 14.656H56.592V24.448H58.536ZM69.1095 21.28C69.1095 19.904 69.3655 18.696 69.8775 17.656C70.4055 16.616 71.1175 15.816 72.0135 15.256C72.9095 14.696 73.9095 14.416 75.0135 14.416C75.9575 14.416 76.7815 14.608 77.4855 14.992C78.2055 15.376 78.7575 15.88 79.1415 16.504V14.608H83.2455V28H79.1415V26.104C78.7415 26.728 78.1815 27.232 77.4615 27.616C76.7575 28 75.9335 28.192 74.9895 28.192C73.9015 28.192 72.9095 27.912 72.0135 27.352C71.1175 26.776 70.4055 25.968 69.8775 24.928C69.3655 23.872 69.1095 22.656 69.1095 21.28ZM79.1415 21.304C79.1415 20.28 78.8535 19.472 78.2775 18.88C77.7175 18.288 77.0295 17.992 76.2135 17.992C75.3975 17.992 74.7015 18.288 74.1255 18.88C73.5655 19.456 73.2855 20.256 73.2855 21.28C73.2855 22.304 73.5655 23.12 74.1255 23.728C74.7015 24.32 75.3975 24.616 76.2135 24.616C77.0295 24.616 77.7175 24.32 78.2775 23.728C78.8535 23.136 79.1415 22.328 79.1415 21.304ZM93.6786 24.52V28H91.5906C90.1026 28 88.9426 27.64 88.1106 26.92C87.2786 26.184 86.8626 24.992 86.8626 23.344V18.016H85.2306V14.608H86.8626V11.344H90.9666V14.608H93.6546V18.016H90.9666V23.392C90.9666 23.792 91.0626 24.08 91.2546 24.256C91.4466 24.432 91.7666 24.52 92.2146 24.52H93.6786ZM95.1486 21.28C95.1486 19.904 95.4046 18.696 95.9166 17.656C96.4446 16.616 97.1566 15.816 98.0526 15.256C98.9486 14.696 99.9486 14.416 101.053 14.416C101.997 14.416 102.821 14.608 103.525 14.992C104.245 15.376 104.797 15.88 105.181 16.504V14.608H109.285V28H105.181V26.104C104.781 26.728 104.221 27.232 103.501 27.616C102.797 28 101.973 28.192 101.029 28.192C99.9406 28.192 98.9486 27.912 98.0526 27.352C97.1566 26.776 96.4446 25.968 95.9166 24.928C95.4046 23.872 95.1486 22.656 95.1486 21.28ZM105.181 21.304C105.181 20.28 104.893 19.472 104.317 18.88C103.757 18.288 103.069 17.992 102.253 17.992C101.437 17.992 100.741 18.288 100.165 18.88C99.6046 19.456 99.3246 20.256 99.3246 21.28C99.3246 22.304 99.6046 23.12 100.165 23.728C100.741 24.32 101.437 24.616 102.253 24.616C103.069 24.616 103.757 24.32 104.317 23.728C104.893 23.136 105.181 22.328 105.181 21.304Z" fill="#122C47"/><path d="M126.846 11.152V28H122.742V21.064H116.358V28H112.254V11.152H116.358V17.752H122.742V11.152H126.846ZM128.992 21.28C128.992 19.904 129.248 18.696 129.76 17.656C130.288 16.616 131 15.816 131.896 15.256C132.792 14.696 133.792 14.416 134.896 14.416C135.84 14.416 136.664 14.608 137.368 14.992C138.088 15.376 138.64 15.88 139.024 16.504V14.608H143.128V28H139.024V26.104C138.624 26.728 138.064 27.232 137.344 27.616C136.64 28 135.816 28.192 134.872 28.192C133.784 28.192 132.792 27.912 131.896 27.352C131 26.776 130.288 25.968 129.76 24.928C129.248 23.872 128.992 22.656 128.992 21.28ZM139.024 21.304C139.024 20.28 138.736 19.472 138.16 18.88C137.6 18.288 136.912 17.992 136.096 17.992C135.28 17.992 134.584 18.288 134.008 18.88C133.448 19.456 133.168 20.256 133.168 21.28C133.168 22.304 133.448 23.12 134.008 23.728C134.584 24.32 135.28 24.616 136.096 24.616C136.912 24.616 137.6 24.32 138.16 23.728C138.736 23.136 139.024 22.328 139.024 21.304ZM165.321 14.608L161.697 28H157.161L155.049 19.312L152.865 28H148.353L144.705 14.608H148.809L150.705 24.184L152.961 14.608H157.305L159.585 24.136L161.457 14.608H165.321ZM175.07 28L170.99 22.384V28H166.886V10.24H170.99V20.056L175.046 14.608H180.11L174.542 21.328L180.158 28H175.07Z" fill="#0079FE"/></svg>