<svg version="1.1" id="Calque_1" xmlns="http://www.w3.org/2000/svg" xmlns:xlink="http://www.w3.org/1999/xlink" x="0" y="0" viewBox="0 0 50.46 50.63" style="enable-background:new 0 0 50.46 50.63" xml:space="preserve"><style></style><defs><path id="SVGID_1_" d="M-410.84-678.7h1600.13v596.92H-410.84z"/></defs><clipPath id="SVGID_2_"><use xlink:href="#SVGID_1_" style="overflow:visible"/></clipPath><g style="clip-path:url(#SVGID_2_)"><defs><path id="SVGID_3_" d="M-410.84-678.7h1600v596.92h-1600z"/></defs><clipPath id="SVGID_4_"><use xlink:href="#SVGID_3_" style="overflow:visible"/></clipPath><g style="opacity:.8;clip-path:url(#SVGID_4_)"><defs><path id="SVGID_5_" d="M-412.49-830.35h1603.3V372.96h-1603.3z"/></defs><clipPath id="SVGID_6_"><use xlink:href="#SVGID_5_" style="overflow:visible"/></clipPath></g></g><g><path d="m13.29 36.99-1.09 1.08M1.71 48.56h0c-.94-.94-.94-2.47 0-3.41l8.77-8.77 3.41 3.41-8.77 8.77c-.94.94-2.47.94-3.41 0zM29.43 29.8c0-4.84-3.92-8.76-8.76-8.76s-8.76 3.92-8.76 8.76 3.92 8.76 8.76 8.76 8.76-3.92 8.76-8.76zm11.01-10.11V39.9m-6.01-16.21V39.9m-6-6.04v6.04m-5.99-25.71v7.02m0 17.35v1.35h21m6-29.76h-9.15V1m-27 24.07V1h26.99l9.15 9.15V49.6H13.29v-9.2m0-1.21v-4.66" style="fill:none;stroke:#64d7be;stroke-width:2;stroke-linecap:round;stroke-linejoin:round;stroke-miterlimit:10"/></g></svg>