<svg data-name="Layer 1" width="1557.623" height="502.964" xmlns="http://www.w3.org/2000/svg"><g fill="#003873"><path d="M698.994 353.827h31.665l-78.35-154.463h-26.477l-78.35 154.463h30.829l.061-.122 17.505-34.829h85.547l17.569 34.951zM638.66 233.754l23.647 47.049 7.182 14.313H607.82l30.841-61.362zM564.199 248.971c0-16.198-5.311-28.662-15.787-37.046-10.236-8.186-25.427-12.338-45.148-12.338h-73.312v154.462h27.605v-55.075h43.232c20.795 0 36.662-4.104 47.16-12.195 10.783-8.313 16.251-21.032 16.251-37.808zm-36.305 18.499c-5.518 4.23-14.429 6.375-26.486 6.375h-43.851v-49.129h44.264c12.088 0 20.954 1.989 26.352 5.912 5.113 3.721 7.598 9.585 7.598 17.93 0 8.662-2.577 14.848-7.876 18.911zM890.234 250.867v.007h-.037l.037-.007zM1211.644 291.875c0 13.878-3.536 24.203-10.508 30.682-7.049 6.549-18.336 9.869-33.55 9.869s-26.504-3.319-33.55-9.867c-6.972-6.479-10.507-16.802-10.507-30.684v-92.288h-27.605v91.669c0 44.13 24.11 66.505 71.662 66.505s71.662-22.375 71.662-66.505v-91.669h-27.604v92.288zM890.747 305.901c-5.013 15.008-13.863 27.145-26.372 36.114-13.587 10.003-31.042 15.157-51.851 15.305-25.04-.298-45.225-7.727-60.032-22.095-14.837-14.235-22.512-33.697-22.809-57.86.297-24.921 7.965-44.964 22.787-59.645 14.815-14.666 35.006-22.252 60.002-22.549 19.217.149 35.609 4.618 48.765 13.29 12.338 8.129 21.448 19.403 27.108 33.549l-2.32 1.19-12.479 6.433-9.772 5.035-.729-1.904c-4.009-10.494-10.285-18.741-18.667-24.512-8.523-5.771-19.262-8.768-31.905-8.91-16.562.275-29.956 5.585-39.721 15.766-9.795 10.337-14.904 24.55-15.194 42.228.29 16.934 5.392 30.551 15.164 40.465 9.78 9.914 23.174 15.075 39.825 15.35 13.677-.134 25.189-3.622 34.143-10.375 8.791-6.597 14.934-15.885 18.243-27.621l.625-2.231 8.27 4.261 8.597 4.425 3.629 1.874 2.35 1.205 2.343 1.212z"/><path d="M890.234 250.867v.007h-.037l.037-.007zM1392.119 328.919h-96.786V287.01h91.998v-25.129h-91.998v-37.165h96.742v-25.129h-124.347v154.461h124.391v-25.129zM578.373 353.916l-.066.131h-.152l.218-.131zM895.816 199.585h31.665l25.67 51.066 11.017 21.958 23.647 47.049 41.115-81.804 19.172-38.148.061-.121h30.829l-78.35 154.462h-26.477l-78.349-154.462z"/></g><path fill="#ff8042" d="M318.882 263.397l-6.595 3.522-.014-.027-66.634 35.615-39.291-72.915 73.229-39.13 39.305 72.935zM222.636 291.711l-37.178 19.872-19.954-37.031 37.177-19.873 19.955 37.032zM379.346 254.491l-37.184 19.872-58.891-109.287 37.177-19.872 58.898 109.287z"/><path fill="#d35127" d="M320.33 354.048l-29.967-55.935-104.86 55.935H320.33z"/></svg>