<svg xmlns="http://www.w3.org/2000/svg" width="500" height="301.354" version="1.0"><g><path d="M620.38 235.668c-58.111 42.833-142.34 65.686-214.86 65.686-101.685 0-193.227-37.61-262.483-100.161-5.44-4.919-.565-11.622 5.964-7.792 74.74 43.486 167.153 69.647 262.613 69.647 64.38 0 135.202-13.32 200.322-40.961 9.837-4.179 18.064 6.442 8.444 13.581" style="fill:#f90;fill-opacity:1;fill-rule:evenodd;stroke:none" transform="matrix(.5 0 0 .5 0 100)"/><path d="M644.54 208.027c-7.4-9.49-49.102-4.483-67.82-2.263-5.702.696-6.572-4.266-1.436-7.836 33.213-23.375 87.712-16.628 94.067-8.793 6.355 7.88-1.654 62.508-32.865 88.583-4.788 4.004-9.359 1.871-7.226-3.44 7.009-17.498 22.723-56.718 15.28-66.251" style="fill:#f90;fill-opacity:1;fill-rule:evenodd;stroke:none" transform="matrix(.5 0 0 .5 0 100)"/><path d="M578.026 32.908V10.186c0-3.439 2.612-5.746 5.746-5.746H685.5c3.265 0 5.877 2.35 5.877 5.746v19.458c-.044 3.264-2.786 7.53-7.661 14.277l-52.714 75.263c19.588-.48 40.264 2.437 58.024 12.449 4.005 2.264 5.093 5.572 5.398 8.836v24.246c0 3.309-3.657 7.183-7.487 5.18-31.298-16.41-72.868-18.195-107.474.174-3.526 1.916-7.226-1.915-7.226-5.223v-23.027c0-3.7.043-10.012 3.743-15.627l61.072-87.581h-53.15c-3.264 0-5.876-2.307-5.876-5.703M206.939 174.684h-30.95c-2.96-.218-5.31-2.438-5.528-5.268V10.578c0-3.178 2.655-5.702 5.963-5.702h28.86c3.004.13 5.398 2.437 5.616 5.31V30.95h.566c7.53-20.067 21.677-29.426 40.743-29.426 19.37 0 31.472 9.359 40.178 29.426 7.487-20.067 24.507-29.426 42.746-29.426 12.971 0 27.162 5.354 35.824 17.368 9.794 13.363 7.792 32.778 7.792 49.798l-.044 100.248c0 3.177-2.655 5.746-5.963 5.746h-30.906c-3.09-.218-5.572-2.7-5.572-5.746V84.752c0-6.704.61-23.419-.87-29.774-2.307-10.665-9.228-13.668-18.196-13.668-7.487 0-15.322 5.005-18.5 13.015-3.177 8.01-2.872 21.416-2.872 30.427v84.186c0 3.177-2.656 5.746-5.964 5.746h-30.906c-3.134-.218-5.572-2.7-5.572-5.746l-.043-84.186c0-17.717 2.916-43.79-19.066-43.79-22.243 0-21.373 25.42-21.373 43.79v84.186c0 3.177-2.655 5.746-5.963 5.746M778.958 1.524c45.923 0 70.779 39.437 70.779 89.583 0 48.448-27.467 86.885-70.78 86.885-45.096 0-69.646-39.438-69.646-88.582 0-49.45 24.855-87.886 69.647-87.886m.261 32.43c-22.81 0-24.246 31.08-24.246 50.45 0 19.414-.304 60.854 23.985 60.854 23.985 0 25.116-33.43 25.116-53.803 0-13.407-.566-29.425-4.614-42.136-3.482-11.056-10.403-15.366-20.24-15.366M909.285 174.684h-30.819c-3.09-.218-5.572-2.7-5.572-5.746l-.043-158.882c.26-2.917 2.83-5.18 5.963-5.18H907.5c2.699.13 4.919 1.958 5.528 4.44v24.289h.566c8.663-21.721 20.807-32.081 42.18-32.081 13.886 0 27.424 5.006 36.13 18.717C1000 32.951 1000 54.325 1000 69.691v99.987c-.348 2.786-2.916 5.006-5.963 5.006H963c-2.83-.218-5.18-2.307-5.485-5.006V83.402c0-17.368 2.003-42.789-19.37-42.789-7.53 0-14.452 5.05-17.89 12.71-4.354 9.708-4.92 19.371-4.92 30.08v85.535c-.043 3.177-2.742 5.746-6.05 5.746M496.931 98.812c0 12.058.305 22.113-5.79 32.821-4.918 8.706-12.753 14.06-21.416 14.06-11.883 0-18.848-9.054-18.848-22.418 0-26.378 23.637-31.167 46.054-31.167v6.704m31.21 75.436c-2.045 1.828-5.005 1.96-7.312.74-10.273-8.531-12.145-12.493-17.76-20.633-16.977 17.325-29.034 22.505-51.017 22.505-26.074 0-46.315-16.062-46.315-48.23 0-25.117 13.581-42.224 32.995-50.582 16.803-7.4 40.265-8.705 58.2-10.751v-4.005c0-7.357.565-16.062-3.788-22.418-3.743-5.702-10.97-8.053-17.368-8.053-11.797 0-22.287 6.05-24.855 18.587-.523 2.786-2.569 5.529-5.398 5.66l-29.992-3.222c-2.524-.566-5.354-2.612-4.614-6.486C417.795 10.97 450.703 0 480.13 0c15.061 0 34.736 4.005 46.62 15.41 15.06 14.06 13.624 32.82 13.624 53.236v48.23c0 14.496 6.008 20.851 11.666 28.686 1.96 2.786 2.394 6.138-.13 8.227-6.312 5.268-17.543 15.062-23.724 20.546l-.043-.087M91.194 98.812c0 12.058.305 22.113-5.79 32.821-4.918 8.706-12.71 14.06-21.416 14.06-11.883 0-18.805-9.054-18.805-22.418 0-26.378 23.637-31.167 46.011-31.167v6.704m31.21 75.436c-2.045 1.828-5.005 1.96-7.312.74-10.273-8.531-12.102-12.493-17.76-20.633-16.977 17.325-28.99 22.505-51.017 22.505C20.285 176.86 0 160.798 0 128.63c0-25.117 13.625-42.224 32.995-50.582 16.803-7.4 40.265-8.705 58.199-10.751v-4.005c0-7.357.566-16.062-3.744-22.418-3.787-5.702-11.012-8.053-17.368-8.053-11.796 0-22.33 6.05-24.899 18.587-.522 2.786-2.568 5.529-5.354 5.66L9.794 53.845c-2.525-.566-5.31-2.612-4.614-6.486C12.101 10.97 44.966 0 74.392 0c15.06 0 34.736 4.005 46.62 15.41 15.06 14.06 13.624 32.82 13.624 53.236v48.23c0 14.496 6.007 20.851 11.666 28.686 2.003 2.786 2.438 6.138-.087 8.227-6.312 5.268-17.542 15.062-23.723 20.546l-.087-.087" style="fill:#000;fill-rule:evenodd;stroke:none" transform="matrix(.5 0 0 .5 0 100)"/><g transform="matrix(.8 0 0 .8 -470 100)"><path d="M38.866 26.308C17.721 26.308.1 35.28.1 62.345c0 21.442 11.849 34.944 39.312 34.944 32.327 0 34.399-21.294 34.399-21.294H58.147s-3.358 11.466-19.69 11.466c-13.302 0-22.87-8.986-22.87-21.58H75.45v-7.904c0-12.46-7.91-31.669-36.583-31.669zM38.32 36.41c12.663 0 21.295 7.758 21.295 19.384h-43.68c0-12.343 11.266-19.384 22.385-19.384z" style="fill:#e53238;fill-opacity:1;stroke:none"/><path d="M75.438.1v83.597c0 4.745-.339 11.408-.339 11.408h14.94s.536-4.785.536-9.159c0 0 7.381 11.548 27.451 11.548 21.135 0 35.49-14.673 35.49-35.695 0-19.557-13.186-35.286-35.456-35.286-20.854 0-27.334 11.262-27.334 11.262V.1zm38.766 36.753c14.352 0 23.478 10.652 23.478 24.946 0 15.328-10.54 25.355-23.375 25.355-15.318 0-23.581-11.96-23.581-25.219 0-12.354 7.414-25.082 23.478-25.082z" style="fill:#0064d2;fill-opacity:1;stroke:none"/><path d="M190.645 26.308c-31.812 0-33.852 17.42-33.852 20.203h15.834s.83-10.17 16.926-10.17c10.46 0 18.564 4.788 18.564 13.992v3.276h-18.564c-24.645 0-37.674 7.21-37.674 21.84 0 14.398 12.038 22.233 28.307 22.233 22.171 0 29.313-12.251 29.313-12.251 0 4.872.376 9.674.376 9.674h14.076s-.546-5.952-.546-9.76V52.431c0-21.58-17.407-26.123-32.76-26.123zm17.472 37.129v4.368c0 5.697-3.515 19.86-24.212 19.86-11.333 0-16.192-5.655-16.192-12.216 0-11.935 16.364-12.012 40.404-12.012z" style="fill:#f5af02;fill-opacity:1;stroke:none"/><path d="M214.879 29.041h17.813l25.565 51.218 25.507-51.218H299.9l-46.46 91.183h-16.925l13.406-25.418z" style="fill:#86b817;fill-opacity:1;stroke:none"/><circle cx="150" cy="60" r="175" fill="none" stroke="#0064d2" stroke-width="16"/></g><path fill="#3366CA" d="M-538.271 146.297c19.422 0 35.192-15.77 35.192-35.192s-15.77-35.192-35.192-35.192-35.192 15.77-35.192 35.192c.166 19.422 15.77 35.192 35.192 35.192z"/><path fill="#FFF" d="M-538.271 147.376c-19.837 0-36.271-16.185-36.271-36.271 0-20.086 16.434-36.105 36.271-36.105S-502 91.185-502 111.271c0 20.086-16.185 36.105-36.271 36.105zm0-70.218c-18.758 0-34.113 15.355-34.113 34.113s15.355 34.113 34.113 34.113 34.113-15.355 34.113-34.113-15.355-34.113-34.113-34.113z"/><path fill="#FFF" d="M-546.737 86.288c.249 0 0 .415.249.415l.249.249.249.249c.249 0 0 .249.249.249s.249.249.249.249c.249 0 0 .249.249.249 0 .249.249.415 0 .415-.249.249-.249.415-.664.415 0 .249-.249 0-.415.249-.415.249-.664.415-1.079.664-.249.249-.415.249-.664.415 0 .249-.415.249-.664.415-.249 0-.415.249-.664.415-.249.249-.415.249-.664.415-.249 0-.249.249-.249.249-.249.415-.83.415-1.079.83-.415.249-.83.83-1.328 1.079 0 .249-.415.249-.415.664-.249 0-.249.415-.664.415-.249.415-.664.664-.83.83l-.664.664c-.249.415-.664.415-.664.83-.249.249-.664.415-.664.83 0 0 0 .249-.249.249-.415.415-.83.664-1.079 1.328a3.621 3.621 0 0 0-.664.83c-.249.249-.415.415-.415.664l-.664.664v.249c-.249.249-.249.415-.415.83 0 .249-.249.249-.249.415-.249.249 0 .664-.415.83-.249.249 0 .249-.249.415v.249c0 .249-.249.415-.249.83-.249.249 0 .415-.249.664 0 .664-.249 1.079 0 1.494v1.328c-.249.249 0 .249.249.415v.415c0 .249.249.249.249.415v.249c.249.249.415.415.415.664.249 0 .249.415.664.415.249.249.249.249.415.249.166 0 .415.249.664.249.249 0 .415.249.664.249.249 0 .415.249.664.249.83.249 1.743.249 2.573.249h.249c.249 0 .664-.249.83-.249.166 0 .415-.249.664 0 .415-.249 1.079-.415 1.494-.415 0-.249.249 0 .415-.249.249 0 .664 0 .664-.249 0 0 .249 0 .249-.249.415 0 .664-.415 1.079-.415.249-.249.249-.249.415-.249.249-.249.249-.249.415-.249.166 0 .415-.249.664-.249.249 0 .249-.249.415-.249 0 0 .249 0 .249-.249.249 0 .415-.249.83-.415h.249l.415-.415c.415 0 .664-.664 1.079-.664 0-.249.249 0 .249-.249.249-.249.415-.415.664-.415 0 0 .249 0 .249-.249.249-.249.249-.415.664-.415l1.328-1.328c.249 0 .249-.249.415-.415.166-.166.249-.415.415-.664.166-.249.415-.415.415-.415 0-.249.415-.415.415-.664.249-.249.249-.664.415-.83 0-.249.249-.415.249-.664v-.415c.249-.664 0-1.079-.415-1.494 0-.415-.415-.415-.415-.664-.249-.249-.415-.415-.664-.415-.249-.249-.415-.249-.415-.249-.249-.249-.664 0-.83-.249-.415 0-.664-.249-1.079 0h-.415c-.249 0-.415-.249-.664 0-.415 0-.83 0-1.328.249 0 .249-.249 0-.415 0-.249 0-.249.249-.415 0-.249.249-.415.249-.83.249-.249.249-.415.249-.664.249h-.249c-.415.249-.83.249-1.328.664-.415 0-.415.415-.83.415-.249.249-.415.249-.664.415-.249.249-.664.415-.83.664 0 .249-.415.249-.415.415h-.249c0 .249-.249.249-.249.415-.415.415-.664.83-.83 1.079 0 .249-.415.249-.249.415-.249.249-.249.415-.249.664 0 0 0 .249-.249.249s0 .249-.249.415c0 .249 0 .415-.249.415 0 .249-.249.249-.249.249l-.249.249c-.249 0 0 .249 0 .249l-.249.249v.249c-.249 0 0 .415-.249.249h-.249v-.664s0-.249.249-.249c0 0 0-.249-.249 0v.249s0 .249-.249.249v.249s-.249-.249 0-.249v-.415h-.249c0 .249 0 .249-.249.415v.415s-.249 0-.249-.249v-.249c.249-.249 0-.249.249-.415-.249-.249 0-.664 0-.83-.249.249-.249.415-.415.664v.249l-.249.249c-.249.249-.249-.249-.249-.415.249 0 0-.249.249-.415 0-.415.249-.664.249-1.079.249 0 0-.249 0-.249 0-.249.249-.415.249-.664.249-.415.249-1.079.664-1.328 0-.249.249-.249.249-.415.249-.415.664-.83.83-1.328.249-.249.415-.664.664-.83.415-.249.415-.664.83-.83.415-.415.83-.83 1.328-1.079 0 0 .249-.249.415-.249.415-.415 1.079-.664 1.494-.83.249-.249.415-.249.664-.249.249-.249.664-.249.83-.415.249-.249.83-.249 1.079-.415h.83c.415 0 .83-.249 1.079 0 .664 0 1.328 0 1.909.249.249 0 .415.249.664.249.249.249.664.249 1.079.415.415 0 .664.249.83.415.249.249.415.415.83.664.249.249.249.249.249.415.249.249.415.249.415.415.249.249.249.664.415.83 0 .415.415.664.415.83 0 .166.249.415.249.664.249.249.249.664.249.83.249.249 0 .415 0 .664v.415c0 .166 0 .664-.249.83 0 .249-.249.249-.249.415 0 .166-.249.249 0 .415-.249.249 0 .249-.249.415 0 .415-.415.664-.415.83 0 0 0 .249-.249.249 0 .249-.249.415-.415.664-.166.249-.415.415-.664.83-.415.249-.415.664-.83.83l-1.079 1.079-.415.415c-.249.415-.415.415-.664.664-.249 0-.249.249-.249.249-.249 0-.415.415-.664.415l-.249.249c-.249 0-.249.249-.415.249-.415.249-.83.415-1.328.664-.498.249-.83.415-1.079.664-.249.249-.415.249-.664.249-.415 0-.664.415-1.079.415-.249 0-.249.249-.415.249 0 0-.249 0-.249.249-.249 0-.249 0-.415.249-.249 0-.415.249-.664.249-.249 0-.249.249-.415.249-.166 0-.249.249-.415.249h-.415c-.249 0-.415.249-.664.249-.249 0-.249 0-.415.249-.249 0-.249.249-.415 0-.249 0-.415.249-.664 0h-1.328c-.249 0-.415-.249-.415 0-.415 0-.664 0-1.079-.249-.249 0-.415-.249-.664-.249 0-.249-.249 0-.249 0-.249 0-.249-.249-.415-.249-.249-.249-.415 0-.664-.249-.249 0-.415-.249-.664-.249h-.415c-.249 0-.249-.249-.415-.249-.415-.249-.664-.664-1.079-.83a4.292 4.292 0 0 1-1.494-1.494c0-.249-.415-.249-.415-.415-.415-.415-.415-.83-.83-1.079v-.415c0-.166-.249-.415-.249-.664 0-.249 0-.415-.249-.83v-2.158c0-.249.249-.664.249-.83 0-.415.249-.83.249-1.328.249-.249 0-.664.249-.83 0-.249.249-.249.249-.415.249-.249.249-.415.415-.664.249-.415.415-1.079.83-1.494 0-.249.249-.415.415-.83.415-.415.664-1.079 1.079-1.494.415-.415.664-.83 1.079-1.328 0-.249.415-.415.415-.664.249-.415.664-.664.83-1.079l2.822-2.822c.249 0 .249-.249.249-.249.415-.249.83-.415 1.079-.83.415-.249.664-.664 1.079-.83.249 0 .249-.249.415-.249 0-.249.249-.249.415-.249.166 0 .415-.415.83-.415.249-.249.249-.415.415-.415.249-.249.415-.249.664-.415.249 0 0-.249.249-.249.415 0 .664-.415.83-.415.249-.249.664-.249.83-.415.249 0 .415-.249.415-.249 1.909-.996 2.158-.996 2.324-.747zM-521.422 93.426h1.079c.249 0 .249.249.415.249 0 .249.249 0 .415 0 .249 0 .415.249.664.249.415.249.83.249 1.079.664.249 0 .415.249.664.415.415 0 .415.415.83.664.249.415.664.415.83.83.249.415.664.664.83 1.079 0 .249.249.249.249.415.249.249.249.415.415.83 0 .249.249.249.249.249 0 .249.249.664.249.83.249.664.249 1.079.415 1.743V102.971c.249 0 0 .249 0 .415-.249.249 0 .415-.249.664.249.249-.249.415-.249.83 0 0 0 .249-.249.249 0 .249 0 .415-.249.664-.249.249 0 .249-.249.415 0 .249-.249.415-.415.664 0 .249-.249.249-.249.415 0 .166-.249.249-.249.415-.249 0-.249.249-.249.415-.249.415-.415.664-.664 1.079-.249.249-.415.415-.415.664-.249.249-.415.664-.664.83-.249.415-.415.415-.664.664 0 .249-.249 0-.249.249-.249.249-.664.415-.83.664-.249 0-.249.249-.415.249 0 .249-.415.249-.415.415h-.249s-.249 0-.249.249c-.249.249-.664.249-.83.415-.249 0-.249.249-.415.249-.249.249-.415.249-.664.249-.249 0-.249.249-.415.249-.249 0-.415.249-.664.249-.415 0-.664.249-1.079.249-.249.249-.664 0-.83.249h-.83c-.249 0-.415 0-.664.249h-.664c-.249.249-.415 0-.664 0h-1.079c-.415 0-.664 0-1.079-.249-.249.249-.415-.249-.664 0 0-.249-.249 0-.249-.249-.249 0-.664 0-.83-.249-.249 0-.664-.249-.83-.249-.249-.249-.415-.415-.664-.415l-.664-.664c0-.249-.249 0-.249-.249s-.415-.415-.415-.664c-.249-.249-.249-.415-.415-.664-.249-.415-.415-.664-.415-1.079-.249-.415-.249-.83-.249-1.328-.249-.249.249-.415.249-.664 0-.415 0-.664.249-.83.249-.415.249-.664.664-.83 0-.249.249 0 .415-.249h.249v.249c-.249 0-.249.415-.415.415v.249c.249 0 .249-.249.415-.415 0-.249.415-.249.249-.415.249 0 .415-.249.664-.415.249 0 .249-.249.415-.249v.249c-.249.249-.415 0-.415.249s-.249.249-.249.249c-.249 0-.249.249-.249.249h.249c.249-.249.249-.415.415-.415.415 0 .415-.415.664-.415 0-.249.249 0 .249 0l-.249.249h-.249s0 .249.249.249c-.249 0-.249.415-.415.415l-.249.249c0-.249.249.249.415-.249 0-.249.249 0 .415-.249v.249c-.249.249-.249.249-.415.249 0 .249-.249.249-.415.415-.249.415-.664.664-.83 1.079-.249.249-.249.415-.415.664-.249 0 0 .249-.249.415 0 .415-.249.664-.249 1.079 0 .249 0 .415.249.664 0 .249.249.249.249.415.249.249.249.664.664.664.249.249.664.249.83.415.415 0 .664.249.83.249.166 0 .415 0 .415.249h1.743c.415-.249.664 0 1.079-.249h.664c.249 0 .415 0 .415-.249.249 0 .415-.249.664 0 0-.249.249 0 .249 0 .249-.249.664-.249.83-.249.249-.249.415 0 .664-.249.249 0 .249-.249.415-.249.166 0 .415 0 .415-.249.415-.249.664-.415 1.079-.664.415-.249.83-.415 1.328-.83 0 0 .249 0 .249-.249.664-.415 1.079-.83 1.494-1.328 0-.249.249-.415.415-.415l1.079-1.079c0-.249.249-.249.249-.415a3.25 3.25 0 0 0 .83-1.328c.249 0 .249-.249.249-.415.415-.415.415-.83.664-1.328 0-.415.249-.664.249-1.079.249-.249.249-.415.249-.83v-.664c0-.415.249-1.079 0-1.328 0-.415-.249-.664-.415-1.079 0-.249-.249-.249-.249-.415-.249-.415-.664-.415-.83-.83-.249 0-.415-.249-.664-.249-.249 0-.415-.249-.664-.249-.249 0-.249 0-.415-.249 0-.249-.249 0-.249-.249h-.415c-.664 0-1.328-.249-1.743 0h-.664s0 .249-.249 0c0-.249-.249 0-.415 0h-.249c0 .249-.249 0-.415.249-.249 0-.415 0-.664.249h-.415c-.166 0-.415.249-.664 0-.249.249-.415.249-.664.249-.249 0-.415 0-.664.249-.249 0-.249.249-.415.249-.166 0-.415.249-.415.249-.249 0-.249.249-.415.249-.166 0-.415.249-.664.249 0 0-.249 0-.249.249-.249.249-.415.249-.415.415-.249 0-.415.249-.664.249 0 0-.249 0-.249.249h-.249c-.415.249-.83.415-1.079.83-.249 0-.249.249-.249.249a3.621 3.621 0 0 1-.83.664c-.664.415-1.079 1.079-1.494 1.494h-.249c0 .249-.249.415-.415.415-.249.249-.249.415-.415.415l-.415.415c0 .249-.249.249-.415.415-.249 0-.415.249-.664 0-.249 0-.249 0-.249-.249v-.415c-.249 0-.249-.249-.415-.249-.249-.415-.415-.83-.415-1.328 0-.249.249-.415.249-.664.249-.249.415-.415.415-.664v-.249l1.328-1.328c.249-.249.415-.249.415-.415.249 0 .415-.415.664-.664.415-.249.664-.415.83-.664.415-.415 1.079-.664 1.494-1.079.249-.249.664-.415.83-.415.415-.664 1.079-.664 1.743-.83.249-.249.664-.249.83-.415.249 0 .415-.249.664-.249.249 0 .249 0 .415-.249.249 0 .415 0 .415-.249.415 0 1.079-.415 1.494-.415h2.241c2.158-.83 2.158-.83 2.407-.83zM-540.678 112.848c.249.249.249.415.415.249 0 0 .249 0 .249.249.249 0 .415.415.664.249 0 .249.249.249.249.415l.249.249c.249.249 0 .249 0 .415l-.664.664c-.249 0 0 .249-.249.249-.249.249-.664.249-.83.664-.415.249-.664.664-1.079.83 0 .249-.249.249-.249.249-.415.415-1.079 1.079-1.743 1.494-.249 0-.249.249-.249.249 0 .249-.249 0-.249.249l-.415.415-1.328 1.328v.249s0 .249-.249.249c0 .249-.249.249-.249.415 0 0-.249 0-.249.249-.249.249-.249.664-.664.664-.249.249-.415.664-.83.83 0 0 0 .249-.249.249s0 .249-.249.249c0 .249-.249.249-.249.415 0 .166-.249.249-.249.415 0 .166-.249.415-.415.664-.249.249-.415.415-.415.83-.249.249-.249.664-.664.83 0 .249-.249.415-.249.664-.249.249 0 .249-.249.415v.249c0 .249-.249.249-.249.415 0 .249 0 .415-.249.664.249.249-.249.249 0 .415-.249 0 0 .249-.249.415v.249c0 .249-.249.664 0 1.079 0 .249 0 .664.249.83 0 .249 0 .415.249.664 0 0 0 .249.249.249 0 .249.249.249 0 .249l.415.415.249.249c.249.249.415.415.664.415l.249.249c.249.249.415.249.664.249.249.249.664.249 1.079.249h.249c.249.249.415 0 .664 0h.83c.166 0 .415.249.664 0 .415 0 .664 0 1.079-.249h.415c.249 0 .415-.249.664 0h.664c.249 0 .664-.249.83-.249.166 0 .415-.249.664 0 .415 0 .664-.249 1.079-.249h.498c.249-.249.415 0 .664-.249h.249c.249 0 .415 0 .664-.249.415 0 .664-.249 1.079-.249.249-.249.664-.249.83-.249.249-.249.664-.249.83-.415.249-.249.415 0 .415-.249.249 0 .415 0 .415-.249.249 0 .415-.249.664-.415.249 0 .415 0 .415-.249h.249c.249-.249.415-.415.664-.249 0 0-.249.249 0 .249 0 .249-.249 0-.249.249-.249 0-.249.249-.415.249v.249c0-.249.249 0 .415-.249.249 0 .415-.249.664-.249.249 0 .415-.415.664-.249 0 0 0 .249-.249.249v.249c0 .249.249-.249.415 0 .249-.249.415 0 .415-.415 0-.249.249-.249.415-.249 0 0 .249 0 .249.249-.249 0-.249.415-.664.415 0 0-.249 0-.249.249s0 0 .249 0 .415-.249.415 0h.249c0 .249-.249.249-.249.249s-.249 0-.249.249-.415.249-.415.415c0 0 .249.249.249 0 .249-.249.415 0 .415-.249h.249s0 .415-.249.249c0 0-.249 0-.415.249h-.249c-.249.249-.415.249-.664.415l-.249.249c-.415.249-.83.415-1.328.664-.249 0-.249 0-.415.249l-.249.249c-.249.249-.664.249-.83.249 0 0 0 .249-.249 0 0 .249-.249 0-.249.249-.249 0-.415 0-.664.249-.249 0-.664.249-.83.249-.249.249-.664 0-.83.249h-.249c-.415 0-.664 0-1.079.249-.249 0-.664 0-.83.249h-3.237c-.249.249-.415 0-.415 0-.249 0-.664.249-.83 0h-.415c-.415 0-.664-.249-1.079-.249h-.249c-.249-.249-.664-.249-1.079-.249-.664 0-1.079-.415-1.743-.664-.249 0-.415-.249-.664-.415-.249-.249-.415 0-.415-.249a3.621 3.621 0 0 0-.83-.664l-.664-.664c-.249-.249-.415-.664-.664-.83 0-.249-.415-.249-.415-.415-.249-.415-.415-.83-.415-1.328-.249-.249 0-.664-.249-.83 0-.249-.249-.249 0-.415V129.199c0-.249.249-.415.249-.83 0-.249 0-.249.249-.415 0-.249 0-.664.249-1.079 0-.249.249-.415.249-.664 0-.249.249-.415.249-.664 0-.249.249-.415.249-.664h.249c0-.249.249-.249.249-.249 0-.249.415-.415.415-.83.249-.415.664-.664.83-1.079.249-.249.249-.415.415-.415 0-.249.249-.249.249-.415.249-.249.415-.664.664-.83.249-.415.664-.415.664-.83.415-.249.415-.83.83-1.079l.664-.664c.249-.249.249-.415.415-.415.249-.249.664-.664.83-1.079 0-.249.249-.249.249-.249.249-.249.415-.415.83-.664.249 0 .249-.249.249-.415.249-.249.415-.249.415-.415.415-.249.415-.664.83-.664.249-.249.415-.249.664-.415.249-.166.415-.415.664-.415.249-.249.415-.415.664-.415h.249c-.83-.747-.581-.498-.415-.498-.166 0 0 0 0 0z"/><path d="M-1000 114.508h23.323v19.256c4.565-1.743 9.047-2.573 13.861-2.573 9.462 0 17.098 2.988 22.908 8.881 6.059 5.81 8.881 13.363 9.047 22.908 0 7.304-2.407 14.027-7.304 20.335-4.98 6.474-12.948 9.96-23.738 10.126H-1000Zm23.323 58.598c2.988.415 5.81.83 7.968.83 4.565 0 7.968-1.079 10.541-3.237 2.573-1.909 3.901-4.731 3.901-8.383 0-3.486-1.328-6.474-3.652-8.632-2.573-1.909-5.81-2.988-10.126-3.237-2.822 0-5.644.415-8.881 1.494v21.165zm48.804-10.375c0-8.217 2.822-15.521 8.383-21.829 5.644-6.474 14.691-9.711 26.975-9.711 12.782.249 21.995 3.652 27.39 10.126 5.395 6.225 8.217 13.363 7.968 21.414 0 8.383-2.822 15.77-8.632 21.829-5.81 6.474-14.691 9.711-26.809 9.711-12.533-.249-21.829-3.652-27.39-10.375-5.312-6.308-8.134-13.446-7.885-21.165Zm23.074 0c0 3.486 1.079 6.225 3.486 8.383 2.158 2.158 5.146 3.237 8.881 3.237 3.652 0 6.723-1.079 8.881-3.237 2.158-2.158 3.486-4.98 3.486-8.383 0-3.403-1.079-6.474-3.486-8.632-2.158-2.158-5.146-3.237-8.881-3.237-3.652 0-6.723 1.079-8.881 3.237-2.158 2.158-3.486 4.897-3.486 8.632zm50.796-48.223h23.323v78.601h-23.323zm41.251 51.46c3.901 0 7.138 1.494 9.711 4.067 2.573 2.573 3.901 6.059 3.901 10.126 0 3.901-1.328 7.304-3.901 9.96-2.573 2.822-5.81 4.067-9.711 4.316-3.901 0-7.138-1.494-9.462-4.316-2.822-2.573-4.067-6.059-4.067-9.96 0-4.067 1.328-7.553 4.067-10.126 2.324-2.822 5.561-4.067 9.462-4.067zm66.898 24.402c-6.889 2.573-13.197 3.901-18.758 3.652-9.96 0-17.928-2.988-24.153-8.632-6.225-5.644-9.296-13.197-9.296-22.493 0-7.968 2.573-15.355 7.968-21.829s13.612-9.96 24.817-10.126c6.474 0 12.782 1.079 19.007 3.237v20.335c-4.98-2.573-9.96-3.901-14.691-3.901-4.067 0-7.553 1.079-9.96 3.237-2.573 2.158-3.901 4.98-3.901 8.632 0 3.652 1.328 6.225 4.067 8.383 2.573 2.158 6.059 3.237 10.375 3.237 3.901 0 8.632-1.079 14.442-3.652v19.92zm4.316-27.639c0-8.217 2.822-15.521 8.383-21.829 5.644-6.474 14.691-9.711 26.975-9.711 12.782.249 21.995 3.652 27.39 10.126 5.395 6.225 8.217 13.363 7.968 21.414 0 8.383-2.822 15.77-8.632 21.829-5.81 6.474-14.691 9.711-26.809 9.711-12.533-.249-21.829-3.652-27.39-10.375-5.229-6.308-8.051-13.446-7.885-21.165zm23.157 0c0 3.486 1.079 6.225 3.486 8.383 2.158 2.158 5.146 3.237 8.881 3.237 3.652 0 6.723-1.079 8.881-3.237 2.158-2.158 3.486-4.98 3.486-8.383 0-3.403-1.079-6.474-3.486-8.632-2.158-2.158-5.146-3.237-8.881-3.237-3.735 0-6.723 1.079-8.881 3.237-2.241 2.158-3.486 4.897-3.486 8.632zm51.792-30.461h23.323v7.968c5.644-6.059 11.869-9.047 19.256-9.047 8.217 0 14.276 3.486 18.592 10.79 6.225-7.138 13.612-10.79 21.995-10.79 6.723 0 11.703 2.407 14.691 6.889 2.988 4.565 4.565 9.96 4.565 16.185v39.093h-23.323v-35.192c0-2.158-.664-4.067-1.743-5.395-1.328-1.328-2.822-1.909-4.98-1.909-3.652.249-6.889 2.158-9.462 6.225v36.105h-23.323v-34.611c0-2.407-.664-4.316-1.743-5.644-1.328-1.328-2.988-1.909-5.146-2.158-3.237.249-6.474 2.158-9.296 6.225v36.105h-23.323V132.27Z"/><path fill="#0071CE" d="M-1214.051 159.607c0-11.061-4.735-20.835-20.75-20.835-8.216 0-14.743 2.342-18.281 4.392l2.593 8.874c3.258-2.044 8.457-3.727 13.364-3.727 8.107-.012 9.435 4.575 9.435 7.523v.71c-17.697-.028-28.885 6.086-28.885 18.54 0 7.609 5.68 14.743 15.608 14.743 6.058 0 11.176-2.445 14.234-6.304h.297s2.016 8.434 13.163 5.21c-.566-3.533-.778-7.254-.778-11.777v-17.349zm-13.203 11.68c0 .894-.075 1.821-.338 2.617-1.02 3.407-4.535 6.258-8.91 6.258-3.692 0-6.59-2.09-6.59-6.47 0-6.699 7.398-8.542 15.838-8.497M-1485 123.721s11.56 47.293 13.398 54.954c2.164 8.955 6.04 12.264 17.228 10.06l7.225-29.326c1.827-7.266 3.07-12.476 4.249-19.88h.2c.819 7.478 1.998 12.614 3.493 19.903 0 0 2.948 13.323 4.477 20.302 1.489 6.98 5.68 11.383 16.656 9l17.2-65.013h-13.885l-5.903 28.124c-1.563 8.148-2.983 14.566-4.088 22.032h-.2c-.997-7.386-2.262-13.54-3.888-21.522l-6.115-28.634h-14.486l-6.527 27.9c-1.86 8.52-3.601 15.351-4.695 22.582h-.189c-1.128-6.784-2.656-15.424-4.277-23.623 0 0-3.876-19.976-5.244-26.859M-1362.181 159.607c0-11.061-4.747-20.835-20.761-20.835-8.193 0-14.732 2.342-18.27 4.392l2.593 8.874c3.247-2.044 8.44-3.727 13.364-3.727 8.107-.012 9.435 4.575 9.435 7.523v.71c-17.697-.028-28.896 6.086-28.896 18.54 0 7.609 5.702 14.743 15.585 14.743 6.114 0 11.187-2.445 14.245-6.304h.309s2.026 8.434 13.163 5.21c-.573-3.533-.767-7.254-.767-11.777v-17.349zm-13.215 11.68c0 .894-.074 1.821-.326 2.617-1.031 3.407-4.546 6.258-8.932 6.258-3.67 0-6.579-2.09-6.579-6.47 0-6.699 7.397-8.542 15.837-8.497M-1354.977 123.721v64.99h13.215v-64.99zM-1173.494 123.721v47.952c0 6.618 1.242 11.233 3.916 14.062 2.348 2.479 6.19 4.093 10.764 4.093 3.928 0 7.77-.755 9.585-1.414l-.16-10.323a21.17 21.17 0 0 1-5.04.584c-4.51 0-6-2.857-6-8.8v-18.356h11.509V139.1h-11.509v-15.379M-1207.65 139.9v48.833h13.662v-25.009c0-1.346.085-2.508.298-3.584 1.019-5.273 5.02-8.611 10.786-8.611 1.61 0 2.703.177 3.917.366v-12.802c-1.02-.183-1.712-.28-2.966-.28-5.113 0-10.907 3.246-13.352 10.317h-.338v-9.23M-1334.088 139.9v48.833h13.311v-28.662c0-1.345.149-2.72.624-3.962 1.083-2.903 3.768-6.264 8.079-6.264 5.359 0 7.89 4.523 7.89 11.05v27.838h13.277v-29.005c0-1.266.178-2.817.55-3.94 1.065-3.292 3.973-5.943 7.993-5.943 5.416 0 8.039 4.426 8.039 12.121v26.767h13.265V159.94c0-15.126-7.695-21.127-16.432-21.127-3.842 0-6.899.945-9.647 2.64-2.325 1.425-4.363 3.435-6.19 6.063h-.2c-2.101-5.256-7.037-8.703-13.484-8.703-8.267 0-12.023 4.174-14.233 7.701h-.2V139.9"/><path fill="#FFC220" d="M-1077.427 137.708c2.611 0 4.81-1.362 5.096-3.114l2.588-29.315c0-2.903-3.418-5.279-7.684-5.279-4.288 0-7.684 2.376-7.684 5.279l2.611 29.315c.275 1.752 2.462 3.114 5.073 3.114M-1093.305 146.881c1.293-2.29 1.219-4.832-.178-5.966l-24.162-16.896c-2.513-1.466-6.275.28-8.428 3.98-2.147 3.692-1.712 7.838.75 9.275l26.75 12.401c1.712.641 3.95-.55 5.268-2.817M-1061.551 146.857c1.368 2.267 3.606 3.458 5.273 2.851l26.75-12.435c2.484-1.466 2.856-5.571.755-9.264-2.147-3.699-5.932-5.434-8.44-3.997l-24.167 16.88c-1.34 1.15-1.437 3.704-.143 5.988M-1077.427 174.326c2.611 0 4.81 1.363 5.096 3.115l2.588 29.314c0 2.903-3.418 5.256-7.684 5.256-4.288 0-7.684-2.353-7.684-5.256l2.611-29.314c.275-1.752 2.462-3.115 5.073-3.115M-1061.551 165.179c1.368-2.273 3.606-3.487 5.273-2.829l26.75 12.413c2.484 1.437 2.856 5.577.755 9.276-2.147 3.67-5.932 5.416-8.44 3.979l-24.167-16.902c-1.34-1.14-1.437-3.681-.143-5.937M-1093.305 165.154c1.293 2.284 1.219 4.82-.178 5.966l-24.162 16.873c-2.513 1.465-6.275-.287-8.428-3.957-2.147-3.693-1.712-7.838.75-9.275l26.75-12.413c1.712-.653 3.95.55 5.268 2.806M-1021.7 185.445h.331c.453 0 .636.144.687.504.098.401.15.67.246.785h.86c-.075-.086-.173-.304-.224-.808-.097-.435-.32-.68-.636-.767v-.08c.436-.097.687-.39.687-.75a.989.989 0 0 0-.297-.71c-.286-.137-.561-.246-1.168-.246-.538 0-.934.046-1.248.12v3.24h.761v-1.288zm.022-1.477.39-.051c.458 0 .704.212.704.51 0 .331-.332.486-.756.486h-.338v-.945zm.487-2.198c-1.878 0-3.367 1.465-3.367 3.263 0 1.844 1.489 3.31 3.367 3.31 1.9 0 3.344-1.466 3.344-3.31 0-1.798-1.443-3.263-3.344-3.263m0 .658c1.442 0 2.513 1.168 2.513 2.605 0 1.449-1.07 2.651-2.513 2.628-1.443 0-2.537-1.18-2.537-2.628 0-1.437 1.094-2.605 2.514-2.605"/><path fill="#e23a05" d="M-1944.4 154.14c-3.96 5.6-10.4 8.92-17.24 8.9-12.24 0-21.48-9.28-21.48-21.58 0-6.16 2.24-11.72 6.3-15.66 3.94-3.82 9.34-5.92 15.18-5.92 6.86-.02 13.3 3.32 17.24 8.92l.64.9 12.74-10.8-.64-.76c-7.46-8.84-18.44-13.94-30-13.9-21.14-.02-38.34 16.68-38.34 37.22 0 20.5 17.2 37.14 38.34 37.14 11.54.06 22.52-5 29.98-13.8l.64-.76-12.74-10.8z"/><path fill="#293847" d="M-1869.46 101.1v75.7h-14.06v-3.32c-4.42 2.6-10.14 4.22-15.86 4.22-15.16 0-27.6-11.44-27.6-28.2 0-17.06 12.44-28.2 27.6-28.2 5.56.02 11 1.44 15.86 4.14V101.1zm-14.06 59.24v-21.9c-3.32-2.8-8.02-4.62-13.34-4.62-9.34 0-16.26 6.72-16.26 15.66 0 9.24 6.92 15.56 16.26 15.56 5.22 0 10.04-1.8 13.34-4.7zm26.08-33.66h13.96v50.12h-13.96zm28.42 35.36c6.72 2.92 11.84 4.42 18.68 4.42 6.42 0 8.94-2.4 8.94-5.22 0-3.12-3.12-4.52-11.54-6.32-11.76-2.6-20.28-6.42-20.28-16.96 0-9.84 8.14-16.66 20.78-16.66 8.54 0 15.36 2 21.28 4.42l-4.62 10.24c-5.32-2-11.54-3.52-16.96-3.52-5.32 0-8.02 1.9-8.02 4.82 0 3.02 3.32 4.42 12.04 6.22 12.64 2.62 19.98 7.02 19.98 16.96 0 10.34-7.94 17.16-21.88 17.16-9.44 0-15.56-1.3-23.58-5.22zm97.16 4.62c-4.92 6.72-12.64 10.94-21.08 10.94-16.46 0-29.82-12.54-29.82-28.1 0-15.66 13.34-28.2 29.82-28.2 8.74 0 16.36 4.22 21.28 10.84l-9.04 8.34c-2.72-4.1-7.32-6.58-12.24-6.62-8.84 0-16.06 7.02-16.06 15.66 0 8.54 7.22 15.56 16.06 15.56 4.96-.04 9.56-2.56 12.24-6.72zm63.82-17.18c0 15.56-13.34 28.1-29.82 28.1s-29.82-12.54-29.82-28.1c0-15.66 13.34-28.2 29.82-28.2s29.82 12.54 29.82 28.2zm-13.74 0c0-8.64-7.12-15.66-16.06-15.66-8.84 0-16.06 7.02-16.06 15.66 0 8.54 7.22 15.56 16.06 15.56 8.92 0 16.06-7.02 16.06-15.56zm74.16-26.74v54.06h-13.96v-3.62c-4.14 2.82-9.24 4.42-14.86 4.42-15.96 0-23.3-7.42-23.3-25.1v-29.76h13.96v29.76c0 8.44 4.14 12.54 11.84 12.54 5.02 0 9.14-1.6 12.34-4.32v-38h13.98zm63.34 23.64v30.42h-13.96v-30.42c0-8.44-4.14-12.54-11.84-12.54-4.92 0-8.94 1.6-12.04 4.32v38.64h-13.96v-54.52h13.96v3.42c4.02-2.82 9.04-4.42 14.56-4.42 15.94 0 23.28 7.44 23.28 25.1zm28.48-12.56v19.28c0 9.74 1.6 12.54 8.64 12.54 2.4 0 4.52-.3 6.42-.5v10.44c-.6.2-4.82 2-12.64 2-9.14 0-16.46-5.72-16.46-17.16v-26.6h-7.72v-11.54h7.72V101.1h14.06v21.18h15.24v11.54z"/><path fill="#e23a05" d="M-1857.98 108.24c0-4.52 3.6-8.24 8.02-8.24s7.94 3.72 7.94 8.24-3.52 8.14-7.94 8.14c-4.46-.04-8.06-3.68-8.02-8.14zM555.6 154.14c-3.96 5.6-10.4 8.92-17.24 8.9-12.24 0-21.48-9.28-21.48-21.58 0-6.16 2.24-11.72 6.3-15.66 3.94-3.82 9.34-5.92 15.18-5.92 6.86-.02 13.3 3.32 17.24 8.92l.64.9 12.74-10.8-.64-.76c-7.46-8.84-18.44-13.94-30-13.9-21.14-.02-38.34 16.68-38.34 37.22 0 20.5 17.2 37.14 38.34 37.14 11.54.06 22.52-5 29.98-13.8l.64-.76-12.74-10.8z"/><path fill="#293847" d="M630.54 101.1v75.7h-14.06v-3.32c-4.42 2.6-10.14 4.22-15.86 4.22-15.16 0-27.6-11.44-27.6-28.2 0-17.06 12.44-28.2 27.6-28.2 5.56.02 11 1.44 15.86 4.14V101.1zm-14.06 59.24v-21.9c-3.32-2.8-8.02-4.62-13.34-4.62-9.34 0-16.26 6.72-16.26 15.66 0 9.24 6.92 15.56 16.26 15.56 5.22 0 10.04-1.8 13.34-4.7zm26.08-33.66h13.96v50.12h-13.96zm28.42 35.36c6.72 2.92 11.84 4.42 18.68 4.42 6.42 0 8.94-2.4 8.94-5.22 0-3.12-3.12-4.52-11.54-6.32-11.76-2.6-20.28-6.42-20.28-16.96 0-9.84 8.14-16.66 20.78-16.66 8.54 0 15.36 2 21.28 4.42l-4.62 10.24c-5.32-2-11.54-3.52-16.96-3.52-5.32 0-8.02 1.9-8.02 4.82 0 3.02 3.32 4.42 12.04 6.22 12.64 2.62 19.98 7.02 19.98 16.96 0 10.34-7.94 17.16-21.88 17.16-9.44 0-15.56-1.3-23.58-5.22zm97.16 4.62c-4.92 6.72-12.64 10.94-21.08 10.94-16.46 0-29.82-12.54-29.82-28.1 0-15.66 13.34-28.2 29.82-28.2 8.74 0 16.36 4.22 21.28 10.84l-9.04 8.34c-2.72-4.1-7.32-6.58-12.24-6.62-8.84 0-16.06 7.02-16.06 15.66 0 8.54 7.22 15.56 16.06 15.56 4.96-.04 9.56-2.56 12.24-6.72zm63.82-17.18c0 15.56-13.34 28.1-29.82 28.1s-29.82-12.54-29.82-28.1c0-15.66 13.34-28.2 29.82-28.2s29.82 12.54 29.82 28.2zm-13.74 0c0-8.64-7.12-15.66-16.06-15.66-8.84 0-16.06 7.02-16.06 15.66 0 8.54 7.22 15.56 16.06 15.56 8.92 0 16.06-7.02 16.06-15.56zm74.16-26.74v54.06h-13.96v-3.62c-4.14 2.82-9.24 4.42-14.86 4.42-15.96 0-23.3-7.42-23.3-25.1v-29.76h13.96v29.76c0 8.44 4.14 12.54 11.84 12.54 5.02 0 9.14-1.6 12.34-4.32v-38h13.98zm63.34 23.64v30.42h-13.96v-30.42c0-8.44-4.14-12.54-11.84-12.54-4.92 0-8.94 1.6-12.04 4.32v38.64h-13.96v-54.52h13.96v3.42c4.02-2.82 9.04-4.42 14.56-4.42 15.94 0 23.28 7.44 23.28 25.1zm28.48-12.56v19.28c0 9.74 1.6 12.54 8.64 12.54 2.4 0 4.52-.3 6.42-.5v10.44c-.6.2-4.82 2-12.64 2-9.14 0-16.46-5.72-16.46-17.16v-26.6h-7.72v-11.54h7.72V101.1h14.06v21.18h15.24v11.54z"/><path fill="#e23a05" d="M642.02 108.24c0-4.52 3.6-8.24 8.02-8.24s7.94 3.72 7.94 8.24-3.52 8.14-7.94 8.14c-4.46-.04-8.06-3.68-8.02-8.14z"/><animateTransform fill="freeze" attributeName="transform" begin="0s;tend.end" dur="5s" from="0 0" to="0 0" type="translate"/><animateTransform fill="freeze" attributeName="transform" begin="t1.end" dur="0.25s" from="0 0" to="500 0" type="translate"/><animateTransform fill="freeze" attributeName="transform" begin="t2.end" dur="5s" from="500 0" to="500 0" type="translate"/><animateTransform fill="freeze" attributeName="transform" begin="t3.end" dur="0.25s" from="500 0" to="1000 0" type="translate"/><animateTransform fill="freeze" attributeName="transform" begin="t4.end" dur="5s" from="1000 0" to="1000 0" type="translate"/><animateTransform fill="freeze" attributeName="transform" begin="t5.end" dur="0.25s" from="1000 0" to="1500 0" type="translate"/><animateTransform fill="freeze" attributeName="transform" begin="t6.end" dur="5s" from="1500 0" to="1500 0" type="translate"/><animateTransform fill="freeze" attributeName="transform" begin="t7.end" dur="0.25s" from="1500 0" to="2000 0" type="translate"/><animateTransform fill="freeze" attributeName="transform" begin="t8.end" dur="5s" from="2000 0" to="2000 0" type="translate"/><animateTransform fill="freeze" attributeName="transform" begin="t9.end" dur="0.25s" from="-500 0" to="0 0" type="translate"/></g></svg>