<svg xmlns="http://www.w3.org/2000/svg" xmlns:xlink="http://www.w3.org/1999/xlink" width="218" height="218"><defs><path id="c" d="M0 0h46.944v47.847H0z"/><path id="e" d="M0 0h38.82v54.167H0z"/><filter id="a" width="158.2%" height="158.2%" x="-29.1%" y="-27.8%" filterUnits="objectBoundingBox"><feOffset dy="2" in="SourceAlpha" result="shadowOffsetOuter1"/><feGaussianBlur in="shadowOffsetOuter1" result="shadowBlurOuter1" stdDeviation="15"/><feColorMatrix in="shadowBlurOuter1" values="0 0 0 0 0.996078431 0 0 0 0 0.819607843 0 0 0 0 0.247058824 0 0 0 0.5 0"/></filter><circle id="b" cx="79" cy="79" r="79"/></defs><g fill="none" fill-rule="evenodd"><g transform="translate(30 28)"><use xlink:href="#b" fill="#000" filter="url(#a)"/><use xlink:href="#b" fill="#FED13F"/></g><g transform="translate(73 75)"><mask id="d" fill="#fff"><use xlink:href="#c"/></mask><path fill="#3E4152" d="M0 8.666h12.771c.06-1.086.036-2.145.19-3.176.5-3.346 3.522-5.722 6.873-5.472 3.27.243 5.876 3.005 5.967 6.335.02.74.003 1.482.003 2.307h12.834v13.024c.69 0 1.319-.017 1.946.003 3.117.1 5.673 2.317 6.252 5.41.551 2.942-1.046 6.03-3.812 7.174-.793.328-1.691.42-2.552.542-.557.079-1.133.015-1.792.015v12.97H25.807c0-.754.015-1.47-.002-2.185-.08-3.4-2.547-6.045-5.965-6.404-3.078-.324-6.115 1.867-6.797 5.03-.244 1.134-.203 2.331-.296 3.558-.117.014-.274.048-.43.048-3.965.003-7.93.003-11.895 0-.14 0-.281-.03-.422-.045V34.803c1.349.035 2.699.13 4.007-.357 2.738-1.019 3.855-3.309 4.513-5.935.09-.358-.085-.796-.181-1.186-.073-.298-.23-.575-.324-.87-.847-2.643-2.607-4.242-5.321-4.67-.883-.14-1.795-.087-2.694-.123V8.666" mask="url(#d)"/></g><g transform="translate(106.403 85.833)"><mask id="f" fill="#fff"><use xlink:href="#e"/></mask><path fill="#3E4152" d="M9.177 40.627v-.931c0-3.817.01-7.633-.012-11.449-.003-.494.155-.68.614-.819 4.497-1.365 7.518-5.464 7.537-10.186.019-4.696-3.013-8.863-7.486-10.225-.537-.163-.688-.396-.665-.929.043-.964-.017-1.932.03-2.896.014-.315.153-.686.36-.92.697-.789 1.45-1.527 2.17-2.272l9.074 9.17c.497-.591.869-1.106 1.311-1.549 1.878-1.88 4.13-2.477 6.629-1.64 2.503.84 3.948 2.693 4.303 5.333.252 1.872-.284 3.555-1.525 4.966-.524.596-1.167 1.084-1.727 1.594l9.03 9.097-9.158 9.209c.571.5 1.112.888 1.548 1.37 2.334 2.584 2.224 6.519-.22 8.932-2.463 2.433-6.318 2.47-8.859.068-.441-.417-.824-.898-1.197-1.31l-8.85 8.927L0 41.985c.347-.316.79-.77 1.289-1.153.196-.15.511-.195.773-.197 2.08-.015 4.159-.008 6.238-.008h.877" mask="url(#f)"/></g></g></svg>