<svg xmlns="http://www.w3.org/2000/svg" xmlns:xlink="http://www.w3.org/1999/xlink" xml:space="preserve" viewBox="0 0 141.639 73.827"><defs><path id="c" d="M-385.9-4297.5h3193.4V8224.7H-385.9z"/></defs><g transform="translate(-861.568 -247.173)"><defs><path d="M865 321c-2.9-1.3-3.6-3.5-3.4-6.5.9-15.4 13.2-28.3 28.9-30.1.5-.1.9-.2 1.4-.3-5.2-1-9.5-3.4-12.6-7.7-3.1-4.3-4.1-9-3.2-14.2 1.6-8.9 10.3-15.5 19.7-15 9.3.6 17 8.1 17.5 17.3.6 9.6-6.1 17.7-16.1 19.6 1.2.2 2.4.4 3.5.6 14.6 2.6 26 15.5 26.7 30.1.1 2.9-.8 5-3.5 6.2z" id="a"/></defs><use height="100%" width="100%" xlink:href="#a" clip-rule="evenodd" overflow="visible" fill="#fdd03f" fill-rule="evenodd"/><clipPath id="b"><use height="100%" width="100%" xlink:href="#a" overflow="visible"/></clipPath><g clip-path="url(#b)"><use height="100%" width="100%" xlink:href="#c" overflow="visible" fill="#fdd03f"/><clipPath id="d"><use height="100%" width="100%" xlink:href="#c" overflow="visible"/></clipPath><path clip-path="url(#d)" fill="#fdd03f" d="M859.5 245.2h70V323h-70z"/></g></g><g transform="translate(-861.568 -247.173)"><defs><path d="M940.8 321c-2.9-1.3-3.6-3.5-3.4-6.5.9-15.4 13.2-28.3 28.9-30.1.5-.1.9-.2 1.4-.3-5.2-1-9.5-3.4-12.6-7.7-3.1-4.3-4.1-9-3.2-14.2 1.6-8.9 10.3-15.5 19.7-15 9.3.6 17 8.1 17.5 17.3.6 9.6-6.1 17.7-16.1 19.6 1.2.2 2.4.4 3.5.6 14.6 2.6 26 15.5 26.7 30.1.1 2.9-.8 5-3.5 6.2z" id="e"/></defs><use height="100%" width="100%" xlink:href="#e" clip-rule="evenodd" overflow="visible" fill="#fdd03f" fill-rule="evenodd"/><clipPath id="f"><use height="100%" width="100%" xlink:href="#e" overflow="visible"/></clipPath><g clip-path="url(#f)"><defs><use id="g" xlink:href="#c"/></defs><use height="100%" width="100%" xlink:href="#g" overflow="visible" fill="#fdd03f"/><clipPath id="h"><use height="100%" width="100%" xlink:href="#g" overflow="visible"/></clipPath><path clip-path="url(#h)" fill="#fdd03f" d="M935.2 245.2h70V323h-70z"/></g></g></svg>