<svg xmlns="http://www.w3.org/2000/svg" xmlns:xlink="http://www.w3.org/1999/xlink" xml:space="preserve" viewBox="0 0 94.419 94.418"><g transform="translate(-348.1 -906.4)"><defs><path d="M392.4 906.4h5.9c1.6.2 3.2.4 4.7.6 10.7 1.8 19.8 6.6 27 14.6 9.9 10.9 13.9 23.8 12.1 38.3-1.4 11.2-6.4 20.7-14.7 28.3-10.9 10-23.8 14-38.4 12.2-8.7-1.1-16.5-4.5-23.3-10-9.1-7.4-14.8-16.9-16.9-28.5-.3-1.7-.5-3.5-.7-5.3v-5.9c.1-.3.1-.5.2-.8.3-2.2.5-4.3 1-6.5 3.8-18.3 19.4-33.3 37.9-36.3 1.7-.2 3.4-.4 5.2-.7zm-11.6 43.5h29c-.2-2.4-.4-4.8-.5-7-5-.7-8.4-3.1-9.8-7.8-1.5-5.1.3-9.3 4.6-12.4-1.3-2.6-2.7-5.1-4.9-7.1-2.6-2.3-5-2.3-7.6.1-.5.4-1 .9-1.3 1.4-1 1.4-2 2.8-2.8 4.2-2.7 5.1-4.2 10.5-5.1 16.2-.8 4-1.1 8.2-1.6 12.4zm5.8 34.9c1 1.6 1.9 3.3 3.1 4.8.9 1.2 2.1 2.2 3.3 3.1 1.4 1 3.1 1 4.6.1 1.1-.7 2.1-1.5 2.9-2.5 2.3-2.7 3.7-5.8 5-9.1 2.2-5.9 3.3-11.9 3.9-18.1.2-1.9.3-3.8.4-5.7H381c.1 1.2.1 2.4.2 3.5.1 1.2.2 2.4.3 3.5 5.2.8 8.7 3.6 9.9 8.1 1.3 5.1-.5 9.1-4.8 12.3zm48.4-27.4h-17.8c-.6 11.7-2.3 23-8 33.5 12.3-4.1 24.4-16.9 25.8-33.5zm-53.6-41c-7.4 2.7-13.4 7.3-18.1 13.6-4.4 5.9-6.9 12.6-7.6 19.9h17.9c.6-11.7 2.3-23 7.8-33.5zm.2 74.6c-.7-1.4-1.3-2.8-2-4.1-.2-.3-.6-.7-1-.8-4.2-1-7-3.5-8.2-7.6-1.2-4.1-.3-7.8 2.8-10.8.8-.8 1.2-1.5 1-2.7-.3-2.5-.5-5.1-.7-7.6h-17.8c1.1 14.8 11.9 28.7 25.9 33.6zm53.4-41.1c-.9-8.9-4.3-16.6-10.3-23.2-4.3-4.7-9.5-8.2-15.6-10.5.8 1.6 1.5 3.1 2.2 4.5.1.2.4.3.7.4 4.4 1 7.3 3.7 8.4 8 1.1 4.4-.1 8.1-3.5 11.1-.3.2-.5.7-.4 1.1.1 1.9.3 3.7.5 5.6.1 1 .1 2 .2 3zm-25.2-14.5c2 0 3.6-1.6 3.6-3.5s-1.5-3.5-3.5-3.6c-2 0-3.6 1.5-3.7 3.5 0 2 1.7 3.6 3.6 3.6zM380.9 979c2 0 3.6-1.6 3.5-3.6 0-1.9-1.6-3.5-3.5-3.5-2 0-3.6 1.6-3.6 3.5 0 2 1.6 3.6 3.6 3.6z" id="a"/></defs><use height="100%" width="100%" xlink:href="#a" clip-rule="evenodd" overflow="visible" fill="#69d5bd" fill-rule="evenodd"/><clipPath id="b"><use height="100%" width="100%" xlink:href="#a" overflow="visible"/></clipPath><g clip-path="url(#b)"><defs><path id="c" d="M348.1 906.4h94.4v94.4h-94.4z"/></defs><use height="100%" width="100%" xlink:href="#c" overflow="visible" fill="#69d5bd"/><clipPath id="d"><use height="100%" width="100%" xlink:href="#c" overflow="visible"/></clipPath><path clip-path="url(#d)" fill="#69d5bd" d="M345.9 904.2h98.8v98.8h-98.8z"/></g></g></svg>