<svg xmlns="http://www.w3.org/2000/svg" xml:space="preserve" viewBox="0 0 120 80"><path fill="#80cc28" d="M0 0h120v80H0V0"/><path fill="#fff" d="M46.735 18.475a64.52 64.52 0 0 1 3.167.318c.407.051.795-.127.863-.402.22-.843.331-1.268.545-2.12.07-.277.276-.25.45.06.552.95.822 1.43 1.347 2.394.174.314.64.615 1.035.695 1.173.239 1.6.346 3.02.725.392.105.455.283.171.382-.873.303-1.324.386-2.225.753-.29.116-.395.474-.235.792.486.969.716 1.487 1.164 2.525.149.34.008.377-.313.092-.986-.866-1.499-1.191-2.534-1.917-.345-.24-.862-.328-1.156-.204-.883.384-1.323.654-2.22 1.056-.294.134-.47.02-.396-.246.231-.823.347-1.306.572-2.128.072-.268-.16-.668-.519-.88a60.492 60.492 0 0 0-2.814-1.592c-.37-.2-.337-.334.078-.303m-12.481 9.133a42.202 42.202 0 0 1 3.443-.601c.432-.062.871-.32.975-.604.314-.88.462-1.316.77-2.184.1-.28.313-.293.47-.034a83.77 83.77 0 0 1 1.225 2.062c.158.27.627.508 1.035.483 1.358-.08 1.672-.16 3.05-.228.398-.02.448.136.166.319-1.057.685-1.38.966-2.317 1.53-.3.181-.449.52-.297.804.457.85.682 1.282 1.121 2.161.146.29-.011.369-.35.179a27.655 27.655 0 0 0-2.62-1.335c-.354-.165-.91-.14-1.236.056-.99.592-1.321.805-2.652 1.638-.37.23-.55.195-.412-.16.43-1.105.58-1.372.934-2.254.115-.287-.108-.63-.482-.744a26.26 26.26 0 0 0-2.947-.75c-.389-.079-.335-.234.124-.338M27.656 39.19a35.463 35.463 0 0 1 3.364-.145c.422-.001.934-.23 1.144-.519.655-.887.977-1.326 1.618-2.196.207-.28.407-.27.449.025.12.91.178 1.371.275 2.298.032.299.378.57.755.623 1.315.183 1.525.218 2.85.464.358.066.366.226.024.343-1.06.352-1.602.55-2.715.977-.36.14-.683.51-.678.815.006.939.007 1.412-.005 2.368-.007.315-.195.387-.424.163a28.973 28.973 0 0 0-1.816-1.634c-.249-.204-.78-.231-1.179-.061-1.215.527-1.832.81-3.082 1.393-.41.193-.555.108-.309-.197.736-.924 1.107-1.382 1.83-2.29.242-.296.207-.687-.073-.859a20.063 20.063 0 0 0-2.286-1.236c-.31-.143-.19-.296.258-.333m22.4 15.44c-.916.523-1.418.865-2.392 1.55-.316.221-.51.7-.43 1.059a99.86 99.86 0 0 1 .593 2.83c.076.383-.088.508-.364.274a53.651 53.651 0 0 0-2.095-1.72c-.277-.218-.771-.191-1.096.062-.992.763-1.49 1.159-2.495 1.968-.333.27-.47.158-.316-.236.476-1.201.71-1.784 1.17-2.924.152-.373.043-.835-.244-1.027a41.644 41.644 0 0 0-2.21-1.403c-.29-.172-.214-.351.165-.402a53.66 53.66 0 0 1 2.915-.3c.376-.031.8-.34.94-.685.442-1.081.66-1.609 1.081-2.623.138-.332.322-.335.41-.015.27.987.402 1.49.665 2.525.084.335.456.604.82.597 1.128-.024 1.693-.048 2.79.081.357.037.39.221.093.389m15.057 1.699c-.805.264-1.207.407-2.023.7-.267.095-.39.442-.273.77.357.992.541 1.488.916 2.483.126.327-.012.387-.305.127a78.241 78.241 0 0 1-2.172-1.987c-.285-.266-.734-.394-1.008-.278-.83.35-1.249.533-2.103.932-.283.133-.426-.006-.32-.305l.8-2.19c.104-.283-.038-.729-.312-.997-.836-.833-1.25-1.252-2.073-2.085-.264-.271-.211-.408.119-.304 1.024.323 1.536.486 2.556.815.328.109.676-.022.774-.281.299-.81.445-1.201.733-1.975.091-.246.252-.19.357.13.326.984.492 1.479.829 2.475.109.322.468.677.8.782 1.028.338 1.538.504 2.568.838.333.109.394.263.137.35m13.512-3.994c-.9.345-1.32.525-2.191.865-.282.109-.39.454-.236.77.461.958.699 1.436 1.19 2.38.159.306.015.374-.322.134-1.022-.726-1.524-1.09-2.494-1.963-.32-.287-.8-.456-1.076-.367-.831.264-1.246.393-2.072.664-.274.089-.431-.06-.353-.328.25-.816.375-1.218.623-2.015.087-.266-.1-.714-.4-1.008-.936-.91-1.396-1.377-2.299-2.295-.293-.302-.25-.427.099-.287 1.073.442 1.607.657 2.695 1.072.352.137.713.037.796-.217.26-.798.395-1.193.666-1.983.087-.257.26-.188.39.143a114.82 114.82 0 0 0 1.026 2.587c.14.336.544.706.912.831 1.124.378 1.711.443 2.882.682.378.072.45.223.164.335m8.815-8.973c-.86.598-1.282.875-2.116 1.383-.265.165-.386.503-.265.752.375.759.565 1.132.949 1.864.13.245-.007.313-.298.155-.88-.472-1.313-.73-2.162-1.28-.282-.182-.715-.237-.97-.122-.773.35-1.153.515-1.904.836-.248.107-.384.003-.302-.226.239-.7.363-1.05.615-1.757.081-.231-.067-.59-.34-.799-.82-.648-1.22-1.03-2.016-1.727-.258-.226-.217-.342.097-.271.96.237 1.446.342 2.436.511.324.053.66-.121.748-.386.276-.823.418-1.24.704-2.098.096-.273.258-.26.364.031.33.908.508 1.36.85 2.258.11.29.476.551.813.566 1.045.047 1.574.051 2.662-.008.351-.017.41.121.135.318m7.155-13.599a96.63 96.63 0 0 1-2.064 2.11c-.266.263-.408.674-.32.915.28.723.42 1.08.718 1.775.095.225-.038.363-.302.298-.8-.194-1.19-.31-1.952-.586-.247-.092-.665.032-.923.272-.79.728-1.205 1.083-1.936 1.729-.238.21-.36.147-.275-.13.264-.856.472-1.318.792-2.22.107-.298-.002-.634-.24-.748a23.162 23.162 0 0 1-1.797-.974c-.228-.134-.175-.28.118-.325a27.017 27.017 0 0 0 2.31-.46c.304-.075.644-.394.754-.703.337-.964.504-1.45.85-2.438.107-.323.263-.37.34-.105.239.821.364 1.222.617 2.01.083.252.412.373.726.266.98-.34 1.477-.527 2.478-.947.327-.13.376-.015.106.26m-15.558-8.959c.846.073 1.174.053 2.166.02.288-.01.587-.258.667-.562.245-.936.372-1.42.626-2.423.083-.323.229-.342.323-.043.293.932.44 1.376.735 2.253.095.28.408.457.702.457.789 0 1.292-.026 2.282-.075.298-.015.365.102.108.305-.728.572-1.104.769-1.817 1.338-.243.194-.337.597-.24.862.297.8.447 1.191.75 1.958.101.253-.012.35-.253.222a41.708 41.708 0 0 1-1.817-1.027c-.238-.14-.617-.1-.84.085-.676.565-1.01.837-1.67 1.346-.216.165-.335.068-.264-.186.214-.767.323-1.174.551-2.014.075-.275-.065-.618-.295-.782-.74-.53-1.088-.83-1.798-1.425-.233-.195-.195-.333.084-.309m-15.691-3.025c.996.285 1.491.429 2.476.717.324.091.655-.04.74-.291.269-.789.402-1.193.682-2.026.089-.265.257-.23.366.089.338.986.5 1.48.825 2.458.103.316.447.648.764.742.99.287 1.479.425 2.466.704.32.092.367.253.105.363a54.19 54.19 0 0 1-1.98.78c-.254.096-.378.424-.281.735.298.945.442 1.41.735 2.334.095.303-.031.348-.28.091a179.496 179.496 0 0 0-1.896-1.922c-.25-.252-.662-.388-.905-.305-.744.252-1.109.371-1.839.597-.237.077-.37-.05-.29-.28.246-.695.373-1.046.622-1.77.083-.236-.063-.635-.324-.881a67.672 67.672 0 0 0-2.072-1.868c-.274-.242-.235-.357.086-.267m39.004-.591c-.724.66-1.105 1.002-1.88 1.713-.254.231-.394.586-.307.78.266.59.404.875.698 1.421.098.178-.034.303-.293.273-.78-.088-1.16-.152-1.914-.301-.248-.05-.664.106-.932.352-.81.743-1.219 1.12-2.046 1.868-.271.242-.396.214-.278-.07.362-.859.545-1.292.9-2.15.12-.282.021-.573-.216-.649a19.52 19.52 0 0 1-1.799-.635c-.228-.092-.167-.239.142-.328a84.742 84.742 0 0 0 2.361-.706c.307-.095.649-.407.768-.69.356-.885.538-1.325.889-2.208.118-.285.262-.322.327-.086.2.717.308 1.064.537 1.734.074.217.378.307.678.214a277.03 277.03 0 0 1 2.27-.743c.287-.094.33.002.096.211M70.347 32.88c.529-.14.604-.41-.021-.377-1.073.053-13.568 2.93-24.398 9.247C34.143 48.625 30.58 52.05 28.064 54c-.666.516-1.158.525-1.276.21-.402-1.072-.654-1.683-.982-2.688-.1-.306-.39-.272-.519.155-.441 1.456-.652 2.344-1.082 3.657-.136.42-.28.883-1.063 1.427-1.546 1.076-1.868 1.286-2.832 1.943-.35.238-.532.5.167.626.671.122.804.147 1.711.314.724.133.485.623.382 1.05a36.925 36.925 0 0 1-.812 2.96c-.132.411.037.464.373.114 1.03-1.075 1.363-1.437 2.45-2.57.41-.427.793-.916 1.223-.839 1.062.191 1.19.224 2.679.505.66.125.656-.179.48-.613-.51-1.262-.415-1.096-.802-2.164-.124-.342-.145-.98.24-1.355 6.21-6.041 8.78-8.014 17.314-13.58 6.684-4.36 15.568-7.823 24.632-10.271"/></svg>