<?xml version="1.0" encoding="UTF-8"?><svg width="51px" height="56px" viewBox="0 0 51 56" version="1.1" xmlns="http://www.w3.org/2000/svg" xmlns:xlink="http://www.w3.org/1999/xlink"><defs><polygon id="a" points="-7.15308695e-16 0 50 0 50 55 -7.15308695e-16 55"/></defs><g stroke="none" stroke-width="1" fill="none" fill-rule="evenodd"><g transform="translate(-631.000000, -2545.000000)"><g transform="translate(590.903084, 2511.843066)"><g transform="translate(40.156664, 33.843336)"><g transform="translate(0.500000, 0.000000)"><g><mask id="b" fill="white"><use xlink:href="#a"/></mask><g/><path d="M3.80193151,14.8165053 C3.80193151,14.9018603 3.80072346,14.9659781 3.80213285,15.0300959 C3.88055536,18.817418 4.31847312,22.5637899 5.12263107,26.2619973 C6.15692234,31.0186063 7.86248617,35.5068552 10.497845,39.6087712 C13.9889053,45.0427329 18.7142896,48.8994566 24.8144336,50.9882147 C24.964735,51.0396309 25.1636604,51.0373955 25.3136599,50.984455 C26.9705997,50.3995703 28.5353252,49.6068868 30.043977,48.7138096 C33.4105075,46.7211775 36.1728122,44.0482459 38.4658905,40.8787313 C42.3534929,35.5050262 44.5324105,29.4278538 45.5810977,22.9122211 C45.8954925,20.9594213 46.038747,18.9779666 46.2398871,17.0074861 C46.3156922,16.2647962 46.3335109,15.5161112 46.3790141,14.750152 C45.8734456,14.618563 45.381971,14.4925628 44.8915031,14.3627014 C41.5427913,13.476229 38.2224687,12.5012517 35.0394609,11.1056979 C31.6400111,9.61533914 28.4648556,7.75785238 25.671947,5.27138077 C25.0008758,4.67399759 25.1837946,4.70265247 24.5863137,5.27575014 C22.6955157,7.08964489 20.6115305,8.62979406 18.3497608,9.93694448 C14.4420243,12.195498 10.2243226,13.5619904 5.82581625,14.4182837 C5.15514772,14.5488565 4.48508321,14.6820712 3.80193151,14.8165053 M-7.15308695e-16,11.8929959 C0.520870456,11.8179039 1.04083487,11.7343779 1.56301405,11.6689391 C5.55481059,11.1690028 9.45952694,10.3148435 13.1979352,8.77571041 C17.4820796,7.01180929 21.1753874,4.41031169 24.2125232,0.875091683 C24.4611799,0.585697685 24.7208098,0.305956927 24.9948356,0 C25.0716474,0.0719420473 25.1437276,0.137584085 25.2137945,0.205258384 C26.1909048,1.14965017 27.1548272,2.10816618 28.1473401,3.03558859 C29.814045,4.59301198 31.7497422,5.74947023 33.7676873,6.76773471 C36.9008631,8.34863072 40.2085012,9.45915986 43.5821793,10.37195 C45.6545874,10.9326509 47.7438074,11.43025 49.8251752,11.9572154 C49.886383,11.9727622 49.9445707,12.0008074 49.9911812,12.0182848 C49.9911812,13.1739302 50.0132281,14.3149432 49.9876578,15.4547369 C49.8195376,22.9587599 48.3125972,30.1562162 45.0834822,36.9466107 C42.9044639,41.52875 39.9799786,45.5498837 36.1365707,48.8621647 C32.9632274,51.5970802 29.3899192,53.6090188 25.4128205,54.8879208 C25.3173847,54.9186079 25.2259756,54.9624032 25.1326538,55 L24.9658424,55 C24.874232,54.9616919 24.7849371,54.9154579 24.6905079,54.886295 C20.9140461,53.719269 17.4612408,51.9304726 14.3913869,49.41118 C10.1547591,45.9343875 7.05893225,41.5809791 4.77098814,36.6118972 C3.15683335,33.106145 2.02700553,29.4411651 1.2651293,25.656485 C0.794594222,23.3188766 0.419092328,20.9656197 0.281576085,18.5838095 C0.162482589,16.5213692 0.11959685,14.4544579 0.0410736656,12.3895789 C0.0361407989,12.26114 0.0140939049,12.1333108 -7.15308695e-16,12.0052783 C-7.15308695e-16,11.9678847 -7.15308695e-16,11.9304911 -7.15308695e-16,11.8929959" fill="#69D5BD" mask="url(#b)"/></g><path d="M21.9488735,37 C19.2702972,34.226565 16.6271064,31.4897815 14,28.7697389 C14.729351,28.0285845 15.5446801,27.1998626 16.3621537,26.3689613 C18.247919,28.2862352 20.1591267,30.2293634 22.0970442,32.1997325 C26.3140618,28.4552287 30.4909173,24.7463859 34.7100795,21 C35.4810548,21.8770624 36.2181068,22.7156902 37,23.6053331 C31.964144,28.0869299 26.9675728,32.5336582 21.9488735,37" fill="#69D5BD"/></g></g></g></g></g></svg>