<svg width="66" height="66" xmlns="http://www.w3.org/2000/svg" xmlns:xlink="http://www.w3.org/1999/xlink"><defs><path id="a" d="M0 0h66v66H0z"/></defs><g fill="none" fill-rule="evenodd"><g><mask id="b" fill="#fff"><use xlink:href="#a"/></mask><path d="M48.356 15.11 45.873 6.88c3.13 1.54 5.8 3.53 8.256 6.09l-5.773 2.139Zm-13.39 2.177V3.847c1.65.278 3.24.565 4.838.807.799.121 1.248.492 1.499 1.3 1.005 3.229 2.078 6.437 3.122 9.653.04.12.047.25.082.445-3.13.735-6.283 1.099-9.54 1.235Zm-3.929-.101c-1.103.244-7.064-.468-9.548-1.156.248-.96.441-1.94.757-2.881a453.168 453.168 0 0 1 2.687-7.704c.075-.213.26-.491.448-.545 1.837-.518 3.706-.853 5.656-.94v13.226Zm-.005 13.827H19.369l1.143-11.02 10.52 1.323v9.697ZM20.1 58.973c-1.464-.242-6.648-4.01-8.157-5.976l5.712-2.12 2.445 8.097ZM4.026 34.962H15.48l1.276 12.106-7.4 2.798c-2.392-2.17-5.579-10.999-5.33-14.904ZM9.324 16.11l7.432 2.811-1.278 12.108H4.03c.022-4.389 2.071-10.752 5.294-14.92ZM20.138 6.88l-2.48 8.225-5.771-2.132c2.433-2.548 5.11-4.544 8.251-6.093Zm45.343 20.37c-2-10.446-7.685-18.246-16.983-23.377C44.446 1.637 40.063.419 35.436.106 35.27.094 35.105.036 34.94 0h-3.867c-1.251.167-2.514.278-3.753.511-10.435 1.97-18.245 7.63-23.383 16.895C1.02 22.666-.327 28.389.067 34.385c.86 13.106 7.253 22.65 19.014 28.498 4.795 2.385 9.968 3.389 15.306 3.054 7.555-.473 13.953-2.84 19.173-7.07a17.801 17.801 0 0 0-.308-.287c-.241-.174-.463-.374-1.02-.91a89.484 89.484 0 0 0-1.602-1.514 28.191 28.191 0 0 1-4.757 2.947l.94-3.114a14.455 14.455 0 0 1-4.322.558 635.037 635.037 0 0 1-1.42 4.005c-.08.223-.31.507-.515.55-1.82.384-3.649.719-5.586 1.09v-7.956a14.444 14.444 0 0 1-3.436-3.101 14.327 14.327 0 0 1-.503-.672v11.564c-1.96-.085-3.847-.44-5.707-.944-.118-.032-.244-.175-.294-.296-1.438-3.49-2.659-7.053-3.499-10.74-.004-.02.006-.042.02-.125 2.757-.642 5.566-1.006 8.436-1.17a14.516 14.516 0 0 1-1.338-3.78l-7.993 1c-.672-3.535-1.033-7.232-1.142-11.023h10.705c.536-.95 1.18-1.843 1.927-2.657a14.684 14.684 0 0 1 2.835-2.394v-8.586c3.43-.43 6.868-.859 10.375-1.297.49 2.586.815 5.258.996 7.986a14.66 14.66 0 0 1 4.037 1.678l-1.13-10.76 7.459-2.821c3.161 4.417 4.942 9.394 5.332 14.93h-9.792a14.555 14.555 0 0 1 3.204 3.935h6.532c-.074 4.38-1.953 10.177-4.759 14.164l.216.183c.442.369.898.751 2.645 2.424a41.396 41.396 0 0 0 2.026-3.25c2.257-4.018 3.447-8.396 3.769-13.001.013-.187.071-.371.11-.556V31.06c-.171-1.27-.28-2.552-.52-3.809Z" fill="#7ADCC7" mask="url(#b)"/></g><path d="M49.679 50.922c-5.594 3.932-12.471 2.431-16.11-2.07-3.595-4.444-3.403-10.87.49-15.073 3.936-4.252 10.332-4.992 15.159-1.832 4.527 2.965 7.302 9.897 3.106 16.307.173.115.396.222.567.385 3.63 3.452 1.71 1.419 5.34 4.87.551.526.878 1.126.736 1.893-.136.731-.569 1.263-1.288 1.49-.73.23-1.418.1-1.989-.443-1.19-1.13-.294-.198-1.481-1.331-2.655-2.533-1.85-1.638-4.53-4.196" fill="#7ADCC7"/></g></svg>