<svg width="66" height="66" xmlns="http://www.w3.org/2000/svg" xmlns:xlink="http://www.w3.org/1999/xlink"><defs><path id="a" d="M0 0h66v66H0z"/></defs><g fill="none" fill-rule="evenodd"><path d="M32.716 50.178v-1.67c-.418.118-.7.325-.738.793-.044.546.314.703.738.877Zm1.565 2.69v1.686c.468-.09.82-.303.853-.852.036-.605-.436-.638-.853-.834ZM33.169 58c-.267-.283-.452-.593-.441-1.041.002-.126-.203-.325-.346-.377-.563-.204-1.15-.328-1.707-.548-.586-.231-.807-.795-.598-1.351.203-.542.667-.726 1.242-.513.447.166.9.312 1.426.493 0-.759.013-1.398-.011-2.035-.005-.115-.144-.268-.254-.325-.283-.147-.593-.23-.877-.375-2.182-1.109-1.757-3.842-.42-4.834.377-.28.835-.423 1.242-.658.13-.074.29-.23.309-.368.096-.748.304-1.067.76-1.068.485 0 .742.371.77 1.113.002.054.014.108.02.16.594.167 1.194.292 1.765.507.644.243.816 1.053.382 1.61-.24.306-.525.404-.89.277-.39-.136-.795-.226-1.242-.35v2.346c1.463.444 2.82 1.095 2.693 3.2-.088 1.463-.907 2.273-2.48 2.726L33.766 58h-.597ZM33.498 13.622c.994 0 1.825-.815 1.83-1.795.006-.979-.813-1.799-1.811-1.813-1.008-.015-1.866.825-1.857 1.818.01.975.847 1.791 1.838 1.79Zm-10.833-1.78a1.815 1.815 0 0 0-1.789-1.827 1.813 1.813 0 0 0-1.858 1.802 1.817 1.817 0 0 0 1.81 1.806c.997.008 1.829-.798 1.837-1.781Zm21.662-.008c.006.986.829 1.792 1.826 1.789.998-.004 1.821-.815 1.824-1.797.003-1.004-.844-1.831-1.856-1.812a1.81 1.81 0 0 0-1.794 1.82Zm-2.713 8.352h9.051c.133-2.424-1.968-4.535-4.489-4.552-2.524-.017-4.67 2.102-4.562 4.552Zm-3.553.01c-.064-1.762-.793-3.108-2.308-3.955-1.62-.906-3.273-.837-4.817.188-1.325.878-1.978 2.148-1.984 3.767h9.109Zm-12.665 0c-.049-1.74-.764-3.073-2.255-3.928-1.596-.915-3.23-.874-4.782.109-1.38.874-2.041 2.17-2.076 3.82h9.113Zm8.1 4.097h12.748c1.735 0 3.47-.008 5.205.007.37.003.531-.106.505-.48-.02-.282-.003-.565-.003-.847 0-.723 0-.724-.723-.724H15.75c-.08 0-.16.009-.239 0-.388-.048-.508.138-.482.495.021.297.004.596.004.894 0 .654.001.655.652.655h17.81Zm2.577 17.159c.01-.21.023-.36.023-.513.003-.925 0-1.85.003-2.776.002-.848.32-1.534.995-2.09 3.727-3.063 7.44-6.141 11.16-9.215.175-.145.348-.295.577-.49H18.164c.203.175.332.288.465.398 3.706 3.063 7.405 6.135 11.126 9.18.788.645 1.158 1.412 1.133 2.409-.024 1.016-.005 2.033-.005 3.112a8.74 8.74 0 0 1 5.19-.015Zm7.113-27.147c-1.32-2.024-1.156-3.997.424-5.363 1.418-1.227 3.554-1.257 5-.07 1.647 1.35 1.836 3.29.515 5.421.104.066.207.134.313.199 2.116 1.28 3.228 3.141 3.308 5.59.008.253.06.42.292.576.632.426.938 1.05.953 1.803.011.549.013 1.098 0 1.647-.023.964-.606 1.737-1.52 2.08a2.308 2.308 0 0 0-.651.363c-4.421 3.643-8.834 7.294-13.257 10.934-.312.257-.438.528-.433.926.02 1.444.01 2.888.008 4.332-.002 1.101-.705 1.53-1.697 1.05-1.974-.954-3.95-.957-5.92.017-.942.466-1.665.05-1.67-.98a404.28 404.28 0 0 1 .003-4.473.998.998 0 0 0-.398-.85c-4.434-3.65-8.86-7.312-13.293-10.965a2.104 2.104 0 0 0-.61-.344c-.95-.346-1.53-1.112-1.548-2.1-.01-.55-.004-1.099 0-1.648.004-.76.343-1.347.943-1.815.138-.108.28-.309.285-.47.066-2.575 1.242-4.485 3.493-5.77.04-.022.075-.055.11-.085.012-.01.016-.027.024-.04-1.587-2.072-.818-4.238.409-5.305 1.416-1.23 3.537-1.29 5.001-.118 1.67 1.339 1.869 3.26.544 5.462 1.605.845 2.72 2.121 3.355 3.926.633-1.807 1.744-3.08 3.346-3.92-1.295-2.323-1.087-4.202.588-5.49a3.895 3.895 0 0 1 5.031.201c1.494 1.36 1.623 3.308.325 5.274 1.607.85 2.735 2.117 3.357 3.925.636-1.786 1.747-3.077 3.37-3.92ZM44.513 43.582v-.458c0-2.69-.003-1.242.001-3.933.002-1.005.543-1.808 1.388-2.09 1.278-.427 2.58.556 2.586 1.98.012 2.737.004 1.333.004 4.069v.432c.57 0 1.104-.012 1.636.003.573.017.935.423.863.97-.022.169-.1.35-.203.482a590.513 590.513 0 0 1-3.625 4.606c-.386.485-.941.472-1.327-.015-1.206-1.522-2.406-3.05-3.608-4.576-.223-.283-.3-.598-.153-.943.152-.355.433-.52.795-.525.534-.007 1.067-.002 1.643-.002M17.513 43.582v-.458c0-2.69-.003-1.242.001-3.933.002-1.005.543-1.808 1.388-2.09 1.278-.427 2.58.556 2.586 1.98.012 2.737.004 1.333.004 4.069v.432c.57 0 1.104-.012 1.636.003.573.017.935.423.863.97-.022.169-.1.35-.203.482a590.513 590.513 0 0 1-3.625 4.606c-.386.485-.941.472-1.327-.015-1.206-1.522-2.406-3.05-3.608-4.576-.223-.283-.3-.598-.153-.943.152-.355.433-.52.795-.525.534-.007 1.067-.002 1.643-.002" fill="#7ADCC7"/><g><mask id="b" fill="#fff"><use xlink:href="#a"/></mask><path d="M63.406 32.982c-.007-16.797-13.596-30.4-30.39-30.423-16.8-.021-30.445 13.624-30.438 30.439.007 16.797 13.596 30.401 30.39 30.423 16.8.021 30.445-13.624 30.438-30.439M0 31.056c.167-1.25.29-2.506.507-3.746C1.841 19.665 5.47 13.29 11.267 8.165 16.19 3.815 21.932 1.139 28.45.311c10.23-1.3 19.26 1.475 26.9 8.437 5.356 4.879 8.681 10.951 10.058 18.074 3.314 17.136-7.595 34.157-24.526 38.214-1.765.423-3.595.574-5.394.853-.188.029-.375.074-.562.111h-3.866c-.87-.104-1.743-.192-2.611-.315-6.506-.92-12.257-3.52-17.18-7.87-5.8-5.123-9.427-11.5-10.76-19.145C.29 37.43.166 36.173 0 34.924v-3.868" fill="#7ADCC7" mask="url(#b)"/></g></g></svg>