<?xml version="1.0" encoding="UTF-8" standalone="no"?><svg width="198" height="38" viewBox="0 0 198 38" fill="none" version="1.1" sodipodi:docname="syndigo.svg" inkscape:version="1.3 (0e150ed6c4, 2023-07-21)" xmlns:inkscape="http://www.inkscape.org/namespaces/inkscape" xmlns:sodipodi="http://sodipodi.sourceforge.net/DTD/sodipodi-0.dtd" xmlns="http://www.w3.org/2000/svg" xmlns:svg="http://www.w3.org/2000/svg"><defs/><sodipodi:namedview pagecolor="#ffffff" bordercolor="#000000" borderopacity="0.25" inkscape:showpageshadow="2" inkscape:pageopacity="0.0" inkscape:pagecheckerboard="0" inkscape:deskcolor="#d1d1d1" inkscape:zoom="6.9545455" inkscape:cx="99" inkscape:cy="19.052288" inkscape:window-width="2560" inkscape:window-height="1387" inkscape:window-x="1912" inkscape:window-y="-8" inkscape:window-maximized="1" inkscape:current-layer="svg3"/><path d="M96.4466 9.69514V29.0854C96.4466 29.9043 95.7925 30.5593 95.0076 30.5593C94.2227 30.5593 93.5686 29.9043 93.5686 29.1182V9.72789C93.5686 8.90905 94.2227 8.25397 95.0076 8.25397C95.8252 8.22122 96.4466 8.87629 96.4466 9.69514ZM26.3283 35.931C26.3283 35.6689 26.4591 35.2759 26.5899 35.0139C26.7208 34.7191 29.0755 29.6422 29.0755 29.6422C29.0755 29.6422 20.3761 10.776 20.278 10.5467C20.1799 10.2847 20.049 9.95717 20.049 9.72789C20.049 8.90905 20.7031 8.25397 21.5207 8.25397C22.1748 8.25397 22.5673 8.54875 22.8289 9.07282L30.7107 26.1703L38.5925 9.10557C38.8541 8.58151 39.3774 8.28672 39.966 8.28672C40.8491 8.28672 41.3723 8.9418 41.3723 9.69514C41.3723 9.98992 41.2742 10.252 41.1761 10.4485L29.1082 36.5205C28.8792 37.0118 28.3887 37.3394 27.8654 37.3394C27.0805 37.3394 26.3283 36.8808 26.3283 35.931ZM43.4654 9.72789C43.4654 8.90905 44.1195 8.25397 44.9044 8.25397C45.722 8.25397 46.3434 8.90905 46.3434 9.72789V11.7259C47.0302 10.6778 49.3195 7.89368 53.9635 7.89368C59.5887 7.89368 63.7422 11.6931 63.7422 17.0648V29.4785C63.7422 30.2973 63.0881 30.9196 62.2705 30.9196C61.4529 30.9196 60.8315 30.2973 60.8315 29.4785V17.8181C60.8315 13.0033 57.3648 10.4812 53.5711 10.4812C49.712 10.4812 46.3107 13.0033 46.3107 17.8181V29.4785C46.3107 30.2973 45.6566 30.9196 44.8717 30.9196C44.0541 30.9196 43.4327 30.2973 43.4327 29.4785V9.72789H43.4654ZM85.229 27.7425C85.229 28.5286 84.7384 28.9872 84.1497 29.3147C82.4818 30.2973 80.3233 30.9196 78.1321 30.9196C71.6566 30.9196 66.4566 25.81 66.4566 19.3575C66.4566 13.036 71.6566 7.89368 78.1321 7.89368C83.5938 7.89368 86.2101 11.1691 86.8642 12.0862V3.27538C86.8642 2.45654 87.5183 1.83422 88.3032 1.83422C89.1208 1.83422 89.7422 2.48929 89.7422 3.27538V29.0854C89.7422 29.9043 89.0881 30.5266 88.3032 30.5266C87.551 30.5266 86.8642 29.8388 86.8642 29.0854V19.554C86.8642 14.51 83.2994 10.514 78.1321 10.514C73.2919 10.514 69.4654 14.3462 69.4654 19.3903C69.4654 24.4344 73.2919 28.2666 78.1321 28.2666C80.3233 28.2666 81.8604 27.5132 82.678 27.0547C83.0051 26.8582 83.4302 26.5961 83.9862 26.5961C84.7384 26.5961 85.229 27.0547 85.229 27.7425ZM149.035 19.423C149.035 25.7773 143.803 30.9196 137.327 30.9196C130.852 30.9196 125.619 25.7773 125.619 19.423C125.619 13.0688 130.852 7.92643 137.327 7.92643C143.803 7.89368 149.035 13.036 149.035 19.423ZM137.327 10.514C132.52 10.514 128.628 14.2807 128.628 19.3903C128.628 24.4999 132.52 28.2666 137.327 28.2666C142.135 28.2666 146.027 24.4999 146.027 19.3903C146.027 14.2807 142.135 10.514 137.327 10.514ZM105.8 34.2605C106.52 34.2605 107.893 35.0139 110.608 35.0139C115.742 35.0139 119.765 32.0005 119.765 26.8909V19.5213C119.765 14.6737 116.331 10.514 111.033 10.514C106.291 10.514 102.366 14.2479 102.366 19.423C102.366 24.4344 106.16 28.2993 110.967 28.2993C112.93 28.2993 114.205 27.7753 115.121 27.3167C115.611 27.0874 116.233 26.7599 116.593 26.7599C117.345 26.7599 117.835 27.3167 117.835 27.939C117.835 28.8889 116.985 29.3474 116.658 29.5112C115.415 30.1335 113.747 30.8869 111.065 30.9196C104.623 30.9851 99.3573 25.9738 99.3573 19.3903C99.3573 12.9705 104.623 7.86092 111.065 7.86092C116.494 7.86092 119.111 11.0708 119.798 12.0534V9.62963C119.798 8.81079 120.452 8.18846 121.237 8.18846C122.021 8.18846 122.676 8.84354 122.676 9.62963V26.6289C122.676 33.0486 117.247 37.5687 110.608 37.5687C108.286 37.5687 106.454 37.2084 105.473 36.9791C104.819 36.8153 104.394 36.2258 104.394 35.6034C104.394 34.9156 104.982 34.2605 105.8 34.2605ZM20.4088 22.6002C20.4088 27.1529 16.7132 30.9196 10.4667 30.9196C4.31822 30.9196 1.27671 27.2512 0.589913 26.2031C0.393687 25.9083 0.00123367 25.3515 0.00123367 24.7619C-0.0314708 23.9431 0.589913 23.288 1.40752 23.2552C2.06161 23.2225 2.51947 23.6483 2.81381 24.1396C3.27168 24.9584 5.26665 28.2993 10.4667 28.2993C15.1434 28.2993 17.3673 25.6463 17.3673 22.6002C17.3673 19.6851 15.1434 17.6543 11.5132 16.4752C10.8264 16.2459 8.37357 15.4598 7.1635 15.034C3.86036 13.9859 0.78614 11.9879 0.78614 8.02469C0.78614 2.58755 5.56099 0 10.3358 0C14.4239 0 17.4654 1.76871 18.839 3.11162C19.2968 3.53742 20.0818 4.29075 20.0818 5.1096C20.0818 6.02671 19.395 6.58352 18.6101 6.58352C18.1195 6.58352 17.727 6.35425 17.4654 6.02671C16.6805 4.97858 14.6201 2.62031 10.2704 2.62031C6.05155 2.62031 3.89306 4.91308 3.89306 7.82817C3.89306 10.2847 6.14967 11.6604 9.25659 12.6757C10.3031 13.0033 13.0503 13.9204 13.639 14.0842C18.3157 15.6563 20.4088 18.5059 20.4088 22.6002Z" fill="white" style="fill:#000000;fill-opacity:1"/><path d="M176.597 2.19482H187.258C188.697 2.19482 189.875 3.37396 189.875 4.81513C189.875 6.2563 188.697 7.43544 187.258 7.43544H176.597C175.158 7.43544 173.98 6.2563 173.98 4.81513C173.98 3.37396 175.125 2.19482 176.597 2.19482ZM194.65 2.19482C193.211 2.19482 192.033 3.37396 192.033 4.81513C192.033 6.2563 193.211 7.43544 194.65 7.43544C196.089 7.43544 197.266 6.2563 197.266 4.81513C197.266 3.37396 196.121 2.19482 194.65 2.19482ZM194.65 22.8625H176.597C175.158 22.8625 173.98 21.6834 173.98 20.2422C173.98 18.801 175.158 17.6219 176.597 17.6219H194.65C196.089 17.6219 197.266 18.801 197.266 20.2422C197.299 21.6834 196.121 22.8625 194.65 22.8625Z" fill="#00C5F3"/><path d="M165.448 9.89209H183.501C184.94 9.89209 186.117 11.0712 186.117 12.5124C186.117 13.9536 184.94 15.1327 183.501 15.1327H165.448C164.009 15.1327 162.832 13.9536 162.832 12.5124C162.832 11.0712 164.009 9.89209 165.448 9.89209ZM183.534 30.5598H172.872C171.433 30.5598 170.256 29.3806 170.256 27.9395C170.256 26.4983 171.433 25.3192 172.872 25.3192H183.534C184.973 25.3192 186.15 26.4983 186.15 27.9395C186.15 29.3806 184.973 30.5598 183.534 30.5598ZM165.448 30.5598C166.887 30.5598 168.065 29.3806 168.065 27.9395C168.065 26.4983 166.887 25.3192 165.448 25.3192C164.009 25.3192 162.832 26.4983 162.832 27.9395C162.832 29.3806 164.009 30.5598 165.448 30.5598Z" fill="#33EA18"/></svg>