<svg xmlns="http://www.w3.org/2000/svg" viewBox="0 0 17.922 13.838" height="52.3" width="67.738"><path class="st1" d="M9.181 0c.318.053.661.106.979.185 2.249.609 3.757 2.805 3.492 5.133-.052.45-.185.873-.317 1.297-.026.132-.026.185.053.29 1.323 1.324 2.646 2.646 3.995 3.97.662.66.714 1.64.159 2.328-.635.74-1.746.846-2.46.158a77.848 77.848 0 0 1-2.091-2.09c-.661-.661-1.323-1.323-1.958-1.984-.08-.08-.159-.106-.264-.053-2.858 1.19-6.007-.503-6.615-3.545C3.624 2.937 5.636.265 8.44.026 8.493.026 8.546 0 8.6 0h.582zm-.344 8.546c2.064 0 3.73-1.64 3.73-3.704s-1.64-3.757-3.703-3.757a3.726 3.726 0 0 0-3.731 3.73c-.027 2.038 1.64 3.705 3.704 3.731zm3.016.08c.027.026.053.079.106.105l3.44 3.44c.132.132.238.264.397.37.37.318.926.133 1.005-.344.053-.238-.053-.45-.238-.608l-3.784-3.784-.079-.08c.026.027.026.054.053.054-.291.29-.582.555-.9.846zM.026 13.15c.106-.318.291-.397.556-.397H10.98c.265 0 .424.132.476.37.08.318-.079.662-.37.715H.582c-.265 0-.45-.08-.582-.397.026-.08.026-.185.026-.291zM.026 10.848c.133-.318.37-.397.715-.397H7.25c.079 0 .158 0 .238.026.264.053.45.318.423.583a.541.541 0 0 1-.53.476H.768c-.344 0-.582-.08-.74-.397v-.291zM.026 8.52c.133-.318.37-.397.715-.397 1.005.026 1.984 0 2.99 0 .423 0 .688.37.529.74a.517.517 0 0 1-.503.344H.582c-.291 0-.423-.185-.556-.396V8.52zM.026 6.218c.133-.318.37-.424.715-.397.688.026 1.376 0 2.09 0 .37 0 .609.211.609.529 0 .317-.239.556-.609.556H.767c-.344 0-.582-.08-.74-.397v-.291z"/></svg>