<svg xmlns="http://www.w3.org/2000/svg" width="250" height="250" fill="none"><g clip-path="url(#a)"><circle cx="125" cy="125" r="120" stroke="#223E72" stroke-width="10"/><path fill="#193B72" d="M70.493 78.472c2.274 0 3.95-1.593 3.95-3.772 0-2.18-1.676-3.772-3.95-3.772-2.273 0-3.95 1.603-3.95 3.772 0 2.169 1.677 3.772 3.95 3.772Zm0-1.194c-1.477 0-2.577-1.08-2.577-2.578 0-1.498 1.1-2.577 2.577-2.577 1.478 0 2.578 1.079 2.578 2.577s-1.1 2.578-2.578 2.578Zm11.796-5.103v-1.142h-5.354v7.334h1.362V75.56h3.541v-1.152h-3.541v-2.232h3.992Zm7.718 0v-1.142h-5.354v7.334h1.363V75.56h3.54v-1.152h-3.54v-2.232h3.991Zm2.365 6.192h1.362v-7.334h-1.362v7.334Zm7.789.105c1.204 0 2.231-.43 2.912-1.226l-.88-.838a2.548 2.548 0 0 1-1.959.87c-1.52 0-2.62-1.069-2.62-2.578 0-1.508 1.1-2.577 2.62-2.577.765 0 1.425.283 1.959.859l.88-.828c-.681-.796-1.708-1.226-2.902-1.226-2.253 0-3.929 1.582-3.929 3.772 0 2.19 1.676 3.772 3.919 3.772Zm5.265-.105h1.362v-7.334h-1.362v7.334Zm9.884 0h1.425l-3.311-7.334h-1.341l-3.301 7.334h1.404l.723-1.697h3.667l.734 1.697Zm-3.94-2.766 1.373-3.206 1.383 3.206h-2.756Zm7.345 2.766h5.197v-1.152h-3.835v-6.182h-1.362v7.334Zm19.289 0-.011-7.334h-1.121l-2.86 4.862-2.913-4.862h-1.121v7.334h1.3V73.57l2.409 3.96h.608l2.41-4.023.01 4.861h1.289Zm4.391-1.142v-2.022h3.541v-1.12h-3.541v-1.908h3.992v-1.142h-5.354v7.334h5.5v-1.142h-4.138Zm14.73 1.142-.01-7.334h-1.121l-2.861 4.862-2.912-4.862h-1.122v7.334h1.3V73.57l2.409 3.96h.608l2.41-4.023.01 4.861h1.289Zm8.226-3.813c.565-.304.943-.86.943-1.614 0-1.163-.943-1.907-2.704-1.907h-3.436v7.334h3.646c1.886 0 2.871-.733 2.871-1.99 0-.954-.535-1.572-1.32-1.823Zm-1.907-2.452c.943 0 1.477.335 1.477 1.016 0 .67-.534 1.006-1.477 1.006h-1.928v-2.022h1.928Zm.272 5.197h-2.2v-2.117h2.2c1.027 0 1.582.325 1.582 1.058 0 .734-.555 1.059-1.582 1.059Zm6.818-.074v-2.022h3.542v-1.12h-3.542v-1.908h3.992v-1.142h-5.354v7.334h5.501v-1.142h-4.139Zm12.97 1.142-1.686-2.41c.995-.387 1.561-1.204 1.561-2.315 0-1.624-1.195-2.609-3.123-2.609h-3.017v7.334h1.362V76.23h1.655c.095 0 .189 0 .283-.01l1.499 2.147h1.466Zm-1.498-4.725c0 .922-.618 1.467-1.812 1.467h-1.593v-2.923h1.593c1.194 0 1.812.534 1.812 1.456ZM83.078 159.089h3.3c1.549 0 2.67.232 3.362.695.693.464 1.039 1.196 1.039 2.197 0 .692-.194 1.265-.583 1.718-.384.447-.946.737-1.686.87v.08c1.774.304 2.66 1.236 2.66 2.796 0 1.044-.354 1.859-1.062 2.445-.703.586-1.689.879-2.956.879h-4.074v-11.68Zm1.358 5.001h2.237c.958 0 1.648-.149 2.069-.447.42-.304.63-.812.63-1.526 0-.655-.234-1.127-.702-1.414-.469-.293-1.214-.439-2.237-.439h-1.997v3.826Zm0 1.15v4.37h2.436c.943 0 1.651-.181 2.125-.543.48-.368.72-.94.72-1.718 0-.724-.246-1.256-.736-1.597-.484-.341-1.224-.512-2.22-.512h-2.325ZM94.16 162.013v5.68c0 .714.163 1.246.488 1.598.325.351.833.527 1.526.527.916 0 1.584-.25 2.005-.751.426-.501.639-1.318.639-2.453v-4.601h1.326v8.756H99.05l-.192-1.175h-.072c-.272.432-.65.762-1.134.991-.48.229-1.028.343-1.646.343-1.065 0-1.864-.253-2.397-.759-.527-.506-.79-1.315-.79-2.428v-5.728h1.342ZM108.039 168.38c0 .815-.303 1.443-.91 1.885-.607.442-1.46.663-2.557.663-1.161 0-2.066-.183-2.716-.551v-1.23c.421.213.871.381 1.35.503.485.123.951.184 1.398.184.693 0 1.225-.109 1.598-.328.373-.223.559-.562.559-1.014 0-.341-.149-.631-.447-.871-.293-.245-.868-.533-1.726-.863-.815-.303-1.395-.567-1.741-.791-.341-.229-.597-.487-.767-.775-.165-.287-.248-.631-.248-1.03 0-.714.29-1.276.871-1.686.58-.415 1.377-.623 2.389-.623.942 0 1.864.192 2.764.575l-.472 1.079c-.878-.362-1.675-.543-2.388-.543-.629 0-1.103.098-1.422.295-.32.197-.48.469-.48.815 0 .234.059.434.176.599.123.165.317.322.583.472.267.149.778.364 1.534.647 1.039.378 1.739.759 2.101 1.142.368.383.551.865.551 1.446ZM110.958 170.769h-1.326v-8.756h1.326v8.756Zm-1.438-11.129c0-.303.074-.524.223-.663a.78.78 0 0 1 .56-.215c.213 0 .396.072.551.215.154.144.232.365.232.663 0 .299-.078.522-.232.671a.781.781 0 0 1-.551.216.776.776 0 0 1-.56-.216c-.149-.149-.223-.372-.223-.671ZM119.189 170.769v-5.664c0-.714-.163-1.247-.488-1.598-.325-.352-.833-.527-1.526-.527-.916 0-1.587.247-2.013.743-.426.495-.639 1.312-.639 2.452v4.594h-1.326v-8.756h1.079l.215 1.198h.064a2.684 2.684 0 0 1 1.143-.998 3.666 3.666 0 0 1 1.637-.36c1.055 0 1.848.256 2.381.767.532.506.799 1.318.799 2.437v5.712h-1.326ZM126.373 170.928c-1.294 0-2.317-.394-3.068-1.182-.745-.788-1.118-1.883-1.118-3.283 0-1.412.346-2.533 1.038-3.364.698-.83 1.633-1.246 2.804-1.246 1.097 0 1.966.362 2.605 1.087.639.719.958 1.669.958 2.852v.838h-6.031c.026 1.028.285 1.809.775 2.341.495.533 1.19.799 2.085.799.942 0 1.874-.197 2.796-.591v1.182a6.81 6.81 0 0 1-1.334.431c-.416.091-.919.136-1.51.136Zm-.36-7.964c-.703 0-1.264.229-1.685.687-.416.458-.661 1.091-.735 1.901h4.577c0-.836-.186-1.475-.559-1.917-.373-.448-.905-.671-1.598-.671ZM136.936 168.38c0 .815-.303 1.443-.91 1.885-.608.442-1.46.663-2.557.663-1.161 0-2.066-.183-2.716-.551v-1.23c.421.213.871.381 1.35.503.485.123.951.184 1.398.184.693 0 1.225-.109 1.598-.328.373-.223.559-.562.559-1.014 0-.341-.149-.631-.447-.871-.293-.245-.868-.533-1.726-.863-.815-.303-1.395-.567-1.741-.791-.341-.229-.597-.487-.767-.775-.165-.287-.248-.631-.248-1.03 0-.714.29-1.276.871-1.686.58-.415 1.377-.623 2.389-.623.942 0 1.864.192 2.764.575l-.472 1.079c-.878-.362-1.675-.543-2.388-.543-.629 0-1.103.098-1.422.295-.32.197-.48.469-.48.815 0 .234.059.434.176.599.123.165.317.322.583.472.267.149.778.364 1.534.647 1.039.378 1.739.759 2.101 1.142.368.383.551.865.551 1.446ZM144.177 168.38c0 .815-.304 1.443-.911 1.885-.607.442-1.459.663-2.556.663-1.162 0-2.067-.183-2.717-.551v-1.23c.421.213.871.381 1.35.503.485.123.951.184 1.398.184.693 0 1.225-.109 1.598-.328.373-.223.559-.562.559-1.014 0-.341-.149-.631-.447-.871-.293-.245-.868-.533-1.726-.863-.814-.303-1.395-.567-1.741-.791-.341-.229-.597-.487-.767-.775-.165-.287-.248-.631-.248-1.03 0-.714.291-1.276.871-1.686.581-.415 1.377-.623 2.389-.623.942 0 1.864.192 2.764.575l-.472 1.079c-.878-.362-1.674-.543-2.388-.543-.629 0-1.103.098-1.422.295-.32.197-.479.469-.479.815 0 .234.058.434.175.599.123.165.317.322.584.472.266.149.777.364 1.533.647 1.039.378 1.739.759 2.101 1.142.368.383.552.865.552 1.446ZM88.079 179.921c-1.284 0-2.298.428-3.044 1.286-.74.852-1.11 2.021-1.11 3.507 0 1.528.356 2.711 1.07 3.547.72.831 1.742 1.246 3.068 1.246.815 0 1.744-.146 2.788-.439v1.19c-.81.303-1.808.455-2.996.455-1.72 0-3.049-.522-3.986-1.565-.932-1.044-1.398-2.528-1.398-4.45 0-1.204.223-2.258.67-3.164a4.88 4.88 0 0 1 1.95-2.093c.852-.49 1.853-.735 3.004-.735 1.225 0 2.295.224 3.211.671l-.575 1.167c-.884-.416-1.768-.623-2.652-.623ZM100.184 186.168c0 1.427-.36 2.543-1.078 3.347-.72.799-1.713 1.198-2.98 1.198-.783 0-1.478-.183-2.085-.551-.607-.367-1.076-.895-1.406-1.582-.33-.687-.496-1.491-.496-2.412 0-1.428.357-2.538 1.07-3.331.715-.799 1.705-1.199 2.973-1.199 1.225 0 2.197.408 2.915 1.222.725.815 1.087 1.918 1.087 3.308Zm-6.67 0c0 1.118.223 1.97.67 2.556.448.586 1.106.879 1.974.879.868 0 1.526-.29 1.973-.871.453-.586.679-1.441.679-2.564 0-1.113-.226-1.957-.68-2.533-.446-.58-1.11-.87-1.988-.87-.868 0-1.523.285-1.965.854-.443.57-.664 1.42-.664 2.549ZM103.19 181.798v5.68c0 .714.163 1.246.488 1.598.324.351.833.527 1.525.527.916 0 1.585-.25 2.006-.751.426-.501.639-1.318.639-2.453v-4.601h1.326v8.755h-1.095l-.191-1.174h-.072c-.272.432-.65.762-1.135.991-.479.229-1.028.343-1.645.343-1.066 0-1.864-.253-2.397-.759-.527-.506-.791-1.315-.791-2.428v-5.728h1.342ZM117.413 190.553v-5.663c0-.714-.163-1.247-.488-1.598-.325-.352-.833-.527-1.526-.527-.916 0-1.587.247-2.013.743-.426.495-.639 1.312-.639 2.452v4.593h-1.326v-8.755h1.079l.215 1.198h.064a2.687 2.687 0 0 1 1.142-.998c.49-.24 1.036-.36 1.638-.36 1.055 0 1.848.256 2.381.767.532.506.799 1.318.799 2.437v5.711h-1.326ZM124.397 190.713c-1.267 0-2.25-.389-2.948-1.166-.692-.783-1.038-1.888-1.038-3.315 0-1.465.351-2.597 1.054-3.395.709-.799 1.715-1.199 3.02-1.199.421 0 .841.045 1.262.136.421.091.751.197.991.32l-.408 1.126a6.018 6.018 0 0 0-.958-.288 4.136 4.136 0 0 0-.919-.119c-1.779 0-2.668 1.134-2.668 3.403 0 1.075.216 1.901.647 2.476.437.575 1.081.863 1.933.863.73 0 1.478-.157 2.245-.471v1.174c-.586.303-1.323.455-2.213.455ZM129.448 190.553h-1.326v-8.755h1.326v8.755Zm-1.437-11.128c0-.303.074-.524.223-.663a.777.777 0 0 1 .559-.215c.213 0 .397.072.552.215.154.144.231.365.231.663 0 .299-.077.522-.231.671a.784.784 0 0 1-.552.216.773.773 0 0 1-.559-.216c-.149-.149-.223-.372-.223-.671ZM133.014 190.553h-1.326v-12.43h1.326v12.43ZM62.946 155.207h1.522v39.189h-1.522v-39.189ZM140.001 116.783c-2.126 0-3.808.538-5.579 1.436 0-5.116.088-9.514.177-11.219l-10.361 2.064v.988l.974.089c1.417.18 2.037 1.077 2.125 2.962.355 3.77.266 23.784 0 27.015 2.746.628 5.756 1.077 8.767 1.077 8.236 0 13.106-5.116 13.106-13.283.177-6.462-3.896-11.129-9.209-11.129Zm-3.631 22.796a9.81 9.81 0 0 1-1.771-.179c-.177-2.244-.266-11.488-.266-19.655.974-.359 1.594-.359 2.391-.359 3.365 0 5.313 3.949 5.313 8.975.089 6.372-2.302 11.218-5.667 11.218Zm-51.007-22.527-1.594.449c-1.417-4.757-3.63-7.449-7.793-7.449h-5.401c-.266 3.051-.355 8.077-.355 13.372l3.631-.089c2.391-.09 3.365-1.885 3.985-4.578h1.328v11.129h-1.328c-.62-2.692-1.594-4.487-3.985-4.577l-3.63-.09c0 4.039.176 7.36.265 9.424.266 2.962 1.063 4.308 3.1 4.577l1.86.18v1.346H58V139.4l1.417-.18c2.037-.269 2.834-1.615 3.1-4.577.442-4.846.442-15.078 0-20.732-.266-2.962-1.063-4.308-3.1-4.577l-1.417-.18v-1.346h27.186l.177 9.244Zm8.678-.538c7.704 0 11.601 5.295 11.601 12.295 0 6.821-4.339 12.386-12.043 12.386-7.705 0-11.601-5.295-11.601-12.296 0-6.821 4.34-12.385 12.043-12.385Zm-.354 1.525c-3.453 0-4.339 4.667-4.339 10.86 0 6.013 1.505 10.86 4.693 10.86 3.454 0 4.34-4.667 4.34-10.86 0-6.013-1.506-10.86-4.694-10.86Zm57.56 11.04c0-6.462 3.985-12.565 11.955-12.565 6.464 0 9.563 4.846 9.563 11.218h-14.434c-.177 5.744 2.745 10.052 8.236 10.052 2.391 0 3.719-.628 5.224-1.705l.709.808c-1.594 2.244-4.959 4.398-9.387 4.398-6.907 0-11.866-5.026-11.866-12.206Zm7.173-2.962 7.261-.18c0-3.231-.443-7.898-3.099-7.898-2.568 0-4.074 4.398-4.162 8.078Zm33.03-2.334-1.151.27c-1.24-4.129-3.188-5.924-5.933-5.924-1.86 0-3.188 1.436-3.188 3.5 0 2.065 1.505 3.142 5.845 4.847 4.073 1.615 5.667 3.41 5.667 6.731 0 4.936-3.719 7.988-9.918 7.988-2.922 0-6.199-.628-8.147-1.436l-.177-6.821 1.151-.269c1.683 4.756 3.896 6.551 6.819 6.551 2.479 0 3.808-1.795 3.808-3.679 0-1.885-1.063-2.962-4.959-4.398-3.631-1.346-6.288-2.962-6.288-7.09 0-4.039 3.542-7.45 9.298-7.45 2.657 0 5.225.449 6.996 1.257l.177 5.923Zm-68.186-.179c-3.099-2.154-6.464-1.167-7.173 0-.266 3.859-.177 9.693.089 12.655.177 1.974.708 2.782 2.125 2.961l1.86.09v1.346h-14.346V139.4l.974-.09c1.417-.179 2.037-1.077 2.125-2.962.266-3.231.355-9.872 0-13.642-.177-1.974-.708-2.782-2.125-3.051l-.974-.09v-.987l10.272-2.064-.088 5.474c2.391-5.654 7.172-6.372 9.74-4.756l-2.479 6.372ZM102 51v2H66v-2zM184 51v2h-36v-2zM107.908 57v-1.29l4.12-3.912c.346-.326.603-.612.771-.86a2.13 2.13 0 0 0 .326-.681 2.33 2.33 0 0 0 .089-.608c0-.474-.163-.84-.489-1.096-.327-.267-.806-.4-1.438-.4-.504 0-.963.088-1.378.266-.405.178-.756.45-1.053.815l-1.348-1.037c.405-.544.948-.963 1.63-1.26.692-.306 1.462-.46 2.312-.46.751 0 1.403.124 1.956.371.563.237.993.578 1.29 1.023.306.444.459.973.459 1.586 0 .335-.044.672-.133 1.007a3.56 3.56 0 0 1-.504 1.038c-.247.365-.608.775-1.082 1.23l-3.542 3.364-.4-.726h6.061V57h-7.647Zm13.087.148a4.095 4.095 0 0 1-2.223-.622c-.653-.415-1.166-1.018-1.542-1.808-.375-.8-.563-1.769-.563-2.905s.188-2.1.563-2.89c.376-.8.889-1.408 1.542-1.823a4.095 4.095 0 0 1 2.223-.622c.829 0 1.57.207 2.223.622.652.415 1.165 1.023 1.541 1.823.385.79.578 1.754.578 2.89 0 1.136-.193 2.104-.578 2.905-.376.79-.889 1.393-1.541 1.808-.653.415-1.394.622-2.223.622Zm0-1.675c.484 0 .904-.128 1.259-.385.356-.267.633-.672.83-1.215.208-.543.311-1.23.311-2.06 0-.84-.103-1.527-.311-2.06-.197-.543-.474-.944-.83-1.2-.355-.267-.775-.4-1.259-.4-.465 0-.88.133-1.245.4-.356.257-.638.657-.845 1.2-.198.533-.296 1.22-.296 2.06 0 .83.098 1.517.296 2.06.207.543.489.949.845 1.215.365.257.78.386 1.245.386ZM126.491 57v-1.29l4.12-3.912c.346-.326.603-.612.77-.86.168-.246.277-.474.327-.681.059-.218.088-.42.088-.608 0-.474-.163-.84-.489-1.096-.326-.267-.805-.4-1.437-.4-.504 0-.963.088-1.378.266-.405.178-.756.45-1.053.815l-1.348-1.037c.405-.544.948-.963 1.63-1.26.692-.306 1.462-.46 2.312-.46.751 0 1.403.124 1.956.371.563.237.993.578 1.289 1.023.307.444.46.973.46 1.586 0 .335-.045.672-.134 1.007-.088.326-.256.672-.503 1.038-.247.365-.608.775-1.082 1.23l-3.542 3.364-.4-.726h6.061V57h-7.647Zm12.019.148a7.54 7.54 0 0 1-2.149-.311c-.691-.217-1.274-.514-1.748-.89l.83-1.496c.375.306.83.553 1.363.741a5.013 5.013 0 0 0 1.675.282c.691 0 1.23-.139 1.615-.415.385-.287.578-.672.578-1.156 0-.475-.178-.85-.533-1.127-.356-.276-.929-.415-1.72-.415h-.948v-1.319l2.964-3.527.252.726h-5.572v-1.615h7.069v1.29l-2.964 3.527-1.008-.593h.578c1.274 0 2.228.286 2.86.86.642.562.964 1.289.964 2.178 0 .583-.149 1.121-.445 1.615-.296.494-.751.894-1.364 1.2-.602.297-1.368.445-2.297.445Z"/></g><defs><clipPath id="a"><path fill="#fff" d="M0 0h250v250H0z"/></clipPath></defs></svg>