<svg version="1.1" id="Calque_1" xmlns="http://www.w3.org/2000/svg" xmlns:xlink="http://www.w3.org/1999/xlink" x="0" y="0" viewBox="0 0 39.94 52" style="enable-background:new 0 0 39.94 52" xml:space="preserve"><style>.st0{clip-path:url(#SVGID_2_);fill:#0c195a}.st3{clip-path:url(#SVGID_6_)}.st4{opacity:.45;clip-path:url(#SVGID_10_)}.st5{clip-path:url(#SVGID_12_);fill:#1d1d1b}.st7{clip-path:url(#SVGID_14_)}.st8{clip-path:url(#SVGID_16_)}.st9{opacity:.45;clip-path:url(#SVGID_20_)}.st10{clip-path:url(#SVGID_22_);fill:#1d1d1b}.st11{clip-path:url(#SVGID_24_)}.st12{clip-path:url(#SVGID_26_)}.st13{opacity:.45;clip-path:url(#SVGID_30_)}.st14{clip-path:url(#SVGID_32_);fill:#1d1d1b}.st15{clip-path:url(#SVGID_34_)}.st16{clip-path:url(#SVGID_36_)}.st17{opacity:.45;clip-path:url(#SVGID_40_)}.st18{clip-path:url(#SVGID_42_);fill:#1d1d1b}.st19{clip-path:url(#SVGID_44_)}.st20{clip-path:url(#SVGID_46_)}.st21{opacity:.45;clip-path:url(#SVGID_50_)}.st22{clip-path:url(#SVGID_52_);fill:#1d1d1b}.st23{clip-path:url(#SVGID_54_)}.st24{clip-path:url(#SVGID_56_)}.st25{opacity:.45;clip-path:url(#SVGID_60_)}.st26{clip-path:url(#SVGID_62_);fill:#1d1d1b}.st27{clip-path:url(#SVGID_64_)}.st28{clip-path:url(#SVGID_66_)}.st29{opacity:.45;clip-path:url(#SVGID_70_)}.st30{clip-path:url(#SVGID_72_);fill:#1d1d1b}</style><defs><path id="SVGID_1_" d="M-11.67-677.99h1600.13v596.92H-11.67z"/></defs><clipPath id="SVGID_2_"><use xlink:href="#SVGID_1_" style="overflow:visible"/></clipPath><g style="clip-path:url(#SVGID_2_)"><defs><path id="SVGID_3_" d="M-11.67-677.99h1600v596.92h-1600z"/></defs><clipPath id="SVGID_4_"><use xlink:href="#SVGID_3_" style="overflow:visible"/></clipPath><g style="opacity:.8;clip-path:url(#SVGID_4_)"><defs><path id="SVGID_5_" d="M-13.33-829.65h1603.3V373.66H-13.33z"/></defs><clipPath id="SVGID_6_"><use xlink:href="#SVGID_5_" style="overflow:visible"/></clipPath></g></g><path d="M32.62 51H3.26C2.01 51 1 49.99 1 48.74v-3.08c0-1.25 1.01-2.26 2.26-2.26h29.36c1.25 0 2.26 1.01 2.26 2.26v3.08c0 1.25-1.01 2.26-2.26 2.26zm-7.06-27.09-1.06-.25a4.233 4.233 0 0 1-3.02-4.03V15.7m11.68 27.54v-6.41c0-.35-.13-.68-.37-.93-5.3-5.3-6.86-9.4-7.23-12l8.42 1.72c.36.08.74 0 1.03-.21l2.2-1.59a4.188 4.188 0 0 0 .92-5.85L38 17.8 29.66 7.67l2.65-4.72a1.3 1.3 0 0 0 0-1.32c-.24-.38-.66-.61-1.11-.61C19.32.56 8.83 8.72 6.35 20.36c-1.43 7.6-2.2 15.31-2.33 23.05" style="fill:none;stroke:#64d7be;stroke-width:2;stroke-linecap:round;stroke-linejoin:round;stroke-miterlimit:10"/></svg>