<?xml version="1.0" encoding="UTF-8" standalone="no"?><svg xmlns:dc="http://purl.org/dc/elements/1.1/" xmlns:cc="http://creativecommons.org/ns#" xmlns:rdf="http://www.w3.org/1999/02/22-rdf-syntax-ns#" xmlns:svg="http://www.w3.org/2000/svg" xmlns="http://www.w3.org/2000/svg" xmlns:sodipodi="http://sodipodi.sourceforge.net/DTD/sodipodi-0.dtd" xmlns:inkscape="http://www.inkscape.org/namespaces/inkscape" sodipodi:docname="doc-approved.svg" inkscape:version="1.0 (4035a4f, 2020-05-01)" version="1.1" viewBox="0 0 18.997084 18.985695" height="18.985695mm" width="18.997084mm"><defs/><sodipodi:namedview inkscape:window-maximized="0" inkscape:window-y="25" inkscape:window-x="0" inkscape:window-height="943" inkscape:window-width="1252" showgrid="false" inkscape:document-rotation="0" inkscape:current-layer="layer1" inkscape:document-units="mm" inkscape:cy="-612.69295" inkscape:cx="-846.95716" inkscape:zoom="0.35" inkscape:pageshadow="2" inkscape:pageopacity="0.0" borderopacity="1.0" bordercolor="#666666" pagecolor="#ffffff"/><metadata><rdf:RDF><cc:Work rdf:about=""><dc:format>image/svg+xml</dc:format><dc:type rdf:resource="http://purl.org/dc/dcmitype/StillImage"/><dc:title/></cc:Work></rdf:RDF></metadata><g transform="translate(-329.92408,-310.27501)" inkscape:groupmode="layer" inkscape:label="Layer 1"><g transform="matrix(0.26458333,0,0,0.26458333,273.27679,-9.8179029)"><g><path class="st1" d="m 285.9,1240.8 c -0.2,0.7 -0.3,1.4 -0.6,2.1 -1.4,3 -3.7,4.6 -7,4.7 -2.2,0.1 -4.4,0 -6.7,0 0,0.3 0,0.6 0,0.9 0,6.9 0,13.8 0,20.7 0,4.1 -2.6,6.8 -6.8,6.8 -12.9,0 -25.9,0 -38.8,0 -0.4,0 -0.9,0.2 -1.3,0.4 -2.4,1.5 -4.7,3.1 -7,4.6 -0.8,0.5 -1.6,0.8 -2.5,0.3 -0.8,-0.5 -1.1,-1.2 -1.1,-2.2 0,-13.3 0,-26.7 0,-40 0,-3.9 2.7,-6.6 6.6,-6.6 7.8,0 15.7,0 23.5,0 0.3,0 0.6,0 0.9,0 0,-0.3 0,-0.5 0,-0.8 0,-2.8 0,-5.6 0,-8.3 0,-1.6 0.8,-2.4 2.4,-2.4 2.5,0 5,0 7.5,0 1.8,0 2.3,0.4 2.8,2.1 0.7,-0.2 1.4,-0.4 2.1,-0.6 2,-0.7 3.3,-2.5 3.4,-4.7 0,-0.8 0,-1.7 0.1,-2.5 0.4,-2.8 2.3,-4.8 5,-5.4 0.1,0 0.3,-0.1 0.4,-0.1 0.6,0 1.1,0 1.7,0 0.1,0 0.2,0.1 0.3,0.1 2.7,0.6 4.7,2.5 5,5.2 0.2,1.5 0.1,3.1 0.1,4.7 0,0.4 0,0.8 0,1.2 0.9,0 1.6,0 2.3,0 3,0.2 5.3,1.6 6.6,4.3 0.4,0.8 0.6,1.6 0.8,2.4 0.3,4.3 0.3,8.7 0.3,13.1 z m -67.6,34.6 c 1.5,-1 3,-1.9 4.4,-2.9 0.9,-0.6 1.8,-0.9 2.9,-0.9 13.1,0 26.2,0 39.3,0 1.7,0 2.5,-0.8 2.5,-2.5 0,-6.9 0,-13.9 0,-20.8 0,-0.2 0,-0.5 0,-0.8 -3.4,0.1 -6.6,0.1 -9.5,-1.8 -0.4,1.5 -1.4,1.9 -2.8,1.9 -2.5,-0.1 -5,0 -7.5,0 -1.5,0 -2.3,-0.8 -2.4,-2.3 0,-1.8 0,-3.6 0,-5.3 0,-1.1 0,-2.1 0,-3.3 -0.3,0 -0.6,0 -0.8,0 -7.8,0 -15.7,0 -23.5,0 -1.8,0 -2.5,0.8 -2.5,2.6 0,11.8 0,23.6 0,35.4 -0.1,0.1 -0.1,0.3 -0.1,0.7 z m 39.6,-48 c 0,4.1 0,8.1 0,12.2 0,0.2 0.1,0.5 0.3,0.7 1.5,1.9 3.5,3 5.9,3 4.7,0.1 9.4,0 14.2,0 2,0 3.5,-1.5 3.5,-3.5 0,-3.7 0,-7.4 0,-11.1 0,-2 -1.5,-3.5 -3.6,-3.6 -1.3,0 -2.6,0 -3.9,0 -1.6,0 -2.4,-0.8 -2.4,-2.4 0,-2.2 0,-4.4 0,-6.6 0,-1.3 -0.9,-2.2 -2.1,-2.2 -1.2,0 -2.1,0.9 -2.1,2.2 0,0.6 0,1.1 0,1.7 -0.1,3.9 -2.6,7.4 -6.3,8.6 -1.2,0.3 -2.3,0.6 -3.5,1 z m -8.4,15.8 c 1.4,0 2.8,0 4.1,0 0,-6.1 0,-12.1 0,-18.1 -1.4,0 -2.8,0 -4.1,0 0,6.1 0,12.1 0,18.1 z"/><path class="st1" d="m 242.9,1257.6 c -5.9,0 -11.9,0 -17.8,0 -0.3,0 -0.7,0 -1,-0.1 -1,-0.3 -1.6,-1.2 -1.5,-2.2 0.1,-1 0.9,-1.8 1.9,-1.9 0.2,0 0.4,0 0.6,0 11.8,0 23.7,0 35.5,0 0.3,0 0.6,0 0.9,0.1 1.1,0.2 1.8,1.2 1.7,2.3 -0.1,1.1 -1,1.9 -2.2,1.9 -3.8,0 -7.6,0 -11.4,0 -2.3,-0.1 -4.5,-0.1 -6.7,-0.1 z"/><path class="st1" d="m 242.9,1261.8 c 6,0 12,0 18.1,0 1.6,0 2.7,1.4 2.1,2.8 -0.3,0.8 -0.9,1.3 -1.8,1.4 -0.2,0 -0.4,0 -0.6,0 -11.8,0 -23.7,0 -35.5,0 -0.3,0 -0.6,0 -0.9,-0.1 -1.1,-0.2 -1.8,-1.2 -1.7,-2.3 0.1,-1.1 1,-1.9 2.2,-1.9 4,0 8,0 12,0 1.9,0.1 4,0.1 6.1,0.1 z"/><path class="st1" d="m 231.6,1249.2 c -2.2,0 -4.5,0 -6.7,0 -1.4,0 -2.4,-0.8 -2.4,-2.1 0,-1.2 1,-2.1 2.4,-2.1 4.5,0 9,0 13.5,0 1.4,0 2.4,0.9 2.4,2.1 0,1.2 -1,2.1 -2.3,2.1 -2.3,0 -4.6,0 -6.9,0 z"/></g></g></g></svg>