<svg xmlns="http://www.w3.org/2000/svg" width="62.98" height="54" viewBox="0 0 16.664 14.287"><path d="M13.647 8.255c1.64 0 2.99 1.35 3.017 2.99 0 1.667-1.35 3.043-2.99 3.043a3.037 3.037 0 0 1-3.043-3.017c0-1.64 1.35-2.99 3.016-3.016zm0 .82a2.225 2.225 0 0 0-2.222 2.17 2.23 2.23 0 0 0 2.196 2.222c1.19 0 2.196-.979 2.196-2.196.026-1.19-.953-2.196-2.17-2.196z" class="st1"/><path d="M14.282 2.196c0-.926-.661-1.8-1.587-2.09-.106-.027-.185-.053-.291-.08-.053 0-.08-.026-.133-.026h-8.81c-.053 0-.08.026-.132.026l-.318.08c-.847.29-1.35.9-1.535 1.773 0 .026 0 .052-.026.079v8.89c0 .026 0 .026.026.053.212 1.164 1.138 1.931 2.329 1.931h6.297v-.952H3.857c-.899 0-1.455-.556-1.455-1.455V2.275c0-.714.53-1.296 1.191-1.349C3.963.9 4.36.9 4.731.9h.476v2.117c0 .846.53 1.375 1.376 1.375h2.566c.847 0 1.376-.53 1.376-1.402V.9h1.376c.9 0 1.455.555 1.455 1.428v5.16h.926V2.196zm-4.71.873c0 .318-.105.45-.423.45H6.583c-.318 0-.423-.106-.423-.423V.979h3.413v2.09z" class="st1"/><path d="M3.593 8.281h3.651v.927h-3.65zM3.593 9.895h2.62v.926h-2.62zM12.35 11.404l.583-.583c.159.186.344.37.503.556.423-.423.82-.847 1.217-1.243l.608.608c-.08.08-.185.185-.29.265l-1.191 1.19c-.239.238-.45.238-.662 0a7.29 7.29 0 0 0-.767-.793z" class="st1"/></svg>