<?xml version="1.0" encoding="UTF-8" standalone="no"?><svg xmlns:dc="http://purl.org/dc/elements/1.1/" xmlns:cc="http://creativecommons.org/ns#" xmlns:rdf="http://www.w3.org/1999/02/22-rdf-syntax-ns#" xmlns:svg="http://www.w3.org/2000/svg" xmlns="http://www.w3.org/2000/svg" xmlns:sodipodi="http://sodipodi.sourceforge.net/DTD/sodipodi-0.dtd" xmlns:inkscape="http://www.inkscape.org/namespaces/inkscape" sodipodi:docname="find.svg" inkscape:version="1.0 (4035a4f, 2020-05-01)" version="1.1" viewBox="0 0 17.922358 13.837708" height="13.837708mm" width="17.922358mm"><defs/><sodipodi:namedview inkscape:window-maximized="0" inkscape:window-y="25" inkscape:window-x="0" inkscape:window-height="943" inkscape:window-width="1252" showgrid="false" inkscape:document-rotation="0" inkscape:current-layer="layer1" inkscape:document-units="mm" inkscape:cy="317.57857" inkscape:cx="-963.27384" inkscape:zoom="0.35" inkscape:pageshadow="2" inkscape:pageopacity="0.0" borderopacity="1.0" bordercolor="#666666" pagecolor="#ffffff"/><metadata><rdf:RDF><cc:Work rdf:about=""><dc:format>image/svg+xml</dc:format><dc:type rdf:resource="http://purl.org/dc/dcmitype/StillImage"/><dc:title/></cc:Work></rdf:RDF></metadata><g transform="translate(-360.69954,-64.14067)" inkscape:groupmode="layer" inkscape:label="Layer 1"><g transform="matrix(0.26458333,0,0,0.26458333,303.52308,-49.048079)"><g><path class="st1" d="m 250.8,427.8 c 1.2,0.2 2.5,0.4 3.7,0.7 8.5,2.3 14.2,10.6 13.2,19.4 -0.2,1.7 -0.7,3.3 -1.2,4.9 -0.1,0.5 -0.1,0.7 0.2,1.1 5,5 10,10 15.1,15 2.5,2.5 2.7,6.2 0.6,8.8 -2.4,2.8 -6.6,3.2 -9.3,0.6 -2.7,-2.6 -5.3,-5.2 -7.9,-7.9 -2.5,-2.5 -5,-5 -7.4,-7.5 -0.3,-0.3 -0.6,-0.4 -1,-0.2 -10.8,4.5 -22.7,-1.9 -25,-13.4 -2,-10.4 5.6,-20.5 16.2,-21.4 0.2,0 0.4,-0.1 0.6,-0.1 0.6,0 1.4,0 2.2,0 z m -1.3,32.3 c 7.8,0 14.1,-6.2 14.1,-14 0,-7.8 -6.2,-14.2 -14,-14.2 -7.8,0 -14.1,6.3 -14.1,14.1 -0.1,7.7 6.2,14 14,14.1 z m 11.4,0.3 c 0.1,0.1 0.2,0.3 0.4,0.4 4.3,4.3 8.7,8.7 13,13 0.5,0.5 0.9,1 1.5,1.4 1.4,1.2 3.5,0.5 3.8,-1.3 0.2,-0.9 -0.2,-1.7 -0.9,-2.3 -4.8,-4.8 -9.5,-9.5 -14.3,-14.3 -0.1,-0.1 -0.2,-0.2 -0.3,-0.3 0.1,0.1 0.1,0.2 0.2,0.2 -1.1,1.1 -2.2,2.1 -3.4,3.2 z"/><path class="st1" d="m 216.2,477.5 c 0.4,-1.2 1.1,-1.5 2.1,-1.5 11.5,0 27.8,0 39.3,0 1,0 1.6,0.5 1.8,1.4 0.3,1.2 -0.3,2.5 -1.4,2.7 -0.2,0 -0.4,0 -0.6,0 -11.4,0 -27.7,0 -39.1,0 -1,0 -1.7,-0.3 -2.2,-1.5 0.1,-0.3 0.1,-0.7 0.1,-1.1 z"/><path class="st1" d="m 216.2,468.8 c 0.5,-1.2 1.4,-1.5 2.7,-1.5 6.6,0 18.1,0 24.6,0 0.3,0 0.6,0 0.9,0.1 1,0.2 1.7,1.2 1.6,2.2 -0.1,1 -1,1.8 -2,1.8 -1.6,0 -8.2,0 -9.8,0 -5.1,0 -10.2,0 -15.2,0 -1.3,0 -2.2,-0.3 -2.8,-1.5 0,-0.4 0,-0.8 0,-1.1 z"/><path class="st1" d="m 216.2,460 c 0.5,-1.2 1.4,-1.5 2.7,-1.5 3.8,0.1 7.5,0 11.3,0 1.6,0 2.6,1.4 2,2.8 -0.3,0.8 -1,1.3 -1.9,1.3 -4,0 -8,0 -12,0 -1.1,0 -1.6,-0.7 -2.1,-1.5 0,-0.4 0,-0.7 0,-1.1 z"/><path class="st1" d="m 216.2,451.3 c 0.5,-1.2 1.4,-1.6 2.7,-1.5 2.6,0.1 5.2,0 7.9,0 1.4,0 2.3,0.8 2.3,2 0,1.2 -0.9,2.1 -2.3,2.1 -2.6,0 -5.2,0 -7.8,0 -1.3,0 -2.2,-0.3 -2.8,-1.5 0,-0.4 0,-0.8 0,-1.1 z"/></g></g></g></svg>