<svg width="218px" height="218px" viewBox="0 0 218 218" version="1.1" xmlns="http://www.w3.org/2000/svg" xmlns:xlink="http://www.w3.org/1999/xlink"><defs><circle id="b" cx="79" cy="79" r="79"/><filter x="-29.1%" y="-27.8%" width="158.2%" height="158.2%" filterUnits="objectBoundingBox" id="a"><feOffset dx="0" dy="2" in="SourceAlpha" result="shadowOffsetOuter1"/><feGaussianBlur stdDeviation="15" in="shadowOffsetOuter1" result="shadowBlurOuter1"/><feColorMatrix values="0 0 0 0 0.996078431   0 0 0 0 0.819607843   0 0 0 0 0.247058824  0 0 0 0.5 0" type="matrix" in="shadowBlurOuter1"/></filter><polygon id="c" points="0 0 46.9444444 0 46.9444444 47.8472222 0 47.8472222"/><polygon id="e" points="0 0 38.8194444 0 38.8194444 54.1666667 0 54.1666667"/></defs><g stroke="none" stroke-width="1" fill="none" fill-rule="evenodd"><g transform="translate(-444.000000, -3031.000000)"><g transform="translate(470.000000, 2953.000000)"><g transform="translate(4.000000, 106.000000)"><g><use fill="black" fill-opacity="1" filter="url(#a)" xlink:href="#b"/><use fill="#FED13F" fill-rule="evenodd" xlink:href="#b"/></g><g transform="translate(43.000000, 47.000000)"><g><mask id="d" fill="white"><use xlink:href="#c"/></mask><g/><path d="M0,8.66581362 L12.7710968,8.66581362 C12.8309243,7.5795351 12.8070789,6.52104309 12.9610026,5.48990341 C13.4608976,2.14423506 16.4825424,-0.231510757 19.833738,0.0178441435 C23.1031171,0.261265468 25.7096819,3.02254898 25.8013508,6.35287687 C25.8217692,7.09356078 25.8043493,7.83511302 25.8043493,8.66002476 L38.6377009,8.66002476 L38.6377009,21.6843681 C39.3279301,21.6843681 39.9567612,21.6671463 40.58445,21.6872625 C43.7009049,21.7868308 46.2569234,24.0035279 46.8363504,27.0973811 C47.3872201,30.0394216 45.7895837,33.1273412 43.0243832,34.2710741 C42.2314906,34.5988679 41.3326505,34.6913449 40.4716488,34.8132003 C39.9153532,34.8919287 39.3393531,34.8279618 38.6802513,34.8279618 L38.6802513,47.7971664 L25.807205,47.7971664 C25.807205,47.0441811 25.8216264,46.3283893 25.8047777,45.6134658 C25.7242462,42.2126586 23.2576119,39.5683099 19.840449,39.2086774 C16.7616897,38.884791 13.7251952,41.076017 13.0432476,44.2383234 C12.7986545,45.3725047 12.8402054,46.5702187 12.7466803,47.7973111 C12.6297383,47.8109149 12.4731017,47.8449244 12.3166078,47.8450691 C8.35171644,47.8479636 4.38682505,47.8478188 0.422076453,47.8453586 C0.281289111,47.8452138 0.140644555,47.8156907 0,47.7999161 C0,43.4676822 0,39.1354484 0,34.8033592 C1.34875987,34.8383818 2.69851924,34.9331743 4.006585,34.4463316 C6.74494163,33.4272038 7.86224483,31.1369883 8.52048991,28.5113087 C8.61030252,28.1534128 8.43496088,27.7153413 8.33900845,27.3254619 C8.26561627,27.0269018 8.10912243,26.7503392 8.01488344,26.4556866 C7.16844595,23.8116273 5.40803303,22.2130352 2.69366451,21.7842258 C1.81095929,21.6447145 0.898697291,21.6975378 0,21.6623705 C0,17.3301366 0,12.9980475 0,8.66581362" fill="#3E4152" mask="url(#d)"/></g><g transform="translate(33.402778, 10.833333)"><mask id="f" fill="white"><use xlink:href="#e"/></mask><g/><path d="M9.17729487,40.6266647 C9.17729487,40.2506441 9.17729487,39.9730916 9.17729487,39.695539 C9.17729487,35.8793687 9.18741146,32.06334 9.16507065,28.247453 C9.16211998,27.7534123 9.3196297,27.5673855 9.77909161,27.4279717 C14.2761979,26.0633029 17.2967033,21.9637711 17.3158124,17.2416942 C17.3349215,12.5455449 14.3034565,8.3791398 9.82981508,7.01730467 C9.29307365,6.85394679 9.14216781,6.62116536 9.16549218,6.08816247 C9.20750414,5.12430849 9.14806916,4.15563737 9.19415586,3.19220843 C9.20919024,2.87668546 9.34801237,2.505907 9.55455946,2.27227548 C10.2520423,1.4833972 11.0054474,0.744815575 11.7248495,0 C14.7282129,3.03494283 17.6742489,6.0122216 20.7994329,9.17028497 C21.295989,8.57862626 21.6676332,8.06390019 22.1099531,7.62114792 C23.9882671,5.74175309 26.240895,5.14371875 28.7387098,5.98161856 C31.2415828,6.82121854 32.6871315,8.67440243 33.0421958,11.3143394 C33.293846,13.1859418 32.7575261,14.8691088 31.516979,16.2802488 C30.9934453,16.8758746 30.3496366,17.363823 29.7899923,17.8738736 C32.86642,20.9731395 35.8172333,23.9460262 38.8194725,26.9706263 C35.7375651,30.0698922 32.7731225,33.051138 29.6618488,36.1800152 C30.2330148,36.6802898 30.7736904,37.0676449 31.210109,37.5507762 C33.5435291,40.1337575 33.4343542,44.068798 30.9903541,46.4821875 C28.5268234,48.9148455 24.6724017,48.9515408 22.1314509,46.5500525 C21.6898335,46.1328028 21.3073701,45.6519384 20.9341803,45.2407809 C17.9063685,48.2945673 14.9586464,51.2675957 12.0841291,54.1666667 C8.00362965,50.0532502 4.05043067,46.0681964 0,41.9852412 C0.346633797,41.6685848 0.790920812,41.2146398 1.28902248,40.8319601 C1.48475044,40.6814952 1.80047243,40.6371491 2.06223925,40.6351656 C4.14148,40.6200058 6.22100177,40.6266647 8.30038302,40.6266647 C8.55484342,40.6266647 8.80930382,40.6266647 9.17729487,40.6266647" fill="#3E4152" mask="url(#f)"/></g></g></g></g></g></g></svg>