<svg xmlns="http://www.w3.org/2000/svg" xmlns:xlink="http://www.w3.org/1999/xlink" xml:space="preserve" viewBox="0 0 94.325 125.2"><defs><path id="c" d="M-1789.4-5226.8h4082.7v16009.3h-4082.7z"/></defs><g transform="translate(-1017.475 -1463.7)"><defs><path id="a" d="M1041.1 1588.7c-1.5-.6-2-1.8-2-3.3v-20.7c0-1.4-.4-2.4-1.5-3.2-9.4-7.4-15.4-16.9-17.1-28.6-.7-5.1-.7-10.4-.6-15.7.1-4.4 4.1-7.7 8.4-7.5 4.5.2 8 3.6 8.1 8.2.1 3 0 6.1 0 9.1.3 13.6 11.1 25.6 24.8 27.5 16 2.2 30.3-7.9 33.1-23.5.6-3.1.3-6.4.5-9.6.1-1.4 0-2.8.1-4.3.5-4.3 4-7.4 8.2-7.4 4.3 0 8.1 3.2 8.3 7.5.4 8 .3 15.9-2.6 23.6-3.1 8.4-8.1 15.4-15.2 20.8-1.3 1-1.9 2.2-1.9 3.8.1 6.6 0 13.2.1 19.9 0 1.6-.4 2.8-1.8 3.6h-48.9z"/></defs><use xlink:href="#a" width="100%" height="100%" fill="#a2d385" fill-rule="evenodd" clip-rule="evenodd" overflow="visible"/><clipPath id="b"><use xlink:href="#a" width="100%" height="100%" overflow="visible"/></clipPath><g clip-path="url(#b)"><use xlink:href="#c" width="100%" height="100%" fill="#a2d385" overflow="visible"/><clipPath id="d"><use xlink:href="#c" width="100%" height="100%" overflow="visible"/></clipPath><path fill="#a2d385" d="M1017.3 1506.9h97.1v84.3h-97.1z" clip-path="url(#d)"/></g></g><g transform="translate(-1017.475 -1463.7)"><defs><path id="e" d="M1064.1 1463.7c.7.7 1.6 1.2 2.1 2 1.5 2.1 2.9 4.4 4.4 6.5.5.7 1.5 1.4 2.3 1.7 2.7.9 5.5 1.5 8.2 2.3 2.6.8 3.3 2.9 1.6 4.9-1.7 2.1-3.5 4.2-5.2 6.2-.8.9-1.1 2-1 3.2.2 2.8.3 5.5.4 8.3.1 2.5-1.8 3.8-4.2 2.9-2.6-1-5.2-2-7.7-3-1.2-.5-2.3-.5-3.5 0-2.5 1-5.1 2-7.6 3s-4.4-.3-4.3-3c.1-2.7.3-5.4.5-8.2.1-1.3-.2-2.3-1.1-3.3l-4.8-5.7c-2.2-2.6-1.6-4.6 1.7-5.4l7.5-2.1c1.3-.3 2.1-1 2.8-2.1 1.3-2.1 2.7-4.2 4.2-6.2.6-.8 1.4-1.4 2.1-2z"/></defs><use xlink:href="#e" width="100%" height="100%" fill="#a2d385" fill-rule="evenodd" clip-rule="evenodd" overflow="visible"/><clipPath id="f"><use xlink:href="#e" width="100%" height="100%" overflow="visible"/></clipPath><g clip-path="url(#f)"><defs><use xlink:href="#c" id="g"/></defs><use xlink:href="#g" width="100%" height="100%" fill="#a2d385" overflow="visible"/><clipPath id="h"><use xlink:href="#g" width="100%" height="100%" overflow="visible"/></clipPath><path fill="#a2d385" d="M1039.5 1461.1h47.6v44h-47.6z" clip-path="url(#h)"/></g></g><g transform="translate(-1017.475 -1463.7)"><defs><path id="i" d="M1050.6 1526.2c0-7.8 6.3-14 14-14s14.1 6.4 14 14.2c-.1 7.7-6.4 13.9-14.1 13.9-7.7-.1-14-6.4-13.9-14.1"/></defs><use xlink:href="#i" width="100%" height="100%" fill="#a2d385" fill-rule="evenodd" clip-rule="evenodd" overflow="visible"/><clipPath id="j"><use xlink:href="#i" width="100%" height="100%" overflow="visible"/></clipPath><g clip-path="url(#j)"><defs><use xlink:href="#c" id="k"/></defs><use xlink:href="#k" width="100%" height="100%" fill="#a2d385" overflow="visible"/><clipPath id="l"><use xlink:href="#k" width="100%" height="100%" overflow="visible"/></clipPath><path fill="#a2d385" d="M1048 1509.6h33.3v33.2H1048z" clip-path="url(#l)"/></g></g><g transform="translate(-1017.475 -1463.7)"><defs><path id="m" d="M1111.8 1478.3c-.2.5-.6 1.5-1.3 2.2-5 5.1-10 10.1-15 15.1-1.6 1.6-4 1.6-5.5.1s-1.6-3.9 0-5.5c5-5.1 10.1-10.1 15.1-15.1 1.2-1.2 2.7-1.5 4.3-.9 1.6.7 2.3 1.9 2.4 4.1"/></defs><use xlink:href="#m" width="100%" height="100%" fill="#a2d385" fill-rule="evenodd" clip-rule="evenodd" overflow="visible"/><clipPath id="n"><use xlink:href="#m" width="100%" height="100%" overflow="visible"/></clipPath><g clip-path="url(#n)"><defs><path id="o" d="M1088.8 1473.9h23v23h-23z"/></defs><use xlink:href="#o" width="100%" height="100%" fill="#a2d385" overflow="visible"/><clipPath id="p"><use xlink:href="#o" width="100%" height="100%" overflow="visible"/></clipPath><path fill="#a2d385" d="M1086.3 1471.3h28.1v28.1h-28.1z" clip-path="url(#p)"/></g></g><g transform="translate(-1017.475 -1463.7)"><defs><path id="q" d="M1036.4 1496.9c-.9-.5-1.9-.7-2.6-1.4-5.1-5-10.2-10-15.2-15.1-1.5-1.5-1.5-3.9 0-5.4 1.5-1.5 3.8-1.5 5.4 0 5.1 5 10.2 10.1 15.3 15.2 1.2 1.2 1.4 2.6.7 4.2-.7 1.4-1.9 2.2-3.6 2.5"/></defs><use xlink:href="#q" width="100%" height="100%" fill="#a2d385" fill-rule="evenodd" clip-rule="evenodd" overflow="visible"/><clipPath id="r"><use xlink:href="#q" width="100%" height="100%" overflow="visible"/></clipPath><g clip-path="url(#r)"><defs><use xlink:href="#c" id="s"/></defs><use xlink:href="#s" width="100%" height="100%" fill="#a2d385" overflow="visible"/><clipPath id="t"><use xlink:href="#s" width="100%" height="100%" overflow="visible"/></clipPath><path fill="#a2d385" d="M1014.8 1470.9h28.4v28.5h-28.4z" clip-path="url(#t)"/></g></g></svg>