<svg width="66px" height="66px" viewBox="0 0 66 66" version="1.1" xmlns="http://www.w3.org/2000/svg" xmlns:xlink="http://www.w3.org/1999/xlink"><defs><polygon id="a" points="0 0 66 0 66 66 0 66"/></defs><g stroke="none" stroke-width="1" fill="none" fill-rule="evenodd"><g transform="translate(-1213.000000, -2472.000000)"><g transform="translate(860.000000, 2249.000000)"><g transform="translate(139.000000, 71.000000)"><g transform="translate(210.000000, 152.000000)"><g transform="translate(4.000000, 0.000000)"><path d="M32.7161152,50.1782245 L32.7161152,48.5076037 C32.2977652,48.6257966 32.0164734,48.8330388 31.9784084,49.3014926 C31.9341412,49.8471226 32.2922926,50.0037686 32.7161152,50.1782245 L32.7161152,50.1782245 Z M34.2807929,52.8676513 L34.2807929,54.554193 C34.749126,54.4641991 35.1009535,54.2506155 35.1335459,53.702287 C35.1695435,53.0967511 34.69817,53.0643695 34.2807929,52.8676513 L34.2807929,52.8676513 Z M33.1694899,58.0000009 C32.9015756,57.716661 32.7170881,57.4070119 32.7275468,56.9587966 C32.7304656,56.8326433 32.5253038,56.6339012 32.3820432,56.5819558 C31.8190949,56.3779517 31.2317023,56.2540921 30.6745914,56.034167 C30.0892662,55.8029084 29.8682947,55.2394686 30.0769833,54.6829098 C30.2800776,54.1410577 30.7436678,53.9567524 31.3193855,54.170471 C31.7663147,54.3364267 32.2193245,54.4822788 32.7453024,54.6630761 C32.7453024,53.9044022 32.7580718,53.2651354 32.7335059,52.6276227 C32.7290062,52.512668 32.5901237,52.3599348 32.4801852,52.3027273 C32.1971909,52.1556609 31.88732,52.0728179 31.6029879,51.928315 C29.4207575,50.8191103 29.8464043,48.0861033 31.1824489,47.0938771 C31.5596936,46.8137762 32.0175679,46.6706226 32.4250944,46.4361258 C32.5543694,46.361783 32.7157503,46.2067561 32.7336275,46.0681899 C32.8298237,45.32004 33.0379042,45.0005415 33.4949273,45.0000009 C33.9791917,44.9993272 34.2356744,45.3711759 34.2643751,46.1133892 C34.2664425,46.1672236 34.2778742,46.2205183 34.2846845,46.2727336 C34.8784011,46.4397687 35.4777118,46.5651125 36.0494163,46.7804501 C36.6926294,47.0229074 36.8649556,47.833122 36.4309174,48.389276 C36.1919472,48.695552 35.9057909,48.794046 35.541194,48.6672181 C35.1500853,48.5312153 34.7462073,48.4410865 34.2990349,48.3173618 L34.2990349,50.6631389 C35.7620439,51.1071716 37.1182763,51.7581767 36.9917983,53.8621712 C36.9037503,55.3262243 36.0845625,56.1364389 34.5118583,56.5887019 C34.2160946,57.148229 33.9908666,57.574182 33.7657603,58.0000009 L33.1694899,58.0000009 Z" fill="#7ADCC7"/><path d="M33.4983219,13.6224545 C34.4920976,13.621686 35.322906,12.8067348 35.3285181,11.8273085 C35.3340734,10.8481383 34.5149519,10.0280672 33.5167612,10.0136037 C32.5088314,9.99888412 31.651273,10.8390506 31.6602329,11.8323004 C31.669063,12.8067348 32.507403,13.6232219 33.4983219,13.6224545 L33.4983219,13.6224545 Z M22.6654787,11.8415161 C22.6743088,10.8471143 21.884015,10.0403549 20.876215,10.0150116 C19.8615328,9.9896684 19.0198166,10.8062836 19.0183866,11.8174528 C19.0170896,12.8058388 19.8279005,13.6147742 20.828039,13.622838 C21.8249312,13.6309017 22.6566486,12.8245262 22.6654787,11.8415161 L22.6654787,11.8415161 Z M44.3274984,11.8337083 C44.3332427,12.8204303 45.1557404,13.6264218 46.1528923,13.6225956 C47.1510831,13.6187421 47.9743599,12.8077587 47.9773544,11.8255166 C47.9803332,10.8215151 47.1325139,9.99466025 46.1206884,10.0144996 C45.1130183,10.034339 44.3218155,10.8371306 44.3274984,11.8337083 L44.3274984,11.8337083 Z M41.6139618,20.1858384 L50.6654624,20.1858384 C50.7975243,17.7624881 48.6967399,15.6510643 46.1762661,15.6342968 C43.6518967,15.6174013 41.5054035,17.7359929 41.6139618,20.1858384 L41.6139618,20.1858384 Z M38.0606262,20.1960781 C37.9967378,18.4338277 37.2678651,17.0876926 35.7528539,16.2407424 C34.1321412,15.3346579 32.4803933,15.4037758 30.9355155,16.4286407 C29.6110007,17.3073339 28.9584824,18.5767993 28.9519897,20.1960781 L38.0606262,20.1960781 Z M25.3963166,20.1962061 C25.3472317,18.456227 24.6319937,17.1227636 23.1408756,16.2678775 C21.5453547,15.3533453 19.9111371,15.3937921 18.3591174,16.3768022 C16.9782458,17.2513996 16.3178063,18.5476162 16.2827456,20.1962061 L25.3963166,20.1962061 Z M33.4950755,24.2929776 C37.7448203,24.2929776 41.9945651,24.2929776 46.24418,24.2929776 C47.9791645,24.2929776 49.7141491,24.2845298 51.448874,24.2997614 C51.81805,24.3029613 51.980368,24.1935246 51.9543971,23.81952 C51.9347891,23.5384405 51.9508911,23.2550571 51.9507612,22.9726977 C51.9502418,22.2496477 51.9502418,22.2493917 51.2278618,22.2493917 C39.4018922,22.2493917 27.5759226,22.2493917 15.7499531,22.2493917 C15.6703523,22.2493917 15.5898426,22.2575834 15.5114105,22.2481117 C15.1230161,22.2011372 15.0031604,22.3869875 15.0288716,22.7440967 C15.0501677,23.0407916 15.0328971,23.3400465 15.0332867,23.6381495 C15.0339359,24.2922096 15.0341956,24.2928496 15.6845065,24.2928496 C21.6213195,24.2931056 27.5582624,24.2929776 33.4950755,24.2929776 L33.4950755,24.2929776 Z M36.0733345,41.4518799 C36.0830736,41.2427343 36.0959292,41.0910589 36.0961889,40.9393835 C36.0985263,40.0139716 36.096059,39.0885598 36.0989158,38.1631479 C36.1013831,37.3153017 36.4183576,36.6287306 37.0939901,36.0733554 C40.8206813,33.0100246 44.5349066,29.9318461 48.2531573,26.8582756 C48.42911,26.712744 48.6015567,26.5632446 48.8313989,26.3683065 L18.1638164,26.3683065 C18.3672982,26.5425092 18.4962437,26.6562977 18.6286951,26.7657344 C22.3349993,29.8286813 26.033642,32.9009719 29.7550092,35.9458713 C30.5434851,36.5909717 30.9126612,37.3577964 30.8883784,38.3550141 C30.8637061,39.3711752 30.8829245,40.3883603 30.8829245,41.4673675 C32.6284273,40.9356716 34.3344543,40.9324717 36.0733345,41.4518799 L36.0733345,41.4518799 Z M43.1864985,14.3049292 C41.8660092,12.2810547 42.0301452,10.3082507 43.609694,8.94189226 C45.027704,7.71530554 47.1636789,7.68535446 48.6099972,8.87162239 C50.2566808,10.2222373 50.4462682,12.1627863 49.1249997,14.2932816 C49.2290131,14.3591996 49.3323772,14.4274215 49.4383384,14.4915475 C51.5544456,15.7724046 52.6658693,17.633468 52.7458597,20.0817776 C52.7540405,20.3345699 52.8050733,20.5012208 53.0375126,20.6578881 C53.6702931,21.0843711 53.9763599,21.7073282 53.9912932,22.4607133 C54.0020711,23.0098166 54.003889,23.5594319 53.9907737,24.1084072 C53.9679194,25.0723459 53.3852627,25.8450584 52.4706982,26.187064 C52.2396872,26.2735894 52.0088061,26.3955697 51.8199978,26.5510849 C47.3989751,30.1935982 42.9858735,33.8453272 38.5627731,37.4852805 C38.2512524,37.7416567 38.1249041,38.0133925 38.130358,38.4114604 C38.1500958,39.8548725 38.1395776,41.2987966 38.1375,42.7425927 C38.1360716,43.8441272 37.4327802,44.2729142 36.4410822,43.7934407 C34.4672954,42.8391018 32.4906518,42.8362858 30.5217994,43.8099522 C29.5789267,44.2762421 28.8558974,43.8599987 28.8517421,42.82963 C28.8456389,41.3388594 28.8439508,39.8479607 28.8543392,38.357318 C28.8568064,37.9999529 28.7414957,37.7422967 28.4563354,37.5074238 C24.0218079,33.8564628 19.5958507,30.1952621 15.1628813,26.5423812 C14.9856301,26.3962096 14.7708509,26.2771732 14.5537344,26.1981997 C13.6026808,25.8523542 13.0230108,25.0862975 13.0054804,24.0975275 C12.9957414,23.5484242 13.0013251,22.9990649 13.0044416,22.4498336 C13.0088567,21.6891527 13.348296,21.1034425 13.9477039,20.6349768 C14.085869,20.5268201 14.2288387,20.3259942 14.2328642,20.1644631 C14.2985705,17.5900773 15.4751812,15.6797354 17.7259474,14.3958065 C17.7662023,14.3728951 17.8011331,14.3403841 17.8364535,14.3099211 C17.8477508,14.3003214 17.8522957,14.2830419 17.8599571,14.2692183 C16.272617,12.1979853 17.0417446,10.0319071 18.2689985,8.96544354 C19.6848009,7.73527294 21.8059725,7.67421879 23.2700808,8.84743113 C24.9403978,10.1858864 25.1389452,12.1060841 23.8136513,14.3086411 C25.4193009,15.1537994 26.5338411,16.4300486 27.1693485,18.2349217 C27.8019991,16.4277447 28.9129035,15.1553354 30.5153067,14.3145289 C29.2197494,11.9917835 29.4281657,10.1129287 31.1031576,8.82451982 C32.6250511,7.65373942 34.7202517,7.73770486 36.1344959,9.0259857 C37.6284707,10.3868403 37.7571564,12.3343011 36.4586125,14.2996814 C38.0664696,15.1502155 39.194255,16.417121 39.8159979,18.2245541 C40.4515053,16.4393923 41.5631888,15.1477836 43.1864985,14.3049292 L43.1864985,14.3049292 Z" fill="#7ADCC7"/><path d="M44.5128821,43.5823761 L44.5128821,43.1237236 C44.5128821,40.4332022 44.5103153,41.8815987 44.5143488,39.1909489 C44.5159378,38.1860491 45.056557,37.3826688 45.9016489,37.1004903 C47.1799206,36.6738189 48.4814159,37.6570126 48.487894,39.0819049 C48.5001169,41.8175081 48.4919276,40.4141934 48.492172,43.1497966 C48.492172,43.2818309 48.492172,43.4138653 48.492172,43.5818624 C49.0622485,43.5818624 49.5956562,43.5695323 50.1283305,43.5852018 C50.7006071,43.6020271 51.0625274,44.0075062 50.9910234,44.5551663 C50.9690221,44.7235487 50.8914067,44.9055455 50.7883676,45.0374514 C49.5866112,46.5781949 48.3797213,48.1146999 47.1632975,49.6427281 C46.7774203,50.1275819 46.2218891,50.1152519 45.8360119,49.6282146 C44.6299775,48.1058377 43.4302991,46.5778096 42.2282983,45.051708 C42.0054747,44.7687589 41.9284704,44.4535718 42.0751453,44.1093577 C42.2265871,43.7540979 42.5084474,43.5891833 42.8702454,43.5841742 C43.4036532,43.5769817 43.9373053,43.5823761 44.5128821,43.5823761" fill="#7ADCC7"/><path d="M17.5128821,43.5823761 C17.5128821,43.3911318 17.5128821,43.2574277 17.5128821,43.1237236 C17.5128821,40.4332022 17.5103153,41.8815987 17.5143488,39.1909489 C17.5159378,38.1860491 18.056557,37.3826688 18.9016489,37.1004903 C20.1799206,36.6738189 21.4814159,37.6570126 21.487894,39.0819049 C21.5001169,41.8175081 21.4919276,40.4141934 21.492172,43.1497966 C21.492172,43.2818309 21.492172,43.4138653 21.492172,43.5818624 C22.0622485,43.5818624 22.5956562,43.5695323 23.1283305,43.5852018 C23.7006071,43.6020271 24.0625274,44.0075062 23.9910234,44.5551663 C23.9690221,44.7235487 23.8914067,44.9055455 23.7883676,45.0374514 C22.5866112,46.5781949 21.3797213,48.1146999 20.1632975,49.6427281 C19.7774203,50.1275819 19.2218891,50.1152519 18.8360119,49.6282146 C17.6299775,48.1058377 16.4302991,46.5778096 15.2282983,45.051708 C15.0054747,44.7687589 14.9284704,44.4535718 15.0751453,44.1093577 C15.2265871,43.7540979 15.5084474,43.5891833 15.8702454,43.5841742 C16.4036532,43.5769817 16.9373053,43.5823761 17.5128821,43.5823761" fill="#7ADCC7"/><g><mask id="b" fill="white"><use xlink:href="#a"/></mask><g/><path d="M63.4057733,32.9822095 C63.398927,16.1852689 49.8096519,2.58105192 33.0163603,2.55945042 C16.2166125,2.53790003 2.5711673,16.183331 2.57800843,32.9977132 C2.58485471,49.794783 16.174259,63.399 32.9674214,63.4206015 C49.7672984,63.4421519 63.4126144,49.796721 63.4057733,32.9822095 M0,31.0558778 C0.166702339,29.8067984 0.2906638,28.5503546 0.507079851,27.3100606 C1.8413442,19.6646813 5.46850819,13.2889239 11.2670638,8.16495911 C16.1902707,3.81462772 21.9318815,1.1388225 28.4486388,0.310538624 C38.6794622,-0.989573778 47.708376,1.78648855 55.3490505,8.74763892 C60.704573,13.6267748 64.0302266,19.6994354 65.40749,26.8223408 C68.7207475,43.9577783 57.812268,60.9791346 40.8808111,65.0361882 C39.1161681,65.4590509 37.2864453,65.6095658 35.4871963,65.8886319 C35.2986716,65.9179597 35.112342,65.9625328 34.9249794,66 L31.0588023,66 C30.1883604,65.895867 29.3155942,65.8077544 28.4477349,65.685017 C21.9423407,64.7655198 16.1909163,62.1658118 11.2674512,57.8154804 C5.46876645,52.6915156 1.8413442,46.315629 0.507079851,38.6701205 C0.2906638,37.4296973 0.166702339,36.1732536 0,34.9241741 C0,33.6347851 0,32.3452669 0,31.0558778" fill="#7ADCC7" mask="url(#b)"/></g></g></g></g></g></g></g></svg>