<svg xmlns="http://www.w3.org/2000/svg" viewBox="0 0 1363 190" style="enable-background:new 0 0 1363 190" xml:space="preserve"><style>.st0{fill:#28004d}.st1{fill:#e6465d}</style><g id="Layer_2"><path class="st0" d="M4.612 137.654a89.657 89.657 0 0 0 50.845 18.198c15.547 0 28.18-5.522 28.18-19.174 0-33.802-79.025-31.529-79.025-84.505 0-30.225 23.641-49.377 56.353-49.377a104.747 104.747 0 0 1 49.556 11.4v34.728A78.695 78.695 0 0 0 67.77 34.296c-13.602 0-24.938 4.553-24.938 18.198 0 24.703 79.025 23.727 79.025 83.201 0 28.273-20.406 51.679-60.885 51.679a107.434 107.434 0 0 1-56.36-14.621v-35.099zM230.345 36.91v147.555h-37.243V36.91h-48.579V5.709h133.112v31.529l-47.29-.328zM298.041 95.087c0-51.679 37.243-92.627 89.065-92.627s88.096 40.613 88.096 92.627-36.274 92.627-88.096 92.627c-55.384-.328-89.065-39.652-89.065-92.627zm37.243 0c0 33.802 20.406 59.802 51.821 59.802s50.845-26.976 50.845-59.802-20.406-58.505-50.845-58.505-51.821 26.007-51.821 58.505zM643.284 63.561a60.705 60.705 0 0 1-32.712 53.952l42.751 65.003h-43.072L567.5 110.367v-3.256c28.18-3.249 38.54-21.454 38.54-37.051 0-20.15-12.305-33.802-31.743-33.802h-22.345v147.555H514.71V6.361h66.392c32.712 0 62.182 20.15 62.182 57.2z"/><path class="st1" d="M686.035 183.809V6.357h112.706v31.529h-75.463v44.853h48.579v30.225h-48.579v70.853l-37.243-.008zM936.392 5.224h37.243v106.6c0 42.901-23.641 73.126-70.931 73.126s-70.924-30.546-70.924-73.126V5.224h37.243v107.904c0 20.15 10.039 40.613 33.681 40.613 23.641 0 34.008-17.877 34.008-38.675V5.224h-.32zM1018.98 183.813V2.784h5.508c33.681 36.075 68.986 66.3 102.667 102.374h1.297V6.346h37.243V187.39h-5.508L1057.193 81.439h-1.297v102.374h-36.916zM1211.68 183.642V6.19h60.885c56.353 0 85.823 38.675 85.823 89.065s-28.18 88.73-82.26 88.73h-64.447v-.343zm36.275-146.251v115.378h25.907c27.204 0 46.314-19.174 46.314-58.505.969-33.153-14.899-56.873-47.61-56.873h-24.611z"/></g></svg>