<svg data-name="Layer 1" xmlns="http://www.w3.org/2000/svg" viewBox="0 0 543.99 155.21"><path d="M228.24 98.39a35.7 35.7 0 0 1-19.31-6l3.5-5.31c5.66 3.61 10.85 5.36 16.69 5.36 6.82 0 10-2.62 10-5.71 0-8.87-28.88-3.56-28.88-17.68 0-6.88 6.89-12.31 18-12.31 7.47 0 13.94 2.8 17.73 6.6l-4.31 4.43a21.3 21.3 0 0 0-13.54-5.13c-6.47 0-10.84 2.33-10.84 5.65 0 8.23 28.93 3.86 28.93 17.74 0 7.4-7.41 12.36-17.97 12.36ZM296.55 97l-4.44-9.69h-19.6L268.2 97h-7.3l18.32-38.85h6.18L304 97Zm-14.41-31.1L274.85 82h14.75ZM321.39 97V58.14h7V91h26.43v6ZM390.4 98.39a35.69 35.69 0 0 1-19.3-6l3.5-5.31c5.66 3.61 10.85 5.36 16.68 5.36 6.83 0 10-2.62 10-5.71 0-8.87-28.87-3.56-28.87-17.68 0-6.88 6.88-12.31 18-12.31 7.47 0 14 2.8 17.74 6.6l-4.32 4.43a21.27 21.27 0 0 0-13.53-5.13c-6.48 0-10.85 2.33-10.85 5.65 0 8.23 28.93 3.86 28.93 17.74-.01 7.4-7.38 12.36-17.98 12.36ZM427.91 97V58.14h7V97ZM463.73 64.09v11.14h18.08v5.71h-18.08V97h-7V58.14h31.15v6ZM526.72 81.41V97h-7V81.35l-17.5-23.21h8.17l13.13 18 12.42-18h8ZM83.18 77.61ZM83.19 77.6l-.01.01.01-.01z" style="fill:#38c0f0"/><path d="M83.19 77.6Z" style="fill:#38c0f0;opacity:.5"/><path d="M62.4 41.62a41.59 41.59 0 0 1 20.78-36 41.58 41.58 0 0 0-62.37 36 41.55 41.55 0 0 1 41.59 0ZM160.79 56.81a41.4 41.4 0 0 0-15.23-15.22 41.54 41.54 0 0 1-20.79 36 41.56 41.56 0 0 1 20.8 36 41.59 41.59 0 0 0 15.22-56.78Z" style="fill:#38c0f0;opacity:.4"/><path d="M98.41 20.8A41.44 41.44 0 0 1 104 41.6a41.58 41.58 0 0 1 41.58 0 41.57 41.57 0 0 0-62.37-36 41.4 41.4 0 0 1 15.2 15.2Z" style="fill:#38c0f0;opacity:.4"/><path style="fill:#38c0f0;opacity:.5" d="M83.19 77.6zM62.4 41.62a41.55 41.55 0 0 1 20.77 36A41.56 41.56 0 0 1 104 41.6a41.52 41.52 0 0 0-20.79-36A41.59 41.59 0 0 0 62.4 41.62Z"/><path d="M62.4 41.62a41.55 41.55 0 0 1 20.77 36A41.56 41.56 0 0 1 104 41.6a41.52 41.52 0 0 0-20.79-36A41.59 41.59 0 0 0 62.4 41.62Z" style="fill:#38c0f0;opacity:.4"/><path d="M104 41.59a41.52 41.52 0 0 1-20.78 36 41.56 41.56 0 0 1 41.57 0 41.54 41.54 0 0 0 20.79-36 41.58 41.58 0 0 0-41.58 0Z" style="fill:#38c0f0;opacity:.5"/><path d="M104 41.59a41.52 41.52 0 0 1-20.78 36 41.56 41.56 0 0 1 41.57 0 41.54 41.54 0 0 0 20.79-36 41.58 41.58 0 0 0-41.58 0Z" style="fill:#38c0f0;opacity:.4"/><path d="M104 41.6a41.56 41.56 0 0 0-20.78 36 41.52 41.52 0 0 0 20.78-36Z" style="fill:#38c0f0;opacity:.5"/><path d="M104 41.6a41.56 41.56 0 0 0-20.78 36 41.52 41.52 0 0 0 20.78-36Z" style="fill:#38c0f0;opacity:.5"/><path d="M104 41.6a41.56 41.56 0 0 0-20.78 36 41.52 41.52 0 0 0 20.78-36Z" style="fill:#38c0f0"/><path d="M83.18 77.61Z" style="fill:#38c0f0;opacity:.5"/><path d="M104 113.6a41.54 41.54 0 0 1-20.77 36 41.57 41.57 0 0 0 62.37-36 41.55 41.55 0 0 1-41.6 0Z" style="fill:#38c0f0;opacity:.4"/><path d="M124.76 77.61a41.54 41.54 0 0 1-41.57 0 41.5 41.5 0 0 1 20.77 36 41.55 41.55 0 0 0 41.6 0 41.56 41.56 0 0 0-20.8-36Z" style="fill:#38c0f0;opacity:.5"/><path d="M124.76 77.61a41.54 41.54 0 0 1-41.57 0 41.5 41.5 0 0 1 20.77 36 41.55 41.55 0 0 0 41.6 0 41.56 41.56 0 0 0-20.8-36Z" style="fill:#38c0f0;opacity:.4"/><path style="fill:#38c0f0;opacity:.5" d="M83.19 77.6zM83.19 77.6zM83.19 77.6a41.54 41.54 0 0 0 41.57 0 41.56 41.56 0 0 0-41.57 0Z"/><path d="M83.19 77.6a41.54 41.54 0 0 0 41.57 0 41.56 41.56 0 0 0-41.57 0Z" style="fill:#38c0f0;opacity:.5"/><path d="M83.19 77.6a41.54 41.54 0 0 0 41.57 0 41.56 41.56 0 0 0-41.57 0Z" style="fill:#38c0f0"/><path d="M68 134.41a41.3 41.3 0 0 1-5.56-20.79 41.56 41.56 0 0 1-41.58 0 41.58 41.58 0 0 0 62.38 36A41.25 41.25 0 0 1 68 134.41Z" style="fill:#38c0f0;opacity:.4"/><path d="M104 113.6a41.55 41.55 0 0 1-20.77-36 41.54 41.54 0 0 1-20.77 36 41.52 41.52 0 0 0 20.79 36 41.54 41.54 0 0 0 20.75-36Z" style="fill:#38c0f0;opacity:.5"/><path d="M104 113.6a41.55 41.55 0 0 1-20.77-36 41.54 41.54 0 0 1-20.77 36 41.52 41.52 0 0 0 20.79 36 41.54 41.54 0 0 0 20.75-36Z" style="fill:#38c0f0;opacity:.4"/><path d="M104 113.6a41.5 41.5 0 0 0-20.77-36 41.55 41.55 0 0 0 20.77 36Z" style="fill:#38c0f0;opacity:.5"/><path d="M104 113.6a41.5 41.5 0 0 0-20.77-36 41.55 41.55 0 0 0 20.77 36Z" style="fill:#38c0f0;opacity:.5"/><path d="M104 113.6a41.5 41.5 0 0 0-20.77-36 41.55 41.55 0 0 0 20.77 36Z" style="fill:#38c0f0"/><path d="M41.59 77.61a41.58 41.58 0 0 1-20.79-36 41.57 41.57 0 0 0 0 72 41.58 41.58 0 0 1 20.79-36Z" style="fill:#38c0f0;opacity:.4"/><path style="fill:#38c0f0;opacity:.5" d="M83.17 77.61v.01-.01zM41.6 77.61a41.54 41.54 0 0 1 41.57 0 41.58 41.58 0 0 1-20.77-36 41.55 41.55 0 0 0-41.59 0 41.58 41.58 0 0 0 20.79 36Z"/><path d="M41.6 77.61a41.54 41.54 0 0 1 41.57 0 41.58 41.58 0 0 1-20.77-36 41.55 41.55 0 0 0-41.59 0 41.58 41.58 0 0 0 20.79 36Z" style="fill:#38c0f0;opacity:.4"/><path d="M62.4 41.62a41.58 41.58 0 0 0 20.77 36 41.55 41.55 0 0 0-20.77-36Z" style="fill:#38c0f0;opacity:.5"/><path d="M62.4 41.62a41.58 41.58 0 0 0 20.77 36 41.55 41.55 0 0 0-20.77-36Z" style="fill:#38c0f0;opacity:.5"/><path d="M62.4 41.62a41.58 41.58 0 0 0 20.77 36 41.55 41.55 0 0 0-20.77-36Z" style="fill:#38c0f0"/><path style="fill:#38c0f0;opacity:.5" d="M83.17 77.62zM83.17 77.62zM62.38 113.63a41.53 41.53 0 0 1 20.77-36 41.59 41.59 0 0 1-41.57 0 41.58 41.58 0 0 0-20.79 36 41.56 41.56 0 0 0 41.59 0Z"/><path d="M62.38 113.63a41.53 41.53 0 0 1 20.77-36 41.59 41.59 0 0 1-41.57 0 41.58 41.58 0 0 0-20.79 36 41.56 41.56 0 0 0 41.59 0Z" style="fill:#38c0f0;opacity:.4"/><path d="M41.6 77.61a41.59 41.59 0 0 0 41.57 0 41.54 41.54 0 0 0-41.57 0Z" style="fill:#38c0f0;opacity:.5"/><path d="M41.6 77.61a41.59 41.59 0 0 0 41.57 0 41.54 41.54 0 0 0-41.57 0Z" style="fill:#38c0f0;opacity:.5"/><path d="M41.6 77.61a41.59 41.59 0 0 0 41.57 0 41.54 41.54 0 0 0-41.57 0Z" style="fill:#38c0f0"/><path d="M62.4 113.62a41.54 41.54 0 0 0 20.77-36 41.53 41.53 0 0 0-20.77 36Z" style="fill:#38c0f0;opacity:.5"/><path d="M62.4 113.62a41.54 41.54 0 0 0 20.77-36 41.53 41.53 0 0 0-20.77 36Z" style="fill:#38c0f0;opacity:.5"/><path d="M62.4 113.62a41.54 41.54 0 0 0 20.77-36 41.53 41.53 0 0 0-20.77 36Z" style="fill:#38c0f0"/></svg>