<?xml version="1.0" encoding="UTF-8"?><svg width="69px" height="52px" viewBox="0 0 69 52" version="1.1" xmlns="http://www.w3.org/2000/svg" xmlns:xlink="http://www.w3.org/1999/xlink"><g stroke="none" stroke-width="1" fill="none" fill-rule="evenodd"><g transform="translate(-155.000000, -2547.000000)" fill="#69D5BD"><g transform="translate(154.000000, 2547.000000)"><g transform="translate(1.500000, 0.000000)"><path d="M67.3433231,20.2644065 C66.4532294,16.4181491 64.7944236,12.9277115 62.4130217,9.89033255 C60.1249901,6.9721315 57.2955238,4.62319619 54.0030768,2.90877164 C47.2545566,-0.605204515 39.2842499,-0.951540213 32.1354893,1.95786247 C31.9411193,2.03704777 31.7181689,2.08081107 31.5077438,2.0810396 C26.9700537,2.08720989 22.3566425,2.08698136 17.894332,2.08686709 L14.7712042,2.08686709 C14.7253161,2.08686709 14.6790863,2.08641003 14.6330843,2.08595298 C14.4869937,2.08435327 14.3361207,2.0829821 14.1835397,2.09566546 C13.5357537,2.14925551 13.050569,2.62471009 13.0037699,3.25179366 C12.9585649,3.85511022 13.4117532,4.42608992 14.0356272,4.55178087 C14.2245316,4.58994522 14.4116141,4.58994522 14.594142,4.58925963 L14.6459512,4.58914536 C18.2569965,4.59085933 21.8679279,4.59108786 25.4788593,4.59120213 L27.1524677,4.59131639 C26.9439783,4.77962429 26.7352612,4.96793218 26.5264302,5.15635434 C25.3868552,6.18450631 24.2085657,7.24762321 23.0582873,8.30708365 C22.8171182,8.52921383 22.6309466,8.83692813 22.5603495,9.13035937 C22.424393,9.69562584 22.662146,10.2009035 23.1960656,10.4816513 C23.563057,10.6745298 24.1428648,10.7564575 24.8233304,10.0521311 C30.7826425,3.88596164 37.9254821,1.46309719 46.0544047,2.85083953 C52.3025959,3.91749864 57.7217258,7.37171446 61.3136415,12.5772623 C64.9320881,17.8213172 66.2560128,24.1802509 65.0413999,30.4826236 C63.6936771,37.4765251 59.3133504,43.4151939 53.023598,46.7759414 C46.8153739,50.0930398 39.5726735,50.4280633 33.1526579,47.6949707 C24.50997,44.0156538 19.6510628,37.3189543 18.7109818,27.7908948 C18.2182819,22.7968506 19.4104631,17.9568349 22.2542766,13.4054513 C22.7156632,12.6667314 22.6167133,11.9502929 21.9961414,11.5356271 C21.7107922,11.3450339 21.3958378,11.2796746 21.0860073,11.3470907 C20.7194713,11.4265045 20.3940411,11.6804002 20.144446,12.0814686 C16.6735702,17.6604328 15.4373227,23.7281062 16.470091,30.1160631 C17.6243547,37.2565659 21.277189,43.0677156 27.3279358,47.3904558 L14.6770367,47.3911414 C13.2504045,47.3912557 13.0143595,48.1596844 13.0006955,48.6177708 C12.9905614,48.9549654 13.0912193,49.2352562 13.2998225,49.4511018 C13.5843747,49.7453329 14.0500883,49.8945623 14.6842103,49.8945623 L18.0549975,49.8944481 C22.3983176,49.8937625 26.8895502,49.8936482 31.3066557,49.903475 C31.6288976,49.9041606 31.9692443,49.9697484 32.2649554,50.0881264 C35.4472936,51.36149 38.7134376,52 42.0239894,52 C43.7514567,52 45.4911076,51.8260894 47.2370212,51.4778112 C50.689906,50.7890248 53.9097063,49.4115663 56.807037,47.3839428 C59.5974471,45.4310482 61.9572144,42.9717334 63.8208659,40.0743285 C65.6811013,37.182294 66.9405776,34.0191098 67.5641101,30.6726454 C68.2116683,27.1976335 68.1374274,23.6957694 67.3433231,20.2644065"/><path d="M59.527651,25.1130742 C59.5668266,25.6684903 59.7489312,26.1018902 60.0545461,26.366451 C60.2859871,26.5666592 60.5764738,26.6570758 60.8947333,26.626168 C61.6573595,26.5535119 62.0671794,25.934435 61.9909732,24.9700684 C61.9390401,24.3124722 61.8629469,23.6717139 61.7646127,23.065669 C61.001422,18.3560491 58.5750174,14.0320835 54.9321365,10.8904532 C51.2954651,7.75401255 46.7058213,6.01718376 42.0083599,6 L41.9943605,6 L41.980474,6.00172991 C41.5875889,6.05028269 41.1854461,6.09226182 40.7967382,6.13297235 C39.9505674,6.22142837 39.0754947,6.31299823 38.2239049,6.47803156 C27.6218763,8.53235633 20.46956,19.0397092 22.2803316,29.9006554 C23.1638716,35.1995978 25.9774035,39.8696605 30.2026124,43.0503868 C33.6428413,45.6401761 37.7017514,47 41.870963,47 C42.8407571,47 43.8170993,46.9264212 44.7924254,46.7775337 C52.3168536,45.6291047 57.649818,41.3481562 60.6433094,34.0534753 C61.0752573,33.0008832 61.3316487,31.8627183 61.5794599,30.7620348 C61.6576982,30.4144384 61.7386461,30.0549633 61.8236583,29.7055216 C61.9062997,29.3654215 61.8489475,29.0173638 61.6617626,28.7255858 C61.4732228,28.4316166 61.1728012,28.2297938 60.837494,28.1717842 C60.1538964,28.0542657 59.5500048,28.5040421 59.400302,29.242252 C59.3656423,29.413513 59.3322245,29.5850046 59.3023065,29.7571883 C58.5060367,34.3366038 55.9971037,38.3742117 52.2374863,41.1262665 C48.4779817,43.8779753 43.9400452,44.9988411 39.4588965,44.2825434 C34.7776924,43.5341847 30.6762197,41.0071334 27.9098791,37.1670811 C25.1436515,33.3270288 24.0050748,28.5800428 24.7039137,23.8005344 C25.3929304,19.0871087 27.8708164,14.9189502 31.6805606,12.0641388 C35.4569998,9.23412281 40.0448372,8.08050406 44.5981279,8.81560012 C50.8009717,9.81698686 55.333489,13.3305477 58.0695729,19.2586003 C58.8885352,21.0330258 59.3791901,23.0027003 59.527651,25.1130742"/><path d="M44.342461,25.7793405 C44.6808441,25.2084576 45.0195903,24.6378026 45.3583364,24.0672615 C46.1546317,22.7261994 46.9777848,21.3394438 47.78146,19.9719456 C48.1894071,19.2778841 48.014348,18.5391548 47.3554867,18.1755445 C47.0451711,18.0041657 46.6914234,17.9563072 46.3593312,18.0406293 C46.0124794,18.1289395 45.7147457,18.3558113 45.5211765,18.6794256 C44.0492036,21.1401476 42.5953778,23.595286 41.1998648,25.9765857 C40.815267,26.6330441 40.9964961,27.3144573 41.6507601,27.6722562 C42.9999375,28.4100739 44.4028304,29.1465243 45.8203619,29.8610965 C46.0070352,29.9552182 46.2067744,30 46.404457,30 C46.8587398,30 47.3014084,29.7632146 47.5467573,29.3450229 C47.8746152,28.7859907 47.7103233,28.1262278 47.1471579,27.7405114 C46.9942382,27.6357926 46.8306722,27.5534077 46.6726713,27.4737576 C46.6141167,27.4442448 46.5558039,27.4147321 46.4980961,27.3841939 C45.9087988,27.0719745 45.3191386,26.7602109 44.7119362,26.4391035 L44.1359468,26.1345186 L44.1384874,26.1300746 C44.2127696,26.0013126 44.2770104,25.8899847 44.342461,25.7793405"/><path d="M4.2847937,14.9928952 C4.3429707,14.9984971 4.39977073,15 4.45530853,15 C4.48870006,15 4.52174735,14.9993169 4.55445039,14.9987703 C4.58520273,14.9983604 4.61606982,14.9978139 4.64682215,14.9978139 L6.59466144,14.9980872 C9.51647774,14.9984971 12.4385235,14.9987703 15.3605693,14.9931685 C15.5893759,14.9927586 15.8872605,14.9777293 16.1641463,14.8636433 C16.7381134,14.6271369 17.0411616,14.0879951 16.9954921,13.3847608 C16.9498226,12.6797503 16.5774669,12.2012722 15.9469292,12.0374529 C15.7804305,11.9941412 15.6166858,11.9985134 15.458449,12.002339 C15.4145007,12.003432 15.365733,12.0056181 15.3272926,12.0045251 C13.9559448,12.0032954 12.5845971,12.0037053 11.2132494,12.0035687 L10.0562501,12.0035687 L9.33357018,12.0035687 L7.70713872,12.0037053 C7.38079675,12.003432 7.05491377,12.0027489 6.7288013,12.0017925 C5.94083002,11.9994698 5.12600783,11.9970104 4.32392261,12.0110833 C3.56452347,12.0243364 3.00765372,12.6406741 3,13.4764395 C2.99250704,14.2962191 3.52080466,14.9197982 4.2847937,14.9928952"/><path d="M14.6729088,39.9960316 C15.4778472,39.9922001 15.9861414,39.4311558 15.9997316,38.5319795 C16.0061925,38.1053121 15.8959117,37.737486 15.6809198,37.467911 C15.4408641,37.1669996 15.0862947,37.0075809 14.6555312,37.0066231 C11.5740185,37.0006021 8.44906175,36.9986863 5.36732621,37.0008758 C4.93600577,37.0011495 4.57653493,37.1646734 4.32779047,37.4733846 C4.11023654,37.7435069 3.99683669,38.1033964 4,38.5140535 C4.00708501,39.4115876 4.55013438,39.993158 5.38347845,39.9960316 C6.44718684,39.9997263 7.51100663,39.9990421 8.57460363,39.9984948 L10.0003449,39.9980842 L11.2888479,39.9990421 C11.7620528,39.9995895 12.2421641,40 12.7247261,40 C13.3731549,40 14.0260395,39.9990421 14.6729088,39.9960316"/><path d="M3.3359686,24.9947976 C4.88024976,24.9982202 6.45713305,25 8.09207809,25 C9.55963481,25 11.0740787,24.998494 12.6537268,24.9957559 C13.0687992,24.9950714 13.4165937,24.8410522 13.659324,24.5506746 C13.8841981,24.2817913 14.0019344,23.9151572 14,23.4904749 C13.9959439,22.590592 13.4645176,22.008194 12.6458931,22.0065512 C11.5583874,22.0043607 10.4709969,22.0047714 9.38303033,22.005319 L8.04484532,22.0018964 C7.59359957,22.0018964 7.14223862,22.0014856 6.69099286,22.000938 C5.58908691,21.9998428 4.44916433,21.9984737 3.32767406,22.0047714 C2.56388561,22.0090155 2.01805912,22.6075683 2.00043323,23.4603556 C1.99179309,23.8718949 2.11263986,24.2515351 2.34039397,24.529728 C2.58542837,24.8287306 2.93909813,24.9939761 3.3359686,24.9947976"/><path d="M6.05370677,29.9984908 L7.46050902,29.9990396 C8.52726101,30 9.59412834,30.0008232 10.6608803,29.9961584 C11.0824827,29.9943748 11.430146,29.8433175 11.6666124,29.5594505 C11.8868146,29.2949288 12.0020487,28.9249002 12,28.4894271 C11.9953585,27.5737538 11.4759397,27.0040991 10.6445007,27.0030015 C7.6210755,26.9990227 4.50179488,26.9990227 1.3739784,27.0028643 C0.540578411,27.0038247 0.0143540862,27.566345 0.000281449701,28.4709051 C-0.0064088201,28.9032226 0.106287621,29.2729768 0.326374428,29.5402425 C0.571492071,29.8381039 0.939110862,29.9961584 1.38931988,29.9975304 C2.01901269,29.999314 2.64859014,30 3.27828295,30 C3.78132203,30 4.28424576,29.9995884 4.78728484,29.9991768 L6.05370677,29.9984908 Z"/><path d="M13.4497519,17.0044648 C12.8835383,16.9982981 12.3084622,16.9998055 11.7525881,17.00145 C11.5195789,17.0021352 11.2868158,17.0028204 11.0538066,17.0029574 C10.7906404,17.0030944 10.5274742,17.0024092 10.2641848,17.001587 C9.69747884,17.0002166 9.1119401,16.9985721 8.53489457,17.0056982 C8.10814183,17.0109057 7.71991623,17.15973 7.4419792,17.4247634 C7.15271789,17.7004858 6.99577825,18.0848802 7.0000864,18.5070973 C7.00870269,19.3605761 7.66329487,19.9846516 8.5565584,19.9906813 C9.47394755,19.9969851 10.3366848,20 11.156956,20 C11.9654106,20 12.7327531,19.9969851 13.4695693,19.9909554 C13.9407576,19.9871183 14.3550782,19.8096528 14.6363387,19.4914483 C14.8737791,19.2227149 15.0030235,18.8631246 15,18.4790043 C14.9929302,17.6210032 14.3554475,17.0146057 13.4497519,17.0044648"/><path d="M13.3318804,8.98209972 C14.0403346,8.99398769 14.7612768,9 15.5063546,9 C16.1965571,9 16.9074129,8.99480755 17.6475674,8.98469595 C18.4332311,8.97376448 19.0020358,8.34042257 19,7.47874963 C18.9980733,6.62705166 18.4381543,6.02172164 17.6386817,6.00682751 C17.1503286,5.99753577 16.6552512,5.99972206 16.176144,6.00190835 C15.7477093,6.00382136 15.3187943,6.00382136 14.8899994,6.002045 C14.3961227,6.00026863 13.8850751,5.99835563 13.3818324,6.00641758 C12.5684309,6.01967199 12.0131949,6.60108942 12.0002266,7.45319733 C11.9938625,7.86586023 12.1217445,8.2475051 12.3600973,8.52762395 C12.6039737,8.81416505 12.9490749,8.97567748 13.3318804,8.98209972"/><path d="M10.1999099,32.0139968 C9.49391502,32.0249205 9.00045107,32.6376056 9,33.5041309 C8.99954956,34.3739334 9.47926549,34.9717348 10.1935993,34.9913976 C10.4318233,34.9980883 10.6717376,35 10.9098489,35 C11.0865448,35 11.2624519,34.9989076 11.4356545,34.9978153 C11.6230559,34.9967229 11.8104572,34.9957671 11.9977459,34.9956305 C12.2979487,34.9961767 12.5980388,34.9961767 12.8979035,34.9961767 C12.9883925,34.995494 13.0807973,34.996996 13.1724132,34.9978153 C13.3790844,34.9998635 13.5929676,35.0017751 13.8050478,34.9931727 C14.5301997,34.9636786 14.9992102,34.3819896 15,33.5112313 C15.0007879,32.6412923 14.5091269,32.0257398 13.8043716,32.0142699 C12.6311693,31.9954264 11.4184131,31.9951533 10.1999099,32.0139968"/><path d="M14.0640748,45.9926418 C14.2500353,45.9983649 14.43739,46 14.6234578,46 C14.7812133,46 14.9378963,45.9987736 15.0923272,45.9975473 C15.232602,45.9963209 15.3730912,45.9952308 15.5134732,45.9950946 L15.5135804,45.9950946 C15.6626491,45.9946858 15.8117179,45.9956396 15.9608938,45.9965934 C16.2711498,45.9983649 16.5917012,46.0002725 16.9083918,45.991688 C17.5551785,45.9742464 17.9835097,45.4065772 17.9995963,44.5455351 C18.0077468,44.1081328 17.8922454,43.7083389 17.6745407,43.4195989 C17.4837542,43.1666958 17.2264766,43.0238928 16.9501096,43.0173522 C16.013336,42.9948689 15.0393488,42.9941876 14.0542084,43.0155808 C13.4224358,43.0290708 12.998716,43.6332583 13,44.5189639 C13.0012898,45.3945861 13.4188968,45.97302 14.0640748,45.9926418"/><path d="M29.226757,24.0050488 C29.2212905,24.0051855 29.2159379,24.0051855 29.2104713,24.0053221 L28.9826996,24.0035458 C28.9066238,24.0035458 28.830662,24.0025892 28.7545862,24.0017694 C28.5859212,23.9998564 28.411562,23.9978067 28.2374305,24.0054588 C27.5199495,24.0368868 27.0111074,24.6378447 27.0001744,25.4669971 C26.9892413,26.3028451 27.493528,26.9382372 28.1996204,26.9777271 C28.4661133,26.9926213 28.7345423,27 29.0027435,27 C29.2718558,27 29.5408543,26.9926213 29.8078027,26.9775905 C30.4735795,26.9400135 30.9859521,26.3144598 30.9997323,25.5222011 C31.0135124,24.7160047 30.4938512,24.0669483 29.7908337,24.0124276 C29.6004166,23.9975334 29.4104549,24.0013595 29.226757,24.0050488"/><path d="M43.9954408,11.7798549 C44.0005688,11.5696415 44.0058353,11.3523792 43.9843534,11.1346622 C43.9236498,10.5163004 43.3328287,10.0293646 42.6099288,10.0018516 C41.7776791,9.97070041 41.1685638,10.335078 41.0812503,10.9091005 C40.9731479,11.6193241 40.9728708,12.3754786 41.080696,13.0959344 C41.163713,13.6516528 41.7185,14 42.5061228,14 C42.5406324,14 42.5756963,13.9993179 42.6110375,13.9980673 C43.3419759,13.9700994 43.9200464,13.4961244 43.9854622,12.8711685 C44.0054195,12.677895 44.0002916,12.4859857 43.9953023,12.3003293 C43.9930848,12.2198365 43.9910059,12.1392301 43.9910059,12.058851 L43.9910059,12.058851 C43.9908673,11.965966 43.9930848,11.8728536 43.9954408,11.7798549"/><path d="M32.4485882,17.8233595 C32.6074166,17.9404572 32.7913032,18 32.9785244,18 C33.1162964,18 33.255974,17.96772 33.388601,17.9024975 C33.7592325,17.7203665 33.99314,17.3342376 33.9989519,16.8950975 L34,16.875597 L33.9947597,16.8530673 C33.9932353,16.843885 33.9925683,16.8318629 33.991425,16.8182315 C33.9841839,16.7290592 33.9719883,16.5798709 33.8713747,16.4730914 C33.7976295,16.3950894 33.7243607,16.3162354 33.6509014,16.2373814 C33.307043,15.8678184 32.9513702,15.4856653 32.545867,15.1678828 C32.1985787,14.8960117 31.7018944,14.9592463 31.3381229,15.3219936 C30.9519612,15.7066079 30.8912691,16.1921327 31.1833914,16.5587611 C31.6139528,17.0993795 32.0278405,17.5130553 32.4485882,17.8233595"/><path d="M53.5988915,15.2662249 C53.1891813,14.9268597 52.6865532,14.9108061 52.2876835,15.2245976 C51.9392411,15.4986284 51.4975904,15.8708475 51.173539,16.319881 C50.9895421,16.5748715 50.9441478,17.0462121 51.0746201,17.3491767 C51.1701514,17.5710334 51.4000266,17.713649 51.584701,17.8281707 C51.6493564,17.8682113 51.7103339,17.9061052 51.7545667,17.9403591 L51.8314176,18 L51.9267553,17.9750796 C52.0103814,17.953146 52.0806507,17.9397991 52.1426928,17.9279456 C52.2687127,17.9038652 52.3775042,17.8831449 52.4630661,17.8052104 C52.5644048,17.7126223 52.6671953,17.6210609 52.7700826,17.5294995 C53.1372053,17.2027345 53.5168139,16.8647693 53.8318639,16.4786434 C54.1241683,16.1205179 54.0283467,15.622017 53.5988915,15.2662249"/><path d="M32.0181779,37 C32.2475401,37 32.4749592,36.9184564 32.6517689,36.7534068 C32.9872538,36.4401853 33.3217209,36.0838861 33.6742299,35.6639025 C33.773321,35.5458556 33.8194895,35.4020996 33.8728747,35.2356761 C33.8980407,35.1572726 33.9241319,35.0762197 33.9585501,34.9878073 L34,34.8814376 L33.9325514,34.7911607 C33.888696,34.7322845 33.8456732,34.6610443 33.8002449,34.5856827 C33.6832971,34.3921762 33.550898,34.1728623 33.3424459,34.0833705 C33.0655274,33.9646368 32.5972734,33.9588473 32.3239633,34.1572601 C31.9099271,34.4572344 31.5721292,34.8664241 31.2453413,35.2620723 L31.2351639,35.2744363 C30.8955155,35.6857848 30.9270655,36.2967236 31.3085339,36.6955118 C31.5017199,36.8975554 31.7611517,37 32.0181779,37"/><path d="M52.5775233,34.2648976 C52.4726966,34.1728119 52.339157,34.1396648 52.1845936,34.1013035 C52.1117892,34.0832402 52.0291542,34.0627561 51.9384407,34.0336127 L51.833906,34 L51.7501031,34.0684358 C51.6991011,34.1100559 51.6333046,34.1535382 51.5637121,34.1996276 C51.3712866,34.3269088 51.1532626,34.4710428 51.0644958,34.692365 C50.94322,34.9937616 50.9980179,35.4513966 51.1865502,35.7123836 C51.4683267,36.1022346 51.8481165,36.4216946 52.2154479,36.73054 L52.2650872,36.7723464 C52.4459303,36.9244879 52.67797,37 52.9135137,37 C53.1710544,37 53.4326831,36.9098696 53.6366912,36.7315642 C54.0540513,36.3665736 54.1204318,35.806797 53.7910599,35.4294227 C53.4233392,35.0080074 52.9952727,34.6319367 52.5775233,34.2648976"/><path d="M43.9856443,39.1394885 C43.926135,38.5308184 43.3721874,38.0646585 42.6384691,38.0057513 C41.9499007,37.9502426 41.1559828,38.2987014 41.0680305,38.9574426 C40.9785594,39.6293246 40.9773167,40.3238633 41.0644406,41.0216872 C41.139414,41.6214079 41.8562874,42 42.5005345,42 C42.5404375,42 42.5800644,41.9985273 42.619277,41.995582 C43.3469201,41.9408662 43.920474,41.4673429 43.983159,40.8696613 C44.0045603,40.6668845 43.9995896,40.465014 43.994619,40.2698273 C43.9924099,40.1813532 43.9902007,40.0928791 43.9904769,40.0046315 C43.990753,39.920802 43.9931002,39.8369726 43.9951713,39.7530298 C44.0004181,39.5533117 44.0058029,39.3467966 43.9856443,39.1394885"/><path d="M55.1280348,24.030269 C54.4974502,24.0741681 54.012657,24.6950263 54.0002322,25.4743029 C53.9878075,26.2640771 54.4753364,26.9134289 55.1346462,26.9848671 C55.2415674,26.9964554 55.3481467,27 55.4533581,27 C55.5388495,27 55.623543,26.9976823 55.7068686,26.9953647 C55.7879145,26.993047 55.8690743,26.9908657 55.9500062,26.9908657 L56.0602331,26.9897751 C56.1158595,26.9908657 56.1714859,26.9923654 56.2273403,26.9940014 C56.439473,26.9998637 56.6591289,27.0059986 56.8792407,26.9815951 C57.5163227,26.9111112 57.9876653,26.3032046 57.9997481,25.5360615 C58.0127428,24.7220201 57.5215662,24.0741681 56.8574689,24.029042 C56.2815988,23.9899146 55.6998013,23.9903236 55.1280348,24.030269"/></g></g></g></g></svg>