<svg width="66px" height="66px" viewBox="0 0 66 66" version="1.1" xmlns="http://www.w3.org/2000/svg" xmlns:xlink="http://www.w3.org/1999/xlink"><defs><polygon id="a" points="0 0 66 0 66 66 0 66"/></defs><g stroke="none" stroke-width="1" fill="none" fill-rule="evenodd"><g transform="translate(-1336.000000, -2472.000000)"><g transform="translate(860.000000, 2249.000000)"><g transform="translate(139.000000, 71.000000)"><g transform="translate(210.000000, 152.000000)"><g transform="translate(123.000000, 0.000000)"><g transform="translate(4.000000, 0.000000)"><g><mask id="b" fill="white"><use xlink:href="#a"/></mask><g/><path d="M48.3555427,15.1098052 C47.5211932,12.3445597 46.7115088,9.66144263 45.8725104,6.88121782 C49.0026446,8.42073664 51.6726662,10.4104117 54.1288381,12.970078 C52.133037,13.7097495 50.2541042,14.4061616 48.3555427,15.1098052 L48.3555427,15.1098052 Z M34.9668229,17.2874973 L34.9668229,3.84763485 C36.6155057,4.12526994 38.2062064,4.4123317 39.8037512,4.65432619 C40.6028465,4.77532343 41.051595,5.14645051 41.3028942,5.95365838 C42.3079618,9.18261896 43.3806969,12.3905309 44.4254093,15.6070948 C44.4642793,15.7269298 44.4724149,15.8568372 44.5072817,16.0515692 C41.3779224,16.7874958 38.2235106,17.150875 34.9668229,17.2874973 L34.9668229,17.2874973 Z M31.0372061,17.185999 C29.9339949,17.430447 23.9731937,16.7180225 21.4886117,16.0298749 C21.7368117,15.0708071 21.9301287,14.0892702 22.2456086,13.1486684 C23.1105633,10.5705361 24.0213615,8.00764146 24.9326762,5.44526334 C25.0084792,5.23206542 25.1926275,4.95352641 25.3814247,4.90019465 C27.2176134,4.38185641 29.0873775,4.04662819 31.0372061,3.95946368 L31.0372061,17.185999 Z M31.0316533,31.0133884 L19.3694855,31.0133884 C19.7557321,27.285976 20.1372006,23.6050513 20.5115667,19.9928252 C24.1113695,20.4454349 27.5444573,20.8769961 31.0316533,21.3155304 L31.0316533,31.0133884 Z M20.099622,58.9735656 C18.6358623,58.7309255 13.452074,54.9620615 11.9428584,52.9971799 C13.866214,52.2829475 15.7545738,51.5818867 17.6549432,50.8763061 C18.4967826,53.6645372 19.2983314,56.3196325 20.099622,58.9735656 L20.099622,58.9735656 Z M4.02577169,34.961101 L15.4796426,34.961101 C15.9090208,39.0344596 16.3333626,43.0597809 16.7557673,47.0672819 C14.3497002,47.9770211 11.8678302,48.9154277 9.35664621,49.8648105 C6.96388019,47.6947372 3.7773135,38.8664581 4.02577169,34.961101 L4.02577169,34.961101 Z M9.32449128,16.1087749 C11.8289602,17.0563499 14.326714,18.0013423 16.7560256,18.9203789 C16.3338791,22.9212942 15.9090208,26.9466155 15.4783513,31.0281095 L4.03029146,31.0281095 C4.05198635,26.6392799 6.10112075,20.2762712 9.32449128,16.1087749 L9.32449128,16.1087749 Z M20.138492,6.88057215 C19.3023346,9.65291988 18.4970408,12.322478 17.6573968,15.1061894 C15.7814341,14.4130057 13.888942,13.7136235 11.8868132,12.9736937 C14.3197406,10.4255202 16.9972521,8.43016332 20.138492,6.88057215 L20.138492,6.88057215 Z M65.4805623,27.2513684 C63.4802414,16.8054453 57.7956626,9.00506164 48.4983674,3.87359051 C44.4456837,1.6368848 40.0627986,0.419164409 35.4364916,0.105630464 C35.2690018,0.0942667957 35.1046113,0.0362862597 34.9388004,0 L31.0723312,0 C29.8207424,0.167355845 28.5583062,0.277505951 27.3191145,0.511365083 C16.8842579,2.48128285 9.07422518,8.1412937 3.93615111,17.406041 C1.01870441,22.6666447 -0.326637291,28.3886392 0.067099208,34.3849113 C0.927534202,47.4913534 7.32016717,57.0352854 19.0807368,62.8834424 C23.8762123,65.2681341 29.049024,66.2717526 34.3872593,65.9374283 C41.9422479,65.4642865 48.3399172,63.0967694 53.5601219,58.8674186 C53.3875959,58.7035494 53.2962965,58.6196132 53.2523902,58.5799695 C53.0107762,58.4055113 52.7886618,58.2057432 52.2320845,57.6701012 C51.4411248,56.9088645 50.9771382,56.4735586 50.6304073,56.1560215 C49.1576081,57.2843821 47.5853739,58.2630781 45.8726395,59.1033439 C46.18954,58.0533667 46.5017915,57.0191438 46.8127516,55.9890531 C45.404908,56.3924633 43.9508335,56.5812551 42.4906897,56.5472933 C42.0226998,57.8840739 41.5479949,59.2186593 41.0710946,60.5522116 C40.9915467,60.7747071 40.7610384,61.0593153 40.5557117,61.1025748 C38.7364399,61.4858403 36.9070955,61.8209394 34.9704388,62.1914208 L34.9704388,54.2364654 C33.6768807,53.4013649 32.5151708,52.3582318 31.5341225,51.1347005 C31.3584972,50.9158207 31.1924279,50.6907426 31.0306202,50.4629527 L31.0306202,62.0272933 C29.0704607,61.9420658 27.1844254,61.5877259 25.3235717,61.0830757 C25.2057994,61.0510508 25.0797624,60.9083593 25.0299158,60.7873621 C23.5917251,57.2962623 22.371129,53.7336231 21.5313559,50.0472749 C21.5269652,50.027905 21.537167,50.0051776 21.5505972,49.9216289 C24.3083023,49.279969 27.1168871,48.9156859 29.9870699,48.7527206 C29.3682489,47.5605685 28.9176925,46.288225 28.6487016,44.9722347 C25.9967591,45.3039763 23.3495946,45.6352014 20.6559411,45.9721084 C19.9835285,42.4368453 19.6225926,38.7402956 19.513989,34.9487043 L30.2191278,34.9487043 C30.7554308,33.9984175 31.3995625,33.105853 32.1463576,32.2924467 C33.0051138,31.3570102 33.9598183,30.5597456 34.9806405,29.8980701 L34.9806405,21.3117855 C38.4119205,20.8829362 41.8490115,20.4534411 45.3560944,20.0151651 C45.8457792,22.6013036 46.1709443,25.2725405 46.3523808,28.0012414 C47.7443407,28.3480916 49.1050496,28.9042657 50.3889225,29.6793195 C50.0127485,26.0970521 49.6370911,22.5205957 49.2588509,18.9189585 C51.6367663,18.01955 54.1330996,17.0754615 56.7177621,16.0977986 C59.8790181,20.5151665 61.6598073,25.4921951 62.0496697,31.0272056 L52.2584283,31.0272056 C53.5376522,32.1254783 54.6257545,33.4667786 55.4624284,34.9629088 L61.9937537,34.9629088 C61.9204043,39.3432157 60.0412133,45.1399779 57.2349529,49.127076 C57.3128221,49.1934501 57.3822974,49.2516889 57.4513853,49.3095404 C57.8927731,49.6789887 58.3491407,50.0612212 60.095967,51.7336175 C60.806604,50.7048181 61.4822449,49.621783 62.1221152,48.4830917 C64.379159,44.4659058 65.5688915,40.087536 65.8906991,35.4826675 C65.9037418,35.2956835 65.9624988,35.1119279 66.0000775,34.9266226 L66.0000775,31.0602635 C65.830005,29.7899862 65.7211431,28.5080869 65.4805623,27.2513684 L65.4805623,27.2513684 Z" fill="#7ADCC7" mask="url(#b)"/></g><path d="M49.6786604,50.9216683 C44.0851516,54.8543225 37.2076622,53.3534358 33.5680877,48.852585 C29.9744023,44.4084763 30.1656501,37.9826594 34.0582661,33.778703 C37.9953371,29.5266644 44.3907308,28.786949 49.2175538,31.9473161 C53.7453158,34.9117355 56.5195168,41.8440952 52.3241896,48.2537555 C52.4965342,48.36892 52.7201129,48.4763293 52.8906324,48.6385419 C56.5201686,52.0906332 54.6002599,50.05787 58.2300568,53.509832 C58.782029,54.0345995 59.1089884,54.6348508 58.9667584,55.4020971 C58.8310468,56.1332818 58.3982297,56.6647704 57.679258,56.8912218 C56.9484229,57.1215508 56.2609999,56.9915222 55.6899942,56.4493055 C54.5,55.3193751 55.3958872,56.2506436 54.208769,55.1178696 C51.5543749,52.5847677 52.3588671,53.4799745 49.6786604,50.9216683" fill="#7ADCC7"/></g></g></g></g></g></g></g></svg>