<?xml version="1.0" encoding="UTF-8" standalone="no"?><svg xmlns:dc="http://purl.org/dc/elements/1.1/" xmlns:cc="http://creativecommons.org/ns#" xmlns:rdf="http://www.w3.org/1999/02/22-rdf-syntax-ns#" xmlns:svg="http://www.w3.org/2000/svg" xmlns="http://www.w3.org/2000/svg" xmlns:sodipodi="http://sodipodi.sourceforge.net/DTD/sodipodi-0.dtd" xmlns:inkscape="http://www.inkscape.org/namespaces/inkscape" inkscape:version="1.0 (4035a4f, 2020-05-01)" sodipodi:docname="puori.svg" version="1.1" viewBox="0 0 400 180"><metadata><rdf:RDF><cc:Work rdf:about=""><dc:format>image/svg+xml</dc:format><dc:type rdf:resource="http://purl.org/dc/dcmitype/StillImage"/></cc:Work></rdf:RDF></metadata><defs/><sodipodi:namedview inkscape:current-layer="svg14" inkscape:window-maximized="0" inkscape:window-y="83" inkscape:window-x="73" inkscape:cy="90" inkscape:cx="200" inkscape:zoom="1.855" showgrid="false" inkscape:window-height="606" inkscape:window-width="1537" inkscape:pageshadow="2" inkscape:pageopacity="0" guidetolerance="10" gridtolerance="10" objecttolerance="10" borderopacity="1" bordercolor="#666666" pagecolor="#ffffff"/><g transform="translate(20.625925,20.493975)"><path d="m 333.771,33.27305 h 23.015 v 67.239 c 0,4.582 -3.716,8.296 -8.298,8.296 h -14.717 z m -16.9571,0 v 22.671 c -12.49,-4.117 -25.062,1.958 -25.062,18.191 v 26.367 c 0,4.587 -3.719,8.306 -8.308,8.306 h -14.706 v -75.535 h 23.014 v 8.892 c 5.585,-11.361 18.088,-13.132 25.062,-8.892 z m -152.7939,0 v 42.475 c 0,19.837 -15.71,35.147 -35.281,35.147 -19.572,0 -35.282,-15.31 -35.282,-35.147 v -42.475 h 22.913 l 0.039,44.404 c 0,6.81 5.52,12.33 12.33,12.33 6.809,0 12.33,-5.52 12.33,-12.33 l -0.042,-44.404 z m 192.2929,-13.9238 -5.157,5.157 c -3.245,3.246 -8.51,3.246 -11.757,0 l -5.157,-5.157 c -3.245,-3.247 -3.245,-8.511 0,-11.757 l 5.157,-5.157 c 3.247,-3.247 8.512,-3.247 11.757,0 l 5.157,5.157 c 3.247,3.246 3.247,8.51 0,11.757 z m -139.9531,70.6592 c 10.272,0 18.602,-8.369 18.602,-18.693 0,-10.325 -8.33,-18.694 -18.602,-18.694 -10.271,0 -18.6,8.369 -18.6,18.694 0,10.324 8.329,18.693 18.6,18.693 z m 0,-58.823 c 22.081,0 39.808,17.36 39.808,39.855 0,22.493 -17.727,39.855 -39.808,39.855 -22.081,0 -39.806,-17.362 -39.806,-39.855 0,-22.495 17.725,-39.855 39.806,-39.855 z M 42.687,89.94105 c 9.028,-0.716 16.343,-8.066 17.055,-17.14 0.906,-11.534 -8.6,-21.088 -20.076,-20.178 -9.029,0.715 -16.343,8.067 -17.055,17.14 -0.904,11.533 8.6,21.086 20.076,20.178 z m 2.287,-58.864 c 19.704,0 35.949,17.384 35.949,39.909 0,22.523 -16.245,39.909 -35.949,39.909 -10.077,0 -17.447,-3.477 -22.411,-9.222 v 29.176 c 0,4.508 -3.637,8.163 -8.122,8.163 H 0 v -105.727 h 22.563 v 7.012 c 4.964,-5.744 12.334,-9.22 22.411,-9.22 z"/></g></svg>