<?xml version="1.0" encoding="UTF-8"?>
<svg id="Calque_1" xmlns="http://www.w3.org/2000/svg" version="1.1" viewBox="0 0 146.49 99.74">
  <!-- Generator: Adobe Illustrator 30.1.0, SVG Export Plug-In . SVG Version: 2.1.1 Build 136)  -->
  <defs>
    <style>
      .st0 {
        fill: #85c9bb;
      }
    </style>
  </defs>
  <g>
    <path class="st0" d="M30.87,68.1h-10.37c.37,1.93,1.98,3.17,4.28,3.17,1.49,0,2.65-.47,3.59-1.44l1.66,1.91c-1.19,1.41-3.04,2.15-5.32,2.15-4.43,0-7.3-2.85-7.3-6.78s2.9-6.76,6.83-6.76,6.68,2.7,6.68,6.83c0,.25-.03.62-.05.92ZM20.47,66.04h7.5c-.25-1.91-1.71-3.22-3.74-3.22s-3.46,1.29-3.76,3.22Z"/>
    <path class="st0" d="M33.46,65.55h6.81v2.57h-6.81v-2.57Z"/>
    <path class="st0" d="M42.84,65.05c0-5.17,3.96-8.91,9.28-8.91,2.82,0,5.25,1.01,6.86,2.9l-2.08,1.96c-1.26-1.36-2.82-2.03-4.63-2.03-3.59,0-6.19,2.52-6.19,6.09s2.6,6.09,6.19,6.09c1.81,0,3.37-.67,4.63-2.05l2.08,1.98c-1.61,1.88-4.04,2.9-6.88,2.9-5.3,0-9.26-3.74-9.26-8.91Z"/>
    <path class="st0" d="M60.18,67.11c0-3.96,2.97-6.76,7.03-6.76s7.05,2.8,7.05,6.76-2.94,6.78-7.05,6.78-7.03-2.82-7.03-6.78ZM71.15,67.11c0-2.52-1.68-4.13-3.94-4.13s-3.91,1.61-3.91,4.13,1.68,4.13,3.91,4.13,3.94-1.61,3.94-4.13Z"/>
    <path class="st0" d="M99.33,66.14v7.57h-3.09v-7.18c0-2.35-1.09-3.49-2.97-3.49-2.03,0-3.44,1.34-3.44,3.96v6.71h-3.09v-7.18c0-2.35-1.09-3.49-2.97-3.49-2.05,0-3.44,1.34-3.44,3.96v6.71h-3.09v-13.22h2.95v1.68c.99-1.19,2.52-1.83,4.33-1.83,1.93,0,3.54.72,4.46,2.2,1.06-1.36,2.85-2.2,4.95-2.2,3.19,0,5.42,1.81,5.42,5.79Z"/>
    <path class="st0" d="M114.35,65.97v7.75h-2.92v-1.61c-.74,1.14-2.18,1.78-4.16,1.78-3.02,0-4.93-1.66-4.93-3.96s1.49-3.94,5.5-3.94h3.42v-.2c0-1.81-1.09-2.87-3.29-2.87-1.48,0-3.02.5-4.01,1.31l-1.21-2.25c1.41-1.09,3.46-1.63,5.59-1.63,3.81,0,6.01,1.81,6.01,5.62ZM111.26,69.58v-1.53h-3.19c-2.1,0-2.67.79-2.67,1.76,0,1.11.94,1.83,2.52,1.83s2.82-.69,3.34-2.05Z"/>
    <path class="st0" d="M116.8,72.4l1.19-2.35c1.16.77,2.95,1.31,4.6,1.31,1.96,0,2.77-.54,2.77-1.46,0-2.52-8.17-.15-8.17-5.42,0-2.5,2.25-4.13,5.82-4.13,1.76,0,3.76.42,4.95,1.14l-1.19,2.35c-1.26-.74-2.53-.99-3.79-.99-1.88,0-2.77.62-2.77,1.49,0,2.67,8.17.3,8.17,5.47,0,2.47-2.28,4.08-5.99,4.08-2.2,0-4.41-.64-5.59-1.49Z"/>
  </g>
  <g>
    <path class="st0" d="M23.78,80.46v6.09h-.62v-4.87l-2.39,4.1h-.3l-2.39-4.07v4.84h-.62v-6.09h.53l2.64,4.51,2.62-4.51h.53Z"/>
    <path class="st0" d="M29.09,83.72v2.84h-.59v-.71c-.28.47-.82.76-1.57.76-1.04,0-1.67-.54-1.67-1.33,0-.71.45-1.3,1.77-1.3h1.45v-.28c0-.78-.44-1.21-1.3-1.21-.59,0-1.15.21-1.52.54l-.28-.46c.46-.39,1.14-.62,1.86-.62,1.18,0,1.85.59,1.85,1.77ZM28.47,85.18v-.75h-1.43c-.89,0-1.17.35-1.17.82,0,.53.43.86,1.16.86s1.21-.33,1.45-.93Z"/>
    <path class="st0" d="M33.07,81.94v.6c-.05,0-.1,0-.15,0-.96,0-1.54.61-1.54,1.69v2.33h-.62v-4.58h.59v.9c.29-.61.87-.93,1.71-.93Z"/>
    <path class="st0" d="M35.88,84.25l-1.08.99v1.3h-.62v-6.45h.62v4.38l2.73-2.5h.76l-1.96,1.87,2.14,2.71h-.76l-1.84-2.3Z"/>
    <path class="st0" d="M43.21,84.45h-3.83c.07.96.8,1.59,1.8,1.59.56,0,1.05-.2,1.4-.6l.35.4c-.41.49-1.04.75-1.77.75-1.43,0-2.4-.97-2.4-2.33s.95-2.32,2.24-2.32,2.22.95,2.22,2.32c0,.05,0,.12,0,.19ZM39.39,83.99h3.24c-.08-.9-.73-1.52-1.63-1.52s-1.54.63-1.62,1.52Z"/>
    <path class="st0" d="M46.89,86.27c-.24.22-.61.32-.97.32-.86,0-1.34-.49-1.34-1.33v-2.77h-.82v-.52h.82v-1h.62v1h1.39v.52h-1.39v2.73c0,.54.28.83.79.83.25,0,.5-.08.68-.23l.22.44Z"/>
    <path class="st0" d="M52.65,84.26c0,1.39-.97,2.33-2.28,2.33-.73,0-1.36-.31-1.74-.9v2.55h-.62v-6.26h.59v.9c.37-.61,1.01-.94,1.77-.94,1.3,0,2.28.94,2.28,2.32ZM52.04,84.26c0-1.06-.74-1.78-1.7-1.78s-1.71.72-1.71,1.78.73,1.78,1.71,1.78,1.7-.71,1.7-1.78Z"/>
    <path class="st0" d="M53.92,80.1h.62v6.45h-.62v-6.45Z"/>
    <path class="st0" d="M59.71,83.72v2.84h-.59v-.71c-.28.47-.82.76-1.57.76-1.04,0-1.67-.54-1.67-1.33,0-.71.45-1.3,1.77-1.3h1.45v-.28c0-.78-.44-1.21-1.3-1.21-.59,0-1.15.21-1.52.54l-.28-.46c.46-.39,1.14-.62,1.86-.62,1.18,0,1.85.59,1.85,1.77ZM59.09,85.18v-.75h-1.43c-.89,0-1.17.35-1.17.82,0,.53.43.86,1.16.86s1.21-.33,1.45-.93Z"/>
    <path class="st0" d="M60.95,84.26c0-1.37.99-2.32,2.36-2.32.77,0,1.43.3,1.79.91l-.46.31c-.31-.46-.8-.68-1.33-.68-1,0-1.73.71-1.73,1.78s.73,1.78,1.73,1.78c.53,0,1.02-.21,1.33-.67l.46.31c-.37.59-1.02.9-1.79.9-1.37,0-2.36-.96-2.36-2.33Z"/>
    <path class="st0" d="M70.21,84.45h-3.83c.07.96.8,1.59,1.8,1.59.56,0,1.05-.2,1.4-.6l.35.4c-.41.49-1.04.75-1.77.75-1.43,0-2.4-.97-2.4-2.33s.95-2.32,2.24-2.32,2.22.95,2.22,2.32c0,.05,0,.12,0,.19ZM66.38,83.99h3.24c-.08-.9-.73-1.52-1.63-1.52s-1.54.63-1.62,1.52Z"/>
    <path class="st0" d="M81.31,83.9v2.65h-.62v-2.59c0-.97-.49-1.46-1.31-1.46-.94,0-1.53.61-1.53,1.65v2.4h-.62v-2.59c0-.97-.49-1.46-1.32-1.46-.93,0-1.53.61-1.53,1.65v2.4h-.62v-4.58h.59v.83c.32-.55.91-.87,1.68-.87s1.35.32,1.63.97c.33-.59.98-.97,1.81-.97,1.11,0,1.84.64,1.84,1.96Z"/>
    <path class="st0" d="M86.44,83.72v2.84h-.59v-.71c-.28.47-.82.76-1.57.76-1.04,0-1.67-.54-1.67-1.33,0-.71.45-1.3,1.77-1.3h1.45v-.28c0-.78-.44-1.21-1.3-1.21-.59,0-1.15.21-1.52.54l-.28-.46c.46-.39,1.14-.62,1.86-.62,1.18,0,1.85.59,1.85,1.77ZM85.83,85.18v-.75h-1.43c-.89,0-1.17.35-1.17.82,0,.53.43.86,1.16.86s1.21-.33,1.45-.93Z"/>
    <path class="st0" d="M92.32,80.1v6.45h-.59v-.91c-.37.62-1.01.95-1.77.95-1.3,0-2.28-.95-2.28-2.33s.97-2.32,2.28-2.32c.73,0,1.36.31,1.74.91v-2.75h.62ZM91.71,84.26c0-1.07-.73-1.78-1.7-1.78s-1.71.71-1.71,1.78.73,1.78,1.71,1.78,1.7-.71,1.7-1.78Z"/>
    <path class="st0" d="M98.02,84.45h-3.83c.07.96.8,1.59,1.8,1.59.56,0,1.05-.2,1.4-.6l.35.4c-.41.49-1.04.75-1.77.75-1.43,0-2.4-.97-2.4-2.33s.95-2.32,2.24-2.32,2.22.95,2.22,2.32c0,.05,0,.12,0,.19ZM94.2,83.99h3.24c-.08-.9-.73-1.52-1.63-1.52s-1.54.63-1.62,1.52Z"/>
    <path class="st0" d="M100.94,86.03l.28-.49c.37.29.98.51,1.63.51.87,0,1.23-.3,1.23-.75,0-1.19-2.97-.25-2.97-2.06,0-.75.64-1.3,1.81-1.3.59,0,1.24.17,1.62.43l-.27.5c-.4-.28-.88-.39-1.35-.39-.83,0-1.19.32-1.19.76,0,1.23,2.97.3,2.97,2.06,0,.79-.7,1.3-1.89,1.3-.76,0-1.49-.24-1.86-.57Z"/>
    <path class="st0" d="M105.69,80.53c0-.24.2-.44.45-.44s.45.19.45.43c0,.25-.19.45-.45.45s-.45-.2-.45-.44ZM105.83,81.98h.62v4.58h-.62v-4.58Z"/>
    <path class="st0" d="M115.72,83.9v2.65h-.62v-2.59c0-.97-.49-1.46-1.31-1.46-.94,0-1.53.61-1.53,1.65v2.4h-.62v-2.59c0-.97-.49-1.46-1.32-1.46-.93,0-1.53.61-1.53,1.65v2.4h-.62v-4.58h.59v.83c.32-.55.91-.87,1.68-.87s1.35.32,1.63.97c.33-.59.98-.97,1.81-.97,1.11,0,1.84.64,1.84,1.96Z"/>
    <path class="st0" d="M122.04,84.26c0,1.39-.97,2.33-2.28,2.33-.73,0-1.36-.31-1.74-.9v2.55h-.62v-6.26h.59v.9c.37-.61,1.01-.94,1.77-.94,1.3,0,2.28.94,2.28,2.32ZM121.42,84.26c0-1.06-.74-1.78-1.7-1.78s-1.71.72-1.71,1.78.73,1.78,1.71,1.78,1.7-.71,1.7-1.78Z"/>
    <path class="st0" d="M123.3,80.1h.62v6.45h-.62v-6.45Z"/>
    <path class="st0" d="M129.62,84.45h-3.83c.07.96.8,1.59,1.8,1.59.56,0,1.05-.2,1.4-.6l.35.4c-.41.49-1.04.75-1.77.75-1.43,0-2.4-.97-2.4-2.33s.95-2.32,2.24-2.32,2.22.95,2.22,2.32c0,.05,0,.12,0,.19ZM125.79,83.99h3.24c-.08-.9-.73-1.52-1.63-1.52s-1.54.63-1.62,1.52Z"/>
  </g>
  <g>
    <circle class="st0" cx="65.25" cy="47.85" r="1.96"/>
    <circle class="st0" cx="87.57" cy="47.85" r="1.96"/>
    <rect class="st0" x="43.94" y="39.92" width="9.54" height="3.32"/>
    <rect class="st0" x="32.81" y="30.3" width="15.53" height="3.32"/>
    <path class="st0" d="M98.23,13.77c-.47-.52-1.14-.81-1.84-.81h-41.83l-.44-2.05h-7.15v3.32h4.47l.11.51h0s4.86,21.02,4.86,21.02h0s.07.3.07.3l.35,1.51h.03s.58,2.32.58,2.32c.4,2.16,2.28,3.72,4.47,3.72h30.1v-3.32h-30.1c-.61,0-1.09-.43-1.22-1.1l-.51-2.06,35.21-4.57c1.1-.19,1.94-1.09,2.05-2.2l1.44-14.69c.07-.7-.16-1.39-.63-1.91ZM95.46,16.28l-1.28,13.1-34.8,4.52-4.07-17.61h40.16Z"/>
  </g>
</svg>