<?xml version="1.0" encoding="UTF-8"?>
<svg id="Calque_1" xmlns="http://www.w3.org/2000/svg" version="1.1" viewBox="0 0 146.49 99.74">
  <!-- Generator: Adobe Illustrator 30.1.0, SVG Export Plug-In . SVG Version: 2.1.1 Build 136)  -->
  <defs>
    <style>
      .st0 {
        fill: #312783;
      }

      .st1 {
        fill: #d4387f;
      }
    </style>
  </defs>
  <g>
    <path class="st0" d="M31.37,68.1h-10.37c.37,1.93,1.98,3.17,4.28,3.17,1.48,0,2.65-.47,3.59-1.44l1.66,1.91c-1.19,1.41-3.04,2.15-5.32,2.15-4.43,0-7.3-2.85-7.3-6.78s2.9-6.76,6.83-6.76,6.68,2.7,6.68,6.83c0,.25-.02.62-.05.92ZM20.98,66.04h7.5c-.25-1.91-1.71-3.22-3.74-3.22s-3.46,1.29-3.76,3.22Z"/>
    <path class="st0" d="M33.97,65.55h6.81v2.57h-6.81v-2.57Z"/>
    <path class="st0" d="M43.35,65.05c0-5.17,3.96-8.91,9.28-8.91,2.82,0,5.25,1.01,6.86,2.9l-2.08,1.96c-1.26-1.36-2.82-2.03-4.63-2.03-3.59,0-6.19,2.52-6.19,6.09s2.6,6.09,6.19,6.09c1.81,0,3.37-.67,4.63-2.05l2.08,1.98c-1.61,1.88-4.03,2.9-6.88,2.9-5.3,0-9.26-3.74-9.26-8.91Z"/>
    <path class="st0" d="M60.69,67.11c0-3.96,2.97-6.76,7.03-6.76s7.05,2.8,7.05,6.76-2.95,6.78-7.05,6.78-7.03-2.82-7.03-6.78ZM71.66,67.11c0-2.52-1.68-4.13-3.94-4.13s-3.91,1.61-3.91,4.13,1.68,4.13,3.91,4.13,3.94-1.61,3.94-4.13Z"/>
    <path class="st0" d="M99.84,66.14v7.57h-3.09v-7.18c0-2.35-1.09-3.49-2.97-3.49-2.03,0-3.44,1.34-3.44,3.96v6.71h-3.09v-7.18c0-2.35-1.09-3.49-2.97-3.49-2.05,0-3.44,1.34-3.44,3.96v6.71h-3.09v-13.22h2.95v1.68c.99-1.19,2.52-1.83,4.33-1.83,1.93,0,3.54.72,4.46,2.2,1.06-1.36,2.85-2.2,4.95-2.2,3.19,0,5.42,1.81,5.42,5.79Z"/>
    <path class="st0" d="M114.86,65.97v7.75h-2.92v-1.61c-.74,1.14-2.18,1.78-4.16,1.78-3.02,0-4.92-1.66-4.92-3.96s1.48-3.93,5.49-3.93h3.42v-.2c0-1.81-1.09-2.87-3.29-2.87-1.49,0-3.02.5-4.01,1.31l-1.21-2.25c1.41-1.09,3.46-1.63,5.59-1.63,3.81,0,6.01,1.81,6.01,5.62ZM111.76,69.58v-1.53h-3.19c-2.1,0-2.67.79-2.67,1.76,0,1.11.94,1.83,2.52,1.83s2.82-.69,3.34-2.05Z"/>
    <path class="st0" d="M117.3,72.4l1.19-2.35c1.16.77,2.95,1.31,4.6,1.31,1.96,0,2.77-.54,2.77-1.46,0-2.52-8.17-.15-8.17-5.42,0-2.5,2.25-4.13,5.82-4.13,1.76,0,3.76.42,4.95,1.14l-1.19,2.35c-1.26-.74-2.52-.99-3.79-.99-1.88,0-2.77.62-2.77,1.48,0,2.67,8.17.3,8.17,5.47,0,2.48-2.28,4.08-5.99,4.08-2.2,0-4.41-.64-5.59-1.48Z"/>
  </g>
  <g>
    <path class="st1" d="M30.11,80.46h2.48c1.95,0,3.26,1.25,3.26,3.04s-1.31,3.04-3.26,3.04h-2.48v-6.09ZM32.56,85.99c1.62,0,2.66-1.03,2.66-2.49s-1.04-2.49-2.66-2.49h-1.8v4.97h1.8Z"/>
    <path class="st1" d="M37.03,80.53c0-.23.2-.43.45-.43s.45.19.45.43c0,.25-.19.45-.45.45s-.45-.2-.45-.44ZM37.17,81.98h.62v4.57h-.62v-4.57Z"/>
    <path class="st1" d="M43.75,81.98v4.02c0,1.57-.77,2.29-2.29,2.29-.83,0-1.65-.25-2.13-.71l.31-.47c.44.39,1.1.63,1.8.63,1.16,0,1.69-.53,1.69-1.66v-.58c-.38.58-1.04.89-1.78.89-1.3,0-2.3-.91-2.3-2.23s.99-2.21,2.3-2.21c.77,0,1.43.31,1.81.91v-.88h.59ZM43.15,84.15c0-.99-.73-1.67-1.74-1.67s-1.73.68-1.73,1.67.72,1.68,1.73,1.68,1.74-.69,1.74-1.68Z"/>
    <path class="st1" d="M45.34,80.53c0-.23.2-.43.45-.43s.45.19.45.43c0,.25-.19.45-.45.45s-.45-.2-.45-.44ZM45.48,81.98h.62v4.57h-.62v-4.57Z"/>
    <path class="st1" d="M50.23,86.27c-.24.22-.61.32-.97.32-.86,0-1.34-.49-1.34-1.33v-2.77h-.82v-.52h.82v-1h.62v1h1.39v.52h-1.39v2.73c0,.54.28.83.79.83.25,0,.5-.08.68-.24l.22.44Z"/>
    <path class="st1" d="M54.8,83.72v2.83h-.59v-.71c-.28.47-.82.76-1.57.76-1.04,0-1.67-.54-1.67-1.33,0-.7.45-1.3,1.77-1.3h1.45v-.28c0-.78-.44-1.21-1.3-1.21-.59,0-1.15.21-1.52.54l-.28-.46c.46-.39,1.14-.62,1.86-.62,1.18,0,1.85.59,1.85,1.77ZM54.19,85.18v-.75h-1.43c-.89,0-1.17.35-1.17.82,0,.53.43.86,1.16.86s1.21-.33,1.45-.93Z"/>
    <path class="st1" d="M56.48,80.1h.62v6.45h-.62v-6.45Z"/>
    <path class="st0" d="M68.65,83.9v2.65h-.62v-2.59c0-.96-.49-1.46-1.31-1.46-.94,0-1.53.61-1.53,1.65v2.4h-.62v-2.59c0-.96-.49-1.46-1.32-1.46-.93,0-1.53.61-1.53,1.65v2.4h-.62v-4.57h.59v.83c.32-.55.91-.87,1.68-.87s1.35.32,1.63.97c.33-.59.98-.97,1.81-.97,1.11,0,1.84.64,1.84,1.96Z"/>
    <path class="st0" d="M73.79,83.72v2.83h-.59v-.71c-.28.47-.82.76-1.57.76-1.04,0-1.67-.54-1.67-1.33,0-.7.45-1.3,1.77-1.3h1.45v-.28c0-.78-.44-1.21-1.3-1.21-.59,0-1.15.21-1.52.54l-.28-.46c.46-.39,1.14-.62,1.86-.62,1.18,0,1.85.59,1.85,1.77ZM73.17,85.18v-.75h-1.43c-.89,0-1.17.35-1.17.82,0,.53.43.86,1.16.86s1.21-.33,1.45-.93Z"/>
    <path class="st0" d="M79.66,80.1v6.45h-.59v-.9c-.37.62-1.01.95-1.77.95-1.3,0-2.28-.95-2.28-2.33s.97-2.32,2.28-2.32c.73,0,1.36.31,1.74.9v-2.75h.62ZM79.05,84.26c0-1.07-.73-1.78-1.7-1.78s-1.71.71-1.71,1.78.73,1.78,1.71,1.78,1.7-.71,1.7-1.78Z"/>
    <path class="st0" d="M85.37,84.46h-3.83c.07.96.8,1.59,1.8,1.59.56,0,1.05-.2,1.4-.6l.35.4c-.41.49-1.04.75-1.77.75-1.43,0-2.4-.97-2.4-2.33s.95-2.32,2.24-2.32,2.22.95,2.22,2.32c0,.05,0,.12,0,.19ZM81.54,83.99h3.24c-.08-.9-.73-1.52-1.63-1.52s-1.54.63-1.62,1.52Z"/>
    <path class="st0" d="M88.28,86.03l.28-.49c.37.29.98.51,1.63.51.87,0,1.23-.3,1.23-.75,0-1.19-2.97-.25-2.97-2.06,0-.75.64-1.3,1.81-1.3.59,0,1.24.17,1.62.43l-.27.5c-.4-.28-.88-.39-1.35-.39-.83,0-1.19.32-1.19.76,0,1.24,2.97.3,2.97,2.06,0,.79-.7,1.3-1.89,1.3-.76,0-1.49-.24-1.86-.57Z"/>
    <path class="st0" d="M93.03,80.53c0-.23.2-.43.45-.43s.45.19.45.43c0,.25-.19.45-.45.45s-.45-.2-.45-.44ZM93.17,81.98h.62v4.57h-.62v-4.57Z"/>
    <path class="st0" d="M103.06,83.9v2.65h-.62v-2.59c0-.96-.49-1.46-1.31-1.46-.94,0-1.53.61-1.53,1.65v2.4h-.62v-2.59c0-.96-.49-1.46-1.32-1.46-.93,0-1.53.61-1.53,1.65v2.4h-.62v-4.57h.59v.83c.32-.55.91-.87,1.68-.87s1.35.32,1.63.97c.33-.59.98-.97,1.81-.97,1.11,0,1.84.64,1.84,1.96Z"/>
    <path class="st0" d="M109.38,84.26c0,1.39-.97,2.33-2.28,2.33-.73,0-1.36-.31-1.74-.9v2.55h-.62v-6.26h.59v.9c.37-.61,1.01-.94,1.77-.94,1.3,0,2.28.94,2.28,2.32ZM108.76,84.26c0-1.06-.74-1.78-1.7-1.78s-1.71.72-1.71,1.78.73,1.78,1.71,1.78,1.7-.71,1.7-1.78Z"/>
    <path class="st0" d="M110.64,80.1h.62v6.45h-.62v-6.45Z"/>
    <path class="st0" d="M116.96,84.46h-3.83c.07.96.8,1.59,1.8,1.59.56,0,1.05-.2,1.4-.6l.35.4c-.41.49-1.04.75-1.77.75-1.43,0-2.4-.97-2.4-2.33s.95-2.32,2.24-2.32,2.22.95,2.22,2.32c0,.05,0,.12,0,.19ZM113.14,83.99h3.24c-.08-.9-.73-1.52-1.63-1.52s-1.54.63-1.62,1.52Z"/>
  </g>
  <g>
    <circle class="st0" cx="65.44" cy="47.85" r="1.96"/>
    <circle class="st0" cx="87.77" cy="47.85" r="1.96"/>
    <rect class="st0" x="44.13" y="39.92" width="9.54" height="3.32"/>
    <rect class="st0" x="33.01" y="30.3" width="15.53" height="3.32"/>
    <path class="st1" d="M98.42,13.77c-.47-.52-1.14-.81-1.84-.81h-41.83l-.44-2.05h-7.15v3.32h4.47l.11.51h0s4.86,21.02,4.86,21.02h0s.07.3.07.3l.35,1.51h.03s.58,2.32.58,2.32c.4,2.16,2.28,3.72,4.47,3.72h30.1v-3.32h-30.1c-.61,0-1.09-.43-1.22-1.1l-.51-2.06,35.21-4.57c1.1-.19,1.94-1.09,2.05-2.2l1.44-14.69c.07-.7-.16-1.39-.63-1.91ZM95.65,16.28l-1.28,13.1-34.8,4.52-4.07-17.61h40.16Z"/>
  </g>
</svg>