<?xml version="1.0" encoding="UTF-8"?>
<svg id="Calque_1" xmlns="http://www.w3.org/2000/svg" version="1.1" viewBox="0 0 213.22 65.25">
  <!-- Generator: Adobe Illustrator 30.1.0, SVG Export Plug-In . SVG Version: 2.1.1 Build 136)  -->
  <defs>
    <style>
      .st0 {
        fill: #f6a53d;
      }
    </style>
  </defs>
  <g>
    <path class="st0" d="M101.48,28.37h-10.37c.37,1.93,1.98,3.17,4.28,3.17,1.48,0,2.65-.47,3.59-1.44l1.66,1.91c-1.19,1.41-3.04,2.15-5.32,2.15-4.43,0-7.3-2.85-7.3-6.78s2.9-6.76,6.83-6.76,6.68,2.7,6.68,6.83c0,.25-.02.62-.05.92ZM91.09,26.31h7.5c-.25-1.91-1.71-3.22-3.74-3.22s-3.46,1.29-3.76,3.22Z"/>
    <path class="st0" d="M104.08,25.82h6.81v2.57h-6.81v-2.57Z"/>
    <path class="st0" d="M113.45,25.32c0-5.17,3.96-8.91,9.28-8.91,2.82,0,5.25,1.01,6.86,2.9l-2.08,1.96c-1.26-1.36-2.82-2.03-4.63-2.03-3.59,0-6.19,2.52-6.19,6.09s2.6,6.09,6.19,6.09c1.81,0,3.37-.67,4.63-2.05l2.08,1.98c-1.61,1.88-4.03,2.9-6.88,2.9-5.3,0-9.26-3.74-9.26-8.91Z"/>
    <path class="st0" d="M130.8,27.38c0-3.96,2.97-6.76,7.03-6.76s7.05,2.8,7.05,6.76-2.95,6.78-7.05,6.78-7.03-2.82-7.03-6.78ZM141.76,27.38c0-2.52-1.68-4.13-3.94-4.13s-3.91,1.61-3.91,4.13,1.68,4.13,3.91,4.13,3.94-1.61,3.94-4.13Z"/>
    <path class="st0" d="M169.95,26.41v7.57h-3.09v-7.18c0-2.35-1.09-3.49-2.97-3.49-2.03,0-3.44,1.34-3.44,3.96v6.71h-3.09v-7.18c0-2.35-1.09-3.49-2.97-3.49-2.05,0-3.44,1.34-3.44,3.96v6.71h-3.09v-13.22h2.95v1.68c.99-1.19,2.52-1.83,4.33-1.83,1.93,0,3.54.72,4.46,2.2,1.06-1.36,2.85-2.2,4.95-2.2,3.19,0,5.42,1.81,5.42,5.79Z"/>
    <path class="st0" d="M184.96,26.24v7.75h-2.92v-1.61c-.74,1.14-2.18,1.78-4.16,1.78-3.02,0-4.92-1.66-4.92-3.96s1.48-3.93,5.49-3.93h3.42v-.2c0-1.81-1.09-2.87-3.29-2.87-1.49,0-3.02.5-4.01,1.31l-1.21-2.25c1.41-1.09,3.46-1.63,5.59-1.63,3.81,0,6.01,1.81,6.01,5.62ZM181.87,29.85v-1.53h-3.19c-2.1,0-2.67.79-2.67,1.76,0,1.11.94,1.83,2.52,1.83s2.82-.69,3.34-2.05Z"/>
    <path class="st0" d="M187.41,32.67l1.19-2.35c1.16.77,2.95,1.31,4.6,1.31,1.96,0,2.77-.54,2.77-1.46,0-2.52-8.17-.15-8.17-5.42,0-2.5,2.25-4.13,5.82-4.13,1.76,0,3.76.42,4.95,1.14l-1.19,2.35c-1.26-.74-2.52-.99-3.79-.99-1.88,0-2.77.62-2.77,1.48,0,2.67,8.17.3,8.17,5.47,0,2.48-2.28,4.08-5.99,4.08-2.2,0-4.41-.64-5.59-1.48Z"/>
  </g>
  <g>
    <path class="st0" d="M122.6,40.9h-2.08v-.54h4.79v.54h-2.08v5.39h-.63v-5.39Z"/>
    <path class="st0" d="M129.59,44.24h-3.73c.07.93.78,1.55,1.75,1.55.54,0,1.02-.19,1.36-.58l.34.39c-.4.47-1.02.73-1.72.73-1.39,0-2.34-.95-2.34-2.27s.92-2.26,2.18-2.26,2.16.92,2.16,2.26c0,.05,0,.12,0,.19ZM125.87,43.79h3.16c-.08-.87-.71-1.48-1.58-1.48s-1.5.61-1.58,1.48Z"/>
    <path class="st0" d="M130.39,44.05c0-1.33.96-2.26,2.29-2.26.75,0,1.39.3,1.74.88l-.45.3c-.3-.45-.78-.66-1.3-.66-.97,0-1.69.69-1.69,1.74s.71,1.74,1.69,1.74c.52,0,.99-.2,1.3-.65l.45.3c-.36.58-.99.88-1.74.88-1.33,0-2.29-.94-2.29-2.27Z"/>
    <path class="st0" d="M139.64,43.7v2.58h-.6v-2.52c0-.94-.49-1.42-1.34-1.42-.96,0-1.56.59-1.56,1.61v2.34h-.6v-6.28h.6v2.61c.33-.52.92-.81,1.67-.81,1.08,0,1.83.63,1.83,1.91Z"/>
    <path class="st0" d="M150.84,43.7v2.58h-.6v-2.52c0-.94-.47-1.42-1.28-1.42-.92,0-1.49.59-1.49,1.61v2.34h-.6v-2.52c0-.94-.47-1.42-1.29-1.42-.91,0-1.49.59-1.49,1.61v2.34h-.6v-4.45h.58v.81c.31-.53.89-.85,1.63-.85s1.31.31,1.58.94c.32-.58.96-.94,1.76-.94,1.08,0,1.8.63,1.8,1.91Z"/>
    <path class="st0" d="M155.85,43.52v2.76h-.58v-.69c-.27.46-.8.74-1.53.74-1.01,0-1.63-.52-1.63-1.29,0-.69.44-1.26,1.72-1.26h1.42v-.27c0-.76-.43-1.18-1.26-1.18-.58,0-1.12.2-1.48.52l-.27-.45c.45-.38,1.11-.6,1.81-.6,1.15,0,1.8.58,1.8,1.73ZM155.25,44.94v-.73h-1.4c-.86,0-1.14.34-1.14.8,0,.52.42.84,1.13.84s1.18-.32,1.42-.91Z"/>
    <path class="st0" d="M161.56,40v6.28h-.58v-.88c-.36.6-.98.92-1.72.92-1.27,0-2.22-.92-2.22-2.27s.95-2.26,2.22-2.26c.71,0,1.32.3,1.69.88v-2.68h.6ZM160.97,44.05c0-1.04-.71-1.74-1.65-1.74s-1.66.69-1.66,1.74.71,1.74,1.66,1.74,1.65-.69,1.65-1.74Z"/>
    <path class="st0" d="M167.12,44.24h-3.73c.07.93.78,1.55,1.75,1.55.54,0,1.02-.19,1.36-.58l.34.39c-.4.47-1.02.73-1.72.73-1.39,0-2.34-.95-2.34-2.27s.92-2.26,2.18-2.26,2.16.92,2.16,2.26c0,.05,0,.12,0,.19ZM163.4,43.79h3.16c-.08-.87-.71-1.48-1.58-1.48s-1.5.61-1.58,1.48Z"/>
    <path class="st0" d="M169.96,45.77l.27-.47c.36.28.96.5,1.58.5.85,0,1.19-.29,1.19-.73,0-1.16-2.89-.25-2.89-2.01,0-.73.63-1.27,1.76-1.27.58,0,1.2.16,1.58.42l-.26.48c-.39-.27-.86-.38-1.31-.38-.8,0-1.16.31-1.16.74,0,1.2,2.89.3,2.89,2.01,0,.77-.68,1.27-1.84,1.27-.74,0-1.45-.24-1.81-.55Z"/>
    <path class="st0" d="M174.59,40.42c0-.23.19-.42.44-.42s.44.19.44.42c0,.25-.19.44-.44.44s-.44-.19-.44-.43ZM174.73,41.83h.6v4.45h-.6v-4.45Z"/>
    <path class="st0" d="M184.36,43.7v2.58h-.6v-2.52c0-.94-.47-1.42-1.28-1.42-.92,0-1.49.59-1.49,1.61v2.34h-.6v-2.52c0-.94-.47-1.42-1.29-1.42-.91,0-1.49.59-1.49,1.61v2.34h-.6v-4.45h.58v.81c.31-.53.89-.85,1.63-.85s1.31.31,1.58.94c.32-.58.96-.94,1.76-.94,1.08,0,1.8.63,1.8,1.91Z"/>
    <path class="st0" d="M190.51,44.05c0,1.36-.95,2.27-2.22,2.27-.71,0-1.32-.3-1.69-.88v2.48h-.6v-6.1h.58v.88c.36-.59.98-.91,1.72-.91,1.27,0,2.22.91,2.22,2.26ZM189.91,44.05c0-1.03-.72-1.74-1.66-1.74s-1.66.7-1.66,1.74.71,1.74,1.66,1.74,1.66-.69,1.66-1.74Z"/>
    <path class="st0" d="M191.74,40h.6v6.28h-.6v-6.28Z"/>
    <path class="st0" d="M197.9,44.24h-3.73c.07.93.78,1.55,1.75,1.55.54,0,1.02-.19,1.36-.58l.34.39c-.4.47-1.02.73-1.72.73-1.39,0-2.34-.95-2.34-2.27s.92-2.26,2.18-2.26,2.16.92,2.16,2.26c0,.05,0,.12,0,.19ZM194.17,43.79h3.16c-.08-.87-.71-1.48-1.58-1.48s-1.5.61-1.58,1.48Z"/>
  </g>
  <g>
    <circle class="st0" cx="45.3" cy="50.38" r="1.92"/>
    <circle class="st0" cx="67.13" cy="50.38" r="1.92"/>
    <rect class="st0" x="24.47" y="42.62" width="9.33" height="3.25"/>
    <rect class="st0" x="13.59" y="33.22" width="15.19" height="3.25"/>
    <path class="st0" d="M77.55,17.05c-.46-.51-1.11-.8-1.8-.8h-40.9l-.43-2h-7v3.25h4.37l.11.49h0s4.75,20.56,4.75,20.56h0s.07.3.07.3l.34,1.48h.03s.57,2.27.57,2.27c.39,2.11,2.22,3.64,4.37,3.64h29.43v-3.25h-29.43c-.59,0-1.07-.42-1.19-1.07l-.5-2.01,34.43-4.47c1.07-.18,1.9-1.07,2-2.15l1.41-14.37c.07-.68-.16-1.36-.62-1.86ZM74.85,19.51l-1.26,12.81-34.03,4.42-3.98-17.22h39.27Z"/>
  </g>
</svg>