
<svg width="218px" height="218px" viewBox="0 0 218 218" version="1.1" xmlns="http://www.w3.org/2000/svg" xmlns:xlink="http://www.w3.org/1999/xlink">
    <defs>
        <circle id="path-3v94py_gc_-1" cx="79" cy="79" r="79"></circle>
        <filter x="-29.1%" y="-27.8%" width="158.2%" height="158.2%" filterUnits="objectBoundingBox" id="filter-3v94py_gc_-2">
            <feOffset dx="0" dy="2" in="SourceAlpha" result="shadowOffsetOuter1"></feOffset>
            <feGaussianBlur stdDeviation="15" in="shadowOffsetOuter1" result="shadowBlurOuter1"></feGaussianBlur>
            <feColorMatrix values="0 0 0 0 0.525490196   0 0 0 0 0.835294118   0 0 0 0 0.631372549  0 0 0 0.5 0" type="matrix" in="shadowBlurOuter1"></feColorMatrix>
        </filter>
        <polygon id="path-3v94py_gc_-3" points="0 0 54.1698113 0 54.1698113 66 0 66"></polygon>
    </defs>
    <g id="Page-1" stroke="none" stroke-width="1" fill="none" fill-rule="evenodd">
        <g id="Advertising" transform="translate(-759.000000, -3438.000000)">
            <g id="Group-26" transform="translate(470.000000, 2953.000000)">
                <g id="Group-24" transform="translate(319.000000, 513.000000)">
                    <g id="Oval-Copy-3">
                        <use fill="black" fill-opacity="1" filter="url(#filter-3v94py_gc_-2)" xlink:href="#path-3v94py_gc_-1"></use>
                        <use fill="#86D5A1" fill-rule="evenodd" xlink:href="#path-3v94py_gc_-1"></use>
                    </g>
                    <g id="Group-6" transform="translate(36.000000, 44.000000)">
                        <path d="M14.3252725,38.409881 C9.68807364,31.5992698 11.6667142,23.3730966 17.206657,19.106519 C22.6767119,14.8935067 30.4612138,15.273475 35.4666557,20.0475123 C40.5292928,24.8758979 41.2778448,32.5751901 37.3351367,38.2994615 C33.6368794,43.6688243 25.1697959,46.8390382 17.4978041,41.6499489 C17.3542676,41.8543424 17.2188795,42.1204455 17.0183046,42.3213933 C12.7498189,46.6005007 8.47083442,50.869271 4.20266216,55.1486917 C3.55361416,55.7993052 2.81853831,56.1780205 1.89197606,55.9891328 C1.00881948,55.8091725 0.374657904,55.2768096 0.116731054,54.4080197 C-0.145426673,53.5246638 0.0278826192,52.7020778 0.698555108,52.0287539 C2.09568499,50.6258783 3.49688906,49.2270749 4.89762302,47.8276449 C8.02956953,44.6981531 11.1621428,41.5696011 14.3252725,38.409881" id="Fill-1" fill="#3E4152"></path>
                        <g id="Group-5" transform="translate(18.679245, 0.000000)">
                            <mask id="mask-3v94py_gc_-4" fill="white">
                                <use xlink:href="#path-3v94py_gc_-3"></use>
                            </mask>
                            <g id="Clip-4"></g>
                            <path d="M46.2664811,27.3953004 C43.1787646,30.5050049 40.083831,33.6074779 36.9799542,36.7009901 C35.9751912,37.7023964 34.6445549,37.7042829 33.645597,36.7165536 C32.0876182,35.1762429 30.5390531,33.6257139 29.0035104,32.0626083 C28.0426783,31.0844686 28.0307542,29.7015218 28.937614,28.7667711 C29.8854237,27.7897318 31.2631289,27.7669369 32.2740108,28.7700724 C33.2536704,29.7423955 34.1831233,30.7656535 35.2915947,31.9318123 C37.2280071,29.9447204 39.0073664,28.1127915 40.793943,26.2879368 C41.5054671,25.5610133 42.2276601,24.8443083 42.9539324,24.1318478 C44.0194142,23.0865808 45.3724867,23.0549823 46.3497929,24.04224 C47.2874044,24.9895672 47.2696751,26.3849333 46.2664811,27.3953004 M46.2252174,41.5582036 C43.1726457,44.6292353 40.1137981,47.6939787 37.0502437,50.7540059 C35.9493034,51.8536663 34.6530273,51.8439195 33.54738,50.7420582 C32.0692613,49.2691892 30.5953788,47.7919184 29.1257325,46.3102459 C28.0436196,45.219389 27.9896474,43.8248089 28.9793483,42.846512 C29.9612045,41.8756038 31.3059615,41.9128618 32.3728554,42.9859543 C33.3263134,43.9449148 34.2402335,44.9430197 35.2762188,46.034191 C36.6860877,44.5830165 37.9489449,43.2681402 39.2290607,41.9702422 C40.4563025,40.7261089 41.6970373,39.4951809 42.9401256,38.2667682 C44.0074901,37.2120689 45.3544437,37.1716668 46.335986,38.1494921 C47.3004267,39.1104963 47.2673217,40.5099498 46.2252174,41.5582036 M28.9828001,14.6008809 C29.9659114,13.632488 31.2948219,13.6856239 32.3803864,14.7434673 C33.3142324,15.6533794 34.2419593,16.5695797 35.174707,17.4805921 C35.2084397,17.5134483 35.2671189,17.520837 35.4800269,17.6084011 C36.0705841,16.9731291 36.6900101,16.2688434 37.3494447,15.6043309 C39.2048987,13.7340435 41.0729044,11.8760183 42.9438911,10.0214516 C44.0079608,8.96675223 45.3593075,8.93075191 46.3394378,9.91093529 C47.3018388,10.8733543 47.265282,12.2702925 46.2217656,13.3196468 C43.1688802,16.3903641 40.1101895,19.4554219 37.0464782,22.5152919 C35.9474206,23.6132231 34.651929,23.600961 33.5437714,22.4967415 C32.0656527,21.0237153 30.5919271,19.5462874 29.1224376,18.0646148 C28.04158,16.9747012 27.9904318,15.5783918 28.9828001,14.6008809 M54.100777,0 L1.51451863,0 C0.511481482,0.358273928 0.0801739378,1.19477045 0.07844808,2.66575296 C0.0746825722,5.80312584 0.0765653261,8.94049872 0.0789187685,12.0777144 C0.0790756647,12.3305027 0.101825608,12.5831337 0.117985912,12.9178267 C4.92261702,11.0596442 9.65868451,11.078509 14.3467418,13.0058624 C17.8678054,14.4532639 20.6795415,16.809477 22.7857155,19.988038 C27.0055947,26.3560073 26.9327948,34.7730079 22.6184642,41.0290461 C20.9911373,43.3885605 18.9412889,45.2898176 16.4593486,46.7218128 C13.977722,48.1536509 11.3009166,48.9558764 8.45278062,49.1662189 C5.60841014,49.3764041 2.85221529,48.9376404 0.0773498069,47.8177003 L0.0773498069,48.8352989 C0.0773498069,54.2471374 0.0786049762,59.6591331 0.0740549875,65.0709717 C0.0737411952,65.3806687 0.0258878664,65.6903658 0,66.0000629 L54.1698113,66.0000629 C54.1440804,65.638016 54.0959132,65.2759691 54.0957563,64.9140794 C54.0926184,43.2760005 54.0891667,21.6379217 54.100777,0" id="Fill-3" fill="#3E4152" mask="url(#mask-3v94py_gc_-4)"></path>
                        </g>
                    </g>
                </g>
            </g>
        </g>
    </g>
</svg>