<?xml version="1.0" encoding="utf-8"?>
<!-- Generator: Adobe Illustrator 25.3.1, SVG Export Plug-In . SVG Version: 6.00 Build 0)  -->
<svg version="1.1" id="Calque_1" xmlns="http://www.w3.org/2000/svg" xmlns:xlink="http://www.w3.org/1999/xlink" x="0px" y="0px"
	 viewBox="0 0 796 394" style="enable-background:new 0 0 796 394;" xml:space="preserve">
<style type="text/css">
	.st0{fill:#64D7BE;}
	.st1{fill:#282828;}
	.st2{fill:none;}
	.st3{fill:#FFFFFF;}
	.st4{fill:#B1EBDF;}
	.st5{fill:#939393;}
	.st6{font-family:'Gilroy-ExtraBold';}
	.st7{font-size:22px;}
	.st8{font-family:'Lato-Regular';}
	.st9{font-size:18px;}
	.st10{clip-path:url(#SVGID_4_);}
	.st11{clip-path:url(#SVGID_6_);}
	.st12{clip-path:url(#SVGID_8_);}
</style>
<g>
	<g>
		<path class="st0" d="M179.46,0.42c-3.31,0-6,2.69-6,6v48c0,3.31,2.69,6,6,6h438c3.31,0,6-2.69,6-6v-48c0-3.31-2.69-6-6-6H179.46z"
			/>
	</g>
	<g>
		<path class="st3" d="M208.99,36.3v4.62h-13.2v-21h13.05v4.62h-8.25v3.48h7.5v4.56h-7.5v3.72H208.99z"/>
		<path class="st3" d="M213.31,29.79h11.4v4.32h-11.4V29.79z"/>
		<path class="st3" d="M229.06,30.42c0-6.18,4.59-10.92,10.92-10.92c3.81,0,7.17,1.89,9,4.86l-4.14,2.4
			c-0.93-1.62-2.73-2.58-4.86-2.58c-3.72,0-6.12,2.49-6.12,6.24c0,3.75,2.4,6.24,6.12,6.24c2.13,0,3.96-0.96,4.86-2.58l4.14,2.4
			c-1.8,2.97-5.16,4.86-9,4.86C233.65,41.34,229.06,36.6,229.06,30.42z"/>
		<path class="st3" d="M251.8,30.42c0-6.18,4.89-10.92,10.92-10.92c6.03,0,10.92,4.74,10.92,10.92s-4.89,10.92-10.92,10.92
			C256.69,41.34,251.8,36.6,251.8,30.42z M268.84,30.42c0-3.75-2.7-6.24-6.12-6.24s-6.12,2.49-6.12,6.24c0,3.75,2.7,6.24,6.12,6.24
			S268.84,34.17,268.84,30.42z"/>
		<path class="st3" d="M299.11,40.92h-4.8V28.71l-5.43,8.91h-0.54l-5.43-8.91v12.21h-4.8v-21h4.8l5.7,9.33l5.7-9.33h4.8V40.92z"/>
		<path class="st3" d="M316.81,37.62h-7.8l-1.05,3.3h-5.25l7.14-21h6.12l7.14,21h-5.25L316.81,37.62z M315.37,33.12l-2.46-7.71
			l-2.46,7.71H315.37z"/>
		<path class="st3" d="M325.21,36.15l4.14-2.4c0.75,1.74,2.04,2.91,4.41,2.91c2.28,0,2.85-0.9,2.85-1.71c0-1.29-1.2-1.8-4.35-2.67
			c-3.12-0.87-6.18-2.37-6.18-6.39c0-4.05,3.42-6.39,7.05-6.39c3.45,0,6.15,1.65,7.68,4.74l-4.05,2.37
			c-0.72-1.5-1.71-2.43-3.63-2.43c-1.5,0-2.25,0.75-2.25,1.59c0,0.96,0.51,1.62,3.78,2.61c3.18,0.96,6.75,2.07,6.75,6.51
			c0,4.05-3.24,6.45-7.8,6.45C329.2,41.34,326.38,39.24,325.21,36.15z"/>
		<path class="st3" d="M353.68,30.42c0-6.18,4.89-10.92,10.92-10.92s10.92,4.74,10.92,10.92s-4.89,10.92-10.92,10.92
			S353.68,36.6,353.68,30.42z M370.72,30.42c0-3.75-2.7-6.24-6.12-6.24c-3.42,0-6.12,2.49-6.12,6.24c0,3.75,2.7,6.24,6.12,6.24
			C368.02,36.66,370.72,34.17,370.72,30.42z"/>
		<path class="st3" d="M387.1,34.02h-2.28v6.9h-4.8v-21h8.4c3.99,0,7.2,3.21,7.2,7.2c0,2.58-1.56,4.92-3.87,6.09l4.47,7.71h-5.16
			L387.1,34.02z M384.82,29.82h3.6c1.32,0,2.4-1.17,2.4-2.7c0-1.53-1.08-2.7-2.4-2.7h-3.6V29.82z"/>
		<path class="st3" d="M418.87,30.42c0,5.94-4.41,10.5-10.2,10.5h-8.4v-21h8.4C414.46,19.92,418.87,24.48,418.87,30.42z
			 M414.25,30.42c0-3.6-2.28-5.88-5.58-5.88h-3.6V36.3h3.6C411.97,36.3,414.25,34.02,414.25,30.42z"/>
		<path class="st3" d="M436.57,36.3v4.62h-13.2v-21h13.05v4.62h-8.25v3.48h7.5v4.56h-7.5v3.72H436.57z"/>
		<path class="st3" d="M448.12,34.02h-2.28v6.9h-4.8v-21h8.4c3.99,0,7.2,3.21,7.2,7.2c0,2.58-1.56,4.92-3.87,6.09l4.47,7.71h-5.16
			L448.12,34.02z M445.84,29.82h3.6c1.32,0,2.4-1.17,2.4-2.7c0-1.53-1.08-2.7-2.4-2.7h-3.6V29.82z"/>
		<path class="st3" d="M459.94,36.15l4.14-2.4c0.75,1.74,2.04,2.91,4.41,2.91c2.28,0,2.85-0.9,2.85-1.71c0-1.29-1.2-1.8-4.35-2.67
			c-3.12-0.87-6.18-2.37-6.18-6.39c0-4.05,3.42-6.39,7.05-6.39c3.45,0,6.15,1.65,7.68,4.74l-4.05,2.37
			c-0.72-1.5-1.71-2.43-3.63-2.43c-1.5,0-2.25,0.75-2.25,1.59c0,0.96,0.51,1.62,3.78,2.61c3.18,0.96,6.75,2.07,6.75,6.51
			c0,4.05-3.24,6.45-7.8,6.45C463.93,41.34,461.11,39.24,459.94,36.15z"/>
		<path class="st3" d="M503.44,24.54h-5.4v16.38h-4.8V24.54h-5.4v-4.62h15.6V24.54z"/>
		<path class="st3" d="M505.24,30.42c0-6.18,4.89-10.92,10.92-10.92c6.03,0,10.92,4.74,10.92,10.92s-4.89,10.92-10.92,10.92
			C510.13,41.34,505.24,36.6,505.24,30.42z M522.28,30.42c0-3.75-2.7-6.24-6.12-6.24s-6.12,2.49-6.12,6.24
			c0,3.75,2.7,6.24,6.12,6.24S522.28,34.17,522.28,30.42z"/>
		<path class="st3" d="M550.6,32.85v8.07h-4.8v-8.07l-7.05-12.93h5.46l3.99,8.1l3.99-8.1h5.46L550.6,32.85z"/>
		<path class="st3" d="M558.85,30.42c0-6.18,4.89-10.92,10.92-10.92s10.92,4.74,10.92,10.92s-4.89,10.92-10.92,10.92
			S558.85,36.6,558.85,30.42z M575.89,30.42c0-3.75-2.7-6.24-6.12-6.24c-3.42,0-6.12,2.49-6.12,6.24c0,3.75,2.7,6.24,6.12,6.24
			C573.19,36.66,575.89,34.17,575.89,30.42z"/>
		<path class="st3" d="M584.86,34.14V19.92h4.8v13.8c0,1.59,0.75,2.94,3.3,2.94c2.55,0,3.3-1.35,3.3-2.94v-13.8h4.8v14.22
			c0,4.5-3.48,7.2-8.1,7.2C588.34,41.34,584.86,38.64,584.86,34.14z"/>
	</g>
	<g>
		<path class="st0" d="M6.4,128.92c-3.31,0-6,2.69-6,6v58c0,3.31,2.69,6,6,6h248c3.31,0,6-2.69,6-6v-58c0-3.31-2.69-6-6-6H6.4z"/>
	</g>
	<g>
		<path class="st3" d="M44.26,154.7v5.92h-3.52v-5.92l-5.17-9.48h4l2.93,5.94l2.93-5.94h4L44.26,154.7z"/>
		<path class="st3" d="M49.78,152.92c0-4.53,3.59-8.01,8.01-8.01s8.01,3.48,8.01,8.01s-3.59,8.01-8.01,8.01
			S49.78,157.45,49.78,152.92z M62.28,152.92c0-2.75-1.98-4.58-4.49-4.58s-4.49,1.83-4.49,4.58s1.98,4.58,4.49,4.58
			S62.28,155.67,62.28,152.92z"/>
		<path class="st3" d="M68.33,155.65v-10.43h3.52v10.12c0,1.17,0.55,2.16,2.42,2.16c1.87,0,2.42-0.99,2.42-2.16v-10.12h3.52v10.43
			c0,3.3-2.55,5.28-5.94,5.28S68.33,158.95,68.33,155.65z"/>
		<path class="st3" d="M88.74,157.12l3.04-1.76c0.55,1.28,1.5,2.13,3.23,2.13c1.67,0,2.09-0.66,2.09-1.25
			c0-0.95-0.88-1.32-3.19-1.96c-2.29-0.64-4.53-1.74-4.53-4.69c0-2.97,2.51-4.69,5.17-4.69c2.53,0,4.51,1.21,5.63,3.48l-2.97,1.74
			c-0.53-1.1-1.25-1.78-2.66-1.78c-1.1,0-1.65,0.55-1.65,1.17c0,0.7,0.38,1.19,2.77,1.91c2.33,0.7,4.95,1.52,4.95,4.77
			c0,2.97-2.38,4.73-5.72,4.73C91.67,160.93,89.6,159.39,88.74,157.12z"/>
		<path class="st3" d="M112.72,157.23v3.39h-9.68v-15.4h9.57v3.39h-6.05v2.55h5.5v3.34h-5.5v2.73H112.72z"/>
		<path class="st3" d="M127.55,145.22v15.4h-2.64l-5.94-8.36v8.36h-3.52v-15.4h2.64l5.94,8.36v-8.36H127.55z"/>
		<path class="st3" d="M144.58,152.92c0,4.36-3.23,7.7-7.48,7.7h-6.16v-15.4h6.16C141.35,145.22,144.58,148.56,144.58,152.92z
			 M141.19,152.92c0-2.64-1.67-4.31-4.09-4.31h-2.64v8.62h2.64C139.52,157.23,141.19,155.56,141.19,152.92z"/>
		<path class="st3" d="M152.61,157.12l3.04-1.76c0.55,1.28,1.5,2.13,3.23,2.13c1.67,0,2.09-0.66,2.09-1.25
			c0-0.95-0.88-1.32-3.19-1.96c-2.29-0.64-4.53-1.74-4.53-4.69c0-2.97,2.51-4.69,5.17-4.69c2.53,0,4.51,1.21,5.63,3.48l-2.97,1.74
			c-0.53-1.1-1.25-1.78-2.66-1.78c-1.1,0-1.65,0.55-1.65,1.17c0,0.7,0.37,1.19,2.77,1.91c2.33,0.7,4.95,1.52,4.95,4.77
			c0,2.97-2.38,4.73-5.72,4.73C155.54,160.93,153.47,159.39,152.61,157.12z"/>
		<path class="st3" d="M176.81,148.61h-3.96v12.01h-3.52v-12.01h-3.96v-3.39h11.44V148.61z"/>
		<path class="st3" d="M177.58,152.92c0-4.53,3.59-8.01,8.01-8.01s8.01,3.48,8.01,8.01s-3.59,8.01-8.01,8.01
			S177.58,157.45,177.58,152.92z M190.08,152.92c0-2.75-1.98-4.58-4.49-4.58s-4.49,1.83-4.49,4.58s1.98,4.58,4.49,4.58
			S190.08,155.67,190.08,152.92z"/>
		<path class="st3" d="M195.66,152.92c0-4.53,3.37-8.01,8.01-8.01c2.79,0,5.26,1.39,6.6,3.56l-3.04,1.76
			c-0.68-1.19-2-1.89-3.56-1.89c-2.73,0-4.49,1.83-4.49,4.58s1.76,4.58,4.49,4.58c1.56,0,2.9-0.7,3.56-1.89l3.04,1.76
			c-1.32,2.18-3.78,3.56-6.6,3.56C199.03,160.93,195.66,157.45,195.66,152.92z"/>
		<path class="st3" d="M221.14,160.62l-4.93-7.13v7.13h-3.52v-15.4h3.52v6.69l4.71-6.69h4.01l-5.19,7.5l5.41,7.9H221.14z"/>
	</g>
	<text transform="matrix(1 0 0 1 231.9429 160.62)" class="st3 st6 st7"> </text>
	<text transform="matrix(1 0 0 1 64.8306 182.62)"><tspan x="0" y="0" class="st3 st6 st7">T</tspan><tspan x="11.77" y="0" class="st3 st6 st7">O </tspan><tspan x="35.93" y="0" class="st3 st6 st7">A</tspan><tspan x="51.63" y="0" class="st3 st6 st7">M</tspan><tspan x="70.44" y="0" class="st3 st6 st7">A</tspan><tspan x="86.15" y="0" class="st3 st6 st7">Z</tspan><tspan x="98.25" y="0" class="st3 st6 st7">O</tspan><tspan x="116.36" y="0" class="st3 st6 st7">N</tspan></text>
	<g>
		<path class="st0" d="M542.59,128.92c-3.31,0-6,2.69-6,6v58c0,3.31,2.69,6,6,6h248c3.31,0,6-2.69,6-6v-58c0-3.31-2.69-6-6-6H542.59
			z"/>
	</g>
	<g>
		<path class="st3" d="M603.89,154.7v5.92h-3.52v-5.92l-5.17-9.48h4l2.93,5.94l2.93-5.94h4L603.89,154.7z"/>
		<path class="st3" d="M609.41,152.92c0-4.53,3.59-8.01,8.01-8.01c4.42,0,8.01,3.48,8.01,8.01s-3.59,8.01-8.01,8.01
			C613,160.93,609.41,157.45,609.41,152.92z M621.91,152.92c0-2.75-1.98-4.58-4.49-4.58s-4.49,1.83-4.49,4.58s1.98,4.58,4.49,4.58
			S621.91,155.67,621.91,152.92z"/>
		<path class="st3" d="M627.96,155.65v-10.43h3.52v10.12c0,1.17,0.55,2.16,2.42,2.16c1.87,0,2.42-0.99,2.42-2.16v-10.12h3.52v10.43
			c0,3.3-2.55,5.28-5.94,5.28C630.51,160.93,627.96,158.95,627.96,155.65z"/>
		<path class="st3" d="M652.68,145.22v15.4h-3.52v-15.4H652.68z"/>
		<path class="st3" d="M668.17,145.22v15.4h-2.64l-5.94-8.36v8.36h-3.52v-15.4h2.64l5.94,8.36v-8.36H668.17z"/>
		<path class="st3" d="M670.26,145.22h3.85l3.41,11.33l3.41-11.33h3.85l-5.02,15.4h-4.49L670.26,145.22z"/>
		<path class="st3" d="M685.53,152.92c0-4.53,3.59-8.01,8.01-8.01s8.01,3.48,8.01,8.01s-3.59,8.01-8.01,8.01
			S685.53,157.45,685.53,152.92z M698.03,152.92c0-2.75-1.98-4.58-4.49-4.58s-4.49,1.83-4.49,4.58s1.98,4.58,4.49,4.58
			S698.03,155.67,698.03,152.92z"/>
		<path class="st3" d="M707.82,145.22v15.4h-3.52v-15.4H707.82z"/>
		<path class="st3" d="M710.54,152.92c0-4.53,3.37-8.01,8.01-8.01c2.79,0,5.26,1.39,6.6,3.56l-3.04,1.76
			c-0.68-1.19-2-1.89-3.56-1.89c-2.73,0-4.49,1.83-4.49,4.58s1.76,4.58,4.49,4.58c1.56,0,2.9-0.7,3.56-1.89l3.04,1.76
			c-1.32,2.18-3.79,3.56-6.6,3.56C713.91,160.93,710.54,157.45,710.54,152.92z"/>
		<path class="st3" d="M737.23,157.23v3.39h-9.68v-15.4h9.57v3.39h-6.05v2.55h5.5v3.34h-5.5v2.73H737.23z"/>
	</g>
	<g>
		<path class="st3" d="M624.92,179.23v3.39h-9.68v-15.4h9.57v3.39h-6.05v2.55h5.5v3.34h-5.5v2.73H624.92z"/>
		<path class="st3" d="M627.54,174.46h8.36v3.17h-8.36V174.46z"/>
		<path class="st3" d="M638.54,174.92c0-4.53,3.37-8.01,8.01-8.01c2.79,0,5.26,1.39,6.6,3.56l-3.04,1.76
			c-0.68-1.19-2-1.89-3.56-1.89c-2.73,0-4.49,1.83-4.49,4.58s1.76,4.58,4.49,4.58c1.56,0,2.9-0.7,3.56-1.89l3.04,1.76
			c-1.32,2.18-3.79,3.56-6.6,3.56C641.9,182.93,638.54,179.45,638.54,174.92z"/>
		<path class="st3" d="M654.69,174.92c0-4.53,3.59-8.01,8.01-8.01c4.42,0,8.01,3.48,8.01,8.01s-3.59,8.01-8.01,8.01
			C658.27,182.93,654.69,179.45,654.69,174.92z M667.18,174.92c0-2.75-1.98-4.58-4.49-4.58c-2.51,0-4.49,1.83-4.49,4.58
			s1.98,4.58,4.49,4.58C665.2,179.5,667.18,177.67,667.18,174.92z"/>
		<path class="st3" d="M688.83,182.62h-3.52v-8.96l-3.98,6.54h-0.4l-3.98-6.54v8.96h-3.52v-15.4h3.52l4.18,6.84l4.18-6.84h3.52
			V182.62z"/>
		<path class="st3" d="M701.26,180.2h-5.72l-0.77,2.42h-3.85l5.24-15.4h4.49l5.24,15.4h-3.85L701.26,180.2z M700.2,176.9l-1.8-5.66
			l-1.8,5.66H700.2z"/>
		<path class="st3" d="M706.87,179.12l3.04-1.76c0.55,1.28,1.5,2.13,3.23,2.13c1.67,0,2.09-0.66,2.09-1.25
			c0-0.95-0.88-1.32-3.19-1.96c-2.29-0.64-4.53-1.74-4.53-4.69c0-2.97,2.51-4.69,5.17-4.69c2.53,0,4.51,1.21,5.63,3.48l-2.97,1.74
			c-0.53-1.1-1.25-1.78-2.66-1.78c-1.1,0-1.65,0.55-1.65,1.17c0,0.7,0.37,1.19,2.77,1.91c2.33,0.7,4.95,1.52,4.95,4.77
			c0,2.97-2.38,4.73-5.72,4.73C709.8,182.93,707.73,181.39,706.87,179.12z"/>
	</g>
	<g>
		<path class="st0" d="M542.59,323.58c-3.31,0-6,2.69-6,6v58c0,3.31,2.69,6,6,6h248c3.31,0,6-2.69,6-6v-58c0-3.31-2.69-6-6-6H542.59
			z"/>
	</g>
	<g>
		<path class="st3" d="M568.91,351.89v3.39h-9.68v-15.4h9.57v3.39h-6.05v2.55h5.5v3.34h-5.5v2.73H568.91z"/>
		<path class="st3" d="M571.53,347.12h8.36v3.17h-8.36V347.12z"/>
		<path class="st3" d="M582.53,347.58c0-4.53,3.37-8.01,8.01-8.01c2.79,0,5.26,1.39,6.6,3.56l-3.04,1.76
			c-0.68-1.19-2-1.89-3.56-1.89c-2.73,0-4.49,1.83-4.49,4.58s1.76,4.58,4.49,4.58c1.56,0,2.9-0.7,3.56-1.89l3.04,1.76
			c-1.32,2.18-3.78,3.56-6.6,3.56C585.89,355.59,582.53,352.11,582.53,347.58z"/>
		<path class="st3" d="M598.67,347.58c0-4.53,3.59-8.01,8.01-8.01s8.01,3.48,8.01,8.01s-3.59,8.01-8.01,8.01
			S598.67,352.11,598.67,347.58z M611.17,347.58c0-2.75-1.98-4.58-4.49-4.58s-4.49,1.83-4.49,4.58s1.98,4.58,4.49,4.58
			S611.17,350.33,611.17,347.58z"/>
		<path class="st3" d="M632.82,355.28h-3.52v-8.96l-3.98,6.54h-0.4l-3.98-6.54v8.96h-3.52v-15.4h3.52l4.18,6.84l4.18-6.84h3.52
			V355.28z"/>
		<path class="st3" d="M645.25,352.86h-5.72l-0.77,2.42h-3.85l5.24-15.4h4.49l5.24,15.4h-3.85L645.25,352.86z M644.19,349.56
			l-1.8-5.66l-1.8,5.66H644.19z"/>
		<path class="st3" d="M650.86,351.78l3.04-1.76c0.55,1.28,1.5,2.13,3.23,2.13c1.67,0,2.09-0.66,2.09-1.25
			c0-0.95-0.88-1.32-3.19-1.96c-2.29-0.64-4.53-1.74-4.53-4.69c0-2.97,2.51-4.69,5.17-4.69c2.53,0,4.51,1.21,5.63,3.48l-2.97,1.74
			c-0.53-1.1-1.25-1.78-2.66-1.78c-1.1,0-1.65,0.55-1.65,1.17c0,0.7,0.37,1.19,2.77,1.91c2.33,0.7,4.95,1.52,4.95,4.77
			c0,2.97-2.38,4.73-5.72,4.73C653.78,355.59,651.72,354.05,650.86,351.78z"/>
		<path class="st3" d="M682.52,345.16c0,2.93-2.35,5.28-5.39,5.28h-2.31v4.84h-3.52v-15.4h5.83
			C680.16,339.88,682.52,342.23,682.52,345.16z M679,345.16c0-1.12-0.79-1.98-1.87-1.98h-2.31v3.96h2.31
			C678.2,347.14,679,346.28,679,345.16z"/>
		<path class="st3" d="M692.53,352.86h-5.72l-0.77,2.42h-3.85l5.24-15.4h4.49l5.24,15.4h-3.85L692.53,352.86z M691.47,349.56
			l-1.8-5.66l-1.8,5.66H691.47z"/>
		<path class="st3" d="M704.65,349.36v5.92h-3.52v-5.92l-5.17-9.48h4l2.93,5.94l2.93-5.94h4L704.65,349.36z"/>
		<path class="st3" d="M710.28,351.78l3.04-1.76c0.55,1.28,1.5,2.13,3.23,2.13c1.67,0,2.09-0.66,2.09-1.25
			c0-0.95-0.88-1.32-3.19-1.96c-2.29-0.64-4.53-1.74-4.53-4.69c0-2.97,2.51-4.69,5.17-4.69c2.53,0,4.51,1.21,5.63,3.48l-2.97,1.74
			c-0.53-1.1-1.25-1.78-2.66-1.78c-1.1,0-1.65,0.55-1.65,1.17c0,0.7,0.37,1.19,2.77,1.91c2.33,0.7,4.95,1.52,4.95,4.77
			c0,2.97-2.38,4.73-5.72,4.73C713.21,355.59,711.14,354.05,710.28,351.78z"/>
		<path class="st3" d="M738.09,349.36v5.92h-3.52v-5.92l-5.17-9.48h4l2.93,5.94l2.93-5.94h4L738.09,349.36z"/>
		<path class="st3" d="M743.61,347.58c0-4.53,3.59-8.01,8.01-8.01s8.01,3.48,8.01,8.01s-3.59,8.01-8.01,8.01
			S743.61,352.11,743.61,347.58z M756.11,347.58c0-2.75-1.98-4.58-4.49-4.58s-4.49,1.83-4.49,4.58s1.98,4.58,4.49,4.58
			S756.11,350.33,756.11,347.58z"/>
		<path class="st3" d="M762.16,350.31v-10.43h3.52V350c0,1.17,0.55,2.16,2.42,2.16c1.87,0,2.42-0.99,2.42-2.16v-10.12h3.52v10.43
			c0,3.3-2.55,5.28-5.94,5.28C764.71,355.59,762.16,353.61,762.16,350.31z"/>
	</g>
	<g>
		<path class="st3" d="M574.69,361.88h3.7l2.66,10.78l2.97-10.78h2.86l2.97,10.78l2.66-10.78h3.7l-4.25,15.4h-4l-2.51-9.09
			l-2.51,9.09h-4L574.69,361.88z"/>
		<path class="st3" d="M602.04,361.88v15.4h-3.52v-15.4H602.04z"/>
		<path class="st3" d="M615.79,365.27h-3.96v12.01h-3.52v-12.01h-3.96v-3.39h11.44V365.27z"/>
		<path class="st3" d="M629.96,361.88v15.4h-3.52v-6.12h-4.84v6.12h-3.52v-15.4h3.52v5.9h4.84v-5.9H629.96z"/>
		<path class="st3" d="M636.89,361.88v15.4h-3.52v-15.4H636.89z"/>
		<path class="st3" d="M652.4,361.88v15.4h-2.64l-5.94-8.36v8.36h-3.52v-15.4h2.64l5.94,8.36v-8.36H652.4z"/>
		<path class="st3" d="M667.73,361.88v15.4h-3.52V365.6l-2.73,0.75l-0.86-3.01l4.03-1.45H667.73z"/>
		<path class="st3" d="M670.28,374.73l5.17-5.37c0.9-0.92,1.56-1.83,1.56-2.73c0-0.97-0.62-1.63-1.65-1.63
			c-1.08,0-1.85,0.7-2.27,1.67l-2.97-1.74c0.99-2.29,3.06-3.37,5.19-3.37c2.75,0,5.21,1.8,5.21,4.91c0,1.85-0.99,3.43-2.4,4.84
			l-2.55,2.57h5.17v3.39h-10.47V374.73z"/>
		<path class="st3" d="M682.51,369.58c0-4.75,2.29-8.01,6.27-8.01s6.27,3.26,6.27,8.01s-2.29,8.01-6.27,8.01
			S682.51,374.33,682.51,369.58z M691.54,369.58c0-2.97-0.9-4.58-2.75-4.58s-2.75,1.61-2.75,4.58s0.9,4.58,2.75,4.58
			S691.54,372.55,691.54,369.58z"/>
		<path class="st3" d="M717.36,369.58c0,4.36-3.23,7.7-7.48,7.7h-6.16v-15.4h6.16C714.13,361.88,717.36,365.22,717.36,369.58z
			 M713.98,369.58c0-2.64-1.67-4.31-4.09-4.31h-2.64v8.62h2.64C712.3,373.89,713.98,372.22,713.98,369.58z"/>
		<path class="st3" d="M728.59,374.86h-5.72l-0.77,2.42h-3.85l5.24-15.4h4.49l5.24,15.4h-3.85L728.59,374.86z M727.53,371.56
			l-1.8-5.66l-1.8,5.66H727.53z"/>
		<path class="st3" d="M740.68,371.36v5.92h-3.52v-5.92l-5.17-9.48h4l2.93,5.94l2.93-5.94h4L740.68,371.36z"/>
		<path class="st3" d="M746.31,373.78l3.04-1.76c0.55,1.28,1.5,2.13,3.23,2.13c1.67,0,2.09-0.66,2.09-1.25
			c0-0.95-0.88-1.32-3.19-1.96c-2.29-0.64-4.53-1.74-4.53-4.69c0-2.97,2.51-4.69,5.17-4.69c2.53,0,4.51,1.21,5.63,3.48l-2.97,1.74
			c-0.53-1.1-1.25-1.78-2.66-1.78c-1.1,0-1.65,0.55-1.65,1.17c0,0.7,0.37,1.19,2.77,1.91c2.33,0.7,4.95,1.52,4.95,4.77
			c0,2.97-2.38,4.73-5.72,4.73C749.24,377.59,747.17,376.05,746.31,373.78z"/>
	</g>
	<path class="st0" d="M666.06,118.45c-0.55,0-1-0.45-1-1V90.92h-533.2v26.53c0,0.55-0.45,1-1,1s-1-0.45-1-1V89.92c0-0.55,0.45-1,1-1
		h535.2c0.55,0,1,0.45,1,1v27.53C667.06,118,666.61,118.45,666.06,118.45z"/>
	<path class="st0" d="M666.06,118.45L666.06,118.45c-0.28,0-0.54-0.12-0.73-0.32l-4.72-5.08c-0.38-0.4-0.35-1.04,0.05-1.41
		c0.4-0.37,1.04-0.35,1.41,0.05l3.99,4.29l3.99-4.29c0.38-0.41,1.01-0.43,1.41-0.05c0.4,0.38,0.43,1.01,0.05,1.41l-4.72,5.08
		C666.6,118.34,666.33,118.45,666.06,118.45z"/>
	<path class="st0" d="M130.86,118.45L130.86,118.45c-0.28,0-0.54-0.12-0.73-0.32l-4.72-5.08c-0.38-0.4-0.35-1.04,0.05-1.41
		c0.4-0.37,1.04-0.35,1.41,0.05l3.99,4.29l3.99-4.29c0.38-0.41,1.01-0.43,1.41-0.05c0.4,0.38,0.43,1.01,0.05,1.41l-4.72,5.08
		C131.4,118.34,131.13,118.45,130.86,118.45z"/>
	<path class="st0" d="M398.46,89.92c-0.55,0-1-0.45-1-1v-28.5c0-0.55,0.45-1,1-1s1,0.45,1,1v28.5
		C399.46,89.47,399.01,89.92,398.46,89.92z"/>
	<g>
		<path class="st1" d="M666.12,312.98c-0.09-0.05-0.18-0.1-0.26-0.18C665.94,312.88,666.03,312.93,666.12,312.98z"/>
		<path class="st1" d="M666.59,313.11c-0.14,0-0.27-0.03-0.39-0.08C666.31,313.08,666.45,313.11,666.59,313.11z"/>
		<path class="st1" d="M666.98,313.03c-0.12,0.05-0.26,0.08-0.39,0.08C666.73,313.11,666.86,313.08,666.98,313.03z"/>
		<polygon class="st1" points="665.59,309.57 666.59,310.64 667.59,309.57 667.59,283.77 665.59,283.77 		"/>
		<path class="st1" d="M667.31,312.8c-0.07,0.08-0.16,0.13-0.26,0.18C667.14,312.93,667.23,312.88,667.31,312.8z"/>
		<path class="st1" d="M667.59,210.58c0-0.55-0.45-1-1-1s-1,0.45-1,1v18.34h2V210.58z"/>
		<path class="st1" d="M666.19,313.03c-0.03-0.01-0.04-0.03-0.07-0.05C666.15,313,666.17,313.02,666.19,313.03z"/>
		<path class="st1" d="M667.05,312.98c-0.02,0.01-0.04,0.03-0.07,0.04C667.01,313.02,667.02,313,667.05,312.98z"/>
		<path class="st1" d="M667.31,312.8c0,0,0.01-0.01,0.01-0.01l4.72-5.08c0.38-0.4,0.35-1.04-0.05-1.41
			c-0.4-0.37-1.04-0.35-1.41,0.05l-2.99,3.22v2.54C667.59,312.38,667.48,312.62,667.31,312.8z"/>
		<path class="st1" d="M665.59,309.57l-2.99-3.22c-0.38-0.41-1.01-0.43-1.41-0.05c-0.4,0.38-0.43,1.01-0.05,1.41l4.72,5.08
			c0,0,0.01,0.01,0.01,0.01c-0.17-0.18-0.28-0.42-0.28-0.69V309.57z"/>
		<path class="st1" d="M665.59,309.57v2.54c0,0.27,0.11,0.51,0.28,0.69c0.07,0.08,0.16,0.13,0.26,0.18
			c0.02,0.01,0.04,0.03,0.07,0.05c0.12,0.05,0.26,0.08,0.39,0.08s0.27-0.03,0.39-0.08c0.03-0.01,0.04-0.03,0.07-0.04
			c0.09-0.05,0.18-0.11,0.26-0.18c0.17-0.18,0.28-0.42,0.28-0.69v-2.54l-1,1.08L665.59,309.57z"/>
	</g>
	<path class="st1" d="M588.36,244.68c-0.07,0.13-0.18,0.2-0.33,0.2c-0.09,0-0.19-0.03-0.31-0.1c-0.11-0.07-0.25-0.14-0.42-0.22
		c-0.17-0.08-0.36-0.16-0.59-0.22c-0.23-0.07-0.5-0.1-0.81-0.1c-0.27,0-0.51,0.03-0.73,0.1c-0.22,0.07-0.4,0.16-0.55,0.28
		c-0.15,0.12-0.27,0.26-0.35,0.42c-0.08,0.16-0.12,0.33-0.12,0.52c0,0.23,0.07,0.43,0.2,0.58c0.14,0.16,0.31,0.29,0.54,0.4
		c0.22,0.11,0.47,0.21,0.76,0.3c0.28,0.09,0.57,0.18,0.87,0.28s0.59,0.21,0.87,0.33c0.28,0.12,0.53,0.27,0.76,0.45
		c0.22,0.18,0.4,0.4,0.54,0.66s0.2,0.57,0.2,0.94c0,0.42-0.08,0.81-0.22,1.17c-0.15,0.36-0.37,0.67-0.67,0.93
		c-0.29,0.26-0.65,0.47-1.08,0.62c-0.43,0.15-0.92,0.22-1.48,0.22c-0.64,0-1.21-0.1-1.73-0.31c-0.52-0.21-0.95-0.47-1.31-0.8
		l0.38-0.61c0.05-0.08,0.1-0.14,0.17-0.18c0.07-0.04,0.15-0.06,0.26-0.06c0.11,0,0.22,0.04,0.34,0.13c0.12,0.08,0.27,0.18,0.44,0.28
		c0.17,0.1,0.38,0.2,0.62,0.28c0.24,0.08,0.55,0.13,0.91,0.13c0.31,0,0.58-0.04,0.82-0.12c0.23-0.08,0.43-0.19,0.59-0.33
		c0.16-0.14,0.27-0.3,0.35-0.48c0.07-0.18,0.11-0.37,0.11-0.58c0-0.25-0.07-0.46-0.2-0.63c-0.14-0.16-0.31-0.31-0.54-0.42
		c-0.22-0.12-0.48-0.22-0.76-0.31c-0.29-0.09-0.58-0.18-0.87-0.27c-0.3-0.1-0.59-0.21-0.87-0.33c-0.29-0.12-0.54-0.28-0.76-0.46
		c-0.22-0.19-0.4-0.42-0.54-0.69c-0.13-0.27-0.2-0.6-0.2-0.99c0-0.35,0.07-0.68,0.22-1c0.14-0.32,0.35-0.6,0.63-0.85
		c0.28-0.24,0.61-0.44,1.02-0.58c0.4-0.14,0.86-0.22,1.38-0.22c0.6,0,1.14,0.09,1.62,0.28c0.48,0.19,0.89,0.45,1.24,0.78
		L588.36,244.68z M593.72,252.44c-0.72,0-1.27-0.2-1.66-0.6c-0.39-0.4-0.58-0.98-0.58-1.74v-5.58h-1.1c-0.1,0-0.18-0.03-0.24-0.09
		c-0.07-0.06-0.1-0.15-0.1-0.27v-0.64l1.49-0.19l0.37-2.82c0.01-0.09,0.05-0.16,0.12-0.22c0.07-0.06,0.15-0.09,0.25-0.09h0.81v3.14
		h2.61v1.16h-2.61v5.47c0,0.38,0.09,0.67,0.28,0.85c0.19,0.19,0.43,0.28,0.72,0.28c0.17,0,0.31-0.02,0.44-0.07
		c0.12-0.04,0.23-0.09,0.32-0.15c0.09-0.05,0.17-0.1,0.23-0.15s0.12-0.07,0.17-0.07c0.08,0,0.16,0.05,0.23,0.15l0.47,0.76
		c-0.28,0.26-0.61,0.46-1,0.61C594.53,252.36,594.13,252.44,593.72,252.44z M601.36,243.03c0.67,0,1.27,0.11,1.8,0.33
		c0.54,0.22,0.99,0.54,1.37,0.94c0.37,0.41,0.66,0.9,0.86,1.48c0.2,0.58,0.3,1.23,0.3,1.94c0,0.72-0.1,1.37-0.3,1.94
		c-0.2,0.58-0.49,1.07-0.86,1.48c-0.38,0.41-0.83,0.72-1.37,0.94c-0.54,0.22-1.14,0.33-1.8,0.33c-0.67,0-1.27-0.11-1.8-0.33
		c-0.54-0.22-0.99-0.53-1.37-0.94c-0.38-0.41-0.67-0.9-0.87-1.48c-0.2-0.58-0.31-1.22-0.31-1.94c0-0.71,0.1-1.36,0.31-1.94
		c0.2-0.58,0.49-1.07,0.87-1.48c0.38-0.41,0.84-0.72,1.37-0.94C600.09,243.14,600.69,243.03,601.36,243.03z M601.36,251.17
		c0.9,0,1.57-0.3,2.02-0.9c0.44-0.6,0.67-1.44,0.67-2.52c0-1.09-0.22-1.93-0.67-2.54c-0.44-0.61-1.12-0.91-2.02-0.91
		c-0.46,0-0.85,0.08-1.19,0.23c-0.34,0.16-0.62,0.38-0.84,0.68c-0.22,0.29-0.39,0.66-0.5,1.08c-0.11,0.43-0.17,0.91-0.17,1.45
		s0.06,1.02,0.17,1.45c0.11,0.43,0.28,0.78,0.5,1.08c0.23,0.29,0.51,0.51,0.84,0.67C600.5,251.09,600.9,251.17,601.36,251.17z
		 M613.89,244.8c-0.05,0.07-0.1,0.12-0.14,0.15c-0.05,0.04-0.12,0.05-0.21,0.05c-0.09,0-0.19-0.04-0.29-0.11
		c-0.11-0.07-0.24-0.16-0.4-0.25c-0.16-0.09-0.36-0.17-0.59-0.25c-0.23-0.07-0.51-0.11-0.85-0.11c-0.44,0-0.84,0.08-1.18,0.24
		c-0.34,0.16-0.63,0.39-0.86,0.69c-0.23,0.3-0.4,0.66-0.52,1.09c-0.12,0.43-0.18,0.9-0.18,1.43c0,0.55,0.06,1.04,0.19,1.47
		c0.13,0.43,0.3,0.79,0.53,1.08c0.23,0.29,0.51,0.51,0.83,0.67c0.33,0.15,0.69,0.23,1.1,0.23c0.39,0,0.71-0.05,0.96-0.14
		c0.25-0.09,0.46-0.2,0.63-0.31c0.17-0.11,0.31-0.22,0.41-0.31c0.11-0.09,0.22-0.14,0.32-0.14c0.14,0,0.24,0.05,0.31,0.15l0.45,0.59
		c-0.4,0.49-0.89,0.84-1.48,1.07c-0.59,0.23-1.22,0.34-1.88,0.34c-0.57,0-1.1-0.11-1.59-0.32c-0.49-0.21-0.91-0.51-1.27-0.91
		c-0.36-0.4-0.64-0.89-0.85-1.47c-0.21-0.58-0.31-1.24-0.31-1.99c0-0.68,0.09-1.3,0.28-1.88c0.19-0.58,0.46-1.07,0.83-1.49
		c0.36-0.42,0.81-0.74,1.35-0.98c0.53-0.23,1.15-0.35,1.84-0.35c0.64,0,1.2,0.1,1.69,0.31c0.49,0.21,0.93,0.5,1.3,0.88L613.89,244.8
		z M617.75,239.04v7.8h0.41c0.12,0,0.22-0.02,0.3-0.05c0.08-0.03,0.16-0.1,0.26-0.2l2.88-3.09c0.09-0.1,0.18-0.17,0.27-0.23
		c0.09-0.06,0.21-0.09,0.36-0.09h1.46l-3.36,3.57c-0.08,0.1-0.17,0.19-0.25,0.27c-0.08,0.08-0.17,0.15-0.27,0.21
		c0.11,0.07,0.21,0.15,0.29,0.25c0.09,0.09,0.17,0.2,0.25,0.32l3.56,4.5h-1.44c-0.13,0-0.24-0.03-0.34-0.08
		c-0.09-0.05-0.18-0.13-0.27-0.24l-3-3.74c-0.09-0.13-0.18-0.21-0.27-0.25c-0.09-0.04-0.22-0.06-0.4-0.06h-0.45v4.36h-1.61v-13.26
		H617.75z M624.2,252.28L624.2,252.28z M632.68,243.03c0.67,0,1.27,0.11,1.8,0.33c0.54,0.22,0.99,0.54,1.37,0.94
		c0.37,0.41,0.66,0.9,0.86,1.48c0.2,0.58,0.3,1.23,0.3,1.94c0,0.72-0.1,1.37-0.3,1.94c-0.2,0.58-0.49,1.07-0.86,1.48
		c-0.38,0.41-0.83,0.72-1.37,0.94c-0.54,0.22-1.14,0.33-1.8,0.33c-0.67,0-1.27-0.11-1.8-0.33c-0.54-0.22-0.99-0.53-1.37-0.94
		c-0.38-0.41-0.67-0.9-0.87-1.48c-0.2-0.58-0.31-1.22-0.31-1.94c0-0.71,0.1-1.36,0.31-1.94c0.2-0.58,0.49-1.07,0.87-1.48
		c0.38-0.41,0.84-0.72,1.37-0.94C631.41,243.14,632.01,243.03,632.68,243.03z M632.68,251.17c0.9,0,1.57-0.3,2.02-0.9
		c0.44-0.6,0.67-1.44,0.67-2.52c0-1.09-0.22-1.93-0.67-2.54c-0.44-0.61-1.12-0.91-2.02-0.91c-0.46,0-0.85,0.08-1.19,0.23
		c-0.34,0.16-0.62,0.38-0.84,0.68c-0.22,0.29-0.39,0.66-0.5,1.08c-0.11,0.43-0.17,0.91-0.17,1.45s0.06,1.02,0.17,1.45
		c0.11,0.43,0.28,0.78,0.5,1.08c0.23,0.29,0.51,0.51,0.84,0.67C631.82,251.09,632.22,251.17,632.68,251.17z M639.35,252.29v-7.75
		l-1.01-0.12c-0.13-0.03-0.23-0.08-0.31-0.14c-0.08-0.06-0.12-0.15-0.12-0.27v-0.66h1.44v-0.88c0-0.52,0.07-0.99,0.22-1.39
		c0.15-0.4,0.36-0.75,0.63-1.03c0.27-0.28,0.6-0.49,0.99-0.63c0.38-0.14,0.82-0.22,1.3-0.22c0.41,0,0.79,0.06,1.13,0.18l-0.04,0.8
		c-0.01,0.12-0.06,0.19-0.15,0.22c-0.1,0.02-0.23,0.04-0.4,0.04h-0.28c-0.28,0-0.53,0.04-0.75,0.11c-0.22,0.07-0.42,0.19-0.58,0.35
		s-0.29,0.38-0.37,0.64c-0.09,0.26-0.13,0.59-0.13,0.98v0.84h2.64v1.16h-2.58v7.78H639.35z M645.42,252.29v-7.75l-1.01-0.12
		c-0.13-0.03-0.23-0.08-0.31-0.14c-0.08-0.06-0.12-0.15-0.12-0.27v-0.66h1.44v-0.5c0-0.56,0.09-1.07,0.26-1.53
		c0.17-0.46,0.43-0.87,0.78-1.2c0.35-0.34,0.78-0.6,1.3-0.78c0.52-0.19,1.12-0.28,1.81-0.28c0.23,0,0.46,0.02,0.7,0.05
		c0.24,0.03,0.44,0.08,0.62,0.14l-0.05,0.84c-0.01,0.08-0.05,0.12-0.11,0.14c-0.06,0.02-0.15,0.03-0.26,0.03c-0.07,0-0.14,0-0.21,0
		s-0.15,0-0.24,0c-1.06,0-1.83,0.22-2.32,0.66c-0.48,0.44-0.72,1.1-0.72,1.99v0.46h5.51v8.94h-1.6v-7.78h-3.85v7.78H645.42z
		 M661.54,244.8c-0.05,0.07-0.1,0.12-0.14,0.15c-0.05,0.04-0.12,0.05-0.21,0.05c-0.09,0-0.19-0.04-0.29-0.11
		c-0.11-0.07-0.24-0.16-0.4-0.25c-0.16-0.09-0.36-0.17-0.59-0.25c-0.23-0.07-0.51-0.11-0.85-0.11c-0.44,0-0.84,0.08-1.18,0.24
		c-0.34,0.16-0.63,0.39-0.86,0.69c-0.23,0.3-0.4,0.66-0.52,1.09c-0.12,0.43-0.18,0.9-0.18,1.43c0,0.55,0.06,1.04,0.19,1.47
		c0.13,0.43,0.3,0.79,0.53,1.08c0.23,0.29,0.51,0.51,0.83,0.67c0.33,0.15,0.69,0.23,1.1,0.23c0.39,0,0.71-0.05,0.96-0.14
		c0.25-0.09,0.46-0.2,0.63-0.31c0.17-0.11,0.31-0.22,0.41-0.31c0.11-0.09,0.22-0.14,0.32-0.14c0.14,0,0.24,0.05,0.31,0.15l0.45,0.59
		c-0.4,0.49-0.89,0.84-1.48,1.07c-0.59,0.23-1.22,0.34-1.88,0.34c-0.57,0-1.1-0.11-1.59-0.32c-0.49-0.21-0.91-0.51-1.27-0.91
		c-0.36-0.4-0.64-0.89-0.85-1.47c-0.21-0.58-0.31-1.24-0.31-1.99c0-0.68,0.09-1.3,0.28-1.88c0.19-0.58,0.46-1.07,0.83-1.49
		c0.36-0.42,0.81-0.74,1.35-0.98c0.53-0.23,1.15-0.35,1.84-0.35c0.64,0,1.2,0.1,1.69,0.31c0.49,0.21,0.93,0.5,1.3,0.88L661.54,244.8
		z M665.87,240.31c0,0.16-0.03,0.3-0.09,0.44c-0.06,0.13-0.15,0.26-0.25,0.36c-0.11,0.11-0.23,0.19-0.36,0.25
		c-0.14,0.06-0.29,0.09-0.44,0.09c-0.16,0-0.3-0.03-0.44-0.09c-0.14-0.06-0.26-0.14-0.36-0.25c-0.11-0.1-0.19-0.23-0.25-0.36
		c-0.06-0.14-0.09-0.28-0.09-0.44c0-0.16,0.03-0.3,0.09-0.45c0.06-0.14,0.14-0.26,0.25-0.37c0.1-0.1,0.22-0.19,0.36-0.25
		c0.14-0.06,0.28-0.09,0.44-0.09c0.16,0,0.3,0.03,0.44,0.09c0.14,0.06,0.26,0.14,0.36,0.25c0.1,0.11,0.19,0.23,0.25,0.37
		C665.84,240.01,665.87,240.16,665.87,240.31z M665.51,243.18v9.12h-1.6v-9.12H665.51z M675.03,252.29h-0.71
		c-0.16,0-0.28-0.02-0.38-0.07c-0.1-0.05-0.16-0.15-0.19-0.31l-0.18-0.85c-0.24,0.22-0.47,0.41-0.7,0.58
		c-0.23,0.17-0.47,0.31-0.72,0.43s-0.52,0.21-0.81,0.27c-0.29,0.06-0.6,0.09-0.95,0.09c-0.35,0-0.69-0.05-0.99-0.15
		c-0.31-0.1-0.58-0.25-0.81-0.45c-0.23-0.2-0.41-0.45-0.54-0.75s-0.2-0.66-0.2-1.08c0-0.36,0.1-0.71,0.3-1.04
		c0.2-0.33,0.52-0.63,0.96-0.89c0.44-0.26,1.02-0.47,1.73-0.64c0.71-0.17,1.59-0.25,2.62-0.25v-0.72c0-0.71-0.15-1.25-0.45-1.62
		c-0.3-0.37-0.75-0.55-1.35-0.55c-0.39,0-0.72,0.05-0.99,0.15c-0.27,0.1-0.5,0.21-0.69,0.33c-0.2,0.12-0.36,0.23-0.5,0.33
		c-0.14,0.1-0.28,0.15-0.42,0.15c-0.11,0-0.2-0.03-0.28-0.09c-0.08-0.06-0.15-0.13-0.19-0.21l-0.29-0.51
		c0.5-0.49,1.05-0.85,1.63-1.09c0.58-0.24,1.23-0.36,1.93-0.36c0.51,0,0.96,0.08,1.36,0.25c0.4,0.17,0.73,0.4,1,0.7
		c0.27,0.3,0.47,0.66,0.61,1.09c0.14,0.43,0.21,0.89,0.21,1.4V252.29z M670.87,251.31c0.28,0,0.54-0.03,0.77-0.09
		c0.23-0.06,0.45-0.14,0.66-0.24c0.21-0.1,0.41-0.23,0.59-0.38c0.19-0.15,0.37-0.32,0.55-0.51v-1.88c-0.74,0-1.37,0.05-1.88,0.14
		c-0.52,0.09-0.94,0.22-1.26,0.37c-0.32,0.15-0.56,0.33-0.71,0.53c-0.15,0.21-0.22,0.43-0.22,0.69c0,0.24,0.04,0.45,0.12,0.62
		c0.08,0.18,0.18,0.32,0.32,0.43c0.13,0.11,0.29,0.19,0.47,0.24C670.47,251.29,670.66,251.31,670.87,251.31z M679.24,239.04v13.26
		h-1.6v-13.26H679.24z M683.85,239.04v13.26h-1.6v-13.26H683.85z M689.35,254.98c-0.05,0.12-0.12,0.22-0.2,0.29
		c-0.08,0.07-0.21,0.11-0.37,0.11h-1.19l1.66-3.62l-3.76-8.59h1.39c0.14,0,0.25,0.03,0.32,0.1c0.08,0.07,0.14,0.15,0.17,0.23
		l2.44,5.74c0.05,0.13,0.1,0.26,0.14,0.4c0.04,0.13,0.07,0.27,0.1,0.4c0.04-0.14,0.08-0.27,0.13-0.4c0.04-0.13,0.09-0.27,0.14-0.4
		l2.37-5.73c0.04-0.1,0.1-0.18,0.18-0.24c0.09-0.06,0.18-0.09,0.28-0.09h1.28L689.35,254.98z M694.58,252.28L694.58,252.28z
		 M703.06,243.03c0.67,0,1.27,0.11,1.8,0.33c0.54,0.22,0.99,0.54,1.37,0.94c0.37,0.41,0.66,0.9,0.86,1.48
		c0.2,0.58,0.3,1.23,0.3,1.94c0,0.72-0.1,1.37-0.3,1.94c-0.2,0.58-0.49,1.07-0.86,1.48c-0.38,0.41-0.83,0.72-1.37,0.94
		c-0.54,0.22-1.14,0.33-1.8,0.33c-0.67,0-1.27-0.11-1.8-0.33c-0.54-0.22-0.99-0.53-1.37-0.94c-0.38-0.41-0.67-0.9-0.87-1.48
		c-0.2-0.58-0.31-1.22-0.31-1.94c0-0.71,0.1-1.36,0.31-1.94c0.2-0.58,0.49-1.07,0.87-1.48c0.38-0.41,0.84-0.72,1.37-0.94
		C701.79,243.14,702.39,243.03,703.06,243.03z M703.06,251.17c0.9,0,1.57-0.3,2.02-0.9c0.44-0.6,0.67-1.44,0.67-2.52
		c0-1.09-0.22-1.93-0.67-2.54c-0.44-0.61-1.12-0.91-2.02-0.91c-0.46,0-0.85,0.08-1.19,0.23c-0.34,0.16-0.62,0.38-0.84,0.68
		c-0.22,0.29-0.39,0.66-0.5,1.08c-0.11,0.43-0.17,0.91-0.17,1.45s0.06,1.02,0.17,1.45c0.11,0.43,0.28,0.78,0.5,1.08
		c0.23,0.29,0.51,0.51,0.84,0.67C702.2,251.09,702.6,251.17,703.06,251.17z M708.19,243.18h1.26c0.13,0,0.24,0.03,0.32,0.1
		c0.08,0.07,0.14,0.14,0.17,0.23l1.75,5.87c0.05,0.22,0.09,0.42,0.14,0.63c0.04,0.2,0.08,0.4,0.11,0.61c0.05-0.2,0.1-0.41,0.16-0.61
		c0.06-0.2,0.12-0.41,0.19-0.63l1.93-5.9c0.03-0.09,0.08-0.16,0.16-0.22c0.07-0.06,0.17-0.09,0.28-0.09h0.69
		c0.12,0,0.22,0.03,0.3,0.09c0.08,0.06,0.13,0.13,0.16,0.22l1.88,5.9c0.07,0.21,0.12,0.42,0.18,0.62c0.05,0.2,0.1,0.4,0.15,0.6
		c0.03-0.2,0.07-0.4,0.12-0.62c0.05-0.22,0.1-0.42,0.15-0.6l1.78-5.87c0.03-0.1,0.09-0.18,0.17-0.24c0.08-0.06,0.18-0.09,0.3-0.09
		h1.21l-2.95,9.12h-1.27c-0.16,0-0.26-0.1-0.32-0.31l-2.02-6.18c-0.05-0.14-0.09-0.28-0.12-0.42c-0.03-0.14-0.06-0.28-0.09-0.42
		c-0.03,0.14-0.06,0.28-0.09,0.42c-0.03,0.14-0.07,0.29-0.12,0.42l-2.04,6.17c-0.07,0.2-0.19,0.31-0.37,0.31h-1.21L708.19,243.18z
		 M723.16,252.29v-9.12h0.95c0.23,0,0.37,0.11,0.43,0.33l0.13,0.99c0.4-0.44,0.84-0.79,1.33-1.06c0.49-0.27,1.05-0.4,1.7-0.4
		c0.5,0,0.94,0.08,1.32,0.25c0.38,0.17,0.7,0.4,0.95,0.7c0.25,0.3,0.45,0.67,0.58,1.09c0.13,0.43,0.2,0.9,0.2,1.41v5.8h-1.6v-5.8
		c0-0.69-0.16-1.23-0.47-1.61c-0.32-0.38-0.8-0.57-1.44-0.57c-0.47,0-0.92,0.11-1.33,0.34c-0.41,0.23-0.79,0.54-1.14,0.93v6.71
		H723.16z M736.78,243.03c0.55,0,1.05,0.09,1.51,0.27c0.46,0.18,0.86,0.45,1.2,0.79c0.34,0.35,0.6,0.77,0.79,1.28
		c0.19,0.51,0.28,1.08,0.28,1.73c0,0.25-0.03,0.42-0.08,0.5c-0.05,0.08-0.16,0.13-0.31,0.13h-6.07c0.01,0.58,0.09,1.08,0.23,1.5
		c0.14,0.43,0.34,0.78,0.59,1.07c0.25,0.29,0.55,0.5,0.9,0.64c0.35,0.14,0.74,0.21,1.17,0.21c0.4,0,0.75-0.05,1.04-0.14
		c0.29-0.09,0.54-0.19,0.75-0.3c0.21-0.11,0.39-0.21,0.53-0.3c0.14-0.09,0.26-0.14,0.36-0.14c0.13,0,0.23,0.05,0.31,0.15l0.45,0.59
		c-0.2,0.24-0.44,0.45-0.71,0.63c-0.28,0.18-0.57,0.32-0.89,0.44c-0.32,0.11-0.64,0.2-0.98,0.26c-0.34,0.06-0.67,0.09-1,0.09
		c-0.63,0-1.21-0.11-1.74-0.32s-0.99-0.52-1.38-0.94c-0.39-0.41-0.69-0.92-0.9-1.53c-0.22-0.61-0.32-1.3-0.32-2.09
		c0-0.64,0.1-1.23,0.29-1.78c0.19-0.55,0.48-1.03,0.84-1.44c0.37-0.4,0.81-0.72,1.34-0.95
		C735.53,243.15,736.12,243.03,736.78,243.03z M736.82,244.21c-0.77,0-1.38,0.22-1.83,0.67c-0.44,0.45-0.72,1.07-0.83,1.86h4.96
		c0-0.37-0.05-0.71-0.15-1.02c-0.1-0.31-0.25-0.58-0.45-0.8c-0.2-0.22-0.44-0.4-0.72-0.52
		C737.51,244.27,737.18,244.21,736.82,244.21z M749.02,252.29c-0.23,0-0.37-0.11-0.43-0.33l-0.14-1.11
		c-0.39,0.47-0.84,0.85-1.34,1.14c-0.5,0.29-1.08,0.43-1.72,0.43c-0.52,0-1-0.1-1.42-0.3c-0.43-0.2-0.79-0.5-1.09-0.89
		c-0.3-0.39-0.53-0.88-0.69-1.46c-0.16-0.58-0.24-1.25-0.24-2.01c0-0.67,0.09-1.3,0.27-1.88c0.18-0.58,0.44-1.08,0.78-1.51
		c0.34-0.43,0.75-0.76,1.24-1c0.49-0.24,1.04-0.36,1.66-0.36c0.56,0,1.03,0.09,1.43,0.28s0.75,0.45,1.06,0.8v-5.06h1.6v13.26H749.02
		z M745.91,251.12c0.52,0,0.98-0.12,1.37-0.36c0.39-0.24,0.75-0.58,1.08-1.02v-4.41c-0.29-0.4-0.62-0.67-0.97-0.83
		c-0.35-0.16-0.74-0.24-1.17-0.24c-0.85,0-1.51,0.3-1.96,0.91c-0.46,0.61-0.68,1.47-0.68,2.59c0,0.59,0.05,1.1,0.15,1.53
		c0.1,0.42,0.25,0.77,0.45,1.04c0.2,0.27,0.44,0.47,0.73,0.6C745.21,251.06,745.54,251.12,745.91,251.12z"/>
	<text transform="matrix(1 0 0 1 754.8257 252.2928)" class="st1 st8 st9"> </text>
	<g>
		<path class="st1" d="M623.78,273.3v-13.26h1.61v5.45c0.38-0.44,0.81-0.79,1.3-1.06c0.49-0.27,1.05-0.4,1.68-0.4
			c0.53,0,1.01,0.1,1.43,0.3s0.79,0.49,1.09,0.89c0.3,0.39,0.53,0.88,0.69,1.46s0.24,1.25,0.24,2c0,0.67-0.09,1.3-0.27,1.88
			c-0.18,0.58-0.44,1.08-0.78,1.5c-0.34,0.42-0.75,0.76-1.24,1s-1.04,0.36-1.65,0.36c-0.59,0-1.09-0.11-1.5-0.34
			c-0.41-0.23-0.77-0.55-1.07-0.95l-0.08,0.83c-0.05,0.23-0.19,0.34-0.41,0.34H623.78z M627.85,265.32c-0.52,0-0.98,0.12-1.37,0.36
			s-0.75,0.58-1.08,1.02v4.41c0.29,0.4,0.61,0.67,0.96,0.84c0.35,0.16,0.74,0.24,1.17,0.24c0.85,0,1.51-0.3,1.96-0.91
			c0.46-0.61,0.68-1.47,0.68-2.59c0-0.59-0.05-1.1-0.16-1.53c-0.11-0.43-0.26-0.78-0.45-1.05c-0.2-0.27-0.44-0.47-0.73-0.6
			C628.55,265.38,628.22,265.32,627.85,265.32z"/>
		<path class="st1" d="M636.25,275.99c-0.05,0.12-0.12,0.22-0.2,0.29c-0.08,0.07-0.21,0.11-0.37,0.11h-1.19l1.66-3.62l-3.76-8.59
			h1.39c0.14,0,0.25,0.04,0.32,0.1c0.08,0.07,0.13,0.15,0.17,0.23l2.44,5.74c0.05,0.13,0.1,0.26,0.14,0.4
			c0.04,0.13,0.07,0.27,0.1,0.41c0.04-0.14,0.08-0.27,0.12-0.41c0.04-0.13,0.09-0.27,0.14-0.4l2.37-5.73
			c0.04-0.1,0.1-0.18,0.18-0.24c0.09-0.06,0.18-0.09,0.28-0.09h1.28L636.25,275.99z"/>
		<path class="st1" d="M649.87,264.04c0.55,0,1.05,0.09,1.51,0.27c0.46,0.18,0.86,0.45,1.2,0.79s0.6,0.77,0.79,1.28
			c0.19,0.51,0.28,1.08,0.28,1.73c0,0.25-0.03,0.42-0.08,0.5c-0.05,0.08-0.16,0.13-0.3,0.13h-6.07c0.01,0.58,0.09,1.08,0.23,1.5
			c0.14,0.43,0.34,0.78,0.59,1.07s0.55,0.5,0.9,0.64c0.35,0.14,0.74,0.21,1.17,0.21c0.4,0,0.75-0.05,1.04-0.14s0.54-0.19,0.75-0.3
			c0.21-0.11,0.38-0.21,0.53-0.3c0.14-0.09,0.26-0.14,0.37-0.14c0.13,0,0.23,0.05,0.3,0.15l0.45,0.58c-0.2,0.24-0.44,0.45-0.71,0.63
			c-0.28,0.18-0.57,0.32-0.89,0.44s-0.64,0.2-0.98,0.26c-0.34,0.06-0.67,0.09-1,0.09c-0.63,0-1.21-0.11-1.74-0.32
			s-0.99-0.53-1.38-0.94c-0.39-0.41-0.69-0.92-0.9-1.53c-0.22-0.61-0.32-1.3-0.32-2.09c0-0.64,0.1-1.23,0.29-1.78
			c0.19-0.55,0.47-1.03,0.84-1.44c0.37-0.4,0.81-0.72,1.34-0.95C648.62,264.15,649.21,264.04,649.87,264.04z M649.91,265.22
			c-0.78,0-1.38,0.22-1.83,0.67c-0.44,0.45-0.72,1.07-0.83,1.86h4.96c0-0.37-0.05-0.71-0.15-1.02c-0.1-0.31-0.25-0.58-0.45-0.8
			c-0.2-0.22-0.44-0.4-0.72-0.52S650.28,265.22,649.91,265.22z"/>
		<path class="st1" d="M655.28,267.22h4.45v1.36h-4.45V267.22z"/>
		<path class="st1" d="M668.16,265.8c-0.05,0.07-0.1,0.12-0.14,0.15c-0.05,0.04-0.12,0.05-0.21,0.05s-0.19-0.04-0.29-0.11
			s-0.24-0.16-0.4-0.25c-0.16-0.09-0.36-0.17-0.59-0.25c-0.23-0.08-0.51-0.11-0.85-0.11c-0.45,0-0.84,0.08-1.18,0.24
			s-0.63,0.39-0.86,0.69s-0.4,0.66-0.52,1.09s-0.18,0.9-0.18,1.43c0,0.55,0.06,1.04,0.19,1.47c0.12,0.43,0.3,0.79,0.53,1.08
			c0.23,0.29,0.5,0.51,0.83,0.67c0.33,0.15,0.69,0.23,1.1,0.23c0.39,0,0.71-0.05,0.96-0.14c0.25-0.09,0.46-0.2,0.63-0.31
			c0.17-0.11,0.31-0.22,0.41-0.31c0.11-0.09,0.22-0.14,0.32-0.14c0.14,0,0.24,0.05,0.31,0.15l0.45,0.58
			c-0.4,0.49-0.89,0.84-1.48,1.07c-0.6,0.23-1.22,0.34-1.88,0.34c-0.57,0-1.1-0.11-1.59-0.32c-0.49-0.21-0.91-0.51-1.27-0.91
			c-0.36-0.4-0.64-0.89-0.85-1.47s-0.31-1.25-0.31-1.99c0-0.68,0.09-1.3,0.28-1.88c0.19-0.58,0.46-1.07,0.83-1.49
			s0.81-0.74,1.35-0.98c0.53-0.23,1.14-0.35,1.84-0.35c0.63,0,1.2,0.1,1.69,0.31s0.93,0.5,1.3,0.88L668.16,265.8z"/>
		<path class="st1" d="M674.04,264.04c0.67,0,1.27,0.11,1.8,0.33c0.54,0.22,0.99,0.54,1.37,0.94c0.38,0.41,0.66,0.9,0.86,1.48
			c0.2,0.58,0.3,1.23,0.3,1.94c0,0.72-0.1,1.37-0.3,1.94c-0.2,0.58-0.49,1.07-0.86,1.48c-0.38,0.41-0.83,0.72-1.37,0.94
			c-0.54,0.22-1.14,0.33-1.8,0.33s-1.27-0.11-1.8-0.33c-0.54-0.22-0.99-0.53-1.37-0.94c-0.38-0.41-0.67-0.9-0.87-1.48
			c-0.2-0.58-0.3-1.22-0.3-1.94c0-0.71,0.1-1.36,0.3-1.94c0.21-0.58,0.5-1.07,0.87-1.48c0.38-0.41,0.84-0.72,1.37-0.94
			C672.77,264.15,673.37,264.04,674.04,264.04z M674.04,272.17c0.9,0,1.57-0.3,2.02-0.9c0.44-0.6,0.67-1.44,0.67-2.52
			c0-1.09-0.22-1.93-0.67-2.54c-0.44-0.61-1.12-0.91-2.02-0.91c-0.46,0-0.85,0.08-1.19,0.23c-0.34,0.16-0.62,0.38-0.84,0.67
			c-0.23,0.29-0.39,0.66-0.5,1.08c-0.11,0.43-0.17,0.91-0.17,1.45s0.06,1.02,0.17,1.45c0.11,0.43,0.28,0.79,0.5,1.08
			c0.22,0.29,0.5,0.51,0.84,0.67C673.19,272.1,673.58,272.17,674.04,272.17z"/>
		<path class="st1" d="M680.36,273.3v-9.12h0.95c0.23,0,0.37,0.11,0.43,0.33l0.12,0.94c0.34-0.41,0.71-0.75,1.13-1.02
			c0.42-0.26,0.9-0.4,1.46-0.4c0.62,0,1.12,0.17,1.5,0.51s0.65,0.8,0.82,1.39c0.13-0.33,0.29-0.61,0.5-0.85s0.44-0.44,0.7-0.59
			c0.26-0.16,0.53-0.27,0.82-0.34c0.29-0.07,0.59-0.11,0.89-0.11c0.48,0,0.91,0.08,1.28,0.23c0.38,0.15,0.69,0.38,0.96,0.67
			s0.46,0.66,0.6,1.08c0.14,0.43,0.21,0.92,0.21,1.47v5.8h-1.6v-5.8c0-0.71-0.16-1.26-0.47-1.62c-0.31-0.37-0.76-0.55-1.36-0.55
			c-0.27,0-0.52,0.05-0.75,0.14c-0.24,0.09-0.45,0.23-0.62,0.41c-0.18,0.18-0.32,0.41-0.43,0.68c-0.11,0.27-0.16,0.59-0.16,0.95v5.8
			h-1.6v-5.8c0-0.73-0.15-1.28-0.44-1.64c-0.29-0.36-0.72-0.54-1.29-0.54c-0.4,0-0.76,0.11-1.1,0.32c-0.34,0.21-0.65,0.5-0.93,0.87
			v6.79H680.36z"/>
		<path class="st1" d="M701.83,273.3h-0.71c-0.16,0-0.28-0.02-0.38-0.07c-0.1-0.05-0.16-0.15-0.19-0.31l-0.18-0.85
			c-0.24,0.22-0.47,0.41-0.7,0.58c-0.23,0.17-0.47,0.32-0.72,0.43c-0.25,0.12-0.52,0.21-0.81,0.27c-0.29,0.06-0.6,0.09-0.95,0.09
			c-0.35,0-0.69-0.05-0.99-0.15c-0.31-0.1-0.58-0.25-0.8-0.45c-0.23-0.2-0.41-0.45-0.54-0.75s-0.2-0.66-0.2-1.08
			c0-0.36,0.1-0.71,0.3-1.04c0.2-0.33,0.52-0.63,0.96-0.89s1.02-0.47,1.73-0.64c0.71-0.17,1.59-0.25,2.62-0.25v-0.72
			c0-0.71-0.15-1.25-0.46-1.62c-0.3-0.37-0.75-0.55-1.35-0.55c-0.39,0-0.72,0.05-0.98,0.15c-0.27,0.1-0.5,0.21-0.69,0.33
			c-0.2,0.12-0.36,0.23-0.5,0.33c-0.14,0.1-0.28,0.15-0.42,0.15c-0.11,0-0.2-0.03-0.28-0.09c-0.08-0.06-0.15-0.13-0.2-0.21
			l-0.29-0.51c0.5-0.49,1.05-0.85,1.63-1.09s1.23-0.36,1.94-0.36c0.51,0,0.96,0.08,1.36,0.25c0.39,0.17,0.73,0.4,1,0.7
			s0.47,0.66,0.61,1.09c0.14,0.43,0.21,0.89,0.21,1.4V273.3z M697.67,272.32c0.28,0,0.54-0.03,0.78-0.08s0.45-0.14,0.66-0.24
			c0.21-0.1,0.41-0.23,0.6-0.38c0.19-0.15,0.37-0.32,0.55-0.51v-1.88c-0.74,0-1.37,0.05-1.88,0.14s-0.94,0.22-1.26,0.37
			c-0.32,0.15-0.56,0.33-0.71,0.53s-0.22,0.43-0.22,0.69c0,0.24,0.04,0.45,0.12,0.62s0.18,0.32,0.31,0.43
			c0.13,0.11,0.29,0.19,0.47,0.25C697.27,272.29,697.46,272.32,697.67,272.32z"/>
		<path class="st1" d="M709.48,265.69c-0.07,0.13-0.18,0.2-0.33,0.2c-0.09,0-0.19-0.03-0.31-0.1c-0.11-0.07-0.25-0.14-0.42-0.22
			c-0.16-0.08-0.36-0.16-0.59-0.23c-0.23-0.07-0.5-0.1-0.81-0.1c-0.27,0-0.51,0.04-0.73,0.1c-0.21,0.07-0.4,0.16-0.55,0.28
			s-0.27,0.26-0.35,0.42c-0.08,0.16-0.12,0.33-0.12,0.52c0,0.23,0.07,0.43,0.2,0.58c0.13,0.16,0.31,0.29,0.54,0.41
			s0.47,0.21,0.76,0.3s0.57,0.18,0.87,0.28c0.3,0.1,0.59,0.21,0.87,0.33c0.28,0.12,0.54,0.27,0.76,0.45c0.22,0.18,0.4,0.4,0.54,0.66
			s0.2,0.57,0.2,0.94c0,0.42-0.07,0.81-0.22,1.17c-0.15,0.36-0.37,0.67-0.67,0.93c-0.29,0.26-0.65,0.47-1.08,0.62
			c-0.43,0.15-0.92,0.22-1.48,0.22c-0.63,0-1.21-0.1-1.73-0.31c-0.52-0.21-0.96-0.47-1.31-0.8l0.38-0.61
			c0.05-0.08,0.11-0.14,0.17-0.18s0.15-0.06,0.26-0.06c0.11,0,0.22,0.04,0.34,0.13c0.12,0.08,0.27,0.18,0.44,0.28
			c0.17,0.1,0.38,0.2,0.62,0.28c0.24,0.08,0.55,0.13,0.91,0.13c0.31,0,0.58-0.04,0.82-0.12s0.43-0.19,0.59-0.33s0.27-0.3,0.35-0.48
			c0.08-0.18,0.11-0.37,0.11-0.58c0-0.25-0.07-0.46-0.2-0.63s-0.31-0.31-0.54-0.42s-0.48-0.22-0.76-0.31
			c-0.29-0.09-0.58-0.18-0.87-0.27c-0.3-0.1-0.59-0.21-0.87-0.33c-0.29-0.12-0.54-0.28-0.76-0.46c-0.22-0.19-0.4-0.42-0.54-0.69
			c-0.13-0.27-0.2-0.6-0.2-1c0-0.35,0.07-0.68,0.22-1c0.14-0.32,0.35-0.6,0.63-0.85c0.28-0.24,0.61-0.44,1.02-0.58
			c0.4-0.14,0.86-0.22,1.38-0.22c0.6,0,1.14,0.09,1.62,0.28c0.48,0.19,0.89,0.45,1.24,0.78L709.48,265.69z"/>
	</g>
</g>
</svg>
