<?xml version="1.0" encoding="utf-8"?>
<!-- Generator: Adobe Illustrator 25.3.1, SVG Export Plug-In . SVG Version: 6.00 Build 0)  -->
<svg version="1.1" id="Calque_1" xmlns="http://www.w3.org/2000/svg" xmlns:xlink="http://www.w3.org/1999/xlink" x="0px" y="0px"
	 viewBox="0 0 995 516" style="enable-background:new 0 0 995 516;" xml:space="preserve">
<style type="text/css">
	.st0{fill:#64D7BE;}
	.st1{fill:#282828;}
	.st2{fill:none;}
	.st3{fill:#FFFFFF;}
	.st4{fill:#B1EBDF;}
	.st5{fill:#939393;}
	.st6{clip-path:url(#SVGID_4_);}
	.st7{clip-path:url(#SVGID_6_);}
	.st8{clip-path:url(#SVGID_8_);}
</style>
<g>
	<path class="st2" d="M791.21,102.91v413.04H611.39V180.1c-8.04,3.21-16.03,6.38-23.98,9.5v326.3H407.59V255.36
		c-8.08,2.74-16.07,5.42-23.98,8.05v252.43H203.8V318.62c-8.2,2.3-16.19,4.52-23.98,6.65V516h635.36V91.79
		C807.17,95.54,799.18,99.25,791.21,102.91z"/>
	<path class="st3" d="M0,368.83V516h179.82V325.27C67.99,355.9,0,368.83,0,368.83z"/>
	<path class="st4" d="M383.61,515.84V263.42c-66.85,22.24-127.49,40.5-179.82,55.2v197.22H383.61z"/>
	<path class="st0" d="M587.41,515.9V189.6c-63.19,24.81-123.53,46.66-179.82,65.76V515.9H587.41z"/>
	<path class="st5" d="M791.21,515.96V102.91c-61.59,28.31-121.82,53.99-179.82,77.19v335.86H791.21z"/>
	<path class="st1" d="M815.18,91.79V516H995V1.35C934.45,34.03,874.25,64.12,815.18,91.79z"/>
</g>
</svg>
