<?xml version="1.0" encoding="utf-8"?>
<!-- Generator: Adobe Illustrator 25.3.1, SVG Export Plug-In . SVG Version: 6.00 Build 0)  -->
<svg version="1.1" id="Calque_1" xmlns="http://www.w3.org/2000/svg" xmlns:xlink="http://www.w3.org/1999/xlink" x="0px" y="0px"
	 viewBox="0 0 50.58 53" style="enable-background:new 0 0 50.58 53;" xml:space="preserve">
<style type="text/css">
	.st0{clip-path:url(#SVGID_2_);fill:#0C195A;}
	.st1{clip-path:url(#SVGID_2_);}
	.st2{opacity:0.8;clip-path:url(#SVGID_4_);}
	.st3{clip-path:url(#SVGID_6_);}
	.st4{opacity:0.45;clip-path:url(#SVGID_10_);}
	.st5{clip-path:url(#SVGID_12_);fill:#1D1D1B;}
	.st6{fill:none;stroke:#64D7BE;stroke-width:2;stroke-linecap:round;stroke-linejoin:round;stroke-miterlimit:10;}
	.st7{clip-path:url(#SVGID_14_);}
	.st8{clip-path:url(#SVGID_16_);}
	.st9{opacity:0.45;clip-path:url(#SVGID_20_);}
	.st10{clip-path:url(#SVGID_22_);fill:#1D1D1B;}
	.st11{clip-path:url(#SVGID_24_);}
	.st12{clip-path:url(#SVGID_26_);}
	.st13{opacity:0.45;clip-path:url(#SVGID_30_);}
	.st14{clip-path:url(#SVGID_32_);fill:#1D1D1B;}
	.st15{clip-path:url(#SVGID_34_);}
	.st16{clip-path:url(#SVGID_36_);}
	.st17{opacity:0.45;clip-path:url(#SVGID_40_);}
	.st18{clip-path:url(#SVGID_42_);fill:#1D1D1B;}
	.st19{clip-path:url(#SVGID_44_);}
	.st20{clip-path:url(#SVGID_46_);}
	.st21{opacity:0.45;clip-path:url(#SVGID_50_);}
	.st22{clip-path:url(#SVGID_52_);fill:#1D1D1B;}
	.st23{clip-path:url(#SVGID_54_);}
	.st24{clip-path:url(#SVGID_56_);}
	.st25{opacity:0.45;clip-path:url(#SVGID_60_);}
	.st26{clip-path:url(#SVGID_62_);fill:#1D1D1B;}
	.st27{clip-path:url(#SVGID_64_);}
	.st28{clip-path:url(#SVGID_66_);}
	.st29{opacity:0.45;clip-path:url(#SVGID_70_);}
	.st30{clip-path:url(#SVGID_72_);fill:#1D1D1B;}
</style>
<g>
	<defs>
		<rect id="SVGID_1_" x="-123.67" y="-677.49" width="1600.13" height="596.92"/>
	</defs>
	<clipPath id="SVGID_2_">
		<use xlink:href="#SVGID_1_"  style="overflow:visible;"/>
	</clipPath>
	<g class="st1">
		<defs>
			<rect id="SVGID_3_" x="-123.67" y="-677.49" width="1600" height="596.92"/>
		</defs>
		<clipPath id="SVGID_4_">
			<use xlink:href="#SVGID_3_"  style="overflow:visible;"/>
		</clipPath>
		<g class="st2">
			<g>
				<defs>
					<rect id="SVGID_5_" x="-125.33" y="-829.15" width="1603.3" height="1203.31"/>
				</defs>
				<clipPath id="SVGID_6_">
					<use xlink:href="#SVGID_5_"  style="overflow:visible;"/>
				</clipPath>
			</g>
		</g>
	</g>
</g>
<g>
	<path class="st6" d="M18.86,26.66h7.41 M18.86,28.75h7.41 M29.16,31.48c-0.65,1.55-1.96,2.44-3.72,2.44c-2.56,0-4.2-1.86-4.61-4.75
		l0-0.05c-0.07-1.03-0.07-2.06,0.02-3.08v0c0.45-2.8,2.08-4.61,4.59-4.61c1.74,0,3.03,0.88,3.7,2.39 M14.04,17.43l-1.22-1.45
		l2.61-2.2l1.22,1.45 M36.55,17.43l1.22-1.45l-2.61-2.2l-1.22,1.45 M30.74,1h-10.9c-1.01,0-1.82,0.82-1.82,1.82v2.59
		c0,1.25,1.02,2.27,2.27,2.27H30.3c1.25,0,2.27-1.02,2.27-2.27V2.82C32.57,1.82,31.75,1,30.74,1z M22.26,12.68V7.72h6.07v4.96
		 M36.72,27.68c0,6.31-5.12,11.43-11.43,11.43c-6.31,0-11.43-5.12-11.43-11.43c0-6.31,5.12-11.43,11.43-11.43
		C31.6,16.26,36.72,21.37,36.72,27.68z M40.47,27.68c0,8.39-6.8,15.18-15.18,15.18c-8.39,0-15.18-6.8-15.18-15.18
		s6.8-15.18,15.18-15.18C33.68,12.5,40.47,19.3,40.47,27.68z M19.06,7.32c-1.39,0.46-2.88,1.12-4.1,1.81l-3.43-2.01l-6.84,6.84
		l2.04,3.43c-0.8,1.42-1.42,2.94-1.87,4.51L1,22.87v9.67l3.87,0.98c0.45,1.58,1.07,3.09,1.87,4.51l-2.04,3.43l6.84,6.84l3.43-2.04
		c1.42,0.79,2.94,1.42,4.51,1.87L20.46,52h9.67l0.98-3.87c1.57-0.45,3.09-1.07,4.51-1.87l3.43,2.04l6.84-6.84l-2.04-3.43
		c0.79-1.42,1.42-2.94,1.87-4.51l3.87-0.98v-9.67l-3.87-0.98c-0.45-1.58-1.07-3.09-1.87-4.51l2.04-3.43l-6.84-6.84l-3.43,2.01
		c-1.22-0.68-2.71-1.35-4.1-1.8"/>
</g>
</svg>
