<?xml version="1.0" encoding="UTF-8" standalone="no"?>
<!-- Created with Inkscape (http://www.inkscape.org/) -->

<svg
   version="1.1"
   id="svg1"
   width="1024"
   height="640"
   viewBox="0 0 1024 640"
   sodipodi:docname="line-EC-WIP.svg"
   inkscape:version="1.3 (0e150ed6c4, 2023-07-21)"
   xmlns:inkscape="http://www.inkscape.org/namespaces/inkscape"
   xmlns:sodipodi="http://sodipodi.sourceforge.net/DTD/sodipodi-0.dtd"
   xmlns:xlink="http://www.w3.org/1999/xlink"
   xmlns="http://www.w3.org/2000/svg"
   xmlns:svg="http://www.w3.org/2000/svg">
  <defs
     id="defs1">
    <linearGradient
       id="swatch124"
       inkscape:swatch="solid">
      <stop
         style="stop-color:#65d6bf;stop-opacity:1;"
         offset="0"
         id="stop124" />
    </linearGradient>
  </defs>
  <sodipodi:namedview
     id="namedview1"
     pagecolor="#ffffff"
     bordercolor="#000000"
     borderopacity="0.25"
     inkscape:showpageshadow="2"
     inkscape:pageopacity="0.0"
     inkscape:pagecheckerboard="0"
     inkscape:deskcolor="#d1d1d1"
     showgrid="false"
     inkscape:zoom="1"
     inkscape:cx="458.5"
     inkscape:cy="227.5"
     inkscape:window-width="2560"
     inkscape:window-height="1387"
     inkscape:window-x="1912"
     inkscape:window-y="-8"
     inkscape:window-maximized="1"
     inkscape:current-layer="svg1" />
  <g
     inkscape:groupmode="layer"
     inkscape:label="Image"
     id="g1"
     sodipodi:insensitive="true"
     style="display:none">
    <image
       width="1024"
       height="640"
       preserveAspectRatio="none"
       xlink:href="./line-EC-1024x640.png"
       id="image1"
       style="display:inline;opacity:1" />
  </g>
  <path
     style="display:inline;opacity:1;fill:#000000;fill-opacity:0;fill-rule:nonzero;stroke:#65d6bf;stroke-width:2;stroke-linecap:round;stroke-linejoin:round;stroke-miterlimit:7.4;stroke-dasharray:none;stroke-dashoffset:0;stroke-opacity:1"
     d="m 815.29412,99.878833 c 21.38998,-7.247845 30.58236,-8.485282 70.35712,-4.772971"
     id="path135" />
  <g
     inkscape:groupmode="layer"
     id="layer1"
     inkscape:label="svg"
     style="display:inline;opacity:1">
    <g
       id="g59"
       inkscape:label="earth"
       style="stroke-width:2;stroke-dasharray:none">
      <ellipse
         style="display:inline;fill:#000000;fill-opacity:0;stroke:#65d6bf;stroke-width:2;stroke-dasharray:none;stroke-opacity:1"
         id="ellipse26"
         cx="556.09106"
         cy="293.55252"
         rx="20.567736"
         ry="20.433393"
         inkscape:label="ellipse26" />
      <g
         id="g51"
         inkscape:label="pinpoint"
         style="stroke-width:2;stroke-dasharray:none">
        <ellipse
           style="display:inline;opacity:1;fill:#000000;fill-opacity:0;stroke:#65d6bf;stroke-width:2;stroke-dasharray:none;stroke-opacity:1"
           id="path17"
           cx="558.97937"
           cy="297.71921"
           rx="3.6066768"
           ry="3.5416274" />
        <g
           id="g52"
           inkscape:label="contour"
           style="stroke-width:2;stroke-dasharray:none">
          <path
             id="path41"
             style="opacity:1;fill:#000000;fill-opacity:0;fill-rule:nonzero;stroke:#65d6bf;stroke-width:2;stroke-dasharray:none;stroke-opacity:1"
             d="m 566.10547,297.80469 c -0.006,-3.91001 -3.17788,-7.0763 -7.08789,-7.07617 -3.90925,9.4e-4 -7.0796,3.16692 -7.08594,7.07617"
             sodipodi:nodetypes="ccc" />
          <path
             style="fill:#000000;fill-opacity:0;fill-rule:nonzero;stroke:#65d6bf;stroke-width:2;stroke-dasharray:none;stroke-opacity:1"
             d="m 551.93097,297.80097 c 0,6.89042 6.82661,11.81999 7.10328,11.82498"
             id="path42"
             sodipodi:nodetypes="cc" />
          <path
             style="fill:#000000;fill-opacity:0;fill-rule:nonzero;stroke:#65d6bf;stroke-width:2;stroke-dasharray:none;stroke-opacity:1"
             d="m 566.1072,297.80649 c 0,6.89042 -6.827,11.81999 -7.10367,11.82498"
             id="path43"
             sodipodi:nodetypes="cc" />
        </g>
      </g>
      <g
         id="g55"
         inkscape:label="pinpoint"
         transform="translate(-23.468815,-14.988199)"
         style="stroke-width:2;stroke-dasharray:none">
        <ellipse
           style="display:inline;opacity:1;fill:#000000;fill-opacity:0;stroke:#65d6bf;stroke-width:2;stroke-dasharray:none;stroke-opacity:1"
           id="ellipse52"
           cx="558.97937"
           cy="297.71921"
           rx="3.6066768"
           ry="3.5416274" />
        <g
           id="g54"
           inkscape:label="contour"
           style="stroke-width:2;stroke-dasharray:none">
          <path
             id="path52"
             style="opacity:1;fill:#000000;fill-opacity:0;fill-rule:nonzero;stroke:#65d6bf;stroke-width:2;stroke-dasharray:none;stroke-opacity:1"
             d="m 566.10547,297.80469 c -0.006,-3.91001 -3.17788,-7.0763 -7.08789,-7.07617 -3.90925,9.4e-4 -7.0796,3.16692 -7.08594,7.07617"
             sodipodi:nodetypes="ccc" />
          <path
             style="fill:#000000;fill-opacity:0;fill-rule:nonzero;stroke:#65d6bf;stroke-width:2;stroke-dasharray:none;stroke-opacity:1"
             d="m 551.93097,297.80097 c 0,6.89042 6.82661,11.81999 7.10328,11.82498"
             id="path53"
             sodipodi:nodetypes="cc" />
          <path
             style="fill:#000000;fill-opacity:0;fill-rule:nonzero;stroke:#65d6bf;stroke-width:2;stroke-dasharray:none;stroke-opacity:1"
             d="m 566.1072,297.80649 c 0,6.89042 -6.827,11.81999 -7.10367,11.82498"
             id="path54"
             sodipodi:nodetypes="cc" />
        </g>
      </g>
      <g
         id="g58"
         inkscape:label="pinpoint"
         transform="translate(5.2132038,-31.295849)"
         style="stroke-width:2;stroke-dasharray:none">
        <ellipse
           style="display:inline;opacity:1;fill:#000000;fill-opacity:0;stroke:#65d6bf;stroke-width:2;stroke-dasharray:none;stroke-opacity:1"
           id="ellipse55"
           cx="558.97937"
           cy="297.71921"
           rx="3.6066768"
           ry="3.5416274" />
        <g
           id="g57"
           inkscape:label="contour"
           style="stroke-width:2;stroke-dasharray:none">
          <path
             id="path55"
             style="opacity:1;fill:#000000;fill-opacity:0;fill-rule:nonzero;stroke:#65d6bf;stroke-width:2;stroke-dasharray:none;stroke-opacity:1"
             d="m 566.10547,297.80469 c -0.006,-3.91001 -3.17788,-7.0763 -7.08789,-7.07617 -3.90925,9.4e-4 -7.0796,3.16692 -7.08594,7.07617"
             sodipodi:nodetypes="ccc" />
          <path
             style="fill:#000000;fill-opacity:0;fill-rule:nonzero;stroke:#65d6bf;stroke-width:2;stroke-dasharray:none;stroke-opacity:1"
             d="m 551.93097,297.80097 c 0,6.89042 6.82661,11.81999 7.10328,11.82498"
             id="path56"
             sodipodi:nodetypes="cc" />
          <path
             style="fill:#000000;fill-opacity:0;fill-rule:nonzero;stroke:#65d6bf;stroke-width:2;stroke-dasharray:none;stroke-opacity:1"
             d="m 566.1072,297.80649 c 0,6.89042 -6.827,11.81999 -7.10367,11.82498"
             id="path57"
             sodipodi:nodetypes="cc" />
        </g>
      </g>
      <g
         id="g62"
         inkscape:label="coastlines"
         style="opacity:1;stroke-width:2;stroke-dasharray:none">
        <path
           style="fill:#000000;fill-opacity:0;fill-rule:nonzero;stroke:#65d6bf;stroke-width:2;stroke-dasharray:none;stroke-opacity:1"
           d="m 541.5625,288.6875 3.46875,0.25 2.40625,2.59375 -2.59375,5.28125 1.84375,0.625 -1.25,5.46875 -3.46875,4.78125"
           id="path59" />
        <path
           style="fill:#000000;fill-opacity:0;fill-rule:nonzero;stroke:#65d6bf;stroke-width:2;stroke-dasharray:none;stroke-opacity:1"
           d="m 549,312.28125 1.875,-7.53125 3.0625,-0.375"
           id="path60" />
        <path
           style="fill:#000000;fill-opacity:0;fill-rule:nonzero;stroke:#65d6bf;stroke-width:2;stroke-dasharray:none;stroke-opacity:1"
           d="M 544.21875,276.78125 547.3125,282 l 3.875,0.0937 -0.0312,3.71875 3.25,1.625 -0.15625,5.1875 3.78125,-2.21875 v -4.125 l 3.5625,-0.84375 3.03125,0.96875 3.65625,-3.5 5.125,0.125"
           id="path61" />
        <path
           style="fill:#000000;fill-opacity:0;fill-rule:nonzero;stroke:#65d6bf;stroke-width:2;stroke-dasharray:none;stroke-opacity:1"
           d="m 566.1875,296.40625 7.15625,1.5625 1.96875,2.9375"
           id="path62" />
      </g>
    </g>
    <g
       id="g88"
       inkscape:label="team"
       style="stroke-width:2;stroke-dasharray:none">
      <g
         id="g77"
         inkscape:label="mecG"
         style="stroke-width:2;stroke-dasharray:none">
        <path
           style="fill:#000000;fill-opacity:0;fill-rule:nonzero;stroke:#65d6bf;stroke-width:2;stroke-dasharray:none;stroke-opacity:1"
           d="m 138.25,425.75 v -5.8125"
           id="path63" />
        <path
           style="fill:#000000;fill-opacity:0;fill-rule:nonzero;stroke:#65d6bf;stroke-width:2;stroke-dasharray:none;stroke-opacity:1"
           d="m 143.85204,417.54655 2.82842,-2.38648 v -2.38649"
           id="path65" />
        <path
           style="fill:#000000;fill-opacity:0;fill-rule:nonzero;stroke:#65d6bf;stroke-width:2;stroke-dasharray:none;stroke-opacity:1"
           d="m 140.97941,414.8949 v -2.16551"
           id="path66" />
        <path
           style="fill:#000000;fill-opacity:0;fill-rule:nonzero;stroke:#65d6bf;stroke-width:2;stroke-dasharray:none;stroke-opacity:1"
           d="m 137.48807,405.17218 c 0,-3.90451 1.19325,-6.40815 2.69585,-6.40815 h 9.8553"
           id="path67"
           sodipodi:nodetypes="csc" />
        <path
           style="fill:#000000;fill-opacity:0;fill-rule:nonzero;stroke:#65d6bf;stroke-width:2;stroke-dasharray:none;stroke-opacity:1"
           d="m 138.41615,404.46508 c 0,7.73398 1.85616,8.13173 4.99394,7.99914 3.13779,-0.13258 5.12653,-0.66291 5.52428,-6.45235"
           id="path68" />
        <path
           style="fill:#000000;fill-opacity:0;fill-rule:nonzero;stroke:#65d6bf;stroke-width:2;stroke-dasharray:none;stroke-opacity:1"
           d="m 140.89103,402.91828 5.74524,1.14905"
           id="path69" />
        <path
           style="fill:#000000;fill-opacity:0;fill-rule:nonzero;stroke:#65d6bf;stroke-width:2;stroke-dasharray:none;stroke-opacity:1"
           d="m 146.68046,415.07168 3.75651,1.19324"
           id="path70" />
      </g>
      <g
         id="g78"
         inkscape:label="meufC"
         style="stroke-width:2;stroke-dasharray:none">
        <path
           style="fill:#000000;fill-opacity:0;fill-rule:nonzero;stroke:#65d6bf;stroke-width:2;stroke-dasharray:none;stroke-opacity:1"
           d="m 147.03402,425.72248 -0.0442,-6.23138 c 0.0442,-3.53554 11.18113,-5.74525 11.26952,-6.93849 0.0884,-1.19324 0,-3.93328 0,-3.93328"
           id="path71"
           sodipodi:nodetypes="cc" />
        <path
           style="fill:#000000;fill-opacity:0;fill-rule:nonzero;stroke:#65d6bf;stroke-width:2;stroke-dasharray:none;stroke-opacity:1"
           d="m 153.61895,425.98764 v -4.06586"
           id="path72" />
        <path
           style="fill:#000000;fill-opacity:0;fill-rule:nonzero;stroke:#65d6bf;stroke-width:2;stroke-dasharray:none;stroke-opacity:1"
           d="M 171.60598,425.94345 V 421.745"
           id="path73" />
        <path
           style="fill:#000000;fill-opacity:0;fill-rule:nonzero;stroke:#65d6bf;stroke-width:2;stroke-dasharray:none;stroke-opacity:1"
           d="m 177.96904,425.65619 -0.0221,-6.40816 c -0.0442,-3.53554 -10.82758,-5.50218 -10.91597,-6.69542 -0.0884,-1.19324 0,-3.93328 0,-3.93328"
           id="path74"
           sodipodi:nodetypes="ccsc" />
        <path
           style="fill:#000000;fill-opacity:0;fill-rule:nonzero;stroke:#65d6bf;stroke-width:2;stroke-dasharray:none;stroke-opacity:1"
           d="m 135.03125,425.625 v -7.71875 c 0,0 0.0625,-2.75 5.625,-2.75 0.8125,0 3.46875,2.46875 3.46875,2.46875 v 8.03125"
           id="path78"
           sodipodi:nodetypes="ccscc" />
        <path
           style="fill:#000000;fill-opacity:0;fill-rule:nonzero;stroke:#65d6bf;stroke-width:2;stroke-dasharray:none;stroke-opacity:1"
           d="m 149,411.1875 c 2.25,-2.46875 1.46875,-5.84375 1.46875,-12.46875 0,-8.21875 2.53125,-14.84375 11.71875,-14.84375 9.1875,0 12.04687,4.9375 12.04687,13.48437 0,8.54688 0.0564,12.25308 1.35938,14.29688 -1.6546,0.63852 -4.875,0.96875 -5.8125,2.65625 -0.95043,1.71078 -2.21875,5 -7.0625,4.8125 -4.84375,-0.1875 -6.27121,-3.79874 -7.8125,-5.0625 -1.60695,-1.31759 -4.94435,-2.63128 -5.90625,-2.875 z"
           id="path79"
           sodipodi:nodetypes="cssscsssc" />
        <path
           style="fill:#000000;fill-opacity:0;fill-rule:nonzero;stroke:#65d6bf;stroke-width:2;stroke-dasharray:none;stroke-opacity:1"
           d="m 158.8125,392.40625 c 8.28125,0.5625 12.34375,4.9375 12.34375,4.9375 0,0 0.22165,4.03019 -0.2188,5.84375 -0.97409,1.61081 -1.40625,6.09375 -8.46875,6.09375 -7.0625,0 -9,-5.375 -9,-10.28125 0.125,-0.75 4.25,-2.08926 4.25,-4.8125"
           id="path80"
           sodipodi:nodetypes="cccscc" />
      </g>
      <g
         id="g87"
         style="display:inline;opacity:1;stroke-width:2;stroke-dasharray:none"
         inkscape:label="meufD">
        <path
           style="fill:#000000;fill-opacity:0;fill-rule:nonzero;stroke:#65d6bf;stroke-width:2;stroke-dasharray:none;stroke-opacity:1"
           d="m 176.90625,417.3125 c 2.21875,-2.25 2.28125,-1.875 2.28125,-1.875 0,0 0.4375,2 3.15625,2 2.71875,0 2.96875,-1.75 2.96875,-1.75 0,0 4.75,0.84375 4.75,2.96875 0,2.125 0.0312,7.21875 0.0312,7.21875"
           id="path81"
           sodipodi:nodetypes="ccscsc" />
        <path
           style="fill:#000000;fill-opacity:0;fill-rule:nonzero;stroke:#65d6bf;stroke-width:2;stroke-dasharray:none;stroke-opacity:1"
           d="M 186.84375,420.96875 V 425.625"
           id="path82" />
        <path
           style="fill:#000000;fill-opacity:0;fill-rule:nonzero;stroke:#65d6bf;stroke-width:2;stroke-dasharray:none;stroke-opacity:1"
           d="m 179.375,411.89515 -0.0312,4.16735"
           id="path83"
           sodipodi:nodetypes="cc" />
        <path
           style="fill:#000000;fill-opacity:0;fill-rule:nonzero;stroke:#65d6bf;stroke-width:2;stroke-dasharray:none;stroke-opacity:1"
           d="m 184.9375,412.05584 v 4.50666"
           id="path84"
           sodipodi:nodetypes="cc" />
        <path
           style="fill:#000000;fill-opacity:0;fill-rule:nonzero;stroke:#65d6bf;stroke-width:2;stroke-dasharray:none;stroke-opacity:1"
           d="m 175.875,410.0625 c 1.0625,-3.25 -0.85571,-5.22436 0.1875,-7.03125 1.04321,-1.80689 1.625,-3.8125 6.25,-3.8125 4.625,0 6.125,2.4375 6.125,7.5625"
           id="path85" />
        <path
           style="fill:#000000;fill-opacity:0;fill-rule:nonzero;stroke:#65d6bf;stroke-width:2;stroke-dasharray:none;stroke-opacity:1"
           d="m 177.25,408.59375 c 0.39775,3.71209 3.64239,4.34911 5.04864,4.34911 1.40625,0 5.67233,-2.18279 5.67233,-5.33904 -5.85447,-4.45358 -7.15847,-3.91632 -7.15847,-3.91632 l -1.46875,2.40625"
           id="path86"
           sodipodi:nodetypes="csccc" />
        <path
           style="fill:#000000;fill-opacity:0;fill-rule:nonzero;stroke:#65d6bf;stroke-width:2;stroke-dasharray:none;stroke-opacity:1"
           d="m 178.84375,399.6875 c 0,-4.9375 2.8125,-4.71875 3.46875,-4.6875 0.65625,0.0312 3.40625,-0.0312 3.40625,4.8125"
           id="path87" />
      </g>
    </g>
    <g
       id="g132"
       inkscape:label="speechBubbles">
      <path
         id="rect89"
         style="fill:none;fill-opacity:0;stroke:#65d6bf;stroke-miterlimit:7.4;stroke-width:2;stroke-dasharray:none"
         d="m 796.90844,106.30619 10e-6,15.00478 c 0,2.76737 -2.22788,4.99524 -4.99524,4.99524 h -19.30118 c 0,0 -6.38205,7.0625 -8.33809,7.0625 0,-1.72618 0.20437,-5.21232 0.16191,-7.0625 -2.76736,0 -4.99524,-2.22787 -4.99524,-4.99524 v -17.94831 c 0,-2.76737 2.22788,-4.995244 4.99524,-4.995244 v 0 h 12.60689"
         sodipodi:nodetypes="csscccssscc" />
      <g
         id="g131"
         inkscape:label="bubbleCh"
         style="stroke-width:2;stroke-dasharray:none">
        <path
           id="rect90"
           style="fill-opacity:0;stroke:#65d6bf;stroke-linecap:round;stroke-miterlimit:7.4;stroke-width:2;stroke-dasharray:none"
           d="m 800.58366,78.367416 h 8.93184 c 2.76737,0 4.99524,2.227877 4.99524,4.99524 v 17.948314 c 0,2.76737 -2.79906,5.02649 -4.99524,4.99524 0.15625,2.3125 0.58379,5.35135 0.80254,7.15625 -2.23966,0 -9.07247,-7.15625 -9.07247,-7.15625 h -19.20742 c -2.76737,0 -4.99524,-2.22787 -4.99524,-4.99524 V 83.362656 c 0,-2.767363 2.22787,-4.99524 4.99524,-4.99524 h 8.74433"
           sodipodi:nodetypes="cssscccssssc" />
        <path
           style="fill:#000000;fill-opacity:0;fill-rule:nonzero;stroke:#65d6bf;stroke-width:2;stroke-linecap:round;stroke-linejoin:round;stroke-miterlimit:7.4;stroke-dasharray:none;stroke-opacity:1"
           d="m 795.11915,78.470547 h 0.91703 v 0"
           id="path91" />
      </g>
      <g
         id="g129"
         inkscape:label="A"
         style="stroke-width:2;stroke-dasharray:none">
        <path
           style="fill:#000000;fill-opacity:0;fill-rule:nonzero;stroke:#65d6bf;stroke-width:2;stroke-linecap:round;stroke-linejoin:round;stroke-miterlimit:7.4;stroke-dasharray:none;stroke-dashoffset:0;stroke-opacity:1"
           d="m 772.625,119.75 5.8125,-13.5 5.3125,13.375"
           id="path124" />
        <path
           style="fill:#000000;fill-opacity:0;fill-rule:nonzero;stroke:#65d6bf;stroke-width:2;stroke-linecap:round;stroke-linejoin:round;stroke-miterlimit:7.4;stroke-dasharray:none;stroke-dashoffset:0;stroke-opacity:1"
           d="m 774.4375,115.5625 h 7.625"
           id="path125" />
      </g>
      <g
         id="g130"
         inkscape:label="ch"
         style="stroke-width:2;stroke-dasharray:none">
        <path
           style="fill:#000000;fill-opacity:0;fill-rule:nonzero;stroke:#65d6bf;stroke-width:2;stroke-linecap:round;stroke-linejoin:round;stroke-miterlimit:7.4;stroke-dasharray:none;stroke-dashoffset:0;stroke-opacity:1"
           d="m 788.33567,100.80691 c 6.0546,0 10.29724,-8.087533 10.29724,-11.490485"
           id="path126" />
        <path
           style="fill:#000000;fill-opacity:0;fill-rule:nonzero;stroke:#65d6bf;stroke-width:2;stroke-linecap:round;stroke-linejoin:round;stroke-miterlimit:7.4;stroke-dasharray:none;stroke-dashoffset:0;stroke-opacity:1"
           d="m 802.8866,100.80691 c -6.0546,0 -10.29724,-8.087533 -10.29724,-11.490485"
           id="path127" />
        <path
           style="fill:#000000;fill-opacity:0;fill-rule:nonzero;stroke:#65d6bf;stroke-width:2;stroke-linecap:round;stroke-linejoin:round;stroke-miterlimit:7.4;stroke-dasharray:none;stroke-dashoffset:0;stroke-opacity:1"
           d="m 787.3634,88.476736 h 16.44023"
           id="path128" />
        <path
           style="fill:#000000;fill-opacity:0;fill-rule:nonzero;stroke:#65d6bf;stroke-width:2;stroke-linecap:round;stroke-linejoin:round;stroke-miterlimit:7.4;stroke-dasharray:none;stroke-dashoffset:0;stroke-opacity:1"
           d="m 795.62771,83.4386 0,4.817165"
           id="path129"
           sodipodi:nodetypes="cc" />
      </g>
    </g>
    <path
       style="display:inline;opacity:1;fill:#000000;fill-opacity:0;fill-rule:nonzero;stroke:#65d6bf;stroke-width:2;stroke-linecap:round;stroke-linejoin:round;stroke-miterlimit:7.4;stroke-dasharray:none;stroke-dashoffset:0;stroke-opacity:1"
       d="m 193.21693,423.55696 c 50.20458,0.88389 68.58935,-22.98097 100.76271,-55.86143 32.17336,-32.88047 48.76004,-50.97235 97.55041,-66.5287 48.79037,-15.55635 135.97161,1.12132 135.97161,1.12132"
       id="path133"
       sodipodi:nodetypes="cssc" />
    <path
       style="display:inline;opacity:1;fill:#000000;fill-opacity:0;fill-rule:nonzero;stroke:#65d6bf;stroke-width:2;stroke-linecap:round;stroke-linejoin:round;stroke-miterlimit:7.4;stroke-dasharray:none;stroke-dashoffset:0;stroke-opacity:1"
       d="m 33.625,350.625 c 39.561961,27.60616 70.95343,43.48744 102.20343,57.61244"
       id="path132"
       sodipodi:nodetypes="cc" />
    <path
       style="display:inline;opacity:1;fill:#000000;fill-opacity:0;fill-rule:nonzero;stroke:#65d6bf;stroke-width:2;stroke-linecap:round;stroke-linejoin:round;stroke-miterlimit:7.4;stroke-dasharray:none;stroke-dashoffset:0;stroke-opacity:1"
       d="m 585.30764,301.40426 c 60.10407,-18.9151 72.65521,-50.38135 107.657,-94.22197 35.00179,-43.84062 57.27565,-69.29647 71.24101,-80.07985"
       id="path134"
       sodipodi:nodetypes="csc" />
  </g>
</svg>
