<?xml version="1.0" encoding="UTF-8"?>
<svg width="99px" height="79px" viewBox="0 0 99 79" version="1.1" xmlns="http://www.w3.org/2000/svg" xmlns:xlink="http://www.w3.org/1999/xlink">
    <title>Group 22</title>
    <defs>
        <polygon id="path-1" points="0 79 99 79 99 0 0 0"></polygon>
    </defs>
    <g id="Page-1" stroke="none" stroke-width="1" fill="none" fill-rule="evenodd">
        <g id="Home-Page-NEW" transform="translate(-1400.000000, -6015.000000)">
            <g id="Group-22" transform="translate(1400.000000, 6015.000000)">
                <polygon id="Fill-1" fill="#1A171B" points="20.7893905 55 23.9942548 62.6450377 27.2106095 55 29 64.6255098 27.9943506 64.6255098 26.8596735 58.4663206 26.8364533 58.4663206 23.9942548 65 21.1635467 58.4663206 21.1403265 58.4663206 20.0058888 64.6255098 19 64.6255098"></polygon>
                <path d="M36.029077,57.2328618 L34.5268426,60.6735582 L37.496276,60.6735582 L36.029077,57.2328618 Z M34.1309659,61.5619462 L33.0713222,64 L32,64 L36.052434,55 L40,64 L38.9169993,64 L37.8804743,61.5619462 L34.1309659,61.5619462 Z" id="Fill-2" fill="#1A171B"></path>
                <g id="Group-21">
                    <path d="M44.3546986,63.3630733 C45.4482892,63.3630733 46.363548,63.2091027 47.1836801,62.44046 C47.9206069,61.7543708 48.3011132,60.8198951 48.3011132,59.8263488 C48.3011132,58.8090775 47.9086857,57.8273938 47.1362385,57.1531671 C46.315863,56.4314904 45.4127688,56.2896244 44.3546986,56.2896244 L43.629693,56.2896244 L43.629693,63.3630733 L44.3546986,63.3630733 Z M42.6309856,55.3670111 L44.3191782,55.3670111 C45.6621415,55.3670111 46.7557322,55.5444647 47.8138024,56.4433529 C48.836109,57.3187582 49.2995773,58.513483 49.2995773,59.8379692 C49.2995773,61.1392146 48.8241877,62.2867315 47.8374016,63.1618947 C46.7676534,64.108233 45.697662,64.2856865 44.2953357,64.2856865 L42.6309856,64.2856865 L42.6309856,55.3670111 Z" id="Fill-3" fill="#1A171B"></path>
                    <polygon id="Fill-5" fill="#1A171B" points="52.5348539 55.3669385 57.182675 55.3669385 57.182675 56.2895517 53.533318 56.2895517 53.533318 58.9392505 57.0756272 58.9392505 57.0756272 59.8616216 53.533318 59.8616216 53.533318 63.3630007 57.182675 63.3630007 57.182675 64.2856139 52.5348539 64.2856139"></polygon>
                    <mask id="mask-2" fill="white">
                        <use xlink:href="#path-1"></use>
                    </mask>
                    <g id="Clip-8"></g>
                    <polygon id="Fill-7" fill="#1A171B" mask="url(#mask-2)" points="66.1020198 64.2377039 67.1004839 64.2377039 67.1004839 55.3190284 66.1020198 55.3190284"></polygon>
                    <polygon id="Fill-9" fill="#1A171B" mask="url(#mask-2)" points="70.7778436 54.9406626 77.7673354 62.2271526 77.7673354 55.3192947 78.7657995 55.3192947 78.7657995 64.6398432 71.7763077 57.3656998 71.7763077 64.2377281 70.7778436 64.2377281"></polygon>
                    <polygon id="Fill-10" fill="#1A171B" mask="url(#mask-2)" points="4.24264513 77.7108108 6.71520615 77.7108108 6.71520615 78.633424 3.24418106 78.633424 3.24418106 69.7147486 4.24264513 69.7147486"></polygon>
                    <path d="M10.4657963,75.0255729 C10.4657963,75.6879371 10.4419538,76.4449593 10.8579805,77.0129075 C11.2504081,77.5568886 12.0111774,77.8645877 12.6648988,77.8645877 C13.3066991,77.8645877 14.0081055,77.5687511 14.4241322,77.071978 C14.8997651,76.5040298 14.8640014,75.7235246 14.8640014,75.0255729 L14.8640014,69.714797 L15.8624654,69.714797 L15.8624654,75.2976845 C15.8624654,76.2677478 15.7911813,77.0366325 15.0778537,77.7699297 C14.4596526,78.4320518 13.5682363,78.7869589 12.6648988,78.7869589 C11.8209242,78.7869589 10.9531071,78.4678814 10.3470706,77.8762082 C9.56245881,77.1310485 9.46733223,76.3149558 9.46733223,75.2976845 L9.46733223,69.714797 L10.4657963,69.714797 L10.4657963,75.0255729 Z" id="Fill-11" fill="#1A171B" mask="url(#mask-2)"></path>
                    <polygon id="Fill-12" fill="#1A171B" mask="url(#mask-2)" points="18.8999469 69.714676 20.0409792 69.714676 21.87174 73.0739469 23.7022574 69.714676 24.843533 69.714676 22.4184136 74.0202852 25.0690633 78.6333514 23.928031 78.6333514 21.87174 74.9663814 19.8152057 78.6333514 18.6739301 78.6333514 21.324823 74.0202852"></polygon>
                    <polygon id="Fill-13" fill="#1A171B" mask="url(#mask-2)" points="27.9166566 69.714676 32.5647209 69.714676 32.5647209 70.6375313 28.9153639 70.6375313 28.9153639 73.286988 32.4574298 73.286988 32.4574298 74.2093592 28.9153639 74.2093592 28.9153639 77.7107382 32.5647209 77.7107382 32.5647209 78.6333514 27.9166566 78.6333514"></polygon>
                    <polygon id="Fill-14" fill="#1A171B" mask="url(#mask-2)" points="37.4617687 69.2061372 40.7189415 76.6935637 43.9877922 69.2061372 45.8063885 78.6334483 44.7843252 78.6334483 43.6311284 72.6009956 43.6075292 72.6009956 40.7189415 78.9999758 37.842275 72.6009956 37.8184326 72.6009956 36.665479 78.6334483 35.6431725 78.6334483"></polygon>
                    <path d="M49.7358214,77.7108108 L50.7342855,77.7108108 C51.8517186,77.7108108 53.0285146,77.4386992 53.0285146,76.0783833 C53.0285146,74.6945845 51.6969859,74.4934059 50.6033953,74.4934059 L49.7358214,74.4934059 L49.7358214,77.7108108 Z M49.7358214,73.6417257 L50.1160844,73.6417257 C51.2454388,73.6417257 52.2081392,73.5114801 52.2081392,72.1276812 C52.2081392,70.7792279 51.3524866,70.6373619 50.1280057,70.6373619 L49.7358214,70.6373619 L49.7358214,73.6417257 Z M48.7371141,69.7147486 L50.211211,69.7147486 C51.8397974,69.7147486 53.2068465,70.3061798 53.2068465,72.1276812 C53.2068465,72.849358 52.9333881,73.4642721 52.3271082,73.8663872 C53.3970997,74.1266363 54.0269787,75.0848371 54.0269787,76.1493163 C54.0269787,77.9236098 52.5888888,78.633424 50.8174909,78.633424 L48.7371141,78.633424 L48.7371141,69.7147486 Z" id="Fill-15" fill="#1A171B" mask="url(#mask-2)"></path>
                    <path d="M57.8254728,74.1739895 C57.8254728,76.1850491 59.4657371,77.8644425 61.4984289,77.8644425 C63.5311208,77.8644425 65.1713851,76.1850491 65.1713851,74.1739895 C65.1713851,72.1513094 63.5549632,70.4835365 61.4984289,70.4835365 C59.4421379,70.4835365 57.8254728,72.1513094 57.8254728,74.1739895 M66.1700925,74.185852 C66.1700925,76.7525132 64.0541953,78.7870557 61.4984289,78.7870557 C58.9429059,78.7870557 56.8270087,76.7525132 56.8270087,74.185852 C56.8270087,71.6310534 58.9429059,69.5609233 61.4984289,69.5609233 C64.0541953,69.5609233 66.1700925,71.6310534 66.1700925,74.185852" id="Fill-16" fill="#1A171B" mask="url(#mask-2)"></path>
                    <path d="M70.289584,75.0255729 C70.289584,75.6879371 70.2657415,76.4449593 70.6817682,77.0129075 C71.0741957,77.5568886 71.834965,77.8645877 72.4886865,77.8645877 C73.1304868,77.8645877 73.8318932,77.5687511 74.2479199,77.071978 C74.7235527,76.5040298 74.687789,75.7235246 74.687789,75.0255729 L74.687789,69.714797 L75.6862531,69.714797 L75.6862531,75.2976845 C75.6862531,76.2677478 75.614969,77.0366325 74.9016414,77.7699297 C74.2834403,78.4320518 73.392024,78.7869589 72.4886865,78.7869589 C71.6447119,78.7869589 70.7768948,78.4678814 70.1708582,77.8762082 C69.3862465,77.1310485 69.2911199,76.3149558 69.2911199,75.2976845 L69.2911199,69.714797 L70.289584,69.714797 L70.289584,75.0255729 Z" id="Fill-17" fill="#1A171B" mask="url(#mask-2)"></path>
                    <path d="M80.2454921,73.8427832 L80.5547143,73.8427832 C81.6838254,73.8427832 82.8251009,73.6299842 82.8251009,72.2459433 C82.8251009,70.7793489 81.7431882,70.6374829 80.5427931,70.6374829 L80.2454921,70.6374829 L80.2454921,73.8427832 Z M80.2454921,78.633303 L79.247028,78.633303 L79.247028,69.7146276 L80.5427931,69.7146276 C82.2424203,69.7146276 83.8233217,70.1644348 83.8233217,72.1750103 C83.8233217,73.5471887 82.9557479,74.5170099 81.5770208,74.6351509 L84.4296016,78.633303 L83.2053639,78.633303 L80.4951081,74.7181885 L80.2454921,74.7181885 L80.2454921,78.633303 Z" id="Fill-18" fill="#1A171B" mask="url(#mask-2)"></path>
                    <path d="M95.8115811,74.1503613 C95.8354236,75.3567066 95.7045333,76.3504949 94.8844011,77.2965911 C94.064269,78.2429294 92.8159456,78.7869105 91.5681088,78.7869105 C89.0481061,78.7869105 86.9560514,76.705402 86.9560514,74.1975693 C86.9560514,71.6430127 89.0481061,69.5610201 91.6274717,69.5610201 C93.1964519,69.5610201 94.4683745,70.2589718 95.4193969,71.4890421 L94.694148,72.1632688 C93.9452999,71.11041 92.9351579,70.4836333 91.6155504,70.4836333 C89.5711806,70.4836333 87.9545155,72.1986143 87.9545155,74.2094318 C87.9545155,75.1557701 88.3347785,76.0546583 89.0004212,76.728885 C89.6541427,77.3796287 90.6054084,77.8645393 91.5442663,77.8645393 C93.1013253,77.8645393 94.7415896,76.728885 94.7415896,75.0729745 L92.0790188,75.0729745 L92.0790188,74.1503613 L95.8115811,74.1503613 Z" id="Fill-19" fill="#1A171B" mask="url(#mask-2)"></path>
                    <path d="M49.4537991,1.73880278 C52.036814,1.74485508 54.1405467,3.83919442 54.1444393,6.40633975 C54.1405467,8.9761481 52.0358409,11.0704874 49.4555022,11.0753293 C46.8724873,11.0704874 44.7670516,8.9761481 44.7621858,6.40876067 C44.7670516,3.83919442 46.8715141,1.74485508 49.4537991,1.73880278 M49.4537991,12.8145194 C53.0041369,12.8140352 55.8922381,9.93991701 55.8922381,6.40730812 C55.8922381,2.87421504 53.0041369,9.68368668e-05 49.4537991,9.68368668e-05 C45.9032181,9.68368668e-05 43.0148736,2.87421504 43.0148736,6.40730812 C43.0148736,9.93991701 45.9032181,12.8140352 49.4537991,12.8145194 M76.4933454,32.0351849 C76.4938315,33.9414186 76.1712283,35.8575781 75.5605693,37.5761904 C74.5801087,40.3307151 72.5525259,42.4403062 71.0239319,43.7250893 C70.1480862,44.4610495 69.3403619,45.0103566 68.8172874,45.3412966 C68.7579245,45.3788209 68.700508,45.4146506 68.6457676,45.4483014 C67.19454,42.7269433 66.4598028,39.9448201 66.4598028,37.1677809 C66.4598028,33.0342993 68.1085823,29.1339524 71.1030013,26.1835751 C72.0562134,25.2440154 73.1176897,24.4320383 74.2645609,23.7650744 C75.7238172,26.1767965 76.4916419,29.0206532 76.4933454,32.0351849 M54.0882446,33.0311521 C54.0887258,33.6688228 54.0561249,34.3205349 53.9918962,34.9671631 C53.7079762,37.7693799 52.3693921,40.1689975 51.2967244,41.6888521 C50.6619796,42.5882245 50.0437785,43.2927127 49.6109648,43.7485723 C49.5820132,43.7178266 49.5520885,43.6858704 49.5211906,43.653188 C48.3711566,42.4233597 45.6504393,39.114444 45.2317364,34.9671631 C45.1665345,34.3241663 45.1339336,33.6726963 45.1344148,33.0306679 C45.1339336,28.323912 46.7571676,23.9853782 49.6114514,21.0018344 C52.4654918,23.9853782 54.0887258,28.323912 54.0882446,33.0311521 M28.1201447,26.1840593 C31.1140772,29.1339524 32.7631,33.0342993 32.7631,37.1677809 C32.7631,39.9453043 32.0281195,42.7269433 30.5773784,45.4487856 C29.9983471,45.0914575 29.1385586,44.5143098 28.1997007,43.7250893 C26.6711067,42.439822 24.6427941,40.3302309 23.6630633,37.5761904 C23.052161,35.8602411 22.7293145,33.9445658 22.7293145,32.0356691 C22.7315041,29.0206532 23.4993289,26.1772807 24.9578552,23.7650744 C26.1059429,24.4332488 27.1674192,25.2452259 28.1201447,26.1840593 M98.9999244,37.4432818 C99.0062282,32.7462096 97.6369895,24.3565055 86.9066635,20.7824989 C85.2437731,20.2278657 83.5215199,19.9460704 81.7875887,19.9460704 C79.4281578,19.9467967 77.0407484,20.4786732 74.8440788,21.489408 C72.6520317,18.5760709 69.5727043,16.504004 65.6880854,15.327194 C65.4696106,15.258924 63.4760885,14.6575671 60.692359,14.6565987 C57.7285945,14.6565987 53.4576304,15.3545504 49.613641,18.5971329 C45.8538301,15.3201733 41.6159535,14.6154428 38.6648401,14.6154428 C35.7893901,14.6154428 33.7457502,15.258924 33.5372502,15.327194 C29.6482521,16.5047303 26.5703844,18.5760709 24.3785806,21.4898922 C22.181911,20.4796416 19.7949882,19.9472809 17.4348274,19.9467967 C15.7011395,19.9467967 13.9793729,20.2278657 12.3174557,20.7824989 C1.58615653,24.3555372 -0.00617957785,32.7701767 0.00012726065,37.4667647 C0.00012726065,40.5101054 0.620779955,42.7359007 0.694740257,42.9896133 L5.74958628,62.8324557 L5.93521691,63.5643003 L6.66995412,63.3798261 L6.90594587,63.3207556 L7.6426294,63.1360392 L7.45675549,62.4039525 L2.39436746,42.5344801 L2.38974494,42.515839 L2.38512242,42.5008292 C2.38390597,42.4962295 2.23306588,41.9858992 2.07784656,41.1034733 C1.93260215,40.2798757 1.76010921,38.980567 1.76010921,37.4677331 C1.76692134,32.3051176 3.70083726,25.5076538 12.8765372,22.4432511 C14.3557433,21.9493831 15.8896896,21.6990598 17.4348274,21.6990598 C19.4500023,21.6985756 21.4916959,22.1348257 23.3879018,22.9664123 C21.8009181,25.634268 20.9669184,28.7504784 20.9683781,32.0351849 C20.9688647,34.1423551 21.326745,36.2601774 22.0038224,38.1610851 C24.0460025,43.8829334 29.8358291,47.0761291 30.5097437,47.4322467 L30.6124122,47.4847807 L31.2508064,47.8106367 L31.6135525,47.1945122 L31.6726721,47.0938018 C33.5644988,43.8587242 34.5240364,40.5188207 34.5240364,37.1677809 C34.5225766,31.0605218 31.2622411,25.4471307 25.957779,22.3173632 C27.9099417,19.8269611 30.6304157,18.0400788 34.0732191,16.9959353 C34.0778416,16.9944828 34.5405801,16.8412384 35.330301,16.6870257 C36.079149,16.5410441 37.26519,16.367464 38.6648401,16.367464 C41.2741304,16.3679482 45.0047464,16.9804414 48.3261478,19.8054149 C45.1692107,23.1133623 43.3734838,27.8830621 43.3734838,33.0306679 C43.3734838,33.7358823 43.4094908,34.4459387 43.4802883,35.142922 C44.0466685,40.6960321 48.0828574,44.7530127 48.9195333,45.5402964 L49.0511534,45.6763522 L49.5601171,46.2036289 L50.1058176,45.7148448 L50.2097026,45.6274496 C50.7130706,45.1677165 55.1482558,40.96887 55.7433443,35.1421957 C55.8131686,34.4476333 55.8486891,33.7373349 55.8486891,33.0306679 C55.8482025,27.8854831 54.0544219,23.117962 50.9011341,19.8100146 C54.3035513,17.0165131 58.068228,16.4095881 60.692359,16.4091039 C62.989021,16.4091039 64.6830525,16.8577007 65.1472507,16.9947248 C65.1560092,16.9973879 65.1659841,17.0005351 65.1766888,17.0036823 C68.5973528,18.0427418 71.3144207,19.8286557 73.2648804,22.3173632 C67.9604184,25.4471307 64.7000828,31.0600376 64.6983798,37.1677809 C64.6983798,40.519789 65.6579174,43.8592084 67.5519337,47.0950123 L67.6103234,47.1945122 L67.9728262,47.8106367 L68.6109771,47.4847807 L68.7345686,47.4215946 C69.3880468,47.0761291 75.1776301,43.8829334 77.2198102,38.1601167 C77.896401,36.2579985 78.2542813,34.1401763 78.2542813,32.0356691 C78.255741,28.7499942 77.4217413,25.6335417 75.8347576,22.9664123 C77.7302336,22.1348257 79.7709541,21.6985756 81.7875887,21.6985756 C83.3329698,21.6985756 84.8669162,21.9488989 86.3470954,22.4432511 C95.5218222,25.5076538 97.2326407,32.2811505 97.2394529,37.4423134 C97.2394529,40.0026802 96.7630901,41.9357861 96.6168726,42.4671784 C96.6139531,42.4790409 96.6093306,42.495019 96.6051946,42.5146285 L91.4715225,62.0565503 L91.2866217,62.7857319 L92.018926,62.9721429 L92.2549178,63.0324238 L92.9923312,63.2205294 L93.1784484,62.4857797 L98.3126071,42.938774 L98.2846287,43.0247167 C98.3357197,42.8610624 98.9999244,40.614205 98.9999244,37.4432818" id="Fill-20" fill="#1A171B" mask="url(#mask-2)"></path>
                </g>
            </g>
        </g>
    </g>
</svg>