<svg
  viewBox="0 0 359 140"
  version="1.1"
  xmlns="http://www.w3.org/2000/svg"
  xmlns:xlink="http://www.w3.org/1999/xlink"
>
  <g>
    <path
      d="M333.771,33.27305 L356.786,33.27305 L356.786,100.51205 C356.786,105.09405 353.07,108.80805 348.488,108.80805 L333.771,108.80805 L333.771,33.27305 Z M316.8139,33.27305 L316.8139,55.94405 C304.3239,51.82705 291.7519,57.90205 291.7519,74.13505 L291.7519,100.50205 C291.7519,105.08905 288.0329,108.80805 283.4439,108.80805 L268.7379,108.80805 L268.7379,33.27305 L291.7519,33.27305 L291.7519,42.16505 C297.3369,30.80405 309.8399,29.03305 316.8139,33.27305 Z M164.02,33.27305 L164.02,75.74805 C164.02,95.58505 148.31,110.89505 128.739,110.89505 C109.167,110.89505 93.457,95.58505 93.457,75.74805 L93.457,33.27305 L116.37,33.27305 L116.409,77.67705 C116.409,84.48705 121.929,90.00705 128.739,90.00705 C135.548,90.00705 141.069,84.48705 141.069,77.67705 L141.027,33.27305 L164.02,33.27305 Z M356.3129,19.34925 L351.1559,24.50625 C347.9109,27.75225 342.6459,27.75225 339.3989,24.50625 L334.2419,19.34925 C330.9969,16.10225 330.9969,10.83825 334.2419,7.59225 L339.3989,2.43525 C342.6459,-0.81175 347.9109,-0.81175 351.1559,2.43525 L356.3129,7.59225 C359.5599,10.83825 359.5599,16.10225 356.3129,19.34925 Z M216.3598,90.00845 C226.6318,90.00845 234.9618,81.63945 234.9618,71.31545 C234.9618,60.99045 226.6318,52.62145 216.3598,52.62145 C206.0888,52.62145 197.7598,60.99045 197.7598,71.31545 C197.7598,81.63945 206.0888,90.00845 216.3598,90.00845 Z M216.3598,31.18545 C238.4408,31.18545 256.1678,48.54545 256.1678,71.04045 C256.1678,93.53345 238.4408,110.89545 216.3598,110.89545 C194.2788,110.89545 176.5538,93.53345 176.5538,71.04045 C176.5538,48.54545 194.2788,31.18545 216.3598,31.18545 Z M42.687,89.94105 C51.715,89.22505 59.03,81.87505 59.742,72.80105 C60.648,61.26705 51.142,51.71305 39.666,52.62305 C30.637,53.33805 23.323,60.69005 22.611,69.76305 C21.707,81.29605 31.211,90.84905 42.687,89.94105 Z M44.974,31.07705 C64.678,31.07705 80.923,48.46105 80.923,70.98605 C80.923,93.50905 64.678,110.89505 44.974,110.89505 C34.897,110.89505 27.527,107.41805 22.563,101.67305 L22.563,130.84905 C22.563,135.35705 18.926,139.01205 14.441,139.01205 L0,139.01205 L0,33.28505 L22.563,33.28505 L22.563,40.29705 C27.527,34.55305 34.897,31.07705 44.974,31.07705 Z"
    ></path>
  </g>
</svg>
