<?xml version="1.0" encoding="UTF-8" standalone="no"?>
<!-- Generator: Adobe Illustrator 25.0.1, SVG Export Plug-In . SVG Version: 6.00 Build 0)  -->

<svg
   version="1.0"
   id="katman_1"
   x="0px"
   y="0px"
   viewBox="0 0 585.59998 139.5"
   xml:space="preserve"
   sodipodi:docname="Amazon ADS.svg"
   width="585.59998"
   height="139.5"
   inkscape:version="1.3 (0e150ed6c4, 2023-07-21)"
   xmlns:inkscape="http://www.inkscape.org/namespaces/inkscape"
   xmlns:sodipodi="http://sodipodi.sourceforge.net/DTD/sodipodi-0.dtd"
   xmlns="http://www.w3.org/2000/svg"
   xmlns:svg="http://www.w3.org/2000/svg"><defs
   id="defs2" /><sodipodi:namedview
   id="namedview2"
   pagecolor="#ffffff"
   bordercolor="#000000"
   borderopacity="0.25"
   inkscape:showpageshadow="2"
   inkscape:pageopacity="0.0"
   inkscape:pagecheckerboard="0"
   inkscape:deskcolor="#d1d1d1"
   inkscape:zoom="1.18875"
   inkscape:cx="291.48265"
   inkscape:cy="66.035752"
   inkscape:window-width="1920"
   inkscape:window-height="1009"
   inkscape:window-x="1912"
   inkscape:window-y="557"
   inkscape:window-maximized="1"
   inkscape:current-layer="katman_1" />&#10;<style
   type="text/css"
   id="style1">&#10;	.st0{filter:url(#Adobe_OpacityMaskFilter);}&#10;	.st1{fill-rule:evenodd;clip-rule:evenodd;fill:#FFFFFF;}&#10;	.st2{mask:url(#mask-4_1_);fill-rule:evenodd;clip-rule:evenodd;fill:#222E3E;}&#10;	.st3{fill-rule:evenodd;clip-rule:evenodd;fill:#222E3E;}&#10;</style>&#10;<desc
   id="desc1">Created with Sketch.</desc>&#10;<g
   id="页面-1"
   transform="translate(-108.1,-234.2)">&#10;	<g
   id="_x34_kmiles-ERP_x2F_English_xFF08_banner1_xFF09_"
   transform="translate(-1050,-5983)">&#10;		<g
   id="编组-53"
   transform="translate(550,5983)">&#10;			<g
   id="spn">&#10;				<g
   id="编组-102"
   transform="translate(500)">&#10;					<g
   id="编组"
   transform="translate(86,35)">&#10;						<g
   transform="translate(14,25)"
   id="g2">&#10;							<g
   id="Clip-2">&#10;							</g>&#10;							<defs
   id="defs1">&#10;								<filter
   id="Adobe_OpacityMaskFilter"
   filterUnits="userSpaceOnUse"
   x="63.799999"
   y="272.79999"
   width="187.5"
   height="41">&#10;									<feColorMatrix
   type="matrix"
   values="1 0 0 0 0  0 1 0 0 0  0 0 1 0 0  0 0 0 1 0"
   id="feColorMatrix1" />&#10;								</filter>&#10;							</defs>&#10;							<mask
   maskUnits="userSpaceOnUse"
   x="63.8"
   y="272.8"
   width="187.5"
   height="41"
   id="mask-4_1_">&#10;								<g
   class="st0"
   id="g1">&#10;									<polygon
   id="path-3_1_"
   class="st1"
   points="251.3,313.7 63.8,313.7 63.8,272.8 251.3,272.8 " />&#10;								</g>&#10;							</mask>&#10;							<path
   id="Fill-1"
   class="st2"
   d="m 249.6,289.1 c -22.5,16.1 -55.1,24.7 -83.2,24.7 -39.4,0 -74.8,-14.1 -101.7,-37.6 -2.1,-1.8 -0.2,-4.4 2.3,-2.9 29,16.3 64.8,26.2 101.7,26.2 24.9,0 52.4,-5 77.6,-15.4 3.9,-1.7 7.1,2.3 3.3,5"
   mask="url(#mask-4_1_)" />&#10;						</g>&#10;						<path
   id="Fill-3"
   class="st3"
   d="m 268,303.1 c -2.6,-3.4 -17.5,-1.6 -24.1,-0.8 -2,0.2 -2.3,-1.5 -0.5,-2.8 11.8,-8.4 31.2,-6 33.4,-3.2 2.3,2.9 -0.6,22.6 -11.7,32 -1.7,1.4 -3.3,0.7 -2.6,-1.2 2.6,-6.4 8.2,-20.6 5.5,-24" />&#10;						<path
   id="Fill-5"
   class="st3"
   d="m 244.4,230.4 v -9.1 c 0,-1.4 1,-2.3 2.2,-2.3 h 39.2 c 1.3,0 2.3,1 2.3,2.3 v 7.8 c 0,1.3 -1.1,3 -3,5.7 L 264.8,265 c 7.5,-0.2 15.5,1 22.4,5 1.5,0.9 2,2.2 2.1,3.6 v 9.7 c 0,1.3 -1.4,2.9 -2.9,2.1 -12.1,-6.6 -28.1,-7.3 -41.5,0.1 -1.4,0.8 -2.8,-0.8 -2.8,-2.1 v -9.3 c 0,-1.5 0,-4 1.5,-6.3 l 23.6,-35.2 h -20.5 c -1.2,0.1 -2.2,-0.8 -2.3,-2.2" />&#10;						<path
   id="Fill-7"
   class="st3"
   d="M 102.7,289.7 H 91.1 c -1.1,-0.1 -2,-1 -2.1,-2.1 v -64.9 c 0,-1.3 1,-2.3 2.3,-2.3 h 10.9 c 1.1,0.1 2,1 2.1,2.2 v 8.5 h 0.2 c 2.8,-8.2 8.2,-12 15.4,-12 7.3,0 11.9,3.8 15.1,12 2.8,-8.2 9.3,-12 16.1,-12 4.9,0 10.2,2.2 13.5,7.1 3.7,5.5 2.9,13.4 2.9,20.3 v 40.9 c 0,1.3 -1,2.3 -2.2,2.3 h -11.7 c -1.2,-0.1 -2.1,-1.1 -2.1,-2.3 V 253 c 0,-2.7 0.2,-9.6 -0.3,-12.2 -0.9,-4.4 -3.5,-5.6 -6.9,-5.6 -2.8,0 -5.8,2 -7,5.3 -1.2,3.3 -1.1,8.7 -1.1,12.4 v 34.4 c 0,1.3 -1,2.3 -2.2,2.3 h -11.7 c -1.2,-0.1 -2.1,-1.1 -2.1,-2.3 v -34.4 c 0,-7.2 1.1,-17.9 -7.2,-17.9 -8.4,0 -8.1,10.4 -8.1,17.9 v 34.4 c 0.1,1.4 -0.9,2.4 -2.2,2.4" />&#10;						<path
   id="Fill-9"
   class="st3"
   d="m 324.6,232 c -8.9,0 -9.5,12.5 -9.5,20.2 0,7.8 -0.1,24.4 9.4,24.4 9.4,0 9.8,-13.4 9.8,-21.6 0,-5.4 -0.2,-11.8 -1.8,-16.9 -1.3,-4.4 -4.1,-6.1 -7.9,-6.1 m -0.1,-13 c 18,0 27.7,15.8 27.7,35.9 0,19.4 -10.8,34.8 -27.7,34.8 -17.7,0 -27.3,-15.8 -27.3,-35.5 0,-19.8 9.7,-35.2 27.3,-35.2" />&#10;						<path
   id="Fill-11"
   class="st3"
   d="m 377.5,289.7 h -11.4 c -1.2,-0.1 -2.1,-1.1 -2.1,-2.3 v -64.9 c 0.1,-1.2 1,-2.1 2.2,-2.1 h 10.6 c 1,0.1 1.8,0.8 2,1.8 v 9.9 h 0.2 c 3.2,-8.9 7.7,-13.1 15.6,-13.1 5.1,0 10.2,2.1 13.4,7.6 3,5.2 3,13.9 3,20.2 v 40.8 c -0.1,1.2 -1.1,2 -2.2,2 h -11.5 c -1.1,-0.1 -1.9,-0.9 -2,-2 v -35.2 c 0,-7.1 0.8,-17.5 -7.2,-17.5 -2.8,0 -5.4,2 -6.6,5.2 -1.6,4 -1.8,7.9 -1.8,12.3 v 34.9 c 0,1.4 -1,2.4 -2.2,2.4" />&#10;						<path
   id="Fill-13"
   class="st3"
   d="m 228.1,288.7 c -0.8,0.7 -2,0.8 -2.9,0.3 -4.1,-3.4 -4.8,-5 -7.1,-8.2 -6.8,6.9 -11.6,9 -20.3,9 -10.4,0 -18.5,-6.4 -18.5,-19.3 0,-10 5.4,-16.9 13.1,-20.2 6.7,-2.9 16,-3.5 23.2,-4.3 v -1.6 c 0,-2.9 0.2,-6.4 -1.5,-9 -1.5,-2.3 -4.4,-3.2 -6.9,-3.2 -4.7,0 -8.9,2.4 -9.9,7.4 -0.2,1.1 -1,2.2 -2.1,2.3 l -11.9,-1.3 c -1,-0.2 -2.1,-1 -1.8,-2.6 2.7,-14.6 15.8,-18.9 27.6,-18.9 6,0 13.8,1.6 18.6,6.2 6,5.6 5.4,13.1 5.4,21.3 v 19.3 c 0,5.8 2.4,8.3 4.7,11.5 0.8,1.1 1,2.5 0,3.3 -2.7,1.9 -7.2,5.8 -9.7,8 z m -12.4,-30.2 c 0,4.8 0.1,8.8 -2.3,13.1 -2,3.5 -5.1,5.6 -8.5,5.6 -4.7,0 -7.5,-3.6 -7.5,-9 0,-10.5 9.4,-12.5 18.3,-12.5 z" />&#10;						<path
   id="Fill-15"
   class="st3"
   d="m 70.9,288.7 c -0.8,0.7 -2,0.8 -2.9,0.3 -4.1,-3.4 -4.8,-5 -7.1,-8.2 -6.8,6.9 -11.6,9 -20.3,9 -10.4,0 -18.5,-6.4 -18.5,-19.3 0,-10 5.4,-16.9 13.1,-20.2 6.7,-2.9 16,-3.5 23.2,-4.3 v -1.6 c 0,-2.9 0.2,-6.4 -1.5,-9 -1.5,-2.3 -4.4,-3.2 -6.9,-3.2 -4.7,0 -8.9,2.4 -9.9,7.4 -0.2,1.1 -1,2.2 -2.1,2.3 l -11.9,-1.3 c -1,-0.2 -2.1,-1 -1.8,-2.6 2.7,-14.6 15.8,-19 27.5,-19 6,0 13.8,1.6 18.6,6.2 6,5.6 5.4,13.1 5.4,21.3 v 19.3 c 0,5.8 2.4,8.3 4.7,11.5 0.8,1.1 1,2.5 0,3.3 -2.6,2 -7.1,5.9 -9.6,8.1 z M 58.5,258.5 c 0,4.8 0.1,8.8 -2.3,13.1 -2,3.5 -5.1,5.6 -8.5,5.6 -4.7,0 -7.5,-3.6 -7.5,-9 0,-10.5 9.4,-12.5 18.3,-12.5 z" />&#10;						<path
   id="Fill-17"
   class="st3"
   d="m 509.3,237 c -3.4,4.1 -5,9.7 -5,16.9 0,7.2 1.6,12.9 4.8,17.1 3.7,4.7 9.1,7.1 16.4,7.1 6.8,0 12,-2.3 15.8,-7 3.3,-4.2 5,-9.7 5,-16.4 v -1.2 c 0,-7 -2,-12.7 -5.6,-17 -3.8,-4.4 -8.7,-6.5 -14.7,-6.5 -7.4,0 -13,2.3 -16.7,7 m 47.2,-35.2 V 282 c 0,1.2 -1.1,2.1 -2.4,2.1 h -4.9 c -1.4,0 -2.5,-1 -2.5,-2.2 v -7.7 c -4.7,7.7 -12.3,11.5 -22.4,11.5 -9.9,0 -17.6,-3.3 -23.1,-9.6 -5.1,-5.8 -7.6,-13.3 -7.6,-22.4 0,-8.9 2.5,-16.1 7.6,-21.9 5.5,-6.5 12.9,-9.7 22.6,-9.7 9.7,0 17.1,4.2 22.3,12.7 v -33.4 c 0,-1.2 1.1,-2.2 2.5,-2.2 h 5.2 c 1.5,0.1 2.7,1.2 2.7,2.6" />&#10;						<path
   id="Fill-33"
   class="st3"
   d="m 476.1,259.1 c 0,4.9 -2.3,9.3 -6.8,13.1 -4.6,3.9 -9.8,5.9 -15.7,5.9 -3.9,0 -7,-1 -9.4,-2.8 -2.4,-2 -3.5,-4.3 -3.5,-7.2 0,-9.2 7,-13.8 21,-14.1 l 14.4,-0.2 z m 4.1,-33 c -4.4,-4.8 -10.9,-7.1 -19.8,-7.1 -2.7,0 -5.1,0.2 -7.4,0.6 v 0 c -6.4,0.8 -12.3,3.7 -16.7,6.4 -0.8,0.5 -1.1,1.5 -0.7,2.3 l 1.8,3.7 c 0.4,0.9 1.6,1.3 2.5,0.8 4.2,-2.3 9.9,-4.3 14.9,-5.4 1.5,-0.3 3.2,-0.4 5,-0.4 10.9,0 16.3,5.3 16.3,15.9 v 3.3 l -15,0.2 c -9.4,0.1 -16.7,1.4 -21.8,4.9 -5.8,3.7 -8.6,9.6 -8.6,16.8 0,5.1 1.9,9.4 5.8,12.7 3.7,3.2 8.7,4.8 15,4.8 5.8,0 11,-1.3 15.6,-3.9 3.9,-2.2 7.1,-5 9.5,-8.5 v 8.3 c 0,1.3 1.1,2.4 2.4,2.4 h 4.3 c 1.3,0 2.4,-1.1 2.4,-2.4 v -38.3 c 0.1,-7.2 -1.8,-12.9 -5.5,-17.1 z" />&#10;						<path
   id="Fill-35"
   class="st3"
   d="m 564.4,274 c 0,-1.4 1.6,-2.3 2.8,-1.5 4.9,2.9 10.1,4.3 15.7,4.3 8.8,0 14.8,-2.9 14.8,-8.6 0,-2.4 -1,-4.5 -2.9,-6 -1.9,-1.6 -7.4,-3.5 -13.3,-5.6 -7.1,-2.8 -11.7,-5.6 -13.8,-8.4 -2.1,-2.8 -3.2,-6.1 -3.2,-10 0,-5.6 2.4,-10.6 7.2,-14 4.8,-3.4 10.7,-5.1 17.7,-5.1 5,0 9.7,1.3 14,2.9 0.7,0.3 1.2,0.9 1.2,1.7 v 6.5 c 0,1.4 -1.4,2.2 -2.7,1.6 -4.1,-2 -8.6,-3.6 -13.6,-3.6 -3.6,0 -7.6,0.8 -9.9,2.3 -2.3,1.5 -3.9,4.2 -3.9,6.7 0,2.5 0.8,4.5 2.5,5.9 1.6,1.4 6.8,3.2 12.4,5.4 7.1,2.6 12,5.4 14.5,8.2 2.5,2.8 3.8,6.3 3.8,10.5 0,5.8 -2.4,10.4 -7.2,13.7 -4.8,3.3 -11,5 -18.7,5 -6.2,0 -11.6,-1.1 -16.3,-3.2 -0.7,-0.3 -1.1,-0.9 -1.1,-1.7 z" />&#10;					</g>&#10;				</g>&#10;			</g>&#10;		</g>&#10;	</g>&#10;</g>&#10;</svg>
