<?xml version="1.0" standalone="no"?>
<svg xmlns:dc="http://purl.org/dc/elements/1.1/" xmlns:cc="http://creativecommons.org/ns#"
    xmlns:rdf="http://www.w3.org/1999/02/22-rdf-syntax-ns#" xmlns:svg="http://www.w3.org/2000/svg"
    xmlns="http://www.w3.org/2000/svg" xmlns:sodipodi="http://sodipodi.sourceforge.net/DTD/sodipodi-0.dtd"
    xmlns:inkscape="http://www.inkscape.org/namespaces/inkscape" version="1.0" width="500" height="301.354"
    viewBox="0 0 500 301.35401" id="svg1936" inkscape:version="0.91 r13725" sodipodi:docname="Amazon II.svg">

    <g>

        <g id="Amazon" transform="translate(0,100) scale(0.5)">
            <sodipodi:namedview pagecolor="#ffffff" bordercolor="#666666" borderopacity="1" objecttolerance="10"
                gridtolerance="10" guidetolerance="10" inkscape:pageopacity="0" inkscape:pageshadow="2"
                inkscape:window-width="1366" inkscape:window-height="705" id="namedview19" showgrid="false"
                inkscape:zoom="0.72245926" inkscape:cx="426.12453" inkscape:cy="94.816171" inkscape:window-x="-8"
                inkscape:window-y="-8" inkscape:window-maximized="1" inkscape:current-layer="svg1936" />
            <defs id="defs1938" />
            <path
                d="m 620.38044,235.66818 c -58.11169,42.83292 -142.34105,65.68583 -214.86092,65.68583 -101.68461,0 -193.22683,-37.60937 -262.48206,-100.16107 -5.44116,-4.91885 -0.5659,-11.62235 5.96353,-7.79179 74.7399,43.48586 167.15276,69.64701 262.61265,69.64701 64.37988,0 135.20216,-13.32001 200.32209,-40.96113 9.83763,-4.17885 18.06468,6.44234 8.44471,13.58115"
                id="path8" style="fill:#ff9900;fill-opacity:1;fill-rule:evenodd;stroke:none"
                inkscape:connector-curvature="0" />
            <path
                d="m 644.53924,208.02705 c -7.40002,-9.4894 -49.10114,-4.48353 -67.81875,-2.26353 -5.70237,0.69648 -6.57292,-4.26588 -1.43649,-7.83531 33.21291,-23.37526 87.71169,-16.6282 94.06697,-8.79293 6.35527,7.87883 -1.65411,62.5082 -32.86468,88.58226 -4.78823,4.00469 -9.35881,1.87178 -7.22586,-3.43882 7.00822,-17.49881 22.72234,-56.71874 15.27881,-66.25167"
                id="path10" style="fill:#ff9900;fill-opacity:1;fill-rule:evenodd;stroke:none"
                inkscape:connector-curvature="0" />
            <path
                d="m 578.02637,32.908411 0,-22.722322 c 0,-3.4388179 2.61176,-5.7458719 5.74588,-5.7458719 l 101.72809,0 c 3.26472,0 5.87648,2.350589 5.87648,5.7458719 l 0,19.457626 c -0.0435,3.264696 -2.78588,7.530573 -7.66119,14.277622 l -52.71404,75.262273 c 19.58823,-0.47879 40.26468,2.43764 58.02466,12.4494 4.00469,2.26352 5.09293,5.57175 5.39763,8.83648 l 0,24.24586 c 0,3.30822 -3.65647,7.1823 -7.48705,5.17997 -31.29762,-16.41058 -72.86816,-18.19528 -107.474,0.17413 -3.52587,1.9153 -7.22586,-1.91528 -7.22586,-5.22353 l 0,-23.02702 c 0,-3.69999 0.0435,-10.01178 3.74349,-15.62706 l 61.07171,-87.581077 -53.14934,0 c -3.2647,0 -5.87646,-2.307035 -5.87646,-5.702352"
                id="path12" style="fill:#000000;fill-rule:evenodd;stroke:none" inkscape:connector-curvature="0" />
            <path
                d="m 206.93856,174.68354 -30.94937,0 c -2.95998,-0.21762 -5.31057,-2.43762 -5.52823,-5.26706 l 0,-158.838596 c 0,-3.1776439 2.6553,-5.7023669 5.96352,-5.7023669 l 28.85996,0 c 3.00356,0.1305 5.39764,2.437637 5.61531,5.3105719 l 0,20.763532 0.56588,0 C 218.9962,10.88256 233.14323,1.5237471 252.2091,1.5237471 c 19.37056,0 31.47173,9.3588129 40.1776,29.4258739 7.48705,-20.067061 24.50702,-29.4258739 42.74584,-29.4258739 12.97175,0 27.16232,5.354111 35.82467,17.3682159 9.7941,13.363512 7.79174,32.777604 7.79174,49.797606 l -0.0435,100.248121 c 0,3.17763 -2.6553,5.74585 -5.96352,5.74585 l -30.90587,0 c -3.09056,-0.21762 -5.57173,-2.69879 -5.57173,-5.74585 l 0,-84.185796 c 0,-6.703515 0.60937,-23.418792 -0.8706,-29.774097 -2.30705,-10.664664 -9.22821,-13.66822 -18.19529,-13.66822 -7.48705,0 -15.32232,5.00588 -18.49997,13.015301 -3.17765,8.009403 -2.87294,21.416417 -2.87294,30.427016 l 0,84.185796 c 0,3.17763 -2.65529,5.74585 -5.96353,5.74585 l -30.90582,0 c -3.13412,-0.21762 -5.57177,-2.69879 -5.57177,-5.74585 l -0.0435,-84.185796 c 0,-17.716441 2.91643,-43.790545 -19.06586,-43.790545 -22.24353,0 -21.37294,25.421136 -21.37294,43.790545 l 0,84.185796 c 0,3.17763 -2.6553,5.74585 -5.96352,5.74585"
                id="path14" style="fill:#000000;fill-rule:evenodd;stroke:none" inkscape:connector-curvature="0" />
            <path
                d="m 778.9579,1.5237471 c 45.92348,0 70.77872,39.4376019 70.77872,89.5834349 0,48.448168 -27.46705,86.884588 -70.77872,86.884588 -45.09643,0 -69.647,-39.4376 -69.647,-88.582238 0,-49.449363 24.85527,-87.8857849 69.647,-87.8857849 m 0.26116,32.4293949 c -22.80937,0 -24.24586,31.079935 -24.24586,50.450525 0,19.414093 -0.3047,60.854033 23.9847,60.854033 23.98467,0 25.11645,-33.43052 25.11645,-53.802307 0,-13.407014 -0.56589,-29.425821 -4.61414,-42.136414 -3.48235,-11.056426 -10.40349,-15.365837 -20.24115,-15.365837"
                id="path16" style="fill:#000000;fill-rule:evenodd;stroke:none" inkscape:connector-curvature="0" />
            <path
                d="m 909.2848,174.68354 -30.81878,0 c -3.0906,-0.21762 -5.57177,-2.69879 -5.57177,-5.74585 l -0.0435,-158.882188 c 0.26118,-2.9164689 2.82943,-5.1799849 5.96353,-5.1799849 l 28.68587,0 c 2.69879,0.1305 4.91879,1.958823 5.52823,4.439997 l 0,24.2893669 0.56585,0 C 922.2566,11.88374 934.40125,1.5237471 955.77417,1.5237471 c 13.88587,0 27.42351,5.005884 36.12938,18.7176239 C 1000,32.951945 1000,54.324878 1000,69.690715 l 0,99.986975 c -0.34822,2.78585 -2.91647,5.00585 -5.96349,5.00585 l -31.03645,0 c -2.82943,-0.21762 -5.18002,-2.30703 -5.48469,-5.00585 l 0,-86.275201 c 0,-17.368215 2.00234,-42.789384 -19.37059,-42.789384 -7.53056,0 -14.45174,5.049433 -17.89056,12.710576 -4.35292,9.707072 -4.91881,19.37059 -4.91881,30.078808 l 0,85.535201 c -0.0435,3.17763 -2.74234,5.74585 -6.05056,5.74585"
                id="path18" style="fill:#000000;fill-rule:evenodd;stroke:none" inkscape:connector-curvature="0" />
            <path
                d="m 496.93116,98.811876 c 0,12.057624 0.3047,22.112904 -5.78941,32.821134 -4.91881,8.7059 -12.75409,14.06 -21.41642,14.06 -11.88352,0 -18.84822,-9.05413 -18.84822,-22.41764 0,-26.378783 23.63643,-31.167007 46.05405,-31.167007 l 0,6.703513 m 31.21056,75.436374 c -2.04586,1.82823 -5.00589,1.95881 -7.31293,0.74001 -10.27295,-8.53175 -12.1447,-12.49291 -17.75998,-20.6329 -16.97646,17.32467 -29.03411,22.50465 -51.01643,22.50465 -26.07409,0 -46.31522,-16.06234 -46.31522,-48.2305 0,-25.11646 13.58118,-42.223499 32.99527,-50.581131 16.80232,-7.400017 40.26461,-8.705874 58.19873,-10.751751 l 0,-4.004701 c 0,-7.356485 0.56589,-16.062359 -3.78705,-22.417613 -3.74352,-5.702369 -10.96942,-8.052955 -17.36822,-8.052955 -11.79647,0 -22.28702,6.050579 -24.85527,18.587033 -0.52235,2.785898 -2.56821,5.528247 -5.39765,5.658834 L 415.53126,53.846031 C 413.00654,53.28018 410.17715,51.23427 410.91715,47.360188 417.79479,10.969646 450.703,2.1708008e-4 480.12882,2.1708008e-4 c 15.06117,0 34.73643,4.00471001992 46.61995,15.40939391992 15.06114,14.059982 13.62469,32.821137 13.62469,53.236424 l 0,48.230525 c 0,14.4953 6.00705,20.85055 11.66586,28.68587 1.95885,2.78585 2.39414,6.13761 -0.13071,8.22702 -6.31175,5.26708 -17.54234,15.06118 -23.7235,20.54587 l -0.0435,-0.0872"
                id="path28" style="fill:#000000;fill-rule:evenodd;stroke:none" inkscape:connector-curvature="0" />
            <path
                d="m 91.194013,98.811876 c 0,12.057624 0.304675,22.112904 -5.789406,32.821134 -4.918845,8.7059 -12.710593,14.06 -21.416467,14.06 -11.883518,0 -18.804673,-9.05413 -18.804673,-22.41764 0,-26.378783 23.636433,-31.167007 46.010546,-31.167007 l 0,6.703513 m 31.210537,75.436374 c -2.04587,1.82823 -5.0059,1.95881 -7.31295,0.74001 -10.2729,-8.53175 -12.10116,-12.49291 -17.759972,-20.6329 C 80.355174,171.68003 68.341102,176.86001 46.315217,176.86001 20.284648,176.86001 -2.141151e-6,160.79767 -2.141151e-6,128.62951 -2.141151e-6,103.51305 13.624684,86.406011 32.995241,78.048379 49.79757,70.648362 73.259897,69.342505 91.194013,67.296628 l 0,-4.004701 c 0,-7.356485 0.565884,-16.062359 -3.743527,-22.417613 -3.78708,-5.702369 -11.012928,-8.052955 -17.368233,-8.052955 -11.796431,0 -22.330559,6.050579 -24.898786,18.587033 -0.522364,2.785898 -2.568242,5.528247 -5.354107,5.658834 L 9.7941042,53.846031 C 7.2693961,53.28018 4.4835138,51.23427 5.1799844,47.360188 12.101156,10.969646 44.965811,2.1708008e-4 74.391681,2.1708008e-4 c 15.061131,0 34.736399,4.00471001992 46.619919,15.40939391992 15.06117,14.059982 13.62468,32.821137 13.62468,53.236424 l 0,48.230525 c 0,14.4953 6.00708,20.85055 11.6659,28.68587 2.00234,2.78585 2.43763,6.13761 -0.0871,8.22702 -6.31175,5.26708 -17.54231,15.06118 -23.72351,20.54587 l -0.087,-0.0872"
                id="path30" style="fill:#000000;fill-rule:evenodd;stroke:none" inkscape:connector-curvature="0" />
        </g>
        <g id="ebay" transform="translate(-470,100) scale(0.8)">
            <path id="e"
                d="m 38.866448,26.308378 c -21.145729,0 -38.76645103,8.97108 -38.76645103,36.036419 0,21.441707 11.84866003,34.944406 39.31245703,34.944406 32.326175,0 34.3984,-21.294248 34.3984,-21.294248 l -15.663557,0 c 0,0 -3.358398,11.466134 -19.690354,11.466134 -13.301932,0 -22.869203,-8.985845 -22.869203,-21.580814 l 59.861133,0 0,-7.903529 c 0,-12.460384 -7.91007,-31.668368 -36.582425,-31.668368 z m -0.546007,10.101117 c 12.662062,0 21.294248,7.757047 21.294248,19.383225 l -43.680508,0 c 0,-12.34261 11.267202,-19.383225 22.38626,-19.383225 z"
                style="fill:#e53238;fill-opacity:1;stroke:none" />

            <path id="b"
                d="m 75.437762,0.10007279 0,83.59702321 c 0,4.745232 -0.338677,11.408082 -0.338677,11.408082 l 14.939733,0 c 0,0 0.536238,-4.785353 0.536238,-9.1587 0,0 7.381193,11.547477 27.451204,11.547477 21.13453,0 35.49041,-14.673014 35.49041,-35.695165 0,-19.556604 -13.18634,-35.28566 -35.45629,-35.28566 -20.854235,0 -27.33444,11.261381 -27.33444,11.261381 l 0,-37.67443821 z M 114.20421,36.853125 c 14.35199,0 23.47828,10.651661 23.47828,24.945665 0,15.327725 -10.54056,25.35517 -23.3759,25.35517 -15.317854,0 -23.58065,-11.960116 -23.58065,-25.218668 0,-12.354387 7.414449,-25.082167 23.47827,-25.082167 z"
                style="fill:#0064d2;fill-opacity:1;stroke:none" />

            <path id="a"
                d="m 190.6451,26.308378 c -31.81215,0 -33.85239,17.418776 -33.85239,20.202235 l 15.83418,0 c 0,0 0.83034,-10.169369 16.9262,-10.169369 10.45935,0 18.56422,4.787411 18.56422,13.991413 l 0,3.276038 -18.56422,0 c -24.64532,0 -37.67444,7.20973 -37.67444,21.840254 0,14.398537 12.03849,22.232696 28.30702,22.232696 22.17148,0 29.31371,-12.251017 29.31371,-12.251017 0,4.872784 0.37568,9.67455 0.37568,9.67455 l 14.07643,0 c 0,0 -0.54601,-5.951939 -0.54601,-9.759864 l 0,-32.913945 c 0,-21.581223 -17.40751,-26.122991 -32.76038,-26.122991 z m 17.47221,37.128431 0,4.368051 c 0,5.697129 -3.51553,19.860981 -24.21197,19.860981 -11.3333,0 -16.1925,-5.656156 -16.1925,-12.216892 0,-11.935273 16.36378,-12.01214 40.40447,-12.01214 z"
                style="fill:#f5af02;fill-opacity:1;stroke:none" />

            <path id="y"
                d="m 214.87901,29.041161 17.81346,0 25.56479,51.217345 25.5063,-51.217345 16.13644,0 -46.45929,91.183029 -16.9262,0 13.40641,-25.418513 z"
                style="fill:#86b817;fill-opacity:1;stroke:none" />
            <circle cx="150" cy="60" r="175" stroke="#0064d2" stroke-width="16" fill="none" />
        </g>

        <g id="bol" transform="translate(-1000,75) scale(0.83)">
            <path fill="#3366CA"
                d="m 556.3,85.9 c 23.4,0 42.4,-19 42.4,-42.4 0,-23.4 -19,-42.4 -42.4,-42.4 -23.4,0 -42.4,19 -42.4,42.4 0.2,23.4 19,42.4 42.4,42.4 z"
                id="path4" />
            <path fill="#FFFFFF"
                d="M 556.3,87.2 C 532.4,87.2 512.6,67.7 512.6,43.5 512.6,19.3 532.4,0 556.3,0 580.2,0 600,19.5 600,43.7 c 0,24.2 -19.5,43.5 -43.7,43.5 z m 0,-84.6 c -22.6,0 -41.1,18.5 -41.1,41.1 0,22.6 18.5,41.1 41.1,41.1 22.6,0 41.1,-18.5 41.1,-41.1 0,-22.6 -18.5,-41.1 -41.1,-41.1 z"
                id="path6" />
            <path fill="#FFFFFF"
                d="m 546.1,13.6 c 0.3,0 0,0.5 0.3,0.5 l 0.3,0.3 0.3,0.3 c 0.3,0 0,0.3 0.3,0.3 0.3,0 0.3,0.3 0.3,0.3 0.3,0 0,0.3 0.3,0.3 0,0.3 0.3,0.5 0,0.5 -0.3,0.3 -0.3,0.5 -0.8,0.5 0,0.3 -0.3,0 -0.5,0.3 -0.5,0.3 -0.8,0.5 -1.3,0.8 -0.3,0.3 -0.5,0.3 -0.8,0.5 0,0.3 -0.5,0.3 -0.8,0.5 -0.3,0 -0.5,0.3 -0.8,0.5 -0.3,0.3 -0.5,0.3 -0.8,0.5 -0.3,0 -0.3,0.3 -0.3,0.3 -0.3,0.5 -1,0.5 -1.3,1 -0.5,0.3 -1,1 -1.6,1.3 0,0.3 -0.5,0.3 -0.5,0.8 -0.3,0 -0.3,0.5 -0.8,0.5 -0.3,0.5 -0.8,0.8 -1,1 -0.2,0.2 -0.5,0.5 -0.8,0.8 -0.3,0.5 -0.8,0.5 -0.8,1 -0.3,0.3 -0.8,0.5 -0.8,1 0,0 0,0.3 -0.3,0.3 -0.5,0.5 -1,0.8 -1.3,1.6 -0.3,0.3 -0.5,0.5 -0.8,1 -0.3,0.3 -0.5,0.5 -0.5,0.8 -0.3,0.3 -0.5,0.5 -0.8,0.8 v 0.3 c -0.3,0.3 -0.3,0.5 -0.5,1 0,0.3 -0.3,0.3 -0.3,0.5 -0.3,0.3 0,0.8 -0.5,1 -0.3,0.3 0,0.3 -0.3,0.5 0,0.3 0,0.3 0,0.3 0,0.3 -0.3,0.5 -0.3,1 -0.3,0.3 0,0.5 -0.3,0.8 0,0.8 -0.3,1.3 0,1.8 0,0.5 0,1 0,1.6 -0.3,0.3 0,0.3 0.3,0.5 0,0.3 0,0.5 0,0.5 0,0.3 0.3,0.3 0.3,0.5 v 0.3 c 0.3,0.3 0.5,0.5 0.5,0.8 0.3,0 0.3,0.5 0.8,0.5 0.3,0.3 0.3,0.3 0.5,0.3 0.2,0 0.5,0.3 0.8,0.3 0.3,0 0.5,0.3 0.8,0.3 0.3,0 0.5,0.3 0.8,0.3 1,0.3 2.1,0.3 3.1,0.3 h 0.3 c 0.3,0 0.8,-0.3 1,-0.3 0.2,0 0.5,-0.3 0.8,0 0.5,-0.3 1.3,-0.5 1.8,-0.5 0,-0.3 0.3,0 0.5,-0.3 0.3,0 0.8,0 0.8,-0.3 0,0 0.3,0 0.3,-0.3 0.5,0 0.8,-0.5 1.3,-0.5 0.3,-0.3 0.3,-0.3 0.5,-0.3 0.3,-0.3 0.3,-0.3 0.5,-0.3 0.2,0 0.5,-0.3 0.8,-0.3 0.3,0 0.3,-0.3 0.5,-0.3 0,0 0.3,0 0.3,-0.3 0.3,0 0.5,-0.3 1,-0.5 0,0 0,0 0.3,0 0.3,-0.3 0.3,-0.3 0.5,-0.5 0.5,0 0.8,-0.8 1.3,-0.8 0,-0.3 0.3,0 0.3,-0.3 0.3,-0.3 0.5,-0.5 0.8,-0.5 0,0 0.3,0 0.3,-0.3 0.3,-0.3 0.3,-0.5 0.8,-0.5 0.5,-0.5 1,-1 1.6,-1.6 0.3,0 0.3,-0.3 0.5,-0.5 0.2,-0.2 0.3,-0.5 0.5,-0.8 0.2,-0.3 0.5,-0.5 0.5,-0.5 0,-0.3 0.5,-0.5 0.5,-0.8 0.3,-0.3 0.3,-0.8 0.5,-1 0,-0.3 0.3,-0.5 0.3,-0.8 0,-0.3 0,-0.3 0,-0.5 0.3,-0.8 0,-1.3 -0.5,-1.8 0,-0.5 -0.5,-0.5 -0.5,-0.8 -0.3,-0.3 -0.5,-0.5 -0.8,-0.5 -0.3,-0.3 -0.5,-0.3 -0.5,-0.3 -0.3,-0.3 -0.8,0 -1,-0.3 -0.5,0 -0.8,-0.3 -1.3,0 -0.3,0 -0.5,0 -0.5,0 -0.3,0 -0.5,-0.3 -0.8,0 -0.5,0 -1,0 -1.6,0.3 v 0 c 0,0.3 -0.3,0 -0.5,0 -0.3,0 -0.3,0.3 -0.5,0 -0.3,0.3 -0.5,0.3 -1,0.3 -0.3,0.3 -0.5,0.3 -0.8,0.3 h -0.3 c -0.5,0.3 -1,0.3 -1.6,0.8 -0.5,0 -0.5,0.5 -1,0.5 -0.3,0.3 -0.5,0.3 -0.8,0.5 -0.3,0.3 -0.8,0.5 -1,0.8 0,0.3 -0.5,0.3 -0.5,0.5 0,0 0,0 -0.3,0 0,0.3 -0.3,0.3 -0.3,0.5 -0.5,0.5 -0.8,1 -1,1.3 0,0.3 -0.5,0.3 -0.3,0.5 -0.3,0.3 -0.3,0.5 -0.3,0.8 0,0 0,0.3 -0.3,0.3 -0.3,0 0,0.3 -0.3,0.5 0,0.3 0,0.5 -0.3,0.5 0,0.3 -0.3,0.3 -0.3,0.3 l -0.3,0.3 c -0.3,0 0,0.3 0,0.3 l -0.3,0.3 c 0,0 0,0 0,0.3 -0.3,0 0,0.5 -0.3,0.3 0,0 0,0 -0.3,0 0,-0.3 0,-0.5 0,-0.8 0,0 0,-0.3 0.3,-0.3 0,0 0,-0.3 -0.3,0 0,0 0,0 0,0.3 0,0 0,0.3 -0.3,0.3 v 0.3 0 c 0,0 -0.3,-0.3 0,-0.3 0,-0.3 0,-0.3 0,-0.5 0,0 0,0 -0.3,0 0,0.3 0,0.3 -0.3,0.5 0,0 0,0.3 0,0.5 0,0 -0.3,0 -0.3,-0.3 v -0.3 c 0.3,-0.3 0,-0.3 0.3,-0.5 -0.3,-0.3 0,-0.8 0,-1 v 0 c -0.3,0.3 -0.3,0.5 -0.5,0.8 v 0.3 c 0,0 0,0 -0.3,0.3 -0.3,0.3 -0.3,-0.3 -0.3,-0.5 0.3,0 0,-0.3 0.3,-0.5 0,-0.5 0.3,-0.8 0.3,-1.3 0.3,0 0,-0.3 0,-0.3 0,-0.3 0.3,-0.5 0.3,-0.8 0.3,-0.5 0.3,-1.3 0.8,-1.6 0,-0.3 0.3,-0.3 0.3,-0.5 0.3,-0.5 0.8,-1 1,-1.6 0.3,-0.3 0.5,-0.8 0.8,-1 0.5,-0.3 0.5,-0.8 1,-1 0.5,-0.5 1,-1 1.6,-1.3 0,0 0.3,-0.3 0.5,-0.3 0.5,-0.5 1.3,-0.8 1.8,-1 0.3,-0.3 0.5,-0.3 0.8,-0.3 0.3,-0.3 0.8,-0.3 1,-0.5 0.3,-0.3 1,-0.3 1.3,-0.5 0.3,0 0.8,0 1,0 0.5,0 1,-0.3 1.3,0 0.8,0 1.6,0 2.3,0.3 0.3,0 0.5,0.3 0.8,0.3 0.3,0.3 0.8,0.3 1.3,0.5 0.5,0 0.8,0.3 1,0.5 0.3,0.3 0.5,0.5 1,0.8 0.3,0.3 0.3,0.3 0.3,0.5 0.3,0.3 0.5,0.3 0.5,0.5 0.3,0.3 0.3,0.8 0.5,1 0,0.5 0.5,0.8 0.5,1 0,0.2 0.3,0.5 0.3,0.8 0.3,0.3 0.3,0.8 0.3,1 0.3,0.3 0,0.5 0,0.8 0,0.3 0,0.3 0,0.5 0,0.2 0,0.8 -0.3,1 0,0.3 -0.3,0.3 -0.3,0.5 0,0.2 -0.3,0.3 0,0.5 -0.3,0.3 0,0.3 -0.3,0.5 0,0.5 -0.5,0.8 -0.5,1 0,0 0,0.3 -0.3,0.3 0,0.3 -0.3,0.5 -0.5,0.8 -0.2,0.3 -0.5,0.5 -0.8,1 -0.5,0.3 -0.5,0.8 -1,1 -0.5,0.5 -0.8,0.8 -1.3,1.3 -0.3,0.3 -0.3,0.3 -0.5,0.5 -0.3,0.5 -0.5,0.5 -0.8,0.8 -0.3,0 -0.3,0.3 -0.3,0.3 -0.3,0 -0.5,0.5 -0.8,0.5 l -0.3,0.3 c -0.3,0 -0.3,0.3 -0.5,0.3 -0.5,0.3 -1,0.5 -1.6,0.8 -0.6,0.3 -1,0.5 -1.3,0.8 -0.3,0.3 -0.5,0.3 -0.8,0.3 -0.5,0 -0.8,0.5 -1.3,0.5 -0.3,0 -0.3,0.3 -0.5,0.3 0,0 -0.3,0 -0.3,0.3 -0.3,0 -0.3,0 -0.5,0.3 -0.3,0 -0.5,0.3 -0.8,0.3 -0.3,0 -0.3,0.3 -0.5,0.3 -0.2,0 -0.3,0.3 -0.5,0.3 -0.3,0 -0.3,0 -0.5,0 -0.3,0 -0.5,0.3 -0.8,0.3 -0.3,0 -0.3,0 -0.5,0.3 -0.3,0 -0.3,0.3 -0.5,0 -0.3,0 -0.5,0.3 -0.8,0 -0.3,0 -0.5,0 -0.8,0 -0.3,0 -0.5,0 -0.8,0 -0.3,0 -0.5,-0.3 -0.5,0 -0.5,0 -0.8,0 -1.3,-0.3 -0.3,0 -0.5,-0.3 -0.8,-0.3 0,-0.3 -0.3,0 -0.3,0 -0.3,0 -0.3,-0.3 -0.5,-0.3 -0.3,-0.3 -0.5,0 -0.8,-0.3 -0.3,0 -0.5,-0.3 -0.8,-0.3 -0.3,0 -0.3,0 -0.5,0 -0.3,0 -0.3,-0.3 -0.5,-0.3 -0.5,-0.3 -0.8,-0.8 -1.3,-1 -0.8,-0.5 -1.3,-1 -1.8,-1.8 0,-0.3 -0.5,-0.3 -0.5,-0.5 -0.5,-0.5 -0.5,-1 -1,-1.3 0,-0.3 0,-0.3 0,-0.5 0,-0.2 -0.3,-0.5 -0.3,-0.8 0,-0.3 0,-0.5 -0.3,-1 0,-0.5 0,-1 0,-1.3 0,-0.3 0,-0.3 0,-0.5 0,-0.2 0,-0.5 0,-0.8 0,-0.3 0.3,-0.8 0.3,-1 0,-0.5 0.3,-1 0.3,-1.6 0.3,-0.3 0,-0.8 0.3,-1 0,-0.3 0.3,-0.3 0.3,-0.5 0.3,-0.3 0.3,-0.5 0.5,-0.8 v 0 c 0.3,-0.5 0.5,-1.3 1,-1.8 0,-0.3 0.3,-0.5 0.5,-1 0.5,-0.5 0.8,-1.3 1.3,-1.8 0.5,-0.5 0.8,-1 1.3,-1.6 0,-0.3 0.5,-0.5 0.5,-0.8 v 0 c 0.3,-0.5 0.8,-0.8 1,-1.3 1,-1 2.3,-2.3 3.4,-3.4 0.3,0 0.3,-0.3 0.3,-0.3 0.5,-0.3 1,-0.5 1.3,-1 0.5,-0.3 0.8,-0.8 1.3,-1 0.3,0 0.3,-0.3 0.5,-0.3 0,-0.3 0.3,-0.3 0.5,-0.3 0.2,0 0.5,-0.5 1,-0.5 0.3,-0.3 0.3,-0.5 0.5,-0.5 0.3,-0.3 0.5,-0.3 0.8,-0.5 0.3,0 0,-0.3 0.3,-0.3 0.5,0 0.8,-0.5 1,-0.5 0.3,-0.3 0.8,-0.3 1,-0.5 0.3,0 0.5,-0.3 0.5,-0.3 2.3,-1.2 2.6,-1.2 2.8,-0.9 z"
                id="path8" />
            <path fill="#FFFFFF"
                d="m 576.6,22.2 c 0.5,0 1,0 1.3,0 0.3,0 0.3,0.3 0.5,0.3 0,0.3 0.3,0 0.5,0 0.3,0 0.5,0.3 0.8,0.3 0.5,0.3 1,0.3 1.3,0.8 0.3,0 0.5,0.3 0.8,0.5 0.5,0 0.5,0.5 1,0.8 0.3,0.5 0.8,0.5 1,1 0.3,0.5 0.8,0.8 1,1.3 0,0.3 0.3,0.3 0.3,0.5 0.3,0.3 0.3,0.5 0.5,1 0,0.3 0.3,0.3 0.3,0.3 0,0.3 0.3,0.8 0.3,1 0.3,0.8 0.3,1.3 0.5,2.1 0,0.3 0,0.5 0,0.5 v 0.3 c 0,0.3 0,0.5 0,0.8 0.3,0 0,0.3 0,0.5 -0.3,0.3 0,0.5 -0.3,0.8 0.3,0.3 -0.3,0.5 -0.3,1 0,0 0,0.3 -0.3,0.3 0,0.3 0,0.5 -0.3,0.8 -0.3,0.3 0,0.3 -0.3,0.5 0,0.3 -0.3,0.5 -0.5,0.8 0,0.3 -0.3,0.3 -0.3,0.5 0,0.2 -0.3,0.3 -0.3,0.5 -0.3,0 -0.3,0.3 -0.3,0.5 -0.3,0.5 -0.5,0.8 -0.8,1.3 -0.3,0.3 -0.5,0.5 -0.5,0.8 -0.3,0.3 -0.5,0.8 -0.8,1 -0.3,0.5 -0.5,0.5 -0.8,0.8 0,0.3 -0.3,0 -0.3,0.3 -0.3,0.3 -0.8,0.5 -1,0.8 -0.3,0 -0.3,0.3 -0.5,0.3 0,0.3 -0.5,0.3 -0.5,0.5 h -0.3 c 0,0 -0.3,0 -0.3,0.3 -0.3,0.3 -0.8,0.3 -1,0.5 -0.3,0 -0.3,0.3 -0.5,0.3 -0.3,0.3 -0.5,0.3 -0.8,0.3 -0.3,0 -0.3,0.3 -0.5,0.3 -0.3,0 -0.5,0.3 -0.8,0.3 -0.5,0 -0.8,0.3 -1.3,0.3 -0.3,0.3 -0.8,0 -1,0.3 -0.3,0 -0.5,0 -1,0 -0.3,0 -0.5,0 -0.8,0.3 -0.3,0 -0.5,0 -0.8,0 -0.3,0.3 -0.5,0 -0.8,0 -0.5,0 -0.8,0 -1.3,0 -0.5,0 -0.8,0 -1.3,-0.3 -0.3,0.3 -0.5,-0.3 -0.8,0 0,-0.3 -0.3,0 -0.3,-0.3 -0.3,0 -0.8,0 -1,-0.3 -0.3,0 -0.8,-0.3 -1,-0.3 -0.3,-0.3 -0.5,-0.5 -0.8,-0.5 -0.3,-0.3 -0.5,-0.5 -0.8,-0.8 0,-0.3 -0.3,0 -0.3,-0.3 0,-0.3 -0.5,-0.5 -0.5,-0.8 -0.3,-0.3 -0.3,-0.5 -0.5,-0.8 -0.3,-0.5 -0.5,-0.8 -0.5,-1.3 -0.3,-0.5 -0.3,-1 -0.3,-1.6 -0.3,-0.3 0.3,-0.5 0.3,-0.8 0,-0.5 0,-0.8 0.3,-1 0.3,-0.5 0.3,-0.8 0.8,-1 0,-0.3 0.3,0 0.5,-0.3 0,0 0,0 0.3,0 v 0.3 c -0.3,0 -0.3,0.5 -0.5,0.5 v 0.3 c 0.3,0 0.3,-0.3 0.5,-0.5 0,-0.3 0.5,-0.3 0.3,-0.5 0.3,0 0.5,-0.3 0.8,-0.5 0.3,0 0.3,-0.3 0.5,-0.3 0,0.3 0,0.3 0,0.3 -0.3,0.3 -0.5,0 -0.5,0.3 0,0.3 -0.3,0.3 -0.3,0.3 -0.3,0 -0.3,0.3 -0.3,0.3 0,0 0,0 0.3,0 0.3,-0.3 0.3,-0.5 0.5,-0.5 0.5,0 0.5,-0.5 0.8,-0.5 0,-0.3 0.3,0 0.3,0 0,0 0,0 -0.3,0.3 0,0 0,0 -0.3,0 0,0 0,0.3 0.3,0.3 v 0 0 c -0.3,0 -0.3,0.5 -0.5,0.5 l -0.3,0.3 v 0 c 0,-0.3 0.3,0.3 0.5,-0.3 0,-0.3 0.3,0 0.5,-0.3 0,0 0,0 0,0.3 -0.3,0.3 -0.3,0.3 -0.5,0.3 0,0.3 -0.3,0.3 -0.5,0.5 -0.3,0.5 -0.8,0.8 -1,1.3 -0.3,0.3 -0.3,0.5 -0.5,0.8 -0.3,0 0,0.3 -0.3,0.5 0,0.5 -0.3,0.8 -0.3,1.3 0,0.3 0,0.5 0.3,0.8 0,0.3 0.3,0.3 0.3,0.5 0.3,0.3 0.3,0.8 0.8,0.8 0.3,0.3 0.8,0.3 1,0.5 0.5,0 0.8,0.3 1,0.3 0.2,0 0.5,0 0.5,0.3 0.5,0 1.3,0 2.1,0 0.5,-0.3 0.8,0 1.3,-0.3 0.3,0 0.5,0 0.8,0 0.3,0 0.5,0 0.5,-0.3 0.3,0 0.5,-0.3 0.8,0 0,-0.3 0.3,0 0.3,0 0.3,-0.3 0.8,-0.3 1,-0.3 0.3,-0.3 0.5,0 0.8,-0.3 0.3,0 0.3,-0.3 0.5,-0.3 0.2,0 0.5,0 0.5,-0.3 0.5,-0.3 0.8,-0.5 1.3,-0.8 0.5,-0.3 1,-0.5 1.6,-1 0,0 0.3,0 0.3,-0.3 0.8,-0.5 1.3,-1 1.8,-1.6 0,-0.3 0.3,-0.5 0.5,-0.5 0.5,-0.5 0.8,-0.8 1.3,-1.3 0,-0.3 0.3,-0.3 0.3,-0.5 0.5,-0.5 0.8,-1 1,-1.6 0.3,0 0.3,-0.3 0.3,-0.5 0.5,-0.5 0.5,-1 0.8,-1.6 0,-0.5 0.3,-0.8 0.3,-1.3 0.3,-0.3 0.3,-0.5 0.3,-1 0,-0.3 0,-0.5 0,-0.8 0,-0.5 0.3,-1.3 0,-1.6 0,-0.5 -0.3,-0.8 -0.5,-1.3 0,-0.3 -0.3,-0.3 -0.3,-0.5 -0.3,-0.5 -0.8,-0.5 -1,-1 -0.3,0 -0.5,-0.3 -0.8,-0.3 -0.3,0 -0.5,-0.3 -0.8,-0.3 -0.3,0 -0.3,0 -0.5,-0.3 0,-0.3 -0.3,0 -0.3,-0.3 -0.3,0 -0.3,0 -0.5,0 -0.8,0 -1.6,-0.3 -2.1,0 -0.3,0 -0.5,0 -0.8,0 0,0 0,0.3 -0.3,0 0,-0.3 -0.3,0 -0.5,0 0,0 0,0 -0.3,0 0,0.3 -0.3,0 -0.5,0.3 -0.3,0 -0.5,0 -0.8,0.3 -0.3,0 -0.3,0 -0.5,0 -0.2,0 -0.5,0.3 -0.8,0 -0.3,0.3 -0.5,0.3 -0.8,0.3 -0.3,0 -0.5,0 -0.8,0.3 -0.3,0 -0.3,0.3 -0.5,0.3 -0.2,0 -0.5,0.3 -0.5,0.3 -0.3,0 -0.3,0.3 -0.5,0.3 -0.2,0 -0.5,0.3 -0.8,0.3 0,0 -0.3,0 -0.3,0.3 -0.3,0.3 -0.5,0.3 -0.5,0.5 -0.3,0 -0.5,0.3 -0.8,0.3 0,0 -0.3,0 -0.3,0.3 v 0 c 0,0 0,0 -0.3,0 -0.5,0.3 -1,0.5 -1.3,1 -0.3,0 -0.3,0.3 -0.3,0.3 -0.3,0.3 -0.5,0.5 -1,0.8 -0.8,0.5 -1.3,1.3 -1.8,1.8 0,0 0,0 -0.3,0 0,0.3 -0.3,0.5 -0.5,0.5 -0.3,0.3 -0.3,0.5 -0.5,0.5 -0.3,0.3 -0.3,0.3 -0.5,0.5 0,0.3 -0.3,0.3 -0.5,0.5 -0.3,0 -0.5,0.3 -0.8,0 -0.3,0 -0.3,0 -0.3,-0.3 0,-0.3 0,-0.3 0,-0.5 -0.3,0 -0.3,-0.3 -0.5,-0.3 -0.3,-0.5 -0.5,-1 -0.5,-1.6 0,-0.3 0.3,-0.5 0.3,-0.8 0.3,-0.3 0.5,-0.5 0.5,-0.8 0,0 0,0 0,-0.3 0.5,-0.5 1,-1 1.6,-1.6 0.3,-0.3 0.5,-0.3 0.5,-0.5 0.3,0 0.5,-0.5 0.8,-0.8 0.5,-0.3 0.8,-0.5 1,-0.8 0.5,-0.5 1.3,-0.8 1.8,-1.3 0.3,-0.3 0.8,-0.5 1,-0.5 0.5,-0.8 1.3,-0.8 2.1,-1 0.3,-0.3 0.8,-0.3 1,-0.5 0.3,0 0.5,-0.3 0.8,-0.3 0.3,0 0.3,0 0.5,-0.3 0.3,0 0.5,0 0.5,-0.3 0.5,0 1.3,-0.5 1.8,-0.5 0,0 0,0 0.3,0 0.5,0 1,0 1.6,0 0.3,0 0.5,0 0.8,0 2.6,-1 2.6,-1 2.9,-1 z"
                id="path10" />
            <path fill="#FFFFFF"
                d="m 553.4,45.6 c 0.3,0.3 0.3,0.5 0.5,0.3 0,0 0.3,0 0.3,0.3 0.3,0 0.5,0.5 0.8,0.3 0,0.3 0.3,0.3 0.3,0.5 l 0.3,0.3 c 0.3,0.3 0,0.3 0,0.5 -0.3,0.3 -0.5,0.5 -0.8,0.8 -0.3,0 0,0.3 -0.3,0.3 -0.3,0.3 -0.8,0.3 -1,0.8 -0.5,0.3 -0.8,0.8 -1.3,1 0,0.3 -0.3,0.3 -0.3,0.3 -0.5,0.5 -1.3,1.3 -2.1,1.8 -0.3,0 -0.3,0.3 -0.3,0.3 0,0.3 -0.3,0 -0.3,0.3 -0.3,0.3 -0.3,0.3 -0.5,0.5 -0.5,0.5 -1,1 -1.6,1.6 0,0 0,0 0,0.3 0,0 0,0.3 -0.3,0.3 0,0.3 -0.3,0.3 -0.3,0.5 0,0 -0.3,0 -0.3,0.3 -0.3,0.3 -0.3,0.8 -0.8,0.8 -0.3,0.3 -0.5,0.8 -1,1 0,0 0,0.3 -0.3,0.3 -0.3,0 0,0.3 -0.3,0.3 0,0.3 -0.3,0.3 -0.3,0.5 0,0.2 -0.3,0.3 -0.3,0.5 0,0.2 -0.3,0.5 -0.5,0.8 -0.3,0.3 -0.5,0.5 -0.5,1 -0.3,0.3 -0.3,0.8 -0.8,1 0,0.3 -0.3,0.5 -0.3,0.8 -0.3,0.3 0,0.3 -0.3,0.5 v 0.3 c 0,0.3 -0.3,0.3 -0.3,0.5 0,0.3 0,0.5 -0.3,0.8 0.3,0.3 -0.3,0.3 0,0.5 -0.3,0 0,0.3 -0.3,0.5 v 0.3 c 0,0.3 -0.3,0.8 0,1.3 0,0.3 0,0.8 0.3,1 0,0.3 0,0.5 0.3,0.8 0,0 0,0.3 0.3,0.3 0,0.3 0.3,0.3 0,0.3 0.3,0.3 0.3,0.3 0.5,0.5 l 0.3,0.3 c 0.3,0.3 0.5,0.5 0.8,0.5 l 0.3,0.3 c 0.3,0.3 0.5,0.3 0.8,0.3 0.3,0.3 0.8,0.3 1.3,0.3 h 0.3 c 0.3,0.3 0.5,0 0.8,0 0,0 0.3,0 0.5,0 0.2,0 0.3,0 0.5,0 0.2,0 0.5,0.3 0.8,0 0.5,0 0.8,0 1.3,-0.3 0.3,0 0.3,0 0.5,0 0.3,0 0.5,-0.3 0.8,0 0.3,0 0.5,0 0.8,0 0.3,0 0.8,-0.3 1,-0.3 0.2,0 0.5,-0.3 0.8,0 0.5,0 0.8,-0.3 1.3,-0.3 h 0.3 0.3 c 0.3,-0.3 0.5,0 0.8,-0.3 h 0.3 c 0.3,0 0.5,0 0.8,-0.3 0.5,0 0.8,-0.3 1.3,-0.3 0.3,-0.3 0.8,-0.3 1,-0.3 0.3,-0.3 0.8,-0.3 1,-0.5 0.3,-0.3 0.5,0 0.5,-0.3 0.3,0 0.5,0 0.5,-0.3 0.3,0 0.5,-0.3 0.8,-0.5 0.3,0 0.5,0 0.5,-0.3 0,0 0,0 0.3,0 0.3,-0.3 0.5,-0.5 0.8,-0.3 0,0 -0.3,0.3 0,0.3 0,0.3 -0.3,0 -0.3,0.3 -0.3,0 -0.3,0.3 -0.5,0.3 v 0 c 0,0 0,0 0,0.3 0,-0.3 0.3,0 0.5,-0.3 0.3,0 0.5,-0.3 0.8,-0.3 0.3,0 0.5,-0.5 0.8,-0.3 0,0 0,0.3 -0.3,0.3 0,0 0,0 0,0.3 0,0.3 0.3,-0.3 0.5,0 0.3,-0.3 0.5,0 0.5,-0.5 0,-0.3 0.3,-0.3 0.5,-0.3 0,0 0.3,0 0.3,0.3 -0.3,0 -0.3,0.5 -0.8,0.5 0,0 -0.3,0 -0.3,0.3 0,0.3 0,0 0.3,0 0.3,0 0.5,-0.3 0.5,0 h 0.3 c 0,0.3 -0.3,0.3 -0.3,0.3 0,0 -0.3,0 -0.3,0.3 0,0.3 -0.5,0.3 -0.5,0.5 0,0 0.3,0.3 0.3,0 0.3,-0.3 0.5,0 0.5,-0.3 h 0.3 c 0,0 0,0.5 -0.3,0.3 0,0 -0.3,0 -0.5,0.3 0.3,0 0,0 -0.3,0 -0.3,0.3 -0.5,0.3 -0.8,0.5 l -0.3,0.3 c -0.5,0.3 -1,0.5 -1.6,0.8 -0.3,0 -0.3,0 -0.5,0.3 0,0 0,0 -0.3,0.3 -0.3,0.3 -0.8,0.3 -1,0.3 0,0 0,0.3 -0.3,0 0,0.3 -0.3,0 -0.3,0.3 -0.3,0 -0.5,0 -0.8,0.3 -0.3,0 -0.8,0.3 -1,0.3 -0.3,0.3 -0.8,0 -1,0.3 -0.3,0 -0.3,0 -0.3,0 -0.5,0 -0.8,0 -1.3,0.3 -0.3,0 -0.8,0 -1,0.3 -0.3,0 -0.5,0 -0.5,0 -0.3,0 -0.5,0 -0.5,0 -0.5,0 -0.8,0 -1.3,0 H 552 c 0,0 -0.3,0 -0.5,0 -0.2,0 -0.5,0 -0.8,0 -0.3,0.3 -0.5,0 -0.5,0 -0.3,0 -0.8,0.3 -1,0 -0.3,0 -0.3,0 -0.5,0 -0.5,0 -0.8,-0.3 -1.3,-0.3 h -0.3 c -0.3,-0.3 -0.8,-0.3 -1.3,-0.3 -0.8,0 -1.3,-0.5 -2.1,-0.8 -0.3,0 -0.5,-0.3 -0.8,-0.5 -0.3,-0.3 -0.5,0 -0.5,-0.3 -0.3,-0.3 -0.5,-0.5 -1,-0.8 -0.3,-0.3 -0.5,-0.5 -0.8,-0.8 -0.3,-0.3 -0.5,-0.8 -0.8,-1 0,-0.3 -0.5,-0.3 -0.5,-0.5 -0.3,-0.5 -0.5,-1 -0.5,-1.6 -0.3,-0.3 0,-0.8 -0.3,-1 0,-0.3 -0.3,-0.3 0,-0.5 0,-0.3 0,-0.5 0,-0.8 v 0 c 0,-0.5 0,-1 0,-1.3 0,-0.3 0.3,-0.5 0.3,-1 0,-0.3 0,-0.3 0.3,-0.5 0,-0.3 0,-0.8 0.3,-1.3 0,-0.3 0.3,-0.5 0.3,-0.8 0,-0.3 0.3,-0.5 0.3,-0.8 0,-0.3 0.3,-0.5 0.3,-0.8 0,0 0,0 0.3,0 0,-0.3 0.3,-0.3 0.3,-0.3 0,-0.3 0.5,-0.5 0.5,-1 0.3,-0.5 0.8,-0.8 1,-1.3 0.3,-0.3 0.3,-0.5 0.5,-0.5 0,-0.3 0.3,-0.3 0.3,-0.5 0.3,-0.3 0.5,-0.8 0.8,-1 0.3,-0.5 0.8,-0.5 0.8,-1 0.5,-0.3 0.5,-1 1,-1.3 0.3,-0.3 0.5,-0.5 0.8,-0.8 0.3,-0.3 0.3,-0.5 0.5,-0.5 0.3,-0.3 0.8,-0.8 1,-1.3 0,-0.3 0.3,-0.3 0.3,-0.3 0.3,-0.3 0.5,-0.5 1,-0.8 0.3,0 0.3,-0.3 0.3,-0.5 v 0 c 0.3,-0.3 0.5,-0.3 0.5,-0.5 0.5,-0.3 0.5,-0.8 1,-0.8 0.3,-0.3 0.5,-0.3 0.8,-0.5 0.3,-0.2 0.5,-0.5 0.8,-0.5 0.3,-0.3 0.5,-0.5 0.8,-0.5 h 0.3 c -1,-0.9 -0.7,-0.6 -0.5,-0.6 -0.2,0 0,0 0,0 z"
                id="path12" />
            <path
                d="m 0,47.6 h 28.1 v 23.2 c 5.5,-2.1 10.9,-3.1 16.7,-3.1 11.4,0 20.6,3.6 27.6,10.7 7.3,7 10.7,16.1 10.9,27.6 0,8.8 -2.9,16.9 -8.8,24.5 -6,7.8 -15.6,12 -28.6,12.2 H 0 Z m 28.1,70.6 c 3.6,0.5 7,1 9.6,1 5.5,0 9.6,-1.3 12.7,-3.9 3.1,-2.3 4.7,-5.7 4.7,-10.1 0,-4.2 -1.6,-7.8 -4.4,-10.4 -3.1,-2.3 -7,-3.6 -12.2,-3.9 -3.4,0 -6.8,0.5 -10.7,1.8 v 25.5 z m 58.8,-12.5 c 0,-9.9 3.4,-18.7 10.1,-26.3 6.8,-7.8 17.7,-11.7 32.5,-11.7 15.4,0.3 26.5,4.4 33,12.2 6.5,7.5 9.9,16.1 9.6,25.8 0,10.1 -3.4,19 -10.4,26.3 -7,7.8 -17.7,11.7 -32.3,11.7 -15.1,-0.3 -26.3,-4.4 -33,-12.5 C 90,123.6 86.6,115 86.9,105.7 Z m 27.8,0 c 0,4.2 1.3,7.5 4.2,10.1 2.6,2.6 6.2,3.9 10.7,3.9 4.4,0 8.1,-1.3 10.7,-3.9 2.6,-2.6 4.2,-6 4.2,-10.1 0,-4.1 -1.3,-7.8 -4.2,-10.4 -2.6,-2.6 -6.2,-3.9 -10.7,-3.9 -4.4,0 -8.1,1.3 -10.7,3.9 -2.6,2.6 -4.2,5.9 -4.2,10.4 z M 175.9,47.6 H 204 v 94.7 h -28.1 z m 49.7,62 c 4.7,0 8.6,1.8 11.7,4.9 3.1,3.1 4.7,7.3 4.7,12.2 0,4.7 -1.6,8.8 -4.7,12 -3.1,3.4 -7,4.9 -11.7,5.2 -4.7,0 -8.6,-1.8 -11.4,-5.2 -3.4,-3.1 -4.9,-7.3 -4.9,-12 0,-4.9 1.6,-9.1 4.9,-12.2 2.8,-3.4 6.7,-4.9 11.4,-4.9 z m 80.6,29.4 c -8.3,3.1 -15.9,4.7 -22.6,4.4 -12,0 -21.6,-3.6 -29.1,-10.4 -7.5,-6.8 -11.2,-15.9 -11.2,-27.1 0,-9.6 3.1,-18.5 9.6,-26.3 6.5,-7.8 16.4,-12 29.9,-12.2 7.8,0 15.4,1.3 22.9,3.9 v 24.5 c -6,-3.1 -12,-4.7 -17.7,-4.7 -4.9,0 -9.1,1.3 -12,3.9 -3.1,2.6 -4.7,6 -4.7,10.4 0,4.4 1.6,7.5 4.9,10.1 3.1,2.6 7.3,3.9 12.5,3.9 4.7,0 10.4,-1.3 17.4,-4.4 v 24 z m 5.2,-33.3 c 0,-9.9 3.4,-18.7 10.1,-26.3 6.8,-7.8 17.7,-11.7 32.5,-11.7 15.4,0.3 26.5,4.4 33,12.2 6.5,7.5 9.9,16.1 9.6,25.8 0,10.1 -3.4,19 -10.4,26.3 -7,7.8 -17.7,11.7 -32.3,11.7 -15.1,-0.3 -26.3,-4.4 -33,-12.5 -6.3,-7.6 -9.7,-16.2 -9.5,-25.5 z m 27.9,0 c 0,4.2 1.3,7.5 4.2,10.1 2.6,2.6 6.2,3.9 10.7,3.9 4.4,0 8.1,-1.3 10.7,-3.9 2.6,-2.6 4.2,-6 4.2,-10.1 0,-4.1 -1.3,-7.8 -4.2,-10.4 -2.6,-2.6 -6.2,-3.9 -10.7,-3.9 -4.5,0 -8.1,1.3 -10.7,3.9 -2.7,2.6 -4.2,5.9 -4.2,10.4 z M 401.7,69 h 28.1 v 9.6 c 6.8,-7.3 14.3,-10.9 23.2,-10.9 9.9,0 17.2,4.2 22.4,13 7.5,-8.6 16.4,-13 26.5,-13 8.1,0 14.1,2.9 17.7,8.3 3.6,5.5 5.5,12 5.5,19.5 v 47.1 H 497 v -42.4 c 0,-2.6 -0.8,-4.9 -2.1,-6.5 -1.6,-1.6 -3.4,-2.3 -6,-2.3 -4.4,0.3 -8.3,2.6 -11.4,7.5 v 43.5 h -28.1 v -41.7 c 0,-2.9 -0.8,-5.2 -2.1,-6.8 -1.6,-1.6 -3.6,-2.3 -6.2,-2.6 -3.9,0.3 -7.8,2.6 -11.2,7.5 v 43.5 H 401.8 V 69 Z"
                id="path14" />
        </g>



        <g id="wallmart" transform="translate(-1485,100) scale(2)">
            <path fill="#0071CE" d="M135.4743805,29.8036613c0-5.5308571-2.3675842-10.4175968-10.3747253-10.4175968
		c-4.1080627,0-7.3714752,1.1708717-9.1407852,2.1957397l1.2968369,4.4372807
		c1.6290054-1.022007,4.2282715-1.8636551,6.6816483-1.8636551c4.0537186-0.0057278,4.7178574,2.2873478,4.7178574,3.7616692
		v0.3549843c-8.8488083-0.0143185-14.4425888,3.0431156-14.4425888,9.2696228c0,3.804615,2.8398743,7.3716202,7.8039322,7.3716202
		c3.0287552,0,5.5880127-1.2224007,7.1167145-3.1519012h0.14888c0,0,1.0078278,4.2168465,6.5815277,2.605114
		c-0.2834167-1.7663269-0.3892975-3.627121-0.3892975-5.8887024V29.8036613z M128.8729248,35.6436958
		c0,0.4465904-0.0372162,0.9103622-0.1689606,1.3082848c-0.5096741,1.7033424-2.2672806,3.1290016-4.4545441,3.1290016
		c-1.8463593,0-3.2950439-1.0449066-3.2950439-3.2349243c0-3.3494339,3.6986694-4.2712402,7.9185486-4.2483406" />
            <path fill="#0071CE" d="M0,11.8607178c0,0,5.7798676,23.6464272,6.6988559,27.4768028
		c1.082098,4.4773636,3.0201945,6.1320381,8.6140633,5.0298729l3.6127882-14.6630726
		c0.9132233-3.632843,1.5343857-6.237957,2.1241837-9.9395084h0.1001205
		c0.4093895,3.7387676,0.9991894,6.3066654,1.7463303,9.950964c0,0,1.4742775,6.6616497,2.238718,10.1513577
		c0.7442589,3.4897079,2.8397865,5.6911736,8.3277702,4.5002594l8.5997353-32.5066757h-6.9422531l-2.9514389,14.0618954
		c-0.7815647,4.0737133-1.4915771,7.2828732-2.0440712,11.015913h-0.1002064
		c-0.4980659-3.6929626-1.1307602-6.7704353-1.9437752-10.7611256L25.023407,11.8607178h-7.2427864l-3.2635927,13.9502487
		c-0.9304333,4.2597904-1.8006725,7.6750679-2.3474874,11.290741H12.075099
		c-0.5639381-3.3923798-1.3282909-7.712286-2.1385107-11.8117657c0,0-1.9380965-9.9881725-2.6222486-13.429224" />
            <path fill="#0071CE" d="M61.4092827,29.8036613c0-5.5308571-2.3733482-10.4175968-10.3804893-10.4175968
		c-4.0965271,0-7.3657951,1.1708717-9.1349297,2.1957397l1.2967529,4.4372807
		c1.6232338-1.022007,4.219799-1.8636551,6.6817322-1.8636551c4.0536308-0.0057278,4.7177773,2.2873478,4.7177773,3.7616692
		v0.3549843c-8.8487244-0.0143185-14.4482727,3.0431156-14.4482727,9.2696228c0,3.804615,2.8513184,7.3716202,7.7924004,7.3716202
		c3.0573235,0,5.5938683-1.2224007,7.1225739-3.1519012h0.1544609c0,0,1.0134277,4.2168465,6.5815239,2.605114
		c-0.2862053-1.7663269-0.3835297-3.627121-0.3835297-5.8887024V29.8036613z M54.8020706,35.6436958
		c0,0.4465904-0.0372162,0.9103622-0.1631966,1.3082848c-0.5154495,1.7033424-2.2730522,3.1290016-4.4659042,3.1290016
		c-1.8350945,0-3.2893639-1.0449066-3.2893639-3.2349243c0-3.3494339,3.6985817-4.2712402,7.9184647-4.2483406" />
            <polygon fill="#0071CE" points="65.011673,11.8607178 65.011673,44.3559456 71.6188812,44.3559456 71.6188812,37.4652748 
		71.6188812,11.8607178" />
            <path fill="#0071CE" d="M155.7529297,11.8607178v23.9756432c0,3.3093567,0.6211548,5.6167412,1.9580078,7.0309525
		c1.1738281,1.2395706,3.094635,2.0468712,5.3820038,2.0468712c1.9639587,0,3.8847656-0.3778877,4.7923126-0.7071037
		l-0.0802002-5.1615601c-0.6784821,0.1574516-1.4542847,0.2919998-2.5192566,0.2919998
		c-2.2557526,0-3.0000916-1.4285164-3.0000916-4.4000626v-9.1780205h5.7541809v-6.2093353h-5.7541809v-7.6893845" />
            <path fill="#0071CE" d="M138.675415,19.9500256V44.366539h6.8305206V31.8619881
		c0-0.6727524,0.0428009-1.253891,0.1488647-1.7920895c0.5095062-2.63661,2.5105133-4.3056011,5.3933716-4.3056011
		c0.8044434,0,1.351181,0.088747,1.9581909,0.1832199v-6.4011383c-0.5096893-0.0916023-0.8560028-0.140276-1.4829407-0.140276
		c-2.5564575,0-5.4536438,1.6231861-6.6760406,5.1587009h-0.1687927v-4.6147785" />
            <path fill="#0071CE" d="M75.4557648,19.9500256V44.366539h6.6557846V30.0355434
		c0-0.6727524,0.0744324-1.3598137,0.3120651-1.9810314c0.5411377-1.4514217,1.8837585-3.1318626,4.0393906-3.1318626
		c2.6794739,0,3.9448624,2.2615795,3.9448624,5.525135V44.366539h6.6388321V29.8637791
		c0-0.6326733,0.088768-1.4084816,0.2746811-1.9695816c0.5325699-1.6460915,1.9868393-2.9715481,3.9965744-2.9715481
		c2.7081299,0,4.0193024,2.2129116,4.0193024,6.0604668V44.366539h6.6328964V29.969698
		c0-7.5634174-3.8475418-10.5635948-8.2161179-10.5635948c-1.9207993,0-3.4495087,0.4723587-4.8237534,1.3197365
		c-1.1623001,0.7128239-2.1813202,1.7176533-3.0946274,3.0316658h-0.1001205
		c-1.0506439-2.6280193-3.5183487-4.3514023-6.7419281-4.3514023c-4.1337433,0-6.011734,2.086956-7.1167221,3.8504162h-0.1002884
		v-3.3064938" />
            <path fill="#FFC220" d="M203.7866821,18.8541565c1.3054047,0,2.4046326-0.6813354,2.5477295-1.5573406l1.2940369-14.6573458
		C207.6284485,1.1880494,205.9194336,0,203.7866821,0c-2.1442719,0-3.8419495,1.1880494-3.8419495,2.6394703l1.3054047,14.6573458
		C201.3876495,18.172821,202.4811096,18.8541565,203.7866821,18.8541565" />
            <path fill="#FFC220" d="M195.8473358,23.4405899c0.6468506-1.1451035,0.6096344-2.416172-0.0887604-2.9829979
		l-12.0809479-8.4480162c-1.2566528-0.7328577-3.137619,0.1402855-4.2139435,1.9896307
		c-1.0735474,1.8464727-0.8560028,3.9191208,0.3749695,4.6376743l13.3748169,6.2007408
		c0.8560028,0.3206272,1.9753113-0.274828,2.6338654-1.4084816" />
            <path fill="#FFC220" d="M211.7242889,23.428566c0.6840515,1.1336613,1.8033752,1.7291107,2.6364899,1.4256611l13.3748169-6.217926
		c1.2424927-0.7328568,1.4285889-2.7854671,0.3779449-4.6319513c-1.0735474-1.8493443-2.9658661-2.7167549-4.2197113-1.9982033
		l-12.0837555,8.4394217c-0.6699066,0.5754166-0.7184906,1.852211-0.07164,2.9944553" />
            <path fill="#FFC220" d="M203.7866821,37.1629601c1.3054047,0,2.4046326,0.6813393,2.5477295,1.5573463l1.2940369,14.6573486
		c0,1.4514236-1.7090149,2.6280174-3.8417664,2.6280174c-2.1442719,0-3.8419495-1.1765938-3.8419495-2.6280174l1.3054047-14.6573486
		C201.3876495,37.8442993,202.4811096,37.1629601,203.7866821,37.1629601" />
            <path fill="#FFC220" d="M211.7242889,32.5894127c0.6840515-1.1365166,1.8033752-1.7434216,2.6364899-1.4142036
		l13.3748169,6.2064743c1.2424927,0.7185516,1.4285889,2.7883301,0.3779449,4.6376724
		c-1.0735474,1.8350334-2.9658661,2.7081718-4.2197113,1.9896202l-12.0837555-8.4508743
		c-0.6699066-0.5696907-0.7184906-1.8407593-0.07164-2.968689" />
            <path fill="#FFC220" d="M195.8473358,32.5768166c0.6468506,1.1422424,0.6096344,2.41045-0.0887604,2.9830017l-12.0809479,8.4365616
		c-1.2566528,0.7328682-3.137619-0.1431351-4.2139435-1.9781685c-1.0735474-1.8464813-0.8560028-3.9191246,0.3749695-4.6376762
		l13.3748169-6.2064724C194.0694733,30.8477116,195.1887817,31.4488888,195.8473358,32.5768166" />
            <path fill="#FFC220" d="M231.6495361,42.7227364h0.166153c0.2261047,0,0.3176727,0.0715675,0.3435211,0.2519264
		c0.048584,0.2003899,0.0744324,0.334938,0.1230164,0.3921967h0.4294891
		c-0.0372314-0.042942-0.085968-0.1517258-0.1116638-0.4036522c-0.0487518-0.2175674-0.1604004-0.3406677-0.3178253-0.3836098
		v-0.0400772c0.2175293-0.0486679,0.3435211-0.1946716,0.3435211-0.3750229c0-0.1631775-0.0744476-0.2805519-0.14888-0.3549843
		c-0.1430969-0.0687065-0.2804413-0.1230965-0.5839386-0.1230965c-0.2690887,0-0.4667053,0.0228996-0.6241302,0.0601158v1.620327
		h0.3807373V42.7227364z M231.6610565,41.9841423l0.1946564-0.0257645c0.2290649,0,0.3520813,0.1059227,0.3520813,0.2547874
		c0,0.1660423-0.1660004,0.2433319-0.3777771,0.2433319h-0.1689606V41.9841423z M231.9044647,40.8848419
		c-0.9389954,0-1.6833496,0.7328682-1.6833496,1.6317787c0,0.9218063,0.7443542,1.6546745,1.6833496,1.6546745
		c0.9503479,0,1.6717987-0.7328682,1.6717987-1.6546745C233.5762634,41.6177101,232.8548126,40.8848419,231.9044647,40.8848419
		 M231.9044647,41.2140579c0.721283,0,1.2566528,0.5840034,1.2566528,1.3025627
		c0,0.7242737-0.5353699,1.3254585-1.2566528,1.3140068c-0.7214661,0-1.2683716-0.5897331-1.2683716-1.3140068
		c0-0.7185593,0.5469055-1.3025627,1.2568359-1.3025627" />
        </g>

        <g id="shopify" transform="translate(-2000 80) scale(0.8)">

            <path fill="#95BF47"
                d="M130.7 32.9c-.1-.9-.9-1.3-1.5-1.4-.6-.1-12.6-.2-12.6-.2s-10.1-9.8-11.1-10.8-2.9-.7-3.7-.5c0 0-1.9.6-5.1 1.6-.5-1.7-1.3-3.8-2.4-5.9-3.6-6.9-8.8-10.5-15.2-10.5-.4 0-.9 0-1.3.1-.2-.2-.4-.4-.6-.7-2.8-3-6.3-4.4-10.5-4.3-8.2.2-16.3 6.1-23 16.7-4.7 7.4-8.2 16.7-9.2 23.9-9.4 2.9-16 4.9-16.1 5-4.7 1.5-4.9 1.6-5.5 6.1C12.4 55.3 0 151.4 0 151.4l104.1 18 45.1-11.2S130.8 33.7 130.7 32.9zm-39.2-9.7c-2.4.7-5.1 1.6-8.1 2.5-.1-4.1-.6-9.9-2.5-14.9 6.3 1.2 9.3 8.2 10.6 12.4zM78 27.4c-5.5 1.7-11.4 3.5-17.4 5.4 1.7-6.4 4.9-12.8 8.8-17 1.5-1.6 3.5-3.3 5.9-4.3 2.3 4.7 2.7 11.4 2.7 15.9zM66.8 5.8c1.9 0 3.5.4 4.9 1.3-2.2 1.1-4.4 2.8-6.4 5-5.2 5.6-9.2 14.2-10.8 22.6-5 1.5-9.8 3-14.3 4.4 3-13.2 14-32.9 26.6-33.3z">
            </path>
            <path fill="#5E8E3E"
                d="M129.2 31.5c-.6-.1-12.6-.2-12.6-.2s-10.1-9.8-11.1-10.8c-.4-.4-.9-.6-1.4-.6v149.5l45.1-11.2S130.8 33.8 130.7 32.9c-.2-.9-.9-1.3-1.5-1.4z">
            </path>
            <path fill="#FFF"
                d="M79.1 54.7l-5.2 19.6s-5.8-2.7-12.8-2.2c-10.2.6-10.3 7-10.2 8.7.6 8.8 23.6 10.7 24.9 31.2 1 16.2-8.6 27.2-22.4 28.1-16.6 1-25.7-8.7-25.7-8.7l3.5-14.9s9.2 6.9 16.5 6.5c4.8-.3 6.5-4.2 6.3-7-.7-11.4-19.5-10.8-20.7-29.5-1-15.8 9.4-31.8 32.3-33.3 9-.8 13.5 1.5 13.5 1.5z">
            </path>
            <path
                d="M210.3 96.5c-5.2-2.8-7.9-5.2-7.9-8.5 0-4.2 3.7-6.9 9.6-6.9 6.8 0 12.8 2.8 12.8 2.8l4.8-14.6s-4.4-3.4-17.3-3.4c-18 0-30.5 10.3-30.5 24.8 0 8.2 5.8 14.5 13.6 19 6.3 3.6 8.5 6.1 8.5 9.9 0 3.9-3.1 7-9 7-8.7 0-16.9-4.5-16.9-4.5l-5.1 14.6s7.6 5.1 20.3 5.1c18.5 0 31.8-9.1 31.8-25.5.1-8.9-6.6-15.2-14.7-19.8zm73.8-30.8c-9.1 0-16.3 4.3-21.8 10.9l-.3-.1 7.9-41.4h-20.6l-20 105.3h20.6l6.9-36c2.7-13.6 9.7-22 16.3-22 4.6 0 6.4 3.1 6.4 7.6 0 2.8-.3 6.3-.9 9.1l-7.8 41.2h20.6l8.1-42.6c.9-4.5 1.5-9.9 1.5-13.4 0-11.5-6.2-18.6-16.9-18.6zm63.5 0c-24.8 0-41.2 22.4-41.2 47.4 0 16 9.9 28.8 28.4 28.8 24.3 0 40.8-21.8 40.8-47.4-.1-14.7-8.8-28.8-28-28.8zm-10.2 60.4c-7 0-10-6-10-13.4 0-11.8 6.1-31.1 17.3-31.1 7.3 0 9.7 6.3 9.7 12.4 0 12.7-6.1 32.1-17 32.1zm90.8-60.4c-13.9 0-21.8 12.2-21.8 12.2h-.3l1.2-11.1h-18.2c-.9 7.5-2.5 18.8-4.2 27.3l-14.3 75.4h20.6l5.7-30.5h.4s4.2 2.7 12.1 2.7c24.2 0 40-24.8 40-49.9.1-13.7-6.1-26.1-21.2-26.1zm-19.7 60.7c-5.4 0-8.5-3-8.5-3l3.4-19.3c2.4-12.8 9.1-21.4 16.3-21.4 6.3 0 8.2 5.8 8.2 11.4 0 13.3-7.9 32.3-19.4 32.3zm70.4-90.2c-6.6 0-11.8 5.2-11.8 12 0 6.1 3.9 10.3 9.7 10.3h.3c6.4 0 12-4.3 12.1-12 0-6-4-10.3-10.3-10.3zm-28.8 104.2h20.6l14-73h-20.8zm87-73.2h-14.3l.7-3.4c1.2-7 5.4-13.3 12.2-13.3 3.7 0 6.6 1 6.6 1l4-16.1s-3.6-1.8-11.2-1.8c-7.3 0-14.6 2.1-20.2 6.9-7 6-10.3 14.6-12 23.3l-.6 3.4h-9.6l-3 15.5h9.6l-10.9 57.7H509l10.9-57.7h14.2l3-15.5zm49.6.2s-12.9 32.5-18.7 50.2h-.3c-.4-5.7-5.1-50.2-5.1-50.2H541l12.4 67.1c.3 1.5.1 2.4-.4 3.4-2.4 4.6-6.4 9.1-11.2 12.4-3.9 2.8-8.2 4.6-11.7 5.8l5.7 17.5c4.2-.9 12.8-4.3 20.2-11.2 9.4-8.8 18.1-22.4 27-40.9l25.2-54.1h-21.5z">
            </path>
        </g>

        <g id="cdiscount" transform="translate(-2500,100) scale(0.2)">
            <path
                d="m278 270.7c-19.8 28-52 44.6-86.2 44.5-61.2 0-107.4-46.4-107.4-107.9 0-30.8 11.2-58.6 31.5-78.3 19.7-19.1 46.7-29.6 75.9-29.6 34.3-.1 66.5 16.6 86.2 44.6l3.2 4.5 63.7-54-3.2-3.8c-37.3-44.2-92.2-69.7-150-69.5-105.7-.1-191.7 83.4-191.7 186.1 0 102.5 86 185.7 191.7 185.7 57.7.3 112.6-25 149.9-69l3.2-3.8-63.7-54z"
                fill="#e23a05" />
            <path
                d="m652.7 5.5v378.5h-70.3v-16.6c-22.1 13-50.7 21.1-79.3 21.1-75.8 0-138-57.2-138-141 0-85.3 62.2-141 138-141 27.8.1 55 7.2 79.3 20.7v-121.7zm-70.3 296.2v-109.5c-16.6-14-40.1-23.1-66.7-23.1-46.7 0-81.3 33.6-81.3 78.3 0 46.2 34.6 77.8 81.3 77.8 26.1 0 50.2-9 66.7-23.5zm130.4-168.3h69.8v250.6h-69.8zm142.1 176.8c33.6 14.6 59.2 22.1 93.4 22.1 32.1 0 44.7-12 44.7-26.1 0-15.6-15.6-22.6-57.7-31.6-58.8-13-101.4-32.1-101.4-84.8 0-49.2 40.7-83.3 103.9-83.3 42.7 0 76.8 10 106.4 22.1l-23.1 51.2c-26.6-10-57.7-17.6-84.8-17.6-26.6 0-40.1 9.5-40.1 24.1 0 15.1 16.6 22.1 60.2 31.1 63.2 13.1 99.9 35.1 99.9 84.8 0 51.7-39.7 85.8-109.4 85.8-47.2 0-77.8-6.5-117.9-26.1zm485.8 23.1c-24.6 33.6-63.2 54.7-105.4 54.7-82.3 0-149.1-62.7-149.1-140.5 0-78.3 66.7-141 149.1-141 43.7 0 81.8 21.1 106.4 54.2l-45.2 41.7c-13.6-20.5-36.6-32.9-61.2-33.1-44.2 0-80.3 35.1-80.3 78.3 0 42.7 36.1 77.8 80.3 77.8 24.8-.2 47.8-12.8 61.2-33.6zm319.1-85.9c0 77.8-66.7 140.5-149.1 140.5s-149.1-62.7-149.1-140.5c0-78.3 66.7-141 149.1-141s149.1 62.7 149.1 141zm-68.7 0c0-43.2-35.6-78.3-80.3-78.3-44.2 0-80.3 35.1-80.3 78.3 0 42.7 36.1 77.8 80.3 77.8 44.6 0 80.3-35.1 80.3-77.8zm370.8-133.7v270.3h-69.8v-18.1c-20.7 14.1-46.2 22.1-74.3 22.1-79.8 0-116.5-37.1-116.5-125.5v-148.8h69.8v148.8c0 42.2 20.7 62.7 59.2 62.7 25.1 0 45.7-8 61.7-21.6v-190h69.9zm316.7 118.2v152.1h-69.8v-152.1c0-42.2-20.7-62.7-59.2-62.7-24.6 0-44.7 8-60.2 21.6v193.2h-69.8v-272.6h69.8v17.1c20.1-14.1 45.2-22.1 72.8-22.1 79.7 0 116.4 37.2 116.4 125.5zm142.4-62.8v96.4c0 48.7 8 62.7 43.2 62.7 12 0 22.6-1.5 32.1-2.5v52.2c-3 1-24.1 10-63.2 10-45.7 0-82.3-28.6-82.3-85.8v-133h-38.6v-57.7h38.6v-105.9h70.3v105.9h76.2v57.7z"
                fill="#293847" />
            <path
                d="m710.1 41.2c0-22.6 18-41.2 40.1-41.2s39.7 18.6 39.7 41.2-17.6 40.7-39.7 40.7c-22.3-.2-40.3-18.4-40.1-40.7z"
                fill="#e23a05" />
        </g>

        <g id="cdiscount2" transform="translate(500,100) scale(0.2)">
            <path
                d="m278 270.7c-19.8 28-52 44.6-86.2 44.5-61.2 0-107.4-46.4-107.4-107.9 0-30.8 11.2-58.6 31.5-78.3 19.7-19.1 46.7-29.6 75.9-29.6 34.3-.1 66.5 16.6 86.2 44.6l3.2 4.5 63.7-54-3.2-3.8c-37.3-44.2-92.2-69.7-150-69.5-105.7-.1-191.7 83.4-191.7 186.1 0 102.5 86 185.7 191.7 185.7 57.7.3 112.6-25 149.9-69l3.2-3.8-63.7-54z"
                fill="#e23a05" />
            <path
                d="m652.7 5.5v378.5h-70.3v-16.6c-22.1 13-50.7 21.1-79.3 21.1-75.8 0-138-57.2-138-141 0-85.3 62.2-141 138-141 27.8.1 55 7.2 79.3 20.7v-121.7zm-70.3 296.2v-109.5c-16.6-14-40.1-23.1-66.7-23.1-46.7 0-81.3 33.6-81.3 78.3 0 46.2 34.6 77.8 81.3 77.8 26.1 0 50.2-9 66.7-23.5zm130.4-168.3h69.8v250.6h-69.8zm142.1 176.8c33.6 14.6 59.2 22.1 93.4 22.1 32.1 0 44.7-12 44.7-26.1 0-15.6-15.6-22.6-57.7-31.6-58.8-13-101.4-32.1-101.4-84.8 0-49.2 40.7-83.3 103.9-83.3 42.7 0 76.8 10 106.4 22.1l-23.1 51.2c-26.6-10-57.7-17.6-84.8-17.6-26.6 0-40.1 9.5-40.1 24.1 0 15.1 16.6 22.1 60.2 31.1 63.2 13.1 99.9 35.1 99.9 84.8 0 51.7-39.7 85.8-109.4 85.8-47.2 0-77.8-6.5-117.9-26.1zm485.8 23.1c-24.6 33.6-63.2 54.7-105.4 54.7-82.3 0-149.1-62.7-149.1-140.5 0-78.3 66.7-141 149.1-141 43.7 0 81.8 21.1 106.4 54.2l-45.2 41.7c-13.6-20.5-36.6-32.9-61.2-33.1-44.2 0-80.3 35.1-80.3 78.3 0 42.7 36.1 77.8 80.3 77.8 24.8-.2 47.8-12.8 61.2-33.6zm319.1-85.9c0 77.8-66.7 140.5-149.1 140.5s-149.1-62.7-149.1-140.5c0-78.3 66.7-141 149.1-141s149.1 62.7 149.1 141zm-68.7 0c0-43.2-35.6-78.3-80.3-78.3-44.2 0-80.3 35.1-80.3 78.3 0 42.7 36.1 77.8 80.3 77.8 44.6 0 80.3-35.1 80.3-77.8zm370.8-133.7v270.3h-69.8v-18.1c-20.7 14.1-46.2 22.1-74.3 22.1-79.8 0-116.5-37.1-116.5-125.5v-148.8h69.8v148.8c0 42.2 20.7 62.7 59.2 62.7 25.1 0 45.7-8 61.7-21.6v-190h69.9zm316.7 118.2v152.1h-69.8v-152.1c0-42.2-20.7-62.7-59.2-62.7-24.6 0-44.7 8-60.2 21.6v193.2h-69.8v-272.6h69.8v17.1c20.1-14.1 45.2-22.1 72.8-22.1 79.7 0 116.4 37.2 116.4 125.5zm142.4-62.8v96.4c0 48.7 8 62.7 43.2 62.7 12 0 22.6-1.5 32.1-2.5v52.2c-3 1-24.1 10-63.2 10-45.7 0-82.3-28.6-82.3-85.8v-133h-38.6v-57.7h38.6v-105.9h70.3v105.9h76.2v57.7z"
                fill="#293847" />
            <path
                d="m710.1 41.2c0-22.6 18-41.2 40.1-41.2s39.7 18.6 39.7 41.2-17.6 40.7-39.7 40.7c-22.3-.2-40.3-18.4-40.1-40.7z"
                fill="#e23a05" />
        </g>
        <!-- amazon -->
        <animateTransform id="t1" attributeName="transform" type="translate" begin="0s;tend.end" dur="2.5s" fill="freeze"
            from="0 0" to="0 0" />
        <!-- amazon to ebay -->
        <animateTransform id="t2" attributeName="transform" type="translate" begin="t1.end" dur="0.125s" fill="freeze"
            from="0 0" to="500 0" />
        <!-- ebay -->
        <animateTransform id="t3" attributeName="transform" type="translate" begin="t2.end" dur="2.5s" fill="freeze"
            from="500 0" to="500 0" />
        <!-- ebay to bol -->
        <animateTransform id="t4" attributeName="transform" type="translate" begin="t3.end" dur="0.125s" fill="freeze"
            from="500 0" to="1000 0" />
        <!-- bol -->
        <animateTransform id="t5" attributeName="transform" type="translate" begin="t4.end" dur="2.5s" fill="freeze"
            from="1000 0" to="1000 0" />
        <!-- bol to wallmart -->
        <animateTransform id="t6" attributeName="transform" type="translate" begin="t5.end" dur="0.125s" fill="freeze"
            from="1000 0" to="1500 0" />
        <!-- wallmart -->
        <animateTransform id="t7" attributeName="transform" type="translate" begin="t6.end" dur="2.5s" fill="freeze"
            from="1500 0" to="1500 0" />
        <!-- wallmart to shopify-->
        <animateTransform id="t8" attributeName="transform" type="translate" begin="t7.end" dur="0.125s" fill="freeze"
            from="1500 0" to="2000 0" />
        <!-- shopify -->
        <animateTransform id="t9" attributeName="transform" type="translate" begin="t8.end" dur="2.5s" fill="freeze"
            from="2000 0" to="2000 0" />
        <!-- shopify to cdiscount-->
        <animateTransform id="ta" attributeName="transform" type="translate" begin="t9.end" dur="0.125s" fill="freeze"
            from="2000 0" to="2500 0" />
        <!-- cdiscount-->
        <animateTransform id="tb" attributeName="transform" type="translate" begin="ta.end" dur="2.5s" fill="freeze"
            from="2500 0" to="2500 0" />
        <!-- cdiscount2 to amazon -->
        <animateTransform id="tend" attributeName="transform" type="translate" begin="tb.end" dur="0.125s" fill="freeze"
            from="-500 0" to="0 0" />
    </g>

</svg>