<?xml version="1.0" encoding="UTF-8" standalone="no"?>
<svg
   width="1670"
   height="254"
   viewBox="0 0 1670 254"
   fill="none"
   version="1.1"
   id="svg16"
   sodipodi:docname="ChannelEngine.svg"
   inkscape:version="1.3 (0e150ed6c4, 2023-07-21)"
   xmlns:inkscape="http://www.inkscape.org/namespaces/inkscape"
   xmlns:sodipodi="http://sodipodi.sourceforge.net/DTD/sodipodi-0.dtd"
   xmlns="http://www.w3.org/2000/svg"
   xmlns:svg="http://www.w3.org/2000/svg">
  <defs
     id="defs16" />
  <sodipodi:namedview
     id="namedview16"
     pagecolor="#ffffff"
     bordercolor="#000000"
     borderopacity="0.25"
     inkscape:showpageshadow="2"
     inkscape:pageopacity="0.0"
     inkscape:pagecheckerboard="0"
     inkscape:deskcolor="#d1d1d1"
     inkscape:zoom="0.8988024"
     inkscape:cx="835"
     inkscape:cy="127.39174"
     inkscape:window-width="2560"
     inkscape:window-height="1387"
     inkscape:window-x="1912"
     inkscape:window-y="-8"
     inkscape:window-maximized="1"
     inkscape:current-layer="svg16" />
  <path
     d="M415.818 132.544C414.01 130.22 411.54 128.348 408.442 126.911C405.343 125.491 402.163 124.781 398.935 124.781C395.562 124.781 392.527 125.458 389.816 126.814C387.104 128.17 384.764 129.994 382.827 132.253C380.89 134.513 379.357 137.144 378.259 140.114C377.162 143.1 376.613 146.263 376.613 149.62C376.613 152.994 377.129 156.157 378.162 159.127C379.195 162.113 380.713 164.728 382.73 166.987C384.731 169.247 387.12 171.039 389.912 172.33C392.689 173.621 395.836 174.267 399.322 174.267C402.55 174.267 405.762 173.653 408.926 172.427C412.089 171.2 414.656 169.425 416.592 167.084L434.25 188.632C430.231 192.521 425.066 195.556 418.723 197.751C412.38 199.946 405.649 201.043 398.531 201.043C390.897 201.043 383.763 199.881 377.146 197.541C370.528 195.217 364.782 191.811 359.892 187.356C355.001 182.886 351.176 177.495 348.367 171.152C345.575 164.808 344.171 157.626 344.171 149.604C344.171 141.712 345.575 134.594 348.367 128.251C351.16 121.908 355.001 116.501 359.892 112.046C364.766 107.575 370.528 104.153 377.146 101.764C383.763 99.3757 390.832 98.1652 398.338 98.1652C401.84 98.1652 405.294 98.488 408.716 99.1336C412.138 99.7792 415.446 100.651 418.61 101.748C421.773 102.846 424.695 104.202 427.342 105.832C429.989 107.446 432.297 109.221 434.234 111.174L415.818 132.544Z"
     fill="white"
     id="path1"
     style="fill:#151f39;fill-opacity:1" />
  <path
     d="M508.399 197.961V145.537C508.399 142.825 508.206 140.227 507.818 137.774C507.431 135.32 506.689 133.141 505.591 131.269C504.493 129.397 503.041 127.912 501.217 126.798C499.409 125.701 497.069 125.152 494.228 125.152C488.66 125.152 484.399 127.121 481.413 131.075C478.427 135.03 476.942 139.904 476.942 145.731V197.945H445.113V51.197H476.942V113.515H477.329C479.524 109.625 483.027 106.171 487.804 103.136C492.598 100.102 498.344 98.5688 505.074 98.5688C511.676 98.5688 517.212 99.7309 521.667 102.055C526.121 104.379 529.753 107.398 532.545 111.078C535.321 114.774 537.339 119.002 538.566 123.796C539.792 128.59 540.406 133.367 540.406 138.161V197.945H508.399V197.961Z"
     fill="white"
     id="path2"
     style="fill:#151f39;fill-opacity:1" />
  <path
     d="M560.063 114.483C565.761 109.044 572.394 104.976 579.964 102.249C587.534 99.5371 595.265 98.1652 603.158 98.1652C611.308 98.1652 618.2 99.1659 623.833 101.167C629.466 103.169 634.018 106.284 637.52 110.48C641.007 114.693 643.573 119.987 645.187 126.395C646.801 132.802 647.608 140.404 647.608 149.201V197.928H618.491V187.647H617.91C615.456 191.666 611.728 194.765 606.741 196.96C601.753 199.155 596.362 200.253 590.536 200.253C586.646 200.253 582.643 199.736 578.495 198.703C574.347 197.67 570.57 195.991 567.132 193.651C563.695 191.327 560.886 188.212 558.691 184.338C556.496 180.448 555.398 175.671 555.398 169.973C555.398 162.985 557.303 157.352 561.128 153.091C564.937 148.813 569.86 145.521 575.88 143.197C581.901 140.872 588.599 139.307 595.975 138.532C603.351 137.757 610.534 137.37 617.522 137.37V135.82C617.522 131.027 615.844 127.508 612.47 125.249C609.097 122.989 604.965 121.859 600.042 121.859C595.507 121.859 591.149 122.828 586.937 124.764C582.724 126.701 579.141 129.042 576.155 131.753L560.063 114.483ZM618.491 155.834H614.407C610.921 155.834 607.386 155.996 603.835 156.319C600.268 156.641 597.105 157.255 594.329 158.159C591.537 159.062 589.245 160.386 587.437 162.145C585.629 163.888 584.725 166.197 584.725 169.037C584.725 170.845 585.145 172.411 585.984 173.702C586.824 174.993 587.889 176.026 589.18 176.801C590.471 177.575 591.956 178.124 593.651 178.447C595.33 178.77 596.944 178.931 598.509 178.931C604.981 178.931 609.936 177.156 613.358 173.589C616.78 170.038 618.507 165.212 618.507 159.127V155.834H618.491Z"
     fill="white"
     id="path3"
     style="fill:#151f39;fill-opacity:1" />
  <path
     d="M732.106 197.961V145.15C732.106 142.438 731.88 139.839 731.428 137.386C730.976 134.933 730.234 132.754 729.201 130.881C728.168 129.009 726.715 127.524 724.827 126.411C722.955 125.313 720.582 124.764 717.741 124.764C714.901 124.764 712.399 125.313 710.268 126.411C708.138 127.508 706.346 129.025 704.926 130.978C703.506 132.915 702.44 135.159 701.73 137.677C701.02 140.194 700.665 142.825 700.665 145.537V197.944H668.643V101.264H699.503V114.661H699.89C701.052 112.595 702.569 110.561 704.458 108.543C706.33 106.542 708.541 104.831 711.059 103.395C713.577 101.974 716.337 100.812 719.307 99.9083C722.277 99.0044 725.456 98.5525 728.814 98.5525C735.286 98.5525 740.79 99.7146 745.309 102.039C749.844 104.363 753.492 107.381 756.284 111.061C759.06 114.757 761.078 118.986 762.305 123.78C763.531 128.573 764.145 133.351 764.145 138.145V197.928H732.106V197.961Z"
     fill="white"
     id="path4"
     style="fill:#151f39;fill-opacity:1" />
  <path
     d="M848.894 197.961V145.15C848.894 142.438 848.668 139.839 848.216 137.386C847.764 134.933 847.021 132.754 845.988 130.881C844.955 129.009 843.503 127.524 841.614 126.411C839.742 125.313 837.369 124.764 834.529 124.764C831.688 124.764 829.186 125.313 827.056 126.411C824.925 127.508 823.134 129.025 821.713 130.978C820.293 132.915 819.228 135.159 818.501 137.677C817.791 140.194 817.436 142.825 817.436 145.537V197.944H785.414V101.264H816.274V114.661H816.661C817.824 112.595 819.341 110.561 821.229 108.543C823.101 106.542 825.313 104.831 827.83 103.395C830.348 101.974 833.108 100.812 836.078 99.9083C839.048 99.0044 842.228 98.5525 845.585 98.5525C852.057 98.5525 857.561 99.7146 862.08 102.039C866.616 104.363 870.263 107.381 873.056 111.061C875.832 114.757 877.833 118.986 879.076 123.78C880.303 128.573 880.916 133.351 880.916 138.145V197.928H848.894V197.961Z"
     fill="white"
     id="path5"
     style="fill:#151f39;fill-opacity:1" />
  <path
     d="M997.596 150.783C997.596 152.074 997.596 153.366 997.596 154.673C997.596 155.964 997.532 157.191 997.402 158.369H927.321C927.58 161.081 928.387 163.55 929.742 165.745C931.098 167.94 932.841 169.861 934.988 171.475C937.118 173.089 939.523 174.364 942.17 175.268C944.817 176.172 947.577 176.624 950.418 176.624C955.47 176.624 959.731 175.688 963.233 173.815C966.736 171.943 969.577 169.506 971.772 166.536L993.9 180.514C989.365 187.115 983.376 192.199 975.936 195.75C968.495 199.301 959.86 201.092 950.015 201.092C942.768 201.092 935.908 199.963 929.436 197.703C922.963 195.443 917.298 192.135 912.456 187.809C907.598 183.467 903.789 178.141 900.996 171.798C898.204 165.455 896.816 158.208 896.816 150.057C896.816 142.164 898.172 135.014 900.9 128.606C903.611 122.199 907.307 116.759 911.972 112.305C916.636 107.834 922.124 104.38 928.467 101.926C934.81 99.4732 941.67 98.2303 949.046 98.2303C956.164 98.2303 962.701 99.4247 968.657 101.83C974.612 104.218 979.729 107.689 983.99 112.208C988.267 116.743 991.592 122.231 993.981 128.703C996.402 135.127 997.596 142.503 997.596 150.783ZM968.285 138.549C968.285 133.497 966.704 129.171 963.524 125.54C960.344 121.924 955.599 120.1 949.256 120.1C946.157 120.1 943.3 120.585 940.718 121.553C938.119 122.521 935.86 123.845 933.923 125.54C931.986 127.218 930.42 129.204 929.258 131.463C928.096 133.723 927.45 136.095 927.321 138.549H968.285Z"
     fill="white"
     id="path6"
     style="fill:#151f39;fill-opacity:1" />
  <path
     d="M1014.8 197.961V51.197H1047.22V197.945H1014.8V197.961Z"
     fill="white"
     id="path7"
     style="fill:#151f39;fill-opacity:1" />
  <path
     d="M1160.24 147.119C1160.24 148.071 1160.24 149.104 1160.24 150.201C1160.24 151.299 1160.18 152.461 1160.03 153.688H1080.49C1080.62 158.465 1081.59 162.985 1083.37 167.213C1085.14 171.458 1087.59 175.138 1090.74 178.286C1093.89 181.433 1097.57 183.919 1101.81 185.775C1106.04 187.615 1110.63 188.535 1115.55 188.535C1122.8 188.535 1129.04 186.856 1134.3 183.515C1139.57 180.174 1143.55 176.316 1146.3 171.926L1156.76 180.126C1151.01 187.373 1144.7 192.57 1137.79 195.701C1130.88 198.848 1123.47 200.414 1115.55 200.414C1108.45 200.414 1101.85 199.155 1095.78 196.621C1089.69 194.087 1084.46 190.568 1080.09 186.065C1075.71 181.562 1072.26 176.22 1069.74 170.07C1067.21 163.921 1065.95 157.223 1065.95 149.976C1065.95 142.729 1067.18 136.03 1069.65 129.881C1072.1 123.731 1075.52 118.405 1079.89 113.886C1084.27 109.383 1089.39 105.864 1095.28 103.33C1101.15 100.796 1107.51 99.5371 1114.34 99.5371C1121.86 99.5371 1128.48 100.796 1134.22 103.33C1139.97 105.864 1144.75 109.27 1148.57 113.579C1152.4 117.889 1155.3 122.908 1157.29 128.638C1159.26 134.416 1160.24 140.566 1160.24 147.119ZM1146.1 142.616C1145.7 133.593 1142.79 126.12 1137.39 120.164C1131.98 114.225 1124.3 111.255 1114.32 111.255C1109.67 111.255 1105.36 112.11 1101.41 113.821C1097.44 115.532 1093.95 117.856 1090.95 120.794C1087.95 123.731 1085.54 127.089 1083.77 130.833C1081.99 134.594 1080.96 138.516 1080.69 142.616H1146.1Z"
     fill="white"
     id="path8"
     style="fill:#151f39;fill-opacity:1" />
  <path
     d="M1197.38 102.023C1197.65 104.622 1197.86 107.495 1197.99 110.626C1198.12 113.773 1198.2 116.372 1198.2 118.422H1198.61C1201.33 112.821 1205.77 108.269 1211.92 104.783C1218.07 101.297 1224.56 99.5537 1231.39 99.5537C1243.56 99.5537 1252.68 103.169 1258.76 110.416C1264.85 117.663 1267.88 127.218 1267.88 139.114V197.945H1253.93V144.86C1253.93 139.808 1253.53 135.224 1252.71 131.124C1251.89 127.024 1250.48 123.506 1248.51 120.568C1246.53 117.631 1243.86 115.339 1240.52 113.709C1237.17 112.062 1232.97 111.255 1227.92 111.255C1224.22 111.255 1220.64 112.014 1217.15 113.515C1213.66 115.016 1210.55 117.308 1207.82 120.375C1205.08 123.441 1202.9 127.347 1201.27 132.06C1199.62 136.773 1198.82 142.342 1198.82 148.765V197.961H1184.87V123.135C1184.87 120.536 1184.81 117.195 1184.66 113.095C1184.53 108.996 1184.32 105.3 1184.05 102.023H1197.38Z"
     fill="white"
     id="path9"
     style="fill:#151f39;fill-opacity:1" />
  <path
     d="M1303.81 217.216C1307.63 222.139 1312.86 226.303 1319.48 229.725C1326.11 233.147 1333.12 234.842 1340.5 234.842C1347.32 234.842 1353.13 233.841 1357.91 231.872C1362.69 229.887 1366.55 227.191 1369.5 223.769C1372.44 220.348 1374.58 216.361 1375.96 211.777C1377.33 207.193 1378.01 202.319 1378.01 197.122V179.077H1377.6C1373.91 185.097 1368.69 189.73 1361.91 193.022C1355.15 196.299 1348.28 197.945 1341.32 197.945C1333.8 197.945 1327 196.718 1320.92 194.249C1314.83 191.795 1309.64 188.406 1305.34 184.097C1301.05 179.787 1297.69 174.638 1295.3 168.618C1292.91 162.614 1291.72 156.109 1291.72 149.153C1291.72 142.325 1292.91 135.902 1295.3 129.881C1297.69 123.877 1301.05 118.615 1305.34 114.096C1309.64 109.577 1314.83 106.042 1320.92 103.444C1327 100.845 1333.8 99.5537 1341.32 99.5537C1348.29 99.5537 1355.12 101.2 1361.82 104.477C1368.52 107.753 1373.78 112.466 1377.6 118.615H1378.01V102.023H1391.95V197.138C1391.95 202.335 1391.24 207.871 1389.8 213.746C1388.37 219.621 1385.7 225.028 1381.82 229.935C1377.93 234.842 1372.62 238.957 1365.93 242.234C1359.23 245.51 1350.55 247.157 1339.9 247.157C1331.02 247.157 1322.55 245.446 1314.48 242.04C1306.41 238.618 1299.52 233.906 1293.77 227.901L1303.81 217.216ZM1306.47 148.765C1306.47 153.817 1307.3 158.611 1308.93 163.114C1310.57 167.617 1312.93 171.588 1315.99 175.01C1319.08 178.431 1322.85 181.127 1327.37 183.112C1331.88 185.097 1337.01 186.082 1342.76 186.082C1348.08 186.082 1353 185.194 1357.51 183.419C1362.01 181.643 1365.92 179.109 1369.19 175.833C1372.47 172.556 1375.04 168.634 1376.88 164.05C1378.72 159.466 1379.64 154.382 1379.64 148.782C1379.64 143.73 1378.72 138.936 1376.88 134.433C1375.04 129.93 1372.47 125.959 1369.19 122.537C1365.92 119.116 1362.01 116.388 1357.51 114.338C1353 112.288 1348.08 111.255 1342.76 111.255C1337.01 111.255 1331.89 112.288 1327.37 114.338C1322.85 116.388 1319.08 119.116 1315.99 122.537C1312.93 125.959 1310.56 129.914 1308.93 134.433C1307.3 138.92 1306.47 143.714 1306.47 148.765Z"
     fill="white"
     id="path10"
     style="fill:#151f39;fill-opacity:1" />
  <path
     d="M1439.63 65.1262C1439.63 67.9992 1438.61 70.3556 1436.56 72.1956C1434.51 74.0356 1432.25 74.9556 1429.8 74.9556C1427.35 74.9556 1425.09 74.0356 1423.04 72.1956C1420.99 70.3556 1419.97 67.9992 1419.97 65.1262C1419.97 62.2532 1420.99 59.8967 1423.04 58.0567C1425.09 56.2168 1427.35 55.2968 1429.8 55.2968C1432.25 55.2968 1434.51 56.2168 1436.56 58.0567C1438.6 59.8967 1439.63 62.2532 1439.63 65.1262ZM1436.76 197.961H1422.81V102.023H1436.76V197.961Z"
     fill="white"
     id="path11"
     style="fill:#151f39;fill-opacity:1" />
  <path
     d="M1480.43 102.023C1480.71 104.622 1480.92 107.495 1481.05 110.626C1481.18 113.773 1481.26 116.372 1481.26 118.422H1481.66C1484.39 112.821 1488.83 108.269 1494.98 104.783C1501.13 101.297 1507.61 99.5537 1514.44 99.5537C1526.61 99.5537 1535.73 103.169 1541.82 110.416C1547.9 117.663 1550.94 127.218 1550.94 139.114V197.945H1536.99V144.86C1536.99 139.808 1536.59 135.224 1535.76 131.124C1534.94 127.024 1533.54 123.506 1531.57 120.568C1529.58 117.631 1526.92 115.339 1523.58 113.709C1520.22 112.062 1516.02 111.255 1510.97 111.255C1507.28 111.255 1503.69 112.014 1500.21 113.515C1496.72 115.016 1493.6 117.308 1490.88 120.375C1488.13 123.441 1485.95 127.347 1484.32 132.06C1482.68 136.773 1481.87 142.342 1481.87 148.765V197.961H1467.93V123.135C1467.93 120.536 1467.86 117.195 1467.72 113.095C1467.59 108.996 1467.38 105.3 1467.1 102.023H1480.43Z"
     fill="white"
     id="path12"
     style="fill:#151f39;fill-opacity:1" />
  <path
     d="M1669.45 147.119C1669.45 148.071 1669.45 149.104 1669.45 150.201C1669.45 151.299 1669.38 152.461 1669.24 153.688H1589.7C1589.83 158.465 1590.8 162.984 1592.57 167.213C1594.35 171.458 1596.8 175.138 1599.95 178.285C1603.1 181.433 1606.78 183.918 1611.02 185.775C1615.25 187.615 1619.83 188.535 1624.76 188.535C1632 188.535 1638.25 186.856 1643.51 183.515C1648.77 180.174 1652.76 176.316 1655.5 171.926L1665.96 180.125C1660.22 187.372 1653.91 192.57 1647 195.701C1640.09 198.848 1632.68 200.414 1624.76 200.414C1617.65 200.414 1611.05 199.155 1604.98 196.621C1598.9 194.087 1593.67 190.568 1589.3 186.065C1584.92 181.562 1581.47 176.22 1578.95 170.07C1576.42 163.921 1575.16 157.222 1575.16 149.975C1575.16 142.728 1576.38 136.03 1578.85 129.881C1581.31 123.731 1584.73 118.405 1589.1 113.886C1593.48 109.383 1598.59 105.864 1604.48 103.33C1610.36 100.796 1616.72 99.537 1623.55 99.537C1631.07 99.537 1637.68 100.796 1643.43 103.33C1649.18 105.864 1653.95 109.27 1657.78 113.579C1661.6 117.889 1664.51 122.908 1666.5 128.638C1668.45 134.416 1669.45 140.566 1669.45 147.119ZM1655.31 142.615C1654.91 133.593 1652 126.12 1646.59 120.164C1641.19 114.225 1633.5 111.255 1623.53 111.255C1618.88 111.255 1614.57 112.11 1610.62 113.821C1606.65 115.532 1603.16 117.856 1600.16 120.794C1597.16 123.731 1594.75 127.088 1592.98 130.833C1591.2 134.594 1590.17 138.516 1589.89 142.615H1655.31Z"
     fill="white"
     id="path13"
     style="fill:#151f39;fill-opacity:1" />
  <path
     d="M152.659 90.5796C146.542 112.288 137.665 133.593 126.221 153.333C123.058 158.853 119.507 164.389 115.956 169.715C100.558 171.104 85.3703 173.67 70.5697 177.414C63.6616 179.19 56.9472 181.159 50.249 183.338C65.6469 168.344 78.8658 151.364 89.712 132.431C105.11 105.994 114.972 76.5859 119.12 46.3874H100.768L140.619 0.000244141L180.485 46.1776H161.536C159.761 61.172 156.807 75.9726 152.659 90.5796Z"
     fill="#2095F3"
     id="path14" />
  <path
     d="M195.886 207.403C180.101 191.021 166.285 172.863 154.841 152.93C151.678 147.41 148.53 141.68 145.771 135.966C152.275 121.957 157.617 107.543 161.959 92.9525C163.928 86.2381 165.51 79.33 166.898 72.422C172.224 93.1461 180.311 113.079 191.173 132.222C206.571 158.66 226.892 182.144 250.973 200.705L260.044 184.92L280.171 242.541L220.177 253.79L229.652 237.408C217.789 228.127 206.345 218.056 195.886 207.403Z"
     fill="#2095F3"
     id="path15" />
  <path
     d="M0.910156 241.943L21.0371 184.322L30.5115 200.705C44.3275 194.588 58.531 189.859 73.138 186.098C95.234 180.578 117.927 177.802 140.83 177.802C147.335 177.802 153.662 177.995 160.166 178.399C169.044 191.021 178.712 202.868 189.38 213.924C194.319 219.056 199.452 223.785 204.778 228.531C184.248 222.607 162.749 219.654 140.847 219.654C110.261 219.654 79.8685 225.771 51.6552 237.214L60.7261 252.999L0.910156 241.943Z"
     fill="#2095F3"
     id="path16" />
</svg>
