<svg width="175" height="40" viewBox="0 0 175 40" fill="none" xmlns="http://www.w3.org/2000/svg">
<path d="M11.4459 0C15.9307 0 19.671 1.48918 22.7186 4.46754C25.7316 7.44589 27.2554 11.0823 27.2554 15.394C27.2554 19.7056 25.7316 23.342 22.7013 26.3204C19.671 29.2987 15.9134 30.7879 11.4286 30.7879H0V0H11.4459ZM6.61472 5.9394V24.8485H11.4459C13.9914 24.8485 16.1732 23.9308 17.974 22.0953C19.7749 20.2598 20.6753 18.026 20.6753 15.394C20.6753 12.7619 19.7922 10.5108 18.0433 8.69265C16.2771 6.85715 14.0953 5.9394 11.4632 5.9394H6.61472Z" fill="#0A4E47"/>
<path d="M38.2336 30.7706H32.2942V9.22949H38.2336V30.7706Z" fill="#0A4E47"/>
<path d="M70.2688 18.9089C70.2688 17.5409 69.9398 16.4674 69.2818 15.6708C68.6238 14.8916 67.7753 14.4933 66.7537 14.4933C65.6108 14.4933 64.6584 14.9435 63.9139 15.8267C63.1693 16.7098 62.8056 17.9565 62.8056 19.5496V30.7531H56.8835V18.8916C56.8835 17.5236 56.5545 16.45 55.8792 15.6535C55.2039 14.857 54.3727 14.476 53.3511 14.476C52.2082 14.476 51.2558 14.9262 50.5112 15.8093C49.7667 16.6925 49.3857 17.9392 49.3857 19.5323V30.7358H43.4636V9.22925H49.3857V11.8613C49.5242 11.6362 49.7493 11.3418 50.0437 11.0128C50.3381 10.6838 50.9788 10.2163 51.9658 9.64484C52.9528 9.07341 53.9918 8.77904 55.1173 8.77904C55.9658 8.77904 56.7623 8.91756 57.5069 9.1773C58.2515 9.43704 58.8403 9.74873 59.2905 10.0951C59.7407 10.4414 60.1216 10.805 60.4333 11.1686C60.7623 11.5323 60.9701 11.844 61.0913 12.121L61.2645 12.502C61.3164 12.4154 61.4203 12.2769 61.5589 12.1037C61.6974 11.9306 61.9918 11.6189 62.442 11.2033C62.8922 10.7877 63.3771 10.4067 63.8965 10.0604C64.416 9.73142 65.0913 9.41973 65.9225 9.15999C66.7537 8.90025 67.6368 8.76172 68.5372 8.76172C70.9095 8.76172 72.797 9.55826 74.1649 11.1513C75.5329 12.7444 76.2429 15.0994 76.2429 18.199V30.7358H70.3035V18.9089H70.2688Z" fill="#0A4E47"/>
<path d="M127.463 0V5.9394H118.684V30.7706H112.104V5.9394H103.307V0H127.463Z" fill="#0A4E47"/>
<path d="M135.81 30.5628L127.464 9.22949H133.628L138.667 23.5152L143.724 9.22949H149.853L141.299 32.0867C139.343 37.368 136.555 40.0001 132.953 40.0001C132.312 40.0001 131.672 39.9481 131.048 39.8269C130.425 39.7057 129.957 39.6018 129.646 39.4806L129.213 39.3248V34.0607C129.801 34.3551 130.529 34.4936 131.394 34.4936C133.178 34.4936 134.425 33.6797 135.135 32.0693L135.81 30.5628Z" fill="#0A4E47"/>
<path d="M169.005 0V11.8615L168.347 11.0649C167.896 10.5801 167.152 10.0779 166.078 9.55845C165.022 9.03897 163.862 8.77923 162.632 8.77923C159.844 8.77923 157.42 9.87014 155.36 12.0346C153.316 14.1991 152.277 16.8485 152.277 19.9827C152.277 23.1169 153.299 25.7663 155.36 27.9308C157.42 30.0953 159.827 31.1862 162.632 31.1862C163.412 31.1862 164.173 31.0823 164.901 30.8572C165.628 30.6494 166.217 30.3896 166.684 30.1126C167.134 29.8355 167.567 29.5238 167.966 29.1602C168.364 28.8139 168.624 28.5715 168.745 28.4329C168.866 28.2944 168.953 28.1905 169.022 28.1039V30.736H174.944V0H169.005ZM163.758 25.2121C160.883 25.2121 158.563 22.8918 158.563 20.0173C158.563 17.1429 160.883 14.8225 163.758 14.8225C166.632 14.8225 168.953 17.1429 168.953 20.0173C168.953 22.8745 166.632 25.2121 163.758 25.2121Z" fill="#0A4E47"/>
<path d="M35.2903 6.07774C36.9544 6.07774 38.3033 4.72878 38.3033 3.06475C38.3033 1.40072 36.9544 0.0517578 35.2903 0.0517578C33.6263 0.0517578 32.2773 1.40072 32.2773 3.06475C32.2773 4.72878 33.6263 6.07774 35.2903 6.07774Z" fill="#0A4E47"/>
<path d="M101.575 14.1301C100.034 11.4634 97.8697 9.74913 95.0646 9.00454C92.2594 8.24264 89.5407 8.64091 86.8741 10.182C84.2074 11.7232 82.4758 13.9916 81.6619 16.9872C81.4368 17.8184 81.2983 18.6323 81.2637 19.4288L86.8394 19.5154C86.7702 18.6842 86.8914 17.8877 87.1684 17.1084C87.5667 16.0349 88.3113 15.1864 89.4022 14.563C90.4931 13.9396 91.6013 13.7318 92.7269 13.9396C93.8524 14.1474 94.7875 14.7015 95.5667 15.5673L81.8351 23.4981C82.0775 24.1734 82.3719 24.8314 82.7529 25.4894C84.294 28.1561 86.5797 29.8704 89.61 30.6669C92.6403 31.4461 95.5321 31.0479 98.268 29.4721C99.2377 28.918 100.104 28.26 100.883 27.5154C101.662 26.7708 102.251 26.0782 102.666 25.4548C103.065 24.8314 103.411 24.1907 103.705 23.5327C104 22.8747 104.173 22.4072 104.242 22.1647L104.381 21.6279L99.7572 19.7405L99.5494 20.6236C99.4282 21.195 99.0819 21.9223 98.4758 22.7708C97.8698 23.6193 97.0905 24.3292 96.1208 24.8833C94.7875 25.6626 93.4715 25.9396 92.1901 25.7491C90.9087 25.5587 89.8697 25.0046 89.0905 24.1041L102.597 16.2946L101.575 14.1301Z" fill="#50D0AA"/>
<path d="M87.0013 6.71407L83.4023 8.79199L85.0474 11.6412L88.6463 9.56325L87.0013 6.71407Z" fill="#50D0AA"/>
<path d="M99.5001 28.3586L95.9011 30.4365L97.5461 33.2857L101.145 31.2078L99.5001 28.3586Z" fill="#50D0AA"/>
</svg>
