<?xml version="1.0" encoding="UTF-8" standalone="no"?>
<svg
   enable-background="new 0 0 607.3 80"
   viewBox="0 0 607.3 80"
   version="1.1"
   id="svg13"
   sodipodi:docname="KhooCommerce.svg"
   inkscape:version="1.3 (0e150ed6c4, 2023-07-21)"
   xmlns:inkscape="http://www.inkscape.org/namespaces/inkscape"
   xmlns:sodipodi="http://sodipodi.sourceforge.net/DTD/sodipodi-0.dtd"
   xmlns="http://www.w3.org/2000/svg"
   xmlns:svg="http://www.w3.org/2000/svg">
  <defs
     id="defs13" />
  <sodipodi:namedview
     id="namedview13"
     pagecolor="#ffffff"
     bordercolor="#000000"
     borderopacity="0.25"
     inkscape:showpageshadow="2"
     inkscape:pageopacity="0.0"
     inkscape:pagecheckerboard="0"
     inkscape:deskcolor="#d1d1d1"
     inkscape:zoom="2.2674132"
     inkscape:cx="303.64999"
     inkscape:cy="39.913325"
     inkscape:window-width="2560"
     inkscape:window-height="1387"
     inkscape:window-x="1912"
     inkscape:window-y="-8"
     inkscape:window-maximized="1"
     inkscape:current-layer="svg13" />
  <g
     fill="#fff"
     id="g13"
     style="fill:#11313e;fill-opacity:1">
    <path
       d="m51.6 71.8h-17.1l-13.7-20.1h-.3v20.1h-13.8v-63.6h13.9v38.6h.3l13.4-17h16.7l-16.2 19z"
       id="path1"
       style="fill:#11313e;fill-opacity:1" />
    <path
       d="m82.5 71.8v-22.7c0-1.2-.1-2.3-.3-3.4s-.5-2-1-2.8-1.1-1.5-1.9-1.9c-.8-.5-1.8-.7-3-.7-2.4 0-4.3.9-5.5 2.6-1.3 1.7-1.9 3.8-1.9 6.3v22.6h-13.8v-63.6h13.8v27h.2c1-1.7 2.5-3.2 4.5-4.5 2.1-1.3 4.6-2 7.5-2s5.2.5 7.2 1.5c1.9 1 3.5 2.3 4.7 3.9s2.1 3.4 2.6 5.5.8 4.1.8 6.2v25.9z"
       id="path2"
       style="fill:#11313e;fill-opacity:1" />
    <path
       d="m147.1 50.7c0 3.4-.6 6.5-1.8 9.3s-2.9 5.1-5 7.1c-2.1 1.9-4.6 3.4-7.4 4.5s-5.8 1.6-9 1.6c-3.1 0-6.1-.5-8.9-1.6s-5.3-2.6-7.4-4.5-3.8-4.3-5-7.1-1.8-5.9-1.8-9.3.6-6.5 1.8-9.2 2.9-5.1 5-7 4.6-3.4 7.4-4.4 5.8-1.5 8.9-1.5c3.2 0 6.2.5 9 1.5s5.3 2.5 7.4 4.4 3.8 4.2 5 7c1.2 2.7 1.8 5.8 1.8 9.2zm-13.3 0c0-1.3-.2-2.7-.7-3.9-.4-1.3-1.1-2.4-1.9-3.4s-1.9-1.8-3.1-2.4-2.7-.9-4.3-.9-3.1.3-4.3.9-2.3 1.4-3.1 2.4-1.4 2.1-1.8 3.4-.6 2.6-.6 3.9.2 2.7.6 3.9c.4 1.3 1 2.5 1.9 3.5.8 1 1.9 1.9 3.1 2.5s2.7.9 4.3.9 3.1-.3 4.3-.9 2.3-1.4 3.1-2.5c.8-1 1.5-2.2 1.9-3.5s.6-2.6.6-3.9z"
       opacity=".7"
       id="path3"
       style="fill:#11313e;fill-opacity:1" />
    <path
       d="m185.1 50.7c0 3.4-.6 6.5-1.8 9.3s-2.9 5.1-5 7.1c-2.1 1.9-4.6 3.4-7.4 4.5s-5.8 1.6-9 1.6c-3.1 0-6.1-.5-8.9-1.6s-5.3-2.6-7.4-4.5-3.8-4.3-5-7.1-1.8-5.9-1.8-9.3.6-6.5 1.8-9.2 2.9-5.1 5-7 4.6-3.4 7.4-4.4 5.8-1.5 8.9-1.5c3.2 0 6.2.5 9 1.5s5.3 2.5 7.4 4.4 3.8 4.2 5 7c1.1 2.7 1.8 5.8 1.8 9.2zm-13.3 0c0-1.3-.2-2.7-.7-3.9-.4-1.3-1.1-2.4-1.9-3.4s-1.9-1.8-3.1-2.4-2.7-.9-4.3-.9-3.1.3-4.3.9-2.3 1.4-3.1 2.4-1.4 2.1-1.8 3.4-.6 2.6-.6 3.9.2 2.7.6 3.9c.4 1.3 1 2.5 1.9 3.5.8 1 1.9 1.9 3.1 2.5s2.7.9 4.3.9 3.1-.3 4.3-.9 2.3-1.4 3.1-2.5c.8-1 1.5-2.2 1.9-3.5s.6-2.6.6-3.9z"
       opacity=".7"
       id="path4"
       style="fill:#11313e;fill-opacity:1" />
    <path
       d="m219.3 43.4c-.8-1-1.8-1.8-3.2-2.4-1.3-.6-2.7-.9-4.1-.9-1.5 0-2.8.3-3.9.9-1.2.6-2.2 1.4-3 2.4s-1.5 2.1-2 3.4-.7 2.7-.7 4.1c0 1.5.2 2.8.7 4.1.4 1.3 1.1 2.4 2 3.4s1.9 1.8 3.1 2.3c1.2.6 2.6.8 4.1.8 1.4 0 2.8-.3 4.2-.8s2.5-1.3 3.3-2.3l7.6 9.3c-1.7 1.7-4 3-6.7 3.9-2.7 1-5.7 1.4-8.7 1.4-3.3 0-6.4-.5-9.3-1.5s-5.4-2.5-7.5-4.4-3.8-4.3-5-7-1.8-5.9-1.8-9.3.6-6.5 1.8-9.2 2.9-5.1 5-7 4.6-3.4 7.5-4.5c2.9-1 5.9-1.6 9.2-1.6 1.5 0 3 .1 4.5.4s2.9.7 4.3 1.1c1.4.5 2.6 1.1 3.8 1.8 1.1.7 2.1 1.5 3 2.3z"
       id="path5"
       style="fill:#11313e;fill-opacity:1" />
    <path
       d="m274.4 50.7c0 3.4-.6 6.5-1.8 9.3s-2.9 5.1-5 7.1c-2.1 1.9-4.6 3.4-7.4 4.5s-5.8 1.6-9 1.6c-3.1 0-6.1-.5-8.9-1.6s-5.3-2.6-7.4-4.5-3.8-4.3-5-7.1-1.8-5.9-1.8-9.3.6-6.5 1.8-9.2 2.9-5.1 5-7 4.6-3.4 7.4-4.4 5.8-1.5 8.9-1.5c3.2 0 6.2.5 9 1.5s5.3 2.5 7.4 4.4 3.8 4.2 5 7c1.1 2.7 1.8 5.8 1.8 9.2zm-13.3 0c0-1.3-.2-2.7-.7-3.9-.4-1.3-1.1-2.4-1.9-3.4s-1.9-1.8-3.1-2.4-2.7-.9-4.3-.9-3.1.3-4.3.9-2.3 1.4-3.1 2.4-1.4 2.1-1.8 3.4-.6 2.6-.6 3.9.2 2.7.6 3.9c.4 1.3 1.1 2.5 1.9 3.5s1.9 1.9 3.1 2.5 2.7.9 4.3.9 3.1-.3 4.3-.9 2.3-1.4 3.1-2.5c.8-1 1.5-2.2 1.9-3.5s.6-2.6.6-3.9z"
       id="path6"
       style="fill:#11313e;fill-opacity:1" />
    <path
       d="m331.5 71.8v-22.9c0-1.2-.1-2.3-.3-3.4s-.5-2-.9-2.8-1.1-1.4-1.8-1.9c-.8-.5-1.8-.7-3-.7s-2.2.3-3.1.8-1.6 1.2-2.2 2-1 1.8-1.3 2.9-.4 2.2-.4 3.4v22.6h-13.8v-23.9c0-2.4-.5-4.3-1.4-5.7-1-1.4-2.5-2.1-4.5-2.1-2.2 0-3.9.9-5.1 2.6s-1.8 3.9-1.8 6.4v22.7h-13.9v-41.9h13.4v5.8h.2c.5-.9 1.1-1.8 1.9-2.6s1.7-1.6 2.7-2.2c1.1-.6 2.3-1.2 3.6-1.6s2.8-.6 4.3-.6c3 0 5.6.6 7.7 1.8s3.7 3 4.9 5.3c1.4-2.2 3.2-3.9 5.4-5.2s4.8-1.9 8-1.9c2.9 0 5.2.5 7.2 1.6 1.9 1 3.5 2.4 4.7 4 1.2 1.7 2 3.5 2.6 5.5.5 2 .8 4 .8 6v25.9h-13.9z"
       id="path7"
       style="fill:#11313e;fill-opacity:1" />
    <path
       d="m403.2 71.8v-22.9c0-1.2-.1-2.3-.3-3.4s-.5-2-.9-2.8-1-1.4-1.8-1.9-1.8-.7-3-.7-2.2.3-3.1.8-1.6 1.2-2.2 2-1 1.8-1.3 2.9-.4 2.2-.4 3.4v22.6h-13.8v-23.9c0-2.4-.5-4.3-1.4-5.7-1-1.4-2.5-2.1-4.5-2.1-2.2 0-3.9.9-5.1 2.6s-1.8 3.9-1.8 6.4v22.7h-13.9v-41.9h13.4v5.8h.2c.5-.9 1.1-1.8 1.9-2.6s1.7-1.6 2.7-2.2c1.1-.6 2.3-1.2 3.6-1.6s2.8-.6 4.3-.6c3 0 5.6.6 7.7 1.8s3.7 3 4.9 5.3c1.4-2.2 3.2-3.9 5.4-5.2s4.8-1.9 8-1.9c2.9 0 5.2.5 7.2 1.6 1.9 1 3.5 2.4 4.7 4 1.2 1.7 2 3.5 2.6 5.5.5 2 .8 4 .8 6v25.9h-13.9z"
       id="path8"
       style="fill:#11313e;fill-opacity:1" />
    <path
       d="m464.7 51.3v1.7c0 .6 0 1.1-.1 1.6h-30.3c.1 1.2.5 2.2 1.1 3.2s1.3 1.8 2.3 2.5c.9.7 2 1.2 3.1 1.6s2.3.6 3.6.6c2.2 0 4-.4 5.5-1.2s2.7-1.9 3.7-3.1l9.6 6c-2 2.9-4.6 5.1-7.8 6.6s-7 2.3-11.2 2.3c-3.1 0-6.1-.5-8.9-1.5s-5.2-2.4-7.3-4.3-3.8-4.2-5-6.9-1.8-5.9-1.8-9.4c0-3.4.6-6.5 1.8-9.3s2.8-5.1 4.8-7.1c2-1.9 4.4-3.4 7.1-4.5s5.7-1.6 8.9-1.6c3.1 0 5.9.5 8.5 1.6 2.6 1 4.8 2.5 6.6 4.5s3.3 4.3 4.3 7.1c1 2.9 1.5 6.1 1.5 9.6zm-12.7-5.3c0-2.2-.7-4.1-2.1-5.6-1.4-1.6-3.4-2.4-6.2-2.4-1.3 0-2.6.2-3.7.6s-2.1 1-2.9 1.7-1.5 1.6-2 2.6-.8 2-.8 3.1z"
       id="path9"
       style="fill:#11313e;fill-opacity:1" />
    <path
       d="m496.2 41.3c-.6-.2-1.2-.3-1.8-.3-.6-.1-1.2-.1-1.7-.1-1.8 0-3.4.3-4.7 1s-2.3 1.5-3 2.4c-.8 1-1.3 2-1.6 3.1s-.5 2.1-.5 2.9v21.4h-13.8v-41.7h13.3v6h.2c1.1-2.1 2.6-3.9 4.5-5.2 2-1.4 4.2-2 6.8-2 .6 0 1.1 0 1.6.1s1 .1 1.3.3z"
       id="path10"
       style="fill:#11313e;fill-opacity:1" />
    <path
       d="m528.9 43.4c-.8-1-1.8-1.8-3.2-2.4-1.3-.6-2.7-.9-4.1-.9-1.5 0-2.8.3-3.9.9-1.2.6-2.2 1.4-3 2.4s-1.5 2.1-2 3.4-.7 2.7-.7 4.1c0 1.5.2 2.8.7 4.1.4 1.3 1.1 2.4 2 3.4s1.9 1.8 3.1 2.3c1.2.6 2.6.8 4.1.8 1.4 0 2.8-.3 4.2-.8s2.5-1.3 3.3-2.3l7.6 9.3c-1.7 1.7-4 3-6.7 3.9-2.7 1-5.7 1.4-8.7 1.4-3.3 0-6.4-.5-9.3-1.5s-5.4-2.5-7.5-4.4-3.8-4.3-5-7-1.8-5.9-1.8-9.3.6-6.5 1.8-9.2 2.9-5.1 5-7 4.6-3.4 7.5-4.5c2.9-1 5.9-1.6 9.2-1.6 1.5 0 3 .1 4.5.4s2.9.7 4.3 1.1c1.4.5 2.6 1.1 3.8 1.8 1.1.7 2.1 1.5 3 2.3z"
       id="path11"
       style="fill:#11313e;fill-opacity:1" />
    <path
       d="m581.2 51.3v1.7c0 .6 0 1.1-.1 1.6h-30.3c.1 1.2.5 2.2 1.1 3.2s1.3 1.8 2.3 2.5c.9.7 2 1.2 3.1 1.6s2.3.6 3.6.6c2.2 0 4-.4 5.5-1.2s2.7-1.9 3.7-3.1l9.6 6c-2 2.9-4.6 5.1-7.8 6.6s-7 2.3-11.2 2.3c-3.1 0-6.1-.5-8.9-1.5s-5.2-2.4-7.4-4.3c-2.1-1.9-3.8-4.2-5-6.9s-1.8-5.9-1.8-9.4c0-3.4.6-6.5 1.8-9.3s2.8-5.1 4.8-7.1c2-1.9 4.4-3.4 7.1-4.5s5.7-1.6 8.9-1.6c3.1 0 5.9.5 8.5 1.6 2.6 1 4.8 2.5 6.6 4.5s3.3 4.3 4.3 7.1c1.1 2.9 1.6 6.1 1.6 9.6zm-12.7-5.3c0-2.2-.7-4.1-2.1-5.6-1.4-1.6-3.4-2.4-6.2-2.4-1.3 0-2.6.2-3.7.6s-2.1 1-2.9 1.7-1.5 1.6-2 2.6-.8 2-.8 3.1z"
       id="path12"
       style="fill:#11313e;fill-opacity:1" />
    <path
       d="m601.3 64.4c0 2.4-.8 4.3-2.5 5.9s-3.6 2.4-5.9 2.4c-1.2 0-2.3-.2-3.3-.6s-1.9-1-2.7-1.7-1.4-1.6-1.8-2.6-.7-2.1-.7-3.2.2-2.2.7-3.2c.4-1 1.1-1.9 1.8-2.6.8-.8 1.7-1.4 2.7-1.8s2.1-.7 3.3-.7c2.3 0 4.3.8 5.9 2.4 1.7 1.3 2.5 3.3 2.5 5.7z"
       id="path13"
       style="fill:#11313e;fill-opacity:1" />
  </g>
</svg>
