<svg xmlns="http://www.w3.org/2000/svg" version="1.0" width="500" height="301.354"><g><g fill-rule="evenodd"><path d="M310.19 217.834c-29.056 21.417-71.17 32.843-107.43 32.843-50.843 0-96.614-18.805-131.241-50.08-2.72-2.46-.283-5.812 2.981-3.896 37.37 21.743 83.577 34.823 131.307 34.823 32.19 0 67.6-6.66 100.16-20.48 4.92-2.09 9.033 3.22 4.223 6.79" fill="#f90"/><path d="M322.27 204.014c-3.7-4.745-24.551-2.242-33.91-1.132-2.85.348-3.286-2.133-.718-3.918 16.606-11.688 43.856-8.314 47.033-4.396 3.178 3.94-.827 31.254-16.432 44.29-2.394 2.003-4.68.937-3.613-1.719 3.504-8.749 11.361-28.359 7.64-33.125" fill="#f90"/><path d="M289.013 116.454v-11.361c0-1.72 1.306-2.873 2.873-2.873h50.864c1.633 0 2.938 1.175 2.938 2.873v9.729c-.021 1.632-1.393 3.765-3.83 7.139L315.5 159.59c9.794-.239 20.132 1.22 29.012 6.226 2.002 1.131 2.547 2.785 2.699 4.418v12.123c0 1.654-1.828 3.59-3.744 2.59-15.648-8.206-36.434-9.098-53.737.087-1.763.957-3.613-.958-3.613-2.612v-11.514c0-1.85.022-5.005 1.872-7.813l30.536-43.79h-26.575c-1.632 0-2.938-1.154-2.938-2.852M103.47 187.342H87.994c-1.48-.109-2.656-1.219-2.765-2.634v-79.42c0-1.588 1.328-2.85 2.982-2.85h14.43c1.502.065 2.699 1.219 2.808 2.655v10.382h.283c3.765-10.034 10.839-14.713 20.372-14.713 9.685 0 15.735 4.68 20.088 14.713 3.744-10.034 12.254-14.713 21.373-14.713 6.486 0 13.581 2.677 17.913 8.684 4.897 6.682 3.895 16.389 3.895 24.899l-.021 50.124c0 1.589-1.328 2.873-2.982 2.873h-15.453c-1.545-.109-2.786-1.35-2.786-2.873v-42.093c0-3.352.305-11.71-.435-14.887-1.154-5.332-4.614-6.834-9.098-6.834-3.743 0-7.66 2.503-9.25 6.507-1.589 4.005-1.436 10.709-1.436 15.214v42.093c0 1.589-1.328 2.873-2.982 2.873h-15.453c-1.567-.109-2.786-1.35-2.786-2.873l-.022-42.093c0-8.858 1.459-21.895-9.532-21.895-11.122 0-10.687 12.71-10.687 21.895v42.093c0 1.589-1.328 2.873-2.982 2.873M389.479 100.762c22.962 0 35.39 19.719 35.39 44.792 0 24.224-13.734 43.442-35.39 43.442-22.548 0-34.824-19.719-34.824-44.291 0-24.725 12.428-43.943 34.824-43.943m.13 16.215c-11.404 0-12.122 15.54-12.122 25.225 0 9.707-.153 30.427 11.992 30.427 11.992 0 12.558-16.715 12.558-26.901 0-6.704-.283-14.713-2.307-21.069-1.741-5.528-5.202-7.682-10.12-7.682M454.642 187.342h-15.409c-1.545-.109-2.786-1.35-2.786-2.873l-.022-79.441c.131-1.458 1.415-2.59 2.982-2.59h14.343c1.35.065 2.46.98 2.764 2.22v12.144h.283c4.331-10.86 10.404-16.04 21.09-16.04 6.943 0 13.712 2.503 18.065 9.359C500 116.476 500 127.162 500 134.845v49.994c-.174 1.393-1.458 2.503-2.982 2.503H481.5c-1.415-.109-2.59-1.154-2.742-2.503V141.7c0-8.684 1-21.394-9.686-21.394-3.765 0-7.225 2.524-8.945 6.355-2.176 4.853-2.46 9.685-2.46 15.04v42.767c-.021 1.589-1.37 2.873-3.025 2.873M248.466 149.406c0 6.029.152 11.056-2.895 16.41-2.46 4.353-6.377 7.03-10.708 7.03-5.942 0-9.424-4.527-9.424-11.208 0-13.19 11.818-15.584 23.027-15.584v3.352m15.605 37.718c-1.023.914-2.503.98-3.657.37-5.136-4.266-6.072-6.246-8.88-10.316-8.488 8.662-14.517 11.252-25.508 11.252-13.037 0-23.157-8.031-23.157-24.115 0-12.558 6.79-21.112 16.497-25.29 8.401-3.7 20.133-4.354 29.1-5.377v-2.002c0-3.678.283-8.031-1.894-11.209-1.872-2.851-5.485-4.026-8.684-4.026-5.898 0-11.144 3.025-12.428 9.293-.26 1.393-1.284 2.764-2.699 2.83l-14.995-1.611c-1.263-.283-2.677-1.306-2.307-3.243 3.438-18.195 19.892-23.68 34.605-23.68 7.531 0 17.369 2.002 23.31 7.705 7.531 7.03 6.813 16.41 6.813 26.618v24.115c0 7.248 3.003 10.426 5.833 14.343.98 1.393 1.197 3.069-.066 4.114-3.156 2.633-8.77 7.53-11.861 10.273l-.022-.044M45.597 149.406c0 6.029.152 11.056-2.895 16.41-2.46 4.353-6.355 7.03-10.708 7.03-5.942 0-9.402-4.527-9.402-11.208 0-13.19 11.818-15.584 23.005-15.584v3.352m15.605 37.718c-1.023.914-2.503.98-3.656.37-5.137-4.266-6.05-6.246-8.88-10.316-8.488 8.662-14.495 11.252-25.508 11.252C10.142 188.43 0 180.399 0 164.315c0-12.558 6.812-21.112 16.498-25.29 8.4-3.7 20.132-4.354 29.099-5.377v-2.002c0-3.678.283-8.031-1.872-11.209-1.893-2.851-5.506-4.026-8.684-4.026-5.898 0-11.165 3.025-12.45 9.293-.26 1.393-1.283 2.764-2.676 2.83l-15.018-1.611c-1.262-.283-2.655-1.306-2.307-3.243C6.05 105.485 22.483 100 37.196 100c7.53 0 17.368 2.002 23.31 7.705 7.53 7.03 6.812 16.41 6.812 26.618v24.115c0 7.248 3.004 10.426 5.833 14.343 1.001 1.393 1.219 3.069-.043 4.114-3.156 2.633-8.772 7.53-11.862 10.273l-.044-.044"/></g><g transform="matrix(.8 0 0 .8 -367.5 100)"><path d="M38.866 26.308C17.721 26.308.1 35.28.1 62.345c0 21.442 11.849 34.944 39.312 34.944 32.327 0 34.399-21.294 34.399-21.294H58.147s-3.358 11.466-19.69 11.466c-13.302 0-22.87-8.986-22.87-21.58H75.45v-7.904c0-12.46-7.91-31.669-36.583-31.669zM38.32 36.41c12.663 0 21.295 7.758 21.295 19.384h-43.68c0-12.343 11.266-19.384 22.385-19.384z" fill="#e53238"/><path d="M75.438.1v83.597c0 4.745-.339 11.408-.339 11.408h14.94s.536-4.785.536-9.159c0 0 7.381 11.548 27.451 11.548 21.135 0 35.49-14.673 35.49-35.695 0-19.557-13.186-35.286-35.456-35.286-20.854 0-27.334 11.262-27.334 11.262V.1zm38.766 36.753c14.352 0 23.478 10.652 23.478 24.946 0 15.328-10.54 25.355-23.375 25.355-15.318 0-23.581-11.96-23.581-25.219 0-12.354 7.414-25.082 23.478-25.082z" fill="#0064d2"/><path d="M190.645 26.308c-31.812 0-33.852 17.42-33.852 20.203h15.834s.83-10.17 16.926-10.17c10.46 0 18.564 4.788 18.564 13.992v3.276h-18.564c-24.645 0-37.674 7.21-37.674 21.84 0 14.398 12.038 22.233 28.307 22.233 22.171 0 29.313-12.251 29.313-12.251 0 4.872.376 9.674.376 9.674h14.076s-.546-5.952-.546-9.76V52.431c0-21.58-17.407-26.123-32.76-26.123zm17.472 37.129v4.368c0 5.697-3.515 19.86-24.212 19.86-11.333 0-16.192-5.655-16.192-12.216 0-11.935 16.364-12.012 40.404-12.012z" fill="#f5af02"/><path d="M214.879 29.041h17.813l25.565 51.218 25.507-51.218H299.9l-46.46 91.183h-16.925l13.406-25.418z" fill="#86b817"/><circle cx="150" cy="60" r="175" stroke="#0064d2" stroke-width="16" fill="none"/></g><path fill="#3366CA" d="M-538.271 146.297c19.422 0 35.192-15.77 35.192-35.192s-15.77-35.192-35.192-35.192-35.192 15.77-35.192 35.192c.166 19.422 15.77 35.192 35.192 35.192z"/><path fill="#FFF" d="M-538.271 147.376c-19.837 0-36.271-16.185-36.271-36.271 0-20.086 16.434-36.105 36.271-36.105S-502 91.185-502 111.271c0 20.086-16.185 36.105-36.271 36.105zm0-70.218c-18.758 0-34.113 15.355-34.113 34.113s15.355 34.113 34.113 34.113 34.113-15.355 34.113-34.113-15.355-34.113-34.113-34.113z"/><path fill="#FFF" d="M-546.737 86.288c.249 0 0 .415.249.415l.249.249.249.249c.249 0 0 .249.249.249s.249.249.249.249c.249 0 0 .249.249.249 0 .249.249.415 0 .415-.249.249-.249.415-.664.415 0 .249-.249 0-.415.249-.415.249-.664.415-1.079.664-.249.249-.415.249-.664.415 0 .249-.415.249-.664.415-.249 0-.415.249-.664.415-.249.249-.415.249-.664.415-.249 0-.249.249-.249.249-.249.415-.83.415-1.079.83-.415.249-.83.83-1.328 1.079 0 .249-.415.249-.415.664-.249 0-.249.415-.664.415-.249.415-.664.664-.83.83l-.664.664c-.249.415-.664.415-.664.83-.249.249-.664.415-.664.83 0 0 0 .249-.249.249-.415.415-.83.664-1.079 1.328a3.621 3.621 0 00-.664.83c-.249.249-.415.415-.415.664l-.664.664v.249c-.249.249-.249.415-.415.83 0 .249-.249.249-.249.415-.249.249 0 .664-.415.83-.249.249 0 .249-.249.415v.249c0 .249-.249.415-.249.83-.249.249 0 .415-.249.664 0 .664-.249 1.079 0 1.494v1.328c-.249.249 0 .249.249.415v.415c0 .249.249.249.249.415v.249c.249.249.415.415.415.664.249 0 .249.415.664.415.249.249.249.249.415.249.166 0 .415.249.664.249.249 0 .415.249.664.249.249 0 .415.249.664.249.83.249 1.743.249 2.573.249h.249c.249 0 .664-.249.83-.249.166 0 .415-.249.664 0 .415-.249 1.079-.415 1.494-.415 0-.249.249 0 .415-.249.249 0 .664 0 .664-.249 0 0 .249 0 .249-.249.415 0 .664-.415 1.079-.415.249-.249.249-.249.415-.249.249-.249.249-.249.415-.249.166 0 .415-.249.664-.249.249 0 .249-.249.415-.249 0 0 .249 0 .249-.249.249 0 .415-.249.83-.415h.249l.415-.415c.415 0 .664-.664 1.079-.664 0-.249.249 0 .249-.249.249-.249.415-.415.664-.415 0 0 .249 0 .249-.249.249-.249.249-.415.664-.415l1.328-1.328c.249 0 .249-.249.415-.415.166-.166.249-.415.415-.664.166-.249.415-.415.415-.415 0-.249.415-.415.415-.664.249-.249.249-.664.415-.83 0-.249.249-.415.249-.664v-.415c.249-.664 0-1.079-.415-1.494 0-.415-.415-.415-.415-.664-.249-.249-.415-.415-.664-.415-.249-.249-.415-.249-.415-.249-.249-.249-.664 0-.83-.249-.415 0-.664-.249-1.079 0h-.415c-.249 0-.415-.249-.664 0-.415 0-.83 0-1.328.249 0 .249-.249 0-.415 0-.249 0-.249.249-.415 0-.249.249-.415.249-.83.249-.249.249-.415.249-.664.249h-.249c-.415.249-.83.249-1.328.664-.415 0-.415.415-.83.415-.249.249-.415.249-.664.415-.249.249-.664.415-.83.664 0 .249-.415.249-.415.415h-.249c0 .249-.249.249-.249.415-.415.415-.664.83-.83 1.079 0 .249-.415.249-.249.415-.249.249-.249.415-.249.664 0 0 0 .249-.249.249s0 .249-.249.415c0 .249 0 .415-.249.415 0 .249-.249.249-.249.249l-.249.249c-.249 0 0 .249 0 .249l-.249.249v.249c-.249 0 0 .415-.249.249h-.249v-.664s0-.249.249-.249c0 0 0-.249-.249 0v.249s0 .249-.249.249v.249s-.249-.249 0-.249v-.415h-.249c0 .249 0 .249-.249.415v.415s-.249 0-.249-.249v-.249c.249-.249 0-.249.249-.415-.249-.249 0-.664 0-.83-.249.249-.249.415-.415.664v.249l-.249.249c-.249.249-.249-.249-.249-.415.249 0 0-.249.249-.415 0-.415.249-.664.249-1.079.249 0 0-.249 0-.249 0-.249.249-.415.249-.664.249-.415.249-1.079.664-1.328 0-.249.249-.249.249-.415.249-.415.664-.83.83-1.328.249-.249.415-.664.664-.83.415-.249.415-.664.83-.83.415-.415.83-.83 1.328-1.079 0 0 .249-.249.415-.249.415-.415 1.079-.664 1.494-.83.249-.249.415-.249.664-.249.249-.249.664-.249.83-.415.249-.249.83-.249 1.079-.415h.83c.415 0 .83-.249 1.079 0 .664 0 1.328 0 1.909.249.249 0 .415.249.664.249.249.249.664.249 1.079.415.415 0 .664.249.83.415.249.249.415.415.83.664.249.249.249.249.249.415.249.249.415.249.415.415.249.249.249.664.415.83 0 .415.415.664.415.83 0 .166.249.415.249.664.249.249.249.664.249.83.249.249 0 .415 0 .664v.415c0 .166 0 .664-.249.83 0 .249-.249.249-.249.415 0 .166-.249.249 0 .415-.249.249 0 .249-.249.415 0 .415-.415.664-.415.83 0 0 0 .249-.249.249 0 .249-.249.415-.415.664-.166.249-.415.415-.664.83-.415.249-.415.664-.83.83l-1.079 1.079-.415.415c-.249.415-.415.415-.664.664-.249 0-.249.249-.249.249-.249 0-.415.415-.664.415l-.249.249c-.249 0-.249.249-.415.249-.415.249-.83.415-1.328.664-.498.249-.83.415-1.079.664-.249.249-.415.249-.664.249-.415 0-.664.415-1.079.415-.249 0-.249.249-.415.249 0 0-.249 0-.249.249-.249 0-.249 0-.415.249-.249 0-.415.249-.664.249-.249 0-.249.249-.415.249-.166 0-.249.249-.415.249h-.415c-.249 0-.415.249-.664.249-.249 0-.249 0-.415.249-.249 0-.249.249-.415 0-.249 0-.415.249-.664 0h-1.328c-.249 0-.415-.249-.415 0-.415 0-.664 0-1.079-.249-.249 0-.415-.249-.664-.249 0-.249-.249 0-.249 0-.249 0-.249-.249-.415-.249-.249-.249-.415 0-.664-.249-.249 0-.415-.249-.664-.249h-.415c-.249 0-.249-.249-.415-.249-.415-.249-.664-.664-1.079-.83a4.292 4.292 0 01-1.494-1.494c0-.249-.415-.249-.415-.415-.415-.415-.415-.83-.83-1.079v-.415c0-.166-.249-.415-.249-.664 0-.249 0-.415-.249-.83v-1.079-.415-.664c0-.249.249-.664.249-.83 0-.415.249-.83.249-1.328.249-.249 0-.664.249-.83 0-.249.249-.249.249-.415.249-.249.249-.415.415-.664.249-.415.415-1.079.83-1.494 0-.249.249-.415.415-.83.415-.415.664-1.079 1.079-1.494.415-.415.664-.83 1.079-1.328 0-.249.415-.415.415-.664.249-.415.664-.664.83-1.079l2.822-2.822c.249 0 .249-.249.249-.249.415-.249.83-.415 1.079-.83.415-.249.664-.664 1.079-.83.249 0 .249-.249.415-.249 0-.249.249-.249.415-.249.166 0 .415-.415.83-.415.249-.249.249-.415.415-.415.249-.249.415-.249.664-.415.249 0 0-.249.249-.249.415 0 .664-.415.83-.415.249-.249.664-.249.83-.415.249 0 .415-.249.415-.249 1.909-.996 2.158-.996 2.324-.747zM-521.422 93.426h1.079c.249 0 .249.249.415.249 0 .249.249 0 .415 0 .249 0 .415.249.664.249.415.249.83.249 1.079.664.249 0 .415.249.664.415.415 0 .415.415.83.664.249.415.664.415.83.83.249.415.664.664.83 1.079 0 .249.249.249.249.415.249.249.249.415.415.83 0 .249.249.249.249.249 0 .249.249.664.249.83.249.664.249 1.079.415 1.743V102.971c.249 0 0 .249 0 .415-.249.249 0 .415-.249.664.249.249-.249.415-.249.83 0 0 0 .249-.249.249 0 .249 0 .415-.249.664-.249.249 0 .249-.249.415 0 .249-.249.415-.415.664 0 .249-.249.249-.249.415 0 .166-.249.249-.249.415-.249 0-.249.249-.249.415-.249.415-.415.664-.664 1.079-.249.249-.415.415-.415.664-.249.249-.415.664-.664.83-.249.415-.415.415-.664.664 0 .249-.249 0-.249.249-.249.249-.664.415-.83.664-.249 0-.249.249-.415.249 0 .249-.415.249-.415.415h-.249s-.249 0-.249.249c-.249.249-.664.249-.83.415-.249 0-.249.249-.415.249-.249.249-.415.249-.664.249-.249 0-.249.249-.415.249-.249 0-.415.249-.664.249-.415 0-.664.249-1.079.249-.249.249-.664 0-.83.249h-.83c-.249 0-.415 0-.664.249h-.664c-.249.249-.415 0-.664 0h-1.079c-.415 0-.664 0-1.079-.249-.249.249-.415-.249-.664 0 0-.249-.249 0-.249-.249-.249 0-.664 0-.83-.249-.249 0-.664-.249-.83-.249-.249-.249-.415-.415-.664-.415l-.664-.664c0-.249-.249 0-.249-.249s-.415-.415-.415-.664c-.249-.249-.249-.415-.415-.664-.249-.415-.415-.664-.415-1.079-.249-.415-.249-.83-.249-1.328-.249-.249.249-.415.249-.664 0-.415 0-.664.249-.83.249-.415.249-.664.664-.83 0-.249.249 0 .415-.249h.249v.249c-.249 0-.249.415-.415.415v.249c.249 0 .249-.249.415-.415 0-.249.415-.249.249-.415.249 0 .415-.249.664-.415.249 0 .249-.249.415-.249v.249c-.249.249-.415 0-.415.249s-.249.249-.249.249c-.249 0-.249.249-.249.249h.249c.249-.249.249-.415.415-.415.415 0 .415-.415.664-.415 0-.249.249 0 .249 0l-.249.249h-.249s0 .249.249.249c-.249 0-.249.415-.415.415l-.249.249c0-.249.249.249.415-.249 0-.249.249 0 .415-.249v.249c-.249.249-.249.249-.415.249 0 .249-.249.249-.415.415-.249.415-.664.664-.83 1.079-.249.249-.249.415-.415.664-.249 0 0 .249-.249.415 0 .415-.249.664-.249 1.079 0 .249 0 .415.249.664 0 .249.249.249.249.415.249.249.249.664.664.664.249.249.664.249.83.415.415 0 .664.249.83.249.166 0 .415 0 .415.249h1.743c.415-.249.664 0 1.079-.249h.664c.249 0 .415 0 .415-.249.249 0 .415-.249.664 0 0-.249.249 0 .249 0 .249-.249.664-.249.83-.249.249-.249.415 0 .664-.249.249 0 .249-.249.415-.249.166 0 .415 0 .415-.249.415-.249.664-.415 1.079-.664.415-.249.83-.415 1.328-.83 0 0 .249 0 .249-.249.664-.415 1.079-.83 1.494-1.328 0-.249.249-.415.415-.415l1.079-1.079c0-.249.249-.249.249-.415a3.25 3.25 0 00.83-1.328c.249 0 .249-.249.249-.415.415-.415.415-.83.664-1.328 0-.415.249-.664.249-1.079.249-.249.249-.415.249-.83v-.664c0-.415.249-1.079 0-1.328 0-.415-.249-.664-.415-1.079 0-.249-.249-.249-.249-.415-.249-.415-.664-.415-.83-.83-.249 0-.415-.249-.664-.249-.249 0-.415-.249-.664-.249-.249 0-.249 0-.415-.249 0-.249-.249 0-.249-.249h-.415c-.664 0-1.328-.249-1.743 0h-.664s0 .249-.249 0c0-.249-.249 0-.415 0h-.249c0 .249-.249 0-.415.249-.249 0-.415 0-.664.249h-.415c-.166 0-.415.249-.664 0-.249.249-.415.249-.664.249-.249 0-.415 0-.664.249-.249 0-.249.249-.415.249-.166 0-.415.249-.415.249-.249 0-.249.249-.415.249-.166 0-.415.249-.664.249 0 0-.249 0-.249.249-.249.249-.415.249-.415.415-.249 0-.415.249-.664.249 0 0-.249 0-.249.249h-.249c-.415.249-.83.415-1.079.83-.249 0-.249.249-.249.249a3.621 3.621 0 01-.83.664c-.664.415-1.079 1.079-1.494 1.494h-.249c0 .249-.249.415-.415.415-.249.249-.249.415-.415.415l-.415.415c0 .249-.249.249-.415.415-.249 0-.415.249-.664 0-.249 0-.249 0-.249-.249v-.415c-.249 0-.249-.249-.415-.249-.249-.415-.415-.83-.415-1.328 0-.249.249-.415.249-.664.249-.249.415-.415.415-.664v-.249l1.328-1.328c.249-.249.415-.249.415-.415.249 0 .415-.415.664-.664.415-.249.664-.415.83-.664.415-.415 1.079-.664 1.494-1.079.249-.249.664-.415.83-.415.415-.664 1.079-.664 1.743-.83.249-.249.664-.249.83-.415.249 0 .415-.249.664-.249.249 0 .249 0 .415-.249.249 0 .415 0 .415-.249.415 0 1.079-.415 1.494-.415h2.241c2.158-.83 2.158-.83 2.407-.83zM-540.678 112.848c.249.249.249.415.415.249 0 0 .249 0 .249.249.249 0 .415.415.664.249 0 .249.249.249.249.415l.249.249c.249.249 0 .249 0 .415l-.664.664c-.249 0 0 .249-.249.249-.249.249-.664.249-.83.664-.415.249-.664.664-1.079.83 0 .249-.249.249-.249.249-.415.415-1.079 1.079-1.743 1.494-.249 0-.249.249-.249.249 0 .249-.249 0-.249.249l-.415.415-1.328 1.328v.249s0 .249-.249.249c0 .249-.249.249-.249.415 0 0-.249 0-.249.249-.249.249-.249.664-.664.664-.249.249-.415.664-.83.83 0 0 0 .249-.249.249s0 .249-.249.249c0 .249-.249.249-.249.415 0 .166-.249.249-.249.415 0 .166-.249.415-.415.664-.249.249-.415.415-.415.83-.249.249-.249.664-.664.83 0 .249-.249.415-.249.664-.249.249 0 .249-.249.415v.249c0 .249-.249.249-.249.415 0 .249 0 .415-.249.664.249.249-.249.249 0 .415-.249 0 0 .249-.249.415v.249c0 .249-.249.664 0 1.079 0 .249 0 .664.249.83 0 .249 0 .415.249.664 0 0 0 .249.249.249 0 .249.249.249 0 .249l.415.415.249.249c.249.249.415.415.664.415l.249.249c.249.249.415.249.664.249.249.249.664.249 1.079.249h.249c.249.249.415 0 .664 0h.83c.166 0 .415.249.664 0 .415 0 .664 0 1.079-.249h.415c.249 0 .415-.249.664 0h.664c.249 0 .664-.249.83-.249.166 0 .415-.249.664 0 .415 0 .664-.249 1.079-.249h.498c.249-.249.415 0 .664-.249h.249c.249 0 .415 0 .664-.249.415 0 .664-.249 1.079-.249.249-.249.664-.249.83-.249.249-.249.664-.249.83-.415.249-.249.415 0 .415-.249.249 0 .415 0 .415-.249.249 0 .415-.249.664-.415.249 0 .415 0 .415-.249h.249c.249-.249.415-.415.664-.249 0 0-.249.249 0 .249 0 .249-.249 0-.249.249-.249 0-.249.249-.415.249v.249c0-.249.249 0 .415-.249.249 0 .415-.249.664-.249.249 0 .415-.415.664-.249 0 0 0 .249-.249.249v.249c0 .249.249-.249.415 0 .249-.249.415 0 .415-.415 0-.249.249-.249.415-.249 0 0 .249 0 .249.249-.249 0-.249.415-.664.415 0 0-.249 0-.249.249s0 0 .249 0 .415-.249.415 0h.249c0 .249-.249.249-.249.249s-.249 0-.249.249-.415.249-.415.415c0 0 .249.249.249 0 .249-.249.415 0 .415-.249h.249s0 .415-.249.249c0 0-.249 0-.415.249h-.249c-.249.249-.415.249-.664.415l-.249.249c-.415.249-.83.415-1.328.664-.249 0-.249 0-.415.249l-.249.249c-.249.249-.664.249-.83.249 0 0 0 .249-.249 0 0 .249-.249 0-.249.249-.249 0-.415 0-.664.249-.249 0-.664.249-.83.249-.249.249-.664 0-.83.249h-.249c-.415 0-.664 0-1.079.249-.249 0-.664 0-.83.249h-2.158-1.079c-.249.249-.415 0-.415 0-.249 0-.664.249-.83 0h-.415c-.415 0-.664-.249-1.079-.249h-.249c-.249-.249-.664-.249-1.079-.249-.664 0-1.079-.415-1.743-.664-.249 0-.415-.249-.664-.415-.249-.249-.415 0-.415-.249a3.621 3.621 0 00-.83-.664l-.664-.664c-.249-.249-.415-.664-.664-.83 0-.249-.415-.249-.415-.415-.249-.415-.415-.83-.415-1.328-.249-.249 0-.664-.249-.83 0-.249-.249-.249 0-.415v-.664-1.079c0-.249.249-.415.249-.83 0-.249 0-.249.249-.415 0-.249 0-.664.249-1.079 0-.249.249-.415.249-.664 0-.249.249-.415.249-.664 0-.249.249-.415.249-.664h.249c0-.249.249-.249.249-.249 0-.249.415-.415.415-.83.249-.415.664-.664.83-1.079.249-.249.249-.415.415-.415 0-.249.249-.249.249-.415.249-.249.415-.664.664-.83.249-.415.664-.415.664-.83.415-.249.415-.83.83-1.079l.664-.664c.249-.249.249-.415.415-.415.249-.249.664-.664.83-1.079 0-.249.249-.249.249-.249.249-.249.415-.415.83-.664.249 0 .249-.249.249-.415.249-.249.415-.249.415-.415.415-.249.415-.664.83-.664.249-.249.415-.249.664-.415.249-.166.415-.415.664-.415.249-.249.415-.415.664-.415h.249c-.83-.747-.581-.498-.415-.498-.166 0 0 0 0 0z"/><path d="M-1000 114.508h23.323v19.256c4.565-1.743 9.047-2.573 13.861-2.573 9.462 0 17.098 2.988 22.908 8.881 6.059 5.81 8.881 13.363 9.047 22.908 0 7.304-2.407 14.027-7.304 20.335-4.98 6.474-12.948 9.96-23.738 10.126H-1000zm23.323 58.598c2.988.415 5.81.83 7.968.83 4.565 0 7.968-1.079 10.541-3.237 2.573-1.909 3.901-4.731 3.901-8.383 0-3.486-1.328-6.474-3.652-8.632-2.573-1.909-5.81-2.988-10.126-3.237-2.822 0-5.644.415-8.881 1.494v21.165zm48.804-10.375c0-8.217 2.822-15.521 8.383-21.829 5.644-6.474 14.691-9.711 26.975-9.711 12.782.249 21.995 3.652 27.39 10.126 5.395 6.225 8.217 13.363 7.968 21.414 0 8.383-2.822 15.77-8.632 21.829-5.81 6.474-14.691 9.711-26.809 9.711-12.533-.249-21.829-3.652-27.39-10.375-5.312-6.308-8.134-13.446-7.885-21.165zm23.074 0c0 3.486 1.079 6.225 3.486 8.383 2.158 2.158 5.146 3.237 8.881 3.237 3.652 0 6.723-1.079 8.881-3.237 2.158-2.158 3.486-4.98 3.486-8.383 0-3.403-1.079-6.474-3.486-8.632-2.158-2.158-5.146-3.237-8.881-3.237-3.652 0-6.723 1.079-8.881 3.237-2.158 2.158-3.486 4.897-3.486 8.632zm50.796-48.223h23.323v78.601h-23.323zm41.251 51.46c3.901 0 7.138 1.494 9.711 4.067 2.573 2.573 3.901 6.059 3.901 10.126 0 3.901-1.328 7.304-3.901 9.96-2.573 2.822-5.81 4.067-9.711 4.316-3.901 0-7.138-1.494-9.462-4.316-2.822-2.573-4.067-6.059-4.067-9.96 0-4.067 1.328-7.553 4.067-10.126 2.324-2.822 5.561-4.067 9.462-4.067zm66.898 24.402c-6.889 2.573-13.197 3.901-18.758 3.652-9.96 0-17.928-2.988-24.153-8.632-6.225-5.644-9.296-13.197-9.296-22.493 0-7.968 2.573-15.355 7.968-21.829s13.612-9.96 24.817-10.126c6.474 0 12.782 1.079 19.007 3.237v20.335c-4.98-2.573-9.96-3.901-14.691-3.901-4.067 0-7.553 1.079-9.96 3.237-2.573 2.158-3.901 4.98-3.901 8.632 0 3.652 1.328 6.225 4.067 8.383 2.573 2.158 6.059 3.237 10.375 3.237 3.901 0 8.632-1.079 14.442-3.652v19.92zm4.316-27.639c0-8.217 2.822-15.521 8.383-21.829 5.644-6.474 14.691-9.711 26.975-9.711 12.782.249 21.995 3.652 27.39 10.126 5.395 6.225 8.217 13.363 7.968 21.414 0 8.383-2.822 15.77-8.632 21.829-5.81 6.474-14.691 9.711-26.809 9.711-12.533-.249-21.829-3.652-27.39-10.375-5.229-6.308-8.051-13.446-7.885-21.165zm23.157 0c0 3.486 1.079 6.225 3.486 8.383 2.158 2.158 5.146 3.237 8.881 3.237 3.652 0 6.723-1.079 8.881-3.237 2.158-2.158 3.486-4.98 3.486-8.383 0-3.403-1.079-6.474-3.486-8.632-2.158-2.158-5.146-3.237-8.881-3.237-3.735 0-6.723 1.079-8.881 3.237-2.241 2.158-3.486 4.897-3.486 8.632zm51.792-30.461h23.323v7.968c5.644-6.059 11.869-9.047 19.256-9.047 8.217 0 14.276 3.486 18.592 10.79 6.225-7.138 13.612-10.79 21.995-10.79 6.723 0 11.703 2.407 14.691 6.889 2.988 4.565 4.565 9.96 4.565 16.185v39.093h-23.323v-35.192c0-2.158-.664-4.067-1.743-5.395-1.328-1.328-2.822-1.909-4.98-1.909-3.652.249-6.889 2.158-9.462 6.225v36.105h-23.323v-34.611c0-2.407-.664-4.316-1.743-5.644-1.328-1.328-2.988-1.909-5.146-2.158-3.237.249-6.474 2.158-9.296 6.225v36.105h-23.323V132.27z"/><path fill="#0071CE" d="M-1214.051 159.607c0-11.061-4.735-20.835-20.75-20.835-8.216 0-14.743 2.342-18.281 4.392l2.593 8.874c3.258-2.044 8.457-3.727 13.364-3.727 8.107-.012 9.435 4.575 9.435 7.523v.71c-17.697-.028-28.885 6.086-28.885 18.54 0 7.609 5.68 14.743 15.608 14.743 6.058 0 11.176-2.445 14.234-6.304h.297s2.016 8.434 13.163 5.21c-.566-3.533-.778-7.254-.778-11.777v-17.349zm-13.203 11.68c0 .894-.075 1.821-.338 2.617-1.02 3.407-4.535 6.258-8.91 6.258-3.692 0-6.59-2.09-6.59-6.47 0-6.699 7.398-8.542 15.838-8.497M-1485 123.721s11.56 47.293 13.398 54.954c2.164 8.955 6.04 12.264 17.228 10.06l7.225-29.326c1.827-7.266 3.07-12.476 4.249-19.88h.2c.819 7.478 1.998 12.614 3.493 19.903 0 0 2.948 13.323 4.477 20.302 1.489 6.98 5.68 11.383 16.656 9l17.2-65.013h-13.885l-5.903 28.124c-1.563 8.148-2.983 14.566-4.088 22.032h-.2c-.997-7.386-2.262-13.54-3.888-21.522l-6.115-28.634h-14.486l-6.527 27.9c-1.86 8.52-3.601 15.351-4.695 22.582h-.189c-1.128-6.784-2.656-15.424-4.277-23.623 0 0-3.876-19.976-5.244-26.859M-1362.181 159.607c0-11.061-4.747-20.835-20.761-20.835-8.193 0-14.732 2.342-18.27 4.392l2.593 8.874c3.247-2.044 8.44-3.727 13.364-3.727 8.107-.012 9.435 4.575 9.435 7.523v.71c-17.697-.028-28.896 6.086-28.896 18.54 0 7.609 5.702 14.743 15.585 14.743 6.114 0 11.187-2.445 14.245-6.304h.309s2.026 8.434 13.163 5.21c-.573-3.533-.767-7.254-.767-11.777v-17.349zm-13.215 11.68c0 .894-.074 1.821-.326 2.617-1.031 3.407-4.546 6.258-8.932 6.258-3.67 0-6.579-2.09-6.579-6.47 0-6.699 7.397-8.542 15.837-8.497M-1354.976 123.722v64.99h13.214v-64.99zM-1173.494 123.721v47.952c0 6.618 1.242 11.233 3.916 14.062 2.348 2.479 6.19 4.093 10.764 4.093 3.928 0 7.77-.755 9.585-1.414l-.16-10.323a21.17 21.17 0 01-5.04.584c-4.51 0-6-2.857-6-8.8v-18.356h11.509V139.1h-11.509v-15.379M-1207.65 139.9v48.833h13.662v-25.009c0-1.346.085-2.508.298-3.584 1.019-5.273 5.02-8.611 10.786-8.611 1.61 0 2.703.177 3.917.366v-12.802c-1.02-.183-1.712-.28-2.966-.28-5.113 0-10.907 3.246-13.352 10.317h-.338v-9.23M-1334.088 139.9v48.833h13.311v-28.662c0-1.345.149-2.72.624-3.962 1.083-2.903 3.768-6.264 8.079-6.264 5.359 0 7.89 4.523 7.89 11.05v27.838h13.277v-29.005c0-1.266.178-2.817.55-3.94 1.065-3.292 3.973-5.943 7.993-5.943 5.416 0 8.039 4.426 8.039 12.121v26.767h13.265V159.94c0-15.126-7.695-21.127-16.432-21.127-3.842 0-6.899.945-9.647 2.64-2.325 1.425-4.363 3.435-6.19 6.063h-.2c-2.101-5.256-7.037-8.703-13.484-8.703-8.267 0-12.023 4.174-14.233 7.701h-.2V139.9"/><path fill="#FFC220" d="M-1077.427 137.708c2.611 0 4.81-1.362 5.096-3.114l2.588-29.315c0-2.903-3.418-5.279-7.684-5.279-4.288 0-7.684 2.376-7.684 5.279l2.611 29.315c.275 1.752 2.462 3.114 5.073 3.114M-1093.305 146.881c1.293-2.29 1.219-4.832-.178-5.966l-24.162-16.896c-2.513-1.466-6.275.28-8.428 3.98-2.147 3.692-1.712 7.838.75 9.275l26.75 12.401c1.712.641 3.95-.55 5.268-2.817M-1061.551 146.857c1.368 2.267 3.606 3.458 5.273 2.851l26.75-12.435c2.484-1.466 2.856-5.571.755-9.264-2.147-3.699-5.932-5.434-8.44-3.997l-24.167 16.88c-1.34 1.15-1.437 3.704-.143 5.988M-1077.427 174.326c2.611 0 4.81 1.363 5.096 3.115l2.588 29.314c0 2.903-3.418 5.256-7.684 5.256-4.288 0-7.684-2.353-7.684-5.256l2.611-29.314c.275-1.752 2.462-3.115 5.073-3.115M-1061.551 165.179c1.368-2.273 3.606-3.487 5.273-2.829l26.75 12.413c2.484 1.437 2.856 5.577.755 9.276-2.147 3.67-5.932 5.416-8.44 3.979l-24.167-16.902c-1.34-1.14-1.437-3.681-.143-5.937M-1093.305 165.154c1.293 2.284 1.219 4.82-.178 5.966l-24.162 16.873c-2.513 1.465-6.275-.287-8.428-3.957-2.147-3.693-1.712-7.838.75-9.275l26.75-12.413c1.712-.653 3.95.55 5.268 2.806M-1021.7 185.445h.331c.453 0 .636.144.687.504.098.401.15.67.246.785h.86c-.075-.086-.173-.304-.224-.808-.097-.435-.32-.68-.636-.767v-.08c.436-.097.687-.39.687-.75a.989.989 0 00-.297-.71c-.286-.137-.561-.246-1.168-.246-.538 0-.934.046-1.248.12v3.24h.761v-1.288zm.022-1.477l.39-.051c.458 0 .704.212.704.51 0 .331-.332.486-.756.486h-.338v-.945zm.487-2.198c-1.878 0-3.367 1.465-3.367 3.263 0 1.844 1.489 3.31 3.367 3.31 1.9 0 3.344-1.466 3.344-3.31 0-1.798-1.443-3.263-3.344-3.263m0 .658c1.442 0 2.513 1.168 2.513 2.605 0 1.449-1.07 2.651-2.513 2.628-1.443 0-2.537-1.18-2.537-2.628 0-1.437 1.094-2.605 2.514-2.605"/><g><path d="M-1944.4 154.14c-3.96 5.6-10.4 8.92-17.24 8.9-12.24 0-21.48-9.28-21.48-21.58 0-6.16 2.24-11.72 6.3-15.66 3.94-3.82 9.34-5.92 15.18-5.92 6.86-.02 13.3 3.32 17.24 8.92l.64.9 12.74-10.8-.64-.76c-7.46-8.84-18.44-13.94-30-13.9-21.14-.02-38.34 16.68-38.34 37.22 0 20.5 17.2 37.14 38.34 37.14 11.54.06 22.52-5 29.98-13.8l.64-.76-12.74-10.8z" fill="#e23a05"/><path d="M-1869.46 101.1v75.7h-14.06v-3.32c-4.42 2.6-10.14 4.22-15.86 4.22-15.16 0-27.6-11.44-27.6-28.2 0-17.06 12.44-28.2 27.6-28.2 5.56.02 11 1.44 15.86 4.14V101.1zm-14.06 59.24v-21.9c-3.32-2.8-8.02-4.62-13.34-4.62-9.34 0-16.26 6.72-16.26 15.66 0 9.24 6.92 15.56 16.26 15.56 5.22 0 10.04-1.8 13.34-4.7zm26.08-33.66h13.96v50.12h-13.96zm28.42 35.36c6.72 2.92 11.84 4.42 18.68 4.42 6.42 0 8.94-2.4 8.94-5.22 0-3.12-3.12-4.52-11.54-6.32-11.76-2.6-20.28-6.42-20.28-16.96 0-9.84 8.14-16.66 20.78-16.66 8.54 0 15.36 2 21.28 4.42l-4.62 10.24c-5.32-2-11.54-3.52-16.96-3.52-5.32 0-8.02 1.9-8.02 4.82 0 3.02 3.32 4.42 12.04 6.22 12.64 2.62 19.98 7.02 19.98 16.96 0 10.34-7.94 17.16-21.88 17.16-9.44 0-15.56-1.3-23.58-5.22zm97.16 4.62c-4.92 6.72-12.64 10.94-21.08 10.94-16.46 0-29.82-12.54-29.82-28.1 0-15.66 13.34-28.2 29.82-28.2 8.74 0 16.36 4.22 21.28 10.84l-9.04 8.34c-2.72-4.1-7.32-6.58-12.24-6.62-8.84 0-16.06 7.02-16.06 15.66 0 8.54 7.22 15.56 16.06 15.56 4.96-.04 9.56-2.56 12.24-6.72zm63.82-17.18c0 15.56-13.34 28.1-29.82 28.1s-29.82-12.54-29.82-28.1c0-15.66 13.34-28.2 29.82-28.2s29.82 12.54 29.82 28.2zm-13.74 0c0-8.64-7.12-15.66-16.06-15.66-8.84 0-16.06 7.02-16.06 15.66 0 8.54 7.22 15.56 16.06 15.56 8.92 0 16.06-7.02 16.06-15.56zm74.16-26.74v54.06h-13.96v-3.62c-4.14 2.82-9.24 4.42-14.86 4.42-15.96 0-23.3-7.42-23.3-25.1v-29.76h13.96v29.76c0 8.44 4.14 12.54 11.84 12.54 5.02 0 9.14-1.6 12.34-4.32v-38h13.98zm63.34 23.64v30.42h-13.96v-30.42c0-8.44-4.14-12.54-11.84-12.54-4.92 0-8.94 1.6-12.04 4.32v38.64h-13.96v-54.52h13.96v3.42c4.02-2.82 9.04-4.42 14.56-4.42 15.94 0 23.28 7.44 23.28 25.1zm28.48-12.56v19.28c0 9.74 1.6 12.54 8.64 12.54 2.4 0 4.52-.3 6.42-.5v10.44c-.6.2-4.82 2-12.64 2-9.14 0-16.46-5.72-16.46-17.16v-26.6h-7.72v-11.54h7.72V101.1h14.06v21.18h15.24v11.54z" fill="#293847"/><path d="M-1857.98 108.24c0-4.52 3.6-8.24 8.02-8.24s7.94 3.72 7.94 8.24-3.52 8.14-7.94 8.14c-4.46-.04-8.06-3.68-8.02-8.14z" fill="#e23a05"/></g><g><path d="M555.6 154.14c-3.96 5.6-10.4 8.92-17.24 8.9-12.24 0-21.48-9.28-21.48-21.58 0-6.16 2.24-11.72 6.3-15.66 3.94-3.82 9.34-5.92 15.18-5.92 6.86-.02 13.3 3.32 17.24 8.92l.64.9 12.74-10.8-.64-.76c-7.46-8.84-18.44-13.94-30-13.9-21.14-.02-38.34 16.68-38.34 37.22 0 20.5 17.2 37.14 38.34 37.14 11.54.06 22.52-5 29.98-13.8l.64-.76-12.74-10.8z" fill="#e23a05"/><path d="M630.54 101.1v75.7h-14.06v-3.32c-4.42 2.6-10.14 4.22-15.86 4.22-15.16 0-27.6-11.44-27.6-28.2 0-17.06 12.44-28.2 27.6-28.2 5.56.02 11 1.44 15.86 4.14V101.1zm-14.06 59.24v-21.9c-3.32-2.8-8.02-4.62-13.34-4.62-9.34 0-16.26 6.72-16.26 15.66 0 9.24 6.92 15.56 16.26 15.56 5.22 0 10.04-1.8 13.34-4.7zm26.08-33.66h13.96v50.12h-13.96zm28.42 35.36c6.72 2.92 11.84 4.42 18.68 4.42 6.42 0 8.94-2.4 8.94-5.22 0-3.12-3.12-4.52-11.54-6.32-11.76-2.6-20.28-6.42-20.28-16.96 0-9.84 8.14-16.66 20.78-16.66 8.54 0 15.36 2 21.28 4.42l-4.62 10.24c-5.32-2-11.54-3.52-16.96-3.52-5.32 0-8.02 1.9-8.02 4.82 0 3.02 3.32 4.42 12.04 6.22 12.64 2.62 19.98 7.02 19.98 16.96 0 10.34-7.94 17.16-21.88 17.16-9.44 0-15.56-1.3-23.58-5.22zm97.16 4.62c-4.92 6.72-12.64 10.94-21.08 10.94-16.46 0-29.82-12.54-29.82-28.1 0-15.66 13.34-28.2 29.82-28.2 8.74 0 16.36 4.22 21.28 10.84l-9.04 8.34c-2.72-4.1-7.32-6.58-12.24-6.62-8.84 0-16.06 7.02-16.06 15.66 0 8.54 7.22 15.56 16.06 15.56 4.96-.04 9.56-2.56 12.24-6.72zm63.82-17.18c0 15.56-13.34 28.1-29.82 28.1s-29.82-12.54-29.82-28.1c0-15.66 13.34-28.2 29.82-28.2s29.82 12.54 29.82 28.2zm-13.74 0c0-8.64-7.12-15.66-16.06-15.66-8.84 0-16.06 7.02-16.06 15.66 0 8.54 7.22 15.56 16.06 15.56 8.92 0 16.06-7.02 16.06-15.56zm74.16-26.74v54.06h-13.96v-3.62c-4.14 2.82-9.24 4.42-14.86 4.42-15.96 0-23.3-7.42-23.3-25.1v-29.76h13.96v29.76c0 8.44 4.14 12.54 11.84 12.54 5.02 0 9.14-1.6 12.34-4.32v-38h13.98zm63.34 23.64v30.42h-13.96v-30.42c0-8.44-4.14-12.54-11.84-12.54-4.92 0-8.94 1.6-12.04 4.32v38.64h-13.96v-54.52h13.96v3.42c4.02-2.82 9.04-4.42 14.56-4.42 15.94 0 23.28 7.44 23.28 25.1zm28.48-12.56v19.28c0 9.74 1.6 12.54 8.64 12.54 2.4 0 4.52-.3 6.42-.5v10.44c-.6.2-4.82 2-12.64 2-9.14 0-16.46-5.72-16.46-17.16v-26.6h-7.72v-11.54h7.72V101.1h14.06v21.18h15.24v11.54z" fill="#293847"/><path d="M642.02 108.24c0-4.52 3.6-8.24 8.02-8.24s7.94 3.72 7.94 8.24-3.52 8.14-7.94 8.14c-4.46-.04-8.06-3.68-8.02-8.14z" fill="#e23a05"/></g><animateTransform id="b" attributeName="transform" type="translate" begin="0s;a.end" dur="5s" fill="freeze" from="0 0" to="0 0"/><animateTransform id="c" attributeName="transform" type="translate" begin="b.end" dur="0.25s" fill="freeze" from="0 0" to="500 0"/><animateTransform id="d" attributeName="transform" type="translate" begin="c.end" dur="5s" fill="freeze" from="500 0" to="500 0"/><animateTransform id="e" attributeName="transform" type="translate" begin="d.end" dur="0.25s" fill="freeze" from="500 0" to="1000 0"/><animateTransform id="f" attributeName="transform" type="translate" begin="e.end" dur="5s" fill="freeze" from="1000 0" to="1000 0"/><animateTransform id="g" attributeName="transform" type="translate" begin="f.end" dur="0.25s" fill="freeze" from="1000 0" to="1500 0"/><animateTransform id="h" attributeName="transform" type="translate" begin="g.end" dur="5s" fill="freeze" from="1500 0" to="1500 0"/><animateTransform id="i" attributeName="transform" type="translate" begin="h.end" dur="0.25s" fill="freeze" from="1500 0" to="2000 0"/><animateTransform id="j" attributeName="transform" type="translate" begin="i.end" dur="5s" fill="freeze" from="2000 0" to="2000 0"/><animateTransform id="a" attributeName="transform" type="translate" begin="j.end" dur="0.25s" fill="freeze" from="-500 0" to="0 0"/></g></svg>