<svg id="e5236a09-f351-4c8f-b9ec-8d8b00119923" data-name="Layer 1" xmlns="http://www.w3.org/2000/svg" viewBox="0 0 543.99 155.21">
  <g>
    <path d="M228.24,98.39a35.7,35.7,0,0,1-19.31-6l3.5-5.31c5.66,3.61,10.85,5.36,16.69,5.36,6.82,0,10-2.62,10-5.71,0-8.87-28.88-3.56-28.88-17.68,0-6.88,6.89-12.31,18-12.31,7.47,0,13.94,2.8,17.73,6.6l-4.31,4.43a21.3,21.3,0,0,0-13.54-5.13c-6.47,0-10.84,2.33-10.84,5.65,0,8.23,28.93,3.86,28.93,17.74C246.21,93.43,238.8,98.39,228.24,98.39Z" style="fill: #38c0f0"></path>
    <path d="M296.55,97l-4.44-9.69h-19.6L268.2,97h-7.3l18.32-38.85h6.18L304,97Zm-14.41-31.1L274.85,82H289.6Z" style="fill: #38c0f0"></path>
    <path d="M321.39,97V58.14h7V91h26.43V97Z" style="fill: #38c0f0"></path>
    <path d="M390.4,98.39a35.69,35.69,0,0,1-19.3-6l3.5-5.31c5.66,3.61,10.85,5.36,16.68,5.36,6.83,0,10-2.62,10-5.71,0-8.87-28.87-3.56-28.87-17.68,0-6.88,6.88-12.31,18-12.31,7.47,0,14,2.8,17.74,6.6l-4.32,4.43a21.27,21.27,0,0,0-13.53-5.13c-6.48,0-10.85,2.33-10.85,5.65,0,8.23,28.93,3.86,28.93,17.74C408.37,93.43,401,98.39,390.4,98.39Z" style="fill: #38c0f0"></path>
    <path d="M427.91,97V58.14h7V97Z" style="fill: #38c0f0"></path>
    <path d="M463.73,64.09V75.23h18.08v5.71H463.73V97h-7V58.14h31.15v6Z" style="fill: #38c0f0"></path>
    <path d="M526.72,81.41V97h-7V81.35l-17.5-23.21h8.17l13.13,18,12.42-18h8Z" style="fill: #38c0f0"></path>
  </g>
  <path d="M83.18,77.61h0Z" style="fill: #38c0f0"></path>
  <polygon points="83.19 77.6 83.19 77.6 83.18 77.61 83.19 77.6" style="fill: #38c0f0"></polygon>
  <path d="M83.19,77.6h0v0h0Z" style="fill: #38c0f0;opacity: 0.5"></path>
  <path d="M62.4,41.62a41.59,41.59,0,0,1,20.78-36,41.58,41.58,0,0,0-62.37,36A41.55,41.55,0,0,1,62.4,41.62Z" style="fill: #38c0f0;opacity: 0.4"></path>
  <path d="M160.79,56.81a41.4,41.4,0,0,0-15.23-15.22,41.54,41.54,0,0,1-20.79,36h0a41.56,41.56,0,0,1,20.8,36h0A41.59,41.59,0,0,0,160.79,56.81Z" style="fill: #38c0f0;opacity: 0.4"></path>
  <path d="M98.41,20.8A41.44,41.44,0,0,1,104,41.6h0a41.58,41.58,0,0,1,41.58,0,41.57,41.57,0,0,0-62.37-36h0A41.4,41.4,0,0,1,98.41,20.8Z" style="fill: #38c0f0;opacity: 0.4"></path>
  <polygon points="83.19 77.6 83.19 77.6 83.19 77.6 83.19 77.6 83.19 77.6" style="fill: #38c0f0;opacity: 0.5"></polygon>
  <path d="M62.4,41.62a41.55,41.55,0,0,1,20.77,36h0A41.56,41.56,0,0,1,104,41.6a41.52,41.52,0,0,0-20.79-36A41.59,41.59,0,0,0,62.4,41.62Z" style="fill: #38c0f0;opacity: 0.5"></path>
  <path d="M62.4,41.62a41.55,41.55,0,0,1,20.77,36h0A41.56,41.56,0,0,1,104,41.6a41.52,41.52,0,0,0-20.79-36A41.59,41.59,0,0,0,62.4,41.62Z" style="fill: #38c0f0;opacity: 0.4"></path>
  <path d="M104,41.59h0a41.52,41.52,0,0,1-20.78,36h0a41.56,41.56,0,0,1,41.57,0h0a41.54,41.54,0,0,0,20.79-36A41.58,41.58,0,0,0,104,41.59Z" style="fill: #38c0f0;opacity: 0.5"></path>
  <path d="M104,41.59h0a41.52,41.52,0,0,1-20.78,36h0a41.56,41.56,0,0,1,41.57,0h0a41.54,41.54,0,0,0,20.79-36A41.58,41.58,0,0,0,104,41.59Z" style="fill: #38c0f0;opacity: 0.4"></path>
  <path d="M104,41.6a41.56,41.56,0,0,0-20.78,36A41.52,41.52,0,0,0,104,41.6Z" style="fill: #38c0f0;opacity: 0.5"></path>
  <path d="M104,41.6a41.56,41.56,0,0,0-20.78,36A41.52,41.52,0,0,0,104,41.6Z" style="fill: #38c0f0;opacity: 0.5"></path>
  <path d="M104,41.6a41.56,41.56,0,0,0-20.78,36A41.52,41.52,0,0,0,104,41.6Z" style="fill: #38c0f0"></path>
  <path d="M83.18,77.61h0v0h0Z" style="fill: #38c0f0;opacity: 0.5"></path>
  <path d="M104,113.6a41.54,41.54,0,0,1-20.77,36,41.57,41.57,0,0,0,62.37-36A41.55,41.55,0,0,1,104,113.6Z" style="fill: #38c0f0;opacity: 0.4"></path>
  <path d="M124.76,77.61a41.54,41.54,0,0,1-41.57,0v0a41.5,41.5,0,0,1,20.77,36,41.55,41.55,0,0,0,41.6,0,41.56,41.56,0,0,0-20.8-36Z" style="fill: #38c0f0;opacity: 0.5"></path>
  <path d="M124.76,77.61a41.54,41.54,0,0,1-41.57,0v0a41.5,41.5,0,0,1,20.77,36,41.55,41.55,0,0,0,41.6,0,41.56,41.56,0,0,0-20.8-36Z" style="fill: #38c0f0;opacity: 0.4"></path>
  <polygon points="83.19 77.6 83.19 77.6 83.19 77.6 83.19 77.6" style="fill: #38c0f0;opacity: 0.5"></polygon>
  <polygon points="83.19 77.6 83.19 77.6 83.19 77.6 83.19 77.6" style="fill: #38c0f0;opacity: 0.5"></polygon>
  <path d="M83.19,77.6h0a41.54,41.54,0,0,0,41.57,0A41.56,41.56,0,0,0,83.19,77.6Z" style="fill: #38c0f0;opacity: 0.5"></path>
  <path d="M83.19,77.6h0a41.54,41.54,0,0,0,41.57,0A41.56,41.56,0,0,0,83.19,77.6Z" style="fill: #38c0f0;opacity: 0.5"></path>
  <path d="M83.19,77.6h0a41.54,41.54,0,0,0,41.57,0A41.56,41.56,0,0,0,83.19,77.6Z" style="fill: #38c0f0"></path>
  <path d="M68,134.41a41.3,41.3,0,0,1-5.56-20.79h0a41.56,41.56,0,0,1-41.58,0,41.58,41.58,0,0,0,62.38,36h0A41.25,41.25,0,0,1,68,134.41Z" style="fill: #38c0f0;opacity: 0.4"></path>
  <path d="M104,113.6a41.55,41.55,0,0,1-20.77-36h0a41.54,41.54,0,0,1-20.77,36,41.52,41.52,0,0,0,20.79,36A41.54,41.54,0,0,0,104,113.6Z" style="fill: #38c0f0;opacity: 0.5"></path>
  <path d="M104,113.6a41.55,41.55,0,0,1-20.77-36h0a41.54,41.54,0,0,1-20.77,36,41.52,41.52,0,0,0,20.79,36A41.54,41.54,0,0,0,104,113.6Z" style="fill: #38c0f0;opacity: 0.4"></path>
  <path d="M104,113.6a41.5,41.5,0,0,0-20.77-36,41.55,41.55,0,0,0,20.77,36Z" style="fill: #38c0f0;opacity: 0.5"></path>
  <path d="M104,113.6a41.5,41.5,0,0,0-20.77-36,41.55,41.55,0,0,0,20.77,36Z" style="fill: #38c0f0;opacity: 0.5"></path>
  <path d="M104,113.6a41.5,41.5,0,0,0-20.77-36,41.55,41.55,0,0,0,20.77,36Z" style="fill: #38c0f0"></path>
  <path d="M41.59,77.61h0a41.58,41.58,0,0,1-20.79-36h0a41.57,41.57,0,0,0,0,72A41.58,41.58,0,0,1,41.59,77.61Z" style="fill: #38c0f0;opacity: 0.4"></path>
  <polygon points="83.17 77.61 83.17 77.61 83.17 77.62 83.17 77.62 83.17 77.61" style="fill: #38c0f0;opacity: 0.5"></polygon>
  <path d="M41.6,77.61a41.54,41.54,0,0,1,41.57,0h0v0a41.58,41.58,0,0,1-20.77-36,41.55,41.55,0,0,0-41.59,0,41.58,41.58,0,0,0,20.79,36Z" style="fill: #38c0f0;opacity: 0.5"></path>
  <path d="M41.6,77.61a41.54,41.54,0,0,1,41.57,0h0v0a41.58,41.58,0,0,1-20.77-36,41.55,41.55,0,0,0-41.59,0,41.58,41.58,0,0,0,20.79,36Z" style="fill: #38c0f0;opacity: 0.4"></path>
  <path d="M62.4,41.62a41.58,41.58,0,0,0,20.77,36,41.55,41.55,0,0,0-20.77-36Z" style="fill: #38c0f0;opacity: 0.5"></path>
  <path d="M62.4,41.62a41.58,41.58,0,0,0,20.77,36,41.55,41.55,0,0,0-20.77-36Z" style="fill: #38c0f0;opacity: 0.5"></path>
  <path d="M62.4,41.62a41.58,41.58,0,0,0,20.77,36,41.55,41.55,0,0,0-20.77-36Z" style="fill: #38c0f0"></path>
  <polygon points="83.17 77.62 83.17 77.62 83.17 77.62 83.17 77.62" style="fill: #38c0f0;opacity: 0.5"></polygon>
  <polygon points="83.17 77.62 83.17 77.62 83.17 77.62 83.17 77.62" style="fill: #38c0f0;opacity: 0.5"></polygon>
  <path d="M62.38,113.63h0a41.53,41.53,0,0,1,20.77-36h0a41.59,41.59,0,0,1-41.57,0h0a41.58,41.58,0,0,0-20.79,36A41.56,41.56,0,0,0,62.38,113.63Z" style="fill: #38c0f0;opacity: 0.5"></path>
  <path d="M62.38,113.63h0a41.53,41.53,0,0,1,20.77-36h0a41.59,41.59,0,0,1-41.57,0h0a41.58,41.58,0,0,0-20.79,36A41.56,41.56,0,0,0,62.38,113.63Z" style="fill: #38c0f0;opacity: 0.4"></path>
  <path d="M41.6,77.61a41.59,41.59,0,0,0,41.57,0A41.54,41.54,0,0,0,41.6,77.61Z" style="fill: #38c0f0;opacity: 0.5"></path>
  <path d="M41.6,77.61a41.59,41.59,0,0,0,41.57,0A41.54,41.54,0,0,0,41.6,77.61Z" style="fill: #38c0f0;opacity: 0.5"></path>
  <path d="M41.6,77.61a41.59,41.59,0,0,0,41.57,0A41.54,41.54,0,0,0,41.6,77.61Z" style="fill: #38c0f0"></path>
  <path d="M62.4,113.62a41.54,41.54,0,0,0,20.77-36h0A41.53,41.53,0,0,0,62.4,113.62Z" style="fill: #38c0f0;opacity: 0.5"></path>
  <path d="M62.4,113.62a41.54,41.54,0,0,0,20.77-36h0A41.53,41.53,0,0,0,62.4,113.62Z" style="fill: #38c0f0;opacity: 0.5"></path>
  <path d="M62.4,113.62a41.54,41.54,0,0,0,20.77-36h0A41.53,41.53,0,0,0,62.4,113.62Z" style="fill: #38c0f0"></path>
</svg>