<?xml version="1.0" encoding="utf-8"?>
<!-- Generator: Adobe Illustrator 25.4.1, SVG Export Plug-In . SVG Version: 6.00 Build 0)  -->
<svg version="1.1" xmlns="http://www.w3.org/2000/svg" xmlns:xlink="http://www.w3.org/1999/xlink" x="0px" y="0px"
	 viewBox="0 0 1363 190" style="enable-background:new 0 0 1363 190;" xml:space="preserve">
<style type="text/css">
	.st0{fill:#28004D;}
	.st1{fill:#E6465D;}
</style>
<g id="Layer_1">
</g>
<g id="Layer_2">
	<g>
		<path class="st0" d="M4.612,137.654c14.675,11.147,32.429,17.502,50.845,18.198c15.547,0,28.18-5.522,28.18-19.174
			c0-33.802-79.025-31.529-79.025-84.505c0-30.225,23.641-49.377,56.353-49.377c17.204-0.328,34.224,3.587,49.556,11.4v34.728
			c-12.514-8.95-27.377-14.036-42.751-14.628c-13.602,0-24.938,4.553-24.938,18.198c0,24.703,79.025,23.727,79.025,83.201
			c0,28.273-20.406,51.679-60.885,51.679c-19.774,0.407-39.277-4.652-56.36-14.621V137.654z"/>
		<path class="st0" d="M230.345,36.91v147.555h-37.243V36.91h-48.579V5.709h133.112v31.529L230.345,36.91z"/>
		<path class="st0" d="M298.041,95.087c0-51.679,37.243-92.627,89.065-92.627s88.096,40.613,88.096,92.627
			s-36.274,92.627-88.096,92.627C331.722,187.386,298.041,148.062,298.041,95.087z M335.284,95.087
			c0,33.802,20.406,59.802,51.821,59.802s50.845-26.976,50.845-59.802s-20.406-58.505-50.845-58.505S335.284,62.589,335.284,95.087z
			"/>
		<path class="st0" d="M643.284,63.561c0.032,22.683-12.584,43.492-32.712,53.952l42.751,65.003h-43.072l-42.751-72.149v-3.256
			c28.18-3.249,38.54-21.454,38.54-37.051c0-20.15-12.305-33.802-31.743-33.802h-22.345v147.555H514.71V6.361h66.392
			C613.814,6.361,643.284,26.511,643.284,63.561z"/>
		<path class="st1" d="M686.035,183.809V6.357h112.706v31.529h-75.463v44.853h48.579v30.225h-48.579v70.853L686.035,183.809z"/>
		<path class="st1" d="M936.392,5.224h37.243v106.6c0,42.901-23.641,73.126-70.931,73.126c-47.29,0-70.924-30.546-70.924-73.126
			V5.224h37.243v107.904c0,20.15,10.039,40.613,33.681,40.613c23.641,0,34.008-17.877,34.008-38.675V5.224H936.392z"/>
		<path class="st1" d="M1018.98,183.813V2.784h5.508c33.681,36.075,68.986,66.3,102.667,102.374h1.297V6.346h37.243V187.39h-5.508
			L1057.193,81.439h-1.297v102.374H1018.98z"/>
		<path class="st1" d="M1211.68,183.642V6.19h60.885c56.353,0,85.823,38.675,85.823,89.065s-28.18,88.73-82.26,88.73h-64.447
			V183.642z M1247.955,37.391v115.378h25.907c27.204,0,46.314-19.174,46.314-58.505c0.969-33.153-14.899-56.873-47.61-56.873
			L1247.955,37.391z"/>
	</g>
</g>
</svg>
