<?xml version="1.0" encoding="utf-8"?>
<!-- Generator: Adobe Illustrator 25.3.1, SVG Export Plug-In . SVG Version: 6.00 Build 0)  -->
<svg version="1.1" id="Calque_1" xmlns="http://www.w3.org/2000/svg" xmlns:xlink="http://www.w3.org/1999/xlink" x="0px" y="0px"
	 viewBox="0 0 39.94 52" style="enable-background:new 0 0 39.94 52;" xml:space="preserve">
<style type="text/css">
	.st0{clip-path:url(#SVGID_2_);fill:#0C195A;}
	.st1{clip-path:url(#SVGID_2_);}
	.st2{opacity:0.8;clip-path:url(#SVGID_4_);}
	.st3{clip-path:url(#SVGID_6_);}
	.st4{opacity:0.45;clip-path:url(#SVGID_10_);}
	.st5{clip-path:url(#SVGID_12_);fill:#1D1D1B;}
	.st6{fill:none;stroke:#64D7BE;stroke-width:2;stroke-linecap:round;stroke-linejoin:round;stroke-miterlimit:10;}
	.st7{clip-path:url(#SVGID_14_);}
	.st8{clip-path:url(#SVGID_16_);}
	.st9{opacity:0.45;clip-path:url(#SVGID_20_);}
	.st10{clip-path:url(#SVGID_22_);fill:#1D1D1B;}
	.st11{clip-path:url(#SVGID_24_);}
	.st12{clip-path:url(#SVGID_26_);}
	.st13{opacity:0.45;clip-path:url(#SVGID_30_);}
	.st14{clip-path:url(#SVGID_32_);fill:#1D1D1B;}
	.st15{clip-path:url(#SVGID_34_);}
	.st16{clip-path:url(#SVGID_36_);}
	.st17{opacity:0.45;clip-path:url(#SVGID_40_);}
	.st18{clip-path:url(#SVGID_42_);fill:#1D1D1B;}
	.st19{clip-path:url(#SVGID_44_);}
	.st20{clip-path:url(#SVGID_46_);}
	.st21{opacity:0.45;clip-path:url(#SVGID_50_);}
	.st22{clip-path:url(#SVGID_52_);fill:#1D1D1B;}
	.st23{clip-path:url(#SVGID_54_);}
	.st24{clip-path:url(#SVGID_56_);}
	.st25{opacity:0.45;clip-path:url(#SVGID_60_);}
	.st26{clip-path:url(#SVGID_62_);fill:#1D1D1B;}
	.st27{clip-path:url(#SVGID_64_);}
	.st28{clip-path:url(#SVGID_66_);}
	.st29{opacity:0.45;clip-path:url(#SVGID_70_);}
	.st30{clip-path:url(#SVGID_72_);fill:#1D1D1B;}
</style>
<g>
	<defs>
		<rect id="SVGID_1_" x="-11.67" y="-677.99" width="1600.13" height="596.92"/>
	</defs>
	<clipPath id="SVGID_2_">
		<use xlink:href="#SVGID_1_"  style="overflow:visible;"/>
	</clipPath>
	<g class="st1">
		<defs>
			<rect id="SVGID_3_" x="-11.67" y="-677.99" width="1600" height="596.92"/>
		</defs>
		<clipPath id="SVGID_4_">
			<use xlink:href="#SVGID_3_"  style="overflow:visible;"/>
		</clipPath>
		<g class="st2">
			<g>
				<defs>
					<rect id="SVGID_5_" x="-13.33" y="-829.65" width="1603.3" height="1203.31"/>
				</defs>
				<clipPath id="SVGID_6_">
					<use xlink:href="#SVGID_5_"  style="overflow:visible;"/>
				</clipPath>
			</g>
		</g>
	</g>
</g>
<g>
	<path class="st6" d="M32.62,51H3.26C2.01,51,1,49.99,1,48.74v-3.08c0-1.25,1.01-2.26,2.26-2.26h29.36c1.25,0,2.26,1.01,2.26,2.26
		v3.08C34.88,49.99,33.87,51,32.62,51z M25.56,23.91l-1.06-0.25c-1.78-0.53-3.01-2.17-3.02-4.03V15.7 M33.16,43.24v-6.41
		c0-0.35-0.13-0.68-0.37-0.93c-5.3-5.3-6.86-9.4-7.23-12l8.42,1.72c0.36,0.08,0.74,0,1.03-0.21l2.2-1.59
		c1.87-1.36,2.28-3.98,0.92-5.85l-0.13-0.17L29.66,7.67l2.65-4.72c0.24-0.41,0.24-0.91,0-1.32c-0.24-0.38-0.66-0.61-1.11-0.61
		C19.32,0.56,8.83,8.72,6.35,20.36c-1.43,7.6-2.2,15.31-2.33,23.05"/>
</g>
</svg>
