<?xml version="1.0" encoding="utf-8"?>
<!-- Generator: Adobe Illustrator 25.3.1, SVG Export Plug-In . SVG Version: 6.00 Build 0)  -->
<svg version="1.1" id="Calque_1" xmlns="http://www.w3.org/2000/svg" xmlns:xlink="http://www.w3.org/1999/xlink" x="0px" y="0px"
	 viewBox="0 0 1366 331.45" style="enable-background:new 0 0 1366 331.45;" xml:space="preserve">
<style type="text/css">
	.st0{clip-path:url(#SVGID_2_);fill:#FFFFFF;}
	.st1{fill:#FFFFFF;}
</style>
<g>
	<defs>
		<rect id="SVGID_1_" x="0.75" width="1364.88" height="331.45"/>
	</defs>
	<clipPath id="SVGID_2_">
		<use xlink:href="#SVGID_1_"  style="overflow:visible;"/>
	</clipPath>
	<path class="st0" d="M383.12,288.45c0-3.7,0.61-7.05,1.84-10.04c1.24-2.98,2.85-5.52,4.86-7.59c2-2.06,4.29-3.65,6.89-4.76
		c2.59-1.11,5.27-1.66,8.05-1.66c3.26,0,6.12,0.55,8.55,1.66c2.44,1.11,4.47,2.66,6.11,4.63c1.63,1.97,2.85,4.3,3.65,6.99
		c0.8,2.68,1.2,5.58,1.2,8.73c0,1.24-0.06,2.36-0.19,3.37c-0.12,1.02-0.24,1.81-0.37,2.36h-27.47c0.61,3.52,1.98,6.07,4.11,7.64
		c2.14,1.57,4.73,2.36,7.83,2.36c3.26,0,6.56-1.02,9.89-3.05l4.53,8.23c-2.34,1.6-4.95,2.87-7.81,3.79
		c-2.87,0.93-5.69,1.39-8.47,1.39c-3.27,0-6.32-0.54-9.16-1.61c-2.84-1.08-5.3-2.65-7.39-4.72c-2.1-2.07-3.74-4.58-4.91-7.54
		C383.71,295.66,383.12,292.27,383.12,288.45 M412.72,283.73c0-2.65-0.59-4.81-1.77-6.47c-1.17-1.66-3.14-2.5-5.92-2.5
		c-2.15,0-4.06,0.72-5.69,2.18c-1.63,1.45-2.69,3.71-3.19,6.79H412.72z"/>
	<path class="st0" d="M431.96,281.61c0-5,0.77-9.45,2.31-13.37c1.54-3.92,3.62-7.23,6.25-9.95c2.62-2.7,5.66-4.77,9.16-6.19
		c3.48-1.42,7.16-2.13,11.05-2.13c3.76,0,7.17,0.79,10.22,2.36c3.06,1.58,5.6,3.41,7.63,5.5l-7.49,8.42
		c-1.54-1.42-3.1-2.53-4.67-3.33c-1.58-0.8-3.42-1.2-5.5-1.2c-2.1,0-4.06,0.45-5.88,1.34c-1.82,0.89-3.41,2.18-4.76,3.84
		c-1.36,1.66-2.42,3.7-3.19,6.1c-0.77,2.4-1.16,5.12-1.16,8.13c0,6.23,1.33,11.06,3.98,14.48c2.65,3.42,6.2,5.14,10.64,5.14
		c2.46,0,4.63-0.49,6.48-1.48c1.85-0.99,3.52-2.28,4.99-3.89l7.49,8.23c-2.53,2.97-5.41,5.19-8.65,6.67
		c-3.24,1.48-6.74,2.22-10.5,2.22c-3.88,0-7.55-0.67-11-1.99c-3.46-1.32-6.48-3.29-9.07-5.87c-2.59-2.59-4.63-5.81-6.1-9.66
		C432.7,291.11,431.96,286.66,431.96,281.61"/>
	<path class="st0" d="M484.86,288.45c0-3.83,0.61-7.23,1.84-10.22c1.24-3,2.88-5.5,4.96-7.54c2.05-2.04,4.45-3.59,7.16-4.67
		c2.71-1.08,5.52-1.62,8.42-1.62s5.69,0.54,8.37,1.62c2.68,1.08,5.05,2.63,7.12,4.67c2.07,2.04,3.72,4.55,4.95,7.54
		c1.23,2.99,1.84,6.39,1.84,10.22c0,3.82-0.61,7.23-1.84,10.22c-1.23,3-2.88,5.51-4.95,7.54c-2.07,2.04-4.44,3.6-7.12,4.68
		c-2.68,1.07-5.48,1.61-8.37,1.61s-5.71-0.54-8.42-1.61c-2.71-1.08-5.11-2.64-7.16-4.68c-2.08-2.03-3.72-4.54-4.96-7.54
		C485.47,295.68,484.86,292.27,484.86,288.45 M498.83,288.45c0,4.01,0.69,7.18,2.08,9.53c1.38,2.34,3.49,3.52,6.33,3.52
		c2.77,0,4.87-1.17,6.29-3.52s2.13-5.52,2.13-9.53c0-4.01-0.71-7.18-2.13-9.53c-1.42-2.34-3.52-3.52-6.29-3.52
		c-2.84,0-4.95,1.17-6.33,3.52C499.52,281.27,498.83,284.44,498.83,288.45"/>
	<path class="st0" d="M538.87,265.51h11.1l0.93,5.92h0.37c1.91-1.92,3.95-3.57,6.1-4.96c2.15-1.38,4.75-2.08,7.77-2.08
		c3.26,0,5.9,0.66,7.9,1.99c2,1.33,3.6,3.22,4.76,5.69c2.04-2.1,4.19-3.9,6.43-5.4c2.25-1.51,4.91-2.27,8.01-2.27
		c4.93,0,8.55,1.65,10.87,4.95c2.31,3.3,3.47,7.81,3.47,13.55v28.48h-13.6v-26.73c0-3.33-0.45-5.61-1.34-6.85
		c-0.9-1.23-2.33-1.85-4.3-1.85c-2.28,0-4.9,1.48-7.86,4.45v30.98h-13.6v-26.73c0-3.33-0.45-5.61-1.34-6.85
		c-0.89-1.23-2.33-1.85-4.3-1.85c-2.34,0-4.94,1.48-7.77,4.45v30.98h-13.6V265.51z"/>
	<path class="st0" d="M618.14,265.51h11.1l0.92,5.92h0.37c1.92-1.92,3.95-3.57,6.1-4.96c2.16-1.38,4.75-2.08,7.77-2.08
		c3.26,0,5.9,0.66,7.9,1.99s3.6,3.22,4.76,5.69c2.03-2.1,4.18-3.9,6.43-5.4c2.26-1.51,4.91-2.27,8.01-2.27
		c4.93,0,8.55,1.65,10.87,4.95c2.31,3.3,3.47,7.81,3.47,13.55v28.48h-13.6v-26.73c0-3.33-0.44-5.61-1.33-6.85
		c-0.9-1.23-2.33-1.85-4.31-1.85c-2.28,0-4.9,1.48-7.86,4.45v30.98h-13.6v-26.73c0-3.33-0.45-5.61-1.34-6.85
		c-0.89-1.23-2.33-1.85-4.3-1.85c-2.33,0-4.93,1.48-7.77,4.45v30.98h-13.6V265.51z"/>
	<path class="st0" d="M694.72,288.45c0-3.7,0.62-7.05,1.85-10.04c1.23-2.98,2.85-5.52,4.86-7.59c2-2.06,4.3-3.65,6.89-4.76
		c2.59-1.11,5.27-1.66,8.05-1.66c3.27,0,6.12,0.55,8.56,1.66c2.44,1.11,4.47,2.66,6.1,4.63c1.64,1.97,2.85,4.3,3.65,6.99
		c0.79,2.68,1.2,5.58,1.2,8.73c0,1.24-0.07,2.36-0.19,3.37c-0.12,1.02-0.24,1.81-0.37,2.36h-27.47c0.61,3.52,1.99,6.07,4.11,7.64
		c2.13,1.57,4.73,2.36,7.82,2.36c3.27,0,6.56-1.02,9.89-3.05l4.53,8.23c-2.34,1.6-4.94,2.87-7.81,3.79
		c-2.87,0.93-5.69,1.39-8.47,1.39c-3.26,0-6.32-0.54-9.15-1.61c-2.85-1.08-5.31-2.65-7.4-4.72c-2.1-2.07-3.73-4.58-4.91-7.54
		C695.3,295.66,694.72,292.27,694.72,288.45 M724.32,283.73c0-2.65-0.58-4.81-1.76-6.47s-3.15-2.5-5.92-2.5
		c-2.17,0-4.06,0.72-5.69,2.18c-1.63,1.45-2.69,3.71-3.19,6.79H724.32z"/>
	<path class="st0" d="M745.31,265.51h11.1l0.92,8.05h0.37c1.66-3.14,3.67-5.45,6.02-6.94c2.34-1.48,4.68-2.22,7.03-2.22
		c1.29,0,2.36,0.08,3.18,0.23c0.83,0.15,1.59,0.39,2.26,0.69l-2.21,11.75c-0.87-0.25-1.67-0.43-2.41-0.56
		c-0.74-0.12-1.6-0.18-2.59-0.18c-1.72,0-3.53,0.61-5.41,1.85c-1.88,1.22-3.44,3.42-4.67,6.56v26.64h-13.6V265.51z"/>
	<path class="st0" d="M778.52,288.45c0-3.83,0.64-7.23,1.94-10.22c1.3-3,3.04-5.5,5.22-7.54c2.19-2.04,4.73-3.59,7.64-4.67
		c2.9-1.08,5.92-1.62,9.06-1.62c2.84,0,5.4,0.48,7.68,1.44c2.28,0.95,4.19,2.23,5.74,3.83l-6.2,8.42c-2.16-1.79-4.29-2.68-6.38-2.68
		c-3.33,0-5.95,1.17-7.86,3.52c-1.91,2.34-2.87,5.52-2.87,9.53c0,4.01,0.97,7.18,2.92,9.53c1.94,2.34,4.39,3.52,7.35,3.52
		c1.66,0,3.18-0.35,4.53-1.02c1.35-0.68,2.59-1.46,3.7-2.31l5.46,8.6c-2.23,1.97-4.69,3.42-7.4,4.35c-2.72,0.93-5.34,1.38-7.87,1.38
		c-3.2,0-6.18-0.54-8.92-1.61c-2.75-1.08-5.14-2.64-7.17-4.68c-2.03-2.03-3.64-4.54-4.81-7.54
		C779.1,295.68,778.52,292.27,778.52,288.45"/>
	<path class="st0" d="M819.12,288.45c0-3.7,0.61-7.05,1.84-10.04c1.24-2.98,2.85-5.52,4.86-7.59c2-2.06,4.29-3.65,6.89-4.76
		c2.59-1.11,5.27-1.66,8.05-1.66c3.26,0,6.12,0.55,8.55,1.66c2.44,1.11,4.47,2.66,6.11,4.63c1.63,1.97,2.85,4.3,3.65,6.99
		c0.8,2.68,1.2,5.58,1.2,8.73c0,1.24-0.06,2.36-0.19,3.37c-0.12,1.02-0.24,1.81-0.37,2.36h-27.47c0.61,3.52,1.98,6.07,4.11,7.64
		c2.14,1.57,4.73,2.36,7.83,2.36c3.26,0,6.56-1.02,9.89-3.05l4.53,8.23c-2.34,1.6-4.94,2.87-7.81,3.79
		c-2.87,0.93-5.69,1.39-8.47,1.39c-3.26,0-6.31-0.54-9.15-1.61c-2.84-1.08-5.3-2.65-7.39-4.72c-2.1-2.07-3.74-4.58-4.91-7.54
		C819.7,295.66,819.12,292.27,819.12,288.45 M848.72,283.73c0-2.65-0.59-4.81-1.76-6.47c-1.17-1.66-3.15-2.5-5.92-2.5
		c-2.16,0-4.06,0.72-5.69,2.18c-1.64,1.45-2.7,3.71-3.19,6.79H848.72z"/>
	<path class="st0" d="M891.91,250.43h6.01l12.76,35.8l4.81,13.5h0.37l4.61-13.5l12.77-35.8h6.02v60.96h-4.16v-40.06
		c0-2.53,0.06-5.26,0.18-8.19c0.13-2.93,0.25-5.69,0.38-8.28h-0.38l-4.8,13.41l-13.05,36.45h-3.79l-13.14-36.45l-4.81-13.41h-0.37
		c0.12,2.59,0.24,5.35,0.37,8.28c0.13,2.93,0.18,5.66,0.18,8.19v40.06h-3.97V250.43z"/>
	<path class="st0" d="M954.25,300.29c0-4.87,2.31-8.6,6.93-11.19c4.63-2.59,11.87-4.45,21.74-5.56c0.06-1.66-0.05-3.34-0.32-5.04
		c-0.27-1.69-0.8-3.2-1.57-4.53c-0.78-1.33-1.85-2.4-3.24-3.24c-1.39-0.83-3.16-1.25-5.32-1.25c-3.02,0-5.76,0.59-8.23,1.77
		c-2.47,1.16-4.44,2.31-5.92,3.42l-1.84-3.05c0.81-0.56,1.77-1.18,2.91-1.85c1.14-0.68,2.41-1.3,3.79-1.85
		c1.39-0.55,2.92-1.03,4.58-1.43c1.67-0.4,3.4-0.6,5.19-0.6c2.65,0,4.87,0.44,6.66,1.33c1.79,0.9,3.24,2.12,4.34,3.65
		c1.12,1.54,1.9,3.35,2.36,5.42c0.46,2.06,0.69,4.3,0.69,6.7v28.4h-3.42l-0.46-5.74h-0.19c-2.28,1.79-4.73,3.37-7.35,4.76
		c-2.63,1.39-5.42,2.08-8.37,2.08c-1.79,0-3.46-0.25-4.99-0.74c-1.54-0.49-2.91-1.23-4.11-2.21c-1.2-0.99-2.15-2.26-2.82-3.8
		C954.58,304.2,954.25,302.39,954.25,300.29 M958.5,300.1c0,3.21,0.92,5.49,2.77,6.85c1.86,1.35,4.04,2.03,6.57,2.03
		c2.59,0,5.05-0.61,7.4-1.84c2.34-1.23,4.9-3.02,7.67-5.36v-15.08c-4.56,0.55-8.39,1.23-11.51,2.03c-3.11,0.8-5.63,1.76-7.54,2.87
		c-1.92,1.11-3.29,2.38-4.11,3.79C958.92,296.8,958.5,298.38,958.5,300.1"/>
	<path class="st0" d="M999.19,289.28c0-3.58,0.53-6.82,1.58-9.72c1.04-2.9,2.48-5.36,4.29-7.39c1.82-2.04,3.92-3.59,6.3-4.67
		c2.37-1.08,4.89-1.61,7.54-1.61c2.71,0,5.07,0.48,7.08,1.43c2,0.96,4.11,2.3,6.33,4.03l-0.19-8.14v-18.32h4.07v66.51h-3.52
		l-0.37-5.74h-0.28c-1.79,1.8-3.9,3.39-6.33,4.77c-2.44,1.39-5.14,2.08-8.1,2.08c-5.61,0-10.09-1.98-13.41-5.96
		C1000.86,302.55,999.19,296.8,999.19,289.28 M1003.54,289.28c0,2.95,0.32,5.64,0.97,8.05c0.64,2.4,1.58,4.45,2.82,6.15
		c1.23,1.7,2.75,3.03,4.58,3.98c1.82,0.96,3.91,1.43,6.25,1.43c2.46,0,4.83-0.63,7.08-1.9c2.25-1.26,4.55-3.06,6.89-5.41v-26.36
		c-2.34-2.1-4.55-3.58-6.61-4.44c-2.06-0.87-4.18-1.3-6.33-1.3c-2.23,0-4.29,0.52-6.2,1.53c-1.9,1.02-3.56,2.41-4.94,4.16
		c-1.39,1.76-2.49,3.85-3.29,6.3C1003.95,283.91,1003.54,286.51,1003.54,289.28"/>
	<path class="st0" d="M1049.51,289.28c0-3.64,0.54-6.9,1.62-9.8c1.07-2.9,2.52-5.35,4.34-7.36c1.82-2,3.88-3.55,6.2-4.63
		c2.31-1.08,4.71-1.61,7.17-1.61c5.3,0,9.46,1.78,12.49,5.36c3.02,3.57,4.53,8.63,4.53,15.16v1.67c0,0.55-0.06,1.11-0.18,1.66h-32
		c0.06,2.77,0.49,5.35,1.3,7.72c0.79,2.37,1.92,4.41,3.37,6.1c1.45,1.7,3.19,3.02,5.22,3.98c2.03,0.95,4.31,1.42,6.85,1.42
		c2.41,0,4.58-0.35,6.52-1.06c1.95-0.71,3.75-1.68,5.4-2.91l1.67,3.15c-1.79,1.04-3.75,2.03-5.87,2.95
		c-2.13,0.93-4.83,1.38-8.09,1.38c-2.84,0-5.51-0.52-8.01-1.56c-2.49-1.05-4.67-2.58-6.52-4.58c-1.84-2-3.31-4.44-4.39-7.31
		C1050.05,296.17,1049.51,292.92,1049.51,289.28 M1081.98,286.59c0-5.73-1.18-10.03-3.52-12.9c-2.35-2.87-5.52-4.29-9.53-4.29
		c-1.9,0-3.73,0.4-5.45,1.2c-1.73,0.8-3.28,1.94-4.67,3.42c-1.39,1.48-2.53,3.29-3.43,5.41c-0.89,2.13-1.46,4.51-1.7,7.16H1081.98z"
		/>
	<path class="st0" d="M1114.81,300.38c2.22,2.53,4.87,4.53,7.95,6.01c3.08,1.48,6.38,2.23,9.89,2.23c4.69,0,8.39-1.13,11.1-3.38
		c2.71-2.26,4.06-5.2,4.06-8.83c0-1.92-0.29-3.52-0.88-4.82c-0.58-1.29-1.37-2.41-2.36-3.37c-0.99-0.96-2.14-1.79-3.47-2.49
		c-1.33-0.71-2.73-1.41-4.21-2.08l-9.25-4.16c-1.36-0.55-2.76-1.23-4.21-2.03c-1.45-0.81-2.77-1.8-3.97-3.01
		c-1.2-1.2-2.21-2.62-3-4.25c-0.81-1.64-1.21-3.59-1.21-5.87c0-2.22,0.45-4.24,1.34-6.06c0.9-1.82,2.13-3.39,3.7-4.71
		c1.58-1.33,3.46-2.36,5.65-3.1c2.19-0.74,4.55-1.12,7.07-1.12c3.71,0,6.99,0.73,9.86,2.18c2.87,1.46,5.22,3.16,7.07,5.13l-2.4,2.87
		c-1.79-1.91-3.89-3.44-6.29-4.58c-2.41-1.15-5.14-1.71-8.24-1.71c-4.06,0-7.34,0.98-9.8,2.95c-2.47,1.97-3.7,4.63-3.7,7.95
		c0,1.79,0.34,3.3,1.02,4.53c0.68,1.23,1.54,2.3,2.59,3.19c1.04,0.89,2.19,1.66,3.43,2.31c1.22,0.65,2.4,1.22,3.5,1.71l9.26,4.07
		c1.72,0.74,3.36,1.57,4.9,2.5c1.54,0.92,2.9,2,4.06,3.24c1.17,1.24,2.11,2.69,2.82,4.39c0.71,1.7,1.07,3.72,1.07,6.07
		c0,2.34-0.47,4.52-1.39,6.52s-2.23,3.73-3.93,5.17c-1.7,1.46-3.75,2.59-6.15,3.42c-2.41,0.84-5.09,1.25-8.05,1.25
		c-4.44,0-8.39-0.84-11.84-2.54c-3.45-1.7-6.38-3.91-8.78-6.62L1114.81,300.38z"/>
	<path class="st0" d="M1166.6,256.26c-1.05,0-1.93-0.34-2.63-1.02c-0.71-0.68-1.07-1.54-1.07-2.59c0-1.16,0.35-2.08,1.07-2.72
		c0.7-0.65,1.58-0.97,2.63-0.97s1.93,0.32,2.64,0.97c0.71,0.65,1.06,1.56,1.06,2.72c0,1.05-0.35,1.92-1.06,2.59
		C1168.53,255.92,1167.65,256.26,1166.6,256.26 M1164.47,266.99h4.07v44.39h-4.07V266.99z"/>
	<path class="st0" d="M1185.65,266.99h3.52l0.37,6.85h0.27c1.97-2.28,4.18-4.18,6.61-5.69c2.44-1.51,4.89-2.27,7.36-2.27
		c3.57,0,6.32,0.81,8.23,2.45c1.91,1.64,3.26,3.84,4.07,6.61c2.59-2.77,5.1-4.98,7.54-6.61c2.44-1.64,4.95-2.45,7.54-2.45
		c8.88,0,13.32,5.67,13.32,17.02v28.48h-4.17v-27.93c0-4.75-0.8-8.25-2.4-10.51c-1.6-2.25-4.1-3.37-7.49-3.37
		c-4.01,0-8.45,2.77-13.32,8.33v33.48h-4.07v-27.93c0-4.75-0.8-8.25-2.4-10.51c-1.61-2.25-4.13-3.37-7.59-3.37
		c-4.01,0-8.44,2.77-13.32,8.33v33.48h-4.07V266.99z"/>
	<path class="st0" d="M1264.83,315.27v16.18h-4.08v-64.46h3.52l0.37,5.55h0.28c2.15-1.73,4.51-3.27,7.07-4.63
		c2.57-1.35,5.23-2.04,8-2.04c5.92,0,10.36,2.05,13.32,6.15c2.96,4.1,4.44,9.6,4.44,16.51c0,3.75-0.52,7.12-1.57,10.08
		c-1.04,2.95-2.49,5.47-4.3,7.53c-1.82,2.07-3.91,3.65-6.29,4.72c-2.37,1.07-4.86,1.62-7.44,1.62c-2.1,0-4.25-0.48-6.47-1.43
		c-2.23-0.96-4.51-2.3-6.85-4.03V315.27z M1264.83,303.16c2.59,2.09,4.99,3.57,7.21,4.44c2.23,0.86,4.2,1.29,5.92,1.29
		c2.23,0,4.29-0.49,6.2-1.48s3.55-2.37,4.91-4.17c1.35-1.78,2.42-3.92,3.18-6.42c0.77-2.5,1.15-5.25,1.15-8.27
		c0-2.72-0.25-5.25-0.78-7.59c-0.53-2.33-1.35-4.35-2.46-6.05c-1.1-1.69-2.56-3.02-4.34-3.98c-1.79-0.95-3.95-1.43-6.48-1.43
		c-2.22,0-4.52,0.63-6.89,1.9c-2.38,1.27-4.92,3.07-7.63,5.41V303.16z"/>
	<path class="st0" d="M1311.07,244.88h4.08v61.14c0,0.99,0.17,1.71,0.55,2.18c0.37,0.46,0.83,0.69,1.38,0.69h0.6
		c0.22,0,0.58-0.06,1.07-0.19l0.74,3.33c-0.43,0.12-0.86,0.23-1.29,0.32c-0.43,0.09-0.99,0.14-1.67,0.14
		c-3.63,0-5.45-2.33-5.45-7.03V244.88z"/>
	<path class="st0" d="M1329.29,289.28c0-3.64,0.54-6.9,1.62-9.8c1.07-2.9,2.52-5.35,4.34-7.36c1.82-2,3.88-3.55,6.2-4.63
		c2.31-1.08,4.71-1.61,7.17-1.61c5.3,0,9.46,1.78,12.49,5.36c3.02,3.57,4.52,8.63,4.52,15.16v1.67c0,0.55-0.06,1.11-0.18,1.66
		h-32.01c0.06,2.77,0.5,5.35,1.3,7.72c0.8,2.37,1.92,4.41,3.37,6.1c1.46,1.7,3.19,3.02,5.23,3.98c2.03,0.95,4.31,1.42,6.84,1.42
		c2.41,0,4.58-0.35,6.53-1.06c1.95-0.71,3.74-1.68,5.4-2.91l1.66,3.15c-1.78,1.04-3.74,2.03-5.87,2.95
		c-2.13,0.93-4.83,1.38-8.09,1.38c-2.84,0-5.51-0.52-8.01-1.56c-2.5-1.05-4.67-2.58-6.52-4.58c-1.85-2-3.31-4.44-4.39-7.31
		C1329.83,296.17,1329.29,292.92,1329.29,289.28 M1361.75,286.59c0-5.73-1.17-10.03-3.52-12.9c-2.34-2.87-5.51-4.29-9.53-4.29
		c-1.91,0-3.73,0.4-5.45,1.2c-1.73,0.8-3.28,1.94-4.67,3.42c-1.39,1.48-2.54,3.29-3.43,5.41c-0.89,2.13-1.46,4.51-1.71,7.16H1361.75
		z"/>
	<path class="st0" d="M379.93,131.04c0-11.67,1.76-22.24,5.28-31.7c3.52-9.46,8.16-17.46,13.89-24c5.74-6.54,12.33-11.57,19.78-15.1
		c7.44-3.52,15.2-5.28,23.25-5.28c16.7,0,29.93,5.69,39.7,17.06c9.76,11.38,14.64,27.83,14.64,49.37v4.68c0,1.51-0.2,3.17-0.61,4.98
		H389.6c0,9.66,1.36,18.57,4.08,26.73c2.72,8.15,6.54,15.25,11.47,21.28c4.93,6.04,10.87,10.71,17.82,14.04
		c6.95,3.33,14.74,4.99,23.4,4.99c8.25,0,15.6-1.21,22.04-3.62c6.44-2.41,12.38-5.63,17.82-9.66l4.22,7.85
		c-5.43,3.42-11.53,6.59-18.27,9.5c-6.75,2.92-15.56,4.38-26.42,4.38c-9.06,0-17.56-1.71-25.51-5.13
		c-7.95-3.42-14.94-8.41-20.98-14.94c-6.05-6.54-10.77-14.45-14.19-23.71C381.64,153.49,379.93,142.92,379.93,131.04 M487.43,123.19
		c0-20.13-4.13-35.13-12.38-45c-8.25-9.86-19.22-14.79-32.91-14.79c-6.46,0-12.69,1.41-18.73,4.23
		c-6.04,2.82-11.42,6.79-16.15,11.93c-4.73,5.14-8.65,11.38-11.77,18.72c-3.13,7.36-5.08,15.66-5.89,24.92H487.43z"/>
</g>
<rect x="526.08" y="123.19" class="st1" width="65.22" height="9.06"/>
<g>
	<path class="st1" d="M613.64,102.66c0-15.69,2.01-29.89,6.05-42.57c4.01-12.69,9.66-23.45,16.9-32.3
		c7.25-8.86,16.05-15.72,26.42-20.54C673.37,2.42,684.89,0,697.58,0c11.47,0,21.49,2.41,30.05,7.24
		c8.55,4.83,15.44,10.27,20.68,16.31l-6.05,6.64c-5.43-6.44-11.87-11.56-19.32-15.4c-7.46-3.82-15.91-5.74-25.36-5.74
		c-11.48,0-21.79,2.17-30.95,6.5c-9.17,4.33-16.91,10.57-23.25,18.72s-11.18,18.01-14.49,29.59c-3.33,11.58-4.99,24.51-4.99,38.8
		c0,14.3,1.66,27.28,4.99,38.95c3.31,11.68,8.15,21.64,14.49,29.9s13.94,14.63,22.79,19.17c8.86,4.53,18.92,6.79,30.2,6.79
		c10.66,0,20.08-2.13,28.23-6.35c8.16-4.22,16.05-10.57,23.71-19.02l6.04,6.03c-7.65,8.86-16.05,15.81-25.21,20.84
		c-9.17,5.03-20.28,7.54-33.37,7.54c-12.28,0-23.45-2.46-33.51-7.4c-10.07-4.93-18.72-11.92-25.97-20.98
		c-7.25-9.06-12.83-19.97-16.76-32.76C615.6,132.61,613.64,118.36,613.64,102.66"/>
	<path class="st1" d="M770.64,131.04c0-12.08,1.71-22.84,5.14-32.3c3.42-9.46,8.05-17.42,13.89-23.86
		c5.83-6.44,12.63-11.37,20.38-14.79c7.75-3.43,15.95-5.13,24.61-5.13s16.85,1.7,24.61,5.13c7.75,3.42,14.54,8.35,20.38,14.79
		s10.46,14.4,13.88,23.86c3.42,9.46,5.14,20.23,5.14,32.3c0,11.88-1.71,22.5-5.14,31.86c-3.42,9.36-8.05,17.26-13.88,23.71
		s-12.63,11.37-20.38,14.79c-7.76,3.42-15.96,5.13-24.61,5.13s-16.86-1.71-24.61-5.13c-7.75-3.42-14.55-8.35-20.38-14.79
		c-5.84-6.44-10.48-14.35-13.89-23.71C772.35,153.54,770.64,142.92,770.64,131.04 M780.3,131.04c0,10.07,1.41,19.17,4.23,27.32
		c2.82,8.16,6.64,15.21,11.47,21.14c4.83,5.94,10.57,10.52,17.21,13.74c6.64,3.22,13.78,4.83,21.44,4.83
		c7.65,0,14.79-1.61,21.44-4.83c6.64-3.22,12.38-7.8,17.21-13.74c4.83-5.93,8.65-12.98,11.47-21.14c2.82-8.15,4.23-17.25,4.23-27.32
		c0-9.86-1.41-18.97-4.23-27.32c-2.82-8.35-6.64-15.5-11.47-21.44s-10.57-10.57-17.21-13.89c-6.65-3.32-13.8-4.99-21.44-4.99
		c-7.65,0-14.79,1.66-21.44,4.99c-6.64,3.32-12.38,7.95-17.21,13.89c-4.83,5.94-8.65,13.09-11.47,21.44S780.3,121.18,780.3,131.04"
		/>
	<path class="st1" d="M919.8,58.58h7.85l1.21,22.95h0.6c6.64-7.65,13.99-13.99,22.04-19.03c8.05-5.03,16-7.54,23.85-7.54
		c11.87,0,20.88,2.77,27.03,8.31c6.14,5.53,10.42,12.83,12.83,21.89c8.45-9.46,16.76-16.85,24.91-22.19
		c8.16-5.33,16.35-8.01,24.61-8.01c14.3,0,25.01,4.43,32.16,13.29c7.15,8.86,10.72,22.74,10.72,41.66v92.99h-9.06v-91.79
		c0-16.1-2.77-28.07-8.31-35.93c-5.54-7.85-14.24-11.78-26.12-11.78c-7.24,0-14.6,2.42-22.03,7.26
		c-7.46,4.82-15.41,12.07-23.86,21.74v110.5h-9.06v-91.79c0-16.1-2.77-28.07-8.31-35.93c-5.53-7.85-14.24-11.78-26.12-11.78
		c-13.68,0-28.98,9.66-45.88,28.99v110.5h-9.06V58.58z"/>
	<path class="st1" d="M1136.6,167.58c0-16.1,7.65-28.33,22.95-36.69c15.29-8.35,39.25-14.34,71.86-17.96
		c0.19-5.84-0.15-11.72-1.06-17.67c-0.9-5.93-2.67-11.27-5.28-16c-2.62-4.72-6.29-8.55-11.02-11.47
		c-4.73-2.91-10.83-4.37-18.27-4.37c-5.24,0-10.16,0.55-14.79,1.66c-4.63,1.11-8.96,2.57-12.98,4.38s-7.7,3.72-11.02,5.74
		c-3.32,2.02-6.09,3.92-8.29,5.74l-4.83-7.25c2.21-1.6,5.07-3.52,8.6-5.73c3.52-2.22,7.54-4.28,12.08-6.2
		c4.53-1.91,9.51-3.52,14.95-4.83c5.43-1.3,11.06-1.95,16.9-1.95c8.46,0,15.5,1.46,21.13,4.37c5.64,2.92,10.16,6.9,13.59,11.93
		c3.42,5.04,5.84,10.83,7.24,17.37c1.41,6.54,2.13,13.43,2.13,20.68v93.61h-7.85l-1.21-19.33h-0.61c-7.65,6.04-15.9,11.37-24.76,16
		c-8.86,4.63-18.11,6.95-27.78,6.95c-5.63,0-10.97-0.76-16-2.27c-5.04-1.51-9.47-3.82-13.29-6.94c-3.83-3.12-6.85-7.15-9.06-12.08
		C1137.7,180.31,1136.6,174.43,1136.6,167.58 M1146.26,167.28c0,5.63,0.85,10.42,2.57,14.34c1.71,3.93,4.08,7.1,7.1,9.52
		c3.02,2.41,6.49,4.17,10.42,5.27c3.93,1.12,8.1,1.66,12.53,1.66c8.85,0,17.41-2.06,25.66-6.19c8.26-4.12,17.21-10.31,26.88-18.57
		v-52.54c-15.9,1.81-29.28,4.07-40.16,6.79c-10.87,2.72-19.63,5.99-26.27,9.81s-11.43,8.2-14.35,13.13
		C1147.72,155.45,1146.26,161.04,1146.26,167.28"/>
	<path class="st1" d="M1269.45,179.35c6.05,5.24,12.68,9.67,19.93,13.29c7.24,3.62,16.31,5.43,27.17,5.43c6.04,0,11.37-0.85,16-2.57
		c4.63-1.71,8.46-3.97,11.48-6.79c3.02-2.82,5.33-6.09,6.95-9.81c1.61-3.73,2.41-7.59,2.41-11.63c0-4.82-1.11-9-3.32-12.52
		c-2.22-3.52-5.04-6.65-8.45-9.36c-3.44-2.72-7.31-4.99-11.63-6.79c-4.33-1.81-8.61-3.52-12.83-5.13
		c-5.63-2.01-11.23-4.12-16.76-6.35c-5.54-2.2-10.57-4.83-15.09-7.84c-4.53-3.03-8.21-6.69-11.02-11.02
		c-2.82-4.32-4.23-9.61-4.23-15.85c0-5.03,0.96-9.82,2.87-14.35c1.91-4.53,4.78-8.5,8.61-11.93c3.82-3.42,8.55-6.13,14.19-8.15
		c5.63-2,12.18-3.02,19.63-3.02c7.24,0,14.39,1.36,21.43,4.08c7.05,2.72,13.19,6.19,18.42,10.42l-5.44,7.25
		c-4.83-3.62-9.96-6.74-15.4-9.37c-5.43-2.61-11.97-3.92-19.62-3.92c-6.04,0-11.28,0.8-15.7,2.41c-4.42,1.61-8.06,3.78-10.87,6.49
		c-2.82,2.72-4.94,5.74-6.34,9.06c-1.41,3.32-2.11,6.79-2.11,10.41c0,4.43,1,8.21,3.02,11.33c2.01,3.12,4.68,5.84,8,8.16
		c3.33,2.31,7.05,4.37,11.18,6.19c4.12,1.82,8.4,3.52,12.83,5.13c5.63,2.22,11.37,4.43,17.21,6.64c5.84,2.22,11.02,4.89,15.55,8
		c4.53,3.13,8.26,7.05,11.18,11.78c2.91,4.73,4.38,10.61,4.38,17.66c0,5.24-1.06,10.27-3.18,15.1c-2.1,4.83-5.13,9.06-9.05,12.68
		c-3.93,3.62-8.86,6.55-14.8,8.76c-5.94,2.21-12.64,3.31-20.08,3.31c-10.87,0-20.73-1.95-29.59-5.89
		c-8.86-3.92-16.51-8.6-22.95-14.04L1269.45,179.35z"/>
	<path class="st1" d="M324.67,56.59c-1.35-1.35-2.72-2.71-5.42-2.71H61.74l-6.77-35.23c0-2.72-4.07-5.43-6.77-5.43H7.53
		c-4.06,0-6.78,2.71-6.78,6.78c0,4.06,2.72,6.77,6.78,6.77h35.23l32.53,165.34c4.07,21.69,24.4,37.95,46.08,37.95h155.86
		c4.06,0,6.77-2.72,6.77-6.78s-2.71-6.78-6.77-6.78H122.72c-10.84,0-21.68-5.42-27.11-14.91l197.88-27.1c2.71,0,5.42-2.71,5.42-5.42
		l27.11-108.43C326.02,60.66,326.02,57.95,324.67,56.59"/>
	<path class="st1" d="M115.95,243.62c-18.97,0-33.89,14.91-33.89,33.89c0,18.97,14.92,33.88,33.89,33.88
		c18.98,0,33.89-14.91,33.89-33.88C149.84,258.53,134.93,243.62,115.95,243.62 M115.95,297.83c-10.84,0-20.33-9.49-20.33-20.33
		c0-10.84,9.48-20.33,20.33-20.33c10.84,0,20.33,9.49,20.33,20.33C136.28,288.34,126.8,297.83,115.95,297.83"/>
	<path class="st1" d="M251.48,243.62c-18.97,0-33.89,14.91-33.89,33.89c0,18.97,14.92,33.88,33.89,33.88
		c18.98,0,33.89-14.91,33.89-33.88C285.37,258.53,270.46,243.62,251.48,243.62 M251.48,297.83c-10.84,0-20.33-9.49-20.33-20.33
		c0-10.84,9.48-20.33,20.33-20.33c10.84,0,20.33,9.49,20.33,20.33C271.81,288.34,262.32,297.83,251.48,297.83"/>
</g>
</svg>
