<?xml version="1.0" encoding="utf-8"?>
<!-- Generator: Adobe Illustrator 25.3.1, SVG Export Plug-In . SVG Version: 6.00 Build 0)  -->
<svg version="1.1" id="Calque_1" xmlns="http://www.w3.org/2000/svg" xmlns:xlink="http://www.w3.org/1999/xlink" x="0px" y="0px"
	 viewBox="0 0 50.46 50.63" style="enable-background:new 0 0 50.46 50.63;" xml:space="preserve">
<style type="text/css">
	.st0{clip-path:url(#SVGID_2_);fill:#0C195A;}
	.st1{clip-path:url(#SVGID_2_);}
	.st2{opacity:0.8;clip-path:url(#SVGID_4_);}
	.st3{clip-path:url(#SVGID_6_);}
	.st4{opacity:0.45;clip-path:url(#SVGID_10_);}
	.st5{clip-path:url(#SVGID_12_);fill:#1D1D1B;}
	.st6{fill:none;stroke:#64D7BE;stroke-width:2;stroke-linecap:round;stroke-linejoin:round;stroke-miterlimit:10;}
	.st7{clip-path:url(#SVGID_14_);}
	.st8{clip-path:url(#SVGID_16_);}
	.st9{opacity:0.45;clip-path:url(#SVGID_20_);}
	.st10{clip-path:url(#SVGID_22_);fill:#1D1D1B;}
	.st11{clip-path:url(#SVGID_24_);}
	.st12{clip-path:url(#SVGID_26_);}
	.st13{opacity:0.45;clip-path:url(#SVGID_30_);}
	.st14{clip-path:url(#SVGID_32_);fill:#1D1D1B;}
	.st15{clip-path:url(#SVGID_34_);}
	.st16{clip-path:url(#SVGID_36_);}
	.st17{opacity:0.45;clip-path:url(#SVGID_40_);}
	.st18{clip-path:url(#SVGID_42_);fill:#1D1D1B;}
	.st19{clip-path:url(#SVGID_44_);}
	.st20{clip-path:url(#SVGID_46_);}
	.st21{opacity:0.45;clip-path:url(#SVGID_50_);}
	.st22{clip-path:url(#SVGID_52_);fill:#1D1D1B;}
	.st23{clip-path:url(#SVGID_54_);}
	.st24{clip-path:url(#SVGID_56_);}
	.st25{opacity:0.45;clip-path:url(#SVGID_60_);}
	.st26{clip-path:url(#SVGID_62_);fill:#1D1D1B;}
	.st27{clip-path:url(#SVGID_64_);}
	.st28{clip-path:url(#SVGID_66_);}
	.st29{opacity:0.45;clip-path:url(#SVGID_70_);}
	.st30{clip-path:url(#SVGID_72_);fill:#1D1D1B;}
</style>
<g>
	<defs>
		<rect id="SVGID_1_" x="-410.84" y="-678.7" width="1600.13" height="596.92"/>
	</defs>
	<clipPath id="SVGID_2_">
		<use xlink:href="#SVGID_1_"  style="overflow:visible;"/>
	</clipPath>
	<g class="st1">
		<defs>
			<rect id="SVGID_3_" x="-410.84" y="-678.7" width="1600" height="596.92"/>
		</defs>
		<clipPath id="SVGID_4_">
			<use xlink:href="#SVGID_3_"  style="overflow:visible;"/>
		</clipPath>
		<g class="st2">
			<g>
				<defs>
					<rect id="SVGID_5_" x="-412.49" y="-830.35" width="1603.3" height="1203.31"/>
				</defs>
				<clipPath id="SVGID_6_">
					<use xlink:href="#SVGID_5_"  style="overflow:visible;"/>
				</clipPath>
			</g>
		</g>
	</g>
</g>
<g>
	<path class="st6" d="M13.29,36.99l-1.09,1.08 M1.71,48.56L1.71,48.56c-0.94-0.94-0.94-2.47,0-3.41l8.77-8.77l3.41,3.41l-8.77,8.77
		C4.18,49.5,2.65,49.5,1.71,48.56z M29.43,29.8c0-4.84-3.92-8.76-8.76-8.76c-4.84,0-8.76,3.92-8.76,8.76c0,4.84,3.92,8.76,8.76,8.76
		C25.51,38.56,29.43,34.64,29.43,29.8z M40.44,19.69V39.9 M34.43,23.69V39.9 M28.43,33.86v6.04 M22.44,14.19v7.02 M22.44,38.56v1.35
		h21 M49.44,10.15h-9.15V1 M13.29,25.07V1h26.99l9.15,9.15V49.6H13.29v-9.2 M13.29,39.19v-4.66"/>
</g>
</svg>
