<?xml version="1.0" encoding="UTF-8" standalone="no"?>
<svg
   xmlns:dc="http://purl.org/dc/elements/1.1/"
   xmlns:cc="http://creativecommons.org/ns#"
   xmlns:rdf="http://www.w3.org/1999/02/22-rdf-syntax-ns#"
   xmlns:svg="http://www.w3.org/2000/svg"
   xmlns="http://www.w3.org/2000/svg"
   xmlns:sodipodi="http://sodipodi.sourceforge.net/DTD/sodipodi-0.dtd"
   xmlns:inkscape="http://www.inkscape.org/namespaces/inkscape"
   class="FourStepApproach-shape"
   viewBox="0 0 197.89857 197.60704"
   version="1.1"
   id="svg871"
   sodipodi:docname="circle-arrow.svg"
   width="197.89857"
   height="197.60704"
   inkscape:version="1.0 (4035a4f, 2020-05-01)">
  <metadata
     id="metadata877">
    <rdf:RDF>
      <cc:Work
         rdf:about="">
        <dc:format>image/svg+xml</dc:format>
        <dc:type
           rdf:resource="http://purl.org/dc/dcmitype/StillImage" />
      </cc:Work>
    </rdf:RDF>
  </metadata>
  <defs
     id="defs875" />
  <sodipodi:namedview
     inkscape:document-rotation="0"
     pagecolor="#ffffff"
     bordercolor="#666666"
     borderopacity="1"
     objecttolerance="10"
     gridtolerance="10"
     guidetolerance="10"
     inkscape:pageopacity="0"
     inkscape:pageshadow="2"
     inkscape:window-width="1338"
     inkscape:window-height="788"
     id="namedview873"
     showgrid="false"
     inkscape:zoom="0.73283812"
     inkscape:cx="147.39803"
     inkscape:cy="73.422901"
     inkscape:window-x="269"
     inkscape:window-y="181"
     inkscape:window-maximized="0"
     inkscape:current-layer="svg871" />
  <path
     sodipodi:nodetypes="csccccccccccccccscc"
     d="m 0,189.35515 c 43.5,-44 86.57633,-86.93664 130.27633,-130.636637 1.9,-1.9 3.6,-3.9 5.4,-5.9 12.6,-13.2 25.3,-26.3 38,-39.5 -2,0 -4.3,-0.1 -6.7,0 -10.9,0.4 -21.8,0.7 -32.6,1.4 -5.2,0.3 -8.6,-0.4 -7.5,-6.8000003 0.2,-1.1 -0.2,-2.4 -0.3,-3.6 1.9,-3.39999995 5.3,-1.9 7.9,-2 19.4,-0.9 38.8,-1.39999995 58.1,-2.29999995 4.4,-0.2 5.5,1.19999995 5.3,5.19999995 -0.9,20.6000003 -1.6,41.2000003 -2.3,61.8000003 -0.1,2.4 -1.4,3.4 -3,4.5 -7.6,0.4 -9.9,-2.7 -9.4,-10.5 0.9,-12.3 0.2,-24.8 0.2,-36.7 -12.3,12 -24.27633,23.736639 -37.07633,36.236639 -9.8,9.7 -19.7,19.5 -29.4,29.2 C 79.1,127.55515 46.36566,159.80704 8.46566,197.60704 c -8.46566,-8.25189 0,0 -8.46566,-8.25189 z"
     fill="#69d5bd"
     id="path869" />
</svg>
