<?xml version="1.0" encoding="UTF-8" standalone="no"?>
<svg
   xmlns:dc="http://purl.org/dc/elements/1.1/"
   xmlns:cc="http://creativecommons.org/ns#"
   xmlns:rdf="http://www.w3.org/1999/02/22-rdf-syntax-ns#"
   xmlns:svg="http://www.w3.org/2000/svg"
   xmlns="http://www.w3.org/2000/svg"
   xmlns:sodipodi="http://sodipodi.sourceforge.net/DTD/sodipodi-0.dtd"
   xmlns:inkscape="http://www.inkscape.org/namespaces/inkscape"
   viewBox="0 0 730 730"
   class="FourStepApproach-shape"
   version="1.1"
   id="svg79"
   sodipodi:docname="circle-arrrow-original.svg"
   width="730"
   height="730"
   inkscape:version="1.0 (4035a4f, 2020-05-01)">
  <defs
     id="defs2996" />
  <sodipodi:namedview
     inkscape:document-rotation="0"
     pagecolor="#ffffff"
     bordercolor="#666666"
     borderopacity="1"
     objecttolerance="10"
     gridtolerance="10"
     guidetolerance="10"
     inkscape:pageopacity="0"
     inkscape:pageshadow="2"
     inkscape:window-width="1416"
     inkscape:window-height="869"
     id="namedview2994"
     showgrid="false"
     inkscape:zoom="1.4238999"
     inkscape:cx="553.96211"
     inkscape:cy="138.54115"
     inkscape:window-x="465"
     inkscape:window-y="47"
     inkscape:window-maximized="0"
     inkscape:current-layer="svg79" />
  <metadata
     id="metadata85">
    <rdf:RDF>
      <cc:Work
         rdf:about="">
        <dc:format>image/svg+xml</dc:format>
        <dc:type
           rdf:resource="http://purl.org/dc/dcmitype/StillImage" />
      </cc:Work>
    </rdf:RDF>
  </metadata>
  <line
     id="line2440"
     stroke-width="13.6887"
     stroke="#000000"
     y2="211.16031"
     x2="518.55371"
     y1="4.8396854"
     x1="724.87427" />
  <path
     id="path869"
     fill="#69d5bd"
     d="m 705.72501,13.318517 c -2,0 -4.3,-0.1 -6.7,0 -10.9,0.4 -21.8,0.7 -32.6,1.4 -5.2,0.3 -8.6,-0.4 -7.5,-6.8000002 0.2,-1.1 -0.2,-2.400004 -0.3,-3.6000037 1.9,-3.40000023 5.3,-1.9000002 7.9,-2.0000002 19.4,-0.9 38.8,-1.40000003 58.1,-2.30000016 4.4,-0.2 5.5,1.20000016 5.3,5.20000006 -0.9,20.6000042 -1.6,41.2000042 -2.3,61.8000042 -0.1,2.4 -1.4,3.4 -3,4.5 -7.6,0.4 -9.9,-2.7 -9.4,-10.5 0.9,-12.3 0.2,-24.8 0.2,-36.7 -9.7,-11 0,0 -9.7,-11 z" />
  <path
     d="M 484.67054,664.62945 A 301,301 0 0 1 73.021814,606.76378 301,301 0 0 1 111.74497,192.87536 a 301,301 0 0 1 415.23844,19.4974"
     sodipodi:arc-type="arc"
     sodipodi:open="true"
     sodipodi:end="5.5215236"
     sodipodi:start="0.94823738"
     sodipodi:ry="301"
     sodipodi:rx="301"
     sodipodi:cy="420.10037"
     sodipodi:cx="309.15265"
     sodipodi:type="arc"
     id="path3609"
     style="fill:none;fill-opacity:1;stroke:#000000;stroke-width:15.7861;stroke-linecap:butt;stroke-linejoin:round;stroke-miterlimit:4;stroke-dasharray:none;stroke-opacity:1;paint-order:normal" />
</svg>
