<?xml version="1.0" encoding="UTF-8" standalone="no"?>
<svg
   xmlns:dc="http://purl.org/dc/elements/1.1/"
   xmlns:cc="http://creativecommons.org/ns#"
   xmlns:rdf="http://www.w3.org/1999/02/22-rdf-syntax-ns#"
   xmlns:svg="http://www.w3.org/2000/svg"
   xmlns="http://www.w3.org/2000/svg"
   xmlns:sodipodi="http://sodipodi.sourceforge.net/DTD/sodipodi-0.dtd"
   xmlns:inkscape="http://www.inkscape.org/namespaces/inkscape"
   sodipodi:docname="goggles.svg"
   inkscape:version="1.0 (4035a4f, 2020-05-01)"
   id="svg902"
   version="1.1"
   viewBox="0 0 19.904587 10.354199"
   height="10.354199mm"
   width="19.904587mm">
  <defs
     id="defs896" />
  <sodipodi:namedview
     inkscape:window-maximized="0"
     inkscape:window-y="25"
     inkscape:window-x="0"
     inkscape:window-height="943"
     inkscape:window-width="1252"
     showgrid="false"
     inkscape:document-rotation="0"
     inkscape:current-layer="layer1"
     inkscape:document-units="mm"
     inkscape:cy="19.566992"
     inkscape:cx="37.614968"
     inkscape:zoom="0.35"
     inkscape:pageshadow="2"
     inkscape:pageopacity="0.0"
     borderopacity="1.0"
     bordercolor="#666666"
     pagecolor="#ffffff"
     id="base" />
  <metadata
     id="metadata899">
    <rdf:RDF>
      <cc:Work
         rdf:about="">
        <dc:format>image/svg+xml</dc:format>
        <dc:type
           rdf:resource="http://purl.org/dc/dcmitype/StillImage" />
        <dc:title></dc:title>
      </cc:Work>
    </rdf:RDF>
  </metadata>
  <g
     transform="translate(-95.88104,-142.98957)"
     id="layer1"
     inkscape:groupmode="layer"
     inkscape:label="Layer 1">
    <g
       transform="matrix(0.26458333,0,0,0.26458333,39.691461,-41.898927)"
       id="ReE806.tif">
      <g
         id="g73">
        <path
           class="st1"
           d="m 287.6,719.2 c 0,1 0,2.1 0,3.1 -0.1,0.6 -0.2,1.3 -0.3,1.9 -1.7,6.9 -5.9,11.5 -12.9,13.2 -6.7,1.6 -12.5,-0.5 -17,-5.7 -0.9,-1 -1.6,-2.3 -2.4,-3.4 -3.8,2.9 -5.6,3 -10.3,0.3 -0.1,0.2 -0.3,0.4 -0.4,0.7 -3.6,6.4 -11.1,9.8 -18.3,8.2 -7,-1.5 -12.2,-6.9 -13.4,-14 -1.5,-8.9 4.5,-17.6 13.3,-19.4 0.4,-0.1 0.9,-0.3 1.3,-0.5 2.6,-1.7 5.5,-2.5 8.6,-2.3 0.3,0 0.8,-0.1 1,-0.4 3.4,-2.6 7.8,-2.8 11.3,-0.5 0.6,0.4 1.2,0.9 1.8,1.4 0.1,0 0.1,0 0.1,-0.1 3.7,-3.7 9.3,-3.8 13.1,-0.7 0.2,0.2 0.5,0.2 0.8,0.2 3.2,-0.2 6,0.6 8.7,2.3 0.4,0.2 0.8,0.4 1.3,0.5 6.2,1.5 10.4,5.2 12.6,11.1 0.6,1.4 0.8,2.8 1.1,4.1 z m -17.1,13.6 c 6.7,0 12.1,-5.5 12,-12.1 -0.1,-6.7 -5.4,-11.9 -12,-11.9 -6.7,0 -12,5.4 -12,12 0,6.6 5.4,12 12,12 z m -41,0 c 6.6,0 12,-5.4 12,-12.1 0,-6.6 -5.4,-11.9 -12,-11.9 -6.6,0 -12,5.3 -12,12 0,6.5 5.4,12 12,12 z m 23.2,-9.7 c 0,-1.6 -1.3,-2.9 -2.9,-2.9 -1.6,0 -2.9,1.3 -2.9,2.9 0,1.6 1.4,3 3,3 1.5,-0.1 2.8,-1.4 2.8,-3 z"
           id="path67" />
        <path
           class="st1"
           d="m 270.1,710.3 c 1.1,0 1.8,0.5 2,1.3 0.2,0.8 -0.1,1.5 -0.8,1.8 -0.3,0.1 -0.7,0.2 -1.1,0.2 -3.6,0.2 -6.5,3.1 -6.7,6.7 0,0.1 0,0.2 0,0.3 -0.1,1.1 -0.8,1.8 -1.7,1.7 -1,-0.1 -1.6,-0.8 -1.6,-1.9 0,-4.4 3.2,-8.4 7.4,-9.6 0.8,-0.2 1.6,-0.3 2.5,-0.5 z"
           id="path69" />
        <path
           class="st1"
           d="m 219,720.4 c 0.2,-5.4 4.8,-10 10.1,-10 1,0 1.6,0.4 1.8,1.3 0.2,0.7 -0.1,1.5 -0.8,1.8 -0.3,0.1 -0.7,0.2 -1,0.2 -3.7,0.1 -6.8,3.2 -6.9,6.9 0,1.4 -1.1,2.1 -2.3,1.7 -0.5,-0.3 -0.9,-1 -0.9,-1.9 z"
           id="path71" />
      </g>
    </g>
  </g>
</svg>
