<?xml version="1.0" encoding="UTF-8" standalone="no"?>
<svg
   viewBox="0 0 257.57968 303.26483"
   version="1.1"
   id="svg1"
   sodipodi:docname="missing-headshot.svg"
   width="257.57968"
   height="303.26483"
   inkscape:version="1.3 (0e150ed6c4, 2023-07-21)"
   xml:space="preserve"
   xmlns:inkscape="http://www.inkscape.org/namespaces/inkscape"
   xmlns:sodipodi="http://sodipodi.sourceforge.net/DTD/sodipodi-0.dtd"
   xmlns="http://www.w3.org/2000/svg"
   xmlns:svg="http://www.w3.org/2000/svg"><defs
     id="defs1" /><sodipodi:namedview
     id="namedview1"
     pagecolor="#ffffff"
     bordercolor="#000000"
     borderopacity="0.25"
     inkscape:showpageshadow="2"
     inkscape:pageopacity="0.0"
     inkscape:pagecheckerboard="0"
     inkscape:deskcolor="#d1d1d1"
     inkscape:zoom="3.521787"
     inkscape:cx="143.81903"
     inkscape:cy="60.90658"
     inkscape:window-width="1920"
     inkscape:window-height="1009"
     inkscape:window-x="1912"
     inkscape:window-y="336"
     inkscape:window-maximized="1"
     inkscape:current-layer="svg1" /><path
     style="fill:#917c6f"
     d="m 49.305325,296.75384 c 31.709111,22.87882 65.655385,-21.461 81.115395,-26.90461 48.17519,-16.96292 108.82313,-5.62186 123.6809,-61.84045 14.85777,-56.21859 -20.88119,-60.63577 -50.59673,-74.28885 C 173.78935,120.06684 108.73641,37.746768 56.934991,44.573311 31.034283,47.986582 4.9951842,77.472268 1.3372552,102.85776 c -5.080273,35.25636 4.593466,41.80538 24.2759498,128.44158 4.3996,19.36568 -8.016988,42.57568 23.69212,65.4545 z"
     id="path1"
     sodipodi:nodetypes="zssssssz" /><ellipse
     style="fill:#4d4d4d"
     id="path2"
     cx="130.10486"
     cy="69.21199"
     rx="49.90406"
     ry="69.21199" /><path
     id="rect2"
     style="fill:#b3b3b3;stroke-width:1.62193"
     d="m 105.18133,142.97854 c -38.759304,0 -71.797341,25.88771 -85.64649,62.83203 1.91751,7.74021 3.911795,15.95276 6.078125,25.48828 4.399596,19.36566 -8.01767,42.57628 23.691407,65.45508 31.709074,22.87879 65.657198,-21.4607 81.117188,-26.9043 39.95561,-14.06873 88.46449,-8.7046 112.33985,-38.52539 -5.91949,-49.97976 -44.61734,-88.3457 -91.80274,-88.3457 z" /><path
     d="m 153.96596,48.542502 q 0,11.57699 -6.86635,20.519216 -0.87826,1.037937 -13.09398,13.093975 -7.3454,7.105876 -7.98413,13.972229 -0.15968,1.756509 -0.31936,3.513017 -0.31937,1.357301 -2.3154,2.075871 -2.3154,0.79842 -3.59286,0.79842 -4.07191,0 -4.79048,-0.23953 -1.91619,-0.71857 -1.91619,-3.83238 0,-9.580957 3.27349,-15.24969 5.26953,-6.866353 10.45921,-13.812546 6.22763,-8.303496 6.22763,-15.888421 0,-7.425241 -4.31144,-11.976196 -4.23158,-4.550955 -11.57698,-4.550955 -5.90826,0 -13.17382,4.151748 -7.185718,4.151748 -6.866353,4.151748 -2.475081,0 -2.475081,-15.329531 0,-1.117778 2.39524,-2.794445 12.535084,-8.702703 26.347634,-8.702703 13.49318,0 22.0362,8.303496 8.54302,8.303496 8.54302,21.796677 z m -22.75477,72.416068 q 0,4.47111 -2.95413,7.82445 -2.95413,3.35333 -7.3454,3.35333 -4.31143,0 -7.26556,-3.35333 -2.87429,-3.35334 -2.87429,-7.82445 0,-4.47111 2.87429,-7.66477 2.87428,-3.27349 7.26556,-3.27349 4.47111,0 7.3454,3.27349 2.95413,3.19366 2.95413,7.66477 z"
     id="text3"
     style="font-size:163.515px;font-family:'Berlin Sans FB';-inkscape-font-specification:'Berlin Sans FB, Normal';fill:#ffffff;stroke-width:0.141205"
     transform="scale(1.0708973,0.93379634)"
     aria-label="?" /></svg>
