<?xml version="1.0" encoding="UTF-8" standalone="no"?>
<svg
   viewBox="0 0 333 332.99999"
   version="1.1"
   id="svg1"
   sodipodi:docname="missing-headshot.svg"
   width="333"
   height="333"
   inkscape:version="1.3 (0e150ed6c4, 2023-07-21)"
   xml:space="preserve"
   xmlns:inkscape="http://www.inkscape.org/namespaces/inkscape"
   xmlns:sodipodi="http://sodipodi.sourceforge.net/DTD/sodipodi-0.dtd"
   xmlns="http://www.w3.org/2000/svg"
   xmlns:svg="http://www.w3.org/2000/svg"><defs
     id="defs1" /><sodipodi:namedview
     id="namedview1"
     pagecolor="#ffffff"
     bordercolor="#000000"
     borderopacity="0.25"
     inkscape:showpageshadow="2"
     inkscape:pageopacity="0.0"
     inkscape:pagecheckerboard="0"
     inkscape:deskcolor="#d1d1d1"
     inkscape:zoom="1.2451397"
     inkscape:cx="37.345207"
     inkscape:cy="164.2386"
     inkscape:window-width="1920"
     inkscape:window-height="1009"
     inkscape:window-x="1912"
     inkscape:window-y="133"
     inkscape:window-maximized="1"
     inkscape:current-layer="svg1" /><path
     style="fill:#917c6f;stroke-width:1.05"
     d="M 80.331099,319.00991 C 113.62567,343.03267 149.26925,296.47586 165.50226,290.76007 216.08621,272.949 279.76655,284.85712 295.36721,225.8276 310.96787,166.79808 273.44196,162.16004 242.24064,147.82431 211.03933,133.48856 142.73374,47.052486 88.342249,54.220356 61.146505,57.80429 33.805451,88.764261 29.964626,115.41903 c -5.334287,37.01918 4.823139,43.89565 25.489747,134.86366 4.61958,20.33396 -8.417837,44.70446 24.876726,68.72722 z"
     id="path1"
     sodipodi:nodetypes="zssssssz" /><ellipse
     style="fill:#4d4d4d;stroke-width:1.05"
     id="path2"
     cx="165.17061"
     cy="80.090965"
     rx="52.399261"
     ry="72.672592" /><path
     id="rect2"
     style="fill:#b3b3b3;stroke-width:1.70303"
     d="m 139.0009,157.54585 c -40.697261,0 -75.387204,27.18209 -89.92881,65.97363 2.013385,8.12722 4.107385,16.7504 6.382031,26.76269 4.619576,20.33394 -8.418553,44.7051 24.875978,68.72784 33.294531,24.02273 68.940061,-22.53374 85.173051,-28.24952 41.95339,-14.77217 92.88771,-9.13983 117.95684,-40.45166 -6.21547,-52.47875 -46.84821,-92.76298 -96.39288,-92.76298 z" /></svg>
