<?xml version="1.0" encoding="UTF-8" standalone="no"?>
<svg
   viewBox="0 0 333 332.99999"
   version="1.1"
   id="svg1"
   sodipodi:docname="missing-headshot.svg"
   width="333"
   height="333"
   inkscape:version="1.3 (0e150ed6c4, 2023-07-21)"
   xml:space="preserve"
   xmlns:inkscape="http://www.inkscape.org/namespaces/inkscape"
   xmlns:sodipodi="http://sodipodi.sourceforge.net/DTD/sodipodi-0.dtd"
   xmlns="http://www.w3.org/2000/svg"
   xmlns:svg="http://www.w3.org/2000/svg"><defs
     id="defs1" /><sodipodi:namedview
     id="namedview1"
     pagecolor="#ffffff"
     bordercolor="#000000"
     borderopacity="0.25"
     inkscape:showpageshadow="2"
     inkscape:pageopacity="0.0"
     inkscape:pagecheckerboard="0"
     inkscape:deskcolor="#d1d1d1"
     inkscape:zoom="1.2451397"
     inkscape:cx="37.345206"
     inkscape:cy="165.04172"
     inkscape:window-width="1920"
     inkscape:window-height="1009"
     inkscape:window-x="1912"
     inkscape:window-y="336"
     inkscape:window-maximized="1"
     inkscape:current-layer="svg1" /><path
     style="fill:#917c6f;stroke-width:1.05"
     d="M 80.331099,319.00991 C 113.62567,343.03267 149.26925,296.47586 165.50226,290.76007 216.08621,272.949 279.76655,284.85712 295.36721,225.8276 310.96787,166.79808 273.44196,162.16004 242.24064,147.82431 211.03933,133.48856 142.73374,47.052486 88.342249,54.220356 61.146505,57.80429 33.805451,88.764261 29.964626,115.41903 c -5.334287,37.01918 4.823139,43.89565 25.489747,134.86366 4.61958,20.33396 -8.417837,44.70446 24.876726,68.72722 z"
     id="path1"
     sodipodi:nodetypes="zssssssz" /><ellipse
     style="fill:#4d4d4d;stroke-width:1.05"
     id="path2"
     cx="165.17061"
     cy="80.090965"
     rx="52.399261"
     ry="72.672592" /><path
     id="rect2"
     style="fill:#b3b3b3;stroke-width:1.70303"
     d="m 139.0009,157.54585 c -40.697261,0 -75.387204,27.18209 -89.92881,65.97363 2.013385,8.12722 4.107385,16.7504 6.382031,26.76269 4.619576,20.33394 -8.418553,44.7051 24.875978,68.72784 33.294531,24.02273 68.940061,-22.53374 85.173051,-28.24952 41.95339,-14.77217 92.88771,-9.13983 117.95684,-40.45166 -6.21547,-52.47875 -46.84821,-92.76298 -96.39288,-92.76298 z" /><path
     d="m 201.68632,55.013631 q 0,11.351078 -7.7208,20.118807 -0.98756,1.017682 -14.72343,12.83846 -8.25948,6.967213 -8.9777,13.699572 -0.17955,1.72224 -0.3591,3.44447 -0.35911,1.33082 -2.60353,2.03536 -2.60353,0.78285 -4.03997,0.78285 -4.57861,0 -5.38661,-0.23487 -2.15464,-0.70454 -2.15464,-3.75759 0,-9.393994 3.68085,-14.952109 5.92527,-6.732363 11.76077,-13.54301 7.00261,-8.141462 7.00261,-15.578376 0,-7.280346 -4.84797,-11.742495 -4.75816,-4.462148 -13.01763,-4.462148 -6.6435,0 -14.8132,4.070731 -8.07993,4.070732 -7.72082,4.070732 -2.78309,0 -2.78309,-15.030393 0,-1.095966 2.69331,-2.739914 14.09497,-8.532881 29.62639,-8.532881 15.1723,0 24.77843,8.141463 9.60613,8.141464 9.60613,21.371341 z M 176.0999,126.01658 q 0,4.38387 -3.32175,7.67176 -3.32174,3.2879 -8.25947,3.2879 -4.84796,0 -8.16971,-3.2879 -3.23197,-3.28789 -3.23197,-7.67176 0,-4.38386 3.23197,-7.51519 3.23197,-3.20962 8.16971,-3.20962 5.0275,0 8.25947,3.20962 3.32175,3.13133 3.32175,7.51519 z"
     id="text3"
     style="font-size:163.515px;font-family:'Berlin Sans FB';-inkscape-font-specification:'Berlin Sans FB, Normal';fill:#ffffff;stroke-width:0.148265"
     aria-label="?" /></svg>
