<?xml version="1.0" encoding="UTF-8" standalone="no"?>
<svg
   xmlns:dc="http://purl.org/dc/elements/1.1/"
   xmlns:cc="http://creativecommons.org/ns#"
   xmlns:rdf="http://www.w3.org/1999/02/22-rdf-syntax-ns#"
   xmlns:svg="http://www.w3.org/2000/svg"
   xmlns="http://www.w3.org/2000/svg"
   xmlns:sodipodi="http://sodipodi.sourceforge.net/DTD/sodipodi-0.dtd"
   xmlns:inkscape="http://www.inkscape.org/namespaces/inkscape"
   sodipodi:docname="money-graph.svg"
   inkscape:version="1.0 (4035a4f, 2020-05-01)"
   id="svg1160"
   version="1.1"
   viewBox="0 0 10.265833 17.065624"
   height="17.065624mm"
   width="10.265833mm">
  <defs
     id="defs1154" />
  <sodipodi:namedview
     inkscape:window-maximized="0"
     inkscape:window-y="25"
     inkscape:window-x="0"
     inkscape:window-height="943"
     inkscape:window-width="1252"
     showgrid="false"
     inkscape:document-rotation="0"
     inkscape:current-layer="layer1"
     inkscape:document-units="mm"
     inkscape:cy="-244.89285"
     inkscape:cx="-566.31429"
     inkscape:zoom="0.35"
     inkscape:pageshadow="2"
     inkscape:pageopacity="0.0"
     borderopacity="1.0"
     bordercolor="#666666"
     pagecolor="#ffffff"
     id="base" />
  <metadata
     id="metadata1157">
    <rdf:RDF>
      <cc:Work
         rdf:about="">
        <dc:format>image/svg+xml</dc:format>
        <dc:type
           rdf:resource="http://purl.org/dc/dcmitype/StillImage" />
        <dc:title></dc:title>
      </cc:Work>
    </rdf:RDF>
  </metadata>
  <g
     transform="translate(-255.67066,-212.96123)"
     id="layer1"
     inkscape:groupmode="layer"
     inkscape:label="Layer 1">
    <g
       transform="matrix(0.26458333,0,0,0.26458333,194.65774,-177.59022)"
       id="g132">
      <path
         class="st1"
         d="m 250.7,1476.1 c 1.2,0.5 2,1.3 2.2,2.7 0,0.2 0.4,0.3 0.6,0.4 1.2,0.6 2.5,1 3.7,1.7 1.6,0.9 2,2.7 1.1,4.1 -0.9,1.4 -2.6,1.8 -4.1,0.8 -1.5,-0.9 -3.2,-1.4 -4.9,-1.3 -0.8,0.1 -1.6,0.2 -2,1.1 -0.3,0.6 -0.2,1.1 0.4,1.3 1.1,0.4 2.2,0.7 3.3,1 1.2,0.4 2.3,0.6 3.5,1.1 3.1,1.3 4.4,3.5 4.3,6.6 -0.1,3.1 -1.9,5.5 -4.9,6.5 -0.6,0.2 -0.9,0.4 -1.1,1.1 -0.3,1.3 -1.5,2.1 -2.8,2.1 -1.3,0 -2.5,-0.9 -2.8,-2.2 -0.1,-0.7 -0.5,-0.8 -1,-1 -1.2,-0.4 -2.4,-0.9 -3.5,-1.5 -1.5,-0.9 -1.9,-2.6 -1,-4 0.8,-1.4 2.6,-1.8 4.1,-0.9 1.5,0.9 3.1,1.4 4.8,1.3 0.6,0 1.3,-0.2 1.8,-0.6 0.8,-0.6 0.7,-1.5 -0.2,-1.9 -1,-0.4 -2.1,-0.6 -3.2,-1 -1.3,-0.4 -2.6,-0.7 -3.8,-1.3 -5.6,-2.5 -4.5,-9.4 -1,-11.8 0.4,-0.3 0.7,-0.6 1.2,-0.7 1.1,-0.4 1.9,-0.8 2.3,-2.1 0.2,-0.6 1.1,-1 1.7,-1.5 0.4,0 0.9,0 1.3,0 z"
         id="path124" />
      <path
         class="st1"
         d="m 233.8,1540.6 v 0 c -1.7,0 -3.2,-1.4 -3.2,-3.2 V 1505 c 0,-1.7 1.4,-3.2 3.2,-3.2 v 0 c 1.7,0 3.2,1.4 3.2,3.2 v 32.4 c -0.1,1.8 -1.5,3.2 -3.2,3.2 z"
         id="path126" />
      <path
         class="st1"
         d="m 250,1540.6 v 0 c -1.7,0 -3.2,-1.4 -3.2,-3.2 v -23.8 c 0,-1.7 1.4,-3.2 3.2,-3.2 v 0 c 1.7,0 3.2,1.4 3.2,3.2 v 23.8 c 0,1.8 -1.5,3.2 -3.2,3.2 z"
         id="path128" />
      <path
         class="st1"
         d="m 266.2,1540.6 v 0 c -1.7,0 -3.2,-1.4 -3.2,-3.2 v -39 c 0,-1.7 1.4,-3.2 3.2,-3.2 v 0 c 1.7,0 3.2,1.4 3.2,3.2 v 39 c 0,1.8 -1.4,3.2 -3.2,3.2 z"
         id="path130" />
    </g>
  </g>
</svg>
