<?xml version="1.0" encoding="UTF-8" standalone="no"?>
<!-- Generator: Adobe Illustrator 25.4.1, SVG Export Plug-In . SVG Version: 6.00 Build 0)  -->

<svg
   xmlns:dc="http://purl.org/dc/elements/1.1/"
   xmlns:cc="http://creativecommons.org/ns#"
   xmlns:rdf="http://www.w3.org/1999/02/22-rdf-syntax-ns#"
   xmlns:svg="http://www.w3.org/2000/svg"
   xmlns="http://www.w3.org/2000/svg"
   xmlns:sodipodi="http://sodipodi.sourceforge.net/DTD/sodipodi-0.dtd"
   xmlns:inkscape="http://www.inkscape.org/namespaces/inkscape"
   version="1.1"
   id="Layer_1"
   x="0px"
   y="0px"
   viewBox="0 0 2005.9 2005.9"
   xml:space="preserve"
   sodipodi:docname="people.svg"
   style="enable-background:new 0 0 2005.9 2005.9;"><metadata
   id="metadata1879"><rdf:RDF><cc:Work
       rdf:about=""><dc:format>image/svg+xml</dc:format><dc:type
         rdf:resource="http://purl.org/dc/dcmitype/StillImage" /></cc:Work></rdf:RDF></metadata><defs
   id="defs1877" /><sodipodi:namedview
   pagecolor="#ffffff"
   bordercolor="#666666"
   borderopacity="1"
   objecttolerance="10"
   gridtolerance="10"
   guidetolerance="10"
   inkscape:pageopacity="0"
   inkscape:pageshadow="2"
   inkscape:window-width="1464"
   inkscape:window-height="952"
   id="namedview1875"
   showgrid="false"
   inkscape:zoom="0.40732211"
   inkscape:cx="1138.171"
   inkscape:cy="462.143"
   inkscape:window-x="0"
   inkscape:window-y="25"
   inkscape:window-maximized="0"
   inkscape:current-layer="Layer_1" />
<style
   type="text/css"
   id="style1398">
	.st0{fill:#3E4152;}
	.st1{fill:#69D5BD;}
	.st2{fill:#DED152;}
	.st3{fill:#A2D385;}
	.st4{fill:#FDD03F;}
	.st5{clip-path:url(#SVGID_00000052077275506865590800000009543640316820527785_);}
	.st6{clip-path:url(#SVGID_00000085250082539560275810000016592960445962748343_);fill:#FDD03F;}
	.st7{clip-path:url(#SVGID_00000165208838130515205100000016230279506158486456_);}
	.st8{clip-path:url(#SVGID_00000150800283626508335570000005242778362307299262_);fill:#FDD03F;}
	.st9{clip-path:url(#SVGID_00000097474485244809068320000007398244204990777216_);}
	.st10{clip-path:url(#SVGID_00000019645861087488306000000014363725401830849426_);fill:#DED152;}
	.st11{clip-path:url(#SVGID_00000162348595973678961880000017328270803066632637_);}
	.st12{clip-path:url(#SVGID_00000145761189139918688500000003238581509971028628_);fill:#DED152;}
	.st13{clip-path:url(#SVGID_00000163785461245438514790000004075615194160958143_);}
	.st14{clip-path:url(#SVGID_00000142889957881605684370000003726723812359403657_);fill:#DED152;}
	.st15{clip-path:url(#SVGID_00000046313951348247374480000003156790594928495244_);}
	.st16{clip-path:url(#SVGID_00000068659799599071441270000016382685458413534135_);fill:#A2D385;}
	.st17{clip-path:url(#SVGID_00000104699247012387363920000000723874500119990913_);}
	.st18{clip-path:url(#SVGID_00000141437475611729693940000009451843885484312248_);fill:#A2D385;}
	.st19{clip-path:url(#SVGID_00000061467013817330053730000010190250097665510529_);}
	.st20{clip-path:url(#SVGID_00000065044685458417069220000012224627999170330008_);fill:#A2D385;}
	.st21{clip-path:url(#SVGID_00000127004630417997068880000000150018546837149117_);}
	.st22{clip-path:url(#SVGID_00000168828700203328976460000012121278422854404772_);fill:#A2D385;}
	.st23{clip-path:url(#SVGID_00000031893479433335290620000001289047885395829644_);}
	.st24{clip-path:url(#SVGID_00000067920082584156748390000016901407249274375808_);fill:#A2D385;}
	.st25{clip-path:url(#SVGID_00000127738771265741666070000009900987273764796044_);}
	.st26{clip-path:url(#SVGID_00000176006128257904916630000002481721753629488048_);fill:#69D5BD;}
</style>


<path
   class="st1"
   d="m 1112.5625,907.78037 c -19,13.5 -38.4,26.4 -59.5,36.5 -182.70002,86.60003 -399.40002,-21 -440.20002,-219.1 -16.7,-81.1 -3,-157.5 40,-228.4 4.3,-7.1 8.6,-14.2 13,-21.3 0.4,-0.5 0.9,-0.9 1.3,-1.4 1.7,-0.3 1.7,-1.6 1.9,-2.9 21.4,-23.5 43.1,-46.6 69.2,-65.2 118.9,-84.6 283.70002,-74.7 391.10002,24.2 4.9,4.5 7.3,5.1 12.4,0 43.5,-44 87.3,-87.6 131,-131.3 1.9,-1.9 3.6,-3.9 5.4,-5.9 12.6,-13.2 25.3,-26.3 38,-39.5 -2,0 -4.3,-0.1 -6.7,0 -10.9,0.4 -21.8,0.7 -32.6,1.4 -5.2,0.3 -8.6,-0.4 -7.5,-6.8 0.2,-1.1 -0.2,-2.4 -0.3,-3.6 1.9,-3.4 5.3,-1.9 7.9,-2 19.4,-0.9 38.8,-1.4 58.1,-2.3 4.4,-0.2 5.5,1.2 5.3,5.2 -0.9,20.6 -1.6,41.2 -2.3,61.8 -0.1,2.4 -1.4,3.4 -3,4.5 -7.6,0.4 -9.9,-2.7 -9.4,-10.5 0.9,-12.3 0.2,-24.8 0.2,-36.7 -12.3,12 -25,24.4 -37.8,36.9 -9.8,9.7 -19.7,19.5 -29.4,29.2 -37.8,37.8 -75.6,75.6 -113.5,113.4 -2.4,2.4 -5,4.5 -7.6,6.8 -3.4,0.2 -5.9,-1.3 -8.3,-3.7 -6,-5.7 -12,-11.5 -18.3,-16.7 -67.3,-55.1 -144.60002,-77.2 -230.60002,-67 -65.9,7.8 -122.3,36.7 -170.6,81.8 -4,3.7 -8.9,6.9 -11,12.4 -25.9,26.4 -44.8,57.4 -58.6,91.5 -57.5,142.2 2.4,306.1 138,377.8 115.6,61.1 257.20002,40.8 350.30002,-50.2 0.9,-0.9 1.7,-1.7 2.6,-2.5 3,-2.6 6.3,-3 9.1,0 2.8,3 2.2,6.4 -0.6,9.1 -6.5,6.3 -13.1,12.4 -19.6,18.5 -0.8,0.7 -1.7,1.3 -2.5,2 -1.1,0.9 -2.2,1.8 -3.2,2.8 -0.6,0.3 -1.2,0.8 -1.7,1.2 z"
   id="path1474"
   style="stroke:#000000;stroke-opacity:1;stroke-width:15;stroke-miterlimit:4;stroke-dasharray:none" />










<g
   id="g1844">
</g>
<g
   id="g1846">
</g>
<g
   id="g1848">
</g>
<g
   id="g1850">
</g>
<g
   id="g1852">
</g>
<g
   id="g1854">
</g>
<g
   id="g1856">
</g>
<g
   id="g1858">
</g>
<g
   id="g1860">
</g>
<g
   id="g1862">
</g>
<g
   id="g1864">
</g>
<g
   id="g1866">
</g>
<g
   id="g1868">
</g>
<g
   id="g1870">
</g>
<g
   id="g1872">
</g>
</svg>
