<?xml version="1.0" encoding="UTF-8" standalone="no"?>
<svg
   xmlns:dc="http://purl.org/dc/elements/1.1/"
   xmlns:cc="http://creativecommons.org/ns#"
   xmlns:rdf="http://www.w3.org/1999/02/22-rdf-syntax-ns#"
   xmlns:svg="http://www.w3.org/2000/svg"
   xmlns="http://www.w3.org/2000/svg"
   xmlns:sodipodi="http://sodipodi.sourceforge.net/DTD/sodipodi-0.dtd"
   xmlns:inkscape="http://www.inkscape.org/namespaces/inkscape"
   sodipodi:docname="price-tag.svg"
   inkscape:version="1.0 (4035a4f, 2020-05-01)"
   id="svg986"
   version="1.1"
   viewBox="0 0 16.185169 22.197493"
   height="22.197493mm"
   width="16.185169mm">
  <defs
     id="defs980" />
  <sodipodi:namedview
     inkscape:window-maximized="0"
     inkscape:window-y="25"
     inkscape:window-x="0"
     inkscape:window-height="943"
     inkscape:window-width="1252"
     showgrid="false"
     inkscape:document-rotation="0"
     inkscape:current-layer="layer1"
     inkscape:document-units="mm"
     inkscape:cy="-112.3377"
     inkscape:cx="-226.55672"
     inkscape:zoom="0.35"
     inkscape:pageshadow="2"
     inkscape:pageopacity="0.0"
     borderopacity="1.0"
     bordercolor="#666666"
     pagecolor="#ffffff"
     id="base" />
  <metadata
     id="metadata983">
    <rdf:RDF>
      <cc:Work
         rdf:about="">
        <dc:format>image/svg+xml</dc:format>
        <dc:type
           rdf:resource="http://purl.org/dc/dcmitype/StillImage" />
        <dc:title></dc:title>
      </cc:Work>
    </rdf:RDF>
  </metadata>
  <g
     transform="translate(-165.77647,-177.88935)"
     id="layer1"
     inkscape:groupmode="layer"
     inkscape:label="Layer 1">
    <g
       transform="matrix(0.26458333,0,0,0.26458333,106.87905,-70.759778)"
       id="_x33_RWayQ.tif">
      <g
         id="g90">
        <path
           class="st1"
           d="m 229.8,942.5 c 0.8,-0.6 1.4,-1.3 2.3,-1.8 1.3,-0.8 2.7,-1 4.2,-0.9 0.1,0 0.3,0 0.4,0 1,0.4 2,0.9 3.1,1.3 1.2,1 2.5,1.9 3.6,3 2.8,2.6 4.8,5.6 5.3,9.5 0.1,0.6 0.3,0.9 0.9,1 4.2,1.3 8.3,2.6 12.5,3.9 3.8,1.1 6.4,3.5 7.9,7.1 4.3,10.7 8.6,21.5 12.9,32.2 1.1,2.8 1.2,5.6 0.1,8.4 -1.2,3.3 -3.6,5.6 -6.9,6.9 -8.1,3.2 -16.1,6.4 -24.2,9.6 -0.4,0.2 -0.8,0.3 -1.2,0.4 -5.6,1.9 -12,-1.1 -14.2,-6.5 -0.6,-1.5 0,-3.1 1.4,-3.8 1.4,-0.7 3,-0.1 3.8,1.3 0.3,0.5 0.5,1 0.8,1.4 1.7,2.3 4.4,2.9 7.3,1.7 8,-3.2 16,-6.4 24.1,-9.6 0.6,-0.2 1.2,-0.5 1.7,-0.9 2.3,-1.7 3,-4.3 1.8,-7.1 -4.3,-10.6 -8.5,-21.3 -12.8,-31.9 -0.8,-2 -2.2,-3.2 -4.2,-3.8 -3.4,-1 -6.8,-2.1 -10.2,-3.2 -3.3,-1 -6.6,-2.1 -9.9,-3.1 -0.2,-0.1 -0.6,0 -0.6,0.2 -0.4,0.7 -0.8,1.4 -1.2,2.1 2,1.9 4.2,3.4 6.5,4.7 1.5,0.8 2.1,2.5 1.3,4 -0.7,1.4 -2.4,1.9 -3.9,1.1 -0.8,-0.4 -1.6,-0.9 -2.4,-1.4 -1.5,-1 -2.9,-2.1 -4.4,-3.1 -0.1,0.1 -0.2,0.3 -0.3,0.5 -1.8,3.3 -3.6,6.6 -5.5,9.8 -1.5,2.4 -1.6,4.8 -0.5,7.4 2.4,5.6 4.6,11.2 6.9,16.9 0.7,1.7 0,3.4 -1.5,4 -1.6,0.6 -3.1,-0.1 -3.9,-1.8 -2.5,-6 -4.9,-12 -7.3,-18 -1.3,-3.3 -1.2,-6.6 0.4,-9.7 2.3,-4.3 4.7,-8.6 7.1,-12.8 0.3,-0.5 0.3,-0.9 -0.1,-1.4 -2.1,-3.1 -3.3,-6.5 -3.1,-10.2 0.1,-1.2 0.3,-2.3 0.5,-3.5 0.4,-1.4 0.9,-2.7 1.5,-3.9 z m 5.9,10.3 c 0.9,-1.5 2.2,-2 3.9,-1.4 0.9,0.3 1.7,0.6 2.7,0.9 -0.6,-1.6 -1.6,-2.8 -2.7,-3.8 -1.1,-1 -2.3,-1.9 -3.5,-2.8 -0.6,-0.5 -1.4,-0.3 -1.7,0.4 -1.3,2.9 -1.4,5.8 0.1,8.8 0.4,-0.8 0.8,-1.5 1.2,-2.1 z"
           id="path86" />
        <path
           class="st1"
           d="m 260.4,1002.5 c 0.2,0.6 0.4,1.1 0.6,1.7 0.5,1.5 -0.2,3.1 -1.7,3.6 -1.5,0.6 -3.1,-0.1 -3.7,-1.6 -0.2,-0.5 -0.4,-0.9 -0.5,-1.3 -1.1,0.1 -2.2,0.3 -3.3,0.2 -2.8,-0.2 -4.7,-1.8 -5.8,-4.3 -0.6,-1.4 0,-3 1.3,-3.7 1.4,-0.7 3,-0.2 3.8,1.1 0.7,1.2 1.1,1.4 2.5,0.8 1.1,-0.4 2.2,-0.9 3.4,-1.3 1.5,-0.6 2,-1.8 1.5,-3.1 -0.6,-1.4 -1.8,-1.9 -3.3,-1.3 -0.9,0.3 -1.8,0.7 -2.7,1 -3.9,1.3 -8.2,-0.6 -10,-4.4 -1.2,-2.7 -1.5,-5.3 0,-7.9 0.5,-0.8 1.1,-1.6 1.8,-2.2 0.4,-0.4 0.5,-0.7 0.3,-1.2 -0.2,-0.3 -0.3,-0.7 -0.4,-1.1 -0.5,-1.5 0.2,-3.1 1.6,-3.7 1.4,-0.6 3,0 3.7,1.4 0.3,0.6 0.5,1.1 0.7,1.5 1.3,0.2 2.6,0.2 3.8,0.5 2.2,0.6 3.6,2 4.4,4.1 0.6,1.4 -0.1,3 -1.5,3.6 -1.4,0.6 -3,0.1 -3.7,-1.3 -0.6,-1.1 -1.1,-1.3 -2.3,-0.8 -0.7,0.3 -1.4,0.5 -2.1,0.8 -1.3,0.6 -1.8,1.8 -1.2,3.2 0.6,1.5 1.8,2.2 3.2,1.7 1,-0.3 2,-0.8 3,-1.1 3.2,-1 6.1,-0.4 8.4,2 2.3,2.4 3,5.4 1.9,8.6 -0.7,2.1 -1.9,3.5 -3.7,4.5 z"
           id="path88" />
      </g>
    </g>
  </g>
</svg>
