
<svg width="66px" height="66px" viewBox="0 0 66 66" version="1.1" xmlns="http://www.w3.org/2000/svg" xmlns:xlink="http://www.w3.org/1999/xlink">
    <defs>
        <polygon id="path-gp8sdniu8j-1" points="0 0 66 0 66 66 0 66"></polygon>
    </defs>
    <g id="Page-1" stroke="none" stroke-width="1" fill="none" fill-rule="evenodd">
        <g id="Website-Creation/shopify" transform="translate(-1459.000000, -2472.000000)">
            <g id="Group-54-Copy" transform="translate(860.000000, 2249.000000)">
                <g id="Group-52" transform="translate(139.000000, 71.000000)">
                    <g id="Group-51" transform="translate(210.000000, 152.000000)">
                        <g id="Group-50" transform="translate(246.000000, 0.000000)">
                            <g id="Group-12" transform="translate(4.000000, 0.000000)">
                                <g id="Group-3">
                                    <mask id="mask-gp8sdniu8j-2" fill="white">
                                        <use xlink:href="#path-gp8sdniu8j-1"></use>
                                    </mask>
                                    <g id="Clip-2"></g>
                                    <path d="M63.4057733,32.9822095 C63.398927,16.1852689 49.8096519,2.58105192 33.0163603,2.55945042 C16.2166125,2.53790003 2.5711673,16.183331 2.57800843,32.9977132 C2.58485471,49.794783 16.174259,63.399 32.9674214,63.4206015 C49.7672984,63.4421519 63.4126144,49.796721 63.4057733,32.9822095 M0,31.0558778 C0.166702339,29.8067984 0.2906638,28.5503546 0.507079851,27.3100606 C1.8413442,19.6646813 5.46850819,13.2889239 11.2670638,8.16495911 C16.1902707,3.81462772 21.9318815,1.1388225 28.4486388,0.310538624 C38.6794622,-0.989573778 47.708376,1.78648855 55.3490505,8.74763892 C60.704573,13.6267748 64.0302266,19.6994354 65.40749,26.8223408 C68.7207475,43.9577783 57.812268,60.9791346 40.8808111,65.0361882 C39.1161681,65.4590509 37.2864453,65.6095658 35.4871963,65.8886319 C35.2986716,65.9179597 35.112342,65.9625328 34.9249794,66 L31.0588023,66 C30.1883604,65.895867 29.3155942,65.8077544 28.4477349,65.685017 C21.9423407,64.7655198 16.1909163,62.1658118 11.2674512,57.8154804 C5.46876645,52.6915156 1.8413442,46.315629 0.507079851,38.6701205 C0.2906638,37.4296973 0.166702339,36.1732536 0,34.9241741 C0,33.6347851 0,32.3452669 0,31.0558778" id="Fill-1" fill="#7ADCC7" mask="url(#mask-gp8sdniu8j-2)"></path>
                                </g>
                                <path d="M32.7643601,9.56479204 C24.7627884,9.87040363 17.8467057,13.5050351 13.1886152,20.9264651 C7.40423167,30.1423411 8.74677295,41.9409673 16.3590978,49.7736697 C19.5841574,53.092213 23.4943894,55.2790224 28.0200278,56.3623337 C28.2685846,56.421744 28.5194583,56.486137 28.7542421,56.5837488 C29.3871544,56.847326 29.6877138,57.4582936 29.5136854,58.0840819 C29.3495684,58.673713 28.7833326,59.085752 28.1343304,58.9726809 C27.3576388,58.8373787 26.5800461,58.6602978 25.8324449,58.4132021 C16.6506468,55.3791894 10.5399602,49.2951934 7.99144867,40.0229734 C5.77722096,31.967195 7.29765217,24.4305218 12.2935018,17.6887965 C16.5761184,11.9096455 22.3826416,8.45886648 29.5032591,7.33569277 C35.70096,6.35817008 41.5485446,7.52555014 46.9623455,10.7066193 C51.9284611,13.6247501 55.5457281,17.7430962 57.8377022,22.9829552 C59.8279585,27.5330161 60.4724555,32.2965707 59.6539301,37.1932554 C58.1701839,46.0688957 53.3390948,52.5847342 45.333404,56.7729673 C43.3594951,57.8055563 41.2457971,58.4979097 39.0611748,58.9616931 C38.3128013,59.1206316 37.676671,58.7745188 37.4884836,58.1176839 C37.2876816,57.416387 37.6350947,56.7603187 38.3899041,56.5249773 C39.3676552,56.2202601 40.3855666,56.0279752 41.341178,55.6692137 C50.0879052,52.3856778 55.5517779,46.1990873 57.0325636,37.0431327 C58.5226171,27.830323 55.2810814,20.1984656 47.8933715,14.4099879 C43.7040764,11.1274741 38.8342428,9.64643326 32.7643601,9.56479204" id="Fill-4" fill="#7ADCC7"></path>
                                <path d="M37.9343407,40.4425664 C37.1708242,39.6366116 36.473567,38.9087871 35.7875661,38.1701365 C35.6434075,38.014789 35.5244478,37.8290502 35.4209657,37.6417463 C34.9378359,36.7669221 35.1614289,36.1195756 36.0978846,35.8340545 C36.5591412,35.6933157 37.0586439,35.6243158 37.5408784,35.6235332 C40.3476873,35.6188376 43.154752,35.6231419 45.9610493,35.6672288 C47.5438526,35.6921418 47.9759449,36.1181409 47.9902712,37.7387896 C48.0173889,40.7959135 47.9805498,43.8534287 47.9677584,46.9108135 C47.9672468,47.0400741 47.9478039,47.1703782 47.9256748,47.298204 C47.8288442,47.8571158 47.7636082,48.4730276 47.1303078,48.6662011 C46.4977749,48.8591137 45.9634796,48.5553317 45.5228172,48.1050718 C45.0272797,47.5988555 44.5340448,47.0875522 44.0763698,46.5463795 C43.6886635,46.0880326 43.3407385,46.09025 42.8794819,46.4446406 C41.0799928,47.8264637 39.1023201,48.844505 36.9171715,49.4412429 C30.9033119,51.0832829 23.0194828,49.1010697 19.012844,43.5621685 C17.4539605,41.4071296 16.3744973,39.0179608 16.0388519,36.3323143 C15.9725927,35.8022285 16.0004779,35.2508818 16.0525387,34.7162308 C16.158707,33.6241027 16.6927465,33.1251907 17.7454757,33.0915386 C18.9990293,33.0514952 20.2529667,33.012104 21.5069041,33.0003649 C23.2291333,32.984191 23.7708475,33.5022769 23.8431187,35.2379688 C23.9051568,36.728183 24.4564646,38.0151803 25.3631165,39.1542648 C26.6560675,40.7788266 28.3836691,41.6668247 30.3607022,42.0363456 C32.7106036,42.475649 34.9740354,42.1618236 37.0930527,40.9867392 C37.3852075,40.8248699 37.6563844,40.6237399 37.9343407,40.4425664" id="Fill-6" fill="#7ADCC7"></path>
                                <path d="M27.0225941,26.0386452 C27.6694874,26.6772897 28.2727182,27.2483508 28.8441597,27.8478291 C29.115071,28.1321242 29.3543206,28.4541028 29.5568019,28.7880661 C30.0568771,29.6129047 29.807414,30.2878737 28.8449257,30.545852 C28.283953,30.6960922 27.6740834,30.7340229 27.0875771,30.725992 C24.4356594,30.6896675 21.7842524,30.6186246 19.1325901,30.5605548 C17.5537212,30.5260836 17.0664128,30.1015561 17.0440709,28.5696247 C17.0023235,25.7143191 17.0107496,22.8583957 17,20.0027194 C16.9996425,19.8797843 17.0033449,19.7546253 17.0268358,19.6342849 C17.1342045,19.0828686 17.2506376,18.5287343 17.8736569,18.284841 C18.4803348,18.0473725 18.9580681,18.331544 19.3687757,18.7071445 C19.876894,19.1715796 20.357819,19.6662851 20.8238068,20.1709983 C21.5121921,20.9161454 21.5255973,20.9517286 22.3353948,20.2936863 C24.3222903,18.6788509 26.6292493,17.712915 29.1497967,17.3019783 C35.0222648,16.344444 40.2631598,17.6301346 44.6679578,21.645107 C46.2280595,23.0669528 47.0699017,24.9162914 47.8212273,26.7924409 C48.2859384,27.9527255 48.5798299,29.178493 48.9227459,30.3822681 C49.0056024,30.6729879 49.0013893,30.9931132 48.9990913,31.2994006 C48.9900269,32.5204731 48.5153576,32.9860202 47.2707233,32.9931862 C45.9544672,33.0008465 44.6380835,33.0040589 43.3219551,32.9919507 C41.9608876,32.9793483 41.4437049,32.5677939 41.1946248,31.2750607 C40.9653333,30.0845058 40.7886409,28.8899971 40.0539121,27.8505473 C38.7568063,26.0155408 36.9321766,24.9889405 34.7246709,24.566884 C31.9803217,24.0422788 29.4180269,24.4860805 27.0225941,26.0386452" id="Fill-8" fill="#7ADCC7"></path>
                                <path d="M32.5376134,59.9995262 C31.7448033,60.0205898 31.0244934,59.3364005 31.000579,58.5396192 C30.9771186,57.7534455 31.6700328,57.0251589 32.4648105,57.0006099 C33.2502041,56.9765155 33.9759629,57.6697971 33.9994233,58.4668814 C34.0227323,59.2583589 33.3361751,59.978311 32.5376134,59.9995262" id="Fill-10" fill="#7ADCC7"></path>
                            </g>
                        </g>
                    </g>
                </g>
            </g>
        </g>
    </g>
</svg>
