<?xml version="1.0" encoding="UTF-8" standalone="no"?>
<svg
   xmlns:dc="http://purl.org/dc/elements/1.1/"
   xmlns:cc="http://creativecommons.org/ns#"
   xmlns:rdf="http://www.w3.org/1999/02/22-rdf-syntax-ns#"
   xmlns:svg="http://www.w3.org/2000/svg"
   xmlns="http://www.w3.org/2000/svg"
   xmlns:sodipodi="http://sodipodi.sourceforge.net/DTD/sodipodi-0.dtd"
   xmlns:inkscape="http://www.inkscape.org/namespaces/inkscape"
   width="16.663541mm"
   height="14.287499mm"
   viewBox="0 0 16.663541 14.287499"
   version="1.1"
   id="svg718"
   inkscape:version="1.0 (4035a4f, 2020-05-01)"
   sodipodi:docname="save.svg">
  <defs
     id="defs712" />
  <sodipodi:namedview
     id="base"
     pagecolor="#ffffff"
     bordercolor="#666666"
     borderopacity="1.0"
     inkscape:pageopacity="0.0"
     inkscape:pageshadow="2"
     inkscape:zoom="1.8347658"
     inkscape:cx="-95.070579"
     inkscape:cy="88.969441"
     inkscape:document-units="mm"
     inkscape:current-layer="layer1"
     inkscape:document-rotation="0"
     showgrid="false"
     inkscape:window-width="1252"
     inkscape:window-height="943"
     inkscape:window-x="0"
     inkscape:window-y="25"
     inkscape:window-maximized="0" />
  <metadata
     id="metadata715">
    <rdf:RDF>
      <cc:Work
         rdf:about="">
        <dc:format>image/svg+xml</dc:format>
        <dc:type
           rdf:resource="http://purl.org/dc/dcmitype/StillImage" />
        <dc:title />
      </cc:Work>
    </rdf:RDF>
  </metadata>
  <g
     inkscape:label="Layer 1"
     inkscape:groupmode="layer"
     id="layer1"
     transform="translate(-247.14919,-48.796726)">
    <g
       id="g32"
       transform="matrix(0.26458333,0,0,0.26458333,188.72398,5.378602)">
      <path
         id="path20"
         d="m 272.4,195.3 c 6.2,0 11.3,5.1 11.4,11.3 0,6.3 -5.1,11.5 -11.3,11.5 -6.3,0 -11.4,-5 -11.5,-11.4 0,-6.2 5.1,-11.3 11.4,-11.4 z m 0,3.1 c -4.6,0 -8.3,3.7 -8.4,8.2 0,4.6 3.7,8.3 8.3,8.4 4.5,0 8.3,-3.7 8.3,-8.3 0.1,-4.5 -3.6,-8.3 -8.2,-8.3 z"
         class="st1" />
      <g
         id="g28">
        <path
           id="path22"
           d="m 274.8,172.4 c 0,-3.5 -2.5,-6.8 -6,-7.9 -0.4,-0.1 -0.7,-0.2 -1.1,-0.3 -0.2,0 -0.3,-0.1 -0.5,-0.1 v 0 h -33.3 v 0 c -0.2,0 -0.3,0.1 -0.5,0.1 -0.4,0.1 -0.8,0.2 -1.2,0.3 -3.2,1.1 -5.1,3.4 -5.8,6.7 0,0.1 0,0.2 -0.1,0.3 0,0.1 0,0.1 0,0.2 v 0 33.3 0 c 0,0 0,0.1 0,0.1 0,0.1 0,0.1 0.1,0.2 0.8,4.4 4.3,7.3 8.8,7.3 3.1,0 6.2,0 9.3,0 2.3,0 4.5,0 6.8,0 H 259 V 209 h -7.5 c -5.4,0 -10.7,0 -16.1,0 -3.4,0 -5.5,-2.1 -5.5,-5.5 0,-2.5 0,-5.1 0,-7.6 v -6.8 c 0,-1.6 0,-3.2 0,-4.8 0,-3.8 0,-7.7 0,-11.6 0,-2.7 2,-4.9 4.5,-5.1 1.4,-0.1 2.9,-0.1 4.3,-0.1 0.6,0 1.2,0 1.8,0 v 0.6 c 0,0.8 0,1.5 0,2.3 0,1.7 0,3.4 0,5.1 0,3.2 2,5.2 5.2,5.2 3.3,0 6.6,0 9.7,0 3.2,0 5.2,-2 5.2,-5.3 0,-1.4 0,-2.8 0,-4.1 0,-1.1 0,-2.2 0,-3.3 0,-0.1 0,-0.3 0,-0.5 0,0 0,0 0,0 h 1.5 c 1.2,0 2.5,0 3.7,0 3.4,0 5.5,2.1 5.5,5.4 0,3.4 0,6.9 0,10.3 v 9.2 h 3.5 v -0.2 c 0,0 0,-0.1 0,-0.1 0,-0.1 0,-0.1 0,-0.2 0,-1.5 0,-6.9 0,-8.4 0,-3.5 0,-7.3 0,-11.1 z m -17.8,3.3 c 0,1.2 -0.4,1.7 -1.6,1.7 -3.3,0 -6.6,0 -9.7,0 -1.2,0 -1.6,-0.4 -1.6,-1.6 0,-2.2 0,-4.4 0,-6.5 v -1.2 c 0,-0.1 0,-0.2 0,-0.3 H 257 c 0,0.1 0,0.2 0,0.3 0,2.3 0,5 0,7.6 z"
           class="st1" />
        <rect
           id="rect24"
           height="3.5"
           width="13.8"
           class="st1"
           y="195.39999"
           x="234.39999" />
        <rect
           id="rect26"
           height="3.5"
           width="9.8999996"
           class="st1"
           y="201.5"
           x="234.39999" />
      </g>
      <path
         id="path30"
         d="m 267.5,207.2 c 0.8,-0.8 1.5,-1.5 2.2,-2.2 0.6,0.7 1.3,1.4 1.9,2.1 1.6,-1.6 3.1,-3.2 4.6,-4.7 0.8,0.8 1.5,1.5 2.3,2.3 -0.3,0.3 -0.7,0.7 -1.1,1 -1.5,1.5 -3,3 -4.5,4.5 -0.9,0.9 -1.7,0.9 -2.5,0 -0.9,-1.1 -1.9,-2.1 -2.9,-3 z"
         class="st1" />
    </g>
  </g>
</svg>
