<svg xmlns="http://www.w3.org/2000/svg" xmlns:xlink="http://www.w3.org/1999/xlink" xml:space="preserve" viewBox="0 0 94.3 94.3">
  <defs>
    <path id="c" d="M-962.3-4238.6h3684.4v14447.4H-962.3z"/>
  </defs>
  <g transform="translate(-1573 -824.9)">
    <defs>
      <path d="M1573 869.6c.2-1.7.4-3.3.7-5 .7-4 2-7.9 3.7-11.6 0-.1.1-.2.2-.3l8.1 8.1c.2.2.2.8.1 1.1-1.2 3.9-1.8 7.8-1.6 11.8.5 9.7 4.2 18 11.3 24.7 5.1 4.8 11.1 8 18 9.2 10.9 2 20.8-.6 29.4-7.6 7.2-5.9 11.5-13.6 12.8-22.9 1.4-10.3-1.3-19.6-7.8-27.6-5.9-7.2-13.6-11.5-22.8-12.8-5.2-.8-10.2-.3-15.2 1.2-.8.2-1.3.1-1.8-.5-2.3-2.4-4.6-4.7-7-7-.2-.2-.4-.4-.7-.8 1.7-.7 3.3-1.4 4.9-2 3.7-1.3 7.5-2.2 11.5-2.5.2 0 .4-.1.6-.2h5.5c.6.1 1.3.2 1.9.2 7.6.8 14.7 3.2 21 7.5 11.3 7.6 18.3 18 20.8 31.4.3 1.7.5 3.5.7 5.3v5.5c-.1.6-.2 1.3-.2 1.9-.8 7.8-3.3 15-7.7 21.4-7.6 11.1-18 17.9-31.2 20.4-1.7.3-3.5.5-5.3.7h-5.5c-.2-.1-.5-.1-.7-.2-4.9-.3-9.7-1.4-14.3-3.4-15.7-6.9-25.3-18.7-28.7-35.6-.4-1.8-.5-3.6-.7-5.4z" id="a"/>
    </defs>
    <use height="100%" width="100%" xlink:href="#a" clip-rule="evenodd" overflow="visible" fill="#ded152" fill-rule="evenodd"/>
    <clipPath id="b">
      <use height="100%" width="100%" xlink:href="#a" overflow="visible"/>
    </clipPath>
    <g clip-path="url(#b)">
      <use height="100%" width="100%" xlink:href="#c" overflow="visible" fill="#ded152"/>
      <clipPath id="d">
        <use height="100%" width="100%" xlink:href="#c" overflow="visible"/>
      </clipPath>
      <path clip-path="url(#d)" fill="#ded152" d="M1570.7 822.9h99v99h-99z"/>
    </g>
  </g>
  <g transform="translate(-1573 -824.9)">
    <defs>
      <path d="M1587.9 825.2c.8.7 1.7 1.3 2.4 2 5.1 5.1 10.1 10.2 15.2 15.3.9.9 1.3 1.9 1.3 3.1-.1 2.8 0 5.5 0 8.3 0 .7.2 1.3.7 1.8l14.7 14.7c.3.3.7.7.9 1.1.7 1.1.6 2.6-.4 3.5-1 .9-2.3 1.1-3.4.3-.4-.2-.7-.6-1-.9l-14.9-14.9c-.5-.5-.9-.6-1.5-.6h-8.7c-1.1 0-1.9-.3-2.7-1.1-5.5-5.5-11-11-16.4-16.5-.4-.4-.8-1-1.1-1.5v-1.3c.5-1.2 1.2-2 2.5-2.2h8.9v-7.7c0-1.7.6-2.9 2.3-3.5h1.2z" id="e"/>
    </defs>
    <use height="100%" width="100%" xlink:href="#e" clip-rule="evenodd" overflow="visible" fill="#ded152" fill-rule="evenodd"/>
    <clipPath id="f">
      <use height="100%" width="100%" xlink:href="#e" overflow="visible"/>
    </clipPath>
    <g clip-path="url(#f)">
      <defs>
        <use id="g" xlink:href="#c"/>
      </defs>
      <use height="100%" width="100%" xlink:href="#g" overflow="visible" fill="#ded152"/>
      <clipPath id="h">
        <use height="100%" width="100%" xlink:href="#g" overflow="visible"/>
      </clipPath>
      <path clip-path="url(#h)" fill="#ded152" d="M1570.7 822.9h55.6v55.5h-55.6z"/>
    </g>
  </g>
  <g transform="translate(-1573 -824.9)">
    <defs>
      <path d="M1612.9 849.8c10.3-4 22.7-.4 29.5 9.6 6.8 10 5.4 23.5-3.1 32s-21.7 9.9-31.9 3.2c-9.6-6.3-13.9-19.2-9.7-29.5h3c.3 0 .6.2.8.4l5.7 5.7c.2.2.4.7.3 1-.9 7.1 4.4 14.1 11.5 15.2 9.1 1.5 16.9-5.6 16.5-14.7-.4-7.8-7.7-14.1-15.4-13.1-.3 0-.8-.1-1-.3l-5.7-5.7c-.2-.2-.4-.6-.4-.9-.1-1-.1-1.9-.1-2.9" id="i"/>
    </defs>
    <use height="100%" width="100%" xlink:href="#i" clip-rule="evenodd" overflow="visible" fill="#ded152" fill-rule="evenodd"/>
    <clipPath id="j">
      <use height="100%" width="100%" xlink:href="#i" overflow="visible"/>
    </clipPath>
    <g clip-path="url(#j)">
      <defs>
        <use id="k" xlink:href="#c"/>
      </defs>
      <use height="100%" width="100%" xlink:href="#k" overflow="visible" fill="#ded152"/>
      <clipPath id="l">
        <use height="100%" width="100%" xlink:href="#k" overflow="visible"/>
      </clipPath>
      <path clip-path="url(#l)" fill="#ded152" d="M1591.2 843.5h60.3v60.1h-60.3z"/>
    </g>
  </g>
</svg>
