<?xml version="1.0" encoding="UTF-8"?>
<svg width="53px" height="53px" viewBox="0 0 53 53" version="1.1" xmlns="http://www.w3.org/2000/svg" xmlns:xlink="http://www.w3.org/1999/xlink">
    <defs>
        <polygon id="path-ybxrnytafb-1" points="0 0 53 0 53 53 0 53"></polygon>
    </defs>
    <g id="Page-1" stroke="none" stroke-width="1" fill="none" fill-rule="evenodd">
        <g id="Profitero" transform="translate(-1109.000000, -2547.000000)">
            <g id="Group-14" transform="translate(1068.216411, 2511.282434)">
                <g transform="translate(40.783589, 35.717566)">
                    <g id="Group-3">
                        <mask id="mask-ybxrnytafb-2" fill="white">
                            <use xlink:href="#path-ybxrnytafb-1"></use>
                        </mask>
                        <g id="Clip-2"></g>
                        <path d="M37.7587384,47.6962114 C39.8491352,47.78032 41.0128634,47.0851536 41.6576737,45.2720999 C42.2970917,43.4740842 43.492967,42.2931414 45.2865727,41.654808 C46.9786555,41.0525655 47.7884535,39.8829271 47.6906638,38.1054459 C47.582193,36.1358942 48.2567654,34.5564986 49.7187366,33.2445704 C50.995291,32.0988889 51.2742456,30.7034744 50.5354825,29.1714741 C49.6645012,27.3651616 49.6724861,25.6141264 50.5459563,23.8105103 C51.2721716,22.3106601 50.9903134,20.8998965 49.7378175,19.7790016 C48.2594617,18.4558728 47.5778376,16.8637209 47.6905601,14.8740495 C47.7885572,13.1433414 46.9828035,11.9541019 45.3579187,11.3814167 C43.5060333,10.7286676 42.2801885,9.51547105 41.6241784,7.66238544 C41.037233,6.00417043 39.8601275,5.20923528 38.0970098,5.30475195 C36.1507568,5.41001734 34.5760631,4.76193518 33.2737909,3.31311013 C32.0849672,1.99039612 30.7151859,1.71992112 29.1169522,2.48135803 C27.3638934,3.31653255 25.6555297,3.32949627 23.8993599,2.49048448 C22.2747863,1.7143208 20.9123677,1.98676628 19.6995891,3.33053337 C18.422931,4.74503049 16.8815252,5.40234282 14.9727082,5.30433711 C13.1174006,5.20913157 11.9550205,5.99006591 11.3336465,7.73155984 C10.6999321,9.5074854 9.5309152,10.6929914 7.75162022,11.3263468 C5.98487302,11.9552427 5.20514817,13.1183474 5.29972312,15.0025459 C5.39336477,16.8699435 4.76193178,18.3936469 3.38364704,19.6507127 C1.95848963,20.9506106 1.70639346,22.2753988 2.53195397,24.0249821 C3.31945637,25.6938792 3.31053811,27.3338413 2.52272462,29.0013902 C1.70203803,30.7382171 1.96823748,32.0667389 3.39940953,33.3718223 C4.76327989,34.6156131 5.38963154,36.1268715 5.29951572,37.974253 C5.20525187,39.9066766 5.99628008,41.0572324 7.82099593,41.7075962 C9.52324136,42.3142982 10.6632221,43.4567647 11.2908182,45.1485816 C11.4679388,45.6258539 11.6948357,46.1115266 12.0087375,46.5059347 C12.8209206,47.5265422 13.946487,47.7849869 15.2046864,47.7077231 C16.9096281,47.60308 18.3364447,48.2240939 19.4977878,49.4709961 C19.7208478,49.7104619 19.9348858,49.9669361 20.1922707,50.1643994 C21.247217,50.9742688 22.4053453,51.1723544 23.6400047,50.6315081 C24.5112972,50.2498563 25.3757454,49.8922651 26.3528125,49.875153 C27.3631675,49.8575223 28.2869325,50.1266491 29.1822836,50.5649264 C30.2298671,51.0776674 31.2967389,51.0751784 32.3017015,50.4885961 C32.7526954,50.2254845 33.1400171,49.8310763 33.5055618,49.4478689 C34.6688752,48.228346 36.0778553,47.6393784 37.7587384,47.6962114 M0,21.7406713 C0.209267821,20.7585401 0.4799264,19.7987065 1.14516578,19.0119644 C1.43355716,18.6708631 1.74631819,18.3468739 2.0738047,18.0429006 C2.8959431,17.2797006 3.30006435,16.3472464 3.22944424,15.2288406 C3.12947686,13.6467485 3.50746556,12.2230212 4.5594045,11.0080616 C5.20659998,10.2605218 6.00395393,9.73180957 6.94026669,9.42607326 C8.19608102,9.01600495 8.97207264,8.17502268 9.43229593,6.9388026 C10.3656014,4.43110111 12.2877958,3.14686342 14.9738489,3.24341719 C16.2959279,3.29091625 17.3282674,2.85398712 18.228596,1.8900051 C20.0611931,-0.0720794517 22.27209,-0.512016163 24.7117505,0.598404009 C25.9303363,1.1531474 27.0704207,1.14962127 28.2883843,0.5940482 C30.7029492,-0.507349225 32.9317863,-0.0728054199 34.7322362,1.86096637 C35.6590085,2.85637244 36.7190361,3.29402754 38.0789659,3.24435057 C40.693984,3.1488339 42.635363,4.44873177 43.543884,6.89980773 C44.0168625,8.17585236 44.831016,8.98302526 46.1051853,9.45604537 C48.5520011,10.364439 49.8464957,12.3068187 49.7516097,14.9270452 C49.7023519,16.2873022 50.1462942,17.3454526 51.1414052,18.2716843 C53.0569627,20.0546621 53.506816,22.3021559 52.419204,24.6713011 C51.8432509,25.9260853 51.8475026,27.0876343 52.4235594,28.3416925 C53.5092011,30.7052375 53.0515703,32.9651764 51.1354942,34.7395463 C50.13665,35.6646372 49.7029741,36.727662 49.7517134,38.0862596 C49.8455624,40.7028563 48.5482678,42.6422284 46.0967855,43.5517628 C44.8215792,44.0249903 44.0082554,44.8346523 43.542847,46.1138082 C42.6484293,48.5726624 40.601172,49.8992136 37.9672803,49.7675023 C36.685126,49.7034096 35.6436609,50.1091221 34.8100117,51.0862753 C33.9499189,52.0944377 32.8608551,52.709955 31.5471759,52.9199672 C31.4822593,52.9303382 31.4223203,52.9726517 31.3599963,53.0000311 L30.0144809,53.0000311 C29.2124604,52.7119255 28.4131362,52.4157304 27.6073825,52.1380995 C26.8701749,51.8840106 26.1228046,51.8836995 25.385597,52.1374772 C24.5791174,52.4151082 23.7792746,52.711718 22.9766319,53.0000311 L21.7346098,53.0000311 C20.3635841,52.7429347 19.1382578,52.2089332 18.2163594,51.1172845 C17.3632145,50.1069442 16.2877355,49.714714 14.9681453,49.761176 C12.2855144,49.8556555 10.3649792,48.5705882 9.43094782,46.0617459 C8.97082824,44.8257332 8.1928663,43.9868251 6.93746677,43.577068 C6.00136141,43.2714354 5.20473337,42.7418934 4.55784899,41.9942499 C3.50653226,40.7789792 3.12968426,39.355563 3.22944424,37.7738858 C3.29996065,36.6556874 2.89521719,35.7235443 2.0731825,34.9606554 C1.74579969,34.6567859 1.43303866,34.3330041 1.14485468,33.9917991 C0.480444903,33.2048496 0.209993725,32.2451197 0,31.2634033 C0,30.849394 0,30.4353847 0,30.0212717 C0.288183981,29.2187658 0.584664011,28.4189563 0.862270531,27.6127168 C1.11602591,26.8756516 1.11602591,26.128423 0.862270531,25.3913579 C0.584664011,24.5851183 0.288183981,23.7854126 0,22.9828029 C0,22.5687936 0,22.1547843 0,21.7406713" id="Fill-1" fill="#69D5BD" mask="url(#mask-ybxrnytafb-2)"></path>
                    </g>
                    <path d="M20.0684902,29.4061625 C20.0684902,27.4357302 20.0591275,25.4651932 20.0759804,23.4948657 C20.0795174,23.070923 19.9586343,22.9037151 19.517442,22.9113679 C18.23735,22.933802 16.9563217,22.933802 15.6762297,22.9115775 C15.2242184,22.9037151 15.0726463,23.0596011 15.0740924,23.5165661 C15.0872106,27.4400284 15.0867944,31.3634907 15.0745189,35.2868482 C15.0730625,35.7327009 15.202372,35.9102873 15.6659307,35.9013765 C16.9287537,35.8773698 18.192617,35.8752732 19.455232,35.9022152 C19.9385564,35.9125936 20.0823262,35.7407731 20.0772287,35.265043 C20.0564227,33.3123275 20.0684902,31.3591926 20.0684902,29.4061625 M28.1206382,15.4897488 C27.7416561,16.5459365 27.3715165,17.5540062 27.0182298,18.5679464 C26.5545671,19.8982712 25.8327013,21.0617027 24.709903,21.907177 C24.0083231,22.4354282 23.2052097,22.8253003 22.4636822,23.302498 C22.3197044,23.39517 22.1593938,23.6037867 22.1586656,23.7596727 C22.1417087,27.4379317 22.1418127,31.1164004 22.1585616,34.7946595 C22.1592898,34.945199 22.3261543,35.1955391 22.4581686,35.2289806 C23.4234652,35.4739743 24.3952116,35.832816 25.3733038,35.8609111 C28.2772037,35.9444627 31.1850568,35.8946672 34.0913494,35.8912077 C34.7377932,35.8904739 35.1278026,35.5512358 35.1118859,35.0342018 C35.0965935,34.5359328 34.7209403,34.2289831 34.0992557,34.2207013 C33.5804569,34.2136776 33.061138,34.2294024 32.5424432,34.2159839 C31.863646,34.1985817 31.4014397,33.7774694 31.3908286,33.1899879 C31.3800094,32.583322 31.8543873,32.1443882 32.5608566,32.1293972 C33.1315664,32.1173414 33.7025884,32.1270909 34.2735063,32.1264619 C34.7578711,32.1259377 35.2431721,32.1423964 35.7263925,32.1181801 C36.2233449,32.09323 36.5637319,31.7379525 36.5655004,31.2932529 C36.5673729,30.8486581 36.2267779,30.5031301 35.7334666,30.4579473 C35.5960426,30.4453674 35.4568502,30.4528105 35.31849,30.4527057 C34.4015675,30.4522863 33.484541,30.4613019 32.5678266,30.4492462 C31.8585485,30.4400209 31.3829223,30.001821 31.3908286,29.3967276 C31.3988389,28.790481 31.8722805,28.3770215 32.5872803,28.3616112 C32.9504498,28.3537487 33.3138274,28.3602483 33.677205,28.3599338 C34.8016678,28.3592 35.9263386,28.3709413 37.0504893,28.3518617 C37.5770904,28.3428461 37.9296488,27.966078 37.9152926,27.5008312 C37.9014566,27.0523577 37.562214,26.72853 37.0580835,26.6901613 C36.9204515,26.679678 36.7813631,26.6860728 36.6430029,26.6860728 C35.2936268,26.6857583 33.9442506,26.6919434 32.5949785,26.6832423 C31.8766498,26.6785249 31.4021679,26.2616059 31.3908286,25.657456 C31.3792812,25.0342266 31.8660387,24.607034 32.6121435,24.5946638 C33.0271201,24.5878497 33.4424088,24.5937203 33.8575934,24.593301 C34.4285114,24.5925672 35.0000534,24.608921 35.5700351,24.5850192 C36.0770784,24.5637382 36.4000923,24.2234518 36.4042535,23.7648095 C36.4084147,23.3036512 36.0889379,22.9719611 35.5863678,22.9249961 C35.4490479,22.9122065 35.3097514,22.9195448 35.1713912,22.91944 C33.3722924,22.9191255 31.5730895,22.9254154 29.7739907,22.9163998 C28.8720486,22.9119968 28.4200372,22.2816388 28.6914521,21.4136255 C28.9041939,20.7333672 29.1549068,20.0652695 29.3676486,19.3850112 C29.8564867,17.8212243 29.4375569,16.4742311 28.1206382,15.4897488 M31.0939263,20.826773 C32.5562793,20.826773 33.9693219,20.8314904 35.3822605,20.824886 C36.1142172,20.8214265 36.7894775,20.9874812 37.3671574,21.457131 C38.3214267,22.2329965 38.6505783,23.2469368 38.4014259,24.4371005 C38.3375514,24.7420583 38.360542,24.8789696 38.635806,25.0589671 C40.4253341,26.2292126 40.4541505,28.6584969 38.7228793,29.9487757 C38.6042849,30.0371495 38.4793446,30.252161 38.5038957,30.3796374 C38.8271176,32.0635623 38.4448065,33.0094663 37.0072127,33.9465643 C37.0304115,34.0495098 37.0530901,34.1643014 37.0824266,34.2773109 C37.5574286,36.1047516 36.3158278,37.9240154 34.4390184,37.9587149 C31.2225077,38.018155 28.0025639,38.0166873 24.7868854,37.9328213 C23.8433312,37.9081856 22.9062269,37.5303692 21.9728676,37.2877867 C21.7269401,37.2238389 21.5535217,37.161149 21.3336018,37.3837085 C20.8986514,37.8237955 20.3318947,37.9837699 19.7225897,37.9846086 C18.2865563,37.98681 16.850523,37.9982368 15.4146977,37.9816732 C14.0104977,37.9654242 13.0155525,36.9834579 13.0106631,35.5746135 C12.996515,31.4601463 12.9963069,27.3456791 13.0108712,23.2312119 C13.0157606,21.8463742 14.0021752,20.8529811 15.3694446,20.8325388 C16.8397039,20.8105239 18.3117316,20.7939604 19.7804305,20.8473201 C20.239828,20.8639885 20.6877822,21.1266988 21.1473877,21.2529172 C21.3336018,21.3041803 21.5695424,21.3666605 21.7277724,21.2969469 C23.5220858,20.5066144 24.7268599,19.1993527 25.2838378,17.2687568 C25.6157983,16.1183246 26.0791489,15.0058418 26.4937094,13.8801501 C26.798518,13.0523924 27.2979671,12.8276315 28.1220946,13.1255655 C30.7481298,14.0748241 32.2068417,16.9436712 31.450646,19.6800099 C31.3495286,20.0459803 31.2256286,20.4055559 31.0939263,20.826773" id="Fill-4" fill="#69D5BD"></path>
                    <path d="M5,24.8274394 C5.15646098,19.1816118 7.73247624,13.733647 12.9966501,9.56772567 C16.9565085,6.43392147 21.5446452,4.95741064 26.633562,5.00093427 C30.028997,5.02995002 33.246104,5.84084771 36.2661393,7.3619111 C36.9181382,7.69034472 37.1593683,8.24884652 36.8938881,8.79407515 C36.6335969,9.32870583 36.0097661,9.5233789 35.3563906,9.20492587 C33.5042773,8.30214496 31.5738014,7.64517481 29.5252519,7.31632961 C19.3271923,5.67910032 9.67110616,12.0740899 7.54567648,21.8928355 C6.72964534,25.6627226 7.08100679,29.3381542 8.59277173,32.9044166 C8.69326661,33.1412757 8.80922224,33.3742249 8.88334913,33.6189038 C9.06008881,34.2020999 8.80276261,34.7393029 8.27720297,34.9286255 C7.73406468,35.1243275 7.16244047,34.9136032 6.92872898,34.3454295 C6.51806602,33.3473699 6.10994456,32.3430338 5.79638782,31.3137977 C5.2441425,29.501445 4.99581743,27.6376459 5,24.8274394" id="Fill-6" fill="#69D5BD"></path>
                    <path d="M27.9577687,47.9960791 C24.448154,48.0530361 21.5887913,47.4893735 18.84759,46.3100488 C18.1370622,46.00438 17.8500243,45.4617071 18.0752274,44.8703044 C18.3032365,44.2715185 18.9112954,44.0576136 19.6480121,44.3668686 C21.5115758,45.1490769 23.4356233,45.6686506 25.4499806,45.8360407 C30.2340144,46.2337898 34.5576651,44.9751474 38.3861184,42.0529409 C41.9996571,39.2946439 44.3378414,35.6457093 45.3829003,31.1865098 C46.4092529,26.8073665 45.9701744,22.5556378 44.0738746,18.472565 C43.9267183,18.1558212 43.7602322,17.84741 43.6299116,17.5239158 C43.3907827,16.9297708 43.5702593,16.3769722 44.063794,16.1209825 C44.5801919,15.8531795 45.1668425,16.035969 45.4736259,16.6098627 C46.5523562,18.6278253 47.2885532,20.7744684 47.6759816,23.0330212 C48.2263627,26.2408561 48.081077,29.419896 47.1980355,32.5602264 C46.0053007,36.8016184 43.7151292,40.3144892 40.3871735,43.1317472 C37.610846,45.482064 34.4257857,46.977816 30.8757446,47.6410477 C29.7411032,47.853054 28.5807926,47.9228789 27.9577687,47.9960791" id="Fill-8" fill="#69D5BD"></path>
                    <path d="M12.999836,41.0050932 C13.0097192,41.5322241 12.5715975,41.9889379 12.0457132,41.9998096 C11.4992718,42.0111801 10.993055,41.511478 11.0000721,40.9676904 C11.0066938,40.4446489 11.4611227,39.9985076 11.9856234,40 C12.5212921,40.0015996 12.9897551,40.4658937 12.999836,41.0050932" id="Fill-10" fill="#69D5BD"></path>
                    <path d="M40.970961,11.0000697 C41.4956851,10.993252 41.9969813,11.4879326 42,12.0154982 C42.0029885,12.5477761 41.5572583,12.9944323 41.0175163,12.9999466 C40.4624561,13.0056614 40.0019084,12.5520872 40,11.9978525 C39.9981038,11.4629679 40.4418316,11.0069876 40.970961,11.0000697" id="Fill-12" fill="#69D5BD"></path>
                </g>
            </g>
        </g>
    </g>
</svg>
