<svg xmlns="http://www.w3.org/2000/svg" viewBox="0 0 314 276">
  <path
    d="M310.987 50.748c-1.887-6.298-4.794-12.147-8.022-17.831-5.385-9.484-11.707-18.186-20.813-24.552-5.042-3.524-10.488-6.059-16.517-7.23-11.907-2.315-23.296.47-34.508 3.976-4.89 1.53-9.56 3.805-14.243 5.935C150.2 41.378 95.322 7.888 34.897 46.356c-50.743 32.303-33.025 81.182-26.044 96.016 0 .001.648 1.631 2.297 4.473.484 1.08 1.265 2.155 1.988 3.217.251.386.517.785.795 1.195a78.188 78.188 0 0 0 5.505 7.316c10.173 12.336 29.11 29.85 62.655 45.777 59.929 28.452 73.85 48.808 73.85 48.808s6.483 6.654 16.266 12.861a88.094 88.094 0 0 0 5.12 3.014c11.217 5.85 38.527 15.91 58.083-11.35 25.176-35.09 5.7-47.91 26.148-88.168 13.8-27.168 36.344-44.042 46.607-69.556 2.12-5.963 3.803-12.034 4.768-18.31 1.001-7.895.851-16.663-.827-26.643a68.013 68.013 0 0 0-1.121-4.258"
    fill="#6DDBC6"
  />
</svg>
