<svg width="250" height="250" viewBox="0 0 250 250" fill="none" xmlns="http://www.w3.org/2000/svg">
<circle cx="125" cy="125" r="120" stroke="#223E72" stroke-width="10"/>
<path d="M70.4932 78.4721C72.7668 78.4721 74.4432 76.8795 74.4432 74.7002C74.4432 72.5209 72.7668 70.9284 70.4932 70.9284C68.2196 70.9284 66.5433 72.5314 66.5433 74.7002C66.5433 76.869 68.2196 78.4721 70.4932 78.4721ZM70.4932 77.2777C69.0159 77.2777 67.9158 76.1985 67.9158 74.7002C67.9158 73.202 69.0159 72.1228 70.4932 72.1228C71.9705 72.1228 73.0706 73.202 73.0706 74.7002C73.0706 76.1985 71.9705 77.2777 70.4932 77.2777ZM82.2886 72.1752V71.0332H76.9347V78.3673H78.2967V75.5594H81.8381V74.4069H78.2967V72.1752H82.2886ZM90.0075 72.1752V71.0332H84.6535V78.3673H86.0156V75.5594H89.5569V74.4069H86.0156V72.1752H90.0075ZM92.3724 78.3673H93.7344V71.0332H92.3724V78.3673ZM100.161 78.4721C101.365 78.4721 102.392 78.0425 103.073 77.2462L102.193 76.408C101.659 76.9948 100.999 77.2777 100.234 77.2777C98.7147 77.2777 97.6146 76.209 97.6146 74.7002C97.6146 73.1915 98.7147 72.1228 100.234 72.1228C100.999 72.1228 101.659 72.4057 102.193 72.9819L103.073 72.1542C102.392 71.358 101.365 70.9284 100.171 70.9284C97.9184 70.9284 96.242 72.5105 96.242 74.7002C96.242 76.89 97.9184 78.4721 100.161 78.4721ZM105.426 78.3673H106.788V71.0332H105.426V78.3673ZM115.31 78.3673H116.735L113.424 71.0332H112.083L108.782 78.3673H110.186L110.909 76.67H114.576L115.31 78.3673ZM111.37 75.6013L112.743 72.3952L114.126 75.6013H111.37ZM118.715 78.3673H123.912V77.2148H120.077V71.0332H118.715V78.3673ZM138.004 78.3673L137.993 71.0332H136.872L134.012 75.8947L131.099 71.0332H129.978V78.3673H131.278V73.5687L133.687 77.5291H134.295L136.705 73.5058L136.715 78.3673H138.004ZM142.395 77.2253V75.2031H145.936V74.0821H142.395V72.1752H146.387V71.0332H141.033V78.3673H146.533V77.2253H142.395ZM157.125 78.3673L157.115 71.0332H155.994L153.133 75.8947L150.221 71.0332H149.099V78.3673H150.399V73.5687L152.808 77.5291H153.416L155.826 73.5058L155.836 78.3673H157.125ZM165.351 74.5536C165.916 74.2497 166.294 73.6944 166.294 72.94C166.294 71.7771 165.351 71.0332 163.59 71.0332H160.154V78.3673H163.8C165.686 78.3673 166.671 77.6339 166.671 76.3766C166.671 75.4232 166.136 74.805 165.351 74.5536ZM163.444 72.1019C164.387 72.1019 164.921 72.4371 164.921 73.1182C164.921 73.7887 164.387 74.124 163.444 74.124H161.516V72.1019H163.444ZM163.716 77.2986H161.516V75.1822H163.716C164.743 75.1822 165.298 75.507 165.298 76.2404C165.298 76.9738 164.743 77.2986 163.716 77.2986ZM170.534 77.2253V75.2031H174.076V74.0821H170.534V72.1752H174.526V71.0332H169.172V78.3673H174.673V77.2253H170.534ZM183.504 78.3673L181.818 75.9575C182.813 75.5699 183.379 74.7526 183.379 73.642C183.379 72.018 182.184 71.0332 180.256 71.0332H177.239V78.3673H178.601V76.2299H180.256C180.351 76.2299 180.445 76.2299 180.539 76.2195L182.038 78.3673H183.504ZM182.006 73.642C182.006 74.564 181.388 75.1089 180.194 75.1089H178.601V72.1857H180.194C181.388 72.1857 182.006 72.72 182.006 73.642Z" fill="#193B72"/>
<path d="M83.0779 159.089H86.3772C87.927 159.089 89.048 159.321 89.7404 159.784C90.4327 160.248 90.7789 160.98 90.7789 161.981C90.7789 162.673 90.5845 163.246 90.1957 163.699C89.8123 164.146 89.2504 164.436 88.5101 164.569V164.649C90.2836 164.953 91.1703 165.885 91.1703 167.445C91.1703 168.489 90.8162 169.304 90.1078 169.89C89.4049 170.476 88.4196 170.769 87.1521 170.769H83.0779V159.089ZM84.4359 164.09H86.6728C87.6314 164.09 88.3211 163.941 88.7418 163.643C89.1625 163.339 89.3729 162.831 89.3729 162.117C89.3729 161.462 89.1386 160.99 88.6699 160.703C88.2012 160.41 87.4556 160.264 86.4331 160.264H84.4359V164.09ZM84.4359 165.24V169.61H86.8725C87.8151 169.61 88.5234 169.429 88.9974 169.067C89.4768 168.699 89.7164 168.127 89.7164 167.349C89.7164 166.625 89.4714 166.093 88.9815 165.752C88.4968 165.411 87.7565 165.24 86.7606 165.24H84.4359Z" fill="#193B72"/>
<path d="M94.1606 162.013V167.693C94.1606 168.407 94.3231 168.939 94.6479 169.291C94.9728 169.642 95.4814 169.818 96.1738 169.818C97.0898 169.818 97.7582 169.568 98.1789 169.067C98.605 168.566 98.818 167.749 98.818 166.614V162.013H100.144V170.769H99.0497L98.8579 169.594H98.786C98.5144 170.026 98.1363 170.356 97.6516 170.585C97.1723 170.814 96.6238 170.928 96.006 170.928C94.9408 170.928 94.142 170.675 93.6094 170.169C93.0822 169.663 92.8185 168.854 92.8185 167.741V162.013H94.1606Z" fill="#193B72"/>
<path d="M108.039 168.38C108.039 169.195 107.736 169.823 107.129 170.265C106.522 170.707 105.669 170.928 104.572 170.928C103.411 170.928 102.506 170.745 101.856 170.377V169.147C102.277 169.36 102.727 169.528 103.206 169.65C103.691 169.773 104.157 169.834 104.604 169.834C105.297 169.834 105.829 169.725 106.202 169.506C106.575 169.283 106.761 168.944 106.761 168.492C106.761 168.151 106.612 167.861 106.314 167.621C106.021 167.376 105.446 167.088 104.588 166.758C103.773 166.455 103.193 166.191 102.847 165.967C102.506 165.738 102.25 165.48 102.08 165.192C101.915 164.905 101.832 164.561 101.832 164.162C101.832 163.448 102.122 162.886 102.703 162.476C103.284 162.061 104.08 161.853 105.092 161.853C106.034 161.853 106.956 162.045 107.856 162.428L107.384 163.507C106.506 163.145 105.709 162.964 104.996 162.964C104.367 162.964 103.893 163.062 103.574 163.259C103.254 163.456 103.094 163.728 103.094 164.074C103.094 164.308 103.153 164.508 103.27 164.673C103.393 164.838 103.587 164.995 103.853 165.145C104.12 165.294 104.631 165.509 105.387 165.792C106.426 166.17 107.126 166.551 107.488 166.934C107.856 167.317 108.039 167.799 108.039 168.38Z" fill="#193B72"/>
<path d="M110.958 170.769H109.632V162.013H110.958V170.769ZM109.52 159.64C109.52 159.337 109.594 159.116 109.744 158.977C109.893 158.834 110.079 158.762 110.303 158.762C110.516 158.762 110.699 158.834 110.854 158.977C111.008 159.121 111.086 159.342 111.086 159.64C111.086 159.939 111.008 160.162 110.854 160.311C110.699 160.455 110.516 160.527 110.303 160.527C110.079 160.527 109.893 160.455 109.744 160.311C109.594 160.162 109.52 159.939 109.52 159.64Z" fill="#193B72"/>
<path d="M119.189 170.769V165.105C119.189 164.391 119.026 163.858 118.701 163.507C118.376 163.155 117.868 162.98 117.175 162.98C116.259 162.98 115.588 163.227 115.162 163.723C114.736 164.218 114.523 165.035 114.523 166.175V170.769H113.197V162.013H114.276L114.491 163.211H114.555C114.827 162.78 115.208 162.447 115.698 162.213C116.188 161.973 116.733 161.853 117.335 161.853C118.39 161.853 119.183 162.109 119.716 162.62C120.248 163.126 120.515 163.938 120.515 165.057V170.769H119.189Z" fill="#193B72"/>
<path d="M126.373 170.928C125.079 170.928 124.056 170.534 123.305 169.746C122.56 168.958 122.187 167.863 122.187 166.463C122.187 165.051 122.533 163.93 123.225 163.099C123.923 162.269 124.858 161.853 126.029 161.853C127.126 161.853 127.995 162.215 128.634 162.94C129.273 163.659 129.592 164.609 129.592 165.792V166.63H123.561C123.588 167.658 123.846 168.439 124.336 168.971C124.831 169.504 125.526 169.77 126.421 169.77C127.363 169.77 128.295 169.573 129.217 169.179V170.361C128.748 170.563 128.303 170.707 127.883 170.792C127.467 170.883 126.964 170.928 126.373 170.928ZM126.013 162.964C125.31 162.964 124.749 163.193 124.328 163.651C123.912 164.109 123.667 164.742 123.593 165.552H128.17C128.17 164.716 127.984 164.077 127.611 163.635C127.238 163.187 126.706 162.964 126.013 162.964Z" fill="#193B72"/>
<path d="M136.936 168.38C136.936 169.195 136.633 169.823 136.026 170.265C135.419 170.707 134.566 170.928 133.469 170.928C132.308 170.928 131.403 170.745 130.753 170.377V169.147C131.174 169.36 131.624 169.528 132.103 169.65C132.588 169.773 133.054 169.834 133.501 169.834C134.194 169.834 134.726 169.725 135.099 169.506C135.472 169.283 135.658 168.944 135.658 168.492C135.658 168.151 135.509 167.861 135.211 167.621C134.918 167.376 134.343 167.088 133.485 166.758C132.67 166.455 132.09 166.191 131.744 165.967C131.403 165.738 131.147 165.48 130.977 165.192C130.812 164.905 130.729 164.561 130.729 164.162C130.729 163.448 131.019 162.886 131.6 162.476C132.181 162.061 132.977 161.853 133.989 161.853C134.931 161.853 135.853 162.045 136.753 162.428L136.281 163.507C135.403 163.145 134.606 162.964 133.893 162.964C133.264 162.964 132.79 163.062 132.471 163.259C132.151 163.456 131.991 163.728 131.991 164.074C131.991 164.308 132.05 164.508 132.167 164.673C132.29 164.838 132.484 164.995 132.75 165.145C133.017 165.294 133.528 165.509 134.284 165.792C135.323 166.17 136.023 166.551 136.385 166.934C136.753 167.317 136.936 167.799 136.936 168.38Z" fill="#193B72"/>
<path d="M144.177 168.38C144.177 169.195 143.873 169.823 143.266 170.265C142.659 170.707 141.807 170.928 140.71 170.928C139.549 170.928 138.643 170.745 137.993 170.377V169.147C138.414 169.36 138.864 169.528 139.344 169.65C139.828 169.773 140.294 169.834 140.742 169.834C141.434 169.834 141.966 169.725 142.339 169.506C142.712 169.283 142.898 168.944 142.898 168.492C142.898 168.151 142.749 167.861 142.451 167.621C142.158 167.376 141.583 167.088 140.726 166.758C139.911 166.455 139.33 166.191 138.984 165.967C138.643 165.738 138.388 165.48 138.217 165.192C138.052 164.905 137.969 164.561 137.969 164.162C137.969 163.448 138.26 162.886 138.84 162.476C139.421 162.061 140.217 161.853 141.229 161.853C142.171 161.853 143.093 162.045 143.993 162.428L143.522 163.507C142.643 163.145 141.847 162.964 141.133 162.964C140.505 162.964 140.031 163.062 139.711 163.259C139.391 163.456 139.232 163.728 139.232 164.074C139.232 164.308 139.29 164.508 139.407 164.673C139.53 164.838 139.724 164.995 139.991 165.145C140.257 165.294 140.768 165.509 141.524 165.792C142.563 166.17 143.263 166.551 143.625 166.934C143.993 167.317 144.177 167.799 144.177 168.38Z" fill="#193B72"/>
<path d="M88.0787 179.921C86.7952 179.921 85.7807 180.349 85.0351 181.207C84.2948 182.059 83.9247 183.228 83.9247 184.714C83.9247 186.242 84.2815 187.425 84.9951 188.261C85.7141 189.092 86.7367 189.507 88.0628 189.507C88.8776 189.507 89.8069 189.361 90.8508 189.068V190.258C90.0413 190.561 89.0427 190.713 87.8551 190.713C86.1349 190.713 84.8061 190.191 83.8688 189.148C82.9368 188.104 82.4707 186.62 82.4707 184.698C82.4707 183.494 82.6944 182.44 83.1418 181.534C83.5945 180.629 84.2442 179.931 85.091 179.441C85.9431 178.951 86.9444 178.706 88.0947 178.706C89.3196 178.706 90.3901 178.93 91.3061 179.377L90.731 180.544C89.8469 180.128 88.9628 179.921 88.0787 179.921Z" fill="#193B72"/>
<path d="M100.184 186.168C100.184 187.595 99.8245 188.711 99.1056 189.515C98.3866 190.314 97.3933 190.713 96.1258 190.713C95.3429 190.713 94.6479 190.53 94.0408 190.162C93.4337 189.795 92.965 189.267 92.6348 188.58C92.3046 187.893 92.1395 187.089 92.1395 186.168C92.1395 184.74 92.4963 183.63 93.21 182.837C93.9236 182.038 94.9142 181.638 96.1817 181.638C97.4067 181.638 98.3786 182.046 99.0976 182.86C99.8219 183.675 100.184 184.778 100.184 186.168ZM93.5135 186.168C93.5135 187.286 93.7372 188.138 94.1846 188.724C94.632 189.31 95.2897 189.603 96.1578 189.603C97.0259 189.603 97.6836 189.313 98.131 188.732C98.5836 188.146 98.81 187.291 98.81 186.168C98.81 185.055 98.5836 184.211 98.131 183.635C97.6836 183.055 97.0205 182.765 96.1418 182.765C95.2737 182.765 94.6186 183.05 94.1766 183.619C93.7346 184.189 93.5135 185.039 93.5135 186.168Z" fill="#193B72"/>
<path d="M103.19 181.798V187.478C103.19 188.192 103.353 188.724 103.678 189.076C104.002 189.427 104.511 189.603 105.203 189.603C106.119 189.603 106.788 189.353 107.209 188.852C107.635 188.351 107.848 187.534 107.848 186.399V181.798H109.174V190.553H108.079L107.888 189.379H107.816C107.544 189.811 107.166 190.141 106.681 190.37C106.202 190.599 105.653 190.713 105.036 190.713C103.971 190.713 103.172 190.46 102.639 189.954C102.112 189.448 101.848 188.639 101.848 187.526V181.798H103.19Z" fill="#193B72"/>
<path d="M117.413 190.553V184.89C117.413 184.176 117.25 183.643 116.925 183.292C116.6 182.94 116.092 182.765 115.399 182.765C114.483 182.765 113.812 183.012 113.386 183.508C112.96 184.003 112.747 184.82 112.747 185.96V190.553H111.421V181.798H112.5L112.715 182.996H112.779C113.051 182.565 113.432 182.232 113.922 181.998C114.412 181.758 114.957 181.638 115.559 181.638C116.614 181.638 117.407 181.894 117.94 182.405C118.472 182.911 118.739 183.723 118.739 184.842V190.553H117.413Z" fill="#193B72"/>
<path d="M124.397 190.713C123.13 190.713 122.147 190.324 121.449 189.547C120.757 188.764 120.411 187.659 120.411 186.232C120.411 184.767 120.762 183.635 121.465 182.837C122.174 182.038 123.18 181.638 124.485 181.638C124.906 181.638 125.326 181.683 125.747 181.774C126.168 181.865 126.498 181.971 126.738 182.094L126.33 183.22C126.037 183.103 125.718 183.007 125.372 182.932C125.026 182.852 124.719 182.813 124.453 182.813C122.674 182.813 121.785 183.947 121.785 186.216C121.785 187.291 122.001 188.117 122.432 188.692C122.869 189.267 123.513 189.555 124.365 189.555C125.095 189.555 125.843 189.398 126.61 189.084V190.258C126.024 190.561 125.287 190.713 124.397 190.713Z" fill="#193B72"/>
<path d="M129.449 190.553H128.122V181.798H129.449V190.553ZM128.011 179.425C128.011 179.122 128.085 178.901 128.234 178.762C128.383 178.619 128.57 178.547 128.793 178.547C129.006 178.547 129.19 178.619 129.345 178.762C129.499 178.906 129.576 179.127 129.576 179.425C129.576 179.724 129.499 179.947 129.345 180.096C129.19 180.24 129.006 180.312 128.793 180.312C128.57 180.312 128.383 180.24 128.234 180.096C128.085 179.947 128.011 179.724 128.011 179.425Z" fill="#193B72"/>
<path d="M133.014 190.553H131.688V178.123H133.014V190.553Z" fill="#193B72"/>
<path d="M62.9462 155.207H64.4682V194.396H62.9462V155.207Z" fill="#193B72"/>
<path d="M140.001 116.783C137.875 116.783 136.193 117.321 134.422 118.219C134.422 113.103 134.51 108.705 134.599 107L124.238 109.064V110.052L125.212 110.141C126.629 110.321 127.249 111.218 127.337 113.103C127.692 116.873 127.603 136.887 127.337 140.118C130.083 140.746 133.093 141.195 136.104 141.195C144.34 141.195 149.21 136.079 149.21 127.912C149.387 121.45 145.314 116.783 140.001 116.783ZM136.37 139.579C135.75 139.579 135.042 139.49 134.599 139.4C134.422 137.156 134.333 127.912 134.333 119.745C135.307 119.386 135.927 119.386 136.724 119.386C140.089 119.386 142.037 123.335 142.037 128.361C142.126 134.733 139.735 139.579 136.37 139.579ZM85.363 117.052L83.7691 117.501C82.3522 112.744 80.1384 110.052 75.9764 110.052H70.5746C70.3089 113.103 70.2204 118.129 70.2204 123.424L73.8511 123.335C76.242 123.245 77.2161 121.45 77.836 118.757H79.1643V129.886H77.836C77.2161 127.194 76.242 125.399 73.8511 125.309L70.2204 125.219C70.2204 129.258 70.3975 132.579 70.4861 134.643C70.7517 137.605 71.5487 138.951 73.5854 139.22L75.4451 139.4V140.746H58V139.4L59.4169 139.22C61.4536 138.951 62.2506 137.605 62.5162 134.643C62.959 129.797 62.959 119.565 62.5162 113.911C62.2506 110.949 61.4536 109.603 59.4169 109.334L58 109.154V107.808H85.186L85.363 117.052ZM94.0413 116.514C101.745 116.514 105.642 121.809 105.642 128.809C105.642 135.63 101.303 141.195 93.5985 141.195C85.8944 141.195 81.998 135.9 81.998 128.899C81.998 122.078 86.3372 116.514 94.0413 116.514ZM93.6871 118.039C90.2335 118.039 89.348 122.706 89.348 128.899C89.348 134.912 90.8534 139.759 94.0413 139.759C97.4949 139.759 98.3804 135.092 98.3804 128.899C98.3804 122.886 96.875 118.039 93.6871 118.039ZM151.247 129.079C151.247 122.617 155.232 116.514 163.202 116.514C169.666 116.514 172.765 121.36 172.765 127.732H158.331C158.154 133.476 161.076 137.784 166.567 137.784C168.958 137.784 170.286 137.156 171.791 136.079L172.5 136.887C170.906 139.131 167.541 141.285 163.113 141.285C156.206 141.285 151.247 136.259 151.247 129.079ZM158.42 126.117L165.681 125.937C165.681 122.706 165.238 118.039 162.582 118.039C160.014 118.039 158.508 122.437 158.42 126.117ZM191.45 123.783L190.299 124.053C189.059 119.924 187.111 118.129 184.366 118.129C182.506 118.129 181.178 119.565 181.178 121.629C181.178 123.694 182.683 124.771 187.023 126.476C191.096 128.091 192.69 129.886 192.69 133.207C192.69 138.143 188.971 141.195 182.772 141.195C179.85 141.195 176.573 140.567 174.625 139.759L174.448 132.938L175.599 132.669C177.282 137.425 179.495 139.22 182.418 139.22C184.897 139.22 186.226 137.425 186.226 135.541C186.226 133.656 185.163 132.579 181.267 131.143C177.636 129.797 174.979 128.181 174.979 124.053C174.979 120.014 178.521 116.603 184.277 116.603C186.934 116.603 189.502 117.052 191.273 117.86L191.45 123.783ZM123.264 123.604C120.165 121.45 116.8 122.437 116.091 123.604C115.825 127.463 115.914 133.297 116.18 136.259C116.357 138.233 116.888 139.041 118.305 139.22L120.165 139.31V140.656H105.819V139.4L106.793 139.31C108.21 139.131 108.83 138.233 108.918 136.348C109.184 133.117 109.273 126.476 108.918 122.706C108.741 120.732 108.21 119.924 106.793 119.655L105.819 119.565V118.578L116.091 116.514L116.003 121.988C118.394 116.334 123.175 115.616 125.743 117.232L123.264 123.604Z" fill="#193B72"/>
<rect x="102" y="51" width="2" height="36" transform="rotate(90 102 51)" fill="#193B72"/>
<rect x="184" y="51" width="2" height="36" transform="rotate(90 184 51)" fill="#193B72"/>
<path d="M110.457 55.3698L113.228 52.7318C114.666 51.3832 114.947 50.4644 114.947 49.4566C114.947 47.6189 113.495 46.4778 111.242 46.4778C109.538 46.4778 108.1 47.1151 107.3 48.1969L108.649 49.2343C109.227 48.4933 110.071 48.1525 111.079 48.1525C112.354 48.1525 113.006 48.7008 113.006 49.6493C113.006 50.2273 112.828 50.8349 111.82 51.7982L107.7 55.7107V57H115.347V55.3698H110.457ZM120.743 57.1482C123.218 57.1482 125.086 55.2216 125.086 51.813C125.086 48.4044 123.218 46.4778 120.743 46.4778C118.283 46.4778 116.416 48.4044 116.416 51.813C116.416 55.2216 118.283 57.1482 120.743 57.1482ZM120.743 55.4735C119.335 55.4735 118.357 54.3176 118.357 51.813C118.357 49.3084 119.335 48.1525 120.743 48.1525C122.166 48.1525 123.144 49.3084 123.144 51.813C123.144 54.3176 122.166 55.4735 120.743 55.4735ZM129.011 55.3698L131.782 52.7318C133.22 51.3832 133.501 50.4644 133.501 49.4566C133.501 47.6189 132.049 46.4778 129.796 46.4778C128.092 46.4778 126.654 47.1151 125.854 48.1969L127.203 49.2343C127.781 48.4933 128.625 48.1525 129.633 48.1525C130.908 48.1525 131.56 48.7008 131.56 49.6493C131.56 50.2273 131.382 50.8349 130.374 51.7982L126.254 55.7107V57H133.901V55.3698H129.011ZM138.081 55.3698L140.852 52.7318C142.29 51.3832 142.571 50.4644 142.571 49.4566C142.571 47.6189 141.119 46.4778 138.866 46.4778C137.162 46.4778 135.725 47.1151 134.924 48.1969L136.273 49.2343C136.851 48.4933 137.696 48.1525 138.703 48.1525C139.978 48.1525 140.63 48.7008 140.63 49.6493C140.63 50.2273 140.452 50.8349 139.444 51.7982L135.324 55.7107V57H142.972V55.3698H138.081Z" fill="#193B72"/>
</svg>
