<svg width="250" height="250" viewBox="0 0 250 250" fill="none" xmlns="http://www.w3.org/2000/svg">
<g clip-path="url(#clip0_719_80)">
<circle cx="125" cy="125" r="120" stroke="#223E72" stroke-width="10"/>
<path d="M70.4932 78.4721C72.7668 78.4721 74.4432 76.8795 74.4432 74.7002C74.4432 72.5209 72.7668 70.9284 70.4932 70.9284C68.2196 70.9284 66.5433 72.5314 66.5433 74.7002C66.5433 76.869 68.2196 78.4721 70.4932 78.4721ZM70.4932 77.2777C69.0159 77.2777 67.9158 76.1985 67.9158 74.7002C67.9158 73.202 69.0159 72.1228 70.4932 72.1228C71.9705 72.1228 73.0706 73.202 73.0706 74.7002C73.0706 76.1985 71.9705 77.2777 70.4932 77.2777ZM82.2886 72.1752V71.0332H76.9347V78.3673H78.2967V75.5594H81.8381V74.4069H78.2967V72.1752H82.2886ZM90.0075 72.1752V71.0332H84.6535V78.3673H86.0156V75.5594H89.5569V74.4069H86.0156V72.1752H90.0075ZM92.3724 78.3673H93.7344V71.0332H92.3724V78.3673ZM100.161 78.4721C101.365 78.4721 102.392 78.0425 103.073 77.2462L102.193 76.408C101.659 76.9948 100.999 77.2777 100.234 77.2777C98.7147 77.2777 97.6146 76.209 97.6146 74.7002C97.6146 73.1915 98.7147 72.1228 100.234 72.1228C100.999 72.1228 101.659 72.4057 102.193 72.9819L103.073 72.1542C102.392 71.358 101.365 70.9284 100.171 70.9284C97.9184 70.9284 96.242 72.5105 96.242 74.7002C96.242 76.89 97.9184 78.4721 100.161 78.4721ZM105.426 78.3673H106.788V71.0332H105.426V78.3673ZM115.31 78.3673H116.735L113.424 71.0332H112.083L108.782 78.3673H110.186L110.909 76.67H114.576L115.31 78.3673ZM111.37 75.6013L112.743 72.3952L114.126 75.6013H111.37ZM118.715 78.3673H123.912V77.2148H120.077V71.0332H118.715V78.3673ZM138.004 78.3673L137.993 71.0332H136.872L134.012 75.8947L131.099 71.0332H129.978V78.3673H131.278V73.5687L133.687 77.5291H134.295L136.705 73.5058L136.715 78.3673H138.004ZM142.395 77.2253V75.2031H145.936V74.0821H142.395V72.1752H146.387V71.0332H141.033V78.3673H146.533V77.2253H142.395ZM157.125 78.3673L157.115 71.0332H155.994L153.133 75.8947L150.221 71.0332H149.099V78.3673H150.399V73.5687L152.808 77.5291H153.416L155.826 73.5058L155.836 78.3673H157.125ZM165.351 74.5536C165.916 74.2497 166.294 73.6944 166.294 72.94C166.294 71.7771 165.351 71.0332 163.59 71.0332H160.154V78.3673H163.8C165.686 78.3673 166.671 77.6339 166.671 76.3766C166.671 75.4232 166.136 74.805 165.351 74.5536ZM163.444 72.1019C164.387 72.1019 164.921 72.4371 164.921 73.1182C164.921 73.7887 164.387 74.124 163.444 74.124H161.516V72.1019H163.444ZM163.716 77.2986H161.516V75.1822H163.716C164.743 75.1822 165.298 75.507 165.298 76.2404C165.298 76.9738 164.743 77.2986 163.716 77.2986ZM170.534 77.2253V75.2031H174.076V74.0821H170.534V72.1752H174.526V71.0332H169.172V78.3673H174.673V77.2253H170.534ZM183.504 78.3673L181.818 75.9575C182.813 75.5699 183.379 74.7526 183.379 73.642C183.379 72.018 182.184 71.0332 180.256 71.0332H177.239V78.3673H178.601V76.2299H180.256C180.351 76.2299 180.445 76.2299 180.539 76.2195L182.038 78.3673H183.504ZM182.006 73.642C182.006 74.564 181.388 75.1089 180.194 75.1089H178.601V72.1857H180.194C181.388 72.1857 182.006 72.72 182.006 73.642Z" fill="#193B72"/>
<path d="M83.0778 159.089H86.3771C87.9269 159.089 89.048 159.321 89.7403 159.784C90.4327 160.248 90.7788 160.98 90.7788 161.981C90.7788 162.673 90.5845 163.246 90.1957 163.699C89.8122 164.146 89.2504 164.436 88.5101 164.569V164.649C90.2836 164.953 91.1703 165.885 91.1703 167.445C91.1703 168.489 90.8161 169.304 90.1078 169.89C89.4048 170.476 88.4195 170.769 87.152 170.769H83.0778V159.089ZM84.4359 164.09H86.6727C87.6313 164.09 88.321 163.941 88.7418 163.643C89.1625 163.339 89.3729 162.831 89.3729 162.117C89.3729 161.462 89.1385 160.99 88.6699 160.703C88.2012 160.41 87.4556 160.264 86.433 160.264H84.4359V164.09ZM84.4359 165.24V169.61H86.8724C87.8151 169.61 88.5234 169.429 88.9974 169.067C89.4767 168.699 89.7164 168.127 89.7164 167.349C89.7164 166.625 89.4714 166.093 88.9814 165.752C88.4968 165.411 87.7565 165.24 86.7606 165.24H84.4359Z" fill="#193B72"/>
<path d="M94.1606 162.013V167.693C94.1606 168.407 94.323 168.939 94.6479 169.291C94.9728 169.642 95.4814 169.818 96.1737 169.818C97.0897 169.818 97.7581 169.568 98.1788 169.067C98.6049 168.566 98.8179 167.749 98.8179 166.614V162.013H100.144V170.769H99.0496L98.8579 169.594H98.786C98.5144 170.026 98.1362 170.356 97.6516 170.585C97.1723 170.814 96.6237 170.928 96.0059 170.928C94.9408 170.928 94.1419 170.675 93.6094 170.169C93.0821 169.663 92.8185 168.854 92.8185 167.741V162.013H94.1606Z" fill="#193B72"/>
<path d="M108.039 168.38C108.039 169.195 107.736 169.823 107.129 170.265C106.522 170.707 105.669 170.928 104.572 170.928C103.411 170.928 102.506 170.745 101.856 170.377V169.147C102.277 169.36 102.727 169.528 103.206 169.65C103.691 169.773 104.157 169.834 104.604 169.834C105.297 169.834 105.829 169.725 106.202 169.506C106.575 169.283 106.761 168.944 106.761 168.492C106.761 168.151 106.612 167.861 106.314 167.621C106.021 167.376 105.446 167.088 104.588 166.758C103.773 166.455 103.193 166.191 102.847 165.967C102.506 165.738 102.25 165.48 102.08 165.192C101.915 164.905 101.832 164.561 101.832 164.162C101.832 163.448 102.122 162.886 102.703 162.476C103.283 162.061 104.08 161.853 105.092 161.853C106.034 161.853 106.956 162.045 107.856 162.428L107.384 163.507C106.506 163.145 105.709 162.964 104.996 162.964C104.367 162.964 103.893 163.062 103.574 163.259C103.254 163.456 103.094 163.728 103.094 164.074C103.094 164.308 103.153 164.508 103.27 164.673C103.393 164.838 103.587 164.995 103.853 165.145C104.12 165.294 104.631 165.509 105.387 165.792C106.426 166.17 107.126 166.551 107.488 166.934C107.856 167.317 108.039 167.799 108.039 168.38Z" fill="#193B72"/>
<path d="M110.958 170.769H109.632V162.013H110.958V170.769ZM109.52 159.64C109.52 159.337 109.594 159.116 109.743 158.977C109.893 158.834 110.079 158.762 110.303 158.762C110.516 158.762 110.699 158.834 110.854 158.977C111.008 159.121 111.086 159.342 111.086 159.64C111.086 159.939 111.008 160.162 110.854 160.311C110.699 160.455 110.516 160.527 110.303 160.527C110.079 160.527 109.893 160.455 109.743 160.311C109.594 160.162 109.52 159.939 109.52 159.64Z" fill="#193B72"/>
<path d="M119.189 170.769V165.105C119.189 164.391 119.026 163.858 118.701 163.507C118.376 163.155 117.868 162.98 117.175 162.98C116.259 162.98 115.588 163.227 115.162 163.723C114.736 164.218 114.523 165.035 114.523 166.175V170.769H113.197V162.013H114.276L114.491 163.211H114.555C114.827 162.78 115.208 162.447 115.698 162.213C116.187 161.973 116.733 161.853 117.335 161.853C118.39 161.853 119.183 162.109 119.716 162.62C120.248 163.126 120.515 163.938 120.515 165.057V170.769H119.189Z" fill="#193B72"/>
<path d="M126.373 170.928C125.079 170.928 124.056 170.534 123.305 169.746C122.56 168.958 122.187 167.863 122.187 166.463C122.187 165.051 122.533 163.93 123.225 163.099C123.923 162.269 124.858 161.853 126.029 161.853C127.126 161.853 127.995 162.215 128.634 162.94C129.273 163.659 129.592 164.609 129.592 165.792V166.63H123.561C123.587 167.658 123.846 168.439 124.336 168.971C124.831 169.504 125.526 169.77 126.421 169.77C127.363 169.77 128.295 169.573 129.217 169.179V170.361C128.748 170.563 128.303 170.707 127.883 170.792C127.467 170.883 126.964 170.928 126.373 170.928ZM126.013 162.964C125.31 162.964 124.749 163.193 124.328 163.651C123.912 164.109 123.667 164.742 123.593 165.552H128.17C128.17 164.716 127.984 164.077 127.611 163.635C127.238 163.187 126.706 162.964 126.013 162.964Z" fill="#193B72"/>
<path d="M136.936 168.38C136.936 169.195 136.633 169.823 136.026 170.265C135.418 170.707 134.566 170.928 133.469 170.928C132.308 170.928 131.403 170.745 130.753 170.377V169.147C131.174 169.36 131.624 169.528 132.103 169.65C132.588 169.773 133.054 169.834 133.501 169.834C134.194 169.834 134.726 169.725 135.099 169.506C135.472 169.283 135.658 168.944 135.658 168.492C135.658 168.151 135.509 167.861 135.211 167.621C134.918 167.376 134.343 167.088 133.485 166.758C132.67 166.455 132.09 166.191 131.744 165.967C131.403 165.738 131.147 165.48 130.977 165.192C130.812 164.905 130.729 164.561 130.729 164.162C130.729 163.448 131.019 162.886 131.6 162.476C132.18 162.061 132.977 161.853 133.989 161.853C134.931 161.853 135.853 162.045 136.753 162.428L136.281 163.507C135.403 163.145 134.606 162.964 133.893 162.964C133.264 162.964 132.79 163.062 132.471 163.259C132.151 163.456 131.991 163.728 131.991 164.074C131.991 164.308 132.05 164.508 132.167 164.673C132.29 164.838 132.484 164.995 132.75 165.145C133.017 165.294 133.528 165.509 134.284 165.792C135.323 166.17 136.023 166.551 136.385 166.934C136.753 167.317 136.936 167.799 136.936 168.38Z" fill="#193B72"/>
<path d="M144.177 168.38C144.177 169.195 143.873 169.823 143.266 170.265C142.659 170.707 141.807 170.928 140.71 170.928C139.548 170.928 138.643 170.745 137.993 170.377V169.147C138.414 169.36 138.864 169.528 139.343 169.65C139.828 169.773 140.294 169.834 140.741 169.834C141.434 169.834 141.966 169.725 142.339 169.506C142.712 169.283 142.898 168.944 142.898 168.492C142.898 168.151 142.749 167.861 142.451 167.621C142.158 167.376 141.583 167.088 140.725 166.758C139.911 166.455 139.33 166.191 138.984 165.967C138.643 165.738 138.387 165.48 138.217 165.192C138.052 164.905 137.969 164.561 137.969 164.162C137.969 163.448 138.26 162.886 138.84 162.476C139.421 162.061 140.217 161.853 141.229 161.853C142.171 161.853 143.093 162.045 143.993 162.428L143.521 163.507C142.643 163.145 141.847 162.964 141.133 162.964C140.504 162.964 140.03 163.062 139.711 163.259C139.391 163.456 139.232 163.728 139.232 164.074C139.232 164.308 139.29 164.508 139.407 164.673C139.53 164.838 139.724 164.995 139.991 165.145C140.257 165.294 140.768 165.509 141.524 165.792C142.563 166.17 143.263 166.551 143.625 166.934C143.993 167.317 144.177 167.799 144.177 168.38Z" fill="#193B72"/>
<path d="M88.0787 179.921C86.7952 179.921 85.7806 180.349 85.035 181.207C84.2948 182.059 83.9246 183.228 83.9246 184.714C83.9246 186.242 84.2815 187.425 84.9951 188.261C85.7141 189.092 86.7366 189.507 88.0627 189.507C88.8776 189.507 89.8069 189.361 90.8507 189.068V190.258C90.0412 190.561 89.0427 190.713 87.855 190.713C86.1348 190.713 84.806 190.191 83.8687 189.148C82.9367 188.104 82.4707 186.62 82.4707 184.698C82.4707 183.494 82.6944 182.44 83.1417 181.534C83.5944 180.629 84.2442 179.931 85.091 179.441C85.9431 178.951 86.9443 178.706 88.0947 178.706C89.3196 178.706 90.3901 178.93 91.3061 179.377L90.7309 180.544C89.8468 180.128 88.9628 179.921 88.0787 179.921Z" fill="#193B72"/>
<path d="M100.184 186.168C100.184 187.595 99.8245 188.711 99.1055 189.515C98.3865 190.314 97.3933 190.713 96.1258 190.713C95.3429 190.713 94.6479 190.53 94.0408 190.162C93.4336 189.795 92.965 189.267 92.6348 188.58C92.3046 187.893 92.1395 187.089 92.1395 186.168C92.1395 184.74 92.4963 183.63 93.2099 182.837C93.9236 182.038 94.9142 181.638 96.1817 181.638C97.4066 181.638 98.3786 182.046 99.0975 182.86C99.8218 183.675 100.184 184.778 100.184 186.168ZM93.5135 186.168C93.5135 187.286 93.7372 188.138 94.1845 188.724C94.6319 189.31 95.2896 189.603 96.1577 189.603C97.0258 189.603 97.6836 189.313 98.1309 188.732C98.5836 188.146 98.8099 187.291 98.8099 186.168C98.8099 185.055 98.5836 184.211 98.1309 183.635C97.6836 183.055 97.0205 182.765 96.1418 182.765C95.2737 182.765 94.6186 183.05 94.1766 183.619C93.7345 184.189 93.5135 185.039 93.5135 186.168Z" fill="#193B72"/>
<path d="M103.19 181.798V187.478C103.19 188.192 103.353 188.724 103.678 189.076C104.002 189.427 104.511 189.603 105.203 189.603C106.119 189.603 106.788 189.353 107.209 188.852C107.635 188.351 107.848 187.534 107.848 186.399V181.798H109.174V190.553H108.079L107.888 189.379H107.816C107.544 189.811 107.166 190.141 106.681 190.37C106.202 190.599 105.653 190.713 105.036 190.713C103.97 190.713 103.172 190.46 102.639 189.954C102.112 189.448 101.848 188.639 101.848 187.526V181.798H103.19Z" fill="#193B72"/>
<path d="M117.413 190.553V184.89C117.413 184.176 117.25 183.643 116.925 183.292C116.6 182.94 116.092 182.765 115.399 182.765C114.483 182.765 113.812 183.012 113.386 183.508C112.96 184.003 112.747 184.82 112.747 185.96V190.553H111.421V181.798H112.5L112.715 182.996H112.779C113.051 182.565 113.432 182.232 113.921 181.998C114.411 181.758 114.957 181.638 115.559 181.638C116.614 181.638 117.407 181.894 117.94 182.405C118.472 182.911 118.739 183.723 118.739 184.842V190.553H117.413Z" fill="#193B72"/>
<path d="M124.397 190.713C123.13 190.713 122.147 190.324 121.449 189.547C120.757 188.764 120.411 187.659 120.411 186.232C120.411 184.767 120.762 183.635 121.465 182.837C122.174 182.038 123.18 181.638 124.485 181.638C124.906 181.638 125.326 181.683 125.747 181.774C126.168 181.865 126.498 181.971 126.738 182.094L126.33 183.22C126.037 183.103 125.718 183.007 125.372 182.932C125.026 182.852 124.719 182.813 124.453 182.813C122.674 182.813 121.785 183.947 121.785 186.216C121.785 187.291 122.001 188.117 122.432 188.692C122.869 189.267 123.513 189.555 124.365 189.555C125.095 189.555 125.843 189.398 126.61 189.084V190.258C126.024 190.561 125.287 190.713 124.397 190.713Z" fill="#193B72"/>
<path d="M129.448 190.553H128.122V181.798H129.448V190.553ZM128.011 179.425C128.011 179.122 128.085 178.901 128.234 178.762C128.383 178.619 128.57 178.547 128.793 178.547C129.006 178.547 129.19 178.619 129.345 178.762C129.499 178.906 129.576 179.127 129.576 179.425C129.576 179.724 129.499 179.947 129.345 180.096C129.19 180.24 129.006 180.312 128.793 180.312C128.57 180.312 128.383 180.24 128.234 180.096C128.085 179.947 128.011 179.724 128.011 179.425Z" fill="#193B72"/>
<path d="M133.014 190.553H131.688V178.123H133.014V190.553Z" fill="#193B72"/>
<path d="M62.9463 155.207H64.4682V194.396H62.9463V155.207Z" fill="#193B72"/>
<path d="M140.001 116.783C137.875 116.783 136.193 117.321 134.422 118.219C134.422 113.103 134.51 108.705 134.599 107L124.238 109.064V110.052L125.212 110.141C126.629 110.321 127.249 111.218 127.337 113.103C127.692 116.873 127.603 136.887 127.337 140.118C130.083 140.746 133.093 141.195 136.104 141.195C144.34 141.195 149.21 136.079 149.21 127.912C149.387 121.45 145.314 116.783 140.001 116.783ZM136.37 139.579C135.75 139.579 135.042 139.49 134.599 139.4C134.422 137.156 134.333 127.912 134.333 119.745C135.307 119.386 135.927 119.386 136.724 119.386C140.089 119.386 142.037 123.335 142.037 128.361C142.126 134.733 139.735 139.579 136.37 139.579ZM85.363 117.052L83.7691 117.501C82.3522 112.744 80.1384 110.052 75.9764 110.052H70.5746C70.3089 113.103 70.2204 118.129 70.2204 123.424L73.8511 123.335C76.242 123.245 77.2161 121.45 77.836 118.757H79.1643V129.886H77.836C77.2161 127.194 76.242 125.399 73.8511 125.309L70.2204 125.219C70.2204 129.258 70.3975 132.579 70.4861 134.643C70.7517 137.605 71.5487 138.951 73.5854 139.22L75.4451 139.4V140.746H58V139.4L59.4169 139.22C61.4536 138.951 62.2506 137.605 62.5162 134.643C62.959 129.797 62.959 119.565 62.5162 113.911C62.2506 110.949 61.4536 109.603 59.4169 109.334L58 109.154V107.808H85.186L85.363 117.052ZM94.0413 116.514C101.745 116.514 105.642 121.809 105.642 128.809C105.642 135.63 101.303 141.195 93.5985 141.195C85.8944 141.195 81.998 135.9 81.998 128.899C81.998 122.078 86.3372 116.514 94.0413 116.514ZM93.6871 118.039C90.2335 118.039 89.348 122.706 89.348 128.899C89.348 134.912 90.8534 139.759 94.0413 139.759C97.4949 139.759 98.3804 135.092 98.3804 128.899C98.3804 122.886 96.875 118.039 93.6871 118.039ZM151.247 129.079C151.247 122.617 155.232 116.514 163.202 116.514C169.666 116.514 172.765 121.36 172.765 127.732H158.331C158.154 133.476 161.076 137.784 166.567 137.784C168.958 137.784 170.286 137.156 171.791 136.079L172.5 136.887C170.906 139.131 167.541 141.285 163.113 141.285C156.206 141.285 151.247 136.259 151.247 129.079ZM158.42 126.117L165.681 125.937C165.681 122.706 165.238 118.039 162.582 118.039C160.014 118.039 158.508 122.437 158.42 126.117ZM191.45 123.783L190.299 124.053C189.059 119.924 187.111 118.129 184.366 118.129C182.506 118.129 181.178 119.565 181.178 121.629C181.178 123.694 182.683 124.771 187.023 126.476C191.096 128.091 192.69 129.886 192.69 133.207C192.69 138.143 188.971 141.195 182.772 141.195C179.85 141.195 176.573 140.567 174.625 139.759L174.448 132.938L175.599 132.669C177.282 137.425 179.495 139.22 182.418 139.22C184.897 139.22 186.226 137.425 186.226 135.541C186.226 133.656 185.163 132.579 181.267 131.143C177.636 129.797 174.979 128.181 174.979 124.053C174.979 120.014 178.521 116.603 184.277 116.603C186.934 116.603 189.502 117.052 191.273 117.86L191.45 123.783ZM123.264 123.604C120.165 121.45 116.8 122.437 116.091 123.604C115.825 127.463 115.914 133.297 116.18 136.259C116.357 138.233 116.888 139.041 118.305 139.22L120.165 139.31V140.656H105.819V139.4L106.793 139.31C108.21 139.131 108.83 138.233 108.918 136.348C109.184 133.117 109.273 126.476 108.918 122.706C108.741 120.732 108.21 119.924 106.793 119.655L105.819 119.565V118.578L116.091 116.514L116.003 121.988C118.394 116.334 123.175 115.616 125.743 117.232L123.264 123.604Z" fill="#193B72"/>
<rect x="102" y="51" width="2" height="36" transform="rotate(90 102 51)" fill="#193B72"/>
<rect x="184" y="51" width="2" height="36" transform="rotate(90 184 51)" fill="#193B72"/>
<path d="M107.908 57V55.7107L112.028 51.7982C112.374 51.4721 112.631 51.1856 112.799 50.9386C112.967 50.6916 113.075 50.4644 113.125 50.2569C113.184 50.0395 113.214 49.837 113.214 49.6493C113.214 49.175 113.051 48.8095 112.725 48.5526C112.398 48.2858 111.919 48.1525 111.287 48.1525C110.783 48.1525 110.324 48.2414 109.909 48.4192C109.504 48.5971 109.153 48.8688 108.856 49.2343L107.508 48.1969C107.913 47.6535 108.456 47.2336 109.138 46.9372C109.83 46.6309 110.6 46.4778 111.45 46.4778C112.201 46.4778 112.853 46.6013 113.406 46.8483C113.969 47.0854 114.399 47.4263 114.696 47.8709C115.002 48.3155 115.155 48.8441 115.155 49.4566C115.155 49.7925 115.111 50.1285 115.022 50.4644C114.933 50.7904 114.765 51.1362 114.518 51.5018C114.271 51.8673 113.91 52.2774 113.436 52.7318L109.894 56.096L109.494 55.3698H115.555V57H107.908ZM120.995 57.1482C120.174 57.1482 119.433 56.9407 118.772 56.5258C118.119 56.1108 117.606 55.5081 117.23 54.7177C116.855 53.9174 116.667 52.9492 116.667 51.813C116.667 50.6768 116.855 49.7135 117.23 48.9231C117.606 48.1228 118.119 47.5152 118.772 47.1002C119.433 46.6853 120.174 46.4778 120.995 46.4778C121.824 46.4778 122.565 46.6853 123.218 47.1002C123.87 47.5152 124.383 48.1228 124.759 48.9231C125.144 49.7135 125.337 50.6768 125.337 51.813C125.337 52.9492 125.144 53.9174 124.759 54.7177C124.383 55.5081 123.87 56.1108 123.218 56.5258C122.565 56.9407 121.824 57.1482 120.995 57.1482ZM120.995 55.4735C121.479 55.4735 121.899 55.3451 122.254 55.0882C122.61 54.8215 122.887 54.4164 123.084 53.873C123.292 53.3296 123.395 52.6429 123.395 51.813C123.395 50.9732 123.292 50.2865 123.084 49.753C122.887 49.2096 122.61 48.8095 122.254 48.5526C121.899 48.2858 121.479 48.1525 120.995 48.1525C120.53 48.1525 120.115 48.2858 119.75 48.5526C119.394 48.8095 119.112 49.2096 118.905 49.753C118.707 50.2865 118.609 50.9732 118.609 51.813C118.609 52.6429 118.707 53.3296 118.905 53.873C119.112 54.4164 119.394 54.8215 119.75 55.0882C120.115 55.3451 120.53 55.4735 120.995 55.4735ZM126.491 57V55.7107L130.611 51.7982C130.957 51.4721 131.214 51.1856 131.381 50.9386C131.549 50.6916 131.658 50.4644 131.708 50.2569C131.767 50.0395 131.796 49.837 131.796 49.6493C131.796 49.175 131.633 48.8095 131.307 48.5526C130.981 48.2858 130.502 48.1525 129.87 48.1525C129.366 48.1525 128.907 48.2414 128.492 48.4192C128.087 48.5971 127.736 48.8688 127.439 49.2343L126.091 48.1969C126.496 47.6535 127.039 47.2336 127.721 46.9372C128.413 46.6309 129.183 46.4778 130.033 46.4778C130.784 46.4778 131.436 46.6013 131.989 46.8483C132.552 47.0854 132.982 47.4263 133.278 47.8709C133.585 48.3155 133.738 48.8441 133.738 49.4566C133.738 49.7925 133.693 50.1285 133.604 50.4644C133.516 50.7904 133.348 51.1362 133.101 51.5018C132.854 51.8673 132.493 52.2774 132.019 52.7318L128.477 56.096L128.077 55.3698H134.138V57H126.491ZM138.51 57.1482C137.779 57.1482 137.063 57.0445 136.361 56.837C135.67 56.6196 135.087 56.3232 134.613 55.9478L135.443 54.451C135.818 54.7572 136.273 55.0042 136.806 55.192C137.34 55.3797 137.898 55.4735 138.481 55.4735C139.172 55.4735 139.711 55.3352 140.096 55.0586C140.481 54.7721 140.674 54.3867 140.674 53.9026C140.674 53.4284 140.496 53.0529 140.141 52.7763C139.785 52.4997 139.212 52.3613 138.421 52.3613H137.473V51.0424L140.437 47.5152L140.689 48.2414H135.117V46.626H142.186V47.9153L139.222 51.4425L138.214 50.8497H138.792C140.066 50.8497 141.02 51.1362 141.652 51.7093C142.294 52.2724 142.616 52.9986 142.616 53.8878C142.616 54.4707 142.467 55.0092 142.171 55.5032C141.875 55.9972 141.42 56.3973 140.807 56.7036C140.205 57 139.439 57.1482 138.51 57.1482Z" fill="#193B72"/>
</g>
<defs>
<clipPath id="clip0_719_80">
<rect width="250" height="250" fill="white"/>
</clipPath>
</defs>
</svg>
