<svg xmlns="http://www.w3.org/2000/svg" xml:space="preserve" viewBox="0 0 1000 1000">
  <path d="M499.69 936.663h398.728c13.853 0 27.706.061 41.558-.04 3.947-.03 7.448-1.502 10.532-4.127 5.414-4.605 7.219-10.585 7.219-17.397-.005-273.349 0-546.695-.045-820.043-.002-5.464-.747-10.924-.908-16.395-.108-3.66-1.98-6.37-4.188-8.907-4.436-5.093-10.267-6.466-16.819-6.466-290.513.049-581.027.042-871.54.053-1.804 0-3.65-.103-5.404.228-4.023.756-7.67 2.356-10.68 5.288-4.695 4.573-5.828 10.453-5.83 16.552-.05 161.117-.041 322.234-.041 483.35 0 115.443-.013 230.886.057 346.328.003 3.24.158 6.8 1.459 9.657 3.49 7.66 9.372 11.975 18.327 11.97 145.858-.075 291.716-.053 437.574-.051" fill="#fff"/>
  <path d="M499.69 936.663h398.728c13.853 0 27.706.061 41.558-.04 3.947-.03 7.448-1.502 10.532-4.127 5.414-4.605 7.219-10.585 7.219-17.397-.005-273.349 0-546.695-.045-820.043-.002-5.464-.747-10.924-.908-16.395-.108-3.66-1.98-6.37-4.188-8.907-4.436-5.093-10.267-6.466-16.819-6.466-290.513.049-581.027.042-871.54.053-1.804 0-3.65-.103-5.404.228-4.023.756-7.67 2.356-10.68 5.288-4.695 4.573-5.828 10.453-5.83 16.552-.05 161.117-.041 322.234-.041 483.35 0 115.443-.013 230.886.057 346.328.003 3.24.158 6.8 1.459 9.657 3.49 7.66 9.372 11.975 18.327 11.97 145.858-.075 291.716-.053 437.574-.051Z" fill="none" stroke="#5f6368" stroke-width="5.333" stroke-miterlimit="10"/>
  <path d="M625.78 651.134c3.413-1.92 6.581-4.896 10.706-4.933 2.171-.141 4.34-.01 6.511.107.165 2.896.179 5.812.093 8.729-4.16.652-9.046-.344-12.437 2.728-2.241 2.18-4.388 4.955-4.447 8.24-.356 9.617.2 19.246-.2 28.862a65.21 65.21 0 0 1-9.014.107c-.248-15.817-.2-31.66-.023-47.48 2.597-.19 5.227-.236 7.827.203.248.865.733 2.584.984 3.439m177.229-5.68c3.368-1.14 7.009-.558 10.434.058.298 3.19.346 6.404.286 9.618-3.486-.18-7.044-1.115-10.483-.227-5.004 1.707-8.181 6.985-8.123 12.168-.202 8.858.107 17.728-.046 26.597a38.84 38.84 0 0 1-9.392.119 1956.842 1956.842 0 0 1 0-47.313 66.307 66.307 0 0 1 7.376-.202 70.27 70.27 0 0 0 2.477 3.534c2.49-1.46 4.839-3.167 7.47-4.352m-61.02 18.925a338.47 338.47 0 0 0 26.194.012c-.485-6.32-6.843-11.432-13.152-10.673-6.401-.38-11.099 5.136-13.043 10.66m-.2-15.164c8.986-6.962 23.158-5.718 30.723 2.82 4.565 5.598 6.783 13.045 5.716 20.24-12.048.382-24.108-.057-36.155.18-1.08 8.786 8.027 15.997 16.4 14.49 4.967-.107 7.92-4.447 11.252-7.457 2.87-.344 5.266 1.825 7.755 2.928-4.837 12.048-20.716 16.92-31.947 11.026-16.646-7.54-17.94-33.64-3.746-44.227m-48.26.912c4.328-2.598 8.715-5.907 14.087-5.324 9.153-.867 17.442 7.293 17.502 16.304.119 10.874.047 21.76.047 32.645a46.49 46.49 0 0 1-9.167.072c-.39-10.803.57-21.664-.497-32.432-.533-6.925-9.072-9.07-14.621-6.937-4.874 2.11-7.648 7.434-7.66 12.605-.202 8.893.106 17.798-.047 26.705-3.155.332-6.32.319-9.464.035a1912.034 1912.034 0 0 1 0-47.337c2.88-.262 5.787-.334 8.657.142.284.878.866 2.644 1.163 3.52m-116.91 30.037c.38 4.827 5.622 7.471 10.022 7.2 6.852-.32 12.64-6.31 12.984-13.117-3.77-3.39-9.261-3.557-14.053-3.165-4.624.225-9.544 4.066-8.952 9.082m-7.696-25.222c7.387-13.707 30.713-13.79 38.146-.01 2.088 4.54 1.65 9.7 1.707 14.572-.152 8.134.203 16.28-.164 24.416a49.933 49.933 0 0 1-7.175-.072c-.77-1.114-1.517-2.217-2.289-3.308-5.43 3.414-11.81 7.103-18.426 4.85-9.58-1.447-16.934-12.403-12.724-21.606 2.62-7.125 10.412-10.22 17.432-10.742 4.968-.379 9.746 1.316 14.666 1.624-.484-5.775-4.788-11.324-11.026-10.947-5.48-.922-10.055 2.398-13.648 6.098-2.444-1.234-4.543-3-6.5-4.875m87.074-9.333c.13-4.09-.39-8.263.545-12.283 2.966-.07 5.931-.048 8.906.143.261 4.008 0 8.026.273 12.034 3.084 1.65 7.139.392 10.613.902.166 2.812.166 5.645.047 8.48-3.592.165-7.187.236-10.743.722-.048 8.55-.096 17.112.023 25.672-.107 2.219.927 4.863 3.32 5.396 2.645.25 5.301-.25 7.957-.344.32 2.893-.013 5.81-.736 8.632-4.28.25-8.737.843-12.9-.367-3.333-2.04-6.782-4.992-6.949-9.202-.936-9.867.273-19.803-.616-29.67-2.728-.44-5.455-.829-8.17-1.22a109.805 109.805 0 0 1 .2-7.934c2.729-.284 5.598-.01 8.23-.96m-128.421-8.573c-.712 7.104-.523 14.3-.144 21.426 5.728.036 11.515.452 17.219-.246 7.778-2.658 9.736-13.828 3.474-19.01-6.084-3.901-13.766-1.66-20.549-2.17m-9.476-9.178c8.243-.272 16.493-.26 24.736 0 6.44.047 12.25 4.03 15.808 9.226 2.928 4.482 3.083 10.173 2.324 15.32-.664 5.253-4.637 9.32-8.764 12.25-7.457 4.613-16.447 2.49-24.7 3.01-.77 8.68-.059 17.42-.32 26.137a52.475 52.475 0 0 1-9.143.012c.012-21.984-.12-43.97.059-65.955" fill="#606469"/>
  <path d="M625.78 651.134c3.413-1.92 6.581-4.896 10.706-4.933 2.171-.141 4.34-.01 6.511.107.165 2.896.179 5.812.093 8.729-4.16.652-9.046-.344-12.437 2.728-2.241 2.18-4.388 4.955-4.447 8.24-.356 9.617.2 19.246-.2 28.862a65.21 65.21 0 0 1-9.014.107c-.248-15.817-.2-31.66-.023-47.48 2.597-.19 5.227-.236 7.827.203.248.865.733 2.584.984 3.439Zm177.229-5.68c3.368-1.137 7.009-.556 10.434.06.298 3.19.346 6.404.286 9.618-3.486-.18-7.044-1.115-10.483-.227-5.004 1.707-8.181 6.985-8.123 12.168-.202 8.858.107 17.728-.046 26.597a38.84 38.84 0 0 1-9.392.119 1956.842 1956.842 0 0 1 0-47.313 66.307 66.307 0 0 1 7.376-.202 70.27 70.27 0 0 0 2.477 3.534c2.49-1.46 4.839-3.167 7.47-4.352m-61.02 18.925a338.47 338.47 0 0 0 26.194.012c-.485-6.32-6.843-11.432-13.152-10.673-6.401-.38-11.099 5.136-13.043 10.66m-.2-15.164c8.986-6.962 23.158-5.718 30.723 2.82 4.565 5.598 6.783 13.045 5.716 20.24-12.048.382-24.108-.057-36.155.18-1.08 8.786 8.027 15.997 16.4 14.49 4.967-.107 7.92-4.447 11.252-7.457 2.87-.344 5.266 1.825 7.755 2.928-4.837 12.048-20.716 16.92-31.947 11.026-16.646-7.54-17.94-33.64-3.746-44.227m-48.26.912c4.328-2.598 8.715-5.907 14.087-5.324 9.153-.867 17.442 7.293 17.502 16.304.119 10.874.047 21.76.047 32.645a46.49 46.49 0 0 1-9.167.072c-.39-10.803.57-21.664-.497-32.432-.533-6.925-9.072-9.07-14.621-6.937-4.874 2.11-7.648 7.434-7.66 12.605-.202 8.893.106 17.798-.047 26.705-3.155.332-6.32.319-9.464.035a1912.034 1912.034 0 0 1 0-47.337c2.88-.262 5.787-.334 8.657.142.284.878.866 2.644 1.163 3.52m-116.91 30.037c.38 4.827 5.622 7.471 10.022 7.2 6.852-.32 12.64-6.31 12.984-13.117-3.77-3.39-9.261-3.557-14.053-3.165-4.624.225-9.544 4.066-8.952 9.082m-7.696-25.222c7.387-13.707 30.713-13.79 38.146-.01 2.088 4.54 1.65 9.7 1.707 14.572-.152 8.134.203 16.28-.164 24.416a49.933 49.933 0 0 1-7.175-.072c-.77-1.114-1.517-2.217-2.289-3.308-5.43 3.414-11.81 7.103-18.426 4.85-9.58-1.447-16.934-12.403-12.724-21.606 2.62-7.125 10.412-10.22 17.432-10.742 4.968-.379 9.746 1.316 14.666 1.624-.484-5.775-4.788-11.324-11.026-10.947-5.48-.922-10.055 2.398-13.648 6.098-2.444-1.234-4.543-3-6.5-4.875m87.074-9.333c.13-4.09-.39-8.263.545-12.283 2.966-.07 5.931-.048 8.906.143.261 4.008 0 8.026.273 12.034 3.084 1.65 7.139.392 10.613.902.166 2.812.166 5.645.047 8.48-3.592.165-7.187.236-10.743.722-.048 8.55-.096 17.112.023 25.672-.107 2.219.927 4.863 3.32 5.396 2.645.25 5.301-.25 7.957-.344.32 2.893-.013 5.81-.736 8.632-4.28.25-8.737.843-12.9-.367-3.333-2.04-6.782-4.992-6.949-9.202-.936-9.867.273-19.803-.616-29.67-2.728-.44-5.455-.829-8.17-1.22a109.805 109.805 0 0 1 .2-7.934c2.729-.284 5.598-.01 8.23-.96m-128.421-8.573c-.712 7.104-.523 14.3-.144 21.426 5.728.036 11.515.452 17.219-.246 7.778-2.658 9.736-13.828 3.474-19.01-6.084-3.901-13.766-1.66-20.549-2.17m-9.476-9.178c8.243-.272 16.493-.26 24.736 0 6.44.047 12.25 4.03 15.808 9.226 2.928 4.482 3.083 10.173 2.324 15.32-.664 5.253-4.637 9.32-8.764 12.25-7.457 4.613-16.447 2.49-24.7 3.01-.77 8.68-.059 17.42-.32 26.137a52.475 52.475 0 0 1-9.143.012c.012-21.984-.12-43.97.059-65.955" fill="none" stroke="#5f6368" stroke-width=".333" stroke-miterlimit="10"/>
  <path d="M406.928 316.644c26.454-27.249 64.97-41.62 102.737-40.186 22.128 1.482 44.267 7.245 63.192 19.056 7.839 4.91 15.678 10.162 21.914 17.064-5.964 6.984-12.95 13.02-19.27 19.672-6.736 6.474-13.008 13.434-19.946 19.684-10.85-9.854-24.295-17.3-38.963-19.268-15.215-1.78-31.283-1.044-45.24 5.833-15.51 6.996-28.59 19.08-37.174 33.724-2.964 4.945-4.898 10.412-7.34 15.617-15.475-11.396-30.322-23.597-45.654-35.182 6.024-13.554 15.203-25.65 25.744-36.014" fill="#ea4335"/>
  <path d="M381.186 352.658c15.33 11.585 30.177 23.786 45.653 35.182-2.301 11.099-5.765 22.448-3.64 33.879.64 6.285 2.524 12.344 3.65 18.546-12.06 9.52-24.32 18.795-36.285 28.459-3.012 2.419-6.309 4.47-9.712 6.307-8.194-16.576-13.422-34.85-13.957-53.407-.497-12.155-.083-24.474 2.513-36.392 2.8-11.206 5.93-22.542 11.776-32.574" fill="#fbbc04"/>
  <path d="M504.65 388.872c37.613-.013 75.227.012 112.84 0 4.802.024 9.64-.356 14.42.427 8.3 40.874-.734 86.184-27.902 118.438-2.964 3.532-5.81 7.363-9.901 9.664-15.026-11.04-29.384-22.933-44.254-34.186 13.019-9.784 23.04-24.464 24.794-40.887-23.467-.428-46.946.155-70.4-.273-.652-13.886-.048-27.807-.286-41.716.131-3.819-.509-7.768.688-11.467" fill="#4284f4"/>
  <path d="M390.564 468.723c11.966-9.664 24.226-18.938 36.286-28.459 2.976 5.513 4.838 11.587 8.3 16.84 10.804 17.75 28.496 31.197 48.571 36.627 14.04 3.273 28.791 2.846 42.831-.26 8.288-2.122 15.867-6.142 23.301-10.256 14.87 11.253 29.23 23.146 44.254 34.186-3.618 4.612-8.55 7.875-13.282 11.23-22.388 15.842-50.112 22.15-77.173 22.826-27.308-.557-54.686-8.324-77.23-24.001-19.363-13.163-35.206-31.436-45.57-52.425 3.404-1.836 6.7-3.888 9.712-6.307" fill="#34a853"/>
  <path d="M462.779 654.86c-4.115 1.458-5.976 5.833-7.223 9.676 8.658.093 17.325.153 25.981-.06-.936-2.811-1.66-5.964-4.066-7.922-4.008-3.368-9.984-3.58-14.692-1.694m-10.352-3.32c4.328-4.507 10.553-7.247 16.861-6.712 7.899-.368 15.263 4.6 19.235 11.205 2.726 4.755 2.893 10.447 2.786 15.796-11.882 1.457-23.989.046-35.953.664-1.044 9.022 8.62 16.446 17.181 14.3 4.886-.499 7.627-4.84 10.554-8.206 2.502 1.043 4.946 2.218 7.388 3.391-1.636 6.96-8.656 11.55-15.274 13.235-7.042 2.157-14.595-.19-20.56-4.08-6.426-4.672-8.86-12.903-9.63-20.444.523-6.83 2.267-14.253 7.413-19.15m-62.149 3.142c-10.364 4.839-11.692 20.265-4.423 28.317 4.08 4.445 11.254 5.265 16.471 2.453 10.221-6.284 10.459-23.453.403-29.987-3.759-2.076-8.467-2.312-12.451-.783m-17.195 7.625c2.48-9.95 12.036-18.522 22.674-17.468 5.193-.378 9.368 3.024 13.589 5.48.415-1.317.841-2.633 1.256-3.937 2.775-.179 5.55-.19 8.325-.024.308 15.237.035 30.498.13 45.75.19 7.492-2.952 15.556-9.486 19.67-5.752 3.688-12.949 3.76-19.518 3.012-7.163-.936-13.6-6.308-15.736-13.222 2.23-1.682 4.802-3.853 7.802-3.285 2.562 2.599 4.708 5.787 8.064 7.46 6.071 2.964 13.922.475 17.739-4.957 2.17-3.178 2.004-7.163 2.053-10.84-4.993 3.18-10.472 6.714-16.661 6-6.155-.983-12.688-3.544-16.187-9.01-5.157-6.96-6.2-16.377-4.044-24.629m-35.1-7.921c-12.497 3.84-14.074 23.1-3.698 30.166 5.122 3.51 12.913 3.52 17.597-.782 7.648-5.964 7.968-18.44 1.707-25.507-3.759-4.386-10.256-5.408-15.606-3.877m-2.145-8.8c6.237-1.4 13.221-1.208 18.807 2.207 13.138 6.746 16.708 25.766 8.266 37.483-4.34 6.912-12.572 10.6-20.54 10.8-7.54-.578-15.498-3.828-19.683-10.433-4.246-5.561-4.934-12.936-4.211-19.684.89-9.521 8.408-17.573 17.361-20.373m-52.329 8.93c-5.573 1.85-9.31 7.493-9.593 13.258-.57 5.785.557 12.38 5.513 16.066 7.553 6.7 21.13 2.467 23.6-7.328 1.22-6.189 1.387-13.86-3.808-18.38-3.747-4.52-10.376-5.311-15.712-3.617m-1.139-9.07c6.819-1.471 14.36-.675 20.135 3.509 11.253 7.27 14.253 23.882 7.221 35.065-4.16 7.885-13.316 11.965-21.937 12.024-5.81-.71-11.835-2.608-16.032-6.867-7.056-6.698-9.284-17.56-6.51-26.727 1.897-8.384 9.035-14.694 17.123-17.004m145.984-17.3c3.083-.558 6.227-.547 9.356-.368.415 21.866.083 43.743.165 65.62-3.022 1.14-6.306.523-9.438.417-.238-21.89-.083-43.78-.083-65.67m-223.417 4.743c9.667-7.637 23.455-8.16 34.708-4.054 4.032 1.906 8.61 4.185 10.52 8.489-1.91 2.087-3.915 4.103-6.084 5.917-3.261-2.644-6.523-5.48-10.577-6.806-9.974-2.952-21.83.082-27.96 8.834-5.196 6.06-5.41 14.572-4.33 22.09 2.24 11.763 14.3 20.397 26.16 19.354 10.695.093 21.248-8.847 21.224-19.863-7.718-.569-15.45.047-23.18-.307-1.2-2.42-1.105-5.171-.594-7.744 10.837-1.091 21.83-.344 32.728-.391 1.149 9.676-.332 20.585-7.672 27.63-11.954 12.746-33.678 12.9-46.72 1.74-8.253-7.042-13.045-18.046-12.273-28.895.546-10.2 5.928-19.875 14.05-25.994" fill="#606469" stroke="#5f6368" stroke-miterlimit="10" stroke-width="1.333"/>
</svg>