<?xml version="1.0" encoding="UTF-8"?>
<svg width="174" height="26" viewBox="0 0 174 26" fill="none" xmlns="http://www.w3.org/2000/svg">
<g clip-path="url(#clip0)">
<path d="M7.55536 25.3C4.85914 25.2358 2.23755 24.4016 0 22.8957L0.721194 20.5189C0.721194 20.5189 4.18979 23.0056 7.85071 23.0606C11.649 23.1155 14.211 21.2951 14.211 18.4787C14.211 15.9027 11.9031 14.9753 9.12825 14.0067C5.37118 12.7702 0.824221 11.3895 0.886038 7.0274C0.879169 2.43864 5.11017 0.0480858 10.1379 0C12.6502 0.0385319 15.0831 0.886528 17.0751 2.41803L15.9487 4.38268C14.2119 2.85985 11.9735 2.0329 9.664 2.06082C7.09517 2.06082 4.62251 3.33853 4.67059 5.77716C4.72554 8.46997 7.27375 9.65838 10.5981 10.7643C14.0324 11.9321 18.0985 13.5121 18.0985 17.5719C18.0985 22.8064 14.0186 25.2725 7.55536 25.3Z" fill="#0F4D7A"/>
<path d="M90.1559 25.3C87.4597 25.2358 84.8381 24.4016 82.6006 22.8957L83.2874 20.5189C83.2874 20.5189 86.7217 23.0056 90.417 23.0606C94.2152 23.1155 96.7772 21.2951 96.7772 18.4787C96.7772 15.9027 94.4694 14.9753 91.6945 14.0067C87.9374 12.7702 83.3973 11.3895 83.4523 7.0274C83.4866 2.43864 87.7108 0.0480858 92.7248 0C95.2371 0.0385319 97.6699 0.886528 99.662 2.41803L98.5424 4.38268C96.805 2.86538 94.571 2.03912 92.2646 2.06082C89.6958 2.06082 87.2231 3.33853 87.2712 5.77716C87.3261 8.46997 89.8743 9.65838 93.2056 10.7643C96.6398 11.9321 100.706 13.5121 100.706 17.5719C100.706 22.8064 96.6192 25.2725 90.1559 25.3Z" fill="#0F4D7A"/>
<path d="M34.6237 25.2796C28.0162 25.2796 23.5791 22.9714 23.5791 14.2885V0.467285H27.7002V13.8283C27.7002 20.4229 29.7127 22.8959 35.2144 22.8959C39.5347 22.8959 42.4538 20.5603 42.4538 13.8283V0.467285H45.469V14.261C45.469 21.4602 42.3713 25.2796 34.6237 25.2796Z" fill="#0F4D7A"/>
<path d="M73.2799 24.8124L57.0222 6.82148V24.8124H53.9932V0.467285H56.1361L72.4214 18.5613V0.467285H75.4092V24.8124H73.2799Z" fill="#0F4D7A"/>
<path d="M116.401 2.62428V24.8124H112.3V2.62428H103.79V0.467285H124.87V2.62428H116.401Z" fill="#0F4D7A"/>
<path d="M165.806 13.9107C168.409 12.894 171.212 10.7508 171.267 6.97261C171.308 3.79207 168.773 0.467285 162.53 0.467285H153.34V24.8124H157.289V15.3533H160.82C161.345 15.3017 161.874 15.3844 162.358 15.5937C163.835 16.4318 169.604 24.8124 169.604 24.8124H174.007L165.806 13.9107ZM160.723 12.4681H157.289V2.69297H162.468C165.428 2.69297 167.537 4.36223 167.537 7.10312C167.53 10.9912 163.876 12.2414 160.723 12.4681Z" fill="#0F4D7A"/>
<path d="M143.758 24.7296L139.809 15.1125H131.265L127.356 24.7296H124.472L134.211 0.343262H137.92L147.818 24.7296H143.758ZM135.441 4.36186L131.876 13.5669H139.225L135.441 4.36186Z" fill="#0F4D7A"/>
</g>
<defs>
<clipPath id="clip0">
<rect width="174" height="25.3" fill="white"/>
</clipPath>
</defs>
</svg>
