<?xml version="1.0" encoding="UTF-8"?>
<svg id="Calque_1" xmlns="http://www.w3.org/2000/svg" version="1.1" viewBox="0 0 146.49 99.74">
  <!-- Generator: Adobe Illustrator 30.1.0, SVG Export Plug-In . SVG Version: 2.1.1 Build 136)  -->
  <defs>
    <style>
      .st0 {
        fill: #fff;
      }
    </style>
  </defs>
  <g>
    <path class="st0" d="M31.07,68.05h-10.37c.37,1.93,1.98,3.17,4.28,3.17,1.48,0,2.65-.47,3.59-1.44l1.66,1.91c-1.19,1.41-3.04,2.15-5.32,2.15-4.43,0-7.3-2.85-7.3-6.78s2.9-6.76,6.83-6.76,6.68,2.7,6.68,6.83c0,.25-.02.62-.05.92ZM20.67,65.99h7.5c-.25-1.91-1.71-3.22-3.74-3.22s-3.46,1.29-3.76,3.22Z"/>
    <path class="st0" d="M33.66,65.5h6.81v2.57h-6.81v-2.57Z"/>
    <path class="st0" d="M43.04,65c0-5.17,3.96-8.91,9.28-8.91,2.82,0,5.25,1.01,6.86,2.9l-2.08,1.96c-1.26-1.36-2.82-2.03-4.63-2.03-3.59,0-6.19,2.52-6.19,6.09s2.6,6.09,6.19,6.09c1.81,0,3.37-.67,4.63-2.05l2.08,1.98c-1.61,1.88-4.03,2.9-6.88,2.9-5.3,0-9.26-3.74-9.26-8.91Z"/>
    <path class="st0" d="M60.38,67.06c0-3.96,2.97-6.76,7.03-6.76s7.05,2.8,7.05,6.76-2.94,6.78-7.05,6.78-7.03-2.82-7.03-6.78ZM71.35,67.06c0-2.52-1.68-4.13-3.94-4.13s-3.91,1.61-3.91,4.13,1.68,4.13,3.91,4.13,3.94-1.61,3.94-4.13Z"/>
    <path class="st0" d="M99.53,66.09v7.57h-3.09v-7.18c0-2.35-1.09-3.49-2.97-3.49-2.03,0-3.44,1.34-3.44,3.96v6.71h-3.09v-7.18c0-2.35-1.09-3.49-2.97-3.49-2.05,0-3.44,1.34-3.44,3.96v6.71h-3.09v-13.22h2.95v1.68c.99-1.19,2.52-1.83,4.33-1.83,1.93,0,3.54.72,4.46,2.2,1.06-1.36,2.85-2.2,4.95-2.2,3.19,0,5.42,1.81,5.42,5.79Z"/>
    <path class="st0" d="M114.55,65.92v7.75h-2.92v-1.61c-.74,1.14-2.18,1.78-4.16,1.78-3.02,0-4.92-1.66-4.92-3.96s1.48-3.93,5.49-3.93h3.42v-.2c0-1.81-1.09-2.87-3.29-2.87-1.48,0-3.02.5-4.01,1.31l-1.21-2.25c1.41-1.09,3.46-1.63,5.59-1.63,3.81,0,6.01,1.81,6.01,5.62ZM111.45,69.53v-1.53h-3.19c-2.1,0-2.67.79-2.67,1.76,0,1.11.94,1.83,2.52,1.83s2.82-.69,3.34-2.05Z"/>
    <path class="st0" d="M116.99,72.35l1.19-2.35c1.16.77,2.95,1.31,4.6,1.31,1.96,0,2.77-.54,2.77-1.46,0-2.52-8.17-.15-8.17-5.42,0-2.5,2.25-4.13,5.82-4.13,1.76,0,3.76.42,4.95,1.14l-1.19,2.35c-1.26-.74-2.53-.99-3.79-.99-1.88,0-2.77.62-2.77,1.48,0,2.67,8.17.3,8.17,5.47,0,2.48-2.28,4.08-5.99,4.08-2.2,0-4.41-.64-5.59-1.48Z"/>
  </g>
  <g>
    <path class="st0" d="M17.38,83.32c0-1.86,1.42-3.24,3.34-3.24.93,0,1.76.31,2.33.93l-.43.43c-.52-.53-1.15-.75-1.88-.75-1.54,0-2.69,1.13-2.69,2.64s1.16,2.64,2.69,2.64c.73,0,1.36-.23,1.88-.76l.43.43c-.56.62-1.4.94-2.34.94-1.91,0-3.33-1.37-3.33-3.24Z"/>
    <path class="st0" d="M23.65,84.11c0-1.42,1.04-2.43,2.44-2.43s2.43,1.01,2.43,2.43-1.03,2.44-2.43,2.44-2.44-1.02-2.44-2.44ZM27.86,84.11c0-1.12-.75-1.86-1.77-1.86s-1.78.75-1.78,1.86.76,1.86,1.78,1.86,1.77-.75,1.77-1.86Z"/>
    <path class="st0" d="M37.72,83.73v2.77h-.65v-2.71c0-1.01-.51-1.53-1.37-1.53-.98,0-1.6.64-1.6,1.73v2.51h-.65v-2.71c0-1.01-.51-1.53-1.38-1.53-.97,0-1.6.64-1.6,1.73v2.51h-.65v-4.78h.62v.87c.34-.57.96-.91,1.75-.91s1.41.34,1.7,1.01c.35-.62,1.03-1.01,1.89-1.01,1.16,0,1.93.67,1.93,2.05Z"/>
    <path class="st0" d="M47.36,83.73v2.77h-.65v-2.71c0-1.01-.51-1.53-1.37-1.53-.98,0-1.6.64-1.6,1.73v2.51h-.65v-2.71c0-1.01-.51-1.53-1.38-1.53-.97,0-1.6.64-1.6,1.73v2.51h-.65v-4.78h.62v.87c.34-.57.96-.91,1.75-.91s1.41.34,1.7,1.01c.35-.62,1.03-1.01,1.89-1.01,1.16,0,1.93.67,1.93,2.05Z"/>
    <path class="st0" d="M53.3,84.31h-4c.07,1,.84,1.66,1.88,1.66.58,0,1.1-.21,1.46-.63l.36.42c-.43.51-1.09.78-1.85.78-1.49,0-2.51-1.02-2.51-2.44s.99-2.43,2.34-2.43,2.32.99,2.32,2.43c0,.05,0,.13,0,.2ZM49.3,83.83h3.39c-.08-.94-.76-1.59-1.7-1.59s-1.61.65-1.69,1.59Z"/>
    <path class="st0" d="M57.03,81.68v.63c-.05,0-.11,0-.16,0-1,0-1.61.64-1.61,1.76v2.44h-.65v-4.78h.62v.94c.3-.64.91-.97,1.79-.97Z"/>
    <path class="st0" d="M57.66,84.11c0-1.43,1.04-2.43,2.46-2.43.81,0,1.49.32,1.87.95l-.48.33c-.33-.48-.84-.71-1.39-.71-1.05,0-1.81.75-1.81,1.86s.76,1.86,1.81,1.86c.55,0,1.06-.22,1.39-.7l.48.33c-.38.62-1.06.95-1.87.95-1.43,0-2.46-1.01-2.46-2.44Z"/>
    <path class="st0" d="M67.35,84.31h-4c.07,1,.84,1.66,1.88,1.66.58,0,1.1-.21,1.46-.63l.36.42c-.43.51-1.09.78-1.85.78-1.49,0-2.51-1.02-2.51-2.44s.99-2.43,2.34-2.43,2.32.99,2.32,2.43c0,.05,0,.13,0,.2ZM63.35,83.83h3.39c-.08-.94-.76-1.59-1.7-1.59s-1.61.65-1.69,1.59Z"/>
    <path class="st0" d="M78.95,83.73v2.77h-.65v-2.71c0-1.01-.51-1.53-1.37-1.53-.98,0-1.6.64-1.6,1.73v2.51h-.65v-2.71c0-1.01-.51-1.53-1.38-1.53-.97,0-1.6.64-1.6,1.73v2.51h-.65v-4.78h.62v.87c.34-.57.96-.91,1.75-.91s1.41.34,1.7,1.01c.35-.62,1.03-1.01,1.89-1.01,1.16,0,1.93.67,1.93,2.05Z"/>
    <path class="st0" d="M84.31,83.54v2.96h-.62v-.75c-.29.49-.86.79-1.65.79-1.08,0-1.75-.56-1.75-1.39,0-.74.47-1.36,1.85-1.36h1.52v-.29c0-.82-.46-1.26-1.36-1.26-.62,0-1.2.22-1.59.56l-.29-.48c.48-.41,1.19-.65,1.95-.65,1.24,0,1.94.62,1.94,1.85ZM83.66,85.06v-.78h-1.5c-.93,0-1.23.36-1.23.85,0,.55.45.9,1.21.9s1.26-.35,1.52-.97Z"/>
    <path class="st0" d="M90.44,79.75v6.75h-.62v-.95c-.39.65-1.06.99-1.85.99-1.36,0-2.38-.99-2.38-2.44s1.02-2.43,2.38-2.43c.76,0,1.42.33,1.82.95v-2.87h.65ZM89.8,84.11c0-1.12-.76-1.86-1.77-1.86s-1.78.75-1.78,1.86.76,1.86,1.78,1.86,1.77-.75,1.77-1.86Z"/>
    <path class="st0" d="M96.4,84.31h-4c.07,1,.84,1.66,1.88,1.66.58,0,1.1-.21,1.46-.63l.36.42c-.43.51-1.09.78-1.85.78-1.49,0-2.51-1.02-2.51-2.44s.99-2.43,2.34-2.43,2.32.99,2.32,2.43c0,.05,0,.13,0,.2ZM92.4,83.83h3.39c-.08-.94-.76-1.59-1.7-1.59s-1.61.65-1.69,1.59Z"/>
    <path class="st0" d="M99.44,85.96l.29-.51c.38.3,1.03.54,1.7.54.91,0,1.28-.31,1.28-.78,0-1.25-3.1-.26-3.1-2.16,0-.78.67-1.36,1.89-1.36.62,0,1.29.17,1.69.45l-.28.52c-.42-.29-.92-.41-1.41-.41-.86,0-1.25.34-1.25.79,0,1.29,3.1.32,3.1,2.16,0,.83-.73,1.36-1.97,1.36-.79,0-1.55-.25-1.95-.59Z"/>
    <path class="st0" d="M104.41,80.21c0-.25.21-.46.47-.46s.47.2.47.45c0,.26-.2.47-.47.47s-.47-.21-.47-.46ZM104.55,81.72h.65v4.78h-.65v-4.78Z"/>
    <path class="st0" d="M114.89,83.73v2.77h-.65v-2.71c0-1.01-.51-1.53-1.37-1.53-.98,0-1.6.64-1.6,1.73v2.51h-.65v-2.71c0-1.01-.51-1.53-1.38-1.53-.97,0-1.6.64-1.6,1.73v2.51h-.65v-4.78h.62v.87c.34-.57.96-.91,1.76-.91s1.41.34,1.7,1.01c.35-.62,1.03-1.01,1.89-1.01,1.16,0,1.93.67,1.93,2.05Z"/>
    <path class="st0" d="M121.49,84.11c0,1.46-1.02,2.44-2.38,2.44-.76,0-1.42-.33-1.82-.95v2.67h-.65v-6.55h.62v.95c.39-.64,1.05-.98,1.85-.98,1.36,0,2.38.98,2.38,2.43ZM120.84,84.11c0-1.11-.77-1.86-1.78-1.86s-1.78.75-1.78,1.86.76,1.86,1.78,1.86,1.78-.75,1.78-1.86Z"/>
    <path class="st0" d="M122.8,79.75h.65v6.75h-.65v-6.75Z"/>
    <path class="st0" d="M129.41,84.31h-4c.07,1,.84,1.66,1.88,1.66.58,0,1.1-.21,1.46-.63l.36.42c-.43.51-1.09.78-1.85.78-1.49,0-2.51-1.02-2.51-2.44s.99-2.43,2.34-2.43,2.32.99,2.32,2.43c0,.05,0,.13,0,.2ZM125.41,83.83h3.39c-.08-.94-.76-1.59-1.7-1.59s-1.61.65-1.69,1.59Z"/>
  </g>
  <g>
    <circle class="st0" cx="65.44" cy="47.8" r="1.96"/>
    <circle class="st0" cx="87.77" cy="47.8" r="1.96"/>
    <rect class="st0" x="44.14" y="39.87" width="9.54" height="3.32"/>
    <rect class="st0" x="33.01" y="30.25" width="15.53" height="3.32"/>
    <path class="st0" d="M98.42,13.72c-.47-.52-1.14-.81-1.84-.81h-41.83l-.44-2.05h-7.15v3.32h4.47l.11.51h0s4.86,21.02,4.86,21.02h0s.07.3.07.3l.35,1.51h.03s.58,2.32.58,2.32c.4,2.16,2.28,3.72,4.47,3.72h30.1v-3.32h-30.1c-.61,0-1.09-.43-1.22-1.1l-.51-2.06,35.21-4.57c1.1-.19,1.94-1.09,2.05-2.2l1.44-14.69c.07-.7-.16-1.39-.63-1.91ZM95.66,16.23l-1.28,13.1-34.8,4.52-4.07-17.61h40.16Z"/>
  </g>
</svg>